<svg width="446" height="50" viewBox="0 0 446 50" fill="none" xmlns="http://www.w3.org/2000/svg">
<g filter="url(#filter0_di_966_2000)">
<mask id="path-1-outside-1_966_2000" maskUnits="userSpaceOnUse" x="2" y="-1" width="442" height="45" fill="black">
<rect fill="white" x="2" y="-1" width="442" height="45"/>
<path d="M24.68 41.72C18.32 41.72 13.28 40 9.56 36.56C5.88 33.12 4.04 28.14 4.04 21.62C4.04 17.22 4.88 13.46 6.56 10.34C8.28 7.18 10.72 4.78 13.88 3.14C17.08 1.5 20.84 0.679997 25.16 0.679997C27.2 0.679997 28.86 0.839997 30.14 1.16C31.46 1.44 32.74 1.82 33.98 2.3C34.9 2.7 35.58 2.9 36.02 2.9C36.38 2.9 36.7 2.82 36.98 2.66C37.3 2.5 37.52 2.26 37.64 1.94L37.82 1.4H39.8L40.16 12.74H37.88C37.32 9.62 36.04 7.16 34.04 5.36C32.08 3.56 29.64 2.66 26.72 2.66C22.16 2.66 19.04 4.6 17.36 8.48C15.72 12.32 14.9 16.64 14.9 21.44C14.9 27.08 15.9 31.54 17.9 34.82C19.9 38.1 22.88 39.74 26.84 39.74C27.92 39.74 28.76 39.64 29.36 39.44C30 39.24 30.74 38.92 31.58 38.48V28.52C31.58 27.48 31.48 26.72 31.28 26.24C31.12 25.72 30.84 25.4 30.44 25.28C30.08 25.12 29.54 25.04 28.82 25.04H27.92V23.06H45.32V25.04H44.24C43.4 25.04 42.74 25.3 42.26 25.82C41.82 26.3 41.6 27.2 41.6 28.52V41H39.62C39.34 40.64 39.04 40.38 38.72 40.22C38.4 40.02 37.92 39.92 37.28 39.92C36.96 39.92 36.24 40.06 35.12 40.34C33.48 40.74 31.86 41.06 30.26 41.3C28.7 41.58 26.84 41.72 24.68 41.72ZM48.2183 39.02C49.5783 39.02 50.5183 38.94 51.0383 38.78C51.5983 38.62 51.9583 38.34 52.1183 37.94C52.2783 37.5 52.3583 36.74 52.3583 35.66V6.8C52.3583 5.76 52.2583 5.02 52.0583 4.58C51.8983 4.1 51.5383 3.78 50.9783 3.62C50.4183 3.46 49.4983 3.38 48.2183 3.38V1.4H66.6383C71.9983 1.4 75.9383 2.24 78.4583 3.92C80.9783 5.56 82.2383 7.96 82.2383 11.12C82.2383 14 81.2983 16.26 79.4183 17.9C77.5383 19.54 75.0783 20.6 72.0383 21.08V21.2C74.4783 21.6 76.2383 22.38 77.3183 23.54C78.4383 24.66 79.2783 26.58 79.8383 29.3L80.5583 32.66C80.9183 34.38 81.2783 35.68 81.6383 36.56C81.9983 37.4 82.4983 38.02 83.1383 38.42C83.8183 38.82 84.7783 39.02 86.0183 39.02V41H74.1983C73.6383 40.6 73.0983 39.88 72.5783 38.84C72.0583 37.8 71.6583 36.68 71.3783 35.48L69.5783 27.2C69.2583 25.68 68.7783 24.54 68.1383 23.78C67.4983 23.02 66.4983 22.64 65.1383 22.64H62.6783V35.66C62.6783 36.7 62.7583 37.44 62.9183 37.88C63.1183 38.32 63.4783 38.62 63.9983 38.78C64.5183 38.94 65.3783 39.02 66.5783 39.02V41H48.2183V39.02ZM64.3583 20.24C67.0383 20.24 68.9983 19.58 70.2383 18.26C71.4783 16.94 72.0983 14.8 72.0983 11.84C72.0983 9.04 71.5183 6.98 70.3583 5.66C69.2383 4.3 67.4183 3.62 64.8983 3.62C63.9783 3.62 63.3783 3.76 63.0983 4.04C62.8183 4.28 62.6783 4.84 62.6783 5.72V20.24H64.3583ZM124.898 36.02C125.258 37.02 125.578 37.72 125.858 38.12C126.138 38.48 126.538 38.72 127.058 38.84C127.578 38.96 128.418 39.02 129.578 39.02V41H110.378V39.02H113.318C114.398 39.02 114.938 38.6 114.938 37.76C114.938 37.44 114.838 37.02 114.638 36.5L111.218 27.32H98.9178L95.4378 36.68C95.2778 37.12 95.1978 37.5 95.1978 37.82C95.1978 38.62 95.7978 39.02 96.9978 39.02H99.2778V41H86.7978V39.02C87.9978 39.02 88.8978 38.96 89.4978 38.84C90.1378 38.68 90.6578 38.38 91.0578 37.94C91.4978 37.46 91.9178 36.72 92.3178 35.72L105.998 1.4H112.178L124.898 36.02ZM110.378 24.98L105.158 10.88H104.978L99.7578 24.98H110.378ZM138.839 9.2H138.779V35.9C138.779 37.06 138.979 37.88 139.379 38.36C139.819 38.8 140.619 39.02 141.779 39.02H143.399V41H132.119V39.02H133.499C134.459 39.02 135.159 38.78 135.599 38.3C136.079 37.78 136.319 36.98 136.319 35.9V6.8C136.319 5.76 136.219 5.02 136.019 4.58C135.859 4.14 135.479 3.84 134.879 3.68C134.319 3.52 133.379 3.42 132.059 3.38V1.4H146.219L164.279 29.6H164.459V6.26C164.459 4.34 163.439 3.38 161.399 3.38H159.719V1.4H170.819V3.38H169.679C167.839 3.38 166.919 4.34 166.919 6.26V41.42H159.959L138.839 9.2ZM174.546 39.02C176.186 39.02 177.306 38.96 177.906 38.84C178.506 38.68 178.886 38.4 179.046 38C179.206 37.56 179.286 36.78 179.286 35.66V6.8C179.286 5.72 179.186 4.96 178.986 4.52C178.786 4.08 178.366 3.78 177.726 3.62C177.126 3.46 176.066 3.38 174.546 3.38V1.4H194.706C201.786 1.48 207.126 3.08 210.726 6.2C214.326 9.32 216.126 14.14 216.126 20.66C216.126 27.78 214.146 32.96 210.186 36.2C206.226 39.4 200.406 41 192.726 41H174.546V39.02ZM193.026 38.78C197.226 38.78 200.306 37.34 202.266 34.46C204.266 31.54 205.266 27 205.266 20.84C205.266 15.12 204.266 10.82 202.266 7.94C200.266 5.06 197.306 3.62 193.386 3.62C191.906 3.62 190.906 3.74 190.386 3.98C189.866 4.22 189.606 4.86 189.606 5.9V35.24C189.606 36.28 189.706 37.06 189.906 37.58C190.146 38.06 190.486 38.38 190.926 38.54C191.406 38.7 192.106 38.78 193.026 38.78ZM241.304 39.02C242.584 39.02 243.484 38.94 244.004 38.78C244.524 38.62 244.864 38.34 245.024 37.94C245.184 37.5 245.264 36.76 245.264 35.72V3.32H242.564C240.484 3.32 238.704 4.08 237.224 5.6C235.784 7.08 234.944 9.26 234.704 12.14H232.184L232.244 1.4H268.604V12.14H266.204C265.404 6.26 262.624 3.32 257.864 3.32H255.644V35.72C255.644 36.76 255.724 37.5 255.884 37.94C256.044 38.34 256.384 38.62 256.904 38.78C257.424 38.94 258.304 39.02 259.544 39.02V41H241.304V39.02ZM271.812 39.02C273.172 39.02 274.132 38.94 274.692 38.78C275.252 38.58 275.592 38.28 275.712 37.88C275.832 37.48 275.892 36.74 275.892 35.66V6.86C275.892 5.74 275.812 4.98 275.652 4.58C275.532 4.14 275.192 3.84 274.632 3.68C274.112 3.48 273.172 3.38 271.812 3.38V1.4H290.292V3.38C288.932 3.38 287.972 3.48 287.412 3.68C286.852 3.84 286.512 4.14 286.392 4.58C286.272 4.98 286.212 5.74 286.212 6.86V19.1H300.972V6.86C300.972 5.74 300.892 4.98 300.732 4.58C300.612 4.14 300.272 3.84 299.712 3.68C299.192 3.48 298.252 3.38 296.892 3.38V1.4H315.312V3.38C313.952 3.38 312.992 3.48 312.432 3.68C311.912 3.84 311.592 4.14 311.472 4.58C311.352 4.98 311.292 5.74 311.292 6.86V35.66C311.292 36.7 311.352 37.44 311.472 37.88C311.632 38.32 311.972 38.62 312.492 38.78C313.052 38.94 313.992 39.02 315.312 39.02V41H296.892V39.02C298.292 39.02 299.252 38.94 299.772 38.78C300.332 38.58 300.672 38.28 300.792 37.88C300.912 37.48 300.972 36.74 300.972 35.66V21.44H286.212V35.66C286.212 36.7 286.272 37.44 286.392 37.88C286.552 38.32 286.892 38.62 287.412 38.78C287.972 38.94 288.932 39.02 290.292 39.02V41H271.812V39.02ZM319.273 39.02C320.553 39.02 321.473 38.94 322.033 38.78C322.593 38.62 322.953 38.32 323.113 37.88C323.313 37.44 323.413 36.7 323.413 35.66V6.8C323.413 5.76 323.313 5.02 323.113 4.58C322.953 4.1 322.593 3.78 322.033 3.62C321.473 3.46 320.553 3.38 319.273 3.38V1.4H351.613V10.82H349.153C348.633 8.78 348.013 7.26 347.293 6.26C346.613 5.22 345.713 4.52 344.593 4.16C343.513 3.8 342.013 3.62 340.093 3.62H335.953C335.153 3.62 334.573 3.78 334.213 4.1C333.893 4.38 333.733 4.9 333.733 5.66V18.98H340.873C341.953 18.98 342.773 18.84 343.333 18.56C343.893 18.24 344.313 17.7 344.593 16.94C344.873 16.18 345.113 15.02 345.313 13.46H347.293V27.2H345.313C345.153 25.6 344.913 24.42 344.593 23.66C344.313 22.86 343.893 22.32 343.333 22.04C342.773 21.76 341.953 21.62 340.873 21.62H333.733V34.82C333.733 36.06 333.833 36.94 334.033 37.46C334.273 37.94 334.793 38.28 335.593 38.48C336.433 38.68 337.833 38.78 339.793 38.78C341.873 38.78 343.593 38.56 344.953 38.12C346.353 37.68 347.513 36.86 348.433 35.66C349.353 34.46 350.033 32.76 350.473 30.56H352.933L352.213 41H319.273V39.02ZM355.581 39.02H356.361C357.361 39.02 358.101 38.92 358.581 38.72C359.061 38.52 359.381 38.22 359.541 37.82C359.701 37.38 359.781 36.72 359.781 35.84V6.8C359.781 5.76 359.681 5.02 359.481 4.58C359.321 4.14 358.941 3.84 358.341 3.68C357.781 3.52 356.841 3.42 355.521 3.38V1.4H370.101L380.361 27.32H380.421L390.381 1.4H404.301V3.38C403.021 3.42 402.101 3.52 401.541 3.68C400.981 3.84 400.621 4.14 400.461 4.58C400.301 5.02 400.221 5.76 400.221 6.8V35.66C400.221 36.66 400.301 37.4 400.461 37.88C400.661 38.32 401.041 38.62 401.601 38.78C402.161 38.94 403.061 39.02 404.301 39.02V41H386.181V39.02C387.341 39.02 388.161 38.94 388.641 38.78C389.161 38.58 389.501 38.26 389.661 37.82C389.821 37.38 389.901 36.66 389.901 35.66V8.6H389.781L378.141 39.62H374.301L362.301 9.2H362.241V35.84C362.241 37.16 362.441 38.02 362.841 38.42C363.281 38.82 364.221 39.02 365.661 39.02H366.861V41H355.581V39.02ZM408.277 39.02C409.557 39.02 410.477 38.94 411.037 38.78C411.597 38.62 411.957 38.32 412.117 37.88C412.317 37.44 412.417 36.7 412.417 35.66V6.8C412.417 5.76 412.317 5.02 412.117 4.58C411.957 4.1 411.597 3.78 411.037 3.62C410.477 3.46 409.557 3.38 408.277 3.38V1.4H440.617V10.82H438.157C437.637 8.78 437.017 7.26 436.297 6.26C435.617 5.22 434.717 4.52 433.597 4.16C432.517 3.8 431.017 3.62 429.097 3.62H424.957C424.157 3.62 423.577 3.78 423.217 4.1C422.897 4.38 422.737 4.9 422.737 5.66V18.98H429.877C430.957 18.98 431.777 18.84 432.337 18.56C432.897 18.24 433.317 17.7 433.597 16.94C433.877 16.18 434.117 15.02 434.317 13.46H436.297V27.2H434.317C434.157 25.6 433.917 24.42 433.597 23.66C433.317 22.86 432.897 22.32 432.337 22.04C431.777 21.76 430.957 21.62 429.877 21.62H422.737V34.82C422.737 36.06 422.837 36.94 423.037 37.46C423.277 37.94 423.797 38.28 424.597 38.48C425.437 38.68 426.837 38.78 428.797 38.78C430.877 38.78 432.597 38.56 433.957 38.12C435.357 37.68 436.517 36.86 437.437 35.66C438.357 34.46 439.037 32.76 439.477 30.56H441.937L441.217 41H408.277V39.02Z"/>
</mask>
<path d="M24.68 41.72C18.32 41.72 13.28 40 9.56 36.56C5.88 33.12 4.04 28.14 4.04 21.62C4.04 17.22 4.88 13.46 6.56 10.34C8.28 7.18 10.72 4.78 13.88 3.14C17.08 1.5 20.84 0.679997 25.16 0.679997C27.2 0.679997 28.86 0.839997 30.14 1.16C31.46 1.44 32.74 1.82 33.98 2.3C34.9 2.7 35.58 2.9 36.02 2.9C36.38 2.9 36.7 2.82 36.98 2.66C37.3 2.5 37.52 2.26 37.64 1.94L37.82 1.4H39.8L40.16 12.74H37.88C37.32 9.62 36.04 7.16 34.04 5.36C32.08 3.56 29.64 2.66 26.72 2.66C22.16 2.66 19.04 4.6 17.36 8.48C15.72 12.32 14.9 16.64 14.9 21.44C14.9 27.08 15.9 31.54 17.9 34.82C19.9 38.1 22.88 39.74 26.84 39.74C27.92 39.74 28.76 39.64 29.36 39.44C30 39.24 30.74 38.92 31.58 38.48V28.52C31.58 27.48 31.48 26.72 31.28 26.24C31.12 25.72 30.84 25.4 30.44 25.28C30.08 25.12 29.54 25.04 28.82 25.04H27.92V23.06H45.32V25.04H44.24C43.4 25.04 42.74 25.3 42.26 25.82C41.82 26.3 41.6 27.2 41.6 28.52V41H39.62C39.34 40.64 39.04 40.38 38.72 40.22C38.4 40.02 37.92 39.92 37.28 39.92C36.96 39.92 36.24 40.06 35.12 40.34C33.48 40.74 31.86 41.06 30.26 41.3C28.7 41.58 26.84 41.72 24.68 41.72ZM48.2183 39.02C49.5783 39.02 50.5183 38.94 51.0383 38.78C51.5983 38.62 51.9583 38.34 52.1183 37.94C52.2783 37.5 52.3583 36.74 52.3583 35.66V6.8C52.3583 5.76 52.2583 5.02 52.0583 4.58C51.8983 4.1 51.5383 3.78 50.9783 3.62C50.4183 3.46 49.4983 3.38 48.2183 3.38V1.4H66.6383C71.9983 1.4 75.9383 2.24 78.4583 3.92C80.9783 5.56 82.2383 7.96 82.2383 11.12C82.2383 14 81.2983 16.26 79.4183 17.9C77.5383 19.54 75.0783 20.6 72.0383 21.08V21.2C74.4783 21.6 76.2383 22.38 77.3183 23.54C78.4383 24.66 79.2783 26.58 79.8383 29.3L80.5583 32.66C80.9183 34.38 81.2783 35.68 81.6383 36.56C81.9983 37.4 82.4983 38.02 83.1383 38.42C83.8183 38.82 84.7783 39.02 86.0183 39.02V41H74.1983C73.6383 40.6 73.0983 39.88 72.5783 38.84C72.0583 37.8 71.6583 36.68 71.3783 35.48L69.5783 27.2C69.2583 25.68 68.7783 24.54 68.1383 23.78C67.4983 23.02 66.4983 22.64 65.1383 22.64H62.6783V35.66C62.6783 36.7 62.7583 37.44 62.9183 37.88C63.1183 38.32 63.4783 38.62 63.9983 38.78C64.5183 38.94 65.3783 39.02 66.5783 39.02V41H48.2183V39.02ZM64.3583 20.24C67.0383 20.24 68.9983 19.58 70.2383 18.26C71.4783 16.94 72.0983 14.8 72.0983 11.84C72.0983 9.04 71.5183 6.98 70.3583 5.66C69.2383 4.3 67.4183 3.62 64.8983 3.62C63.9783 3.62 63.3783 3.76 63.0983 4.04C62.8183 4.28 62.6783 4.84 62.6783 5.72V20.24H64.3583ZM124.898 36.02C125.258 37.02 125.578 37.72 125.858 38.12C126.138 38.48 126.538 38.72 127.058 38.84C127.578 38.96 128.418 39.02 129.578 39.02V41H110.378V39.02H113.318C114.398 39.02 114.938 38.6 114.938 37.76C114.938 37.44 114.838 37.02 114.638 36.5L111.218 27.32H98.9178L95.4378 36.68C95.2778 37.12 95.1978 37.5 95.1978 37.82C95.1978 38.62 95.7978 39.02 96.9978 39.02H99.2778V41H86.7978V39.02C87.9978 39.02 88.8978 38.96 89.4978 38.84C90.1378 38.68 90.6578 38.38 91.0578 37.94C91.4978 37.46 91.9178 36.72 92.3178 35.72L105.998 1.4H112.178L124.898 36.02ZM110.378 24.98L105.158 10.88H104.978L99.7578 24.98H110.378ZM138.839 9.2H138.779V35.9C138.779 37.06 138.979 37.88 139.379 38.36C139.819 38.8 140.619 39.02 141.779 39.02H143.399V41H132.119V39.02H133.499C134.459 39.02 135.159 38.78 135.599 38.3C136.079 37.78 136.319 36.98 136.319 35.9V6.8C136.319 5.76 136.219 5.02 136.019 4.58C135.859 4.14 135.479 3.84 134.879 3.68C134.319 3.52 133.379 3.42 132.059 3.38V1.4H146.219L164.279 29.6H164.459V6.26C164.459 4.34 163.439 3.38 161.399 3.38H159.719V1.4H170.819V3.38H169.679C167.839 3.38 166.919 4.34 166.919 6.26V41.42H159.959L138.839 9.2ZM174.546 39.02C176.186 39.02 177.306 38.96 177.906 38.84C178.506 38.68 178.886 38.4 179.046 38C179.206 37.56 179.286 36.78 179.286 35.66V6.8C179.286 5.72 179.186 4.96 178.986 4.52C178.786 4.08 178.366 3.78 177.726 3.62C177.126 3.46 176.066 3.38 174.546 3.38V1.4H194.706C201.786 1.48 207.126 3.08 210.726 6.2C214.326 9.32 216.126 14.14 216.126 20.66C216.126 27.78 214.146 32.96 210.186 36.2C206.226 39.4 200.406 41 192.726 41H174.546V39.02ZM193.026 38.78C197.226 38.78 200.306 37.34 202.266 34.46C204.266 31.54 205.266 27 205.266 20.84C205.266 15.12 204.266 10.82 202.266 7.94C200.266 5.06 197.306 3.62 193.386 3.62C191.906 3.62 190.906 3.74 190.386 3.98C189.866 4.22 189.606 4.86 189.606 5.9V35.24C189.606 36.28 189.706 37.06 189.906 37.58C190.146 38.06 190.486 38.38 190.926 38.54C191.406 38.7 192.106 38.78 193.026 38.78ZM241.304 39.02C242.584 39.02 243.484 38.94 244.004 38.78C244.524 38.62 244.864 38.34 245.024 37.94C245.184 37.5 245.264 36.76 245.264 35.72V3.32H242.564C240.484 3.32 238.704 4.08 237.224 5.6C235.784 7.08 234.944 9.26 234.704 12.14H232.184L232.244 1.4H268.604V12.14H266.204C265.404 6.26 262.624 3.32 257.864 3.32H255.644V35.72C255.644 36.76 255.724 37.5 255.884 37.94C256.044 38.34 256.384 38.62 256.904 38.78C257.424 38.94 258.304 39.02 259.544 39.02V41H241.304V39.02ZM271.812 39.02C273.172 39.02 274.132 38.94 274.692 38.78C275.252 38.58 275.592 38.28 275.712 37.88C275.832 37.48 275.892 36.74 275.892 35.66V6.86C275.892 5.74 275.812 4.98 275.652 4.58C275.532 4.14 275.192 3.84 274.632 3.68C274.112 3.48 273.172 3.38 271.812 3.38V1.4H290.292V3.38C288.932 3.38 287.972 3.48 287.412 3.68C286.852 3.84 286.512 4.14 286.392 4.58C286.272 4.98 286.212 5.74 286.212 6.86V19.1H300.972V6.86C300.972 5.74 300.892 4.98 300.732 4.58C300.612 4.14 300.272 3.84 299.712 3.68C299.192 3.48 298.252 3.38 296.892 3.38V1.4H315.312V3.38C313.952 3.38 312.992 3.48 312.432 3.68C311.912 3.84 311.592 4.14 311.472 4.58C311.352 4.98 311.292 5.74 311.292 6.86V35.66C311.292 36.7 311.352 37.44 311.472 37.88C311.632 38.32 311.972 38.62 312.492 38.78C313.052 38.94 313.992 39.02 315.312 39.02V41H296.892V39.02C298.292 39.02 299.252 38.94 299.772 38.78C300.332 38.58 300.672 38.28 300.792 37.88C300.912 37.48 300.972 36.74 300.972 35.66V21.44H286.212V35.66C286.212 36.7 286.272 37.44 286.392 37.88C286.552 38.32 286.892 38.62 287.412 38.78C287.972 38.94 288.932 39.02 290.292 39.02V41H271.812V39.02ZM319.273 39.02C320.553 39.02 321.473 38.94 322.033 38.78C322.593 38.62 322.953 38.32 323.113 37.88C323.313 37.44 323.413 36.7 323.413 35.66V6.8C323.413 5.76 323.313 5.02 323.113 4.58C322.953 4.1 322.593 3.78 322.033 3.62C321.473 3.46 320.553 3.38 319.273 3.38V1.4H351.613V10.82H349.153C348.633 8.78 348.013 7.26 347.293 6.26C346.613 5.22 345.713 4.52 344.593 4.16C343.513 3.8 342.013 3.62 340.093 3.62H335.953C335.153 3.62 334.573 3.78 334.213 4.1C333.893 4.38 333.733 4.9 333.733 5.66V18.98H340.873C341.953 18.98 342.773 18.84 343.333 18.56C343.893 18.24 344.313 17.7 344.593 16.94C344.873 16.18 345.113 15.02 345.313 13.46H347.293V27.2H345.313C345.153 25.6 344.913 24.42 344.593 23.66C344.313 22.86 343.893 22.32 343.333 22.04C342.773 21.76 341.953 21.62 340.873 21.62H333.733V34.82C333.733 36.06 333.833 36.94 334.033 37.46C334.273 37.94 334.793 38.28 335.593 38.48C336.433 38.68 337.833 38.78 339.793 38.78C341.873 38.78 343.593 38.56 344.953 38.12C346.353 37.68 347.513 36.86 348.433 35.66C349.353 34.46 350.033 32.76 350.473 30.56H352.933L352.213 41H319.273V39.02ZM355.581 39.02H356.361C357.361 39.02 358.101 38.92 358.581 38.72C359.061 38.52 359.381 38.22 359.541 37.82C359.701 37.38 359.781 36.72 359.781 35.84V6.8C359.781 5.76 359.681 5.02 359.481 4.58C359.321 4.14 358.941 3.84 358.341 3.68C357.781 3.52 356.841 3.42 355.521 3.38V1.4H370.101L380.361 27.32H380.421L390.381 1.4H404.301V3.38C403.021 3.42 402.101 3.52 401.541 3.68C400.981 3.84 400.621 4.14 400.461 4.58C400.301 5.02 400.221 5.76 400.221 6.8V35.66C400.221 36.66 400.301 37.4 400.461 37.88C400.661 38.32 401.041 38.62 401.601 38.78C402.161 38.94 403.061 39.02 404.301 39.02V41H386.181V39.02C387.341 39.02 388.161 38.94 388.641 38.78C389.161 38.58 389.501 38.26 389.661 37.82C389.821 37.38 389.901 36.66 389.901 35.66V8.6H389.781L378.141 39.62H374.301L362.301 9.2H362.241V35.84C362.241 37.16 362.441 38.02 362.841 38.42C363.281 38.82 364.221 39.02 365.661 39.02H366.861V41H355.581V39.02ZM408.277 39.02C409.557 39.02 410.477 38.94 411.037 38.78C411.597 38.62 411.957 38.32 412.117 37.88C412.317 37.44 412.417 36.7 412.417 35.66V6.8C412.417 5.76 412.317 5.02 412.117 4.58C411.957 4.1 411.597 3.78 411.037 3.62C410.477 3.46 409.557 3.38 408.277 3.38V1.4H440.617V10.82H438.157C437.637 8.78 437.017 7.26 436.297 6.26C435.617 5.22 434.717 4.52 433.597 4.16C432.517 3.8 431.017 3.62 429.097 3.62H424.957C424.157 3.62 423.577 3.78 423.217 4.1C422.897 4.38 422.737 4.9 422.737 5.66V18.98H429.877C430.957 18.98 431.777 18.84 432.337 18.56C432.897 18.24 433.317 17.7 433.597 16.94C433.877 16.18 434.117 15.02 434.317 13.46H436.297V27.2H434.317C434.157 25.6 433.917 24.42 433.597 23.66C433.317 22.86 432.897 22.32 432.337 22.04C431.777 21.76 430.957 21.62 429.877 21.62H422.737V34.82C422.737 36.06 422.837 36.94 423.037 37.46C423.277 37.94 423.797 38.28 424.597 38.48C425.437 38.68 426.837 38.78 428.797 38.78C430.877 38.78 432.597 38.56 433.957 38.12C435.357 37.68 436.517 36.86 437.437 35.66C438.357 34.46 439.037 32.76 439.477 30.56H441.937L441.217 41H408.277V39.02Z" fill="white"/>
<path d="M9.56 36.56L8.53566 37.6558L8.5416 37.6613L9.56 36.56ZM6.56 10.34L5.24251 9.62288L5.23929 9.62885L6.56 10.34ZM13.88 3.14L13.1959 1.80508L13.189 1.80862L13.88 3.14ZM30.14 1.16L29.7762 2.61521L29.8024 2.62175L29.8287 2.62735L30.14 1.16ZM33.98 2.3L34.5781 0.924393L34.55 0.912191L34.5215 0.901144L33.98 2.3ZM36.98 2.66L36.3092 1.31835L36.2719 1.33697L36.2358 1.35763L36.98 2.66ZM37.64 1.94L39.0445 2.46669L39.0542 2.44068L39.063 2.41434L37.64 1.94ZM37.82 1.4V-0.100001H36.7389L36.397 0.925663L37.82 1.4ZM39.8 1.4L41.2992 1.3524L41.2531 -0.100001H39.8V1.4ZM40.16 12.74V14.24H41.7084L41.6592 12.6924L40.16 12.74ZM37.88 12.74L36.4036 13.005L36.6253 14.24H37.88V12.74ZM34.04 5.36L33.0254 6.46479L33.0309 6.46989L33.0366 6.47494L34.04 5.36ZM17.36 8.48L15.9835 7.88398L15.9805 7.89085L17.36 8.48ZM17.9 34.82L19.1807 34.0391L17.9 34.82ZM29.36 39.44L28.9126 38.0083L28.8991 38.0125L28.8857 38.017L29.36 39.44ZM31.58 38.48L32.276 39.8087L33.08 39.3876V38.48H31.58ZM31.28 26.24L29.8463 26.6811L29.8676 26.7502L29.8954 26.8169L31.28 26.24ZM30.44 25.28L29.8308 26.6507L29.9178 26.6894L30.009 26.7167L30.44 25.28ZM27.92 25.04H26.42V26.54H27.92V25.04ZM27.92 23.06V21.56H26.42V23.06H27.92ZM45.32 23.06H46.82V21.56H45.32V23.06ZM45.32 25.04V26.54H46.82V25.04H45.32ZM42.26 25.82L41.1578 24.8026L41.1543 24.8064L42.26 25.82ZM41.6 41V42.5H43.1V41H41.6ZM39.62 41L38.436 41.9209L38.8864 42.5H39.62V41ZM38.72 40.22L37.925 41.492L37.9854 41.5298L38.0492 41.5616L38.72 40.22ZM35.12 40.34L35.4754 41.7973L35.4838 41.7952L35.12 40.34ZM30.26 41.3L30.0375 39.8166L30.0162 39.8198L29.995 39.8236L30.26 41.3ZM24.68 40.22C18.5971 40.22 13.9554 38.5815 10.5784 35.4587L8.5416 37.6613C12.6046 41.4185 18.0429 43.22 24.68 43.22V40.22ZM10.5843 35.4642C7.29064 32.3853 5.54 27.8536 5.54 21.62H2.54C2.54 28.4264 4.46936 33.8547 8.53567 37.6558L10.5843 35.4642ZM5.54 21.62C5.54 17.4092 6.34353 13.9059 7.88071 11.0511L5.23929 9.62885C3.41647 13.0141 2.54 17.0308 2.54 21.62H5.54ZM7.87748 11.0571C9.45614 8.15677 11.6793 5.9721 14.571 4.47137L13.189 1.80862C9.76067 3.5879 7.10386 6.20322 5.24252 9.62289L7.87748 11.0571ZM14.5641 4.4749C17.5138 2.96317 21.0304 2.18 25.16 2.18V-0.820004C20.6496 -0.820004 16.6462 0.0368214 13.1959 1.8051L14.5641 4.4749ZM25.16 2.18C27.1363 2.18 28.6612 2.33647 29.7762 2.61521L30.5038 -0.295216C29.0588 -0.65648 27.2637 -0.820004 25.16 -0.820004V2.18ZM29.8287 2.62735C31.0715 2.89095 32.2744 3.24823 33.4385 3.69885L34.5215 0.901144C33.2056 0.391769 31.8485 -0.0109577 30.4513 -0.307353L29.8287 2.62735ZM33.3819 3.6756C34.3096 4.07892 35.2411 4.4 36.02 4.4V1.4C36.0212 1.4 36.0127 1.40004 35.993 1.39807C35.9734 1.39611 35.9456 1.39245 35.9087 1.38586C35.8337 1.37246 35.7329 1.34909 35.6033 1.31095C35.3416 1.23398 35.0025 1.10892 34.5781 0.924393L33.3819 3.6756ZM36.02 4.4C36.61 4.4 37.1921 4.26645 37.7242 3.96236L36.2358 1.35763C36.2079 1.37355 36.15 1.4 36.02 1.4V4.4ZM37.6508 4.00164C38.292 3.68106 38.7849 3.15907 39.0445 2.46669L36.2355 1.41331C36.2369 1.40953 36.241 1.39984 36.2491 1.38653C36.2572 1.37308 36.2675 1.35926 36.2793 1.34641C36.3047 1.31869 36.3216 1.31214 36.3092 1.31835L37.6508 4.00164ZM39.063 2.41434L39.243 1.87433L36.397 0.925663L36.217 1.46566L39.063 2.41434ZM37.82 2.9H39.8V-0.100001H37.82V2.9ZM38.3008 1.44759L38.6608 12.7876L41.6592 12.6924L41.2992 1.3524L38.3008 1.44759ZM40.16 11.24H37.88V14.24H40.16V11.24ZM39.3564 12.475C38.7484 9.08769 37.3334 6.30597 35.0434 4.24506L33.0366 6.47494C34.7467 8.01403 35.8916 10.1523 36.4036 13.005L39.3564 12.475ZM35.0546 4.2552C32.79 2.17542 29.9761 1.16 26.72 1.16V4.16C29.3039 4.16 31.3701 4.94458 33.0254 6.46479L35.0546 4.2552ZM26.72 1.16C24.2274 1.16 22.017 1.69142 20.1679 2.84117C18.3111 3.99577 16.9259 5.70745 15.9835 7.88398L18.7365 9.07601C19.4741 7.37254 20.4889 6.17423 21.7521 5.38883C23.023 4.59857 24.6526 4.16 26.72 4.16V1.16ZM15.9805 7.89085C14.25 11.9429 13.4 16.4676 13.4 21.44H16.4C16.4 16.8124 17.19 12.6971 18.7395 9.06914L15.9805 7.89085ZM13.4 21.44C13.4 27.2345 14.4238 32.0003 16.6193 35.6009L19.1807 34.0391C17.3762 31.0797 16.4 26.9255 16.4 21.44H13.4ZM16.6193 35.6009C18.9017 39.3441 22.3766 41.24 26.84 41.24V38.24C23.3834 38.24 20.8983 36.8559 19.1807 34.0391L16.6193 35.6009ZM26.84 41.24C27.9842 41.24 29.0106 41.1376 29.8343 40.863L28.8857 38.017C28.5094 38.1424 27.8558 38.24 26.84 38.24V41.24ZM29.8074 40.8717C30.5603 40.6365 31.3862 40.2748 32.276 39.8087L30.884 37.1513C30.0938 37.5652 29.4397 37.8435 28.9126 38.0083L29.8074 40.8717ZM33.08 38.48V28.52H30.08V38.48H33.08ZM33.08 28.52C33.08 27.4402 32.9843 26.4303 32.6646 25.6631L29.8954 26.8169C29.9757 27.0097 30.08 27.5198 30.08 28.52H33.08ZM32.7137 25.7989C32.4562 24.9622 31.8925 24.1497 30.871 23.8433L30.009 26.7167C29.9776 26.7073 29.9402 26.6912 29.9026 26.6669C29.8652 26.6426 29.8381 26.6172 29.8211 26.5978C29.7892 26.5612 29.8117 26.5685 29.8463 26.6811L32.7137 25.7989ZM31.0492 23.9093C30.3985 23.6201 29.6046 23.54 28.82 23.54V26.54C29.4754 26.54 29.7615 26.6199 29.8308 26.6507L31.0492 23.9093ZM28.82 23.54H27.92V26.54H28.82V23.54ZM29.42 25.04V23.06H26.42V25.04H29.42ZM27.92 24.56H45.32V21.56H27.92V24.56ZM43.82 23.06V25.04H46.82V23.06H43.82ZM45.32 23.54H44.24V26.54H45.32V23.54ZM44.24 23.54C43.0665 23.54 41.9748 23.9175 41.1578 24.8026L43.3622 26.8374C43.5052 26.6825 43.7335 26.54 44.24 26.54V23.54ZM41.1543 24.8064C40.303 25.7351 40.1 27.153 40.1 28.52H43.1C43.1 27.9338 43.1498 27.5069 43.2221 27.2112C43.296 26.9089 43.3733 26.8254 43.3657 26.8336L41.1543 24.8064ZM40.1 28.52V41H43.1V28.52H40.1ZM41.6 39.5H39.62V42.5H41.6V39.5ZM40.804 40.0791C40.4231 39.5893 39.9584 39.1621 39.3908 38.8784L38.0492 41.5616C38.1216 41.5979 38.2569 41.6907 38.436 41.9209L40.804 40.0791ZM39.515 38.948C38.8431 38.5281 38.0277 38.42 37.28 38.42V41.42C37.5265 41.42 37.6998 41.4397 37.8141 41.4635C37.9299 41.4876 37.9526 41.5092 37.925 41.492L39.515 38.948ZM37.28 38.42C36.9629 38.42 36.5789 38.4816 36.2137 38.5526C35.8174 38.6296 35.3291 38.7416 34.7562 38.8848L35.4838 41.7952C36.0309 41.6585 36.4626 41.5604 36.7863 41.4974C36.948 41.466 37.0728 41.4453 37.1651 41.4328C37.2649 41.4194 37.2955 41.42 37.28 41.42V38.42ZM34.7646 38.8827C33.1666 39.2725 31.5909 39.5836 30.0375 39.8166L30.4825 42.7834C32.1291 42.5364 33.7934 42.2075 35.4754 41.7973L34.7646 38.8827ZM29.995 39.8236C28.5474 40.0834 26.7807 40.22 24.68 40.22V43.22C26.8993 43.22 28.8526 43.0766 30.525 42.7764L29.995 39.8236ZM48.2183 39.02V37.52H46.7183V39.02H48.2183ZM51.0383 38.78L50.6262 37.3377L50.6116 37.3419L50.5972 37.3463L51.0383 38.78ZM52.1183 37.94L53.511 38.4971L53.5198 38.475L53.528 38.4526L52.1183 37.94ZM52.0583 4.58L50.6353 5.05434L50.6602 5.12903L50.6927 5.2007L52.0583 4.58ZM48.2183 3.38H46.7183V4.88H48.2183V3.38ZM48.2183 1.4V-0.100001H46.7183V1.4H48.2183ZM78.4583 3.92L77.6262 5.16807L77.6331 5.17268L77.6401 5.17721L78.4583 3.92ZM72.0383 21.08L71.8043 19.5984L70.5383 19.7983V21.08H72.0383ZM72.0383 21.2H70.5383V22.4741L71.7956 22.6802L72.0383 21.2ZM77.3183 23.54L76.2204 24.5621L76.2387 24.5817L76.2576 24.6007L77.3183 23.54ZM79.8383 29.3L78.369 29.6025L78.3716 29.6143L79.8383 29.3ZM80.5583 32.66L82.0265 32.3527L82.025 32.3457L80.5583 32.66ZM81.6383 36.56L80.25 37.1279L80.2547 37.1395L80.2596 37.1509L81.6383 36.56ZM83.1383 38.42L82.3433 39.692L82.3604 39.7027L82.3778 39.7129L83.1383 38.42ZM86.0183 39.02H87.5183V37.52H86.0183V39.02ZM86.0183 41V42.5H87.5183V41H86.0183ZM74.1983 41L73.3264 42.2206L73.7176 42.5H74.1983V41ZM72.5783 38.84L71.2366 39.5108V39.5108L72.5783 38.84ZM71.3783 35.48L69.9125 35.7986L69.9149 35.8098L69.9175 35.8208L71.3783 35.48ZM69.5783 27.2L68.1104 27.509L68.1125 27.5186L69.5783 27.2ZM68.1383 23.78L66.9909 24.7462L68.1383 23.78ZM62.6783 22.64V21.14H61.1783V22.64H62.6783ZM62.9183 37.88L61.5086 38.3926L61.5286 38.4475L61.5527 38.5007L62.9183 37.88ZM63.9983 38.78L63.5572 40.2137L63.9983 38.78ZM66.5783 39.02H68.0783V37.52H66.5783V39.02ZM66.5783 41V42.5H68.0783V41H66.5783ZM48.2183 41H46.7183V42.5H48.2183V41ZM70.2383 18.26L69.145 17.233L70.2383 18.26ZM70.3583 5.66L69.2004 6.61356L69.2157 6.63211L69.2315 6.65017L70.3583 5.66ZM63.0983 4.04L64.0745 5.17888L64.1182 5.14139L64.1589 5.10066L63.0983 4.04ZM62.6783 20.24H61.1783V21.74H62.6783V20.24ZM48.2183 40.52C49.5699 40.52 50.7188 40.4477 51.4794 40.2137L50.5972 37.3463C50.3178 37.4323 49.5866 37.52 48.2183 37.52V40.52ZM51.4504 40.2223C52.2881 39.9829 53.1226 39.468 53.511 38.4971L50.7256 37.3829C50.7359 37.3571 50.7509 37.3304 50.7692 37.3063C50.7873 37.2827 50.8025 37.2698 50.8074 37.266C50.8145 37.2604 50.7706 37.2965 50.6262 37.3377L51.4504 40.2223ZM53.528 38.4526C53.7864 37.7419 53.8583 36.7459 53.8583 35.66H50.8583C50.8583 36.7341 50.7702 37.2581 50.7086 37.4274L53.528 38.4526ZM53.8583 35.66V6.8H50.8583V35.66H53.8583ZM53.8583 6.8C53.8583 5.73681 53.7671 4.71441 53.4238 3.95929L50.6927 5.2007C50.7495 5.32558 50.8583 5.78319 50.8583 6.8H53.8583ZM53.4813 4.10565C53.1392 3.0793 52.3431 2.44993 51.3904 2.17771L50.5662 5.06228C50.6743 5.09318 50.6915 5.11869 50.6717 5.10111C50.6625 5.0929 50.6519 5.081 50.6431 5.06748C50.6346 5.05433 50.6331 5.04798 50.6353 5.05434L53.4813 4.10565ZM51.3904 2.17771C50.6137 1.9558 49.5121 1.88 48.2183 1.88V4.88C49.4845 4.88 50.2229 4.9642 50.5662 5.06228L51.3904 2.17771ZM49.7183 3.38V1.4H46.7183V3.38H49.7183ZM48.2183 2.9H66.6383V-0.100001H48.2183V2.9ZM66.6383 2.9C71.9017 2.9 75.4782 3.73605 77.6262 5.16807L79.2903 2.67192C76.3984 0.743944 72.0949 -0.100001 66.6383 -0.100001V2.9ZM77.6401 5.17721C79.7094 6.52391 80.7383 8.43636 80.7383 11.12H83.7383C83.7383 7.48364 82.2471 4.59609 79.2765 2.66279L77.6401 5.17721ZM80.7383 11.12C80.7383 13.6408 79.9337 15.4599 78.4322 16.7696L80.4043 19.0304C82.6629 17.0601 83.7383 14.3592 83.7383 11.12H80.7383ZM78.4322 16.7696C76.8096 18.1851 74.6307 19.1521 71.8043 19.5984L72.2722 22.5616C75.5259 22.0479 78.2669 20.8949 80.4043 19.0304L78.4322 16.7696ZM70.5383 21.08V21.2H73.5383V21.08H70.5383ZM71.7956 22.6802C74.0802 23.0548 75.4625 23.7481 76.2204 24.5621L78.4161 22.5179C77.014 21.0119 74.8764 20.1452 72.2809 19.7198L71.7956 22.6802ZM76.2576 24.6007C77.0661 25.4091 77.8291 26.9798 78.3691 29.6025L81.3075 28.9975C80.7274 26.1802 79.8105 23.9109 78.3789 22.4793L76.2576 24.6007ZM78.3716 29.6143L79.0916 32.9743L82.025 32.3457L81.305 28.9857L78.3716 29.6143ZM79.0901 32.9673C79.4559 34.7151 79.8379 36.1207 80.25 37.1279L83.0266 35.9921C82.7187 35.2393 82.3807 34.0449 82.0265 32.3527L79.0901 32.9673ZM80.2596 37.1509C80.7143 38.2118 81.3932 39.0982 82.3433 39.692L83.9333 37.148C83.6033 36.9418 83.2823 36.5882 83.017 35.9691L80.2596 37.1509ZM82.3778 39.7129C83.3842 40.305 84.65 40.52 86.0183 40.52V37.52C84.9065 37.52 84.2523 37.335 83.8988 37.1271L82.3778 39.7129ZM84.5183 39.02V41H87.5183V39.02H84.5183ZM86.0183 39.5H74.1983V42.5H86.0183V39.5ZM75.0701 39.7794C74.8022 39.588 74.3966 39.1225 73.9199 38.1692L71.2366 39.5108C71.8 40.6375 72.4744 41.612 73.3264 42.2206L75.0701 39.7794ZM73.9199 38.1692C73.4554 37.2402 73.094 36.2317 72.839 35.1392L69.9175 35.8208C70.2226 37.1283 70.6611 38.3598 71.2366 39.5108L73.9199 38.1692ZM72.844 35.1614L71.044 26.8814L68.1125 27.5186L69.9125 35.7986L72.844 35.1614ZM71.0461 26.891C70.7011 25.2523 70.1502 23.8405 69.2857 22.8138L66.9909 24.7462C67.4063 25.2395 67.8154 26.1077 68.1105 27.509L71.0461 26.891ZM69.2857 22.8138C68.266 21.6029 66.769 21.14 65.1383 21.14V24.14C66.2276 24.14 66.7306 24.4371 66.9909 24.7462L69.2857 22.8138ZM65.1383 21.14H62.6783V24.14H65.1383V21.14ZM61.1783 22.64V35.66H64.1783V22.64H61.1783ZM61.1783 35.66C61.1783 36.7139 61.2514 37.6852 61.5086 38.3926L64.328 37.3674C64.2652 37.1948 64.1783 36.6861 64.1783 35.66H61.1783ZM61.5527 38.5007C61.9538 39.383 62.6843 39.9451 63.5572 40.2137L64.4394 37.3463C64.3391 37.3155 64.3033 37.2866 64.2986 37.2827C64.2954 37.2801 64.2948 37.2791 64.2944 37.2786C64.2939 37.278 64.2899 37.2727 64.2838 37.2593L61.5527 38.5007ZM63.5572 40.2137C64.3087 40.4449 65.3644 40.52 66.5783 40.52V37.52C65.3922 37.52 64.7279 37.4351 64.4394 37.3463L63.5572 40.2137ZM65.0783 39.02V41H68.0783V39.02H65.0783ZM66.5783 39.5H48.2183V42.5H66.5783V39.5ZM49.7183 41V39.02H46.7183V41H49.7183ZM64.3583 21.74C67.253 21.74 69.6956 21.0285 71.3316 19.287L69.145 17.233C68.301 18.1315 66.8235 18.74 64.3583 18.74V21.74ZM71.3316 19.287C72.9559 17.5579 73.5983 14.9529 73.5983 11.84H70.5983C70.5983 14.6471 70.0007 16.3221 69.145 17.233L71.3316 19.287ZM73.5983 11.84C73.5983 8.8802 72.993 6.38579 71.485 4.66982L69.2315 6.65017C70.0436 7.5742 70.5983 9.1998 70.5983 11.84H73.5983ZM71.5162 4.70644C70.0045 2.87085 67.6661 2.12 64.8983 2.12V5.12C67.1705 5.12 68.4721 5.72915 69.2004 6.61356L71.5162 4.70644ZM64.8983 2.12C64.3739 2.12 63.8694 2.15878 63.4174 2.26424C62.984 2.36536 62.4568 2.56018 62.0376 2.97933L64.1589 5.10066C64.0198 5.23981 63.9325 5.22463 64.0991 5.18576C64.2472 5.15122 64.5027 5.12 64.8983 5.12V2.12ZM62.1221 2.90112C61.6465 3.30875 61.4339 3.85281 61.3281 4.2762C61.2171 4.71997 61.1783 5.21423 61.1783 5.72H64.1783C64.1783 5.34577 64.2094 5.12003 64.2385 5.0038C64.2521 4.94933 64.2585 4.94709 64.2426 4.97725C64.2261 5.0087 64.1771 5.09089 64.0745 5.17888L62.1221 2.90112ZM61.1783 5.72V20.24H64.1783V5.72H61.1783ZM62.6783 21.74H64.3583V18.74H62.6783V21.74ZM124.898 36.02L126.309 35.5119L126.306 35.5027L124.898 36.02ZM125.858 38.12L124.629 38.9802L124.651 39.0111L124.674 39.0409L125.858 38.12ZM127.058 38.84L126.721 40.3016L127.058 38.84ZM129.578 39.02H131.078V37.52H129.578V39.02ZM129.578 41V42.5H131.078V41H129.578ZM110.378 41H108.878V42.5H110.378V41ZM110.378 39.02V37.52H108.878V39.02H110.378ZM114.638 36.5L113.232 37.0237L113.235 37.0311L113.238 37.0385L114.638 36.5ZM111.218 27.32L112.623 26.7963L112.26 25.82H111.218V27.32ZM98.9178 27.32V25.82H97.8752L97.5118 26.7973L98.9178 27.32ZM95.4378 36.68L94.0318 36.1573L94.0281 36.1674L95.4378 36.68ZM99.2778 39.02H100.778V37.52H99.2778V39.02ZM99.2778 41V42.5H100.778V41H99.2778ZM86.7978 41H85.2978V42.5H86.7978V41ZM86.7978 39.02V37.52H85.2978V39.02H86.7978ZM89.4978 38.84L89.792 40.3109L89.827 40.3039L89.8616 40.2952L89.4978 38.84ZM91.0578 37.94L89.9521 36.9264L89.9479 36.931L91.0578 37.94ZM92.3178 35.72L93.7105 36.2771L93.7112 36.2754L92.3178 35.72ZM105.998 1.4V-0.100001H104.981L104.604 0.844593L105.998 1.4ZM112.178 1.4L113.586 0.882685L113.225 -0.100001H112.178V1.4ZM110.378 24.98V26.48H112.533L111.785 24.4592L110.378 24.98ZM105.158 10.88L106.565 10.3592L106.202 9.38H105.158V10.88ZM104.978 10.88V9.38H103.934L103.571 10.3592L104.978 10.88ZM99.7578 24.98L98.3511 24.4592L97.603 26.48H99.7578V24.98ZM123.486 36.5281C123.851 37.542 124.226 38.4049 124.629 38.9802L127.087 37.2598C126.929 37.035 126.664 36.498 126.309 35.5119L123.486 36.5281ZM124.674 39.0409C125.2 39.7179 125.924 40.1179 126.721 40.3016L127.395 37.3784C127.151 37.3221 127.075 37.2421 127.042 37.1991L124.674 39.0409ZM126.721 40.3016C127.418 40.4626 128.405 40.52 129.578 40.52V37.52C128.431 37.52 127.737 37.4574 127.395 37.3784L126.721 40.3016ZM128.078 39.02V41H131.078V39.02H128.078ZM129.578 39.5H110.378V42.5H129.578V39.5ZM111.878 41V39.02H108.878V41H111.878ZM110.378 40.52H113.318V37.52H110.378V40.52ZM113.318 40.52C114.011 40.52 114.807 40.3923 115.454 39.889C116.172 39.33 116.438 38.526 116.438 37.76H113.438C113.438 37.8115 113.429 37.7866 113.458 37.7204C113.472 37.687 113.493 37.6493 113.522 37.6116C113.551 37.5739 113.583 37.5437 113.612 37.521C113.67 37.4758 113.698 37.4769 113.65 37.4893C113.6 37.5022 113.495 37.52 113.318 37.52V40.52ZM116.438 37.76C116.438 37.1677 116.262 36.5453 116.038 35.9615L113.238 37.0385C113.413 37.4947 113.438 37.7123 113.438 37.76H116.438ZM116.043 35.9763L112.623 26.7963L109.812 27.8437L113.232 37.0237L116.043 35.9763ZM111.218 25.82H98.9178V28.82H111.218V25.82ZM97.5118 26.7973L94.0318 36.1573L96.8438 37.2027L100.324 27.8427L97.5118 26.7973ZM94.0281 36.1674C93.8335 36.7026 93.6978 37.2643 93.6978 37.82H96.6978C96.6978 37.7357 96.7221 37.5374 96.8475 37.1926L94.0281 36.1674ZM93.6978 37.82C93.6978 38.657 94.0475 39.4559 94.8158 39.9681C95.4767 40.4087 96.2785 40.52 96.9978 40.52V37.52C96.7764 37.52 96.6275 37.5011 96.5357 37.4807C96.4434 37.4602 96.4395 37.445 96.4799 37.4719C96.5302 37.5055 96.6015 37.5733 96.652 37.6742C96.6993 37.7689 96.6978 37.8316 96.6978 37.82H93.6978ZM96.9978 40.52H99.2778V37.52H96.9978V40.52ZM97.7778 39.02V41H100.778V39.02H97.7778ZM99.2778 39.5H86.7978V42.5H99.2778V39.5ZM88.2978 41V39.02H85.2978V41H88.2978ZM86.7978 40.52C88.0216 40.52 89.0421 40.4608 89.792 40.3109L89.2036 37.3691C88.7535 37.4591 87.9741 37.52 86.7978 37.52V40.52ZM89.8616 40.2952C90.7563 40.0716 91.547 39.6318 92.1677 38.949L89.9479 36.931C89.7686 37.1282 89.5194 37.2884 89.134 37.3848L89.8616 40.2952ZM92.1635 38.9536C92.7802 38.2809 93.2814 37.35 93.7105 36.2771L90.9251 35.1629C90.5543 36.09 90.2154 36.6391 89.9521 36.9264L92.1635 38.9536ZM93.7112 36.2754L107.391 1.9554L104.604 0.844593L90.9244 35.1646L93.7112 36.2754ZM105.998 2.9H112.178V-0.100001H105.998V2.9ZM110.77 1.91731L123.49 36.5373L126.306 35.5027L113.586 0.882685L110.77 1.91731ZM111.785 24.4592L106.565 10.3592L103.751 11.4008L108.971 25.5008L111.785 24.4592ZM105.158 9.38H104.978V12.38H105.158V9.38ZM103.571 10.3592L98.3511 24.4592L101.165 25.5008L106.385 11.4008L103.571 10.3592ZM99.7578 26.48H110.378V23.48H99.7578V26.48ZM138.839 9.2L140.093 8.37768L139.649 7.7H138.839V9.2ZM138.779 9.2V7.7H137.279V9.2H138.779ZM139.379 38.36L138.227 39.3203L138.27 39.3725L138.318 39.4207L139.379 38.36ZM143.399 39.02H144.899V37.52H143.399V39.02ZM143.399 41V42.5H144.899V41H143.399ZM132.119 41H130.619V42.5H132.119V41ZM132.119 39.02V37.52H130.619V39.02H132.119ZM135.599 38.3L134.497 37.2826L134.493 37.2864L135.599 38.3ZM136.019 4.58L134.609 5.09261L134.629 5.14752L134.653 5.2007L136.019 4.58ZM134.879 3.68L134.467 5.12228L134.48 5.12593L134.492 5.12935L134.879 3.68ZM132.059 3.38H130.559V4.83523L132.013 4.87931L132.059 3.38ZM132.059 1.4V-0.100001H130.559V1.4H132.059ZM146.219 1.4L147.482 0.591036L147.04 -0.100001H146.219V1.4ZM164.279 29.6L163.016 30.409L163.458 31.1H164.279V29.6ZM164.459 29.6V31.1H165.959V29.6H164.459ZM159.719 3.38H158.219V4.88H159.719V3.38ZM159.719 1.4V-0.100001H158.219V1.4H159.719ZM170.819 1.4H172.319V-0.100001H170.819V1.4ZM170.819 3.38V4.88H172.319V3.38H170.819ZM166.919 41.42V42.92H168.419V41.42H166.919ZM159.959 41.42L158.704 42.2423L159.149 42.92H159.959V41.42ZM138.839 7.7H138.779V10.7H138.839V7.7ZM137.279 9.2V35.9H140.279V9.2H137.279ZM137.279 35.9C137.279 37.147 137.477 38.4207 138.227 39.3203L140.531 37.3997C140.481 37.3393 140.279 36.973 140.279 35.9H137.279ZM138.318 39.4207C139.201 40.3033 140.53 40.52 141.779 40.52V37.52C141.284 37.52 140.937 37.4721 140.707 37.4087C140.477 37.3454 140.424 37.2842 140.44 37.2993L138.318 39.4207ZM141.779 40.52H143.399V37.52H141.779V40.52ZM141.899 39.02V41H144.899V39.02H141.899ZM143.399 39.5H132.119V42.5H143.399V39.5ZM133.619 41V39.02H130.619V41H133.619ZM132.119 40.52H133.499V37.52H132.119V40.52ZM133.499 40.52C134.678 40.52 135.868 40.2259 136.705 39.3136L134.493 37.2864C134.449 37.3341 134.24 37.52 133.499 37.52V40.52ZM136.701 39.3174C137.543 38.4056 137.819 37.1647 137.819 35.9H134.819C134.819 36.7953 134.615 37.1544 134.497 37.2826L136.701 39.3174ZM137.819 35.9V6.8H134.819V35.9H137.819ZM137.819 6.8C137.819 5.73681 137.728 4.71441 137.384 3.95929L134.653 5.2007C134.71 5.32558 134.819 5.78319 134.819 6.8H137.819ZM137.429 4.06738C137.049 3.02288 136.169 2.47157 135.265 2.23065L134.492 5.12935C134.648 5.17094 134.693 5.20944 134.684 5.20232C134.679 5.1977 134.663 5.18412 134.646 5.16045C134.628 5.13649 134.616 5.1122 134.609 5.09261L137.429 4.06738ZM135.291 2.23771C134.536 2.02205 133.432 1.92093 132.104 1.88069L132.013 4.87931C133.326 4.91907 134.102 5.01795 134.467 5.12228L135.291 2.23771ZM133.559 3.38V1.4H130.559V3.38H133.559ZM132.059 2.9H146.219V-0.100001H132.059V2.9ZM144.956 2.20896L163.016 30.409L165.542 28.791L147.482 0.591036L144.956 2.20896ZM164.279 31.1H164.459V28.1H164.279V31.1ZM165.959 29.6V6.26H162.959V29.6H165.959ZM165.959 6.26C165.959 5.04474 165.632 3.86396 164.722 3.0077C163.829 2.16751 162.628 1.88 161.399 1.88V4.88C162.21 4.88 162.539 5.07248 162.666 5.1923C162.776 5.29603 162.959 5.55525 162.959 6.26H165.959ZM161.399 1.88H159.719V4.88H161.399V1.88ZM161.219 3.38V1.4H158.219V3.38H161.219ZM159.719 2.9H170.819V-0.100001H159.719V2.9ZM169.319 1.4V3.38H172.319V1.4H169.319ZM170.819 1.88H169.679V4.88H170.819V1.88ZM169.679 1.88C168.511 1.88 167.364 2.18796 166.526 3.06214C165.7 3.9244 165.419 5.08436 165.419 6.26H168.419C168.419 5.51563 168.598 5.23559 168.692 5.13786C168.774 5.05203 169.007 4.88 169.679 4.88V1.88ZM165.419 6.26V41.42H168.419V6.26H165.419ZM166.919 39.92H159.959V42.92H166.919V39.92ZM161.213 40.5977L140.093 8.37768L137.584 10.0223L158.704 42.2423L161.213 40.5977ZM174.546 39.02V37.52H173.046V39.02H174.546ZM177.906 38.84L178.201 40.3109L178.247 40.3016L178.293 40.2894L177.906 38.84ZM179.046 38L180.439 38.5571L180.448 38.535L180.456 38.5126L179.046 38ZM178.986 4.52L180.352 3.8993V3.89929L178.986 4.52ZM177.726 3.62L177.34 5.06935L177.351 5.07237L177.363 5.07521L177.726 3.62ZM174.546 3.38H173.046V4.88H174.546V3.38ZM174.546 1.4V-0.100001H173.046V1.4H174.546ZM194.706 1.4L194.723 -0.099906L194.715 -0.100001H194.706V1.4ZM210.726 6.2L211.709 5.06646L210.726 6.2ZM210.186 36.2L211.129 37.3667L211.136 37.3609L210.186 36.2ZM174.546 41H173.046V42.5H174.546V41ZM202.266 34.46L201.029 33.6124L201.026 33.6161L202.266 34.46ZM202.266 7.94L201.034 8.79559L202.266 7.94ZM190.386 3.98L189.758 2.61806L189.758 2.61806L190.386 3.98ZM189.906 37.58L188.506 38.1185L188.532 38.1861L188.565 38.2508L189.906 37.58ZM190.926 38.54L190.414 39.9497L190.433 39.9566L190.452 39.963L190.926 38.54ZM174.546 40.52C176.174 40.52 177.435 40.464 178.201 40.3109L177.612 37.3691C177.178 37.456 176.199 37.52 174.546 37.52V40.52ZM178.293 40.2894C179.137 40.0641 180.035 39.5673 180.439 38.5571L177.654 37.4429C177.668 37.4067 177.688 37.3728 177.71 37.3447C177.732 37.3173 177.749 37.3042 177.752 37.3024C177.753 37.3012 177.739 37.3119 177.701 37.3291C177.662 37.3464 177.604 37.3683 177.52 37.3906L178.293 40.2894ZM180.456 38.5126C180.716 37.7989 180.786 36.7784 180.786 35.66H177.786C177.786 36.7816 177.697 37.3211 177.637 37.4874L180.456 38.5126ZM180.786 35.66V6.8H177.786V35.66H180.786ZM180.786 6.8C180.786 5.7066 180.697 4.65848 180.352 3.8993L177.621 5.1407C177.676 5.26152 177.786 5.7334 177.786 6.8H180.786ZM180.352 3.89929C179.9 2.90441 179.002 2.39263 178.09 2.16479L177.363 5.07521C177.549 5.12171 177.629 5.17073 177.65 5.1856C177.659 5.19201 177.655 5.19071 177.645 5.17958C177.636 5.16801 177.627 5.15398 177.621 5.1407L180.352 3.89929ZM178.113 2.17065C177.302 1.95446 176.063 1.88 174.546 1.88V4.88C176.07 4.88 176.951 4.96554 177.34 5.06935L178.113 2.17065ZM176.046 3.38V1.4H173.046V3.38H176.046ZM174.546 2.9H194.706V-0.100001H174.546V2.9ZM194.689 2.8999C201.582 2.97778 206.516 4.5361 209.744 7.33353L211.709 5.06646C207.737 1.62389 201.991 -0.0177851 194.723 -0.099906L194.689 2.8999ZM209.744 7.33353C212.907 10.0745 214.626 14.4071 214.626 20.66H217.626C217.626 13.8729 215.746 8.56552 211.709 5.06646L209.744 7.33353ZM214.626 20.66C214.626 27.5153 212.727 32.1835 209.237 35.0391L211.136 37.3609C215.566 33.7365 217.626 28.0447 217.626 20.66H214.626ZM209.244 35.0333C205.657 37.932 200.23 39.5 192.726 39.5V42.5C200.583 42.5 206.796 40.868 211.129 37.3667L209.244 35.0333ZM192.726 39.5H174.546V42.5H192.726V39.5ZM176.046 41V39.02H173.046V41H176.046ZM193.026 40.28C197.606 40.28 201.207 38.6822 203.506 35.3039L201.026 33.6161C199.405 35.9978 196.847 37.28 193.026 37.28V40.28ZM203.504 35.3076C205.76 32.0134 206.766 27.1045 206.766 20.84H203.766C203.766 26.8955 202.773 31.0666 201.029 33.6124L203.504 35.3076ZM206.766 20.84C206.766 14.99 205.752 10.3291 203.498 7.08441L201.034 8.79559C202.781 11.3109 203.766 15.25 203.766 20.84H206.766ZM203.498 7.08441C201.182 3.74826 197.73 2.12 193.386 2.12V5.12C196.883 5.12 199.351 6.37174 201.034 8.79559L203.498 7.08441ZM193.386 2.12C192.612 2.12 191.927 2.15111 191.348 2.22068C190.791 2.28747 190.229 2.40062 189.758 2.61806L191.015 5.34194C191.064 5.31937 191.262 5.25253 191.705 5.19931C192.125 5.14889 192.681 5.12 193.386 5.12V2.12ZM189.758 2.61806C188.37 3.25856 188.106 4.76991 188.106 5.9H191.106C191.106 5.48518 191.161 5.27839 191.191 5.20457C191.203 5.1752 191.201 5.1926 191.168 5.22996C191.131 5.27086 191.078 5.31272 191.015 5.34193L189.758 2.61806ZM188.106 5.9V35.24H191.106V5.9H188.106ZM188.106 35.24C188.106 36.3329 188.206 37.3363 188.506 38.1185L191.306 37.0415C191.207 36.7837 191.106 36.2271 191.106 35.24H188.106ZM188.565 38.2508C188.949 39.0201 189.56 39.6392 190.414 39.9497L191.439 37.1303C191.413 37.1208 191.343 37.0999 191.248 36.9092L188.565 38.2508ZM190.452 39.963C191.162 40.1998 192.054 40.28 193.026 40.28V37.28C192.158 37.28 191.65 37.2002 191.401 37.117L190.452 39.963ZM241.304 39.02V37.52H239.804V39.02H241.304ZM245.024 37.94L246.417 38.4971L246.426 38.475L246.434 38.4526L245.024 37.94ZM245.264 3.32H246.764V1.82H245.264V3.32ZM237.224 5.6L236.15 4.55357L236.149 4.55397L237.224 5.6ZM234.704 12.14V13.64H236.085L236.199 12.2646L234.704 12.14ZM232.184 12.14L230.684 12.1316L230.676 13.64H232.184V12.14ZM232.244 1.4V-0.100001H230.753L230.744 1.39162L232.244 1.4ZM268.604 1.4H270.104V-0.100001H268.604V1.4ZM268.604 12.14V13.64H270.104V12.14H268.604ZM266.204 12.14L264.718 12.3422L264.895 13.64H266.204V12.14ZM255.644 3.32V1.82H254.144V3.32H255.644ZM255.884 37.94L254.475 38.4526L254.483 38.475L254.492 38.4971L255.884 37.94ZM256.904 38.78L256.463 40.2137L256.904 38.78ZM259.544 39.02H261.044V37.52H259.544V39.02ZM259.544 41V42.5H261.044V41H259.544ZM241.304 41H239.804V42.5H241.304V41ZM241.304 40.52C242.587 40.52 243.689 40.4464 244.446 40.2137L243.563 37.3463C243.28 37.4336 242.582 37.52 241.304 37.52V40.52ZM244.446 40.2137C245.275 39.9586 246.046 39.4256 246.417 38.4971L243.632 37.3829C243.638 37.3675 243.648 37.3483 243.662 37.3289C243.676 37.3097 243.689 37.2975 243.696 37.2921C243.708 37.2821 243.679 37.3108 243.563 37.3463L244.446 40.2137ZM246.434 38.4526C246.691 37.7452 246.764 36.7739 246.764 35.72H243.764C243.764 36.7461 243.677 37.2548 243.615 37.4274L246.434 38.4526ZM246.764 35.72V3.32H243.764V35.72H246.764ZM245.264 1.82H242.564V4.82H245.264V1.82ZM242.564 1.82C240.071 1.82 237.906 2.75009 236.15 4.55357L238.299 6.64642C239.503 5.4099 240.898 4.82 242.564 4.82V1.82ZM236.149 4.55397C234.386 6.36639 233.467 8.92559 233.21 12.0154L236.199 12.2646C236.422 9.5944 237.183 7.7936 238.299 6.64603L236.149 4.55397ZM234.704 10.64H232.184V13.64H234.704V10.64ZM233.684 12.1484L233.744 1.40838L230.744 1.39162L230.684 12.1316L233.684 12.1484ZM232.244 2.9H268.604V-0.100001H232.244V2.9ZM267.104 1.4V12.14H270.104V1.4H267.104ZM268.604 10.64H266.204V13.64H268.604V10.64ZM267.691 11.9378C267.267 8.82533 266.294 6.27622 264.609 4.49441C262.886 2.67181 260.578 1.82 257.864 1.82V4.82C259.911 4.82 261.373 5.43819 262.429 6.55559C263.525 7.71378 264.342 9.57467 264.718 12.3422L267.691 11.9378ZM257.864 1.82H255.644V4.82H257.864V1.82ZM254.144 3.32V35.72H257.144V3.32H254.144ZM254.144 35.72C254.144 36.7739 254.217 37.7452 254.475 38.4526L257.294 37.4274C257.231 37.2548 257.144 36.7461 257.144 35.72H254.144ZM254.492 38.4971C254.863 39.4256 255.634 39.9586 256.463 40.2137L257.346 37.3463C257.23 37.3108 257.201 37.2821 257.213 37.2921C257.22 37.2975 257.232 37.3097 257.247 37.3289C257.261 37.3483 257.271 37.3675 257.277 37.3829L254.492 38.4971ZM256.463 40.2137C257.217 40.4457 258.296 40.52 259.544 40.52V37.52C258.312 37.52 257.631 37.4343 257.346 37.3463L256.463 40.2137ZM258.044 39.02V41H261.044V39.02H258.044ZM259.544 39.5H241.304V42.5H259.544V39.5ZM242.804 41V39.02H239.804V41H242.804ZM271.812 39.02V37.52H270.312V39.02H271.812ZM274.692 38.78L275.104 40.2223L275.151 40.2089L275.197 40.1926L274.692 38.78ZM275.712 37.88L277.149 38.311L275.712 37.88ZM275.652 4.58L274.205 4.97467L274.227 5.05743L274.259 5.13708L275.652 4.58ZM274.632 3.68L274.094 5.08002L274.156 5.10396L274.22 5.12228L274.632 3.68ZM271.812 3.38H270.312V4.88H271.812V3.38ZM271.812 1.4V-0.100001H270.312V1.4H271.812ZM290.292 1.4H291.792V-0.100001H290.292V1.4ZM290.292 3.38V4.88H291.792V3.38H290.292ZM287.412 3.68L287.824 5.12228L287.871 5.10894L287.917 5.09261L287.412 3.68ZM286.392 4.58L287.829 5.01102L287.834 4.99291L287.839 4.97467L286.392 4.58ZM286.212 19.1H284.712V20.6H286.212V19.1ZM300.972 19.1V20.6H302.472V19.1H300.972ZM300.732 4.58L299.285 4.97468L299.307 5.05744L299.339 5.13708L300.732 4.58ZM299.712 3.68L299.174 5.08002L299.236 5.10396L299.3 5.12228L299.712 3.68ZM296.892 3.38H295.392V4.88H296.892V3.38ZM296.892 1.4V-0.100001H295.392V1.4H296.892ZM315.312 1.4H316.812V-0.100001H315.312V1.4ZM315.312 3.38V4.88H316.812V3.38H315.312ZM312.432 3.68L312.873 5.11367L312.905 5.10384L312.937 5.09261L312.432 3.68ZM311.472 4.58L312.909 5.01101L312.914 4.99291L312.919 4.97468L311.472 4.58ZM311.472 37.88L310.025 38.2747L310.041 38.3344L310.062 38.3926L311.472 37.88ZM312.492 38.78L312.051 40.2137L312.065 40.2181L312.08 40.2223L312.492 38.78ZM315.312 39.02H316.812V37.52H315.312V39.02ZM315.312 41V42.5H316.812V41H315.312ZM296.892 41H295.392V42.5H296.892V41ZM296.892 39.02V37.52H295.392V39.02H296.892ZM299.772 38.78L300.213 40.2137L300.245 40.2038L300.277 40.1926L299.772 38.78ZM300.792 37.88L302.229 38.311L300.792 37.88ZM300.972 21.44H302.472V19.94H300.972V21.44ZM286.212 21.44V19.94H284.712V21.44H286.212ZM286.392 37.88L284.945 38.2747L284.961 38.3344L284.982 38.3926L286.392 37.88ZM287.412 38.78L286.971 40.2137L286.985 40.2181L287 40.2223L287.412 38.78ZM290.292 39.02H291.792V37.52H290.292V39.02ZM290.292 41V42.5H291.792V41H290.292ZM271.812 41H270.312V42.5H271.812V41ZM271.812 40.52C273.176 40.52 274.323 40.4454 275.104 40.2223L274.28 37.3377C273.941 37.4346 273.168 37.52 271.812 37.52V40.52ZM275.197 40.1926C276.004 39.9044 276.84 39.3404 277.149 38.311L274.275 37.449C274.287 37.4095 274.305 37.371 274.327 37.3375C274.349 37.3047 274.368 37.2863 274.375 37.2802C274.381 37.2749 274.373 37.2831 274.342 37.3C274.312 37.3171 274.262 37.3409 274.188 37.3674L275.197 40.1926ZM277.149 38.311C277.34 37.6735 277.392 36.7261 277.392 35.66H274.392C274.392 36.7539 274.324 37.2865 274.275 37.449L277.149 38.311ZM277.392 35.66V6.86H274.392V35.66H277.392ZM277.392 6.86C277.392 5.76137 277.326 4.72558 277.045 4.02291L274.259 5.13708C274.257 5.13112 274.27 5.16326 274.288 5.25141C274.306 5.33631 274.324 5.45302 274.34 5.60703C274.373 5.91699 274.392 6.33073 274.392 6.86H277.392ZM277.099 4.18532C276.802 3.09686 275.948 2.4961 275.044 2.23771L274.22 5.12228C274.344 5.15779 274.353 5.18327 274.315 5.14976C274.295 5.13207 274.27 5.10471 274.247 5.06815C274.224 5.03165 274.211 4.99818 274.205 4.97467L277.099 4.18532ZM275.171 2.27998C274.362 1.96911 273.165 1.88 271.812 1.88V4.88C273.179 4.88 273.862 4.99088 274.094 5.08002L275.171 2.27998ZM273.312 3.38V1.4H270.312V3.38H273.312ZM271.812 2.9H290.292V-0.100001H271.812V2.9ZM288.792 1.4V3.38H291.792V1.4H288.792ZM290.292 1.88C288.924 1.88 287.733 1.97239 286.908 2.26739L287.917 5.09261C288.211 4.9876 288.94 4.88 290.292 4.88V1.88ZM287 2.23771C286.096 2.4961 285.242 3.09686 284.945 4.18532L287.839 4.97467C287.833 4.99818 287.82 5.03165 287.797 5.06815C287.774 5.10471 287.75 5.13207 287.729 5.14976C287.691 5.18327 287.7 5.15779 287.824 5.12228L287 2.23771ZM284.955 4.14897C284.763 4.78878 284.712 5.76008 284.712 6.86H287.712C287.712 5.71992 287.781 5.17122 287.829 5.01102L284.955 4.14897ZM284.712 6.86V19.1H287.712V6.86H284.712ZM286.212 20.6H300.972V17.6H286.212V20.6ZM302.472 19.1V6.86H299.472V19.1H302.472ZM302.472 6.86C302.472 5.76137 302.406 4.72558 302.125 4.02291L299.339 5.13708C299.337 5.13112 299.35 5.16326 299.368 5.25141C299.386 5.33631 299.404 5.45302 299.42 5.60703C299.453 5.91699 299.472 6.33073 299.472 6.86H302.472ZM302.179 4.18532C301.882 3.09686 301.028 2.4961 300.124 2.23771L299.3 5.12228C299.424 5.15779 299.433 5.18327 299.395 5.14976C299.375 5.13207 299.35 5.10471 299.327 5.06815C299.304 5.03166 299.291 4.99818 299.285 4.97468L302.179 4.18532ZM300.25 2.27998C299.442 1.96911 298.245 1.88 296.892 1.88V4.88C298.259 4.88 298.942 4.99088 299.174 5.08002L300.25 2.27998ZM298.392 3.38V1.4H295.392V3.38H298.392ZM296.892 2.9H315.312V-0.100001H296.892V2.9ZM313.812 1.4V3.38H316.812V1.4H313.812ZM315.312 1.88C313.944 1.88 312.754 1.97239 311.928 2.26739L312.937 5.09261C313.231 4.9876 313.96 4.88 315.312 4.88V1.88ZM311.991 2.24633C311.09 2.52357 310.308 3.14772 310.025 4.18532L312.919 4.97468C312.916 4.98745 312.907 5.01236 312.889 5.04286C312.87 5.07372 312.849 5.09983 312.828 5.1193C312.786 5.15842 312.78 5.1423 312.873 5.11367L311.991 2.24633ZM310.035 4.14898C309.843 4.78878 309.792 5.76008 309.792 6.86H312.792C312.792 5.71992 312.861 5.17122 312.909 5.01101L310.035 4.14898ZM309.792 6.86V35.66H312.792V6.86H309.792ZM309.792 35.66C309.792 36.7075 309.848 37.6242 310.025 38.2747L312.919 37.4853C312.857 37.2558 312.792 36.6925 312.792 35.66H309.792ZM310.062 38.3926C310.41 39.3498 311.164 39.9408 312.051 40.2137L312.933 37.3463C312.837 37.3167 312.821 37.294 312.839 37.3102C312.848 37.3179 312.859 37.3296 312.869 37.344C312.878 37.3581 312.882 37.3675 312.882 37.3674L310.062 38.3926ZM312.08 40.2223C312.859 40.4448 313.983 40.52 315.312 40.52V37.52C314.001 37.52 313.245 37.4352 312.904 37.3377L312.08 40.2223ZM313.812 39.02V41H316.812V39.02H313.812ZM315.312 39.5H296.892V42.5H315.312V39.5ZM298.392 41V39.02H295.392V41H298.392ZM296.892 40.52C298.279 40.52 299.451 40.4483 300.213 40.2137L299.331 37.3463C299.053 37.4317 298.305 37.52 296.892 37.52V40.52ZM300.277 40.1926C301.083 39.9044 301.92 39.3404 302.229 38.311L299.355 37.449C299.367 37.4095 299.385 37.371 299.407 37.3375C299.429 37.3047 299.448 37.2863 299.455 37.2802C299.461 37.2749 299.453 37.2831 299.422 37.3C299.392 37.3171 299.342 37.3409 299.268 37.3674L300.277 40.1926ZM302.229 38.311C302.42 37.6735 302.472 36.7261 302.472 35.66H299.472C299.472 36.7539 299.404 37.2865 299.355 37.449L302.229 38.311ZM302.472 35.66V21.44H299.472V35.66H302.472ZM300.972 19.94H286.212V22.94H300.972V19.94ZM284.712 21.44V35.66H287.712V21.44H284.712ZM284.712 35.66C284.712 36.7075 284.767 37.6243 284.945 38.2747L287.839 37.4853C287.777 37.2557 287.712 36.6925 287.712 35.66H284.712ZM284.982 38.3926C285.33 39.3498 286.084 39.9408 286.971 40.2137L287.853 37.3463C287.757 37.3167 287.741 37.294 287.759 37.3102C287.768 37.3179 287.779 37.3296 287.789 37.344C287.798 37.3581 287.802 37.3675 287.802 37.3674L284.982 38.3926ZM287 40.2223C287.781 40.4454 288.928 40.52 290.292 40.52V37.52C288.936 37.52 288.163 37.4346 287.824 37.3377L287 40.2223ZM288.792 39.02V41H291.792V39.02H288.792ZM290.292 39.5H271.812V42.5H290.292V39.5ZM273.312 41V39.02H270.312V41H273.312ZM319.273 39.02V37.52H317.773V39.02H319.273ZM323.113 37.88L321.747 37.2593L321.723 37.3125L321.703 37.3674L323.113 37.88ZM323.113 4.58L321.69 5.05434L321.715 5.12903L321.747 5.2007L323.113 4.58ZM319.273 3.38H317.773V4.88H319.273V3.38ZM319.273 1.4V-0.100001H317.773V1.4H319.273ZM351.613 1.4H353.113V-0.100001H351.613V1.4ZM351.613 10.82V12.32H353.113V10.82H351.613ZM349.153 10.82L347.699 11.1905L347.987 12.32H349.153V10.82ZM347.293 6.26L346.038 7.08087L346.056 7.10909L346.076 7.13645L347.293 6.26ZM344.593 4.16L344.119 5.58302L344.126 5.58557L344.134 5.58804L344.593 4.16ZM334.213 4.1L335.201 5.2289L335.21 5.22111L334.213 4.1ZM333.733 18.98H332.233V20.48H333.733V18.98ZM343.333 18.56L344.004 19.9016L344.041 19.883L344.077 19.8624L343.333 18.56ZM345.313 13.46V11.96H343.993L343.825 13.2693L345.313 13.46ZM347.293 13.46H348.793V11.96H347.293V13.46ZM347.293 27.2V28.7H348.793V27.2H347.293ZM345.313 27.2L343.82 27.3493L343.955 28.7H345.313V27.2ZM344.593 23.66L343.177 24.1555L343.193 24.1993L343.211 24.2421L344.593 23.66ZM333.733 21.62V20.12H332.233V21.62H333.733ZM334.033 37.46L332.633 37.9985L332.659 38.0661L332.691 38.1308L334.033 37.46ZM335.593 38.48L335.229 39.9352L335.237 39.9373L335.246 39.9392L335.593 38.48ZM344.953 38.12L344.503 36.689L344.491 36.6928L344.953 38.12ZM348.433 35.66L349.623 36.5726L348.433 35.66ZM350.473 30.56V29.06H349.243L349.002 30.2658L350.473 30.56ZM352.933 30.56L354.429 30.6632L354.54 29.06H352.933V30.56ZM352.213 41V42.5H353.613L353.709 41.1032L352.213 41ZM319.273 41H317.773V42.5H319.273V41ZM319.273 40.52C320.567 40.52 321.668 40.4442 322.445 40.2223L321.621 37.3377C321.278 37.4358 320.539 37.52 319.273 37.52V40.52ZM322.445 40.2223C323.341 39.9662 324.158 39.395 324.523 38.3926L321.703 37.3674C321.707 37.3577 321.715 37.3407 321.728 37.3213C321.742 37.302 321.755 37.2891 321.763 37.2827C321.777 37.2706 321.747 37.3016 321.621 37.3377L322.445 40.2223ZM324.479 38.5007C324.822 37.7456 324.913 36.7232 324.913 35.66H321.913C321.913 36.6768 321.804 37.1344 321.747 37.2593L324.479 38.5007ZM324.913 35.66V6.8H321.913V35.66H324.913ZM324.913 6.8C324.913 5.73681 324.822 4.71441 324.479 3.95929L321.747 5.2007C321.804 5.32558 321.913 5.78319 321.913 6.8H324.913ZM324.536 4.10565C324.194 3.0793 323.398 2.44993 322.445 2.17771L321.621 5.06228C321.729 5.09318 321.746 5.11869 321.726 5.10111C321.717 5.0929 321.707 5.081 321.698 5.06748C321.689 5.05433 321.688 5.04798 321.69 5.05434L324.536 4.10565ZM322.445 2.17771C321.668 1.9558 320.567 1.88 319.273 1.88V4.88C320.539 4.88 321.278 4.9642 321.621 5.06228L322.445 2.17771ZM320.773 3.38V1.4H317.773V3.38H320.773ZM319.273 2.9H351.613V-0.100001H319.273V2.9ZM350.113 1.4V10.82H353.113V1.4H350.113ZM351.613 9.32H349.153V12.32H351.613V9.32ZM350.607 10.4495C350.068 8.33792 349.391 6.60699 348.51 5.38354L346.076 7.13645C346.635 7.91301 347.198 9.22207 347.699 11.1905L350.607 10.4495ZM348.548 5.43912C347.692 4.1289 346.518 3.20333 345.052 2.73196L344.134 5.58804C344.907 5.83667 345.534 6.3111 346.038 7.08087L348.548 5.43912ZM345.067 2.73697C343.765 2.30283 342.08 2.12 340.093 2.12V5.12C341.946 5.12 343.261 5.29716 344.119 5.58302L345.067 2.73697ZM340.093 2.12H335.953V5.12H340.093V2.12ZM335.953 2.12C335.012 2.12 333.983 2.29773 333.216 2.97889L335.21 5.22111C335.18 5.24697 335.194 5.21975 335.317 5.18599C335.442 5.15138 335.646 5.12 335.953 5.12V2.12ZM333.225 2.97113C332.399 3.69398 332.233 4.78596 332.233 5.66H335.233C335.233 5.37501 335.264 5.21408 335.287 5.14113C335.307 5.07392 335.301 5.14073 335.201 5.22887L333.225 2.97113ZM332.233 5.66V18.98H335.233V5.66H332.233ZM333.733 20.48H340.873V17.48H333.733V20.48ZM340.873 20.48C342.04 20.48 343.136 20.3357 344.004 19.9016L342.662 17.2184C342.41 17.3443 341.866 17.48 340.873 17.48V20.48ZM344.077 19.8624C345.016 19.3262 345.631 18.4626 346 17.4586L343.185 16.4214C342.995 16.9374 342.77 17.1538 342.589 17.2576L344.077 19.8624ZM346 17.4586C346.341 16.5352 346.597 15.2388 346.801 13.6507L343.825 13.2693C343.629 14.8012 343.405 15.8248 343.185 16.4214L346 17.4586ZM345.313 14.96H347.293V11.96H345.313V14.96ZM345.793 13.46V27.2H348.793V13.46H345.793ZM347.293 25.7H345.313V28.7H347.293V25.7ZM346.806 27.0507C346.642 25.4149 346.385 24.0516 345.975 23.0779L343.211 24.2421C343.441 24.7884 343.664 25.7851 343.82 27.3493L346.806 27.0507ZM346.009 23.1645C345.647 22.1295 345.021 21.2071 344.004 20.6984L342.662 23.3816C342.765 23.4329 342.979 23.5905 343.177 24.1555L346.009 23.1645ZM344.004 20.6984C343.136 20.2643 342.04 20.12 340.873 20.12V23.12C341.866 23.12 342.41 23.2557 342.662 23.3816L344.004 20.6984ZM340.873 20.12H333.733V23.12H340.873V20.12ZM332.233 21.62V34.82H335.233V21.62H332.233ZM332.233 34.82C332.233 36.0738 332.325 37.1984 332.633 37.9985L335.433 36.9215C335.341 36.6816 335.233 36.0462 335.233 34.82H332.233ZM332.691 38.1308C333.212 39.173 334.233 39.6862 335.229 39.9352L335.957 37.0248C335.353 36.8738 335.333 36.707 335.375 36.7892L332.691 38.1308ZM335.246 39.9392C336.271 40.1834 337.826 40.28 339.793 40.28V37.28C337.84 37.28 336.595 37.1766 335.94 37.0208L335.246 39.9392ZM339.793 40.28C341.965 40.28 343.854 40.052 345.415 39.5472L344.491 36.6928C343.331 37.068 341.781 37.28 339.793 37.28V40.28ZM345.403 39.551C347.106 39.0155 348.522 38.0096 349.623 36.5726L347.243 34.7474C346.504 35.7104 345.6 36.3445 344.503 36.689L345.403 39.551ZM349.623 36.5726C350.734 35.1241 351.479 33.1792 351.944 30.8542L349.002 30.2658C348.587 32.3408 347.972 33.7959 347.243 34.7474L349.623 36.5726ZM350.473 32.06H352.933V29.06H350.473V32.06ZM351.437 30.4568L350.717 40.8968L353.709 41.1032L354.429 30.6632L351.437 30.4568ZM352.213 39.5H319.273V42.5H352.213V39.5ZM320.773 41V39.02H317.773V41H320.773ZM355.581 39.02V37.52H354.081V39.02H355.581ZM358.581 38.72L358.004 37.3354L358.581 38.72ZM359.541 37.82L360.934 38.3771L360.943 38.355L360.951 38.3326L359.541 37.82ZM359.481 4.58L358.072 5.09261L358.092 5.14751L358.116 5.2007L359.481 4.58ZM358.341 3.68L357.929 5.12228L357.942 5.12593L357.955 5.12935L358.341 3.68ZM355.521 3.38H354.021V4.83523L355.476 4.87931L355.521 3.38ZM355.521 1.4V-0.100001H354.021V1.4H355.521ZM370.101 1.4L371.496 0.847925L371.121 -0.100001H370.101V1.4ZM380.361 27.32L378.967 27.8721L379.342 28.82H380.361V27.32ZM380.421 27.32V28.82H381.452L381.822 27.858L380.421 27.32ZM390.381 1.4V-0.100001H389.351L388.981 0.861963L390.381 1.4ZM404.301 1.4H405.801V-0.100001H404.301V1.4ZM404.301 3.38L404.348 4.87927L405.801 4.83386V3.38H404.301ZM400.461 4.58L399.052 4.06738V4.06738L400.461 4.58ZM400.461 37.88L399.038 38.3543L399.063 38.429L399.096 38.5007L400.461 37.88ZM404.301 39.02H405.801V37.52H404.301V39.02ZM404.301 41V42.5H405.801V41H404.301ZM386.181 41H384.681V42.5H386.181V41ZM386.181 39.02V37.52H384.681V39.02H386.181ZM388.641 38.78L389.116 40.203L389.148 40.1922L389.18 40.18L388.641 38.78ZM389.901 8.6H391.401V7.1H389.901V8.6ZM389.781 8.6V7.1H388.742L388.377 8.07302L389.781 8.6ZM378.141 39.62V41.12H379.181L379.546 40.147L378.141 39.62ZM374.301 39.62L372.906 40.1704L373.281 41.12H374.301V39.62ZM362.301 9.2L363.697 8.64956L363.322 7.7H362.301V9.2ZM362.241 9.2V7.7H360.741V9.2H362.241ZM362.841 38.42L361.781 39.4807L361.806 39.5059L361.832 39.5299L362.841 38.42ZM366.861 39.02H368.361V37.52H366.861V39.02ZM366.861 41V42.5H368.361V41H366.861ZM355.581 41H354.081V42.5H355.581V41ZM355.581 40.52H356.361V37.52H355.581V40.52ZM356.361 40.52C357.411 40.52 358.396 40.4224 359.158 40.1046L358.004 37.3354C357.807 37.4176 357.312 37.52 356.361 37.52V40.52ZM359.158 40.1046C359.928 39.784 360.594 39.2269 360.934 38.3771L358.149 37.2629C358.149 37.262 358.151 37.2579 358.154 37.253C358.158 37.2481 358.159 37.2473 358.155 37.2507C358.148 37.2574 358.109 37.292 358.004 37.3354L359.158 40.1046ZM360.951 38.3326C361.202 37.6414 361.281 36.769 361.281 35.84H358.281C358.281 36.671 358.2 37.1186 358.132 37.3074L360.951 38.3326ZM361.281 35.84V6.8H358.281V35.84H361.281ZM361.281 6.8C361.281 5.73681 361.19 4.71442 360.847 3.9593L358.116 5.2007C358.173 5.32558 358.281 5.78319 358.281 6.8H361.281ZM360.891 4.06738C360.511 3.02288 359.631 2.47157 358.728 2.23065L357.955 5.12935C358.111 5.17094 358.156 5.20944 358.147 5.20232C358.141 5.1977 358.126 5.18412 358.108 5.16045C358.091 5.13649 358.079 5.1122 358.072 5.09261L360.891 4.06738ZM358.753 2.23771C357.999 2.02205 356.895 1.92093 355.567 1.88069L355.476 4.87931C356.788 4.91907 357.564 5.01795 357.929 5.12228L358.753 2.23771ZM357.021 3.38V1.4H354.021V3.38H357.021ZM355.521 2.9H370.101V-0.100001H355.521V2.9ZM368.707 1.95207L378.967 27.8721L381.756 26.7679L371.496 0.847925L368.707 1.95207ZM380.361 28.82H380.421V25.82H380.361V28.82ZM381.822 27.858L391.782 1.93803L388.981 0.861963L379.021 26.782L381.822 27.858ZM390.381 2.9H404.301V-0.100001H390.381V2.9ZM402.801 1.4V3.38H405.801V1.4H402.801ZM404.255 1.88073C402.962 1.92112 401.881 2.02282 401.129 2.23771L401.953 5.12228C402.321 5.01718 403.081 4.91888 404.348 4.87927L404.255 1.88073ZM401.129 2.23771C400.233 2.49378 399.416 3.06497 399.052 4.06738L401.871 5.09261C401.868 5.10233 401.86 5.11934 401.846 5.13867C401.833 5.15799 401.819 5.17093 401.812 5.17733C401.797 5.18942 401.827 5.15841 401.953 5.12228L401.129 2.23771ZM399.052 4.06738C398.794 4.7748 398.721 5.74614 398.721 6.8H401.721C401.721 5.77385 401.808 5.2652 401.871 5.09261L399.052 4.06738ZM398.721 6.8V35.66H401.721V6.8H398.721ZM398.721 35.66C398.721 36.6959 398.799 37.636 399.038 38.3543L401.884 37.4057C401.804 37.164 401.721 36.6241 401.721 35.66H398.721ZM399.096 38.5007C399.515 39.4232 400.302 39.9687 401.189 40.2223L402.013 37.3377C401.884 37.3008 401.835 37.2645 401.826 37.2577C401.821 37.2542 401.823 37.2545 401.826 37.2584C401.829 37.2624 401.829 37.2638 401.827 37.2593L399.096 38.5007ZM401.189 40.2223C401.964 40.4435 403.042 40.52 404.301 40.52V37.52C403.08 37.52 402.359 37.4365 402.013 37.3377L401.189 40.2223ZM402.801 39.02V41H405.801V39.02H402.801ZM404.301 39.5H386.181V42.5H404.301V39.5ZM387.681 41V39.02H384.681V41H387.681ZM386.181 40.52C387.349 40.52 388.385 40.4468 389.116 40.203L388.167 37.357C387.938 37.4332 387.334 37.52 386.181 37.52V40.52ZM389.18 40.18C390.021 39.8567 390.734 39.2585 391.071 38.3326L388.252 37.3074C388.25 37.3109 388.251 37.3084 388.255 37.3031C388.258 37.2977 388.26 37.2958 388.258 37.2977C388.255 37.3012 388.216 37.3366 388.103 37.38L389.18 40.18ZM391.071 38.3326C391.327 37.6288 391.401 36.6821 391.401 35.66H388.401C388.401 36.6379 388.316 37.1312 388.252 37.3074L391.071 38.3326ZM391.401 35.66V8.6H388.401V35.66H391.401ZM389.901 7.1H389.781V10.1H389.901V7.1ZM388.377 8.07302L376.737 39.093L379.546 40.147L391.186 9.12698L388.377 8.07302ZM378.141 38.12H374.301V41.12H378.141V38.12ZM375.697 39.0696L363.697 8.64956L360.906 9.75043L372.906 40.1704L375.697 39.0696ZM362.301 7.7H362.241V10.7H362.301V7.7ZM360.741 9.2V35.84H363.741V9.2H360.741ZM360.741 35.84C360.741 36.564 360.795 37.2332 360.93 37.8148C361.061 38.3773 361.301 39.0006 361.781 39.4807L363.902 37.3593C363.982 37.4394 363.922 37.4327 363.852 37.1352C363.788 36.8568 363.741 36.436 363.741 35.84H360.741ZM361.832 39.5299C362.335 39.9868 362.978 40.2125 363.564 40.3372C364.174 40.4669 364.883 40.52 365.661 40.52V37.52C365 37.52 364.519 37.4731 364.189 37.4028C363.834 37.3275 363.788 37.2533 363.85 37.3101L361.832 39.5299ZM365.661 40.52H366.861V37.52H365.661V40.52ZM365.361 39.02V41H368.361V39.02H365.361ZM366.861 39.5H355.581V42.5H366.861V39.5ZM357.081 41V39.02H354.081V41H357.081ZM408.277 39.02V37.52H406.777V39.02H408.277ZM412.117 37.88L410.751 37.2593L410.727 37.3125L410.707 37.3674L412.117 37.88ZM412.117 4.58L410.694 5.05434L410.719 5.12903L410.751 5.2007L412.117 4.58ZM408.277 3.38H406.777V4.88H408.277V3.38ZM408.277 1.4V-0.100001H406.777V1.4H408.277ZM440.617 1.4H442.117V-0.100001H440.617V1.4ZM440.617 10.82V12.32H442.117V10.82H440.617ZM438.157 10.82L436.703 11.1905L436.991 12.32H438.157V10.82ZM436.297 6.26L435.041 7.08087L435.06 7.10909L435.08 7.13645L436.297 6.26ZM433.597 4.16L433.123 5.58302L433.13 5.58557L433.138 5.58804L433.597 4.16ZM423.217 4.1L424.205 5.2289L424.213 5.22111L423.217 4.1ZM422.737 18.98H421.237V20.48H422.737V18.98ZM432.337 18.56L433.008 19.9016L433.045 19.883L433.081 19.8624L432.337 18.56ZM434.317 13.46V11.96H432.997L432.829 13.2693L434.317 13.46ZM436.297 13.46H437.797V11.96H436.297V13.46ZM436.297 27.2V28.7H437.797V27.2H436.297ZM434.317 27.2L432.824 27.3493L432.959 28.7H434.317V27.2ZM433.597 23.66L432.181 24.1555L432.196 24.1993L432.214 24.2421L433.597 23.66ZM422.737 21.62V20.12H421.237V21.62H422.737ZM423.037 37.46L421.637 37.9985L421.663 38.0661L421.695 38.1308L423.037 37.46ZM424.597 38.48L424.233 39.9352L424.241 39.9373L424.249 39.9392L424.597 38.48ZM433.957 38.12L433.507 36.689L433.495 36.6928L433.957 38.12ZM437.437 35.66L438.627 36.5726L437.437 35.66ZM439.477 30.56V29.06H438.247L438.006 30.2658L439.477 30.56ZM441.937 30.56L443.433 30.6632L443.544 29.06H441.937V30.56ZM441.217 41V42.5H442.617L442.713 41.1032L441.217 41ZM408.277 41H406.777V42.5H408.277V41ZM408.277 40.52C409.571 40.52 410.672 40.4442 411.449 40.2223L410.625 37.3377C410.281 37.4358 409.543 37.52 408.277 37.52V40.52ZM411.449 40.2223C412.345 39.9662 413.162 39.395 413.527 38.3926L410.707 37.3674C410.711 37.3577 410.719 37.3407 410.732 37.3213C410.746 37.302 410.759 37.2891 410.767 37.2827C410.781 37.2706 410.751 37.3016 410.625 37.3377L411.449 40.2223ZM413.482 38.5007C413.826 37.7456 413.917 36.7232 413.917 35.66H410.917C410.917 36.6768 410.808 37.1344 410.751 37.2593L413.482 38.5007ZM413.917 35.66V6.8H410.917V35.66H413.917ZM413.917 6.8C413.917 5.73681 413.826 4.71441 413.482 3.95929L410.751 5.2007C410.808 5.32558 410.917 5.78319 410.917 6.8H413.917ZM413.54 4.10565C413.198 3.0793 412.402 2.44993 411.449 2.17771L410.625 5.06228C410.733 5.09318 410.75 5.11869 410.73 5.10111C410.721 5.0929 410.711 5.081 410.702 5.06748C410.693 5.05433 410.692 5.04798 410.694 5.05434L413.54 4.10565ZM411.449 2.17771C410.672 1.9558 409.571 1.88 408.277 1.88V4.88C409.543 4.88 410.281 4.9642 410.625 5.06228L411.449 2.17771ZM409.777 3.38V1.4H406.777V3.38H409.777ZM408.277 2.9H440.617V-0.100001H408.277V2.9ZM439.117 1.4V10.82H442.117V1.4H439.117ZM440.617 9.32H438.157V12.32H440.617V9.32ZM439.61 10.4495C439.072 8.33792 438.395 6.60699 437.514 5.38354L435.08 7.13645C435.639 7.91301 436.202 9.22207 436.703 11.1905L439.61 10.4495ZM437.552 5.43912C436.696 4.1289 435.522 3.20333 434.056 2.73196L433.138 5.58804C433.911 5.83667 434.538 6.3111 435.041 7.08087L437.552 5.43912ZM434.071 2.73697C432.769 2.30283 431.083 2.12 429.097 2.12V5.12C430.95 5.12 432.265 5.29716 433.123 5.58302L434.071 2.73697ZM429.097 2.12H424.957V5.12H429.097V2.12ZM424.957 2.12C424.016 2.12 422.987 2.29773 422.22 2.97889L424.213 5.22111C424.184 5.24697 424.198 5.21975 424.321 5.18599C424.446 5.15138 424.65 5.12 424.957 5.12V2.12ZM422.229 2.97113C421.403 3.69398 421.237 4.78596 421.237 5.66H424.237C424.237 5.37501 424.268 5.21408 424.291 5.14113C424.311 5.07392 424.305 5.14073 424.205 5.22887L422.229 2.97113ZM421.237 5.66V18.98H424.237V5.66H421.237ZM422.737 20.48H429.877V17.48H422.737V20.48ZM429.877 20.48C431.044 20.48 432.14 20.3357 433.008 19.9016L431.666 17.2184C431.414 17.3443 430.87 17.48 429.877 17.48V20.48ZM433.081 19.8624C434.019 19.3262 434.634 18.4626 435.004 17.4586L432.189 16.4214C431.999 16.9374 431.774 17.1538 431.593 17.2576L433.081 19.8624ZM435.004 17.4586C435.345 16.5352 435.601 15.2388 435.805 13.6507L432.829 13.2693C432.633 14.8012 432.409 15.8248 432.189 16.4214L435.004 17.4586ZM434.317 14.96H436.297V11.96H434.317V14.96ZM434.797 13.46V27.2H437.797V13.46H434.797ZM436.297 25.7H434.317V28.7H436.297V25.7ZM435.809 27.0507C435.646 25.4149 435.389 24.0516 434.979 23.0779L432.214 24.2421C432.444 24.7884 432.668 25.7851 432.824 27.3493L435.809 27.0507ZM435.013 23.1645C434.65 22.1295 434.025 21.2071 433.008 20.6984L431.666 23.3816C431.769 23.4329 431.983 23.5905 432.181 24.1555L435.013 23.1645ZM433.008 20.6984C432.14 20.2643 431.044 20.12 429.877 20.12V23.12C430.87 23.12 431.414 23.2557 431.666 23.3816L433.008 20.6984ZM429.877 20.12H422.737V23.12H429.877V20.12ZM421.237 21.62V34.82H424.237V21.62H421.237ZM421.237 34.82C421.237 36.0738 421.329 37.1984 421.637 37.9985L424.437 36.9215C424.345 36.6816 424.237 36.0462 424.237 34.82H421.237ZM421.695 38.1308C422.216 39.173 423.237 39.6862 424.233 39.9352L424.961 37.0248C424.357 36.8738 424.337 36.707 424.379 36.7892L421.695 38.1308ZM424.249 39.9392C425.275 40.1834 426.829 40.28 428.797 40.28V37.28C426.844 37.28 425.599 37.1766 424.944 37.0208L424.249 39.9392ZM428.797 40.28C430.969 40.28 432.858 40.052 434.419 39.5472L433.495 36.6928C432.335 37.068 430.785 37.28 428.797 37.28V40.28ZM434.407 39.551C436.11 39.0155 437.526 38.0096 438.627 36.5726L436.246 34.7474C435.508 35.7104 434.603 36.3445 433.507 36.689L434.407 39.551ZM438.627 36.5726C439.738 35.1241 440.483 33.1792 440.948 30.8542L438.006 30.2658C437.591 32.3408 436.976 33.7959 436.246 34.7474L438.627 36.5726ZM439.477 32.06H441.937V29.06H439.477V32.06ZM440.44 30.4568L439.72 40.8968L442.713 41.1032L443.433 30.6632L440.44 30.4568ZM441.217 39.5H408.277V42.5H441.217V39.5ZM409.777 41V39.02H406.777V41H409.777Z" fill="white" mask="url(#path-1-outside-1_966_2000)"/>
</g>
<defs>
<filter id="filter0_di_966_2000" x="0.0390625" y="0.679688" width="445.898" height="49.04" filterUnits="userSpaceOnUse" color-interpolation-filters="sRGB">
<feFlood flood-opacity="0" result="BackgroundImageFix"/>
<feColorMatrix in="SourceAlpha" type="matrix" values="0 0 0 0 0 0 0 0 0 0 0 0 0 0 0 0 0 0 127 0" result="hardAlpha"/>
<feOffset dy="4"/>
<feGaussianBlur stdDeviation="2"/>
<feComposite in2="hardAlpha" operator="out"/>
<feColorMatrix type="matrix" values="0 0 0 0 0 0 0 0 0 0 0 0 0 0 0 0 0 0 0.25 0"/>
<feBlend mode="normal" in2="BackgroundImageFix" result="effect1_dropShadow_966_2000"/>
<feBlend mode="normal" in="SourceGraphic" in2="effect1_dropShadow_966_2000" result="shape"/>
<feColorMatrix in="SourceAlpha" type="matrix" values="0 0 0 0 0 0 0 0 0 0 0 0 0 0 0 0 0 0 127 0" result="hardAlpha"/>
<feOffset dx="1" dy="3"/>
<feGaussianBlur stdDeviation="2"/>
<feComposite in2="hardAlpha" operator="arithmetic" k2="-1" k3="1"/>
<feColorMatrix type="matrix" values="0 0 0 0 0 0 0 0 0 0 0 0 0 0 0 0 0 0 0.25 0"/>
<feBlend mode="normal" in2="shape" result="effect2_innerShadow_966_2000"/>
</filter>
</defs>
</svg>
