<svg width="26" height="26" viewBox="0 0 26 26" fill="none" xmlns="http://www.w3.org/2000/svg">
<g clip-path="url(#clip0_788_8362)">
<path d="M1.8608 7.42615H24.1395V24.7649H25.3827V3.71303H24.1395V2.47803H20.4264V4.95615H19.1914V2.47803H6.80893V4.95615H5.57393V2.47803H1.8608V3.71303H0.617676V24.7649H1.8608V7.42615Z" fill="#F4EAE2"/>
<path d="M24.1396 24.7651H1.86084V26.0001H24.1396V24.7651Z" fill="#F4EAE2"/>
<path d="M20.4264 0H19.1914V2.47812H20.4264V0Z" fill="#F4EAE2"/>
<path d="M6.80873 0H5.57373V2.47812H6.80873V0Z" fill="#F4EAE2"/>
<rect x="6" y="12" width="2" height="2" fill="#F4EAE2"/>
<rect x="18" y="12" width="2" height="2" fill="#F4EAE2"/>
<rect x="12" y="12" width="2" height="2" fill="#F4EAE2"/>
<rect x="6" y="18" width="2" height="2" fill="#F4EAE2"/>
<rect x="18" y="18" width="2" height="2" fill="#F4EAE2"/>
<rect x="12" y="18" width="2" height="2" fill="#F4EAE2"/>
</g>
<defs>
<clipPath id="clip0_788_8362">
<rect width="26" height="26" fill="white"/>
</clipPath>
</defs>
</svg>
