<svg width="29" height="27" viewBox="0 0 29 27" fill="none" xmlns="http://www.w3.org/2000/svg">
<g clip-path="url(#clip0_1363_716)">
<path d="M19.6961 1.68552L19.1468 0.859769L1.06834 12.8847L1.61759 13.7105L0.668393 14.3419L7.77995 25.0335L8.72915 24.4021L9.27482 25.2225L27.3533 13.1975L26.8077 12.3771L27.7631 11.7416L20.6515 1.05L19.6961 1.68552ZM25.7127 10.731L24.7635 11.3624L25.3092 12.1827L24.36 12.8141L24.9093 13.6399L10.6338 23.1352L10.0845 22.3095L9.13535 22.9408L8.58968 22.1205L7.63424 22.756L2.71251 15.3566L3.66795 14.7211L3.1187 13.8953L4.0679 13.264L3.52224 12.4436L17.7977 2.94825L18.3434 3.7686L19.2926 3.13724L19.8418 3.96299L20.791 3.33163L25.7127 10.731Z" fill="#F4EAE2"/>
<path d="M18.0791 7.50194L17.1299 8.1333L19.8654 12.2459L20.8146 11.6145L18.0791 7.50194Z" fill="#F4EAE2"/>
<path d="M19.8656 12.2458L18.9102 12.8813L19.4594 13.7071L20.4149 13.0716L19.8656 12.2458Z" fill="#F4EAE2"/>
<path d="M16.5844 7.31224L15.6289 7.94775L16.1746 8.76811L17.13 8.13259L16.5844 7.31224Z" fill="#F4EAE2"/>
<path d="M19.459 13.707L18.5098 14.3384L19.0554 15.1587L20.0046 14.5274L19.459 13.707Z" fill="#F4EAE2"/>
<path d="M15.084 7.12791L14.1348 7.75928L14.6804 8.57963L15.6296 7.94827L15.084 7.12791Z" fill="#F4EAE2"/>
<path d="M16.8666 11.8669L15.9111 12.5024L16.4604 13.3282L17.4158 12.6927L16.8666 11.8669Z" fill="#F4EAE2"/>
<path d="M19.0563 15.1586L14.2979 18.3237L14.8435 19.1441L19.602 15.979L19.0563 15.1586Z" fill="#F4EAE2"/>
<path d="M15.3646 11.6823L12.5107 13.5806L13.0564 14.4009L15.9102 12.5027L15.3646 11.6823Z" fill="#F4EAE2"/>
<path d="M13.6064 15.2261L14.1521 16.0464L15.1076 15.4109L15.6568 16.2367L16.606 15.6053L16.0568 14.7795L17.006 14.1482L16.4603 13.3278L13.6064 15.2261Z" fill="#F4EAE2"/>
<path d="M14.8189 10.8616L14.2696 10.0359L13.3204 10.6672L12.7748 9.84689L11.8256 10.4783L12.3712 11.2986L11.4158 11.9341L11.965 12.7599L14.8189 10.8616Z" fill="#F4EAE2"/>
<path d="M13.5856 6.93351L8.82715 10.0986L9.3764 10.9244L14.1349 7.75926L13.5856 6.93351Z" fill="#F4EAE2"/>
<path d="M11.9658 12.7597L11.0166 13.3911L11.5623 14.2115L12.5115 13.5801L11.9658 12.7597Z" fill="#F4EAE2"/>
<path d="M13.7513 17.5027L12.7959 18.1382L13.3416 18.9585L14.297 18.323L13.7513 17.5027Z" fill="#F4EAE2"/>
<path d="M9.37634 10.9245L8.4209 11.5601L8.96656 12.3804L9.92201 11.7449L9.37634 10.9245Z" fill="#F4EAE2"/>
<path d="M12.2471 17.3135L11.2979 17.9448L11.8471 18.7706L12.7963 18.1392L12.2471 17.3135Z" fill="#F4EAE2"/>
<path d="M8.9658 12.3808L8.0166 13.0122L8.56226 13.8326L9.51146 13.2012L8.9658 12.3808Z" fill="#F4EAE2"/>
<path d="M8.56248 13.833L7.61328 14.4644L10.3488 18.5769L11.298 17.9456L8.56248 13.833Z" fill="#F4EAE2"/>
</g>
<defs>
<clipPath id="clip0_1363_716">
<rect width="24.0823" height="15.9119" fill="white" transform="translate(0 13.3374) rotate(-33.63)"/>
</clipPath>
</defs>
</svg>
