<svg width="21" height="21" viewBox="0 0 21 21" fill="none" xmlns="http://www.w3.org/2000/svg">
<path d="M17.998 4.99414H17.0005V9.99477H17.998V4.99414Z" fill="#F4EAE2"/>
<path d="M17.0004 9.99463H16.0029V12.9937H17.0004V9.99463Z" fill="#F4EAE2"/>
<path d="M17.0004 2.99902H16.0029V4.99402H17.0004V2.99902Z" fill="#F4EAE2"/>
<path d="M16.0026 12.9937H14.9985V14.9952H16.0026V12.9937Z" fill="#F4EAE2"/>
<path d="M16.0026 1.99512H14.9985V2.99918H16.0026V1.99512Z" fill="#F4EAE2"/>
<path d="M14.9985 14.9951H14.001V16.9967H14.9985V14.9951Z" fill="#F4EAE2"/>
<path d="M14.0012 7.99965H13.0037V5.99809H11.9996V4.99402H11.0021V3.99652H11.9996V2.99902H9.00053V3.99652H8.00303V4.99402H6.99896V5.99809H6.00146V8.99715H6.99896V9.99465H8.00303V10.9987H9.00053V11.9962H11.9996V10.9987H13.0037V9.99465H14.0012V8.99715H14.9987V5.99809H14.0012V7.99965Z" fill="#F4EAE2"/>
<path d="M14.0014 16.9971H13.0039V17.9946H14.0014V16.9971Z" fill="#F4EAE2"/>
<path d="M14.0014 4.99414H13.0039V5.9982H14.0014V4.99414Z" fill="#F4EAE2"/>
<path d="M14.9989 0.997559H13.0039V1.99506H14.9989V0.997559Z" fill="#F4EAE2"/>
<path d="M13.0036 17.9941H11.9995V18.9982H13.0036V17.9941Z" fill="#F4EAE2"/>
<path d="M13.0036 3.99658H11.9995V4.99408H13.0036V3.99658Z" fill="#F4EAE2"/>
<path d="M11.9995 18.9985H11.002V19.996H11.9995V18.9985Z" fill="#F4EAE2"/>
<path d="M11.0021 19.9961H9.99805V21.0002H11.0021V19.9961Z" fill="#F4EAE2"/>
<path d="M9.99799 18.9985H9.00049V19.996H9.99799V18.9985Z" fill="#F4EAE2"/>
<path d="M13.0036 0H8.00293V0.9975H13.0036V0Z" fill="#F4EAE2"/>
<path d="M9.00043 17.9941H8.00293V18.9982H9.00043V17.9941Z" fill="#F4EAE2"/>
<path d="M8.00309 16.9971H6.99902V17.9946H8.00309V16.9971Z" fill="#F4EAE2"/>
<path d="M8.00303 0.997559H6.00146V1.99506H8.00303V0.997559Z" fill="#F4EAE2"/>
<path d="M6.99896 14.9951H6.00146V16.9967H6.99896V14.9951Z" fill="#F4EAE2"/>
<path d="M6.00162 12.9937H4.99756V14.9952H6.00162V12.9937Z" fill="#F4EAE2"/>
<path d="M6.00162 1.99512H4.99756V2.99918H6.00162V1.99512Z" fill="#F4EAE2"/>
<path d="M4.9975 9.99463H4V12.9937H4.9975V9.99463Z" fill="#F4EAE2"/>
<path d="M4.9975 2.99902H4V4.99402H4.9975V2.99902Z" fill="#F4EAE2"/>
<path d="M3.99994 4.99414H3.00244V9.99477H3.99994V4.99414Z" fill="#F4EAE2"/>
</svg>
