<svg width="133" height="133" viewBox="0 0 133 133" fill="none" xmlns="http://www.w3.org/2000/svg">
<circle cx="66.5" cy="66.5" r="63" fill="white" stroke="#F4EAE2" stroke-width="7"/>
<g clip-path="url(#clip0_1366_3538)">
<path d="M64.9447 96.4625C62.6309 96.1347 60.2641 95.8331 57.8973 95.4529C56.8131 95.2824 56.6677 94.9677 56.8264 93.9187C57.0908 92.1092 56.39 91.152 54.6579 90.5751C53.4018 90.1555 52.1722 89.5654 50.9954 88.9491C50.2682 88.5689 49.7525 88.5033 49.2104 89.1851C48.8006 89.6965 48.3378 90.1948 47.8089 90.5488C47.518 90.7455 46.8966 90.798 46.6321 90.6275C42.9432 88.1624 39.8889 85.0547 37.4428 81.3702C37.0726 80.8063 37.099 80.2687 37.6808 79.7967C38.0775 79.482 38.4477 79.1279 38.8047 78.7739C39.5715 78.0134 39.5583 77.5413 39.1088 76.5448C38.4344 75.0369 37.8262 73.4896 37.2709 71.9292C37.0197 71.2212 36.7024 70.8016 35.8826 70.854C35.2876 70.8934 34.6794 70.7622 34.0844 70.8016C33.2382 70.8671 32.9208 70.4475 32.8018 69.687C32.2201 65.7795 32.2597 61.872 32.987 57.9777C33.1059 57.3352 33.4762 57.0598 34.1108 57.0729C34.6794 57.086 35.2479 57.086 35.8165 57.1254C36.742 57.1909 37.2577 56.732 37.5882 55.919C38.2758 54.1882 39.0162 52.4705 39.6905 50.7396C39.7963 50.4774 39.717 50.0316 39.5451 49.7955C39.0956 49.2055 38.5402 48.6941 38.0642 48.1303C37.6411 47.6451 37.6015 47.1468 37.9717 46.583C40.3252 43.0295 43.3795 40.1841 46.9098 37.8108C47.4122 37.4699 47.8618 37.5223 48.2717 37.955C48.6551 38.3615 49.0253 38.8073 49.4088 39.2138C49.9509 39.7908 50.5326 39.9612 51.326 39.5679C52.9391 38.7942 54.5786 38.0862 56.2314 37.4043C56.8528 37.1552 57.1437 36.788 57.104 36.1455C57.0908 35.9095 57.104 35.6735 57.104 35.4375C57.104 33.2608 57.104 33.2739 59.2196 32.9068C63.4903 32.1462 67.7346 32.2249 71.9921 33.0117C72.9441 33.1821 73.473 33.5493 73.3275 34.572C73.2879 34.8343 73.3407 35.1096 73.3275 35.3719C73.2879 36.9847 73.4201 37.0896 74.9671 37.6535C76.4215 38.1911 77.8363 38.8336 79.2378 39.4892C79.8725 39.7908 80.3617 39.8301 80.8112 39.2401C80.9434 39.0827 81.1021 38.9516 81.2608 38.8073C82.8474 37.2863 83.0458 37.247 84.7911 38.5582C87.7925 40.8135 90.4633 43.3836 92.5789 46.4912C93.0549 47.173 92.9623 47.6189 92.3673 48.1696C90.4104 49.966 90.4633 49.9529 91.6269 52.3131C92.2219 53.5326 92.6979 54.8307 93.1474 56.1157C93.3722 56.7451 93.7027 57.0336 94.3903 57.0073C95.0117 56.9811 95.6464 57.086 96.281 57.0467C97.0612 57.0073 97.4181 57.3352 97.5636 58.0826C98.2908 61.9769 98.4098 65.8713 97.6958 69.7788C97.5636 70.5262 97.1537 70.8671 96.3868 70.7753C93.4251 70.4607 93.3854 71.2736 92.8698 73.2929C92.5392 74.5648 91.8913 75.7712 91.3228 76.9775C91.0187 77.6331 91.0319 78.1445 91.5872 78.6428C92.1029 79.1017 92.5524 79.6131 93.0681 80.072C93.4912 80.4392 93.5044 80.8194 93.2135 81.239C90.741 84.8974 87.7396 88.0444 84.0639 90.562C83.4292 90.9947 82.94 90.9029 82.4111 90.3522C80.5997 88.4377 80.6129 88.4902 78.2329 89.6572C77.1355 90.1948 75.9852 90.6144 74.8216 90.9947C73.9886 91.27 73.6581 91.6896 73.6845 92.6075C73.7374 95.5184 73.8564 95.3086 71.2517 95.6758C69.2155 96.0298 67.1264 96.2134 64.9447 96.4625ZM59.8146 87.6903C59.0609 87.6772 58.3072 87.6117 57.5668 87.6903C55.8215 87.8739 54.4861 87.6117 53.6795 85.7366C52.992 84.1631 51.4185 83.2715 50.0699 82.2225C45.733 78.8133 42.9564 74.3813 41.859 69.0183C40.5632 62.6457 41.7135 56.6664 45.4686 51.2903C48.9857 46.229 53.8778 43.0951 59.8542 41.6527C62.0359 41.1282 62.1416 41.22 62.4854 39.004C62.7631 37.1945 62.8953 35.3981 64.6009 34.218C64.7464 34.1131 64.8257 33.7591 64.7596 33.5886C64.6935 33.4444 64.3762 33.3133 64.1778 33.3264C62.4457 33.4968 60.7269 33.7066 59.008 33.9033C58.3601 33.982 58.0692 34.3754 58.056 34.9916C58.0428 35.6735 58.1353 36.3684 58.0031 37.0372C57.937 37.4174 57.6065 37.9157 57.2627 38.073C55.2 39.004 53.0977 39.8563 51.0219 40.748C50.3872 41.0233 49.8848 40.9447 49.422 40.4333C48.9989 39.9743 48.5097 39.5679 48.0998 39.0958C47.7031 38.6369 47.3461 38.6238 46.8701 38.9647C43.8026 41.1282 41.1053 43.6852 38.9898 46.7797C38.8311 47.0026 38.8708 47.5271 39.0427 47.75C39.479 48.3401 40.0343 48.8645 40.5632 49.3759C41.0392 49.848 41.0656 50.2807 40.7483 50.8839C39.9814 52.3918 38.9898 53.8735 38.6592 55.4863C38.1039 58.1875 37.3106 58.2399 35.0893 57.9777C34.3488 57.8859 33.9522 58.1743 33.8067 58.9742C33.2514 62.0687 33.2117 65.1764 33.5819 68.284C33.7671 69.8181 33.8464 69.8706 35.433 69.8968C35.8561 69.8968 36.2792 69.9493 36.6891 69.9099C37.3767 69.8444 37.7733 70.1591 37.9188 70.8016C38.408 72.9651 39.1881 74.9975 40.3516 76.8988C40.7615 77.5807 40.6822 78.2756 40.0872 78.8526C39.6641 79.2722 39.2013 79.6524 38.7518 80.0327C38.2758 80.4261 38.2229 80.885 38.5799 81.357C40.7615 84.3991 43.3002 87.1003 46.3809 89.2769C47.0156 89.7228 47.5048 89.6703 47.994 89.054C48.3246 88.6344 48.7873 88.3328 49.1443 87.9264C49.6468 87.3363 50.1095 87.4019 50.7839 87.7428C52.3837 88.5295 54.0101 89.2769 55.676 89.8932C57.2362 90.4702 58.0031 91.4798 57.818 93.1451C57.6858 94.3645 57.7916 94.5481 59.0212 94.7186C60.6475 94.9415 62.2871 95.0857 63.9266 95.2562C64.5348 95.3217 64.8654 95.0726 64.8654 94.3908C64.8389 92.4632 64.8389 90.5357 64.8654 88.5951C64.8786 87.8739 64.5084 87.6641 63.8605 87.6641C62.4986 87.7035 61.1632 87.6903 59.8146 87.6903ZM70.9079 87.6903C69.5328 87.6903 68.1577 87.7034 66.7694 87.6903C66.1612 87.6903 65.8174 87.9001 65.8306 88.5689C65.8438 90.5357 65.8438 92.4895 65.8306 94.4563C65.8306 95.0464 66.1083 95.2693 66.6504 95.23C67.761 95.1644 68.8717 95.1251 69.9559 94.9939C72.7457 94.6399 72.7854 94.6137 72.759 91.8732C72.7457 91.0209 73.0631 90.6931 73.8035 90.4046C75.5753 89.6965 77.3206 88.9229 79.0262 88.0837C80.5071 87.3494 80.8773 87.3494 82.0409 88.5951C82.2392 88.818 82.464 89.0278 82.6491 89.2507C83.059 89.749 83.4821 89.8277 84.0374 89.4343C87.1578 87.2576 89.7493 84.5696 91.931 81.4751C92.2483 81.0161 92.2483 80.6096 91.812 80.2032C91.2699 79.6918 90.7674 79.1411 90.2253 78.6297C89.8155 78.2363 89.8419 77.8429 90.0535 77.3447C90.9526 75.1811 91.8252 73.0176 92.6582 70.8278C92.883 70.2509 93.1342 69.9099 93.7953 69.9362C94.4167 69.9624 95.0514 69.8968 95.6861 69.9362C96.4662 69.9755 96.7835 69.687 96.9025 68.8872C97.4049 65.6222 97.2727 62.3703 96.8232 59.1184C96.7042 58.3055 96.2678 57.9121 95.4216 57.9777C94.9192 58.017 94.4035 57.9514 93.9011 58.017C92.9887 58.1219 92.6053 57.6367 92.3805 56.8631C91.812 54.8569 91.1244 52.9032 89.8683 51.1854C89.3791 50.5167 89.432 49.8349 90.0006 49.2317C90.4501 48.7596 90.9261 48.3138 91.4153 47.868C91.8384 47.4746 91.8781 47.055 91.5343 46.6092C91.1377 46.0847 90.741 45.5733 90.3179 45.062C88.4932 42.846 86.4042 40.9053 84.0506 39.2401C83.3763 38.768 82.8078 38.768 82.2128 39.3449C81.7632 39.7777 81.2608 40.171 80.8377 40.6169C80.4542 41.0364 80.1104 40.9709 79.6345 40.7742C77.585 39.8826 75.5224 39.0171 73.4597 38.1648C72.7722 37.8895 72.3623 37.4699 72.3623 36.7094C72.3623 36.1193 72.3226 35.5161 72.3491 34.9261C72.3755 34.3098 72.1111 33.9689 71.5029 33.9033C70.1013 33.7328 68.713 33.5493 67.3115 33.4313C66.8487 33.3919 66.3727 33.5362 65.8967 33.6017C66.1479 34.0475 66.3727 34.5065 66.6636 34.913C67.0338 35.4112 67.6949 35.8046 67.8139 36.3291C68.1048 37.5879 68.1974 38.8991 68.2767 40.1973C68.3163 40.9315 68.594 41.3118 69.2948 41.4036C72.5078 41.797 75.3902 43.082 78.1404 44.6948C80.6922 46.1896 82.9003 48.0909 84.6721 50.4643C87.6338 54.4373 89.0089 58.9611 89.2337 63.852C89.551 71.1294 86.576 76.9775 81.1285 81.698C79.2246 83.3501 77.1223 84.8187 75.9984 87.2052C75.8662 87.4674 75.3108 87.6641 74.9538 87.6772C73.6052 87.7297 72.2565 87.6903 70.9079 87.6903ZM71.093 80.3474C71.2516 80.6359 71.3045 80.7932 71.3971 80.885C72.8119 82.288 74.5307 83.1666 76.5008 83.4681C76.871 83.5206 77.347 83.3501 77.6644 83.1272C78.775 82.3274 79.8724 81.5013 80.917 80.6228C84.5398 77.5676 86.814 73.6863 87.7528 69.097C89.0882 62.6063 87.9511 56.5877 83.892 51.2248C80.3617 46.5699 75.7075 43.672 69.9691 42.4788C68.5147 42.1772 68.3825 42.2952 68.4353 43.7376C68.6337 49.0743 68.832 54.4111 69.0436 59.7609C69.0436 59.8658 69.1097 59.9707 69.1758 60.1674C71.2516 58.6988 73.354 57.4925 75.9587 57.6236C75.5621 59.0922 75.2051 60.4035 74.7952 61.9376C76.1174 61.282 77.1223 60.705 78.1932 60.2986C79.2907 59.8921 80.4542 59.656 81.5913 59.3545C81.6442 59.4462 81.6971 59.538 81.75 59.6298C81.631 59.879 81.5384 60.1543 81.393 60.3903C79.9518 62.6063 79.4493 65.0059 79.7402 67.6153C79.8857 68.9134 79.9782 70.2115 79.9914 71.5228C80.0047 72.8996 79.7931 74.237 79.0659 75.4565C77.8362 77.5282 75.8662 78.5903 73.711 79.4164C72.878 79.7442 72.0318 80.0196 71.093 80.3474ZM61.4541 60.2068C61.507 58.8693 61.5466 57.7547 61.5995 56.6533C61.7846 52.2607 61.983 47.8811 62.1416 43.4885C62.1945 42.2297 62.102 42.1903 60.8855 42.4395C57.8841 43.0295 55.0943 44.0916 52.5424 45.7831C47.6635 49.0088 44.2125 53.3752 42.9696 59.066C40.9863 68.1791 43.6043 75.8892 51.0351 81.816C53.6663 83.9009 54.1555 83.9664 57.1305 82.4585C58.0296 81.9996 58.9022 81.4226 59.4972 80.413C58.1882 79.9278 56.9982 79.5344 55.8479 79.0493C52.6085 77.6725 50.5591 75.4171 50.5326 71.7457C50.5194 70.6442 50.5855 69.5428 50.7178 68.4545C51.088 65.596 50.731 62.8948 49.1708 60.4035C49.0253 60.1674 48.946 59.8921 48.7873 59.4987C51.3128 59.6692 53.4018 60.6132 55.3852 61.8589C55.4645 61.7934 55.557 61.7278 55.6364 61.6491C55.2926 60.351 54.962 59.0529 54.6051 57.7023C54.8298 57.663 55.0282 57.5974 55.2133 57.6105C57.5007 57.7416 59.4443 58.7513 61.4541 60.2068ZM71.45 70.0411C71.4368 69.8837 71.4368 69.5297 71.4103 69.1756C71.0533 64.5339 68.5808 60.8886 65.7909 57.3876C65.4339 56.9418 65.1298 57.0336 64.7728 57.4532C62.7499 59.8921 60.9781 62.4883 59.9335 65.5042C58.77 68.8347 58.77 72.1259 60.3963 75.3516C61.507 77.5413 63.1333 79.2984 64.8918 80.9506C65.0505 81.0948 65.5794 81.0686 65.7777 80.9112C66.3595 80.4523 66.8751 79.9147 67.3776 79.364C69.7576 76.7808 71.4632 73.883 71.45 70.0411ZM61.0178 78.4461C60.9913 78.3412 61.0045 78.2625 60.9649 78.197C60.7401 77.8167 60.4889 77.4364 60.2641 77.0562C58.7039 74.5255 57.937 71.8243 58.2411 68.8216C58.4923 66.3827 59.3253 64.1405 60.4889 62.0163C60.8855 61.3082 60.8326 60.8099 60.0525 60.4166C59.1402 59.9576 58.2808 59.42 57.3685 58.9873C56.9982 58.8169 56.5487 58.8037 55.9934 58.6857C56.0859 59.1184 56.1124 59.3545 56.1785 59.5643C56.6941 61.2295 56.7206 62.8817 56.2975 64.5732C55.9537 65.8975 55.6496 67.235 55.3984 68.5725C54.5257 73.4109 56.8131 76.4792 61.0178 78.4461ZM74.306 58.7251C72.7986 58.9218 71.6219 59.7347 70.4054 60.4821C69.7972 60.8624 69.7311 61.282 70.0484 61.8983C70.5377 62.8424 71.0269 63.7996 71.3971 64.8092C72.7061 68.3758 72.8119 71.9555 71.212 75.4827C70.736 76.5186 70.1146 77.4758 69.5592 78.4592C71.5558 77.5676 73.235 76.3481 74.3324 74.4862C75.5885 72.3488 75.4298 70.0542 74.9538 67.7333C74.3588 64.8617 73.4994 62.0032 74.4117 59.0398C74.4249 58.9873 74.3853 58.9218 74.306 58.7251ZM59.3518 79.1935C59.3782 79.1148 59.4047 79.0493 59.4311 78.9706C59.2196 78.8132 59.008 78.6559 58.7964 78.5117C55.4248 76.1252 53.6927 72.9913 54.3935 68.7954C54.6579 67.2088 55.0546 65.6615 55.3323 64.0749C55.3984 63.734 55.3455 63.2357 55.1207 63.0128C53.9307 61.8589 52.4499 61.2033 50.6384 60.7313C50.8103 61.282 50.9029 61.636 51.0351 61.99C51.7094 63.7733 52.0267 65.596 51.7887 67.4973C51.6697 68.4413 51.564 69.3854 51.4979 70.3295C51.326 73.0176 51.7887 75.4827 54.3142 77.0037C55.557 77.7511 56.9189 78.315 58.2543 78.9181C58.5849 79.0886 58.9816 79.1148 59.3518 79.1935ZM79.8724 60.7575C78.1536 61.1771 76.6595 61.872 75.4166 62.9997C75.1918 63.1964 75.1522 63.7209 75.2051 64.0618C75.3637 65.0584 75.5753 66.0418 75.8265 67.0252C76.99 71.5752 76.0909 75.4302 72.045 78.2494C71.7012 78.4854 71.4103 78.787 71.1062 79.0624C73.1556 78.669 75.0199 77.9872 76.6463 76.7939C78.775 75.2336 79.1849 72.9782 79.0659 70.5262C78.9733 68.52 78.7882 66.5007 78.894 64.4945C78.9469 63.3013 79.489 62.1212 79.8724 60.7575ZM68.3031 81.6586C69.2155 82.3667 70.0088 83.0617 70.8814 83.6517C72.0582 84.4385 72.0846 84.3991 71.5425 85.7366C71.2384 86.484 71.3706 86.7069 72.164 86.7594C72.6135 86.7856 73.0631 86.7725 73.5126 86.8118C74.9274 86.9167 75.6017 86.4971 76.157 85.199C76.3686 84.7138 76.3157 84.4122 75.7339 84.2942C73.7374 83.9009 72.0582 82.9568 70.6567 81.4751C69.903 80.649 69.4534 80.7014 68.3031 81.6586ZM62.3135 81.698C61.269 80.7932 60.7137 80.7408 60.0129 81.4357C58.5452 82.9043 56.8131 83.8746 54.7769 84.3336C54.6051 84.3729 54.4596 84.4778 54.2216 84.5827C54.3406 84.9105 54.4067 85.2252 54.5654 85.4875C55.2397 86.602 57.7519 87.2839 58.9022 86.6676C59.0477 86.5889 59.1799 86.2742 59.1534 86.0906C59.1138 85.8153 58.9816 85.5268 58.8229 85.2777C58.4527 84.7007 58.5849 84.3729 59.1667 83.9926C60.2244 83.3108 61.2029 82.5109 62.3135 81.698ZM64.8257 84.2024C64.8257 83.9664 64.7993 83.573 64.8389 83.1928C64.9051 82.629 64.6671 82.2094 64.1514 82.1176C63.7415 82.052 63.1994 82.1176 62.8821 82.3405C61.9698 82.9961 61.1632 83.796 60.2641 84.4778C59.8013 84.8318 59.7749 85.1596 60.0261 85.6186C60.555 86.5758 61.388 86.8118 62.4325 86.7987C64.7993 86.7594 64.9315 86.6545 64.8257 84.2024ZM65.8306 84.4516C65.8438 85.0154 65.7909 85.5792 65.8703 86.13C65.8967 86.3529 66.1744 86.7069 66.3463 86.72C67.4172 86.7725 68.5279 86.8774 69.546 86.6545C69.9956 86.5496 70.3129 85.7366 70.617 85.199C70.6963 85.0547 70.5641 84.6745 70.4054 84.5434C69.5196 83.7566 68.6205 82.983 67.6685 82.2749C67.3908 82.0651 66.8487 81.934 66.571 82.0651C66.2405 82.2094 65.976 82.6683 65.8703 83.0354C65.738 83.4813 65.8306 83.9795 65.8306 84.4516ZM65.1827 38.6107C66.7429 38.6107 66.9545 38.4926 66.9413 37.6141C66.928 36.67 65.9628 35.1359 65.3546 35.0965C64.6935 35.0572 63.7812 36.5651 63.7283 37.6272C63.6754 38.8336 64.4952 38.5844 65.1827 38.6107ZM67.4172 41.1282C67.3379 41.1282 67.2454 41.1282 67.166 41.1282C67.166 41.9805 67.1528 42.8328 67.166 43.6983C67.2586 48.1827 67.3644 52.6671 67.4834 57.1516C67.4966 57.5318 67.6552 57.9252 67.7478 58.3055C67.8668 58.2792 67.9858 58.253 68.1048 58.2399C67.8668 52.536 67.642 46.8321 67.4172 41.1282ZM63.2126 40.5382C62.9879 46.4519 62.7499 52.3524 62.5251 58.2661C63.2655 57.545 63.7812 43.3311 63.2126 40.5382ZM64.7861 40.0399C64.6935 40.0399 64.6009 40.0399 64.5084 40.0399C64.3762 45.416 64.2439 50.7921 64.1117 56.1682C64.2704 56.1944 64.4291 56.2075 64.5877 56.2337C64.6671 55.8797 64.8125 55.5256 64.8125 55.1716C64.8389 50.5167 64.8389 45.8618 64.8389 41.2069C64.8389 40.8267 64.8125 40.4333 64.7861 40.0399ZM66.1215 39.935C66.0554 39.9219 65.9893 39.9088 65.9232 39.8957C65.8967 40.0006 65.8438 40.1186 65.8438 40.2235C65.8306 45.298 65.8306 50.3725 65.8438 55.4601C65.8438 55.7354 66.0157 55.9977 66.1083 56.273C66.2273 56.2468 66.333 56.2337 66.452 56.2075C66.333 50.779 66.2273 45.3504 66.1215 39.935Z" fill="#53405F"/>
<path d="M97.0348 107.188C96.0431 108.552 94.8664 109.483 93.5574 110.27C89.8949 112.486 86.034 112.879 82.0013 111.476C79.2246 110.506 76.8711 108.828 74.6101 107.005C73.1689 105.838 71.6219 104.894 69.6518 105.064C69.2816 105.09 68.8982 105.195 68.4619 105.458C68.9643 105.785 69.4535 106.126 69.9824 106.428C73.2483 108.29 76.1307 110.637 78.7751 113.273C79.2907 113.784 79.3436 114.151 78.8809 114.702C77.6776 116.131 77.4661 116.157 76.2232 114.767C73.7242 111.961 71.0402 109.352 67.9462 107.188C66.1083 105.903 65.4737 105.903 63.5961 107.149C60.2113 109.404 57.276 112.119 54.8431 115.357C54.2613 116.131 53.9837 116.118 53.2697 115.423C52.04 114.217 52.04 114.112 53.2697 112.879C55.9934 110.126 59.0345 107.805 62.4061 105.89C62.6574 105.746 62.8954 105.589 63.3449 105.313C62.1285 104.894 61.031 104.815 60.1319 105.287C58.4263 106.192 56.7206 107.149 55.2266 108.342C52.3045 110.663 49.1973 112.46 45.3629 112.578C41.1847 112.722 37.6544 111.188 34.7588 108.211C34.6398 108.093 34.5869 107.923 34.4282 107.647C34.8249 107.752 35.0893 107.779 35.3141 107.883C39.6377 109.85 43.8556 109.431 48.0073 107.333C50.8368 105.903 53.7192 104.605 56.8529 103.91C59.418 103.347 61.9698 103.32 64.482 104.133C65.3811 104.422 66.1744 104.422 67.0868 104.12C70.3658 103.045 73.6581 103.202 76.8711 104.343C79.1717 105.156 81.4327 106.126 83.654 107.162C88.0041 109.221 92.3145 109.509 96.6646 107.188C96.7042 107.162 96.7703 107.188 97.0348 107.188Z" fill="#53405F"/>
<path d="M101.94 79.1543C101.358 82.7209 100.869 86.0252 100.274 89.3295C99.7718 92.1224 98.3041 94.4565 96.4795 96.5938C96.2943 96.8167 96.096 97.0396 95.977 97.3805C96.1357 97.3018 96.334 97.2625 96.453 97.1314C98.9917 94.4302 102.258 92.7781 105.457 91.0472C108.512 89.3951 111.301 87.4413 113.153 84.4124C113.205 84.3206 113.311 84.2681 113.391 84.1895C113.47 84.2157 113.536 84.255 113.615 84.2812C113.404 84.9893 113.272 85.7367 112.954 86.4054C110.614 91.4668 107.203 95.5579 101.94 97.8395C100.711 98.3771 99.4015 98.7442 98.1058 99.072C96.215 99.531 94.2978 99.885 92.3938 100.278C92.1955 100.318 91.9972 100.344 91.627 100.396C92.2881 99.4261 92.9095 98.6131 93.4252 97.7346C94.9721 95.0859 95.8184 92.1749 96.6249 89.2508C97.5505 85.881 99.1371 82.852 101.187 80.0328C101.358 79.7837 101.583 79.5608 101.94 79.1543Z" fill="#53405F"/>
<path d="M29.4966 80.0459C30.171 81.0293 30.8849 81.9996 31.5328 82.9962C33.3178 85.7498 34.3491 88.805 35.2482 91.9257C36.0944 94.8629 37.2712 97.6296 39.2545 100.003C39.3735 100.134 39.4529 100.291 39.5454 100.449C39.5719 100.488 39.5454 100.554 39.5454 100.685C37.258 100.265 34.9441 99.9374 32.6831 99.426C25.0011 97.7083 20.3734 92.7125 17.7158 85.6056C17.6364 85.3826 17.6364 85.1335 17.5703 84.6877C17.848 84.9106 17.9538 84.963 18.0066 85.0548C19.871 88.2936 22.8856 90.1949 26.1118 91.8471C28.8752 93.2632 31.6122 94.7318 33.8996 96.8822C34.045 97.0264 34.2169 97.1576 34.3888 97.2756C34.64 97.4329 34.8912 97.5772 35.2747 97.6165C34.9441 97.2494 34.6004 96.8822 34.2698 96.5151C32.2072 94.1942 31.0833 91.4537 30.5941 88.4378C30.1445 85.6973 29.7611 82.9437 29.338 80.1901C29.3909 80.1377 29.4437 80.0852 29.4966 80.0459Z" fill="#53405F"/>
<path d="M29.7343 91.8988C28.584 91.1121 27.5659 90.4171 26.5478 89.7221C23.824 87.834 21.1267 85.9196 18.8525 83.4938C16.261 80.7402 14.6611 77.5014 14.0793 73.8037C13.9075 72.6629 14.0529 71.4566 14.1719 70.2502C14.4099 70.801 14.6611 71.3648 14.8991 71.9155C16.0362 74.4593 17.8741 76.4917 19.7516 78.4979C21.6688 80.5566 23.4273 82.7201 24.776 85.1853C24.9479 85.4868 25.1991 85.736 25.5032 86.1031C25.5297 85.8933 25.5693 85.8015 25.5429 85.736C23.7843 82.2088 23.8372 78.5111 24.5116 74.7609C24.8553 72.7809 25.2123 70.8141 25.5958 68.6768C26.323 70.4207 26.7196 72.1122 26.9048 73.843C27.275 77.3834 27.4997 80.95 28.0022 84.4772C28.3063 86.6014 29.0071 88.6732 29.5492 90.7711C29.6021 90.9678 29.6946 91.1645 29.7475 91.3612C29.7607 91.4661 29.7343 91.5841 29.7343 91.8988Z" fill="#53405F"/>
<path d="M78.6299 103.28C79.1455 103.097 79.6612 102.874 80.1901 102.73C83.1518 101.917 85.2409 99.9104 87.2903 97.7862C89.3927 95.6095 91.5743 93.4985 93.7295 91.3742C93.9543 91.1513 94.2319 90.9809 94.6418 90.876C94.1129 92.1085 93.6634 93.3804 93.0552 94.5868C92.2222 96.2521 91.376 97.9173 90.3446 99.4646C89.3794 100.907 87.9118 101.799 86.2326 102.336C85.9152 102.441 85.5979 102.598 85.2938 102.716C85.3203 102.795 85.3467 102.874 85.3599 102.952C86.2194 102.782 87.0656 102.572 87.9382 102.467C90.7281 102.126 93.5312 101.799 96.321 101.51C99.6662 101.169 102.76 100.251 105.299 97.8911C105.365 97.9436 105.431 97.996 105.497 98.0353C105.206 98.5336 104.981 99.0712 104.624 99.517C100.367 104.828 94.9592 107.253 88.1101 105.811C84.9368 105.142 81.8032 104.251 78.6431 103.464C78.6431 103.425 78.6299 103.359 78.6299 103.28Z" fill="#53405F"/>
<path d="M52.6613 103.805C52.0399 103.963 51.4184 104.12 50.8102 104.264C47.7559 104.985 44.7281 105.89 41.6341 106.401C36.9403 107.162 32.7224 105.838 29.1921 102.678C28.0418 101.655 27.1163 100.396 26.1114 99.229C25.9263 99.0192 25.8337 98.7439 25.8469 98.3636C26.2436 98.6783 26.6403 99.0061 27.0502 99.3077C29.5095 101.157 32.4051 101.786 35.3801 102.022C38.9632 102.297 42.5597 102.455 46.0635 103.346C46.1428 103.373 46.2354 103.333 46.3808 103.176C46.0767 103.058 45.7858 102.9 45.4817 102.809C42.7315 102.048 40.8672 100.226 39.5847 97.7998C38.5005 95.7542 37.5882 93.6169 36.5965 91.532C36.5833 91.4927 36.6229 91.4271 36.6891 91.1387C37.6543 91.9648 38.593 92.6597 39.426 93.4727C41.449 95.4526 43.4323 97.4588 45.3892 99.4913C47.2006 101.379 49.5012 102.415 51.8944 103.32C52.1589 103.425 52.4233 103.517 52.6878 103.622C52.6613 103.674 52.6613 103.74 52.6613 103.805Z" fill="#53405F"/>
<path d="M105.722 67.9689C106.184 71.4043 106.713 74.8267 107.07 78.2621C107.295 80.4257 106.753 82.5105 105.92 84.5036C105.814 84.7659 105.722 85.0412 105.801 85.4084C106.515 84.3069 107.163 83.1399 107.956 82.104C109.463 80.1503 110.997 78.2228 112.623 76.3739C114.276 74.4989 115.678 72.5058 116.577 70.1718C116.603 70.1062 116.683 70.0538 116.947 70.0013C116.947 70.9323 117 71.8633 116.934 72.7811C116.656 76.4526 114.937 79.4947 112.69 82.3138C110.164 85.4608 106.766 87.5326 103.553 89.8403C102.932 90.2862 102.31 90.732 101.596 91.2434C101.596 90.9942 101.57 90.9025 101.596 90.8238C103.355 86.4311 103.394 81.7762 103.844 77.1869C104.122 74.4202 104.69 71.6928 105.14 68.9392C105.206 68.5852 105.404 68.2442 105.536 67.9033C105.603 67.9295 105.669 67.9558 105.722 67.9689Z" fill="#53405F"/>
<path d="M25.9001 55.3684C25.8472 56.4698 25.834 57.427 25.7546 58.3711C25.3712 62.8949 24.2209 67.2482 22.9648 71.5884C22.3566 73.6864 22.0657 75.8237 22.3169 78.0135C22.3301 78.1446 22.3037 78.2888 22.1053 78.4986C21.7748 78.0266 21.4575 77.5545 21.1269 77.0956C19.7254 75.2074 18.218 73.3848 16.9487 71.4179C15.0183 68.4283 14.1721 65.0584 14.0267 61.5443C13.9341 59.1447 13.8151 56.7321 14.6084 54.3981C14.7142 54.0702 14.82 53.7555 15.0315 53.4277C14.9654 57.191 16.5917 60.4429 17.8875 63.8259C18.7866 66.1992 19.3023 68.7168 19.9898 71.1688C20.1088 71.6146 20.2014 72.0736 20.4526 72.5063C20.4261 71.9424 20.4129 71.3655 20.3732 70.8017C20.122 67.0908 21.4575 63.8259 23.1763 60.6395C24.0754 58.9874 24.9216 57.2566 25.9001 55.3684Z" fill="#53405F"/>
<path d="M116.141 52.5488C116.339 53.2044 116.656 53.8601 116.722 54.5288C117.119 59.0395 117.423 63.5895 115.532 67.8641C114.594 69.9621 113.219 71.8634 111.963 73.804C111.037 75.2464 109.992 76.6101 108.776 77.9606C108.763 77.7246 108.71 77.4886 108.736 77.2526C109.093 74.5908 108.578 72.0338 107.784 69.5294C106.475 65.3727 105.523 61.1637 105.113 56.8235C105.061 56.3383 105.113 55.84 105.312 55.2893C105.484 55.6434 105.629 55.9974 105.814 56.3383C106.991 58.5412 108.155 60.7441 109.345 62.9338C110.72 65.4645 111.063 68.1526 110.746 70.9586C110.72 71.1684 110.72 71.3651 110.825 71.6274C110.918 71.4044 111.05 71.1946 111.077 70.9717C111.539 67.3396 112.822 63.9566 114.224 60.5998C115.242 58.1609 115.85 55.6302 115.85 52.9815C115.85 52.8504 115.889 52.7193 115.916 52.5882C115.982 52.5751 116.061 52.5619 116.141 52.5488Z" fill="#53405F"/>
<path d="M110.759 37.8633C111.01 38.2173 111.275 38.5451 111.5 38.9123C115.162 44.7604 115.479 50.8839 113.099 57.2696C112.597 58.594 112.253 59.9839 111.857 61.3476C111.685 61.9114 111.552 62.4752 111.314 63.0522C110.191 58.8693 107.321 55.7224 105.1 52.1951C103.646 49.8873 102.588 47.4091 102.006 44.7473C101.966 44.5768 101.953 44.4064 101.914 44.131C102.099 44.2359 102.218 44.2621 102.284 44.3277C104.003 46.1372 105.682 47.986 107.427 49.7693C109.172 51.5395 110.349 53.5719 110.746 56.0371C110.786 56.26 110.878 56.4829 111.063 56.7058C111.063 56.2731 111.116 55.8273 111.05 55.4077C110.587 51.9329 110.971 48.4712 111.235 45.0095C111.42 42.6231 111.381 40.276 110.534 37.9944C110.627 37.9551 110.693 37.9157 110.759 37.8633Z" fill="#53405F"/>
<path d="M19.7916 63.5629C19.2892 62.0681 18.7999 60.7044 18.3901 59.3276C17.6893 56.915 16.8034 54.5154 16.4067 52.0372C15.6531 47.2774 16.9753 42.924 19.6197 38.9248C19.699 38.8068 19.8048 38.6887 19.9106 38.5838C19.937 38.5576 20.0164 38.5707 20.1486 38.5576C19.9899 39.1215 19.8313 39.6459 19.699 40.1836C19.1834 42.2684 19.2627 44.3664 19.5668 46.4644C20.056 49.8212 20.2676 53.191 19.9106 56.5872C19.8709 56.9543 19.9106 57.3214 19.9106 57.9508C20.2808 56.6527 20.5056 55.5775 20.8758 54.5678C21.6956 52.3781 23.1897 50.6341 24.7763 48.9557C25.9399 47.7232 27.077 46.4644 28.2273 45.2187C28.3198 45.1138 28.4388 45.0483 28.7429 45.0351C28.6107 45.6776 28.5182 46.3333 28.3463 46.9758C27.5794 49.9523 26.0853 52.5879 24.3797 55.1055C22.6608 57.6361 21.008 60.1668 20.0825 63.0909C20.0428 63.222 19.937 63.3269 19.7916 63.5629Z" fill="#53405F"/>
<path d="M97.3916 34.2042C98.6609 35.4499 99.798 36.748 101.133 37.8101C103.289 39.5016 105.523 41.0882 107.255 43.3173C106.964 42.0585 106.66 40.7997 106.369 39.5409C106.052 38.1772 105.735 36.8267 105.431 35.463C104.981 33.4961 104.241 31.6735 102.747 30.2049C102.799 30.1394 102.866 30.0607 102.918 29.9951C103.381 30.2049 103.884 30.3492 104.294 30.6376C107.811 33.0765 109.529 36.512 109.648 40.7079C109.715 42.7272 109.529 44.7466 109.477 46.7659C109.45 47.71 109.477 48.6541 109.477 49.8079C108.842 48.995 108.379 48.2476 107.771 47.6575C105.999 45.9791 104.214 44.327 102.363 42.7273C99.9831 40.6817 98.3039 38.2297 97.5899 35.1745C97.4842 34.8467 97.4445 34.5189 97.3916 34.2042Z" fill="#53405F"/>
<path d="M33.0797 35.5159C33.0665 36.4206 32.5772 37.6794 31.9161 38.8858C30.7261 41.0755 29.0337 42.8457 27.1959 44.5372C25.3315 46.2418 23.6523 48.13 21.8938 49.9395C21.7748 50.0575 21.6822 50.1886 21.4839 50.2804C21.5632 46.3992 20.6641 42.5835 21.3914 38.7284C22.0392 35.2667 23.9697 32.7361 26.9579 30.9265C27.1694 30.7954 27.4339 30.743 27.8041 30.7823C27.4339 31.2806 27.0504 31.7657 26.7066 32.2902C25.6224 33.9424 25.1861 35.8175 24.7894 37.7188C24.3134 39.9741 23.8507 42.2294 23.3482 44.6683C24.0093 43.7505 24.4853 42.8457 25.1861 42.177C26.5876 40.8526 28.1082 39.6463 29.589 38.4006C30.8055 37.3778 32.0484 36.3551 33.0797 35.5159Z" fill="#53405F"/>
<path d="M92.6318 24.9473C98.0793 25.2095 104.651 32.8147 104.505 38.6366C99.2958 35.1094 96.5852 29.5366 92.6318 24.9473Z" fill="#53405F"/>
<path d="M37.7998 25.3408C37.4957 25.7735 37.3503 25.9833 37.2048 26.1931C35.6975 28.2911 34.177 30.376 32.7093 32.4871C30.9508 35.0178 28.7691 37.1289 26.3627 39.0826C25.9793 37.8369 27.2486 33.5098 28.941 31.2152C31.1094 28.2518 34.0183 26.4029 37.7998 25.3408Z" fill="#53405F"/>
</g>
<defs>
<clipPath id="clip0_1366_3538">
<rect width="103" height="91" fill="white" transform="translate(14 25)"/>
</clipPath>
</defs>
</svg>
