<svg width="227" height="15" viewBox="0 0 227 15" fill="none" xmlns="http://www.w3.org/2000/svg">
<path d="M8.02292 14.2269C6.97677 14.2269 6.00625 14.0567 5.11136 13.7164C4.22906 13.3761 3.46021 12.8971 2.80479 12.2795C2.16198 11.6619 1.65781 10.9372 1.29229 10.1053C0.939376 9.27344 0.762917 8.36594 0.762917 7.38281C0.762917 6.39969 0.939376 5.49219 1.29229 4.66031C1.65781 3.82844 2.16828 3.1037 2.8237 2.48609C3.47912 1.86849 4.24797 1.38953 5.13026 1.04922C6.01255 0.708906 6.97047 0.53875 8.00401 0.53875C9.05016 0.53875 10.0081 0.708906 10.8778 1.04922C11.7601 1.38953 12.5226 1.86849 13.1654 2.48609C13.8208 3.1037 14.3313 3.82844 14.6968 4.66031C15.0623 5.47958 15.2451 6.38708 15.2451 7.38281C15.2451 8.36594 15.0623 9.27974 14.6968 10.1242C14.3313 10.9561 13.8208 11.6808 13.1654 12.2984C12.5226 12.9034 11.7601 13.3761 10.8778 13.7164C10.0081 14.0567 9.05646 14.2269 8.02292 14.2269ZM8.00401 11.6178C8.59641 11.6178 9.13839 11.517 9.62995 11.3153C10.1341 11.1136 10.5753 10.8237 10.9534 10.4456C11.3315 10.0675 11.6214 9.62005 11.8231 9.10328C12.0373 8.58651 12.1445 8.01302 12.1445 7.38281C12.1445 6.7526 12.0373 6.17911 11.8231 5.66234C11.6214 5.14557 11.3315 4.69812 10.9534 4.32C10.5879 3.94187 10.153 3.65198 9.64886 3.45031C9.14469 3.24865 8.59641 3.14781 8.00401 3.14781C7.41162 3.14781 6.86333 3.24865 6.35917 3.45031C5.86761 3.65198 5.43276 3.94187 5.05464 4.32C4.67651 4.69812 4.38031 5.14557 4.16604 5.66234C3.96438 6.17911 3.86354 6.7526 3.86354 7.38281C3.86354 8.00042 3.96438 8.57391 4.16604 9.10328C4.38031 9.62005 4.67021 10.0675 5.03573 10.4456C5.41386 10.8237 5.855 11.1136 6.35917 11.3153C6.86333 11.517 7.41162 11.6178 8.00401 11.6178ZM23.4268 14.2269C21.5488 14.2269 20.0804 13.7038 19.0216 12.6577C17.9629 11.6115 17.4335 10.1179 17.4335 8.17687V0.765624H20.4963V8.06344C20.4963 9.32385 20.7547 10.2314 21.2715 10.7859C21.7882 11.3405 22.513 11.6178 23.4457 11.6178C24.3784 11.6178 25.1031 11.3405 25.6199 10.7859C26.1367 10.2314 26.3951 9.32385 26.3951 8.06344V0.765624H29.4201V8.17687C29.4201 10.1179 28.8907 11.6115 27.8319 12.6577C26.7732 13.7038 25.3048 14.2269 23.4268 14.2269ZM32.4467 14V0.765624H38.1753C39.3601 0.765624 40.381 0.960989 41.2381 1.35172C42.0952 1.72984 42.7569 2.27812 43.2233 2.99656C43.6896 3.715 43.9228 4.57208 43.9228 5.56781C43.9228 6.55094 43.6896 7.40172 43.2233 8.12016C42.7569 8.82599 42.0952 9.36797 41.2381 9.74609C40.381 10.1242 39.3601 10.3133 38.1753 10.3133H34.1483L35.5095 8.97094V14H32.4467ZM40.86 14L37.5514 9.19781H40.8222L44.1686 14H40.86ZM35.5095 9.31125L34.1483 7.87437H38.0051C38.9504 7.87437 39.6563 7.67271 40.1226 7.26937C40.589 6.85344 40.8222 6.28625 40.8222 5.56781C40.8222 4.83677 40.589 4.26958 40.1226 3.86625C39.6563 3.46292 38.9504 3.26125 38.0051 3.26125H34.1483L35.5095 1.80547V9.31125ZM58.0373 14.2269C57.0164 14.2269 56.0648 14.063 55.1825 13.7353C54.3128 13.395 53.5566 12.916 52.9137 12.2984C52.2709 11.6808 51.7668 10.9561 51.4012 10.1242C51.0483 9.29234 50.8719 8.37854 50.8719 7.38281C50.8719 6.38708 51.0483 5.47328 51.4012 4.64141C51.7668 3.80953 52.2709 3.08479 52.9137 2.46719C53.5692 1.84958 54.3317 1.37693 55.2014 1.04922C56.0711 0.708906 57.0227 0.53875 58.0562 0.53875C59.2032 0.53875 60.2368 0.740416 61.1569 1.14375C62.0896 1.53448 62.871 2.11427 63.5012 2.88313L61.535 4.69812C61.0812 4.18135 60.5771 3.79693 60.0225 3.54484C59.4679 3.28016 58.8629 3.14781 58.2075 3.14781C57.5899 3.14781 57.0227 3.24865 56.5059 3.45031C55.9892 3.65198 55.5417 3.94187 55.1636 4.32C54.7855 4.69812 54.4893 5.14557 54.275 5.66234C54.0733 6.17911 53.9725 6.7526 53.9725 7.38281C53.9725 8.01302 54.0733 8.58651 54.275 9.10328C54.4893 9.62005 54.7855 10.0675 55.1636 10.4456C55.5417 10.8237 55.9892 11.1136 56.5059 11.3153C57.0227 11.517 57.5899 11.6178 58.2075 11.6178C58.8629 11.6178 59.4679 11.4918 60.0225 11.2397C60.5771 10.975 61.0812 10.578 61.535 10.0486L63.5012 11.8636C62.871 12.6324 62.0896 13.2185 61.1569 13.6219C60.2368 14.0252 59.1969 14.2269 58.0373 14.2269ZM71.7207 14.2269C70.6746 14.2269 69.7041 14.0567 68.8092 13.7164C67.9269 13.3761 67.158 12.8971 66.5026 12.2795C65.8598 11.6619 65.3556 10.9372 64.9901 10.1053C64.6372 9.27344 64.4607 8.36594 64.4607 7.38281C64.4607 6.39969 64.6372 5.49219 64.9901 4.66031C65.3556 3.82844 65.8661 3.1037 66.5215 2.48609C67.1769 1.86849 67.9458 1.38953 68.8281 1.04922C69.7104 0.708906 70.6683 0.53875 71.7018 0.53875C72.748 0.53875 73.7059 0.708906 74.5756 1.04922C75.4579 1.38953 76.2204 1.86849 76.8632 2.48609C77.5186 3.1037 78.0291 3.82844 78.3946 4.66031C78.7602 5.47958 78.9429 6.38708 78.9429 7.38281C78.9429 8.36594 78.7602 9.27974 78.3946 10.1242C78.0291 10.9561 77.5186 11.6808 76.8632 12.2984C76.2204 12.9034 75.4579 13.3761 74.5756 13.7164C73.7059 14.0567 72.7543 14.2269 71.7207 14.2269ZM71.7018 11.6178C72.2942 11.6178 72.8362 11.517 73.3278 11.3153C73.8319 11.1136 74.2731 10.8237 74.6512 10.4456C75.0293 10.0675 75.3192 9.62005 75.5209 9.10328C75.7352 8.58651 75.8423 8.01302 75.8423 7.38281C75.8423 6.7526 75.7352 6.17911 75.5209 5.66234C75.3192 5.14557 75.0293 4.69812 74.6512 4.32C74.2857 3.94187 73.8508 3.65198 73.3467 3.45031C72.8425 3.24865 72.2942 3.14781 71.7018 3.14781C71.1094 3.14781 70.5611 3.24865 70.057 3.45031C69.5654 3.65198 69.1306 3.94187 68.7525 4.32C68.3743 4.69812 68.0781 5.14557 67.8639 5.66234C67.6622 6.17911 67.5614 6.7526 67.5614 7.38281C67.5614 8.00042 67.6622 8.57391 67.8639 9.10328C68.0781 9.62005 68.368 10.0675 68.7335 10.4456C69.1117 10.8237 69.5528 11.1136 70.057 11.3153C70.5611 11.517 71.1094 11.6178 71.7018 11.6178ZM87.1246 14.2269C85.2466 14.2269 83.7782 13.7038 82.7194 12.6577C81.6607 11.6115 81.1313 10.1179 81.1313 8.17687V0.765624H84.1941V8.06344C84.1941 9.32385 84.4525 10.2314 84.9693 10.7859C85.4861 11.3405 86.2108 11.6178 87.1435 11.6178C88.0762 11.6178 88.801 11.3405 89.3177 10.7859C89.8345 10.2314 90.0929 9.32385 90.0929 8.06344V0.765624H93.1179V8.17687C93.1179 10.1179 92.5885 11.6115 91.5298 12.6577C90.471 13.7038 89.0026 14.2269 87.1246 14.2269ZM96.1445 14V0.765624H98.6779L106.486 10.2944H105.257V0.765624H108.282V14H105.768L97.9406 4.47125H99.1695V14H96.1445ZM117.747 14.2269C116.726 14.2269 115.775 14.063 114.892 13.7353C114.023 13.395 113.266 12.916 112.624 12.2984C111.981 11.6808 111.477 10.9561 111.111 10.1242C110.758 9.29234 110.582 8.37854 110.582 7.38281C110.582 6.38708 110.758 5.47328 111.111 4.64141C111.477 3.80953 111.981 3.08479 112.624 2.46719C113.279 1.84958 114.041 1.37693 114.911 1.04922C115.781 0.708906 116.732 0.53875 117.766 0.53875C118.913 0.53875 119.947 0.740416 120.867 1.14375C121.799 1.53448 122.581 2.11427 123.211 2.88313L121.245 4.69812C120.791 4.18135 120.287 3.79693 119.732 3.54484C119.178 3.28016 118.573 3.14781 117.917 3.14781C117.3 3.14781 116.732 3.24865 116.216 3.45031C115.699 3.65198 115.251 3.94187 114.873 4.32C114.495 4.69812 114.199 5.14557 113.985 5.66234C113.783 6.17911 113.682 6.7526 113.682 7.38281C113.682 8.01302 113.783 8.58651 113.985 9.10328C114.199 9.62005 114.495 10.0675 114.873 10.4456C115.251 10.8237 115.699 11.1136 116.216 11.3153C116.732 11.517 117.3 11.6178 117.917 11.6178C118.573 11.6178 119.178 11.4918 119.732 11.2397C120.287 10.975 120.791 10.578 121.245 10.0486L123.211 11.8636C122.581 12.6324 121.799 13.2185 120.867 13.6219C119.947 14.0252 118.907 14.2269 117.747 14.2269ZM125.279 14V0.765624H128.342V14H125.279ZM131.483 14V0.765624H134.546V11.5044H141.182V14H131.483ZM152.407 14.2269C151.436 14.2269 150.573 14.0693 149.817 13.7542C149.06 13.4391 148.462 13.0106 148.021 12.4686C147.579 11.9266 147.359 11.3027 147.359 10.5969C147.359 9.94146 147.504 9.35536 147.794 8.83859C148.084 8.30922 148.544 7.81766 149.174 7.36391C149.804 6.89755 150.604 6.4438 151.575 6.00266C152.281 5.67495 152.835 5.38505 153.239 5.13297C153.642 4.88089 153.926 4.64141 154.09 4.41453C154.253 4.17505 154.335 3.93557 154.335 3.69609C154.335 3.36838 154.222 3.1037 153.995 2.90203C153.781 2.70036 153.459 2.59953 153.031 2.59953C152.577 2.59953 152.224 2.71297 151.972 2.93984C151.72 3.16672 151.594 3.45661 151.594 3.80953C151.594 3.99859 151.632 4.18766 151.707 4.37672C151.783 4.55318 151.928 4.76115 152.142 5.00062C152.356 5.2275 152.659 5.5237 153.05 5.88922L160.026 12.3552L158.419 14.2269L150.724 7.08031C150.283 6.67698 149.93 6.29885 149.665 5.94594C149.401 5.59302 149.205 5.24641 149.079 4.90609C148.966 4.56578 148.909 4.21286 148.909 3.84734C148.909 3.20453 149.079 2.63734 149.42 2.14578C149.76 1.65422 150.239 1.27609 150.857 1.01141C151.474 0.734114 152.199 0.595468 153.031 0.595468C153.8 0.595468 154.461 0.72151 155.016 0.973594C155.583 1.21307 156.024 1.55969 156.339 2.01344C156.667 2.46719 156.831 3.00917 156.831 3.63937C156.831 4.19396 156.692 4.70443 156.415 5.17078C156.138 5.62453 155.703 6.05307 155.11 6.45641C154.531 6.85974 153.768 7.26937 152.823 7.68531C152.18 7.97521 151.67 8.2588 151.291 8.53609C150.926 8.80078 150.661 9.07177 150.497 9.34906C150.333 9.62635 150.252 9.93516 150.252 10.2755C150.252 10.5906 150.346 10.8742 150.535 11.1262C150.737 11.3783 151.014 11.5737 151.367 11.7123C151.72 11.851 152.136 11.9203 152.615 11.9203C153.384 11.9203 154.09 11.7439 154.732 11.3909C155.375 11.0254 155.917 10.4897 156.358 9.78391C156.812 9.06547 157.133 8.19578 157.322 7.17484L159.686 7.91219C159.421 9.19781 158.948 10.3133 158.268 11.2586C157.587 12.2039 156.749 12.9349 155.753 13.4517C154.758 13.9685 153.642 14.2269 152.407 14.2269ZM170.098 14V3.26125H165.863V0.765624H177.396V3.26125H173.161V14H170.098ZM185.287 14.2269C184.241 14.2269 183.271 14.0567 182.376 13.7164C181.494 13.3761 180.725 12.8971 180.069 12.2795C179.427 11.6619 178.922 10.9372 178.557 10.1053C178.204 9.27344 178.027 8.36594 178.027 7.38281C178.027 6.39969 178.204 5.49219 178.557 4.66031C178.922 3.82844 179.433 3.1037 180.088 2.48609C180.744 1.86849 181.513 1.38953 182.395 1.04922C183.277 0.708906 184.235 0.53875 185.269 0.53875C186.315 0.53875 187.273 0.708906 188.142 1.04922C189.025 1.38953 189.787 1.86849 190.43 2.48609C191.085 3.1037 191.596 3.82844 191.961 4.66031C192.327 5.47958 192.51 6.38708 192.51 7.38281C192.51 8.36594 192.327 9.27974 191.961 10.1242C191.596 10.9561 191.085 11.6808 190.43 12.2984C189.787 12.9034 189.025 13.3761 188.142 13.7164C187.273 14.0567 186.321 14.2269 185.287 14.2269ZM185.269 11.6178C185.861 11.6178 186.403 11.517 186.895 11.3153C187.399 11.1136 187.84 10.8237 188.218 10.4456C188.596 10.0675 188.886 9.62005 189.088 9.10328C189.302 8.58651 189.409 8.01302 189.409 7.38281C189.409 6.7526 189.302 6.17911 189.088 5.66234C188.886 5.14557 188.596 4.69812 188.218 4.32C187.852 3.94187 187.418 3.65198 186.913 3.45031C186.409 3.24865 185.861 3.14781 185.269 3.14781C184.676 3.14781 184.128 3.24865 183.624 3.45031C183.132 3.65198 182.697 3.94187 182.319 4.32C181.941 4.69812 181.645 5.14557 181.431 5.66234C181.229 6.17911 181.128 6.7526 181.128 7.38281C181.128 8.00042 181.229 8.57391 181.431 9.10328C181.645 9.62005 181.935 10.0675 182.3 10.4456C182.678 10.8237 183.12 11.1136 183.624 11.3153C184.128 11.517 184.676 11.6178 185.269 11.6178ZM194.811 14V0.765624H200.54C201.725 0.765624 202.746 0.960989 203.603 1.35172C204.46 1.72984 205.122 2.27812 205.588 2.99656C206.054 3.715 206.288 4.57208 206.288 5.56781C206.288 6.55094 206.054 7.40172 205.588 8.12016C205.122 8.83859 204.46 9.39318 203.603 9.78391C202.746 10.162 201.725 10.3511 200.54 10.3511H196.513L197.874 8.97094V14H194.811ZM197.874 9.31125L196.513 7.85547H200.37C201.315 7.85547 202.021 7.6538 202.487 7.25047C202.954 6.84713 203.187 6.28625 203.187 5.56781C203.187 4.83677 202.954 4.26958 202.487 3.86625C202.021 3.46292 201.315 3.26125 200.37 3.26125H196.513L197.874 1.80547V9.31125ZM208.474 14V0.765624H211.537V14H208.474ZM221.011 14.2269C219.99 14.2269 219.039 14.063 218.157 13.7353C217.287 13.395 216.531 12.916 215.888 12.2984C215.245 11.6808 214.741 10.9561 214.375 10.1242C214.022 9.29234 213.846 8.37854 213.846 7.38281C213.846 6.38708 214.022 5.47328 214.375 4.64141C214.741 3.80953 215.245 3.08479 215.888 2.46719C216.543 1.84958 217.306 1.37693 218.175 1.04922C219.045 0.708906 219.997 0.53875 221.03 0.53875C222.177 0.53875 223.211 0.740416 224.131 1.14375C225.064 1.53448 225.845 2.11427 226.475 2.88313L224.509 4.69812C224.055 4.18135 223.551 3.79693 222.997 3.54484C222.442 3.28016 221.837 3.14781 221.182 3.14781C220.564 3.14781 219.997 3.24865 219.48 3.45031C218.963 3.65198 218.516 3.94187 218.138 4.32C217.76 4.69812 217.463 5.14557 217.249 5.66234C217.047 6.17911 216.947 6.7526 216.947 7.38281C216.947 8.01302 217.047 8.58651 217.249 9.10328C217.463 9.62005 217.76 10.0675 218.138 10.4456C218.516 10.8237 218.963 11.1136 219.48 11.3153C219.997 11.517 220.564 11.6178 221.182 11.6178C221.837 11.6178 222.442 11.4918 222.997 11.2397C223.551 10.975 224.055 10.578 224.509 10.0486L226.475 11.8636C225.845 12.6324 225.064 13.2185 224.131 13.6219C223.211 14.0252 222.171 14.2269 221.011 14.2269Z" fill="white"/>
</svg>
