<svg width="639" height="35" viewBox="0 0 639 35" fill="none" xmlns="http://www.w3.org/2000/svg">
<path d="M17.9 34.6C12.6 34.6 8.4 33.1667 5.3 30.3C2.23333 27.4333 0.7 23.2833 0.7 17.85C0.7 14.1833 1.4 11.05 2.8 8.45C4.23333 5.81666 6.26667 3.81666 8.9 2.45C11.5667 1.08333 14.7 0.399997 18.3 0.399997C20 0.399997 21.3833 0.533331 22.45 0.799998C23.55 1.03333 24.6167 1.35 25.65 1.75C26.4167 2.08333 26.9833 2.25 27.35 2.25C27.65 2.25 27.9167 2.18333 28.15 2.05C28.4167 1.91667 28.6 1.71667 28.7 1.45L28.85 0.999999H30.3L30.8 10.45H28.9C28.4333 7.85 27.3667 5.8 25.7 4.3C24.0667 2.8 22.0333 2.05 19.6 2.05C15.8 2.05 13.2 3.66666 11.8 6.9C10.4333 10.1 9.75 13.7 9.75 17.7C9.75 22.4 10.5833 26.1167 12.25 28.85C13.95 31.5833 16.4333 32.95 19.7 32.95C22.1333 32.95 24.2167 32.2667 25.95 30.9C27.6833 29.5333 28.95 27.7167 29.75 25.45L31.25 26.05C30.25 28.7833 28.7167 30.9 26.65 32.4C24.5833 33.8667 21.6667 34.6 17.9 34.6ZM50.3172 34.5C44.8839 34.5 40.6839 33.0333 37.7172 30.1C34.7839 27.1667 33.3172 22.95 33.3172 17.45C33.3172 11.95 34.7839 7.73333 37.7172 4.8C40.6839 1.86666 44.8839 0.399997 50.3172 0.399997C55.7505 0.399997 59.9339 1.86666 62.8672 4.8C65.8339 7.73333 67.3172 11.95 67.3172 17.45C67.3172 22.95 65.8339 27.1667 62.8672 30.1C59.9339 33.0333 55.7505 34.5 50.3172 34.5ZM50.3172 32.85C53.2505 32.85 55.3005 31.6167 56.4672 29.15C57.6672 26.65 58.2672 22.75 58.2672 17.45C58.2672 12.2833 57.6172 8.43333 56.3172 5.9C55.0505 3.33333 53.0505 2.05 50.3172 2.05C47.3839 2.05 45.3172 3.3 44.1172 5.8C42.9505 8.26667 42.3672 12.15 42.3672 17.45C42.3672 22.75 42.9505 26.65 44.1172 29.15C45.3172 31.6167 47.3839 32.85 50.3172 32.85ZM87.343 34.6C82.2763 34.6 78.593 33.6667 76.293 31.8C74.0263 29.9333 72.893 26.9833 72.893 22.95V5.5C72.893 4.6 72.8263 3.96667 72.693 3.6C72.5596 3.23333 72.2596 2.98333 71.793 2.85C71.3596 2.71667 70.593 2.65 69.493 2.65V0.999999H84.943V2.65C83.843 2.65 83.0596 2.71667 82.593 2.85C82.1596 2.95 81.8596 3.2 81.693 3.6C81.5596 3.96667 81.493 4.6 81.493 5.5V23.25C81.493 26.45 81.9096 28.7667 82.743 30.2C83.6096 31.6333 85.143 32.35 87.343 32.35C89.543 32.35 91.093 31.6333 91.993 30.2C92.893 28.7333 93.343 26.4167 93.343 23.25V5.5C93.343 4.6 93.2596 3.96667 93.093 3.6C92.9596 3.2 92.6596 2.95 92.193 2.85C91.7596 2.71667 90.993 2.65 89.893 2.65V0.999999H105.193V2.65C104.093 2.65 103.31 2.71667 102.843 2.85C102.41 2.98333 102.126 3.23333 101.993 3.6C101.86 3.96667 101.793 4.6 101.793 5.5V22.95C101.793 26.9833 100.643 29.9333 98.343 31.8C96.0763 33.6667 92.4096 34.6 87.343 34.6ZM113.521 7.5H113.471V29.75C113.471 30.7167 113.637 31.4 113.971 31.8C114.337 32.1667 115.004 32.35 115.971 32.35H117.321V34H107.921V32.35H109.071C109.871 32.35 110.454 32.15 110.821 31.75C111.221 31.3167 111.421 30.65 111.421 29.75V5.5C111.421 4.63333 111.337 4.01667 111.171 3.65C111.037 3.28333 110.721 3.03333 110.221 2.9C109.754 2.76666 108.971 2.68333 107.871 2.65V0.999999H119.671L134.721 24.5H134.871V5.05C134.871 3.45 134.021 2.65 132.321 2.65H130.921V0.999999H140.171V2.65H139.221C137.687 2.65 136.921 3.45 136.921 5.05V34.35H131.121L113.521 7.5ZM159.55 34.6C154.25 34.6 150.05 33.1667 146.95 30.3C143.884 27.4333 142.35 23.2833 142.35 17.85C142.35 14.1833 143.05 11.05 144.45 8.45C145.884 5.81666 147.917 3.81666 150.55 2.45C153.217 1.08333 156.35 0.399997 159.95 0.399997C161.65 0.399997 163.034 0.533331 164.1 0.799998C165.2 1.03333 166.267 1.35 167.3 1.75C168.067 2.08333 168.634 2.25 169 2.25C169.3 2.25 169.567 2.18333 169.8 2.05C170.067 1.91667 170.25 1.71667 170.35 1.45L170.5 0.999999H171.95L172.45 10.45H170.55C170.084 7.85 169.017 5.8 167.35 4.3C165.717 2.8 163.684 2.05 161.25 2.05C157.45 2.05 154.85 3.66666 153.45 6.9C152.084 10.1 151.4 13.7 151.4 17.7C151.4 22.4 152.234 26.1167 153.9 28.85C155.6 31.5833 158.084 32.95 161.35 32.95C163.784 32.95 165.867 32.2667 167.6 30.9C169.334 29.5333 170.6 27.7167 171.4 25.45L172.9 26.05C171.9 28.7833 170.367 30.9 168.3 32.4C166.234 33.8667 163.317 34.6 159.55 34.6ZM175.894 32.35C177.027 32.35 177.811 32.2833 178.244 32.15C178.711 32.0167 179.011 31.7833 179.144 31.45C179.277 31.0833 179.344 30.45 179.344 29.55V5.55C179.344 4.65 179.261 4.01667 179.094 3.65C178.927 3.25 178.611 2.98333 178.144 2.85C177.711 2.71667 176.961 2.65 175.894 2.65V0.999999H191.344V2.65C190.277 2.65 189.511 2.71667 189.044 2.85C188.611 2.98333 188.311 3.25 188.144 3.65C188.011 4.01667 187.944 4.65 187.944 5.55V29.55C187.944 30.45 188.011 31.0833 188.144 31.45C188.311 31.8167 188.611 32.0667 189.044 32.2C189.477 32.3 190.244 32.35 191.344 32.35V34H175.894V32.35ZM194.644 32.35C195.777 32.35 196.561 32.3 196.994 32.2C197.461 32.0667 197.761 31.8167 197.894 31.45C198.027 31.0833 198.094 30.45 198.094 29.55V5.55C198.094 4.61667 198.027 3.96667 197.894 3.6C197.761 3.23333 197.461 2.98333 196.994 2.85C196.527 2.71667 195.744 2.65 194.644 2.65V0.999999H210.094V2.65C209.027 2.65 208.261 2.71667 207.794 2.85C207.361 2.98333 207.061 3.25 206.894 3.65C206.761 4.01667 206.694 4.65 206.694 5.55V29.35C206.694 30.25 206.744 30.8833 206.844 31.25C206.977 31.5833 207.244 31.8167 207.644 31.95C208.077 32.0833 208.794 32.15 209.794 32.15C212.661 32.15 214.894 31.6667 216.494 30.7C218.094 29.7 219.161 27.9 219.694 25.3H221.744L221.144 34H194.644V32.35ZM262.725 25.3C265.058 27.7667 266.692 29.4667 267.625 30.4C268.592 31.3 269.375 31.9 269.975 32.2C270.608 32.5 271.392 32.65 272.325 32.65V34H265.925C263.492 34 261.692 33.8 260.525 33.4C259.392 32.9667 258.408 32.35 257.575 31.55C254.808 33.55 251.358 34.55 247.225 34.55C243.592 34.55 240.558 33.8667 238.125 32.5C235.725 31.1 234.525 28.9 234.525 25.9C234.525 24.2667 234.908 22.9 235.675 21.8C236.442 20.6667 237.425 19.7333 238.625 19C239.858 18.2667 241.475 17.4667 243.475 16.6C242.108 15.1 241.058 13.7 240.325 12.4C239.625 11.0667 239.275 9.71667 239.275 8.35C239.275 6.71667 239.775 5.3 240.775 4.1C241.808 2.9 243.192 1.98333 244.925 1.35C246.658 0.716664 248.558 0.399997 250.625 0.399997C254.158 0.399997 256.675 0.966665 258.175 2.1C259.675 3.2 260.425 4.73333 260.425 6.7C260.425 7.66667 260.158 8.51667 259.625 9.25C259.125 9.98333 258.292 10.7167 257.125 11.45C255.992 12.15 254.342 13 252.175 14L261.275 23.75C262.108 21.9833 262.525 20.3667 262.525 18.9C262.525 18.1333 262.425 17.5833 262.225 17.25C262.025 16.9167 261.692 16.7 261.225 16.6C260.792 16.5 260.092 16.45 259.125 16.45V15.2H268.125V16.45C267.058 16.45 266.325 16.4833 265.925 16.55C265.558 16.6167 265.292 16.8 265.125 17.1C264.992 17.3667 264.858 17.9 264.725 18.7C264.325 21.1667 263.658 23.3667 262.725 25.3ZM250.725 1.75C249.492 1.75 248.508 2.11666 247.775 2.85C247.075 3.58333 246.725 4.51667 246.725 5.65C246.725 6.51667 246.925 7.35 247.325 8.15C247.725 8.91667 248.175 9.6 248.675 10.2C249.175 10.8 249.975 11.6667 251.075 12.8C252.408 11.9 253.308 11.0167 253.775 10.15C254.242 9.25 254.475 8.16667 254.475 6.9C254.475 3.46666 253.225 1.75 250.725 1.75ZM242.875 24C242.875 29.0333 245.125 31.55 249.625 31.55C251.858 31.55 253.958 30.95 255.925 29.75L244.725 18C243.492 19.3333 242.875 21.3333 242.875 24ZM292.854 32.35C293.921 32.35 294.671 32.2833 295.104 32.15C295.537 32.0167 295.821 31.7833 295.954 31.45C296.087 31.0833 296.154 30.4667 296.154 29.6V2.6H293.904C292.171 2.6 290.687 3.23333 289.454 4.5C288.254 5.73333 287.554 7.55 287.354 9.95H285.254L285.304 0.999999H315.604V9.95H313.604C312.937 5.05 310.621 2.6 306.654 2.6H304.804V29.6C304.804 30.4667 304.871 31.0833 305.004 31.45C305.137 31.7833 305.421 32.0167 305.854 32.15C306.287 32.2833 307.021 32.35 308.054 32.35V34H292.854V32.35ZM334.35 34.5C328.917 34.5 324.717 33.0333 321.75 30.1C318.817 27.1667 317.35 22.95 317.35 17.45C317.35 11.95 318.817 7.73333 321.75 4.8C324.717 1.86666 328.917 0.399997 334.35 0.399997C339.784 0.399997 343.967 1.86666 346.9 4.8C349.867 7.73333 351.35 11.95 351.35 17.45C351.35 22.95 349.867 27.1667 346.9 30.1C343.967 33.0333 339.784 34.5 334.35 34.5ZM334.35 32.85C337.284 32.85 339.334 31.6167 340.5 29.15C341.7 26.65 342.3 22.75 342.3 17.45C342.3 12.2833 341.65 8.43333 340.35 5.9C339.084 3.33333 337.084 2.05 334.35 2.05C331.417 2.05 329.35 3.3 328.15 5.8C326.984 8.26667 326.4 12.15 326.4 17.45C326.4 22.75 326.984 26.65 328.15 29.15C329.35 31.6167 331.417 32.85 334.35 32.85ZM353.726 32.35C354.86 32.35 355.643 32.2833 356.076 32.15C356.543 32.0167 356.843 31.7833 356.976 31.45C357.11 31.0833 357.176 30.45 357.176 29.55V5.5C357.176 4.63333 357.093 4.01667 356.926 3.65C356.793 3.25 356.493 2.98333 356.026 2.85C355.56 2.71667 354.793 2.65 353.726 2.65V0.999999H369.076C373.343 0.999999 376.626 1.81667 378.926 3.45C381.26 5.08333 382.426 7.43333 382.426 10.5C382.426 14.1667 381.11 16.8167 378.476 18.45C375.843 20.0833 372.06 20.9 367.126 20.9H365.776V29.55C365.776 30.4167 365.843 31.0333 365.976 31.4C366.143 31.7667 366.443 32.0167 366.876 32.15C367.31 32.2833 368.026 32.35 369.026 32.35V34H353.726V32.35ZM367.176 18.9C369.143 18.9 370.726 18.2333 371.926 16.9C373.16 15.5333 373.776 13.45 373.776 10.65C373.776 8.08333 373.243 6.15 372.176 4.85C371.143 3.51667 369.61 2.85 367.576 2.85C366.81 2.85 366.31 2.95 366.076 3.15C365.876 3.35 365.776 3.83333 365.776 4.6V18.9H367.176ZM384.927 32.35C386.061 32.35 386.844 32.2833 387.277 32.15C387.744 32.0167 388.044 31.7833 388.177 31.45C388.311 31.0833 388.377 30.45 388.377 29.55V5.55C388.377 4.65 388.294 4.01667 388.127 3.65C387.961 3.25 387.644 2.98333 387.177 2.85C386.744 2.71667 385.994 2.65 384.927 2.65V0.999999H400.377V2.65C399.311 2.65 398.544 2.71667 398.077 2.85C397.644 2.98333 397.344 3.25 397.177 3.65C397.044 4.01667 396.977 4.65 396.977 5.55V29.55C396.977 30.45 397.044 31.0833 397.177 31.45C397.344 31.8167 397.644 32.0667 398.077 32.2C398.511 32.3 399.277 32.35 400.377 32.35V34H384.927V32.35ZM419.951 34.6C414.651 34.6 410.451 33.1667 407.351 30.3C404.284 27.4333 402.751 23.2833 402.751 17.85C402.751 14.1833 403.451 11.05 404.851 8.45C406.284 5.81666 408.317 3.81666 410.951 2.45C413.617 1.08333 416.751 0.399997 420.351 0.399997C422.051 0.399997 423.434 0.533331 424.501 0.799998C425.601 1.03333 426.667 1.35 427.701 1.75C428.467 2.08333 429.034 2.25 429.401 2.25C429.701 2.25 429.967 2.18333 430.201 2.05C430.467 1.91667 430.651 1.71667 430.751 1.45L430.901 0.999999H432.351L432.851 10.45H430.951C430.484 7.85 429.417 5.8 427.751 4.3C426.117 2.8 424.084 2.05 421.651 2.05C417.851 2.05 415.251 3.66666 413.851 6.9C412.484 10.1 411.801 13.7 411.801 17.7C411.801 22.4 412.634 26.1167 414.301 28.85C416.001 31.5833 418.484 32.95 421.751 32.95C424.184 32.95 426.267 32.2667 428.001 30.9C429.734 29.5333 431.001 27.7167 431.801 25.45L433.301 26.05C432.301 28.7833 430.767 30.9 428.701 32.4C426.634 33.8667 423.717 34.6 419.951 34.6ZM446.988 32.35C448.121 32.35 448.905 32.2833 449.338 32.15C449.805 32.0167 450.105 31.7833 450.238 31.45C450.371 31.0833 450.438 30.45 450.438 29.55V5.5C450.438 4.63333 450.355 4.01667 450.188 3.65C450.055 3.25 449.755 2.98333 449.288 2.85C448.821 2.71667 448.055 2.65 446.988 2.65V0.999999H462.338C466.805 0.999999 470.088 1.7 472.188 3.1C474.288 4.46667 475.338 6.46667 475.338 9.1C475.338 11.5 474.555 13.3833 472.988 14.75C471.421 16.1167 469.371 17 466.838 17.4V17.5C468.871 17.8333 470.338 18.4833 471.238 19.45C472.171 20.3833 472.871 21.9833 473.338 24.25L473.938 27.05C474.238 28.4833 474.538 29.5667 474.838 30.3C475.138 31 475.555 31.5167 476.088 31.85C476.655 32.1833 477.455 32.35 478.488 32.35V34H468.638C468.171 33.6667 467.721 33.0667 467.288 32.2C466.855 31.3333 466.521 30.4 466.288 29.4L464.788 22.5C464.521 21.2333 464.121 20.2833 463.588 19.65C463.055 19.0167 462.221 18.7 461.088 18.7H459.038V29.55C459.038 30.4167 459.105 31.0333 459.238 31.4C459.405 31.7667 459.705 32.0167 460.138 32.15C460.571 32.2833 461.288 32.35 462.288 32.35V34H446.988V32.35ZM460.438 16.7C462.671 16.7 464.305 16.15 465.338 15.05C466.371 13.95 466.888 12.1667 466.888 9.7C466.888 7.36666 466.405 5.65 465.438 4.55C464.505 3.41667 462.988 2.85 460.888 2.85C460.121 2.85 459.621 2.96666 459.388 3.2C459.155 3.4 459.038 3.86667 459.038 4.6V16.7H460.438ZM480.337 32.35C481.404 32.35 482.171 32.2833 482.638 32.15C483.104 32.0167 483.404 31.7667 483.538 31.4C483.704 31.0333 483.788 30.4167 483.788 29.55V5.5C483.788 4.63333 483.704 4.01667 483.538 3.65C483.404 3.25 483.104 2.98333 482.638 2.85C482.171 2.71667 481.404 2.65 480.337 2.65V0.999999H507.288V8.85H505.238C504.804 7.15 504.288 5.88333 503.688 5.05C503.121 4.18333 502.371 3.6 501.438 3.3C500.538 3 499.288 2.85 497.688 2.85H494.238C493.571 2.85 493.088 2.98333 492.788 3.25C492.521 3.48333 492.388 3.91666 492.388 4.55V15.65H498.338C499.238 15.65 499.921 15.5333 500.388 15.3C500.854 15.0333 501.204 14.5833 501.438 13.95C501.671 13.3167 501.871 12.35 502.038 11.05H503.688V22.5H502.038C501.904 21.1667 501.704 20.1833 501.438 19.55C501.204 18.8833 500.854 18.4333 500.388 18.2C499.921 17.9667 499.238 17.85 498.338 17.85H492.388V28.85C492.388 29.8833 492.471 30.6167 492.638 31.05C492.838 31.45 493.271 31.7333 493.938 31.9C494.638 32.0667 495.804 32.15 497.438 32.15C499.171 32.15 500.604 31.9667 501.738 31.6C502.904 31.2333 503.871 30.55 504.638 29.55C505.404 28.55 505.971 27.1333 506.338 25.3H508.388L507.788 34H480.337V32.35ZM513.895 5.15C513.528 4.15 513.061 3.48333 512.495 3.15C511.961 2.81666 511.145 2.65 510.045 2.65V0.999999H526.345V2.65H524.195C523.095 2.65 522.545 3.1 522.545 4C522.545 4.23333 522.628 4.6 522.795 5.1L530.245 25.7H530.345L537.345 5C537.478 4.63333 537.545 4.26667 537.545 3.9C537.545 3.06666 537.011 2.65 535.945 2.65H533.795V0.999999H543.495V2.65C542.495 2.65 541.711 2.9 541.145 3.4C540.578 3.86666 540.078 4.71666 539.645 5.95L529.345 34H524.295L513.895 5.15ZM543.716 32.35C544.783 32.35 545.55 32.2833 546.016 32.15C546.483 32.0167 546.783 31.7667 546.916 31.4C547.083 31.0333 547.166 30.4167 547.166 29.55V5.5C547.166 4.63333 547.083 4.01667 546.916 3.65C546.783 3.25 546.483 2.98333 546.016 2.85C545.55 2.71667 544.783 2.65 543.716 2.65V0.999999H570.666V8.85H568.616C568.183 7.15 567.666 5.88333 567.066 5.05C566.5 4.18333 565.75 3.6 564.816 3.3C563.916 3 562.666 2.85 561.066 2.85H557.616C556.95 2.85 556.466 2.98333 556.166 3.25C555.9 3.48333 555.766 3.91666 555.766 4.55V15.65H561.716C562.616 15.65 563.3 15.5333 563.766 15.3C564.233 15.0333 564.583 14.5833 564.816 13.95C565.05 13.3167 565.25 12.35 565.416 11.05H567.066V22.5H565.416C565.283 21.1667 565.083 20.1833 564.816 19.55C564.583 18.8833 564.233 18.4333 563.766 18.2C563.3 17.9667 562.616 17.85 561.716 17.85H555.766V28.85C555.766 29.8833 555.85 30.6167 556.016 31.05C556.216 31.45 556.65 31.7333 557.316 31.9C558.016 32.0667 559.183 32.15 560.816 32.15C562.55 32.15 563.983 31.9667 565.116 31.6C566.283 31.2333 567.25 30.55 568.016 29.55C568.783 28.55 569.35 27.1333 569.716 25.3H571.766L571.166 34H543.716V32.35ZM605.223 29.85C605.523 30.6833 605.79 31.2667 606.023 31.6C606.257 31.9 606.59 32.1 607.023 32.2C607.457 32.3 608.157 32.35 609.123 32.35V34H593.123V32.35H595.573C596.473 32.35 596.923 32 596.923 31.3C596.923 31.0333 596.84 30.6833 596.673 30.25L593.823 22.6H583.573L580.673 30.4C580.54 30.7667 580.473 31.0833 580.473 31.35C580.473 32.0167 580.973 32.35 581.973 32.35H583.873V34H573.473V32.35C574.473 32.35 575.223 32.3 575.723 32.2C576.257 32.0667 576.69 31.8167 577.023 31.45C577.39 31.05 577.74 30.4333 578.073 29.6L589.473 0.999999H594.623L605.223 29.85ZM593.123 20.65L588.773 8.9H588.623L584.273 20.65H593.123ZM611.441 32.35C612.574 32.35 613.358 32.3 613.791 32.2C614.258 32.0667 614.558 31.8167 614.691 31.45C614.824 31.0833 614.891 30.45 614.891 29.55V5.55C614.891 4.61667 614.824 3.96667 614.691 3.6C614.558 3.23333 614.258 2.98333 613.791 2.85C613.324 2.71667 612.541 2.65 611.441 2.65V0.999999H626.891V2.65C625.824 2.65 625.058 2.71667 624.591 2.85C624.158 2.98333 623.858 3.25 623.691 3.65C623.558 4.01667 623.491 4.65 623.491 5.55V29.35C623.491 30.25 623.541 30.8833 623.641 31.25C623.774 31.5833 624.041 31.8167 624.441 31.95C624.874 32.0833 625.591 32.15 626.591 32.15C629.458 32.15 631.691 31.6667 633.291 30.7C634.891 29.7 635.958 27.9 636.491 25.3H638.541L637.941 34H611.441V32.35Z" fill="white"/>
</svg>
