<svg width="167" height="56" viewBox="0 0 167 56" fill="none" xmlns="http://www.w3.org/2000/svg">
<g filter="url(#filter0_ddd_809_46)">
<mask id="path-1-outside-1_809_46" maskUnits="userSpaceOnUse" x="46" y="0.25" width="117" height="47" fill="black">
<rect fill="white" x="46" y="0.25" width="117" height="47"/>
<path d="M47 17.186V3.01166H53.3995C54.929 3.01166 56.2773 3.30865 57.4445 3.90262C58.6117 4.48309 59.524 5.2998 60.1814 6.35275C60.8388 7.40569 61.1675 8.65438 61.1675 10.0988C61.1675 11.5297 60.8388 12.7784 60.1814 13.8449C59.524 14.8978 58.6117 15.7213 57.4445 16.3152C56.2773 16.8957 54.929 17.186 53.3995 17.186H47ZM50.2601 14.4928H53.2385C54.1777 14.4928 54.9893 14.3173 55.6736 13.9664C56.3712 13.6019 56.9079 13.0889 57.2835 12.4274C57.6726 11.766 57.8671 10.9898 57.8671 10.0988C57.8671 9.19435 57.6726 8.41814 57.2835 7.77018C56.9079 7.10871 56.3712 6.60248 55.6736 6.2515C54.9893 5.88702 54.1777 5.70478 53.2385 5.70478H50.2601V14.4928ZM63.4048 17.186V6.292H66.5442V17.186H63.4048ZM64.9745 4.77333C64.3976 4.77333 63.928 4.60458 63.5658 4.2671C63.2035 3.92962 63.0224 3.51114 63.0224 3.01166C63.0224 2.51219 63.2035 2.09371 63.5658 1.75623C63.928 1.41874 64.3976 1.25 64.9745 1.25C65.5514 1.25 66.0209 1.41199 66.3832 1.73598C66.7454 2.04646 66.9265 2.45144 66.9265 2.95092C66.9265 3.47739 66.7454 3.91612 66.3832 4.2671C66.0343 4.60458 65.5648 4.77333 64.9745 4.77333ZM75.8573 17.3479C74.945 17.3479 74.1467 17.1455 73.4625 16.7405C72.7783 16.3355 72.2416 15.7213 71.8525 14.8978C71.4769 14.0609 71.2891 13.0079 71.2891 11.739C71.2891 10.4565 71.4702 9.40359 71.8324 8.58013C72.1947 7.75668 72.7179 7.14246 73.4021 6.73748C74.0863 6.3325 74.9047 6.13001 75.8573 6.13001C76.8769 6.13001 77.7892 6.36625 78.5942 6.83872C79.4126 7.2977 80.0565 7.94567 80.5261 8.78262C81.0091 9.61958 81.2506 10.605 81.2506 11.739C81.2506 12.8864 81.0091 13.8786 80.5261 14.7156C80.0565 15.5525 79.4126 16.2005 78.5942 16.6595C77.7892 17.1185 76.8769 17.3479 75.8573 17.3479ZM69.4578 21.1143V6.292H72.4563V8.51939L72.3959 11.7592L72.5971 14.9788V21.1143H69.4578ZM75.3139 14.7561C75.8371 14.7561 76.3 14.6346 76.7025 14.3916C77.1184 14.1486 77.4471 13.8044 77.6886 13.3589C77.9435 12.8999 78.0709 12.3599 78.0709 11.739C78.0709 11.1045 77.9435 10.5645 77.6886 10.1191C77.4471 9.67358 77.1184 9.32935 76.7025 9.08636C76.3 8.84337 75.8371 8.72188 75.3139 8.72188C74.7907 8.72188 74.3211 8.84337 73.9052 9.08636C73.4893 9.32935 73.1606 9.67358 72.9191 10.1191C72.6776 10.5645 72.5569 11.1045 72.5569 11.739C72.5569 12.3599 72.6776 12.8999 72.9191 13.3589C73.1606 13.8044 73.4893 14.1486 73.9052 14.3916C74.3211 14.6346 74.7907 14.7561 75.3139 14.7561ZM83.3522 17.186V2.16121H86.4915V17.186H83.3522ZM94.557 17.3479C93.4032 17.3479 92.3768 17.105 91.4779 16.619C90.5925 16.133 89.8881 15.4715 89.3649 14.6346C88.8551 13.7841 88.6002 12.8189 88.6002 11.739C88.6002 10.6455 88.8551 9.68033 89.3649 8.84337C89.8881 7.99291 90.5925 7.33145 91.4779 6.85897C92.3768 6.37299 93.4032 6.13001 94.557 6.13001C95.6973 6.13001 96.717 6.37299 97.6158 6.85897C98.5147 7.33145 99.2191 7.98616 99.7289 8.82312C100.239 9.66008 100.494 10.632 100.494 11.739C100.494 12.8189 100.239 13.7841 99.7289 14.6346C99.2191 15.4715 98.5147 16.133 97.6158 16.619C96.717 17.105 95.6973 17.3479 94.557 17.3479ZM94.557 14.7561C95.0802 14.7561 95.5498 14.6346 95.9657 14.3916C96.3816 14.1486 96.7103 13.8044 96.9517 13.3589C97.1932 12.8999 97.314 12.3599 97.314 11.739C97.314 11.1045 97.1932 10.5645 96.9517 10.1191C96.7103 9.67358 96.3816 9.32935 95.9657 9.08636C95.5498 8.84337 95.0802 8.72188 94.557 8.72188C94.0337 8.72188 93.5642 8.84337 93.1483 9.08636C92.7323 9.32935 92.3969 9.67358 92.142 10.1191C91.9005 10.5645 91.7798 11.1045 91.7798 11.739C91.7798 12.3599 91.9005 12.8999 92.142 13.3589C92.3969 13.8044 92.7323 14.1486 93.1483 14.3916C93.5642 14.6346 94.0337 14.7561 94.557 14.7561ZM116.458 6.13001C117.316 6.13001 118.074 6.3055 118.732 6.65648C119.402 6.99396 119.926 7.52044 120.301 8.2359C120.69 8.93787 120.885 9.84232 120.885 10.9493V17.186H117.746V11.4352C117.746 10.5578 117.564 9.90982 117.202 9.49134C116.84 9.07286 116.33 8.86362 115.673 8.86362C115.217 8.86362 114.807 8.97161 114.445 9.1876C114.083 9.39009 113.801 9.70058 113.6 10.1191C113.399 10.5375 113.298 11.0708 113.298 11.7187V17.186H110.159V11.4352C110.159 10.5578 109.978 9.90982 109.615 9.49134C109.267 9.07286 108.763 8.86362 108.106 8.86362C107.65 8.86362 107.241 8.97161 106.879 9.1876C106.516 9.39009 106.235 9.70058 106.033 10.1191C105.832 10.5375 105.731 11.0708 105.731 11.7187V17.186H102.592V6.292H105.591V9.2686L105.027 8.39789C105.403 7.65543 105.933 7.09521 106.617 6.71723C107.315 6.32575 108.106 6.13001 108.992 6.13001C109.984 6.13001 110.85 6.38649 111.588 6.89947C112.339 7.39894 112.835 8.16841 113.077 9.20785L111.97 8.90412C112.332 8.05366 112.909 7.37869 113.701 6.87922C114.506 6.37974 115.425 6.13001 116.458 6.13001ZM130.34 17.186V15.0598L130.139 14.5941V10.7873C130.139 10.1123 129.931 9.58583 129.515 9.20785C129.112 8.82987 128.489 8.64088 127.643 8.64088C127.066 8.64088 126.496 8.73538 125.933 8.92437C125.383 9.09986 124.913 9.34285 124.524 9.65333L123.397 7.44619C123.987 7.02771 124.698 6.70373 125.53 6.47424C126.362 6.24475 127.207 6.13001 128.066 6.13001C129.716 6.13001 130.997 6.52149 131.91 7.30445C132.822 8.08741 133.278 9.3091 133.278 10.9695V17.186H130.34ZM127.04 17.3479C126.194 17.3479 125.47 17.2062 124.866 16.9227C124.262 16.6257 123.8 16.2275 123.478 15.728C123.156 15.2286 122.995 14.6683 122.995 14.0474C122.995 13.3994 123.149 12.8324 123.457 12.3464C123.779 11.8605 124.283 11.4825 124.967 11.2125C125.651 10.929 126.543 10.7873 127.643 10.7873H130.521V12.6299H127.985C127.248 12.6299 126.738 12.7514 126.456 12.9944C126.188 13.2374 126.054 13.5411 126.054 13.9056C126.054 14.3106 126.208 14.6346 126.516 14.8776C126.838 15.1071 127.274 15.2218 127.824 15.2218C128.348 15.2218 128.817 15.1003 129.233 14.8573C129.649 14.6008 129.951 14.2296 130.139 13.7436L130.622 15.2016C130.394 15.9035 129.978 16.4367 129.374 16.8012C128.77 17.1657 127.992 17.3479 127.04 17.3479ZM140.547 17.3479C139.272 17.3479 138.28 17.024 137.569 16.376C136.858 15.7145 136.502 14.7358 136.502 13.4399V3.88237H139.641V13.3994C139.641 13.8584 139.762 14.2161 140.004 14.4726C140.245 14.7156 140.574 14.8371 140.99 14.8371C141.486 14.8371 141.909 14.7021 142.258 14.4321L143.103 16.6595C142.781 16.889 142.392 17.0645 141.936 17.186C141.493 17.2939 141.03 17.3479 140.547 17.3479ZM134.832 8.96487V6.53499H142.338V8.96487H134.832ZM144.865 17.186V6.292H148.004V17.186H144.865ZM146.435 4.77333C145.858 4.77333 145.388 4.60458 145.026 4.2671C144.664 3.92962 144.483 3.51114 144.483 3.01166C144.483 2.51219 144.664 2.09371 145.026 1.75623C145.388 1.41874 145.858 1.25 146.435 1.25C147.012 1.25 147.481 1.41199 147.843 1.73598C148.206 2.04646 148.387 2.45144 148.387 2.95092C148.387 3.47739 148.206 3.91612 147.843 4.2671C147.495 4.60458 147.025 4.77333 146.435 4.77333ZM156.15 17.3479C154.983 17.3479 153.943 17.1117 153.031 16.6392C152.118 16.1533 151.401 15.485 150.877 14.6346C150.368 13.7841 150.113 12.8189 150.113 11.739C150.113 10.6455 150.368 9.68033 150.877 8.84337C151.401 7.99291 152.118 7.33145 153.031 6.85897C153.943 6.37299 154.983 6.13001 156.15 6.13001C157.29 6.13001 158.283 6.37299 159.128 6.85897C159.974 7.33145 160.598 8.01316 161 8.90412L158.565 10.2203C158.283 9.70733 157.928 9.32935 157.498 9.08636C157.082 8.84337 156.626 8.72188 156.13 8.72188C155.593 8.72188 155.11 8.84337 154.681 9.08636C154.252 9.32935 153.91 9.67358 153.655 10.1191C153.413 10.5645 153.292 11.1045 153.292 11.739C153.292 12.3734 153.413 12.9134 153.655 13.3589C153.91 13.8044 154.252 14.1486 154.681 14.3916C155.11 14.6346 155.593 14.7561 156.13 14.7561C156.626 14.7561 157.082 14.6413 157.498 14.4118C157.928 14.1689 158.283 13.7841 158.565 13.2577L161 14.5941C160.598 15.4715 159.974 16.1533 159.128 16.6392C158.283 17.1117 157.29 17.3479 156.15 17.3479ZM49.9985 33.6956H56.7804V36.247H49.9985V33.6956ZM50.24 39.5273H57.9074V42.1597H47V27.9854H57.6457V30.6178H50.24V39.5273ZM66.8606 31.1038C67.7193 31.1038 68.484 31.2793 69.1548 31.6302C69.839 31.9677 70.3757 32.4942 70.7648 33.2097C71.1538 33.9116 71.3484 34.8161 71.3484 35.923V42.1597H68.209V36.409C68.209 35.5315 68.0144 34.8836 67.6254 34.4651C67.2497 34.0466 66.7131 33.8374 66.0154 33.8374C65.519 33.8374 65.0696 33.9454 64.6671 34.1614C64.278 34.3638 63.9695 34.6811 63.7414 35.1131C63.5267 35.545 63.4194 36.0985 63.4194 36.7735V42.1597H60.28V31.2658H63.2785V34.2829L62.715 33.3716C63.1041 32.6427 63.6609 32.0825 64.3854 31.691C65.1098 31.2995 65.9349 31.1038 66.8606 31.1038ZM79.3641 46.25C78.3444 46.25 77.3583 46.1218 76.4058 45.8653C75.4667 45.6223 74.6818 45.251 74.0513 44.7516L75.299 42.4837C75.7551 42.8617 76.332 43.1587 77.0296 43.3746C77.7407 43.6041 78.4383 43.7189 79.1226 43.7189C80.2361 43.7189 81.0411 43.4691 81.5375 42.9697C82.0473 42.4702 82.3022 41.7277 82.3022 40.7423V39.1021L82.5034 36.3685L82.4632 33.6146V31.2658H85.4416V40.3373C85.4416 42.3622 84.9184 43.8539 83.8719 44.8123C82.8254 45.7708 81.3228 46.25 79.3641 46.25ZM78.8811 41.6332C77.8749 41.6332 76.9626 41.4172 76.1442 40.9853C75.3392 40.5398 74.6885 39.9256 74.1921 39.1426C73.7091 38.3461 73.4676 37.4214 73.4676 36.3685C73.4676 35.302 73.7091 34.3773 74.1921 33.5944C74.6885 32.7979 75.3392 32.1837 76.1442 31.7517C76.9626 31.3197 77.8749 31.1038 78.8811 31.1038C79.7934 31.1038 80.5984 31.2927 81.296 31.6707C81.9936 32.0352 82.537 32.6089 82.9261 33.3919C83.3151 34.1614 83.5097 35.1536 83.5097 36.3685C83.5097 37.5699 83.3151 38.5621 82.9261 39.3451C82.537 40.1146 81.9936 40.6883 81.296 41.0663C80.5984 41.4442 79.7934 41.6332 78.8811 41.6332ZM79.5049 39.0414C80.055 39.0414 80.5447 38.9334 80.974 38.7174C81.4033 38.4879 81.7387 38.1707 81.9802 37.7657C82.2217 37.3607 82.3425 36.895 82.3425 36.3685C82.3425 35.8285 82.2217 35.3628 81.9802 34.9713C81.7387 34.5663 81.4033 34.2559 80.974 34.0399C80.5447 33.8104 80.055 33.6956 79.5049 33.6956C78.9549 33.6956 78.4652 33.8104 78.0359 34.0399C77.6065 34.2559 77.2644 34.5663 77.0095 34.9713C76.768 35.3628 76.6473 35.8285 76.6473 36.3685C76.6473 36.895 76.768 37.3607 77.0095 37.7657C77.2644 38.1707 77.6065 38.4879 78.0359 38.7174C78.4652 38.9334 78.9549 39.0414 79.5049 39.0414ZM88.3636 42.1597V31.2658H91.503V42.1597H88.3636ZM89.9333 29.7471C89.3564 29.7471 88.8868 29.5783 88.5246 29.2409C88.1623 28.9034 87.9812 28.4849 87.9812 27.9854C87.9812 27.4859 88.1623 27.0675 88.5246 26.73C88.8868 26.3925 89.3564 26.2238 89.9333 26.2238C90.5102 26.2238 90.9797 26.3857 91.342 26.7097C91.7042 27.0202 91.8853 27.4252 91.8853 27.9247C91.8853 28.4511 91.7042 28.8899 91.342 29.2409C90.9931 29.5783 90.5236 29.7471 89.9333 29.7471ZM100.997 31.1038C101.856 31.1038 102.621 31.2793 103.291 31.6302C103.976 31.9677 104.512 32.4942 104.901 33.2097C105.29 33.9116 105.485 34.8161 105.485 35.923V42.1597H102.346V36.409C102.346 35.5315 102.151 34.8836 101.762 34.4651C101.386 34.0466 100.85 33.8374 100.152 33.8374C99.6556 33.8374 99.2061 33.9454 98.8036 34.1614C98.4146 34.3638 98.106 34.6811 97.8779 35.1131C97.6633 35.545 97.5559 36.0985 97.5559 36.7735V42.1597H94.4166V31.2658H97.4151V34.2829L96.8516 33.3716C97.2407 32.6427 97.7974 32.0825 98.5219 31.691C99.2464 31.2995 100.071 31.1038 100.997 31.1038ZM113.782 42.3217C112.548 42.3217 111.461 42.0787 110.522 41.5927C109.597 41.1068 108.879 40.4453 108.369 39.6083C107.859 38.7579 107.604 37.7927 107.604 36.7127C107.604 35.6193 107.852 34.6541 108.349 33.8171C108.859 32.9667 109.55 32.3052 110.422 31.8327C111.294 31.3467 112.28 31.1038 113.38 31.1038C114.44 31.1038 115.392 31.3332 116.238 31.7922C117.096 32.2377 117.774 32.8857 118.27 33.7361C118.767 34.5731 119.015 35.5788 119.015 36.7532C119.015 36.8747 119.008 37.0165 118.995 37.1785C118.981 37.3269 118.968 37.4687 118.954 37.6037H110.16V35.761H117.304L116.097 36.3078C116.097 35.7408 115.983 35.2481 115.755 34.8296C115.527 34.4111 115.211 34.0871 114.809 33.8576C114.406 33.6146 113.937 33.4931 113.4 33.4931C112.863 33.4931 112.387 33.6146 111.971 33.8576C111.569 34.0871 111.253 34.4178 111.025 34.8498C110.797 35.2683 110.683 35.7678 110.683 36.3482V36.8342C110.683 37.4282 110.811 37.9547 111.066 38.4136C111.334 38.8591 111.703 39.2034 112.172 39.4463C112.655 39.6758 113.219 39.7906 113.863 39.7906C114.44 39.7906 114.943 39.7028 115.372 39.5273C115.815 39.3518 116.217 39.0886 116.58 38.7376L118.25 40.56C117.754 41.127 117.13 41.5657 116.378 41.8762C115.627 42.1732 114.762 42.3217 113.782 42.3217ZM126.478 42.3217C125.244 42.3217 124.157 42.0787 123.218 41.5927C122.292 41.1068 121.575 40.4453 121.065 39.6083C120.555 38.7579 120.3 37.7927 120.3 36.7127C120.3 35.6193 120.548 34.6541 121.045 33.8171C121.554 32.9667 122.245 32.3052 123.117 31.8327C123.989 31.3467 124.976 31.1038 126.076 31.1038C127.136 31.1038 128.088 31.3332 128.933 31.7922C129.792 32.2377 130.469 32.8857 130.966 33.7361C131.462 34.5731 131.71 35.5788 131.71 36.7532C131.71 36.8747 131.704 37.0165 131.69 37.1785C131.677 37.3269 131.664 37.4687 131.65 37.6037H122.856V35.761H130L128.792 36.3078C128.792 35.7408 128.678 35.2481 128.45 34.8296C128.222 34.4111 127.907 34.0871 127.504 33.8576C127.102 33.6146 126.632 33.4931 126.096 33.4931C125.559 33.4931 125.083 33.6146 124.667 33.8576C124.264 34.0871 123.949 34.4178 123.721 34.8498C123.493 35.2683 123.379 35.7678 123.379 36.3482V36.8342C123.379 37.4282 123.506 37.9547 123.761 38.4136C124.03 38.8591 124.399 39.2034 124.868 39.4463C125.351 39.6758 125.915 39.7906 126.559 39.7906C127.136 39.7906 127.639 39.7028 128.068 39.5273C128.511 39.3518 128.913 39.0886 129.275 38.7376L130.946 40.56C130.449 41.127 129.825 41.5657 129.074 41.8762C128.323 42.1732 127.458 42.3217 126.478 42.3217ZM133.801 42.1597V31.2658H136.799V34.3436L136.377 33.4526C136.699 32.6832 137.215 32.1027 137.926 31.7112C138.637 31.3062 139.503 31.1038 140.522 31.1038V34.0196C140.388 34.0061 140.267 33.9994 140.16 33.9994C140.053 33.9859 139.939 33.9791 139.818 33.9791C138.959 33.9791 138.262 34.2289 137.725 34.7283C137.202 35.2143 136.94 35.977 136.94 37.0165V42.1597H133.801Z"/>
</mask>
<path d="M47 17.186V3.01166H53.3995C54.929 3.01166 56.2773 3.30865 57.4445 3.90262C58.6117 4.48309 59.524 5.2998 60.1814 6.35275C60.8388 7.40569 61.1675 8.65438 61.1675 10.0988C61.1675 11.5297 60.8388 12.7784 60.1814 13.8449C59.524 14.8978 58.6117 15.7213 57.4445 16.3152C56.2773 16.8957 54.929 17.186 53.3995 17.186H47ZM50.2601 14.4928H53.2385C54.1777 14.4928 54.9893 14.3173 55.6736 13.9664C56.3712 13.6019 56.9079 13.0889 57.2835 12.4274C57.6726 11.766 57.8671 10.9898 57.8671 10.0988C57.8671 9.19435 57.6726 8.41814 57.2835 7.77018C56.9079 7.10871 56.3712 6.60248 55.6736 6.2515C54.9893 5.88702 54.1777 5.70478 53.2385 5.70478H50.2601V14.4928ZM63.4048 17.186V6.292H66.5442V17.186H63.4048ZM64.9745 4.77333C64.3976 4.77333 63.928 4.60458 63.5658 4.2671C63.2035 3.92962 63.0224 3.51114 63.0224 3.01166C63.0224 2.51219 63.2035 2.09371 63.5658 1.75623C63.928 1.41874 64.3976 1.25 64.9745 1.25C65.5514 1.25 66.0209 1.41199 66.3832 1.73598C66.7454 2.04646 66.9265 2.45144 66.9265 2.95092C66.9265 3.47739 66.7454 3.91612 66.3832 4.2671C66.0343 4.60458 65.5648 4.77333 64.9745 4.77333ZM75.8573 17.3479C74.945 17.3479 74.1467 17.1455 73.4625 16.7405C72.7783 16.3355 72.2416 15.7213 71.8525 14.8978C71.4769 14.0609 71.2891 13.0079 71.2891 11.739C71.2891 10.4565 71.4702 9.40359 71.8324 8.58013C72.1947 7.75668 72.7179 7.14246 73.4021 6.73748C74.0863 6.3325 74.9047 6.13001 75.8573 6.13001C76.8769 6.13001 77.7892 6.36625 78.5942 6.83872C79.4126 7.2977 80.0565 7.94567 80.5261 8.78262C81.0091 9.61958 81.2506 10.605 81.2506 11.739C81.2506 12.8864 81.0091 13.8786 80.5261 14.7156C80.0565 15.5525 79.4126 16.2005 78.5942 16.6595C77.7892 17.1185 76.8769 17.3479 75.8573 17.3479ZM69.4578 21.1143V6.292H72.4563V8.51939L72.3959 11.7592L72.5971 14.9788V21.1143H69.4578ZM75.3139 14.7561C75.8371 14.7561 76.3 14.6346 76.7025 14.3916C77.1184 14.1486 77.4471 13.8044 77.6886 13.3589C77.9435 12.8999 78.0709 12.3599 78.0709 11.739C78.0709 11.1045 77.9435 10.5645 77.6886 10.1191C77.4471 9.67358 77.1184 9.32935 76.7025 9.08636C76.3 8.84337 75.8371 8.72188 75.3139 8.72188C74.7907 8.72188 74.3211 8.84337 73.9052 9.08636C73.4893 9.32935 73.1606 9.67358 72.9191 10.1191C72.6776 10.5645 72.5569 11.1045 72.5569 11.739C72.5569 12.3599 72.6776 12.8999 72.9191 13.3589C73.1606 13.8044 73.4893 14.1486 73.9052 14.3916C74.3211 14.6346 74.7907 14.7561 75.3139 14.7561ZM83.3522 17.186V2.16121H86.4915V17.186H83.3522ZM94.557 17.3479C93.4032 17.3479 92.3768 17.105 91.4779 16.619C90.5925 16.133 89.8881 15.4715 89.3649 14.6346C88.8551 13.7841 88.6002 12.8189 88.6002 11.739C88.6002 10.6455 88.8551 9.68033 89.3649 8.84337C89.8881 7.99291 90.5925 7.33145 91.4779 6.85897C92.3768 6.37299 93.4032 6.13001 94.557 6.13001C95.6973 6.13001 96.717 6.37299 97.6158 6.85897C98.5147 7.33145 99.2191 7.98616 99.7289 8.82312C100.239 9.66008 100.494 10.632 100.494 11.739C100.494 12.8189 100.239 13.7841 99.7289 14.6346C99.2191 15.4715 98.5147 16.133 97.6158 16.619C96.717 17.105 95.6973 17.3479 94.557 17.3479ZM94.557 14.7561C95.0802 14.7561 95.5498 14.6346 95.9657 14.3916C96.3816 14.1486 96.7103 13.8044 96.9517 13.3589C97.1932 12.8999 97.314 12.3599 97.314 11.739C97.314 11.1045 97.1932 10.5645 96.9517 10.1191C96.7103 9.67358 96.3816 9.32935 95.9657 9.08636C95.5498 8.84337 95.0802 8.72188 94.557 8.72188C94.0337 8.72188 93.5642 8.84337 93.1483 9.08636C92.7323 9.32935 92.3969 9.67358 92.142 10.1191C91.9005 10.5645 91.7798 11.1045 91.7798 11.739C91.7798 12.3599 91.9005 12.8999 92.142 13.3589C92.3969 13.8044 92.7323 14.1486 93.1483 14.3916C93.5642 14.6346 94.0337 14.7561 94.557 14.7561ZM116.458 6.13001C117.316 6.13001 118.074 6.3055 118.732 6.65648C119.402 6.99396 119.926 7.52044 120.301 8.2359C120.69 8.93787 120.885 9.84232 120.885 10.9493V17.186H117.746V11.4352C117.746 10.5578 117.564 9.90982 117.202 9.49134C116.84 9.07286 116.33 8.86362 115.673 8.86362C115.217 8.86362 114.807 8.97161 114.445 9.1876C114.083 9.39009 113.801 9.70058 113.6 10.1191C113.399 10.5375 113.298 11.0708 113.298 11.7187V17.186H110.159V11.4352C110.159 10.5578 109.978 9.90982 109.615 9.49134C109.267 9.07286 108.763 8.86362 108.106 8.86362C107.65 8.86362 107.241 8.97161 106.879 9.1876C106.516 9.39009 106.235 9.70058 106.033 10.1191C105.832 10.5375 105.731 11.0708 105.731 11.7187V17.186H102.592V6.292H105.591V9.2686L105.027 8.39789C105.403 7.65543 105.933 7.09521 106.617 6.71723C107.315 6.32575 108.106 6.13001 108.992 6.13001C109.984 6.13001 110.85 6.38649 111.588 6.89947C112.339 7.39894 112.835 8.16841 113.077 9.20785L111.97 8.90412C112.332 8.05366 112.909 7.37869 113.701 6.87922C114.506 6.37974 115.425 6.13001 116.458 6.13001ZM130.34 17.186V15.0598L130.139 14.5941V10.7873C130.139 10.1123 129.931 9.58583 129.515 9.20785C129.112 8.82987 128.489 8.64088 127.643 8.64088C127.066 8.64088 126.496 8.73538 125.933 8.92437C125.383 9.09986 124.913 9.34285 124.524 9.65333L123.397 7.44619C123.987 7.02771 124.698 6.70373 125.53 6.47424C126.362 6.24475 127.207 6.13001 128.066 6.13001C129.716 6.13001 130.997 6.52149 131.91 7.30445C132.822 8.08741 133.278 9.3091 133.278 10.9695V17.186H130.34ZM127.04 17.3479C126.194 17.3479 125.47 17.2062 124.866 16.9227C124.262 16.6257 123.8 16.2275 123.478 15.728C123.156 15.2286 122.995 14.6683 122.995 14.0474C122.995 13.3994 123.149 12.8324 123.457 12.3464C123.779 11.8605 124.283 11.4825 124.967 11.2125C125.651 10.929 126.543 10.7873 127.643 10.7873H130.521V12.6299H127.985C127.248 12.6299 126.738 12.7514 126.456 12.9944C126.188 13.2374 126.054 13.5411 126.054 13.9056C126.054 14.3106 126.208 14.6346 126.516 14.8776C126.838 15.1071 127.274 15.2218 127.824 15.2218C128.348 15.2218 128.817 15.1003 129.233 14.8573C129.649 14.6008 129.951 14.2296 130.139 13.7436L130.622 15.2016C130.394 15.9035 129.978 16.4367 129.374 16.8012C128.77 17.1657 127.992 17.3479 127.04 17.3479ZM140.547 17.3479C139.272 17.3479 138.28 17.024 137.569 16.376C136.858 15.7145 136.502 14.7358 136.502 13.4399V3.88237H139.641V13.3994C139.641 13.8584 139.762 14.2161 140.004 14.4726C140.245 14.7156 140.574 14.8371 140.99 14.8371C141.486 14.8371 141.909 14.7021 142.258 14.4321L143.103 16.6595C142.781 16.889 142.392 17.0645 141.936 17.186C141.493 17.2939 141.03 17.3479 140.547 17.3479ZM134.832 8.96487V6.53499H142.338V8.96487H134.832ZM144.865 17.186V6.292H148.004V17.186H144.865ZM146.435 4.77333C145.858 4.77333 145.388 4.60458 145.026 4.2671C144.664 3.92962 144.483 3.51114 144.483 3.01166C144.483 2.51219 144.664 2.09371 145.026 1.75623C145.388 1.41874 145.858 1.25 146.435 1.25C147.012 1.25 147.481 1.41199 147.843 1.73598C148.206 2.04646 148.387 2.45144 148.387 2.95092C148.387 3.47739 148.206 3.91612 147.843 4.2671C147.495 4.60458 147.025 4.77333 146.435 4.77333ZM156.15 17.3479C154.983 17.3479 153.943 17.1117 153.031 16.6392C152.118 16.1533 151.401 15.485 150.877 14.6346C150.368 13.7841 150.113 12.8189 150.113 11.739C150.113 10.6455 150.368 9.68033 150.877 8.84337C151.401 7.99291 152.118 7.33145 153.031 6.85897C153.943 6.37299 154.983 6.13001 156.15 6.13001C157.29 6.13001 158.283 6.37299 159.128 6.85897C159.974 7.33145 160.598 8.01316 161 8.90412L158.565 10.2203C158.283 9.70733 157.928 9.32935 157.498 9.08636C157.082 8.84337 156.626 8.72188 156.13 8.72188C155.593 8.72188 155.11 8.84337 154.681 9.08636C154.252 9.32935 153.91 9.67358 153.655 10.1191C153.413 10.5645 153.292 11.1045 153.292 11.739C153.292 12.3734 153.413 12.9134 153.655 13.3589C153.91 13.8044 154.252 14.1486 154.681 14.3916C155.11 14.6346 155.593 14.7561 156.13 14.7561C156.626 14.7561 157.082 14.6413 157.498 14.4118C157.928 14.1689 158.283 13.7841 158.565 13.2577L161 14.5941C160.598 15.4715 159.974 16.1533 159.128 16.6392C158.283 17.1117 157.29 17.3479 156.15 17.3479ZM49.9985 33.6956H56.7804V36.247H49.9985V33.6956ZM50.24 39.5273H57.9074V42.1597H47V27.9854H57.6457V30.6178H50.24V39.5273ZM66.8606 31.1038C67.7193 31.1038 68.484 31.2793 69.1548 31.6302C69.839 31.9677 70.3757 32.4942 70.7648 33.2097C71.1538 33.9116 71.3484 34.8161 71.3484 35.923V42.1597H68.209V36.409C68.209 35.5315 68.0144 34.8836 67.6254 34.4651C67.2497 34.0466 66.7131 33.8374 66.0154 33.8374C65.519 33.8374 65.0696 33.9454 64.6671 34.1614C64.278 34.3638 63.9695 34.6811 63.7414 35.1131C63.5267 35.545 63.4194 36.0985 63.4194 36.7735V42.1597H60.28V31.2658H63.2785V34.2829L62.715 33.3716C63.1041 32.6427 63.6609 32.0825 64.3854 31.691C65.1098 31.2995 65.9349 31.1038 66.8606 31.1038ZM79.3641 46.25C78.3444 46.25 77.3583 46.1218 76.4058 45.8653C75.4667 45.6223 74.6818 45.251 74.0513 44.7516L75.299 42.4837C75.7551 42.8617 76.332 43.1587 77.0296 43.3746C77.7407 43.6041 78.4383 43.7189 79.1226 43.7189C80.2361 43.7189 81.0411 43.4691 81.5375 42.9697C82.0473 42.4702 82.3022 41.7277 82.3022 40.7423V39.1021L82.5034 36.3685L82.4632 33.6146V31.2658H85.4416V40.3373C85.4416 42.3622 84.9184 43.8539 83.8719 44.8123C82.8254 45.7708 81.3228 46.25 79.3641 46.25ZM78.8811 41.6332C77.8749 41.6332 76.9626 41.4172 76.1442 40.9853C75.3392 40.5398 74.6885 39.9256 74.1921 39.1426C73.7091 38.3461 73.4676 37.4214 73.4676 36.3685C73.4676 35.302 73.7091 34.3773 74.1921 33.5944C74.6885 32.7979 75.3392 32.1837 76.1442 31.7517C76.9626 31.3197 77.8749 31.1038 78.8811 31.1038C79.7934 31.1038 80.5984 31.2927 81.296 31.6707C81.9936 32.0352 82.537 32.6089 82.9261 33.3919C83.3151 34.1614 83.5097 35.1536 83.5097 36.3685C83.5097 37.5699 83.3151 38.5621 82.9261 39.3451C82.537 40.1146 81.9936 40.6883 81.296 41.0663C80.5984 41.4442 79.7934 41.6332 78.8811 41.6332ZM79.5049 39.0414C80.055 39.0414 80.5447 38.9334 80.974 38.7174C81.4033 38.4879 81.7387 38.1707 81.9802 37.7657C82.2217 37.3607 82.3425 36.895 82.3425 36.3685C82.3425 35.8285 82.2217 35.3628 81.9802 34.9713C81.7387 34.5663 81.4033 34.2559 80.974 34.0399C80.5447 33.8104 80.055 33.6956 79.5049 33.6956C78.9549 33.6956 78.4652 33.8104 78.0359 34.0399C77.6065 34.2559 77.2644 34.5663 77.0095 34.9713C76.768 35.3628 76.6473 35.8285 76.6473 36.3685C76.6473 36.895 76.768 37.3607 77.0095 37.7657C77.2644 38.1707 77.6065 38.4879 78.0359 38.7174C78.4652 38.9334 78.9549 39.0414 79.5049 39.0414ZM88.3636 42.1597V31.2658H91.503V42.1597H88.3636ZM89.9333 29.7471C89.3564 29.7471 88.8868 29.5783 88.5246 29.2409C88.1623 28.9034 87.9812 28.4849 87.9812 27.9854C87.9812 27.4859 88.1623 27.0675 88.5246 26.73C88.8868 26.3925 89.3564 26.2238 89.9333 26.2238C90.5102 26.2238 90.9797 26.3857 91.342 26.7097C91.7042 27.0202 91.8853 27.4252 91.8853 27.9247C91.8853 28.4511 91.7042 28.8899 91.342 29.2409C90.9931 29.5783 90.5236 29.7471 89.9333 29.7471ZM100.997 31.1038C101.856 31.1038 102.621 31.2793 103.291 31.6302C103.976 31.9677 104.512 32.4942 104.901 33.2097C105.29 33.9116 105.485 34.8161 105.485 35.923V42.1597H102.346V36.409C102.346 35.5315 102.151 34.8836 101.762 34.4651C101.386 34.0466 100.85 33.8374 100.152 33.8374C99.6556 33.8374 99.2061 33.9454 98.8036 34.1614C98.4146 34.3638 98.106 34.6811 97.8779 35.1131C97.6633 35.545 97.5559 36.0985 97.5559 36.7735V42.1597H94.4166V31.2658H97.4151V34.2829L96.8516 33.3716C97.2407 32.6427 97.7974 32.0825 98.5219 31.691C99.2464 31.2995 100.071 31.1038 100.997 31.1038ZM113.782 42.3217C112.548 42.3217 111.461 42.0787 110.522 41.5927C109.597 41.1068 108.879 40.4453 108.369 39.6083C107.859 38.7579 107.604 37.7927 107.604 36.7127C107.604 35.6193 107.852 34.6541 108.349 33.8171C108.859 32.9667 109.55 32.3052 110.422 31.8327C111.294 31.3467 112.28 31.1038 113.38 31.1038C114.44 31.1038 115.392 31.3332 116.238 31.7922C117.096 32.2377 117.774 32.8857 118.27 33.7361C118.767 34.5731 119.015 35.5788 119.015 36.7532C119.015 36.8747 119.008 37.0165 118.995 37.1785C118.981 37.3269 118.968 37.4687 118.954 37.6037H110.16V35.761H117.304L116.097 36.3078C116.097 35.7408 115.983 35.2481 115.755 34.8296C115.527 34.4111 115.211 34.0871 114.809 33.8576C114.406 33.6146 113.937 33.4931 113.4 33.4931C112.863 33.4931 112.387 33.6146 111.971 33.8576C111.569 34.0871 111.253 34.4178 111.025 34.8498C110.797 35.2683 110.683 35.7678 110.683 36.3482V36.8342C110.683 37.4282 110.811 37.9547 111.066 38.4136C111.334 38.8591 111.703 39.2034 112.172 39.4463C112.655 39.6758 113.219 39.7906 113.863 39.7906C114.44 39.7906 114.943 39.7028 115.372 39.5273C115.815 39.3518 116.217 39.0886 116.58 38.7376L118.25 40.56C117.754 41.127 117.13 41.5657 116.378 41.8762C115.627 42.1732 114.762 42.3217 113.782 42.3217ZM126.478 42.3217C125.244 42.3217 124.157 42.0787 123.218 41.5927C122.292 41.1068 121.575 40.4453 121.065 39.6083C120.555 38.7579 120.3 37.7927 120.3 36.7127C120.3 35.6193 120.548 34.6541 121.045 33.8171C121.554 32.9667 122.245 32.3052 123.117 31.8327C123.989 31.3467 124.976 31.1038 126.076 31.1038C127.136 31.1038 128.088 31.3332 128.933 31.7922C129.792 32.2377 130.469 32.8857 130.966 33.7361C131.462 34.5731 131.71 35.5788 131.71 36.7532C131.71 36.8747 131.704 37.0165 131.69 37.1785C131.677 37.3269 131.664 37.4687 131.65 37.6037H122.856V35.761H130L128.792 36.3078C128.792 35.7408 128.678 35.2481 128.45 34.8296C128.222 34.4111 127.907 34.0871 127.504 33.8576C127.102 33.6146 126.632 33.4931 126.096 33.4931C125.559 33.4931 125.083 33.6146 124.667 33.8576C124.264 34.0871 123.949 34.4178 123.721 34.8498C123.493 35.2683 123.379 35.7678 123.379 36.3482V36.8342C123.379 37.4282 123.506 37.9547 123.761 38.4136C124.03 38.8591 124.399 39.2034 124.868 39.4463C125.351 39.6758 125.915 39.7906 126.559 39.7906C127.136 39.7906 127.639 39.7028 128.068 39.5273C128.511 39.3518 128.913 39.0886 129.275 38.7376L130.946 40.56C130.449 41.127 129.825 41.5657 129.074 41.8762C128.323 42.1732 127.458 42.3217 126.478 42.3217ZM133.801 42.1597V31.2658H136.799V34.3436L136.377 33.4526C136.699 32.6832 137.215 32.1027 137.926 31.7112C138.637 31.3062 139.503 31.1038 140.522 31.1038V34.0196C140.388 34.0061 140.267 33.9994 140.16 33.9994C140.053 33.9859 139.939 33.9791 139.818 33.9791C138.959 33.9791 138.262 34.2289 137.725 34.7283C137.202 35.2143 136.94 35.977 136.94 37.0165V42.1597H133.801Z" fill="#E8D3C0"/>
<path d="M47 17.186V3.01166H53.3995C54.929 3.01166 56.2773 3.30865 57.4445 3.90262C58.6117 4.48309 59.524 5.2998 60.1814 6.35275C60.8388 7.40569 61.1675 8.65438 61.1675 10.0988C61.1675 11.5297 60.8388 12.7784 60.1814 13.8449C59.524 14.8978 58.6117 15.7213 57.4445 16.3152C56.2773 16.8957 54.929 17.186 53.3995 17.186H47ZM50.2601 14.4928H53.2385C54.1777 14.4928 54.9893 14.3173 55.6736 13.9664C56.3712 13.6019 56.9079 13.0889 57.2835 12.4274C57.6726 11.766 57.8671 10.9898 57.8671 10.0988C57.8671 9.19435 57.6726 8.41814 57.2835 7.77018C56.9079 7.10871 56.3712 6.60248 55.6736 6.2515C54.9893 5.88702 54.1777 5.70478 53.2385 5.70478H50.2601V14.4928ZM63.4048 17.186V6.292H66.5442V17.186H63.4048ZM64.9745 4.77333C64.3976 4.77333 63.928 4.60458 63.5658 4.2671C63.2035 3.92962 63.0224 3.51114 63.0224 3.01166C63.0224 2.51219 63.2035 2.09371 63.5658 1.75623C63.928 1.41874 64.3976 1.25 64.9745 1.25C65.5514 1.25 66.0209 1.41199 66.3832 1.73598C66.7454 2.04646 66.9265 2.45144 66.9265 2.95092C66.9265 3.47739 66.7454 3.91612 66.3832 4.2671C66.0343 4.60458 65.5648 4.77333 64.9745 4.77333ZM75.8573 17.3479C74.945 17.3479 74.1467 17.1455 73.4625 16.7405C72.7783 16.3355 72.2416 15.7213 71.8525 14.8978C71.4769 14.0609 71.2891 13.0079 71.2891 11.739C71.2891 10.4565 71.4702 9.40359 71.8324 8.58013C72.1947 7.75668 72.7179 7.14246 73.4021 6.73748C74.0863 6.3325 74.9047 6.13001 75.8573 6.13001C76.8769 6.13001 77.7892 6.36625 78.5942 6.83872C79.4126 7.2977 80.0565 7.94567 80.5261 8.78262C81.0091 9.61958 81.2506 10.605 81.2506 11.739C81.2506 12.8864 81.0091 13.8786 80.5261 14.7156C80.0565 15.5525 79.4126 16.2005 78.5942 16.6595C77.7892 17.1185 76.8769 17.3479 75.8573 17.3479ZM69.4578 21.1143V6.292H72.4563V8.51939L72.3959 11.7592L72.5971 14.9788V21.1143H69.4578ZM75.3139 14.7561C75.8371 14.7561 76.3 14.6346 76.7025 14.3916C77.1184 14.1486 77.4471 13.8044 77.6886 13.3589C77.9435 12.8999 78.0709 12.3599 78.0709 11.739C78.0709 11.1045 77.9435 10.5645 77.6886 10.1191C77.4471 9.67358 77.1184 9.32935 76.7025 9.08636C76.3 8.84337 75.8371 8.72188 75.3139 8.72188C74.7907 8.72188 74.3211 8.84337 73.9052 9.08636C73.4893 9.32935 73.1606 9.67358 72.9191 10.1191C72.6776 10.5645 72.5569 11.1045 72.5569 11.739C72.5569 12.3599 72.6776 12.8999 72.9191 13.3589C73.1606 13.8044 73.4893 14.1486 73.9052 14.3916C74.3211 14.6346 74.7907 14.7561 75.3139 14.7561ZM83.3522 17.186V2.16121H86.4915V17.186H83.3522ZM94.557 17.3479C93.4032 17.3479 92.3768 17.105 91.4779 16.619C90.5925 16.133 89.8881 15.4715 89.3649 14.6346C88.8551 13.7841 88.6002 12.8189 88.6002 11.739C88.6002 10.6455 88.8551 9.68033 89.3649 8.84337C89.8881 7.99291 90.5925 7.33145 91.4779 6.85897C92.3768 6.37299 93.4032 6.13001 94.557 6.13001C95.6973 6.13001 96.717 6.37299 97.6158 6.85897C98.5147 7.33145 99.2191 7.98616 99.7289 8.82312C100.239 9.66008 100.494 10.632 100.494 11.739C100.494 12.8189 100.239 13.7841 99.7289 14.6346C99.2191 15.4715 98.5147 16.133 97.6158 16.619C96.717 17.105 95.6973 17.3479 94.557 17.3479ZM94.557 14.7561C95.0802 14.7561 95.5498 14.6346 95.9657 14.3916C96.3816 14.1486 96.7103 13.8044 96.9517 13.3589C97.1932 12.8999 97.314 12.3599 97.314 11.739C97.314 11.1045 97.1932 10.5645 96.9517 10.1191C96.7103 9.67358 96.3816 9.32935 95.9657 9.08636C95.5498 8.84337 95.0802 8.72188 94.557 8.72188C94.0337 8.72188 93.5642 8.84337 93.1483 9.08636C92.7323 9.32935 92.3969 9.67358 92.142 10.1191C91.9005 10.5645 91.7798 11.1045 91.7798 11.739C91.7798 12.3599 91.9005 12.8999 92.142 13.3589C92.3969 13.8044 92.7323 14.1486 93.1483 14.3916C93.5642 14.6346 94.0337 14.7561 94.557 14.7561ZM116.458 6.13001C117.316 6.13001 118.074 6.3055 118.732 6.65648C119.402 6.99396 119.926 7.52044 120.301 8.2359C120.69 8.93787 120.885 9.84232 120.885 10.9493V17.186H117.746V11.4352C117.746 10.5578 117.564 9.90982 117.202 9.49134C116.84 9.07286 116.33 8.86362 115.673 8.86362C115.217 8.86362 114.807 8.97161 114.445 9.1876C114.083 9.39009 113.801 9.70058 113.6 10.1191C113.399 10.5375 113.298 11.0708 113.298 11.7187V17.186H110.159V11.4352C110.159 10.5578 109.978 9.90982 109.615 9.49134C109.267 9.07286 108.763 8.86362 108.106 8.86362C107.65 8.86362 107.241 8.97161 106.879 9.1876C106.516 9.39009 106.235 9.70058 106.033 10.1191C105.832 10.5375 105.731 11.0708 105.731 11.7187V17.186H102.592V6.292H105.591V9.2686L105.027 8.39789C105.403 7.65543 105.933 7.09521 106.617 6.71723C107.315 6.32575 108.106 6.13001 108.992 6.13001C109.984 6.13001 110.85 6.38649 111.588 6.89947C112.339 7.39894 112.835 8.16841 113.077 9.20785L111.97 8.90412C112.332 8.05366 112.909 7.37869 113.701 6.87922C114.506 6.37974 115.425 6.13001 116.458 6.13001ZM130.34 17.186V15.0598L130.139 14.5941V10.7873C130.139 10.1123 129.931 9.58583 129.515 9.20785C129.112 8.82987 128.489 8.64088 127.643 8.64088C127.066 8.64088 126.496 8.73538 125.933 8.92437C125.383 9.09986 124.913 9.34285 124.524 9.65333L123.397 7.44619C123.987 7.02771 124.698 6.70373 125.53 6.47424C126.362 6.24475 127.207 6.13001 128.066 6.13001C129.716 6.13001 130.997 6.52149 131.91 7.30445C132.822 8.08741 133.278 9.3091 133.278 10.9695V17.186H130.34ZM127.04 17.3479C126.194 17.3479 125.47 17.2062 124.866 16.9227C124.262 16.6257 123.8 16.2275 123.478 15.728C123.156 15.2286 122.995 14.6683 122.995 14.0474C122.995 13.3994 123.149 12.8324 123.457 12.3464C123.779 11.8605 124.283 11.4825 124.967 11.2125C125.651 10.929 126.543 10.7873 127.643 10.7873H130.521V12.6299H127.985C127.248 12.6299 126.738 12.7514 126.456 12.9944C126.188 13.2374 126.054 13.5411 126.054 13.9056C126.054 14.3106 126.208 14.6346 126.516 14.8776C126.838 15.1071 127.274 15.2218 127.824 15.2218C128.348 15.2218 128.817 15.1003 129.233 14.8573C129.649 14.6008 129.951 14.2296 130.139 13.7436L130.622 15.2016C130.394 15.9035 129.978 16.4367 129.374 16.8012C128.77 17.1657 127.992 17.3479 127.04 17.3479ZM140.547 17.3479C139.272 17.3479 138.28 17.024 137.569 16.376C136.858 15.7145 136.502 14.7358 136.502 13.4399V3.88237H139.641V13.3994C139.641 13.8584 139.762 14.2161 140.004 14.4726C140.245 14.7156 140.574 14.8371 140.99 14.8371C141.486 14.8371 141.909 14.7021 142.258 14.4321L143.103 16.6595C142.781 16.889 142.392 17.0645 141.936 17.186C141.493 17.2939 141.03 17.3479 140.547 17.3479ZM134.832 8.96487V6.53499H142.338V8.96487H134.832ZM144.865 17.186V6.292H148.004V17.186H144.865ZM146.435 4.77333C145.858 4.77333 145.388 4.60458 145.026 4.2671C144.664 3.92962 144.483 3.51114 144.483 3.01166C144.483 2.51219 144.664 2.09371 145.026 1.75623C145.388 1.41874 145.858 1.25 146.435 1.25C147.012 1.25 147.481 1.41199 147.843 1.73598C148.206 2.04646 148.387 2.45144 148.387 2.95092C148.387 3.47739 148.206 3.91612 147.843 4.2671C147.495 4.60458 147.025 4.77333 146.435 4.77333ZM156.15 17.3479C154.983 17.3479 153.943 17.1117 153.031 16.6392C152.118 16.1533 151.401 15.485 150.877 14.6346C150.368 13.7841 150.113 12.8189 150.113 11.739C150.113 10.6455 150.368 9.68033 150.877 8.84337C151.401 7.99291 152.118 7.33145 153.031 6.85897C153.943 6.37299 154.983 6.13001 156.15 6.13001C157.29 6.13001 158.283 6.37299 159.128 6.85897C159.974 7.33145 160.598 8.01316 161 8.90412L158.565 10.2203C158.283 9.70733 157.928 9.32935 157.498 9.08636C157.082 8.84337 156.626 8.72188 156.13 8.72188C155.593 8.72188 155.11 8.84337 154.681 9.08636C154.252 9.32935 153.91 9.67358 153.655 10.1191C153.413 10.5645 153.292 11.1045 153.292 11.739C153.292 12.3734 153.413 12.9134 153.655 13.3589C153.91 13.8044 154.252 14.1486 154.681 14.3916C155.11 14.6346 155.593 14.7561 156.13 14.7561C156.626 14.7561 157.082 14.6413 157.498 14.4118C157.928 14.1689 158.283 13.7841 158.565 13.2577L161 14.5941C160.598 15.4715 159.974 16.1533 159.128 16.6392C158.283 17.1117 157.29 17.3479 156.15 17.3479ZM49.9985 33.6956H56.7804V36.247H49.9985V33.6956ZM50.24 39.5273H57.9074V42.1597H47V27.9854H57.6457V30.6178H50.24V39.5273ZM66.8606 31.1038C67.7193 31.1038 68.484 31.2793 69.1548 31.6302C69.839 31.9677 70.3757 32.4942 70.7648 33.2097C71.1538 33.9116 71.3484 34.8161 71.3484 35.923V42.1597H68.209V36.409C68.209 35.5315 68.0144 34.8836 67.6254 34.4651C67.2497 34.0466 66.7131 33.8374 66.0154 33.8374C65.519 33.8374 65.0696 33.9454 64.6671 34.1614C64.278 34.3638 63.9695 34.6811 63.7414 35.1131C63.5267 35.545 63.4194 36.0985 63.4194 36.7735V42.1597H60.28V31.2658H63.2785V34.2829L62.715 33.3716C63.1041 32.6427 63.6609 32.0825 64.3854 31.691C65.1098 31.2995 65.9349 31.1038 66.8606 31.1038ZM79.3641 46.25C78.3444 46.25 77.3583 46.1218 76.4058 45.8653C75.4667 45.6223 74.6818 45.251 74.0513 44.7516L75.299 42.4837C75.7551 42.8617 76.332 43.1587 77.0296 43.3746C77.7407 43.6041 78.4383 43.7189 79.1226 43.7189C80.2361 43.7189 81.0411 43.4691 81.5375 42.9697C82.0473 42.4702 82.3022 41.7277 82.3022 40.7423V39.1021L82.5034 36.3685L82.4632 33.6146V31.2658H85.4416V40.3373C85.4416 42.3622 84.9184 43.8539 83.8719 44.8123C82.8254 45.7708 81.3228 46.25 79.3641 46.25ZM78.8811 41.6332C77.8749 41.6332 76.9626 41.4172 76.1442 40.9853C75.3392 40.5398 74.6885 39.9256 74.1921 39.1426C73.7091 38.3461 73.4676 37.4214 73.4676 36.3685C73.4676 35.302 73.7091 34.3773 74.1921 33.5944C74.6885 32.7979 75.3392 32.1837 76.1442 31.7517C76.9626 31.3197 77.8749 31.1038 78.8811 31.1038C79.7934 31.1038 80.5984 31.2927 81.296 31.6707C81.9936 32.0352 82.537 32.6089 82.9261 33.3919C83.3151 34.1614 83.5097 35.1536 83.5097 36.3685C83.5097 37.5699 83.3151 38.5621 82.9261 39.3451C82.537 40.1146 81.9936 40.6883 81.296 41.0663C80.5984 41.4442 79.7934 41.6332 78.8811 41.6332ZM79.5049 39.0414C80.055 39.0414 80.5447 38.9334 80.974 38.7174C81.4033 38.4879 81.7387 38.1707 81.9802 37.7657C82.2217 37.3607 82.3425 36.895 82.3425 36.3685C82.3425 35.8285 82.2217 35.3628 81.9802 34.9713C81.7387 34.5663 81.4033 34.2559 80.974 34.0399C80.5447 33.8104 80.055 33.6956 79.5049 33.6956C78.9549 33.6956 78.4652 33.8104 78.0359 34.0399C77.6065 34.2559 77.2644 34.5663 77.0095 34.9713C76.768 35.3628 76.6473 35.8285 76.6473 36.3685C76.6473 36.895 76.768 37.3607 77.0095 37.7657C77.2644 38.1707 77.6065 38.4879 78.0359 38.7174C78.4652 38.9334 78.9549 39.0414 79.5049 39.0414ZM88.3636 42.1597V31.2658H91.503V42.1597H88.3636ZM89.9333 29.7471C89.3564 29.7471 88.8868 29.5783 88.5246 29.2409C88.1623 28.9034 87.9812 28.4849 87.9812 27.9854C87.9812 27.4859 88.1623 27.0675 88.5246 26.73C88.8868 26.3925 89.3564 26.2238 89.9333 26.2238C90.5102 26.2238 90.9797 26.3857 91.342 26.7097C91.7042 27.0202 91.8853 27.4252 91.8853 27.9247C91.8853 28.4511 91.7042 28.8899 91.342 29.2409C90.9931 29.5783 90.5236 29.7471 89.9333 29.7471ZM100.997 31.1038C101.856 31.1038 102.621 31.2793 103.291 31.6302C103.976 31.9677 104.512 32.4942 104.901 33.2097C105.29 33.9116 105.485 34.8161 105.485 35.923V42.1597H102.346V36.409C102.346 35.5315 102.151 34.8836 101.762 34.4651C101.386 34.0466 100.85 33.8374 100.152 33.8374C99.6556 33.8374 99.2061 33.9454 98.8036 34.1614C98.4146 34.3638 98.106 34.6811 97.8779 35.1131C97.6633 35.545 97.5559 36.0985 97.5559 36.7735V42.1597H94.4166V31.2658H97.4151V34.2829L96.8516 33.3716C97.2407 32.6427 97.7974 32.0825 98.5219 31.691C99.2464 31.2995 100.071 31.1038 100.997 31.1038ZM113.782 42.3217C112.548 42.3217 111.461 42.0787 110.522 41.5927C109.597 41.1068 108.879 40.4453 108.369 39.6083C107.859 38.7579 107.604 37.7927 107.604 36.7127C107.604 35.6193 107.852 34.6541 108.349 33.8171C108.859 32.9667 109.55 32.3052 110.422 31.8327C111.294 31.3467 112.28 31.1038 113.38 31.1038C114.44 31.1038 115.392 31.3332 116.238 31.7922C117.096 32.2377 117.774 32.8857 118.27 33.7361C118.767 34.5731 119.015 35.5788 119.015 36.7532C119.015 36.8747 119.008 37.0165 118.995 37.1785C118.981 37.3269 118.968 37.4687 118.954 37.6037H110.16V35.761H117.304L116.097 36.3078C116.097 35.7408 115.983 35.2481 115.755 34.8296C115.527 34.4111 115.211 34.0871 114.809 33.8576C114.406 33.6146 113.937 33.4931 113.4 33.4931C112.863 33.4931 112.387 33.6146 111.971 33.8576C111.569 34.0871 111.253 34.4178 111.025 34.8498C110.797 35.2683 110.683 35.7678 110.683 36.3482V36.8342C110.683 37.4282 110.811 37.9547 111.066 38.4136C111.334 38.8591 111.703 39.2034 112.172 39.4463C112.655 39.6758 113.219 39.7906 113.863 39.7906C114.44 39.7906 114.943 39.7028 115.372 39.5273C115.815 39.3518 116.217 39.0886 116.58 38.7376L118.25 40.56C117.754 41.127 117.13 41.5657 116.378 41.8762C115.627 42.1732 114.762 42.3217 113.782 42.3217ZM126.478 42.3217C125.244 42.3217 124.157 42.0787 123.218 41.5927C122.292 41.1068 121.575 40.4453 121.065 39.6083C120.555 38.7579 120.3 37.7927 120.3 36.7127C120.3 35.6193 120.548 34.6541 121.045 33.8171C121.554 32.9667 122.245 32.3052 123.117 31.8327C123.989 31.3467 124.976 31.1038 126.076 31.1038C127.136 31.1038 128.088 31.3332 128.933 31.7922C129.792 32.2377 130.469 32.8857 130.966 33.7361C131.462 34.5731 131.71 35.5788 131.71 36.7532C131.71 36.8747 131.704 37.0165 131.69 37.1785C131.677 37.3269 131.664 37.4687 131.65 37.6037H122.856V35.761H130L128.792 36.3078C128.792 35.7408 128.678 35.2481 128.45 34.8296C128.222 34.4111 127.907 34.0871 127.504 33.8576C127.102 33.6146 126.632 33.4931 126.096 33.4931C125.559 33.4931 125.083 33.6146 124.667 33.8576C124.264 34.0871 123.949 34.4178 123.721 34.8498C123.493 35.2683 123.379 35.7678 123.379 36.3482V36.8342C123.379 37.4282 123.506 37.9547 123.761 38.4136C124.03 38.8591 124.399 39.2034 124.868 39.4463C125.351 39.6758 125.915 39.7906 126.559 39.7906C127.136 39.7906 127.639 39.7028 128.068 39.5273C128.511 39.3518 128.913 39.0886 129.275 38.7376L130.946 40.56C130.449 41.127 129.825 41.5657 129.074 41.8762C128.323 42.1732 127.458 42.3217 126.478 42.3217ZM133.801 42.1597V31.2658H136.799V34.3436L136.377 33.4526C136.699 32.6832 137.215 32.1027 137.926 31.7112C138.637 31.3062 139.503 31.1038 140.522 31.1038V34.0196C140.388 34.0061 140.267 33.9994 140.16 33.9994C140.053 33.9859 139.939 33.9791 139.818 33.9791C138.959 33.9791 138.262 34.2289 137.725 34.7283C137.202 35.2143 136.94 35.977 136.94 37.0165V42.1597H133.801Z" stroke="#8D314D" stroke-width="2" mask="url(#path-1-outside-1_809_46)"/>
</g>
<g filter="url(#filter1_ddd_809_46)">
<path d="M24.5014 39.8675L29.0739 3.04932H33.6973L29.1247 39.8675H24.5014ZM5.49988 31.2415V26.6241H37.6094V31.2415H5.49988ZM11.2918 39.8675L15.9151 3.04932H20.5385L15.9151 39.8675H11.2918ZM7.22729 17.5922V12.9748H39.2351L39.286 17.5922H7.22729Z" fill="#E8D3C0"/>
<path d="M24.0052 39.8059L23.9354 40.3675H24.5014H29.1247H29.5665L29.6209 39.9291L30.6378 31.7415H37.6094H38.1094V31.2415V26.6241V26.1241H37.6094H31.3354L32.3329 18.0922H39.286H39.7915L39.7859 17.5867L39.7351 12.9692L39.7297 12.4748H39.2351H33.0305L34.1935 3.11094L34.2632 2.54932H33.6973H29.0739H28.6322L28.5777 2.98769L27.3995 12.4748H19.8588L21.0346 3.11161L21.1052 2.54932H20.5385H15.9151H15.474L15.419 2.98702L14.2276 12.4748H7.22729H6.72729V12.9748V17.5922V18.0922H7.22729H13.5222L12.5136 26.1241H5.49988H4.99988V26.6241V31.2415V31.7415H5.49988H11.8083L10.7957 39.8052L10.7251 40.3675H11.2918H15.9151H16.3563L16.4112 39.9298L17.4395 31.7415H25.0067L24.0052 39.8059ZM18.1449 26.1241L19.1534 18.0922H26.7019L25.7044 26.1241H18.1449Z" stroke="#8D314D"/>
</g>
<defs>
<filter id="filter0_ddd_809_46" x="42" y="0.25" width="124.297" height="55" filterUnits="userSpaceOnUse" color-interpolation-filters="sRGB">
<feFlood flood-opacity="0" result="BackgroundImageFix"/>
<feColorMatrix in="SourceAlpha" type="matrix" values="0 0 0 0 0 0 0 0 0 0 0 0 0 0 0 0 0 0 127 0" result="hardAlpha"/>
<feOffset dy="4"/>
<feGaussianBlur stdDeviation="2"/>
<feComposite in2="hardAlpha" operator="out"/>
<feColorMatrix type="matrix" values="0 0 0 0 0 0 0 0 0 0 0 0 0 0 0 0 0 0 0.25 0"/>
<feBlend mode="normal" in2="BackgroundImageFix" result="effect1_dropShadow_809_46"/>
<feColorMatrix in="SourceAlpha" type="matrix" values="0 0 0 0 0 0 0 0 0 0 0 0 0 0 0 0 0 0 127 0" result="hardAlpha"/>
<feOffset dx="2" dy="2"/>
<feComposite in2="hardAlpha" operator="out"/>
<feColorMatrix type="matrix" values="0 0 0 0 0.964706 0 0 0 0 0.607843 0 0 0 0 0.501961 0 0 0 1 0"/>
<feBlend mode="normal" in2="effect1_dropShadow_809_46" result="effect2_dropShadow_809_46"/>
<feColorMatrix in="SourceAlpha" type="matrix" values="0 0 0 0 0 0 0 0 0 0 0 0 0 0 0 0 0 0 127 0" result="hardAlpha"/>
<feOffset dx="1" dy="1"/>
<feComposite in2="hardAlpha" operator="out"/>
<feColorMatrix type="matrix" values="0 0 0 0 0.866667 0 0 0 0 0.439216 0 0 0 0 0.309804 0 0 0 1 0"/>
<feBlend mode="normal" in2="effect2_dropShadow_809_46" result="effect3_dropShadow_809_46"/>
<feBlend mode="normal" in="SourceGraphic" in2="effect3_dropShadow_809_46" result="shape"/>
</filter>
<filter id="filter1_ddd_809_46" x="0.499878" y="2.04932" width="43.7971" height="46.8184" filterUnits="userSpaceOnUse" color-interpolation-filters="sRGB">
<feFlood flood-opacity="0" result="BackgroundImageFix"/>
<feColorMatrix in="SourceAlpha" type="matrix" values="0 0 0 0 0 0 0 0 0 0 0 0 0 0 0 0 0 0 127 0" result="hardAlpha"/>
<feOffset dy="4"/>
<feGaussianBlur stdDeviation="2"/>
<feComposite in2="hardAlpha" operator="out"/>
<feColorMatrix type="matrix" values="0 0 0 0 0 0 0 0 0 0 0 0 0 0 0 0 0 0 0.25 0"/>
<feBlend mode="normal" in2="BackgroundImageFix" result="effect1_dropShadow_809_46"/>
<feColorMatrix in="SourceAlpha" type="matrix" values="0 0 0 0 0 0 0 0 0 0 0 0 0 0 0 0 0 0 127 0" result="hardAlpha"/>
<feOffset dx="2" dy="2"/>
<feComposite in2="hardAlpha" operator="out"/>
<feColorMatrix type="matrix" values="0 0 0 0 0.964706 0 0 0 0 0.607843 0 0 0 0 0.501961 0 0 0 1 0"/>
<feBlend mode="normal" in2="effect1_dropShadow_809_46" result="effect2_dropShadow_809_46"/>
<feColorMatrix in="SourceAlpha" type="matrix" values="0 0 0 0 0 0 0 0 0 0 0 0 0 0 0 0 0 0 127 0" result="hardAlpha"/>
<feOffset dx="1" dy="1"/>
<feComposite in2="hardAlpha" operator="out"/>
<feColorMatrix type="matrix" values="0 0 0 0 0.866667 0 0 0 0 0.439216 0 0 0 0 0.309804 0 0 0 1 0"/>
<feBlend mode="normal" in2="effect2_dropShadow_809_46" result="effect3_dropShadow_809_46"/>
<feBlend mode="normal" in="SourceGraphic" in2="effect3_dropShadow_809_46" result="shape"/>
</filter>
</defs>
</svg>
