<svg width="1280" height="832" viewBox="0 0 1280 832" fill="none" xmlns="http://www.w3.org/2000/svg">
<path d="M1284.04 33.9337C1282.92 33.9337 1281.8 33.6274 1280.78 33.0143L1247.44 12.4277L1214.1 33.0143C1212.11 34.2405 1209.57 34.2405 1207.58 33.0143L1174.25 12.4277L1140.94 33.0143C1138.95 34.2405 1136.41 34.2405 1134.42 33.0143L1101.11 12.4277L1067.8 33.0143C1065.81 34.2405 1063.27 34.2405 1061.28 33.0143L1024.71 10.3995C1021.94 8.7016 1021.17 5.18838 1022.97 2.57084C1024.76 -0.0467024 1028.46 -0.778188 1031.22 0.919677L1064.54 21.5062L1097.85 0.919677C1099.84 -0.306559 1102.38 -0.306559 1104.37 0.919677L1137.68 21.5062L1170.99 0.919677C1172.98 -0.306559 1175.52 -0.306559 1177.51 0.919677L1210.84 21.5062L1244.18 0.919677C1246.17 -0.306559 1248.71 -0.306559 1250.7 0.919677L1287.29 23.5345C1290.06 25.2324 1290.83 28.7462 1289.03 31.3637C1287.89 33.0144 1285.98 33.9337 1284.04 33.9337Z" fill="#8D314D" fill-opacity="0.45"/>
<path d="M1284.04 63.9767C1282.92 63.9767 1281.8 63.6704 1280.78 63.0573L1247.44 42.4707L1214.1 63.0573C1212.11 64.2835 1209.57 64.2835 1207.58 63.0573L1174.25 42.4707L1140.94 63.0573C1138.95 64.2835 1136.41 64.2835 1134.42 63.0573L1101.11 42.4707L1067.8 63.0573C1065.81 64.2835 1063.27 64.2835 1061.28 63.0573L1024.71 40.4424C1021.94 38.7446 1021.17 35.2313 1022.97 32.6138C1024.76 29.9963 1028.46 29.2648 1031.22 30.9626L1064.54 51.5492L1097.85 30.9626C1099.84 29.7364 1102.38 29.7364 1104.37 30.9626L1137.68 51.5492L1170.99 30.9626C1172.98 29.7364 1175.52 29.7364 1177.51 30.9626L1210.84 51.5492L1244.18 30.9626C1246.17 29.7364 1248.71 29.7364 1250.7 30.9626L1287.29 53.5775C1290.06 55.2753 1290.83 58.7891 1289.03 61.4067C1287.89 63.0574 1285.98 63.9767 1284.04 63.9767Z" fill="#8D314D" fill-opacity="0.45"/>
<path d="M1284.04 93.9996C1282.92 93.9996 1281.8 93.6933 1280.78 93.0802L1247.44 72.4936L1214.1 93.0802C1212.11 94.3064 1209.57 94.3064 1207.58 93.0802L1174.25 72.4936L1140.94 93.0802C1138.95 94.3064 1136.41 94.3064 1134.42 93.0802L1101.11 72.4936L1067.8 93.0802C1065.81 94.3064 1063.27 94.3064 1061.28 93.0802L1024.71 70.4654C1021.94 68.7675 1021.17 65.2543 1022.97 62.6368C1024.76 60.0192 1028.46 59.2877 1031.22 60.9856L1064.54 81.5727L1097.85 60.9856C1099.84 59.7594 1102.38 59.7594 1104.37 60.9856L1137.68 81.5727L1170.99 60.9856C1172.98 59.7594 1175.52 59.7594 1177.51 60.9856L1210.84 81.5727L1244.18 60.9856C1246.17 59.7594 1248.71 59.7594 1250.7 60.9856L1287.29 83.6004C1290.06 85.2983 1290.83 88.8121 1289.03 91.4296C1287.89 93.0803 1285.98 93.9996 1284.04 93.9996Z" fill="#8D314D" fill-opacity="0.45"/>
<path d="M1280 580H380V586H1280V580Z" fill="#53405F" fill-opacity="0.75"/>
<path d="M1280 580H380V586H1280V580Z" fill="#53405F" fill-opacity="0.75"/>
<path d="M1280 605H545V611H1280V605Z" fill="#DD704F" fill-opacity="0.75"/>
</svg>
