<svg width="485" height="433" viewBox="0 0 485 433" fill="none" xmlns="http://www.w3.org/2000/svg">
<g clip-path="url(#clip0_1308_718)">
<path d="M381.314 392.235C376.761 398.544 371.357 402.851 365.345 406.491C348.526 416.743 330.796 418.562 312.277 412.072C299.526 407.582 288.718 399.818 278.335 391.386C271.717 385.987 264.613 381.619 255.566 382.407C253.866 382.529 252.105 383.014 250.101 384.227C252.408 385.744 254.655 387.321 257.084 388.716C272.081 397.33 285.318 408.189 297.462 420.382C299.83 422.748 300.073 424.447 297.947 426.995C292.422 433.607 291.451 433.728 285.743 427.298C274.267 414.316 261.941 402.244 247.733 392.235C239.293 386.29 236.379 386.29 227.756 392.053C212.212 402.487 198.733 415.044 187.561 430.028C184.889 433.607 183.614 433.546 180.335 430.331C174.688 424.75 174.688 424.265 180.335 418.562C192.843 405.823 206.808 395.086 222.292 386.229C223.445 385.562 224.538 384.834 226.603 383.56C221.017 381.619 215.977 381.255 211.848 383.439C204.015 387.624 196.183 392.053 189.321 397.573C175.903 408.31 161.634 416.621 144.025 417.167C124.838 417.835 108.626 410.737 95.3286 396.966C94.7821 396.421 94.5392 395.632 93.8106 394.358C95.6322 394.843 96.8465 394.965 97.8788 395.45C117.734 404.549 137.103 402.608 156.169 392.902C169.163 386.29 182.399 380.284 196.79 377.069C208.569 374.461 220.288 374.339 231.825 378.1C235.953 379.435 239.597 379.435 243.786 378.04C258.844 373.065 273.964 373.793 288.718 379.071C299.283 382.832 309.666 387.321 319.867 392.113C339.843 401.638 359.638 402.972 379.614 392.235C379.797 392.113 380.1 392.235 381.314 392.235Z" fill="#DD704F" fill-opacity="0.5"/>
<path d="M403.841 262.538C401.17 279.038 398.923 294.325 396.191 309.612C393.884 322.533 387.144 333.331 378.765 343.219C377.914 344.25 377.004 345.282 376.457 346.859C377.186 346.495 378.097 346.313 378.643 345.706C390.301 333.21 405.299 325.566 419.993 317.559C434.019 309.915 446.83 300.876 455.331 286.863C455.574 286.439 456.06 286.196 456.424 285.832C456.788 285.953 457.092 286.135 457.456 286.257C456.485 289.533 455.878 292.99 454.42 296.084C443.673 319.5 428.008 338.427 403.841 348.982C398.195 351.469 392.183 353.168 386.233 354.684C377.55 356.808 368.746 358.446 360.002 360.265C359.092 360.447 358.181 360.569 356.481 360.811C359.517 356.322 362.37 352.561 364.739 348.497C371.843 336.243 375.729 322.776 379.432 309.248C383.683 293.658 390.969 279.645 400.38 266.602C401.17 265.449 402.202 264.418 403.841 262.538Z" fill="#DD704F" fill-opacity="0.5"/>
<path d="M71.1626 266.662C74.2592 271.212 77.5381 275.701 80.5133 280.311C88.7103 293.05 93.4464 307.185 97.5753 321.623C101.461 335.211 106.865 348.011 115.973 358.991C116.52 359.598 116.884 360.326 117.309 361.053C117.43 361.235 117.309 361.539 117.309 362.145C106.805 360.204 96.1788 358.688 85.7958 356.322C50.5182 348.375 29.2666 325.262 17.0621 292.383C16.6978 291.352 16.6978 290.199 16.3942 288.137C17.6693 289.168 18.155 289.411 18.3979 289.835C26.9592 304.819 40.8032 313.615 55.6186 321.259C68.3088 327.81 80.8776 334.604 91.382 344.553C92.0499 345.22 92.8392 345.827 93.6286 346.373C94.7822 347.101 95.9359 347.768 97.6967 347.95C96.1788 346.252 94.6001 344.553 93.0821 342.855C83.61 332.117 78.4488 319.439 76.2023 305.486C74.1378 292.808 72.377 280.069 70.434 267.329C70.6768 267.087 70.9197 266.844 71.1626 266.662Z" fill="#DD704F" fill-opacity="0.5"/>
<path d="M72.2554 321.502C66.9729 317.862 62.2975 314.647 57.6222 311.432C45.1141 302.696 32.7275 293.839 22.2838 282.617C10.3829 269.878 3.03593 254.894 0.364298 237.787C-0.425047 232.509 0.24286 226.928 0.78933 221.347C1.88227 223.895 3.03593 226.504 4.12887 229.052C9.35069 240.82 17.7906 250.223 26.4127 259.504C35.2169 269.028 43.2925 279.038 49.4859 290.442C50.2752 291.838 51.4289 292.99 52.8254 294.689C52.9468 293.718 53.129 293.294 53.0076 292.99C44.9319 276.672 45.1748 259.565 48.2715 242.215C49.8502 233.055 51.4896 223.956 53.2504 214.068C56.59 222.136 58.4115 229.962 59.2616 237.969C60.9617 254.348 61.9939 270.848 64.3013 287.167C65.6978 296.994 68.9159 306.579 71.4054 316.285C71.6483 317.195 72.0733 318.105 72.3162 319.015C72.3769 319.5 72.2554 320.046 72.2554 321.502Z" fill="#DD704F" fill-opacity="0.5"/>
<path d="M296.794 374.157C299.162 373.307 301.53 372.276 303.959 371.609C317.56 367.848 327.153 358.566 336.565 348.739C346.219 338.669 356.238 328.902 366.135 319.075C367.167 318.043 368.442 317.255 370.324 316.77C367.896 322.472 365.831 328.356 363.038 333.937C359.213 341.641 355.327 349.345 350.591 356.504C346.158 363.177 339.419 367.302 331.707 369.789C330.25 370.274 328.793 371.002 327.396 371.548C327.518 371.912 327.639 372.276 327.7 372.64C331.647 371.851 335.533 370.881 339.54 370.395C352.352 368.818 365.224 367.302 378.036 365.967C393.398 364.39 407.606 360.143 419.264 349.224C419.567 349.467 419.871 349.709 420.175 349.891C418.839 352.197 417.807 354.684 416.167 356.746C396.616 381.315 371.782 392.537 340.329 385.864C325.757 382.771 311.366 378.646 296.855 375.006C296.855 374.824 296.794 374.521 296.794 374.157Z" fill="#DD704F" fill-opacity="0.5"/>
<path d="M177.542 376.584C174.688 377.312 171.834 378.04 169.041 378.707C155.015 382.043 141.111 386.229 126.902 388.595C105.347 392.113 85.9778 385.986 69.7659 371.367C64.4834 366.635 60.233 360.811 55.6184 355.412C54.7683 354.442 54.3433 353.168 54.404 351.409C56.2256 352.865 58.0472 354.381 59.9294 355.776C71.2231 364.33 84.5206 367.242 98.1823 368.334C114.637 369.607 131.153 370.335 147.243 374.46C147.607 374.582 148.033 374.4 148.7 373.672C147.304 373.126 145.968 372.398 144.572 371.973C131.942 368.455 123.381 360.023 117.491 348.8C112.512 339.337 108.322 329.449 103.768 319.803C103.708 319.621 103.89 319.318 104.194 317.983C108.626 321.805 112.937 325.02 116.762 328.781C126.052 337.941 135.16 347.223 144.147 356.626C152.465 365.361 163.03 370.153 174.02 374.339C175.235 374.824 176.449 375.249 177.663 375.734C177.542 375.977 177.542 376.28 177.542 376.584Z" fill="#DD704F" fill-opacity="0.5"/>
<path d="M421.207 210.792C423.332 226.686 425.761 242.519 427.4 258.412C428.432 268.422 425.943 278.067 422.117 287.288C421.632 288.501 421.207 289.775 421.571 291.474C424.85 286.378 427.825 280.979 431.468 276.187C438.39 267.148 445.434 258.23 452.902 249.677C460.492 241.002 466.928 231.781 471.057 220.983C471.178 220.68 471.543 220.437 472.757 220.195C472.757 224.502 473 228.809 472.696 233.055C471.421 250.041 463.528 264.115 453.206 277.157C441.608 291.716 426.003 301.301 411.249 311.978C408.395 314.04 405.541 316.103 402.262 318.469C402.262 317.316 402.141 316.891 402.262 316.527C410.338 296.205 410.52 274.67 412.585 253.438C413.86 240.638 416.471 228.02 418.535 215.281C418.839 213.643 419.749 212.066 420.357 210.489C420.66 210.61 420.964 210.731 421.207 210.792Z" fill="#DD704F" fill-opacity="0.5"/>
<path d="M54.647 152.495C54.4041 157.591 54.3434 162.019 53.9791 166.387C52.2182 187.316 46.9357 207.456 41.1674 227.535C38.3743 237.241 37.0385 247.129 38.1922 257.26C38.2529 257.867 38.1315 258.534 37.2207 259.504C35.7027 257.321 34.2454 255.137 32.7275 253.013C26.2913 244.278 19.3693 235.846 13.5403 226.746C4.67535 212.915 0.789347 197.325 0.12144 181.067C-0.303592 169.966 -0.850064 158.804 2.79307 148.006C3.27882 146.49 3.76457 145.034 4.73607 143.517C4.43248 160.927 11.9009 175.972 17.8514 191.623C21.9802 202.603 24.3483 214.25 27.5057 225.594C28.0521 227.656 28.4772 229.78 29.6308 231.782C29.5094 229.173 29.4487 226.504 29.2665 223.895C28.1128 206.728 34.2454 191.623 42.1389 176.882C46.2678 169.238 50.1538 161.231 54.647 152.495Z" fill="#DD704F" fill-opacity="0.5"/>
<path d="M469.053 139.453C469.964 142.486 471.421 145.519 471.725 148.613C473.546 169.481 474.943 190.531 466.26 210.307C461.949 220.013 455.634 228.809 449.866 237.787C445.616 244.46 440.819 250.769 435.233 257.017C435.172 255.925 434.929 254.833 435.051 253.741C436.69 241.427 434.322 229.598 430.679 218.011C424.668 198.781 420.296 179.308 418.414 159.229C418.171 156.984 418.414 154.679 419.324 152.131C420.114 153.769 420.782 155.407 421.632 156.984C427.036 167.176 432.379 177.367 437.844 187.498C444.158 199.206 445.737 211.641 444.28 224.623C444.158 225.594 444.158 226.504 444.644 227.717C445.069 226.686 445.676 225.715 445.798 224.684C447.923 207.88 453.813 192.229 460.249 176.7C464.924 165.416 467.717 153.708 467.717 141.455C467.717 140.848 467.899 140.241 468.021 139.635C468.325 139.574 468.689 139.513 469.053 139.453Z" fill="#DD704F" fill-opacity="0.5"/>
<path d="M444.341 71.5103C445.494 73.1482 446.709 74.6647 447.741 76.3633C464.56 103.419 466.017 131.748 455.088 161.291C452.78 167.418 451.202 173.848 449.38 180.157C448.591 182.766 447.984 185.374 446.891 188.044C441.73 168.692 428.554 154.133 418.353 137.815C411.674 127.138 406.816 115.673 404.145 103.358C403.963 102.57 403.902 101.781 403.72 100.507C404.57 100.992 405.116 101.114 405.42 101.417C413.313 109.788 421.025 118.342 429.039 126.592C437.054 134.782 442.458 144.184 444.28 155.589C444.462 156.62 444.887 157.651 445.737 158.683C445.737 156.681 445.98 154.618 445.676 152.677C443.551 136.601 445.312 120.586 446.526 104.571C447.377 93.5309 447.194 82.6722 443.308 72.1169C443.733 71.9349 444.037 71.7529 444.341 71.5103Z" fill="#DD704F" fill-opacity="0.5"/>
<path d="M26.5948 190.409C24.2875 183.494 22.0409 177.185 20.1586 170.815C16.9405 159.653 12.8724 148.552 11.0508 137.086C7.58983 115.066 13.6617 94.9258 25.8055 76.4237C26.1698 75.8777 26.6556 75.3317 27.1413 74.8464C27.2627 74.7251 27.6271 74.7858 28.2342 74.7251C27.5056 77.3336 26.777 79.7601 26.1698 82.2473C23.8018 91.8927 24.1661 101.599 25.5626 111.305C27.8092 126.834 28.7807 142.425 27.1413 158.136C26.9592 159.835 27.1413 161.534 27.1413 164.445C28.8414 158.44 29.8737 153.465 31.5738 148.794C35.3384 138.664 42.1996 130.596 49.4859 122.831C54.8291 117.128 60.0509 111.305 65.3335 105.542C65.7585 105.057 66.305 104.753 67.7015 104.693C67.0943 107.665 66.6693 110.698 65.88 113.671C62.3583 127.441 55.497 139.634 47.6643 151.282C39.7708 162.99 32.181 174.697 27.9307 188.225C27.7485 188.832 27.2627 189.317 26.5948 190.409Z" fill="#DD704F" fill-opacity="0.5"/>
<path d="M382.954 54.5856C388.783 60.3485 394.005 66.3542 400.137 71.2678C410.034 79.0933 420.296 86.4335 428.25 96.7462C426.914 90.9226 425.518 85.099 424.182 79.2753C422.725 72.9664 421.267 66.7181 419.871 60.4092C417.806 51.3098 414.406 42.8776 407.545 36.0834C407.788 35.7801 408.091 35.4161 408.334 35.1128C410.459 36.0834 412.767 36.7507 414.649 38.0853C430.8 49.3686 438.694 65.2622 439.24 84.6743C439.544 94.0164 438.694 103.358 438.451 112.701C438.329 117.068 438.451 121.436 438.451 126.774C435.536 123.013 433.411 119.555 430.618 116.826C422.482 109.061 414.285 101.417 405.784 94.0164C394.855 84.553 387.143 73.209 383.865 59.0746C383.379 57.558 383.197 56.0415 382.954 54.5856Z" fill="#DD704F" fill-opacity="0.5"/>
<path d="M87.6174 60.6513C87.5567 64.837 85.3101 70.6606 82.2741 76.2416C76.8094 86.3723 69.0374 94.5618 60.5975 102.387C52.0361 110.273 44.3248 119.009 36.2492 127.38C35.7028 127.926 35.2777 128.533 34.3669 128.958C34.7313 111.001 30.6024 93.3485 33.9419 75.5137C36.9171 59.4987 45.7821 47.7907 59.5046 39.4193C60.4761 38.8126 61.6904 38.57 63.3906 38.752C61.6904 41.0572 59.9296 43.3017 58.3509 45.7282C53.3719 53.3717 51.3682 62.0465 49.5467 70.8426C47.3608 81.2766 45.2356 91.7106 42.9283 102.994C45.9642 98.7475 48.1501 94.5618 51.3682 91.468C57.8044 85.341 64.7871 79.7601 71.5876 73.9971C77.1737 69.2654 82.8813 64.5337 87.6174 60.6513Z" fill="#DD704F" fill-opacity="0.5"/>
<path d="M361.095 11.7573C386.111 12.9706 416.289 48.155 415.621 75.0893C391.697 58.771 379.25 32.9893 361.095 11.7573Z" fill="#DD704F" fill-opacity="0.5"/>
<path d="M109.294 13.5771C107.897 15.579 107.23 16.5496 106.562 17.5202C99.6397 27.2263 92.657 36.8717 85.9172 46.6384C77.8416 58.3463 67.823 68.113 56.7722 77.1518C55.0113 71.3888 60.8404 51.3701 68.6124 40.7541C78.5703 27.0443 91.9284 18.4908 109.294 13.5771Z" fill="#DD704F" fill-opacity="0.5"/>
</g>
<g clip-path="url(#clip1_1308_718)">
<path d="M246.95 336.612C236.324 335.096 225.455 333.7 214.587 331.941C209.608 331.153 208.94 329.697 209.668 324.844C210.883 316.472 207.665 312.044 199.711 309.375C193.942 307.433 188.295 304.704 182.891 301.852C179.552 300.093 177.184 299.79 174.694 302.944C172.812 305.31 170.687 307.615 168.258 309.253C166.922 310.163 164.069 310.406 162.854 309.617C145.914 298.213 131.888 283.836 120.655 266.789C118.954 264.181 119.076 261.694 121.748 259.51C123.569 258.054 125.269 256.416 126.909 254.778C130.43 251.26 130.37 249.076 128.305 244.465C125.208 237.489 122.415 230.331 119.865 223.112C118.712 219.836 117.254 217.895 113.49 218.138C110.757 218.32 107.964 217.713 105.232 217.895C101.346 218.198 99.8887 216.257 99.3423 212.739C96.6706 194.661 96.8528 176.584 100.192 158.567C100.739 155.594 102.439 154.32 105.353 154.381C107.964 154.442 110.575 154.442 113.186 154.624C117.436 154.927 119.805 152.804 121.322 149.043C124.48 141.035 127.88 133.088 130.977 125.081C131.463 123.868 131.098 121.805 130.309 120.713C128.244 117.983 125.694 115.618 123.508 113.009C121.565 110.765 121.383 108.459 123.083 105.851C133.891 89.4112 147.917 76.2474 164.129 65.2674C166.437 63.6902 168.501 63.9328 170.383 65.9347C172.144 67.8153 173.844 69.8778 175.605 71.7583C178.095 74.4275 180.766 75.2161 184.409 73.3962C191.817 69.8171 199.346 66.5413 206.936 63.3869C209.79 62.2343 211.126 60.5357 210.944 57.5632C210.883 56.4713 210.944 55.3794 210.944 54.2875C210.944 44.2174 210.944 44.2781 220.659 42.5795C240.271 39.0611 259.762 39.4251 279.313 43.0648C283.685 43.8535 286.114 45.552 285.446 50.2837C285.263 51.497 285.506 52.7709 285.446 53.9841C285.263 61.4457 285.871 61.931 292.975 64.5395C299.654 67.0266 306.151 69.9991 312.587 73.0323C315.501 74.4275 317.748 74.6095 319.812 71.8797C320.42 71.1517 321.148 70.5451 321.877 69.8778C329.163 62.8409 330.074 62.6589 338.089 68.7252C351.872 79.1592 364.137 91.0491 373.852 105.426C376.038 108.581 375.613 110.643 372.881 113.191C363.894 121.502 364.137 121.441 369.48 132.36C372.213 138.002 374.399 144.008 376.463 149.953C377.495 152.865 379.013 154.199 382.171 154.078C385.025 153.956 387.939 154.442 390.854 154.26C394.436 154.078 396.075 155.594 396.743 159.052C400.083 177.069 400.629 195.086 397.35 213.163C396.743 216.621 394.861 218.198 391.339 217.774C377.738 216.318 377.556 220.079 375.188 229.421C373.67 235.305 370.695 240.886 368.084 246.467C366.687 249.5 366.748 251.866 369.298 254.171C371.666 256.295 373.731 258.66 376.099 260.784C378.042 262.482 378.103 264.241 376.767 266.183C365.412 283.108 351.629 297.667 334.749 309.314C331.835 311.316 329.588 310.891 327.159 308.343C318.841 299.487 318.902 299.729 307.972 305.128C302.933 307.615 297.65 309.557 292.307 311.316C288.482 312.59 286.964 314.531 287.085 318.777C287.328 332.244 287.874 331.274 275.913 332.972C266.562 334.61 256.968 335.46 246.95 336.612ZM223.391 296.029C219.93 295.968 216.469 295.665 213.069 296.029C205.054 296.878 198.921 295.665 195.217 286.99C192.06 279.71 184.834 275.585 178.641 270.732C158.725 254.96 145.974 234.456 140.935 209.645C134.984 180.163 140.267 152.501 157.511 127.629C173.662 104.213 196.128 89.7145 223.573 83.0416C233.592 80.6151 234.077 81.0397 235.656 70.7877C236.931 62.4163 237.538 54.1055 245.371 48.6458C246.039 48.1605 246.403 46.5226 246.1 45.734C245.796 45.0667 244.339 44.4601 243.428 44.5207C235.474 45.3094 227.581 46.28 219.687 47.1899C216.712 47.5539 215.376 49.3738 215.315 52.2249C215.255 55.3794 215.68 58.5945 215.072 61.6883C214.769 63.4475 213.251 65.7527 211.672 66.4807C202.2 70.7877 192.546 74.7308 183.013 78.8559C180.098 80.1298 177.791 79.7658 175.666 77.4C173.723 75.2768 171.476 73.3962 169.594 71.2124C167.772 69.0892 166.133 69.0285 163.947 70.6058C149.86 80.6151 137.474 92.4444 127.759 106.761C127.03 107.792 127.212 110.219 128.002 111.25C130.005 113.98 132.555 116.406 134.984 118.772C137.17 120.956 137.292 122.958 135.834 125.748C132.313 132.724 127.759 139.579 126.241 147.041C123.691 159.537 120.047 159.78 109.847 158.567C106.446 158.142 104.625 159.477 103.957 163.177C101.407 177.494 101.225 191.871 102.925 206.248C103.775 213.345 104.139 213.588 111.425 213.709C113.368 213.709 115.311 213.952 117.194 213.77C120.351 213.467 122.173 214.923 122.84 217.895C125.087 227.904 128.669 237.307 134.013 246.103C135.895 249.258 135.531 252.473 132.798 255.142C130.855 257.083 128.73 258.842 126.666 260.602C124.48 262.422 124.237 264.545 125.876 266.729C135.895 280.802 147.553 293.299 161.701 303.369C164.615 305.432 166.862 305.189 169.108 302.338C170.626 300.396 172.751 299.001 174.391 297.121C176.698 294.391 178.823 294.694 181.92 296.271C189.267 299.911 196.735 303.369 204.386 306.22C211.551 308.889 215.072 313.56 214.222 321.265C213.615 326.906 214.101 327.755 219.748 328.544C227.216 329.575 234.745 330.243 242.274 331.031C245.068 331.335 246.586 330.182 246.586 327.027C246.464 318.11 246.464 309.193 246.586 300.215C246.646 296.878 244.946 295.907 241.971 295.907C235.717 296.089 229.584 296.029 223.391 296.029ZM274.334 296.029C268.019 296.029 261.705 296.089 255.329 296.029C252.536 296.029 250.957 296.999 251.018 300.093C251.079 309.193 251.079 318.231 251.018 327.331C251.018 330.061 252.293 331.092 254.783 330.91C259.883 330.607 264.983 330.425 269.962 329.818C282.774 328.18 282.956 328.059 282.835 315.38C282.774 311.437 284.231 309.921 287.631 308.586C295.768 305.31 303.783 301.731 311.615 297.849C318.416 294.452 320.116 294.452 325.459 300.215C326.37 301.246 327.402 302.216 328.252 303.248C330.135 305.553 332.078 305.917 334.628 304.097C348.958 294.027 360.858 281.591 370.877 267.275C372.334 265.151 372.334 263.271 370.331 261.39C367.841 259.024 365.534 256.477 363.044 254.111C361.162 252.291 361.283 250.471 362.255 248.166C366.384 238.156 370.391 228.147 374.217 218.016C375.249 215.347 376.402 213.77 379.438 213.891C382.292 214.013 385.207 213.709 388.121 213.891C391.704 214.073 393.161 212.739 393.707 209.038C396.015 193.933 395.407 178.889 393.343 163.845C392.797 160.083 390.793 158.264 386.907 158.567C384.599 158.749 382.231 158.446 379.924 158.749C375.735 159.234 373.974 156.99 372.941 153.41C370.331 144.129 367.173 135.09 361.405 127.144C359.158 124.05 359.401 120.895 362.012 118.105C364.077 115.921 366.262 113.858 368.509 111.796C370.452 109.976 370.634 108.035 369.055 105.972C367.234 103.546 365.412 101.18 363.469 98.814C355.09 88.5619 345.497 79.5839 334.689 71.8797C331.592 69.6958 328.981 69.6958 326.249 72.365C324.184 74.3668 321.877 76.1867 319.934 78.2493C318.173 80.1905 316.594 79.8872 314.409 78.9772C304.997 74.8521 295.525 70.8484 286.053 66.9053C282.895 65.6314 281.013 63.6902 281.013 60.1717C281.013 57.4419 280.831 54.6514 280.952 51.9216C281.074 49.0705 279.859 47.4932 277.066 47.1899C270.63 46.4013 264.255 45.552 257.819 45.006C255.693 44.824 253.507 45.4913 251.322 45.7947C252.475 47.8572 253.507 49.9804 254.843 51.8609C256.543 54.1661 259.579 55.986 260.126 58.4125C261.462 64.2362 261.887 70.3024 262.251 76.3081C262.433 79.7052 263.708 81.4644 266.926 81.889C281.681 83.7089 294.918 89.6539 307.547 97.1154C319.266 104.031 329.406 112.827 337.542 123.807C351.143 142.188 357.458 163.117 358.49 185.744C359.948 219.412 346.286 246.467 321.27 268.306C312.526 275.949 302.872 282.744 297.711 293.784C297.104 294.998 294.553 295.907 292.914 295.968C286.721 296.211 280.527 296.029 274.334 296.029ZM275.184 262.058C275.913 263.392 276.156 264.12 276.581 264.545C283.078 271.036 290.971 275.1 300.018 276.495C301.718 276.738 303.904 275.949 305.361 274.918C310.462 271.218 315.501 267.396 320.298 263.332C336.935 249.197 347.379 231.241 351.69 210.009C357.822 179.981 352.601 152.137 333.96 127.325C317.748 105.79 296.375 92.3837 270.023 86.8634C263.344 85.4681 262.737 86.0141 262.98 92.687C263.89 117.377 264.801 142.067 265.773 166.817C265.773 167.302 266.076 167.788 266.38 168.698C275.913 161.903 285.567 156.322 297.529 156.929C295.707 163.723 294.068 169.789 292.185 176.887C298.257 173.854 302.872 171.185 307.79 169.304C312.83 167.424 318.173 166.332 323.395 164.936C323.638 165.361 323.881 165.786 324.124 166.21C323.577 167.363 323.152 168.637 322.484 169.729C315.866 179.981 313.558 191.082 314.894 203.154C315.562 209.16 315.987 215.165 316.048 221.232C316.109 227.601 315.137 233.789 311.798 239.43C306.151 249.015 297.104 253.929 287.206 257.751C283.381 259.267 279.495 260.541 275.184 262.058ZM230.92 168.88C231.163 162.692 231.345 157.536 231.588 152.44C232.438 132.118 233.349 111.856 234.077 91.5344C234.32 85.7108 233.895 85.5288 228.309 86.6814C214.526 89.4112 201.714 94.3249 189.996 102.15C167.59 117.073 151.743 137.274 146.035 163.602C136.927 205.763 148.95 241.432 183.074 268.852C195.157 278.497 197.403 278.801 211.065 271.824C215.194 269.701 219.201 267.032 221.934 262.361C215.922 260.116 210.458 258.297 205.175 256.052C190.299 249.682 180.888 239.248 180.766 222.263C180.706 217.167 181.009 212.071 181.616 207.036C183.316 193.812 181.677 181.315 174.512 169.789C173.844 168.698 173.48 167.424 172.751 165.604C184.349 166.392 193.942 170.76 203.05 176.523C203.414 176.22 203.839 175.916 204.204 175.552C202.625 169.547 201.107 163.541 199.468 157.293C200.5 157.111 201.411 156.808 202.261 156.868C212.765 157.475 221.691 162.146 230.92 168.88ZM276.824 214.377C276.763 213.649 276.763 212.011 276.641 210.373C275.002 188.898 263.648 172.034 250.836 155.837C249.196 153.774 247.8 154.199 246.16 156.14C236.87 167.424 228.734 179.435 223.937 193.387C218.594 208.796 218.594 224.022 226.063 238.945C231.163 249.076 238.631 257.205 246.707 264.848C247.436 265.515 249.864 265.394 250.775 264.666C253.447 262.543 255.815 260.056 258.122 257.508C269.051 245.557 276.884 232.151 276.824 214.377ZM228.916 253.261C228.795 252.776 228.856 252.412 228.673 252.109C227.641 250.35 226.488 248.59 225.455 246.831C218.291 235.123 214.769 222.627 216.165 208.735C217.319 197.452 221.144 187.078 226.488 177.251C228.309 173.975 228.066 171.67 224.484 169.85C220.294 167.727 216.348 165.24 212.158 163.238C210.458 162.449 208.393 162.389 205.843 161.843C206.268 163.845 206.39 164.936 206.693 165.907C209.061 173.611 209.183 181.255 207.24 189.08C205.661 195.207 204.264 201.395 203.111 207.582C199.103 229.967 209.608 244.162 228.916 253.261ZM289.939 162.025C283.017 162.935 277.613 166.696 272.027 170.153C269.234 171.913 268.93 173.854 270.387 176.705C272.634 181.073 274.881 185.501 276.581 190.172C282.592 206.672 283.078 223.233 275.731 239.552C273.545 244.344 270.691 248.772 268.141 253.322C277.309 249.197 285.021 243.555 290.06 234.941C295.829 225.053 295.1 214.437 292.914 203.7C290.182 190.415 286.235 177.19 290.425 163.481C290.485 163.238 290.303 162.935 289.939 162.025ZM221.266 256.719C221.387 256.355 221.509 256.052 221.63 255.688C220.659 254.96 219.687 254.232 218.716 253.565C203.232 242.524 195.278 228.026 198.496 208.614C199.711 201.273 201.532 194.115 202.807 186.775C203.111 185.198 202.868 182.893 201.836 181.861C196.371 176.523 189.571 173.49 181.252 171.306C182.041 173.854 182.466 175.492 183.074 177.13C186.17 185.38 187.627 193.812 186.535 202.608C185.988 206.976 185.502 211.343 185.199 215.711C184.409 228.147 186.535 239.552 198.132 246.589C203.839 250.046 210.093 252.655 216.226 255.445C217.744 256.234 219.566 256.355 221.266 256.719ZM315.501 171.427C307.608 173.369 300.747 176.584 295.039 181.801C294.007 182.711 293.825 185.137 294.068 186.714C294.796 191.325 295.768 195.874 296.921 200.424C302.265 221.474 298.136 239.309 279.556 252.352C277.977 253.443 276.641 254.839 275.245 256.113C284.656 254.293 293.218 251.138 300.686 245.618C310.462 238.399 312.344 227.965 311.798 216.621C311.373 207.34 310.522 197.998 311.008 188.716C311.251 183.196 313.741 177.736 315.501 171.427ZM262.372 268.124C266.562 271.4 270.205 274.615 274.213 277.345C279.617 280.984 279.738 280.802 277.249 286.99C275.852 290.448 276.459 291.479 280.102 291.722C282.167 291.843 284.231 291.782 286.296 291.964C292.793 292.45 295.889 290.508 298.439 284.503C299.411 282.258 299.168 280.863 296.496 280.317C287.328 278.497 279.617 274.13 273.18 267.275C269.719 263.453 267.655 263.695 262.372 268.124ZM234.867 268.306C230.07 264.12 227.52 263.878 224.302 267.093C217.562 273.887 209.608 278.376 200.257 280.499C199.468 280.681 198.8 281.166 197.707 281.652C198.253 283.168 198.557 284.624 199.286 285.837C202.382 290.994 213.919 294.148 219.201 291.297C219.869 290.933 220.476 289.477 220.355 288.628C220.173 287.354 219.566 286.019 218.837 284.867C217.137 282.198 217.744 280.681 220.416 278.922C225.273 275.767 229.766 272.067 234.867 268.306ZM246.403 279.892C246.403 278.801 246.282 276.981 246.464 275.221C246.768 272.613 245.675 270.672 243.307 270.247C241.424 269.944 238.935 270.247 237.478 271.278C233.288 274.311 229.584 278.012 225.455 281.166C223.33 282.804 223.209 284.321 224.362 286.444C226.791 290.872 230.616 291.964 235.413 291.904C246.282 291.722 246.889 291.236 246.403 279.892ZM251.018 281.045C251.079 283.654 250.836 286.262 251.2 288.81C251.322 289.841 252.597 291.479 253.386 291.54C258.304 291.782 263.405 292.268 268.08 291.236C270.144 290.751 271.602 286.99 272.998 284.503C273.363 283.836 272.755 282.076 272.027 281.47C267.959 277.83 263.83 274.251 259.458 270.975C258.183 270.004 255.693 269.398 254.418 270.004C252.9 270.672 251.686 272.795 251.2 274.493C250.593 276.556 251.018 278.861 251.018 281.045ZM248.043 68.9678C255.208 68.9678 256.179 68.4219 256.118 64.3575C256.058 59.9898 251.625 52.8922 248.832 52.7102C245.796 52.5282 241.607 59.5044 241.364 64.4181C241.121 69.9991 244.885 68.8465 248.043 68.9678ZM258.304 80.6151C257.94 80.6151 257.515 80.6151 257.151 80.6151C257.151 84.5582 257.09 88.5013 257.151 92.505C257.576 113.252 258.061 133.998 258.608 154.745C258.669 156.504 259.397 158.324 259.822 160.083C260.369 159.962 260.915 159.841 261.462 159.78C260.369 133.392 259.336 107.003 258.304 80.6151ZM238.996 77.8853C237.963 105.244 236.87 132.543 235.838 159.901C239.239 156.565 241.607 90.8065 238.996 77.8853ZM246.221 75.5801C245.796 75.5801 245.371 75.5801 244.946 75.5801C244.339 100.452 243.732 125.324 243.125 150.195C243.853 150.317 244.582 150.377 245.31 150.499C245.675 148.861 246.343 147.223 246.343 145.585C246.464 124.05 246.464 102.514 246.464 80.9791C246.464 79.2199 246.343 77.4 246.221 75.5801ZM252.354 75.0948C252.05 75.0341 251.747 74.9735 251.443 74.9128C251.322 75.3981 251.079 75.9441 251.079 76.4294C251.018 99.9059 251.018 123.382 251.079 146.92C251.079 148.193 251.868 149.407 252.293 150.681C252.84 150.559 253.325 150.499 253.872 150.377C253.325 125.263 252.84 100.149 252.354 75.0948Z" fill="#53405F" fill-opacity="0.3"/>
<path d="M393.314 391.235C388.761 397.544 383.357 401.851 377.345 405.491C360.526 415.743 342.796 417.562 324.277 411.072C311.526 406.582 300.718 398.818 290.335 390.386C283.717 384.987 276.613 380.619 267.566 381.407C265.866 381.529 264.105 382.014 262.101 383.227C264.408 384.744 266.655 386.321 269.084 387.716C284.081 396.33 297.318 407.189 309.462 419.382C311.83 421.748 312.073 423.447 309.947 425.995C304.422 432.607 303.451 432.728 297.743 426.298C286.267 413.316 273.941 401.244 259.733 391.235C251.293 385.29 248.379 385.29 239.756 391.053C224.212 401.487 210.733 414.044 199.561 429.028C196.889 432.607 195.614 432.546 192.335 429.331C186.688 423.75 186.688 423.265 192.335 417.562C204.843 404.823 218.808 394.086 234.292 385.229C235.445 384.562 236.538 383.834 238.603 382.56C233.017 380.619 227.977 380.255 223.848 382.439C216.015 386.624 208.183 391.053 201.321 396.573C187.903 407.31 173.634 415.621 156.025 416.167C136.838 416.835 120.626 409.737 107.329 395.966C106.782 395.421 106.539 394.632 105.811 393.358C107.632 393.843 108.847 393.965 109.879 394.45C129.734 403.549 149.103 401.608 168.169 391.902C181.163 385.29 194.399 379.284 208.79 376.069C220.569 373.461 232.288 373.339 243.825 377.1C247.953 378.435 251.597 378.435 255.786 377.04C270.844 372.065 285.964 372.793 300.718 378.071C311.283 381.832 321.666 386.321 331.867 391.113C351.843 400.638 371.638 401.972 391.614 391.235C391.797 391.113 392.1 391.235 393.314 391.235Z" fill="#BB466A" fill-opacity="0.5"/>
<path d="M415.841 261.538C413.17 278.038 410.923 293.325 408.191 308.612C405.884 321.533 399.144 332.331 390.765 342.219C389.914 343.25 389.004 344.282 388.457 345.859C389.186 345.495 390.097 345.313 390.643 344.706C402.301 332.21 417.299 324.566 431.993 316.559C446.019 308.915 458.83 299.876 467.331 285.863C467.574 285.439 468.06 285.196 468.424 284.832C468.788 284.953 469.092 285.135 469.456 285.257C468.485 288.533 467.878 291.99 466.42 295.084C455.673 318.5 440.008 337.427 415.841 347.982C410.195 350.469 404.183 352.168 398.233 353.684C389.55 355.808 380.746 357.446 372.002 359.265C371.092 359.447 370.181 359.569 368.481 359.811C371.517 355.322 374.37 351.561 376.739 347.497C383.843 335.243 387.729 321.776 391.432 308.248C395.683 292.658 402.969 278.645 412.38 265.602C413.17 264.449 414.202 263.418 415.841 261.538Z" fill="#BB466A" fill-opacity="0.5"/>
<path d="M83.1626 265.662C86.2592 270.212 89.5381 274.701 92.5133 279.311C100.71 292.05 105.446 306.185 109.575 320.623C113.461 334.211 118.865 347.011 127.973 357.991C128.52 358.598 128.884 359.326 129.309 360.053C129.43 360.235 129.309 360.539 129.309 361.145C118.805 359.204 108.179 357.688 97.7958 355.322C62.5182 347.375 41.2666 324.262 29.0621 291.383C28.6978 290.352 28.6978 289.199 28.3942 287.137C29.6693 288.168 30.155 288.411 30.3979 288.835C38.9592 303.819 52.8032 312.615 67.6186 320.259C80.3088 326.81 92.8776 333.604 103.382 343.553C104.05 344.22 104.839 344.827 105.629 345.373C106.782 346.101 107.936 346.768 109.697 346.95C108.179 345.252 106.6 343.553 105.082 341.855C95.61 331.117 90.4488 318.439 88.2023 304.486C86.1378 291.808 84.377 279.069 82.434 266.329C82.6768 266.087 82.9197 265.844 83.1626 265.662Z" fill="#BB466A" fill-opacity="0.5"/>
<path d="M84.2554 320.502C78.9729 316.862 74.2975 313.647 69.6222 310.432C57.1141 301.696 44.7275 292.839 34.2838 281.617C22.3829 268.878 15.0359 253.894 12.3643 236.787C11.575 231.509 12.2429 225.928 12.7893 220.347C13.8823 222.895 15.0359 225.504 16.1289 228.052C21.3507 239.82 29.7906 249.223 38.4127 258.504C47.2169 268.028 55.2925 278.038 61.4859 289.442C62.2752 290.838 63.4289 291.99 64.8254 293.689C64.9468 292.718 65.129 292.294 65.0076 291.99C56.9319 275.672 57.1748 258.565 60.2715 241.215C61.8502 232.055 63.4896 222.956 65.2504 213.068C68.59 221.136 70.4115 228.962 71.2616 236.969C72.9617 253.348 73.9939 269.848 76.3013 286.167C77.6978 295.994 80.9159 305.579 83.4054 315.285C83.6483 316.195 84.0733 317.105 84.3162 318.015C84.3769 318.5 84.2554 319.046 84.2554 320.502Z" fill="#BB466A" fill-opacity="0.5"/>
<path d="M308.794 373.157C311.162 372.307 313.53 371.276 315.959 370.609C329.56 366.848 339.153 357.566 348.565 347.739C358.219 337.669 368.238 327.902 378.135 318.075C379.167 317.043 380.442 316.255 382.324 315.77C379.896 321.472 377.831 327.356 375.038 332.937C371.213 340.641 367.327 348.345 362.591 355.504C358.158 362.177 351.419 366.302 343.707 368.789C342.25 369.274 340.793 370.002 339.396 370.548C339.518 370.912 339.639 371.276 339.7 371.64C343.647 370.851 347.533 369.881 351.54 369.395C364.352 367.818 377.224 366.302 390.036 364.967C405.398 363.39 419.606 359.143 431.264 348.224C431.567 348.467 431.871 348.709 432.175 348.891C430.839 351.197 429.807 353.684 428.167 355.746C408.616 380.315 383.782 391.537 352.329 384.864C337.757 381.771 323.366 377.646 308.855 374.006C308.855 373.824 308.794 373.521 308.794 373.157Z" fill="#BB466A" fill-opacity="0.5"/>
<path d="M189.542 375.584C186.688 376.312 183.834 377.04 181.041 377.707C167.015 381.043 153.111 385.229 138.902 387.595C117.347 391.113 97.9778 384.986 81.7659 370.367C76.4834 365.635 72.233 359.811 67.6184 354.412C66.7683 353.442 66.3433 352.168 66.404 350.409C68.2256 351.865 70.0472 353.381 71.9294 354.776C83.2231 363.33 96.5206 366.242 110.182 367.334C126.637 368.607 143.153 369.335 159.243 373.46C159.607 373.582 160.033 373.4 160.7 372.672C159.304 372.126 157.968 371.398 156.572 370.973C143.942 367.455 135.381 359.023 129.491 347.8C124.512 338.337 120.322 328.449 115.768 318.803C115.708 318.621 115.89 318.318 116.194 316.983C120.626 320.805 124.937 324.02 128.762 327.781C138.052 336.941 147.16 346.223 156.147 355.626C164.465 364.361 175.03 369.153 186.02 373.339C187.235 373.824 188.449 374.249 189.663 374.734C189.542 374.977 189.542 375.28 189.542 375.584Z" fill="#BB466A" fill-opacity="0.5"/>
<path d="M433.207 209.792C435.332 225.686 437.761 241.519 439.4 257.412C440.432 267.422 437.943 277.067 434.117 286.288C433.632 287.501 433.207 288.775 433.571 290.474C436.85 285.378 439.825 279.979 443.468 275.187C450.39 266.148 457.434 257.23 464.902 248.677C472.492 240.002 478.928 230.781 483.057 219.983C483.178 219.68 483.543 219.437 484.757 219.195C484.757 223.502 485 227.809 484.696 232.055C483.421 249.041 475.528 263.115 465.206 276.157C453.608 290.716 438.003 300.301 423.249 310.978C420.395 313.04 417.541 315.103 414.262 317.469C414.262 316.316 414.141 315.891 414.262 315.527C422.338 295.205 422.52 273.67 424.585 252.438C425.86 239.638 428.471 227.02 430.535 214.281C430.839 212.643 431.749 211.066 432.357 209.489C432.66 209.61 432.964 209.731 433.207 209.792Z" fill="#BB466A" fill-opacity="0.5"/>
<path d="M66.647 151.495C66.4041 156.591 66.3434 161.019 65.9791 165.387C64.2182 186.316 58.9357 206.456 53.1674 226.535C50.3743 236.241 49.0385 246.129 50.1922 256.26C50.2529 256.867 50.1315 257.534 49.2207 258.504C47.7027 256.321 46.2454 254.137 44.7275 252.013C38.2913 243.278 31.3693 234.846 25.5403 225.746C16.6754 211.915 12.7893 196.325 12.1214 180.067C11.6964 168.966 11.1499 157.804 14.7931 147.006C15.2788 145.49 15.7646 144.034 16.7361 142.517C16.4325 159.927 23.9009 174.972 29.8514 190.623C33.9802 201.603 36.3483 213.25 39.5057 224.594C40.0521 226.656 40.4772 228.78 41.6308 230.782C41.5094 228.173 41.4487 225.504 41.2665 222.895C40.1128 205.728 46.2454 190.623 54.1389 175.882C58.2678 168.238 62.1538 160.231 66.647 151.495Z" fill="#BB466A" fill-opacity="0.5"/>
<path d="M481.053 138.453C481.964 141.486 483.421 144.519 483.725 147.613C485.546 168.481 486.943 189.531 478.26 209.307C473.949 219.013 467.634 227.809 461.866 236.787C457.616 243.46 452.819 249.769 447.233 256.017C447.172 254.925 446.929 253.833 447.051 252.741C448.69 240.427 446.322 228.598 442.679 217.011C436.668 197.781 432.296 178.308 430.414 158.229C430.171 155.984 430.414 153.679 431.324 151.131C432.114 152.769 432.782 154.407 433.632 155.984C439.036 166.176 444.379 176.367 449.844 186.498C456.158 198.206 457.737 210.641 456.28 223.623C456.158 224.594 456.158 225.504 456.644 226.717C457.069 225.686 457.676 224.715 457.798 223.684C459.923 206.88 465.813 191.229 472.249 175.7C476.924 164.416 479.717 152.708 479.717 140.455C479.717 139.848 479.899 139.241 480.021 138.635C480.325 138.574 480.689 138.513 481.053 138.453Z" fill="#BB466A" fill-opacity="0.5"/>
<path d="M456.341 70.5103C457.494 72.1482 458.709 73.6647 459.741 75.3633C476.56 102.419 478.017 130.748 467.088 160.291C464.78 166.418 463.202 172.848 461.38 179.157C460.591 181.766 459.984 184.374 458.891 187.044C453.73 167.692 440.554 153.133 430.353 136.815C423.674 126.138 418.816 114.673 416.145 102.358C415.963 101.57 415.902 100.781 415.72 99.5071C416.57 99.9924 417.116 100.114 417.42 100.417C425.313 108.788 433.025 117.342 441.039 125.592C449.054 133.782 454.458 143.184 456.28 154.589C456.462 155.62 456.887 156.651 457.737 157.683C457.737 155.681 457.98 153.618 457.676 151.677C455.551 135.601 457.312 119.586 458.526 103.571C459.377 92.5309 459.194 81.6722 455.308 71.1169C455.733 70.9349 456.037 70.7529 456.341 70.5103Z" fill="#BB466A" fill-opacity="0.5"/>
<path d="M38.5948 189.409C36.2875 182.494 34.0409 176.185 32.1586 169.815C28.9405 158.653 24.8724 147.552 23.0508 136.086C19.5898 114.066 25.6617 93.9258 37.8055 75.4237C38.1698 74.8777 38.6556 74.3317 39.1413 73.8464C39.2627 73.7251 39.6271 73.7858 40.2342 73.7251C39.5056 76.3336 38.777 78.7601 38.1698 81.2473C35.8018 90.8927 36.1661 100.599 37.5626 110.305C39.8092 125.834 40.7807 141.425 39.1413 157.136C38.9592 158.835 39.1413 160.534 39.1413 163.445C40.8414 157.44 41.8737 152.465 43.5738 147.794C47.3384 137.664 54.1996 129.596 61.4859 121.831C66.8291 116.128 72.0509 110.305 77.3335 104.542C77.7585 104.057 78.305 103.753 79.7015 103.693C79.0943 106.665 78.6693 109.698 77.88 112.671C74.3583 126.441 67.497 138.634 59.6643 150.282C51.7708 161.99 44.181 173.697 39.9307 187.225C39.7485 187.832 39.2627 188.317 38.5948 189.409Z" fill="#BB466A" fill-opacity="0.5"/>
<path d="M394.954 53.5856C400.783 59.3485 406.005 65.3542 412.137 70.2678C422.034 78.0933 432.296 85.4335 440.25 95.7462C438.914 89.9226 437.518 84.099 436.182 78.2753C434.725 71.9664 433.267 65.7181 431.871 59.4092C429.806 50.3098 426.406 41.8776 419.545 35.0834C419.788 34.7801 420.091 34.4161 420.334 34.1128C422.459 35.0834 424.767 35.7507 426.649 37.0853C442.8 48.3686 450.694 64.2622 451.24 83.6743C451.544 93.0164 450.694 102.358 450.451 111.701C450.329 116.068 450.451 120.436 450.451 125.774C447.536 122.013 445.411 118.555 442.618 115.826C434.482 108.061 426.285 100.417 417.784 93.0164C406.855 83.553 399.143 72.209 395.865 58.0746C395.379 56.558 395.197 55.0415 394.954 53.5856Z" fill="#BB466A" fill-opacity="0.5"/>
<path d="M99.6174 59.6513C99.5567 63.837 97.3101 69.6606 94.2741 75.2416C88.8094 85.3723 81.0374 93.5618 72.5975 101.387C64.0361 109.273 56.3248 118.009 48.2492 126.38C47.7028 126.926 47.2777 127.533 46.3669 127.958C46.7313 110.001 42.6024 92.3485 45.9419 74.5137C48.9171 58.4987 57.7821 46.7907 71.5046 38.4193C72.4761 37.8126 73.6904 37.57 75.3906 37.752C73.6904 40.0572 71.9296 42.3017 70.3509 44.7282C65.3719 52.3717 63.3682 61.0465 61.5467 69.8426C59.3608 80.2766 57.2356 90.7106 54.9283 101.994C57.9642 97.7475 60.1501 93.5618 63.3682 90.468C69.8044 84.341 76.7871 78.7601 83.5876 72.9971C89.1737 68.2654 94.8813 63.5337 99.6174 59.6513Z" fill="#BB466A" fill-opacity="0.5"/>
<path d="M373.095 10.7573C398.111 11.9706 428.289 47.155 427.621 74.0893C403.697 57.771 391.25 31.9893 373.095 10.7573Z" fill="#BB466A" fill-opacity="0.5"/>
<path d="M121.294 12.5771C119.897 14.579 119.23 15.5496 118.562 16.5202C111.64 26.2263 104.657 35.8717 97.9172 45.6384C89.8416 57.3463 79.823 67.113 68.7722 76.1518C67.0113 70.3888 72.8404 50.3701 80.6124 39.7541C90.5703 26.0443 103.928 17.4908 121.294 12.5771Z" fill="#BB466A" fill-opacity="0.5"/>
</g>
<g clip-path="url(#clip2_1308_718)">
<path d="M241.95 330.612C231.324 329.096 220.455 327.7 209.587 325.941C204.608 325.153 203.94 323.697 204.668 318.844C205.883 310.472 202.665 306.044 194.711 303.375C188.942 301.433 183.295 298.704 177.891 295.852C174.552 294.093 172.184 293.79 169.694 296.944C167.812 299.31 165.687 301.615 163.258 303.253C161.922 304.163 159.069 304.406 157.854 303.617C140.914 292.213 126.888 277.836 115.655 260.789C113.954 258.181 114.076 255.694 116.748 253.51C118.569 252.054 120.269 250.416 121.909 248.778C125.43 245.26 125.37 243.076 123.305 238.465C120.208 231.489 117.415 224.331 114.865 217.112C113.712 213.836 112.254 211.895 108.49 212.138C105.757 212.32 102.964 211.713 100.232 211.895C96.346 212.198 94.8887 210.257 94.3423 206.739C91.6706 188.661 91.8528 170.584 95.1923 152.567C95.7388 149.594 97.4389 148.32 100.353 148.381C102.964 148.442 105.575 148.442 108.186 148.624C112.436 148.927 114.805 146.804 116.322 143.043C119.48 135.035 122.88 127.088 125.977 119.081C126.463 117.868 126.098 115.805 125.309 114.713C123.244 111.983 120.694 109.618 118.508 107.009C116.565 104.765 116.383 102.459 118.083 99.8509C128.891 83.4112 142.917 70.2474 159.129 59.2674C161.437 57.6902 163.501 57.9328 165.383 59.9347C167.144 61.8153 168.844 63.8778 170.605 65.7583C173.095 68.4275 175.766 69.2161 179.409 67.3962C186.817 63.8171 194.346 60.5413 201.936 57.3869C204.79 56.2343 206.126 54.5357 205.944 51.5632C205.883 50.4713 205.944 49.3794 205.944 48.2875C205.944 38.2174 205.944 38.2781 215.659 36.5795C235.271 33.0611 254.762 33.4251 274.313 37.0648C278.685 37.8535 281.114 39.552 280.446 44.2837C280.263 45.497 280.506 46.7709 280.446 47.9841C280.263 55.4457 280.871 55.931 287.975 58.5395C294.654 61.0266 301.151 63.9991 307.587 67.0323C310.501 68.4275 312.748 68.6095 314.812 65.8797C315.42 65.1517 316.148 64.5451 316.877 63.8778C324.163 56.8409 325.074 56.6589 333.089 62.7252C346.872 73.1592 359.137 85.0491 368.852 99.4262C371.038 102.581 370.613 104.643 367.881 107.191C358.894 115.502 359.137 115.441 364.48 126.36C367.213 132.002 369.399 138.008 371.463 143.953C372.495 146.865 374.013 148.199 377.171 148.078C380.025 147.956 382.939 148.442 385.854 148.26C389.436 148.078 391.075 149.594 391.743 153.052C395.083 171.069 395.629 189.086 392.35 207.163C391.743 210.621 389.861 212.198 386.339 211.774C372.738 210.318 372.556 214.079 370.188 223.421C368.67 229.305 365.695 234.886 363.084 240.467C361.687 243.5 361.748 245.866 364.298 248.171C366.666 250.295 368.731 252.66 371.099 254.784C373.042 256.482 373.103 258.241 371.767 260.183C360.412 277.108 346.629 291.667 329.749 303.314C326.835 305.316 324.588 304.891 322.159 302.343C313.841 293.487 313.902 293.729 302.972 299.128C297.933 301.615 292.65 303.557 287.307 305.316C283.482 306.59 281.964 308.531 282.085 312.777C282.328 326.244 282.874 325.274 270.913 326.972C261.562 328.61 251.968 329.46 241.95 330.612ZM218.391 290.029C214.93 289.968 211.469 289.665 208.069 290.029C200.054 290.878 193.921 289.665 190.217 280.99C187.06 273.71 179.834 269.585 173.641 264.732C153.725 248.96 140.974 228.456 135.935 203.645C129.984 174.163 135.267 146.501 152.511 121.629C168.662 98.213 191.128 83.7145 218.573 77.0416C228.592 74.6151 229.077 75.0397 230.656 64.7877C231.931 56.4163 232.538 48.1055 240.371 42.6458C241.039 42.1605 241.403 40.5226 241.1 39.734C240.796 39.0667 239.339 38.4601 238.428 38.5207C230.474 39.3094 222.581 40.28 214.687 41.1899C211.712 41.5539 210.376 43.3738 210.315 46.2249C210.255 49.3794 210.68 52.5945 210.072 55.6883C209.769 57.4475 208.251 59.7527 206.672 60.4807C197.2 64.7877 187.546 68.7308 178.013 72.8559C175.098 74.1298 172.791 73.7658 170.666 71.4C168.723 69.2768 166.476 67.3962 164.594 65.2124C162.772 63.0892 161.133 63.0285 158.947 64.6058C144.86 74.6151 132.474 86.4444 122.759 100.761C122.03 101.792 122.212 104.219 123.002 105.25C125.005 107.98 127.555 110.406 129.984 112.772C132.17 114.956 132.292 116.958 130.834 119.748C127.313 126.724 122.759 133.579 121.241 141.041C118.691 153.537 115.047 153.78 104.847 152.567C101.446 152.142 99.6248 153.477 98.9569 157.177C96.4067 171.494 96.2245 185.871 97.9247 200.248C98.7747 207.345 99.1391 207.588 106.425 207.709C108.368 207.709 110.311 207.952 112.194 207.77C115.351 207.467 117.173 208.923 117.84 211.895C120.087 221.904 123.669 231.307 129.013 240.103C130.895 243.258 130.531 246.473 127.798 249.142C125.855 251.083 123.73 252.842 121.666 254.602C119.48 256.422 119.237 258.545 120.876 260.729C130.895 274.802 142.553 287.299 156.701 297.369C159.615 299.432 161.862 299.189 164.108 296.338C165.626 294.396 167.751 293.001 169.391 291.121C171.698 288.391 173.823 288.694 176.92 290.271C184.267 293.911 191.735 297.369 199.386 300.22C206.551 302.889 210.072 307.56 209.222 315.265C208.615 320.906 209.101 321.755 214.748 322.544C222.216 323.575 229.745 324.243 237.274 325.031C240.068 325.335 241.586 324.182 241.586 321.027C241.464 312.11 241.464 303.193 241.586 294.215C241.646 290.878 239.946 289.907 236.971 289.907C230.717 290.089 224.584 290.029 218.391 290.029ZM269.334 290.029C263.019 290.029 256.705 290.089 250.329 290.029C247.536 290.029 245.957 290.999 246.018 294.093C246.079 303.193 246.079 312.231 246.018 321.331C246.018 324.061 247.293 325.092 249.783 324.91C254.883 324.607 259.983 324.425 264.962 323.818C277.774 322.18 277.956 322.059 277.835 309.38C277.774 305.437 279.231 303.921 282.631 302.586C290.768 299.31 298.783 295.731 306.615 291.849C313.416 288.452 315.116 288.452 320.459 294.215C321.37 295.246 322.402 296.216 323.252 297.248C325.135 299.553 327.078 299.917 329.628 298.097C343.958 288.027 355.858 275.591 365.877 261.275C367.334 259.151 367.334 257.271 365.331 255.39C362.841 253.024 360.534 250.477 358.044 248.111C356.162 246.291 356.283 244.471 357.255 242.166C361.384 232.156 365.391 222.147 369.217 212.016C370.249 209.347 371.402 207.77 374.438 207.891C377.292 208.013 380.207 207.709 383.121 207.891C386.704 208.073 388.161 206.739 388.707 203.038C391.015 187.933 390.407 172.889 388.343 157.845C387.797 154.083 385.793 152.264 381.907 152.567C379.599 152.749 377.231 152.446 374.924 152.749C370.735 153.234 368.974 150.99 367.941 147.41C365.331 138.129 362.173 129.09 356.405 121.144C354.158 118.05 354.401 114.895 357.012 112.105C359.077 109.921 361.262 107.858 363.509 105.796C365.452 103.976 365.634 102.035 364.055 99.9722C362.234 97.5457 360.412 95.1798 358.469 92.814C350.09 82.5619 340.497 73.5839 329.689 65.8797C326.592 63.6958 323.981 63.6958 321.249 66.365C319.184 68.3668 316.877 70.1867 314.934 72.2493C313.173 74.1905 311.594 73.8872 309.409 72.9772C299.997 68.8521 290.525 64.8484 281.053 60.9053C277.895 59.6314 276.013 57.6902 276.013 54.1717C276.013 51.4419 275.831 48.6514 275.952 45.9216C276.074 43.0705 274.859 41.4932 272.066 41.1899C265.63 40.4013 259.255 39.552 252.819 39.006C250.693 38.824 248.507 39.4913 246.322 39.7947C247.475 41.8572 248.507 43.9804 249.843 45.8609C251.543 48.1661 254.579 49.986 255.126 52.4125C256.462 58.2362 256.887 64.3024 257.251 70.3081C257.433 73.7052 258.708 75.4644 261.926 75.889C276.681 77.7089 289.918 83.6539 302.547 91.1154C314.266 98.031 324.406 106.827 332.542 117.807C346.143 136.188 352.458 157.117 353.49 179.744C354.948 213.412 341.286 240.467 316.27 262.306C307.526 269.949 297.872 276.744 292.711 287.784C292.104 288.998 289.553 289.907 287.914 289.968C281.721 290.211 275.527 290.029 269.334 290.029ZM270.184 256.058C270.913 257.392 271.156 258.12 271.581 258.545C278.078 265.036 285.971 269.1 295.018 270.495C296.718 270.738 298.904 269.949 300.361 268.918C305.462 265.218 310.501 261.396 315.298 257.332C331.935 243.197 342.379 225.241 346.69 204.009C352.822 173.981 347.601 146.137 328.96 121.325C312.748 99.7902 291.375 86.3837 265.023 80.8634C258.344 79.4681 257.737 80.0141 257.98 86.687C258.89 111.377 259.801 136.067 260.773 160.817C260.773 161.302 261.076 161.788 261.38 162.698C270.913 155.903 280.567 150.322 292.529 150.929C290.707 157.723 289.068 163.789 287.185 170.887C293.257 167.854 297.872 165.185 302.79 163.304C307.83 161.424 313.173 160.332 318.395 158.936C318.638 159.361 318.881 159.786 319.124 160.21C318.577 161.363 318.152 162.637 317.484 163.729C310.866 173.981 308.558 185.082 309.894 197.154C310.562 203.16 310.987 209.165 311.048 215.232C311.109 221.601 310.137 227.789 306.798 233.43C301.151 243.015 292.104 247.929 282.206 251.751C278.381 253.267 274.495 254.541 270.184 256.058ZM225.92 162.88C226.163 156.692 226.345 151.536 226.588 146.44C227.438 126.118 228.349 105.856 229.077 85.5344C229.32 79.7108 228.895 79.5288 223.309 80.6814C209.526 83.4112 196.714 88.3249 184.996 96.1504C162.59 111.073 146.743 131.274 141.035 157.602C131.927 199.763 143.95 235.432 178.074 262.852C190.157 272.497 192.403 272.801 206.065 265.824C210.194 263.701 214.201 261.032 216.934 256.361C210.922 254.116 205.458 252.297 200.175 250.052C185.299 243.682 175.888 233.248 175.766 216.263C175.706 211.167 176.009 206.071 176.616 201.036C178.316 187.812 176.677 175.315 169.512 163.789C168.844 162.698 168.48 161.424 167.751 159.604C179.349 160.392 188.942 164.76 198.05 170.523C198.414 170.22 198.839 169.916 199.204 169.552C197.625 163.547 196.107 157.541 194.468 151.293C195.5 151.111 196.411 150.808 197.261 150.868C207.765 151.475 216.691 156.146 225.92 162.88ZM271.824 208.377C271.763 207.649 271.763 206.011 271.641 204.373C270.002 182.898 258.648 166.034 245.836 149.837C244.196 147.774 242.8 148.199 241.16 150.14C231.87 161.424 223.734 173.435 218.937 187.387C213.594 202.796 213.594 218.022 221.063 232.945C226.163 243.076 233.631 251.205 241.707 258.848C242.436 259.515 244.864 259.394 245.775 258.666C248.447 256.543 250.815 254.056 253.122 251.508C264.051 239.557 271.884 226.151 271.824 208.377ZM223.916 247.261C223.795 246.776 223.856 246.412 223.673 246.109C222.641 244.35 221.488 242.59 220.455 240.831C213.291 229.123 209.769 216.627 211.165 202.735C212.319 191.452 216.144 181.078 221.488 171.251C223.309 167.975 223.066 165.67 219.484 163.85C215.294 161.727 211.348 159.24 207.158 157.238C205.458 156.449 203.393 156.389 200.843 155.843C201.268 157.845 201.39 158.936 201.693 159.907C204.061 167.611 204.183 175.255 202.24 183.08C200.661 189.207 199.264 195.395 198.111 201.582C194.103 223.967 204.608 238.162 223.916 247.261ZM284.939 156.025C278.017 156.935 272.613 160.696 267.027 164.153C264.234 165.913 263.93 167.854 265.387 170.705C267.634 175.073 269.881 179.501 271.581 184.172C277.592 200.672 278.078 217.233 270.731 233.552C268.545 238.344 265.691 242.772 263.141 247.322C272.309 243.197 280.021 237.555 285.06 228.941C290.829 219.053 290.1 208.437 287.914 197.7C285.182 184.415 281.235 171.19 285.425 157.481C285.485 157.238 285.303 156.935 284.939 156.025ZM216.266 250.719C216.387 250.355 216.509 250.052 216.63 249.688C215.659 248.96 214.687 248.232 213.716 247.565C198.232 236.524 190.278 222.026 193.496 202.614C194.711 195.273 196.532 188.115 197.807 180.775C198.111 179.198 197.868 176.893 196.836 175.861C191.371 170.523 184.571 167.49 176.252 165.306C177.041 167.854 177.466 169.492 178.074 171.13C181.17 179.38 182.627 187.812 181.535 196.608C180.988 200.976 180.502 205.343 180.199 209.711C179.409 222.147 181.535 233.552 193.132 240.589C198.839 244.046 205.093 246.655 211.226 249.445C212.744 250.234 214.566 250.355 216.266 250.719ZM310.501 165.427C302.608 167.369 295.747 170.584 290.039 175.801C289.007 176.711 288.825 179.137 289.068 180.714C289.796 185.325 290.768 189.874 291.921 194.424C297.265 215.474 293.136 233.309 274.556 246.352C272.977 247.443 271.641 248.839 270.245 250.113C279.656 248.293 288.218 245.138 295.686 239.618C305.462 232.399 307.344 221.965 306.798 210.621C306.373 201.34 305.522 191.998 306.008 182.716C306.251 177.196 308.741 171.736 310.501 165.427ZM257.372 262.124C261.562 265.4 265.205 268.615 269.213 271.345C274.617 274.984 274.738 274.802 272.249 280.99C270.852 284.448 271.459 285.479 275.102 285.722C277.167 285.843 279.231 285.782 281.296 285.964C287.793 286.45 290.889 284.508 293.439 278.503C294.411 276.258 294.168 274.863 291.496 274.317C282.328 272.497 274.617 268.13 268.18 261.275C264.719 257.453 262.655 257.695 257.372 262.124ZM229.867 262.306C225.07 258.12 222.52 257.878 219.302 261.093C212.562 267.887 204.608 272.376 195.257 274.499C194.468 274.681 193.8 275.166 192.707 275.652C193.253 277.168 193.557 278.624 194.286 279.837C197.382 284.994 208.919 288.148 214.201 285.297C214.869 284.933 215.476 283.477 215.355 282.628C215.173 281.354 214.566 280.019 213.837 278.867C212.137 276.198 212.744 274.681 215.416 272.922C220.273 269.767 224.766 266.067 229.867 262.306ZM241.403 273.892C241.403 272.801 241.282 270.981 241.464 269.221C241.768 266.613 240.675 264.672 238.307 264.247C236.424 263.944 233.935 264.247 232.478 265.278C228.288 268.311 224.584 272.012 220.455 275.166C218.33 276.804 218.209 278.321 219.362 280.444C221.791 284.872 225.616 285.964 230.413 285.904C241.282 285.722 241.889 285.236 241.403 273.892ZM246.018 275.045C246.079 277.654 245.836 280.262 246.2 282.81C246.322 283.841 247.597 285.479 248.386 285.54C253.304 285.782 258.405 286.268 263.08 285.236C265.144 284.751 266.602 280.99 267.998 278.503C268.363 277.836 267.755 276.076 267.027 275.47C262.959 271.83 258.83 268.251 254.458 264.975C253.183 264.004 250.693 263.398 249.418 264.004C247.9 264.672 246.686 266.795 246.2 268.493C245.593 270.556 246.018 272.861 246.018 275.045ZM243.043 62.9678C250.208 62.9678 251.179 62.4219 251.118 58.3575C251.058 53.9898 246.625 46.8922 243.832 46.7102C240.796 46.5282 236.607 53.5044 236.364 58.4181C236.121 63.9991 239.885 62.8465 243.043 62.9678ZM253.304 74.6151C252.94 74.6151 252.515 74.6151 252.151 74.6151C252.151 78.5582 252.09 82.5013 252.151 86.505C252.576 107.252 253.061 127.998 253.608 148.745C253.669 150.504 254.397 152.324 254.822 154.083C255.369 153.962 255.915 153.841 256.462 153.78C255.369 127.392 254.336 101.003 253.304 74.6151ZM233.996 71.8853C232.963 99.2442 231.87 126.543 230.838 153.901C234.239 150.565 236.607 84.8065 233.996 71.8853ZM241.221 69.5801C240.796 69.5801 240.371 69.5801 239.946 69.5801C239.339 94.4519 238.732 119.324 238.125 144.195C238.853 144.317 239.582 144.377 240.31 144.499C240.675 142.861 241.343 141.223 241.343 139.585C241.464 118.05 241.464 96.5144 241.464 74.9791C241.464 73.2199 241.343 71.4 241.221 69.5801ZM247.354 69.0948C247.05 69.0341 246.747 68.9735 246.443 68.9128C246.322 69.3981 246.079 69.9441 246.079 70.4294C246.018 93.9059 246.018 117.382 246.079 140.92C246.079 142.193 246.868 143.407 247.293 144.681C247.84 144.559 248.325 144.499 248.872 144.377C248.325 119.263 247.84 94.1485 247.354 69.0948Z" fill="#53405F"/>
<path d="M389.314 380.235C384.761 386.544 379.357 390.851 373.345 394.491C356.526 404.743 338.796 406.562 320.277 400.072C307.526 395.582 296.718 387.818 286.335 379.386C279.717 373.987 272.613 369.619 263.566 370.407C261.866 370.529 260.105 371.014 258.101 372.227C260.408 373.744 262.655 375.321 265.084 376.716C280.081 385.33 293.318 396.189 305.462 408.382C307.83 410.748 308.073 412.447 305.947 414.995C300.422 421.607 299.451 421.728 293.743 415.298C282.267 402.316 269.941 390.244 255.733 380.235C247.293 374.29 244.379 374.29 235.756 380.053C220.212 390.487 206.733 403.044 195.561 418.028C192.889 421.607 191.614 421.546 188.335 418.331C182.688 412.75 182.688 412.265 188.335 406.562C200.843 393.823 214.808 383.086 230.292 374.229C231.445 373.562 232.538 372.834 234.603 371.56C229.017 369.619 223.977 369.255 219.848 371.439C212.015 375.624 204.183 380.053 197.321 385.573C183.903 396.31 169.634 404.621 152.025 405.167C132.838 405.835 116.626 398.737 103.329 384.966C102.782 384.421 102.539 383.632 101.811 382.358C103.632 382.843 104.847 382.965 105.879 383.45C125.734 392.549 145.103 390.608 164.169 380.902C177.163 374.29 190.399 368.284 204.79 365.069C216.569 362.461 228.288 362.339 239.825 366.1C243.953 367.435 247.597 367.435 251.786 366.04C266.844 361.065 281.964 361.793 296.718 367.071C307.283 370.832 317.666 375.321 327.867 380.113C347.843 389.638 367.638 390.972 387.614 380.235C387.797 380.113 388.1 380.235 389.314 380.235Z" fill="#53405F"/>
<path d="M411.841 250.538C409.17 267.038 406.923 282.325 404.191 297.612C401.884 310.533 395.144 321.331 386.765 331.219C385.914 332.25 385.004 333.282 384.457 334.859C385.186 334.495 386.097 334.313 386.643 333.706C398.301 321.21 413.299 313.566 427.993 305.559C442.019 297.915 454.83 288.876 463.331 274.863C463.574 274.439 464.06 274.196 464.424 273.832C464.788 273.953 465.092 274.135 465.456 274.257C464.485 277.533 463.878 280.99 462.42 284.084C451.673 307.5 436.008 326.427 411.841 336.982C406.195 339.469 400.183 341.168 394.233 342.684C385.55 344.808 376.746 346.446 368.002 348.265C367.092 348.447 366.181 348.569 364.481 348.811C367.517 344.322 370.37 340.561 372.739 336.497C379.843 324.243 383.729 310.776 387.432 297.248C391.683 281.658 398.969 267.645 408.38 254.602C409.17 253.449 410.202 252.418 411.841 250.538Z" fill="#53405F"/>
<path d="M79.1626 254.662C82.2592 259.212 85.5381 263.701 88.5133 268.311C96.7103 281.05 101.446 295.185 105.575 309.623C109.461 323.211 114.865 336.011 123.973 346.991C124.52 347.598 124.884 348.326 125.309 349.053C125.43 349.235 125.309 349.539 125.309 350.145C114.805 348.204 104.179 346.688 93.7958 344.322C58.5182 336.375 37.2666 313.262 25.0621 280.383C24.6978 279.352 24.6978 278.199 24.3942 276.137C25.6693 277.168 26.155 277.411 26.3979 277.835C34.9592 292.819 48.8032 301.615 63.6186 309.259C76.3088 315.81 88.8776 322.604 99.382 332.553C100.05 333.22 100.839 333.827 101.629 334.373C102.782 335.101 103.936 335.768 105.697 335.95C104.179 334.252 102.6 332.553 101.082 330.855C91.61 320.117 86.4488 307.439 84.2023 293.486C82.1378 280.808 80.377 268.069 78.434 255.329C78.6768 255.087 78.9197 254.844 79.1626 254.662Z" fill="#53405F"/>
<path d="M80.2554 309.502C74.9729 305.862 70.2975 302.647 65.6222 299.432C53.1141 290.696 40.7275 281.839 30.2838 270.617C18.3829 257.878 11.0359 242.894 8.3643 225.787C7.57495 220.509 8.24286 214.928 8.78933 209.347C9.88227 211.895 11.0359 214.504 12.1289 217.052C17.3507 228.82 25.7906 238.223 34.4127 247.504C43.2169 257.028 51.2925 267.038 57.4859 278.442C58.2752 279.838 59.4289 280.99 60.8254 282.689C60.9468 281.718 61.129 281.294 61.0076 280.99C52.9319 264.672 53.1748 247.565 56.2715 230.215C57.8502 221.055 59.4896 211.956 61.2504 202.068C64.59 210.136 66.4115 217.962 67.2616 225.969C68.9617 242.348 69.9939 258.848 72.3013 275.167C73.6978 284.994 76.9159 294.579 79.4054 304.285C79.6483 305.195 80.0733 306.105 80.3162 307.015C80.3769 307.5 80.2554 308.046 80.2554 309.502Z" fill="#53405F"/>
<path d="M304.794 362.157C307.162 361.307 309.53 360.276 311.959 359.609C325.56 355.848 335.153 346.566 344.565 336.739C354.219 326.669 364.238 316.902 374.135 307.075C375.167 306.043 376.442 305.255 378.324 304.77C375.896 310.472 373.831 316.356 371.038 321.937C367.213 329.641 363.327 337.345 358.591 344.504C354.158 351.177 347.419 355.302 339.707 357.789C338.25 358.274 336.793 359.002 335.396 359.548C335.518 359.912 335.639 360.276 335.7 360.64C339.647 359.851 343.533 358.881 347.54 358.395C360.352 356.818 373.224 355.302 386.036 353.967C401.398 352.39 415.606 348.143 427.264 337.224C427.567 337.467 427.871 337.709 428.175 337.891C426.839 340.197 425.807 342.684 424.167 344.746C404.616 369.315 379.782 380.537 348.329 373.864C333.757 370.771 319.366 366.646 304.855 363.006C304.855 362.824 304.794 362.521 304.794 362.157Z" fill="#53405F"/>
<path d="M185.542 364.584C182.688 365.312 179.834 366.04 177.041 366.707C163.015 370.043 149.111 374.229 134.902 376.595C113.347 380.113 93.9778 373.986 77.7659 359.367C72.4834 354.635 68.233 348.811 63.6184 343.412C62.7683 342.442 62.3433 341.168 62.404 339.409C64.2256 340.865 66.0472 342.381 67.9294 343.776C79.2231 352.33 92.5206 355.242 106.182 356.334C122.637 357.607 139.153 358.335 155.243 362.46C155.607 362.582 156.033 362.4 156.7 361.672C155.304 361.126 153.968 360.398 152.572 359.973C139.942 356.455 131.381 348.023 125.491 336.8C120.512 327.337 116.322 317.449 111.768 307.803C111.708 307.621 111.89 307.318 112.194 305.983C116.626 309.805 120.937 313.02 124.762 316.781C134.052 325.941 143.16 335.223 152.147 344.626C160.465 353.361 171.03 358.153 182.02 362.339C183.235 362.824 184.449 363.249 185.663 363.734C185.542 363.977 185.542 364.28 185.542 364.584Z" fill="#53405F"/>
<path d="M429.207 198.792C431.332 214.686 433.761 230.519 435.4 246.412C436.432 256.422 433.943 266.067 430.117 275.288C429.632 276.501 429.207 277.775 429.571 279.474C432.85 274.378 435.825 268.979 439.468 264.187C446.39 255.148 453.434 246.23 460.902 237.677C468.492 229.002 474.928 219.781 479.057 208.983C479.178 208.68 479.543 208.437 480.757 208.195C480.757 212.502 481 216.809 480.696 221.055C479.421 238.041 471.528 252.115 461.206 265.157C449.608 279.716 434.003 289.301 419.249 299.978C416.395 302.04 413.541 304.103 410.262 306.469C410.262 305.316 410.141 304.891 410.262 304.527C418.338 284.205 418.52 262.67 420.585 241.438C421.86 228.638 424.471 216.02 426.535 203.281C426.839 201.643 427.749 200.066 428.357 198.489C428.66 198.61 428.964 198.731 429.207 198.792Z" fill="#53405F"/>
<path d="M62.647 140.495C62.4041 145.591 62.3434 150.019 61.9791 154.387C60.2182 175.316 54.9357 195.456 49.1674 215.535C46.3743 225.241 45.0385 235.129 46.1922 245.26C46.2529 245.867 46.1315 246.534 45.2207 247.504C43.7027 245.321 42.2454 243.137 40.7275 241.013C34.2913 232.278 27.3693 223.846 21.5403 214.746C12.6754 200.915 8.78935 185.325 8.12144 169.067C7.69641 157.966 7.14994 146.804 10.7931 136.006C11.2788 134.49 11.7646 133.034 12.7361 131.517C12.4325 148.927 19.9009 163.972 25.8514 179.623C29.9802 190.603 32.3483 202.25 35.5057 213.594C36.0521 215.656 36.4772 217.78 37.6308 219.782C37.5094 217.173 37.4487 214.504 37.2665 211.895C36.1128 194.728 42.2454 179.623 50.1389 164.882C54.2678 157.238 58.1538 149.231 62.647 140.495Z" fill="#53405F"/>
<path d="M477.053 127.453C477.964 130.486 479.421 133.519 479.725 136.613C481.546 157.481 482.943 178.531 474.26 198.307C469.949 208.013 463.634 216.809 457.866 225.787C453.616 232.46 448.819 238.769 443.233 245.017C443.172 243.925 442.929 242.833 443.051 241.741C444.69 229.427 442.322 217.598 438.679 206.011C432.668 186.781 428.296 167.308 426.414 147.229C426.171 144.984 426.414 142.679 427.324 140.131C428.114 141.769 428.782 143.407 429.632 144.984C435.036 155.176 440.379 165.367 445.844 175.498C452.158 187.206 453.737 199.641 452.28 212.623C452.158 213.594 452.158 214.504 452.644 215.717C453.069 214.686 453.676 213.715 453.798 212.684C455.923 195.88 461.813 180.229 468.249 164.7C472.924 153.416 475.717 141.708 475.717 129.455C475.717 128.848 475.899 128.241 476.021 127.635C476.325 127.574 476.689 127.513 477.053 127.453Z" fill="#53405F"/>
<path d="M452.341 59.5103C453.494 61.1482 454.709 62.6647 455.741 64.3633C472.56 91.4189 474.017 119.748 463.088 149.291C460.78 155.418 459.202 161.848 457.38 168.157C456.591 170.766 455.984 173.374 454.891 176.044C449.73 156.692 436.554 142.133 426.353 125.815C419.674 115.138 414.816 103.673 412.145 91.3582C411.963 90.5696 411.902 89.781 411.72 88.5071C412.57 88.9924 413.116 89.1137 413.42 89.417C421.313 97.7885 429.025 106.342 437.039 114.592C445.054 122.782 450.458 132.184 452.28 143.589C452.462 144.62 452.887 145.651 453.737 146.683C453.737 144.681 453.98 142.618 453.676 140.677C451.551 124.601 453.312 108.586 454.526 92.5715C455.377 81.5309 455.194 70.6722 451.308 60.1169C451.733 59.9349 452.037 59.7529 452.341 59.5103Z" fill="#53405F"/>
<path d="M34.5948 178.409C32.2875 171.494 30.0409 165.185 28.1586 158.815C24.9405 147.653 20.8724 136.552 19.0508 125.086C15.5898 103.066 21.6617 82.9258 33.8055 64.4237C34.1698 63.8777 34.6556 63.3317 35.1413 62.8464C35.2627 62.7251 35.6271 62.7858 36.2342 62.7251C35.5056 65.3336 34.777 67.7601 34.1698 70.2473C31.8018 79.8927 32.1661 89.5987 33.5626 99.3048C35.8092 114.834 36.7807 130.425 35.1413 146.136C34.9592 147.835 35.1413 149.534 35.1413 152.445C36.8414 146.44 37.8737 141.465 39.5738 136.794C43.3384 126.664 50.1996 118.596 57.4859 110.831C62.8291 105.128 68.0509 99.3048 73.3335 93.5418C73.7585 93.0565 74.305 92.7532 75.7015 92.6925C75.0943 95.665 74.6693 98.6982 73.88 101.671C70.3583 115.441 63.497 127.634 55.6643 139.282C47.7708 150.99 40.181 162.697 35.9307 176.225C35.7485 176.832 35.2627 177.317 34.5948 178.409Z" fill="#53405F"/>
<path d="M390.954 42.5856C396.783 48.3485 402.005 54.3542 408.137 59.2678C418.034 67.0933 428.296 74.4335 436.25 84.7462C434.914 78.9226 433.518 73.099 432.182 67.2753C430.725 60.9664 429.267 54.7181 427.871 48.4092C425.806 39.3098 422.406 30.8776 415.545 24.0834C415.788 23.7801 416.091 23.4161 416.334 23.1128C418.459 24.0834 420.767 24.7507 422.649 26.0853C438.8 37.3686 446.694 53.2622 447.24 72.6743C447.544 82.0164 446.694 91.3585 446.451 100.701C446.329 105.068 446.451 109.436 446.451 114.774C443.536 111.013 441.411 107.555 438.618 104.826C430.482 97.0608 422.285 89.4173 413.784 82.0164C402.855 72.553 395.143 61.209 391.865 47.0746C391.379 45.558 391.197 44.0415 390.954 42.5856Z" fill="#53405F"/>
<path d="M95.6174 48.6513C95.5567 52.837 93.3101 58.6606 90.2741 64.2416C84.8094 74.3723 77.0374 82.5618 68.5975 90.3873C60.0361 98.2735 52.3248 107.009 44.2492 115.38C43.7028 115.926 43.2777 116.533 42.3669 116.958C42.7313 99.0014 38.6024 81.3485 41.9419 63.5137C44.9171 47.4987 53.7821 35.7907 67.5046 27.4193C68.4761 26.8126 69.6904 26.57 71.3906 26.752C69.6904 29.0572 67.9296 31.3017 66.3509 33.7282C61.3719 41.3717 59.3682 50.0465 57.5467 58.8426C55.3608 69.2766 53.2356 79.7106 50.9283 90.9939C53.9642 86.7475 56.1501 82.5618 59.3682 79.468C65.8044 73.341 72.7871 67.7601 79.5876 61.9971C85.1737 57.2654 90.8813 52.5337 95.6174 48.6513Z" fill="#53405F"/>
<path d="M369.095 -0.242676C394.111 0.970581 424.289 36.155 423.621 63.0893C399.697 46.771 387.25 20.9893 369.095 -0.242676Z" fill="#53405F"/>
<path d="M117.294 1.57715C115.897 3.57902 115.23 4.54963 114.562 5.52023C107.64 15.2263 100.657 24.8717 93.9172 34.6384C85.8416 46.3463 75.823 56.113 64.7722 65.1518C63.0113 59.3888 68.8404 39.3701 76.6124 28.7541C86.5703 15.0443 99.9284 6.49084 117.294 1.57715Z" fill="#53405F"/>
</g>
<defs>
<clipPath id="clip0_1308_718">
<rect width="473" height="421" fill="white" transform="translate(0 12)"/>
</clipPath>
<clipPath id="clip1_1308_718">
<rect width="473" height="421" fill="white" transform="translate(12 11)"/>
</clipPath>
<clipPath id="clip2_1308_718">
<rect width="473" height="421" fill="white" transform="translate(8)"/>
</clipPath>
</defs>
</svg>
