<svg width="64" height="58" viewBox="0 0 64 58" fill="none" xmlns="http://www.w3.org/2000/svg">
<g clip-path="url(#clip0_942_600)">
<path d="M31.6551 45.2621C30.2174 45.0568 28.7468 44.8679 27.2762 44.6297C26.6025 44.5229 26.5121 44.3258 26.6107 43.6687C26.775 42.5353 26.3396 41.9357 25.2633 41.5744C24.4829 41.3115 23.7188 40.9419 22.9876 40.5559C22.5357 40.3177 22.2153 40.2767 21.8785 40.7038C21.6238 41.0241 21.3363 41.3362 21.0076 41.5579C20.8269 41.6811 20.4407 41.714 20.2764 41.6072C17.9843 40.0631 16.0864 38.1166 14.5666 35.8087C14.3365 35.4555 14.3529 35.1187 14.7144 34.8231C14.9609 34.626 15.1909 34.4042 15.4128 34.1824C15.8893 33.7061 15.8811 33.4104 15.6017 32.7862C15.1827 31.8417 14.8048 30.8725 14.4597 29.8951C14.3036 29.4516 14.1065 29.1888 13.5971 29.2216C13.2274 29.2463 12.8495 29.1641 12.4798 29.1888C11.954 29.2298 11.7568 28.967 11.6829 28.4906C11.3214 26.0431 11.346 23.5956 11.7979 21.1562C11.8718 20.7538 12.1019 20.5813 12.4962 20.5895C12.8495 20.5977 13.2028 20.5977 13.556 20.6224C14.1311 20.6634 14.4515 20.376 14.6569 19.8667C15.0841 18.7826 15.5442 17.7066 15.9632 16.6225C16.0289 16.4582 15.9796 16.179 15.8728 16.0311C15.5935 15.6615 15.2485 15.3412 14.9527 14.9881C14.6898 14.6842 14.6651 14.3721 14.8952 14.0189C16.3576 11.7931 18.2554 10.0108 20.449 8.52423C20.7612 8.31068 21.0405 8.34353 21.2952 8.61457C21.5334 8.86918 21.7635 9.14843 22.0017 9.40304C22.3386 9.76443 22.7001 9.8712 23.193 9.6248C24.1953 9.14022 25.214 8.6967 26.241 8.26961C26.6271 8.11356 26.8079 7.88359 26.7832 7.48114C26.775 7.3333 26.7832 7.18546 26.7832 7.03763C26.7832 5.67422 26.7832 5.68244 28.0977 5.45247C30.7514 4.9761 33.3886 5.02538 36.0341 5.51817C36.6256 5.62495 36.9542 5.85492 36.8639 6.49555C36.8392 6.65981 36.8721 6.83229 36.8639 6.99656C36.8392 8.00679 36.9214 8.07249 37.8826 8.42567C38.7863 8.76241 39.6654 9.16486 40.5363 9.57552C40.9306 9.76443 41.2346 9.78907 41.5139 9.41947C41.5961 9.32091 41.6947 9.23878 41.7933 9.14843C42.7791 8.19569 42.9024 8.17105 43.9868 8.99238C45.8518 10.4051 47.5114 12.0149 48.8259 13.9614C49.1216 14.3885 49.0641 14.6677 48.6944 15.0127C47.4785 16.1379 47.5114 16.1297 48.2343 17.6081C48.604 18.3719 48.8998 19.185 49.1791 19.9899C49.3188 20.3842 49.5242 20.5649 49.9514 20.5484C50.3375 20.532 50.7319 20.5977 51.1262 20.5731C51.611 20.5484 51.8328 20.7538 51.9232 21.2219C52.375 23.6613 52.449 26.1006 52.0053 28.5481C51.9232 29.0163 51.6685 29.2298 51.192 29.1723C49.3517 28.9752 49.327 29.4845 49.0066 30.7493C48.8012 31.546 48.3986 32.3016 48.0454 33.0572C47.8564 33.4679 47.8646 33.7882 48.2097 34.1003C48.5301 34.3878 48.8094 34.7081 49.1298 34.9955C49.3927 35.2255 49.401 35.4637 49.2202 35.7265C47.6839 38.018 45.8189 39.9892 43.535 41.5662C43.1406 41.8372 42.8366 41.7797 42.508 41.4347C41.3825 40.2356 41.3907 40.2685 39.9119 40.9994C39.23 41.3362 38.5152 41.599 37.7922 41.8372C37.2746 42.0097 37.0692 42.2725 37.0857 42.8474C37.1185 44.6708 37.1925 44.5394 35.574 44.7693C34.3088 44.9911 33.0107 45.1061 31.6551 45.2621ZM28.4674 39.7674C27.9992 39.7592 27.5309 39.7182 27.0708 39.7674C25.9863 39.8824 25.1565 39.7182 24.6554 38.5437C24.2282 37.5581 23.2505 36.9996 22.4125 36.3425C19.7178 34.2071 17.9925 31.431 17.3106 28.0718C16.5054 24.0801 17.2202 20.3349 19.5535 16.9675C21.7388 13.7971 24.7786 11.8342 28.4921 10.9307C29.8477 10.6022 29.9134 10.6597 30.127 9.27163C30.2995 8.1382 30.3817 7.01298 31.4415 6.27379C31.5319 6.20808 31.5812 5.98633 31.5401 5.87956C31.499 5.78921 31.3019 5.70708 31.1786 5.71529C30.1024 5.82206 29.0343 5.95347 27.9663 6.07667C27.5637 6.12595 27.383 6.37235 27.3748 6.75837C27.3666 7.18546 27.4241 7.62076 27.3419 8.03964C27.3008 8.27783 27.0954 8.58993 26.8818 8.68849C25.6002 9.27163 24.2939 9.80549 23.004 10.364C22.6097 10.5365 22.2975 10.4872 22.0099 10.1669C21.747 9.87941 21.4431 9.6248 21.1884 9.32912C20.9419 9.04166 20.7201 9.03345 20.4243 9.24699C18.5183 10.6022 16.8423 12.2038 15.5278 14.1421C15.4292 14.2817 15.4538 14.6102 15.5606 14.7499C15.8318 15.1195 16.1768 15.448 16.5054 15.7683C16.8012 16.064 16.8176 16.335 16.6205 16.7128C16.144 17.6574 15.5278 18.5855 15.3224 19.5957C14.9773 21.2876 14.4844 21.3205 13.1042 21.1562C12.6441 21.0987 12.3976 21.2794 12.3072 21.7804C11.9622 23.7188 11.9375 25.6653 12.1676 27.6118C12.2826 28.5728 12.3319 28.6056 13.3178 28.6221C13.5807 28.6221 13.8436 28.6549 14.0983 28.6303C14.5255 28.5892 14.7719 28.7863 14.8623 29.1888C15.1663 30.544 15.651 31.817 16.374 33.0079C16.6287 33.435 16.5794 33.8703 16.2097 34.2317C15.9468 34.4945 15.6592 34.7327 15.3799 34.9709C15.0841 35.2173 15.0513 35.5048 15.2731 35.8004C16.6287 37.7059 18.2061 39.3979 20.1203 40.7613C20.5147 41.0405 20.8187 41.0077 21.1226 40.6216C21.328 40.3588 21.6156 40.1699 21.8374 39.9153C22.1496 39.5457 22.4372 39.5868 22.8562 39.8003C23.8502 40.2931 24.8608 40.7613 25.8959 41.1473C26.8654 41.5087 27.3419 42.1411 27.2269 43.1842C27.1447 43.948 27.2105 44.063 27.9745 44.1698C28.985 44.3094 30.0038 44.3997 31.0225 44.5065C31.4004 44.5476 31.6058 44.3915 31.6058 43.9644C31.5894 42.7571 31.5894 41.5497 31.6058 40.3342C31.614 39.8824 31.384 39.751 30.9814 39.751C30.1352 39.7757 29.3054 39.7674 28.4674 39.7674ZM35.3604 39.7674C34.506 39.7674 33.6515 39.7757 32.7889 39.7674C32.411 39.7674 32.1974 39.8989 32.2056 40.3177C32.2138 41.5497 32.2138 42.7735 32.2056 44.0055C32.2056 44.3751 32.3781 44.5147 32.7149 44.4901C33.4051 44.449 34.0952 44.4244 34.7689 44.3422C36.5024 44.1205 36.527 44.104 36.5106 42.3875C36.5024 41.8536 36.6995 41.6483 37.1596 41.4676C38.2605 41.0241 39.345 40.5395 40.4048 40.0138C41.325 39.5539 41.555 39.5539 42.278 40.3342C42.4012 40.4738 42.5409 40.6052 42.6559 40.7448C42.9106 41.0569 43.1735 41.1062 43.5185 40.8598C45.4574 39.4964 47.0677 37.8127 48.4233 35.8744C48.6205 35.5869 48.6205 35.3323 48.3493 35.0777C48.0125 34.7574 47.7003 34.4124 47.3635 34.0921C47.1088 33.8457 47.1252 33.5993 47.2567 33.2872C47.8153 31.932 48.3576 30.5768 48.8752 29.2052C49.0148 28.8438 49.1709 28.6303 49.5817 28.6467C49.9678 28.6631 50.3622 28.6221 50.7565 28.6467C51.2413 28.6713 51.4384 28.4907 51.5124 27.9896C51.8246 25.9445 51.7424 23.9077 51.4631 21.8708C51.3891 21.3615 51.118 21.1151 50.5922 21.1562C50.28 21.1809 49.9596 21.1398 49.6474 21.1809C49.0805 21.2466 48.8423 20.9427 48.7026 20.4581C48.3493 19.2015 47.9221 17.9777 47.1416 16.9017C46.8377 16.4829 46.8705 16.0558 47.2238 15.678C47.5031 15.3823 47.7989 15.103 48.1029 14.8238C48.3658 14.5774 48.3904 14.3146 48.1768 14.0353C47.9304 13.7068 47.6839 13.3865 47.421 13.0662C46.2872 11.6781 44.9891 10.4626 43.5268 9.41947C43.1078 9.12379 42.7545 9.12379 42.3848 9.48517C42.1054 9.75621 41.7933 10.0026 41.5304 10.2819C41.2921 10.5447 41.0785 10.5036 40.7827 10.3804C39.5093 9.82192 38.2277 9.27984 36.946 8.74598C36.5188 8.5735 36.2641 8.31068 36.2641 7.83431C36.2641 7.46471 36.2395 7.08691 36.2559 6.71731C36.2723 6.33129 36.108 6.11774 35.7301 6.07667C34.8592 5.9699 33.9966 5.85491 33.1257 5.781C32.8382 5.75636 32.5424 5.8467 32.2467 5.88777C32.4028 6.16702 32.5424 6.45448 32.7232 6.70909C32.9532 7.0212 33.364 7.2676 33.4379 7.59613C33.6187 8.3846 33.6762 9.20592 33.7255 10.019C33.7501 10.479 33.9226 10.7172 34.3581 10.7747C36.3545 11.0211 38.1455 11.826 39.8544 12.8362C41.44 13.7725 42.812 14.9634 43.9129 16.45C45.7532 18.9386 46.6076 21.7722 46.7473 24.8358C46.9445 29.3941 45.096 33.0572 41.7111 36.014C40.528 37.0489 39.2218 37.9688 38.5234 39.4636C38.4413 39.6278 38.0962 39.751 37.8744 39.7592C37.0364 39.7921 36.1984 39.7674 35.3604 39.7674ZM35.4754 35.168C35.574 35.3487 35.6069 35.4473 35.6644 35.5048C36.5434 36.3836 37.6115 36.9339 38.8356 37.1228C39.0657 37.1556 39.3614 37.0489 39.5586 36.9092C40.2487 36.4082 40.9306 35.8908 41.5796 35.3405C43.8307 33.4268 45.2438 30.9957 45.8271 28.1211C46.6569 24.0555 45.9504 20.2856 43.4282 16.9264C41.2346 14.0107 38.3427 12.1955 34.7771 11.4481C33.8734 11.2592 33.7912 11.3332 33.8241 12.2366C33.9473 15.5794 34.0705 18.9222 34.202 22.2732C34.202 22.3389 34.2431 22.4046 34.2841 22.5278C35.574 21.6079 36.8803 20.8523 38.4988 20.9345C38.2523 21.8543 38.0305 22.6757 37.7758 23.6366C38.5974 23.226 39.2218 22.8646 39.8872 22.61C40.5691 22.3553 41.2921 22.2075 41.9986 22.0186C42.0315 22.0761 42.0644 22.1336 42.0972 22.1911C42.0233 22.3471 41.9658 22.5196 41.8754 22.6675C40.9799 24.0555 40.6677 25.5585 40.8485 27.193C40.9388 28.0061 40.9963 28.8192 41.0045 29.6405C41.0128 30.5029 40.8813 31.3406 40.4295 32.1045C39.6654 33.4022 38.4413 34.0674 37.1021 34.5849C36.5845 34.7902 36.0587 34.9627 35.4754 35.168ZM29.4862 22.5525C29.5191 21.7147 29.5437 21.0166 29.5766 20.3267C29.6916 17.5752 29.8148 14.832 29.9134 12.0806C29.9463 11.2921 29.8888 11.2675 29.1329 11.4235C27.268 11.7931 25.5345 12.4584 23.9488 13.5179C20.9173 15.5383 18.773 18.2734 18.0007 21.8379C16.7683 27.5461 18.395 32.3755 23.0123 36.0879C24.6472 37.3938 24.9511 37.4349 26.7997 36.4904C27.3583 36.2029 27.9006 35.8415 28.2703 35.2091C27.4569 34.9052 26.7175 34.6588 26.0028 34.3549C23.9899 33.4925 22.7165 32.0798 22.7001 29.7801C22.6918 29.0902 22.7329 28.4003 22.8151 27.7186C23.0451 25.9281 22.8233 24.2362 21.8538 22.6757C21.7635 22.5278 21.7142 22.3553 21.6156 22.109C23.1848 22.2157 24.4829 22.8071 25.7152 23.5873C25.7645 23.5463 25.822 23.5052 25.8713 23.4559C25.6577 22.6428 25.4523 21.8297 25.2305 20.9837C25.3701 20.9591 25.4934 20.918 25.6084 20.9262C27.0297 21.0084 28.2374 21.6408 29.4862 22.5525ZM35.6972 28.7124C35.689 28.6138 35.689 28.3921 35.6726 28.1703C35.4508 25.2628 33.9144 22.9796 32.1809 20.7866C31.9591 20.5074 31.7701 20.5649 31.5483 20.8277C30.2913 22.3553 29.1904 23.9816 28.5414 25.8706C27.8184 27.9568 27.8184 30.0183 28.8289 32.0388C29.5191 33.4104 30.5296 34.511 31.6223 35.5458C31.7209 35.6362 32.0495 35.6198 32.1727 35.5212C32.5342 35.2337 32.8546 34.897 33.1668 34.552C34.6456 32.934 35.7054 31.1189 35.6972 28.7124ZM29.2151 33.9771C29.1986 33.9114 29.2069 33.8621 29.1822 33.8211C29.0425 33.5829 28.8864 33.3447 28.7468 33.1065C27.7773 31.5213 27.3008 29.8294 27.4898 27.9486C27.6459 26.4209 28.1635 25.0164 28.8864 23.6859C29.1329 23.2424 29.1001 22.9303 28.6153 22.6839C28.0485 22.3964 27.5144 22.0597 26.9476 21.7886C26.7175 21.6819 26.4382 21.6736 26.0931 21.5997C26.1506 21.8708 26.1671 22.0186 26.2081 22.15C26.5286 23.1931 26.545 24.228 26.2821 25.2875C26.0685 26.117 25.8795 26.9548 25.7234 27.7925C25.1812 30.8232 26.6025 32.7451 29.2151 33.9771ZM37.4718 21.6244C36.5352 21.7476 35.804 22.2568 35.0482 22.7249C34.6703 22.9631 34.6292 23.226 34.8264 23.612C35.1304 24.2033 35.4343 24.8029 35.6644 25.4353C36.4777 27.6693 36.5434 29.9115 35.5494 32.1209C35.2536 32.7698 34.8675 33.3693 34.5224 33.9853C35.763 33.4268 36.8063 32.663 37.4882 31.4967C38.2687 30.1579 38.1701 28.7206 37.8744 27.2669C37.5047 25.4682 36.9707 23.6777 37.5375 21.8215C37.5458 21.7886 37.5211 21.7476 37.4718 21.6244ZM28.1799 34.4453C28.1963 34.396 28.2128 34.3549 28.2292 34.3056C28.0977 34.2071 27.9663 34.1085 27.8348 34.0182C25.7398 32.5234 24.6636 30.5604 25.099 27.9321C25.2633 26.9383 25.5098 25.9692 25.6823 24.9754C25.7234 24.7618 25.6906 24.4497 25.5509 24.3101C24.8115 23.5873 23.8913 23.1767 22.7658 22.881C22.8726 23.226 22.9301 23.4477 23.0123 23.6695C23.4312 24.7865 23.6284 25.9281 23.4805 27.119C23.4066 27.7104 23.3409 28.3017 23.2998 28.8931C23.193 30.5768 23.4805 32.1209 25.0497 33.0736C25.822 33.5418 26.6682 33.895 27.498 34.2728C27.7034 34.3796 27.9499 34.396 28.1799 34.4453ZM40.9306 22.8974C39.8626 23.1602 38.9342 23.5955 38.1619 24.3019C38.0223 24.4251 37.9976 24.7536 38.0305 24.9672C38.1291 25.5914 38.2605 26.2074 38.4166 26.8234C39.1396 29.6734 38.5809 32.0881 36.0669 33.8539C35.8533 34.0017 35.6726 34.1906 35.4836 34.3631C36.7571 34.1167 37.9155 33.6896 38.926 32.9422C40.2487 31.9649 40.5034 30.5522 40.4295 29.0163C40.3719 27.7597 40.2569 26.4948 40.3226 25.2382C40.3555 24.4908 40.6924 23.7516 40.9306 22.8974ZM33.7419 35.9893C34.3088 36.4329 34.8017 36.8682 35.344 37.2378C36.0752 37.7306 36.0916 37.7059 35.7547 38.5437C35.5658 39.0118 35.6479 39.1515 36.1409 39.1843C36.4202 39.2007 36.6995 39.1925 36.9789 39.2172C37.858 39.2829 38.277 39.02 38.622 38.2069C38.7535 37.903 38.7206 37.7141 38.3591 37.6402C37.1185 37.3938 36.0752 36.8025 35.2043 35.8744C34.736 35.3569 34.4567 35.3898 33.7419 35.9893ZM30.0202 36.014C29.3712 35.4473 29.0261 35.4144 28.5907 35.8497C27.6787 36.7696 26.6025 37.3774 25.3373 37.6649C25.2305 37.6895 25.1401 37.7552 24.9922 37.8209C25.0662 38.0262 25.1072 38.2234 25.2058 38.3876C25.6248 39.0858 27.1858 39.5128 27.9006 39.1268C27.9909 39.0775 28.0731 38.8804 28.0567 38.7654C28.032 38.593 27.9499 38.4123 27.8513 38.2562C27.6212 37.8948 27.7034 37.6895 28.0649 37.4513C28.7221 37.0242 29.3301 36.5232 30.0202 36.014ZM31.5812 37.5827C31.5812 37.4349 31.5648 37.1885 31.5894 36.9503C31.6305 36.5971 31.4826 36.3343 31.1622 36.2768C30.9075 36.2357 30.5707 36.2768 30.3735 36.4164C29.8066 36.8271 29.3054 37.3281 28.7468 37.7552C28.4592 37.977 28.4428 38.1823 28.5989 38.4698C28.9275 39.0693 29.4451 39.2172 30.0942 39.2089C31.5648 39.1843 31.6469 39.1186 31.5812 37.5827ZM32.2056 37.7388C32.2138 38.0919 32.1809 38.4451 32.2302 38.7901C32.2467 38.9297 32.4192 39.1515 32.526 39.1597C33.1915 39.1925 33.8816 39.2582 34.5142 39.1186C34.7935 39.0529 34.9907 38.5437 35.1796 38.2069C35.2289 38.1166 35.1468 37.8784 35.0482 37.7963C34.4977 37.3035 33.9391 36.8189 33.3476 36.3754C33.175 36.244 32.8382 36.1618 32.6657 36.244C32.4603 36.3343 32.2959 36.6218 32.2302 36.8517C32.1481 37.131 32.2056 37.4431 32.2056 37.7388ZM31.803 9.02523C32.7725 9.02523 32.9039 8.95131 32.8957 8.40103C32.8875 7.80967 32.2877 6.84872 31.9098 6.82408C31.499 6.79944 30.9321 7.74396 30.8993 8.40924C30.8664 9.16486 31.3758 9.00881 31.803 9.02523ZM33.1915 10.6022C33.1422 10.6022 33.0847 10.6022 33.0354 10.6022C33.0354 11.136 33.0271 11.6699 33.0354 12.212C33.0929 15.0209 33.1586 17.8298 33.2325 20.6388C33.2407 20.877 33.3393 21.1234 33.3968 21.3615C33.4708 21.3451 33.5447 21.3287 33.6187 21.3205C33.4708 17.7477 33.3311 14.1749 33.1915 10.6022ZM30.5789 10.2326C30.4392 13.9368 30.2913 17.6327 30.1517 21.3369C30.6117 20.8852 30.9321 11.982 30.5789 10.2326ZM31.5565 9.92048C31.499 9.92048 31.4415 9.92048 31.384 9.92048C31.3019 13.2879 31.2197 16.6553 31.1375 20.0228C31.2361 20.0392 31.3347 20.0474 31.4333 20.0639C31.4826 19.8421 31.573 19.6203 31.573 19.3986C31.5894 16.4829 31.5894 13.5672 31.5894 10.6515C31.5894 10.4133 31.573 10.1669 31.5565 9.92048ZM32.3863 9.85477C32.3452 9.84656 32.3042 9.83835 32.2631 9.83013C32.2467 9.89584 32.2138 9.96976 32.2138 10.0355C32.2056 13.214 32.2056 16.3925 32.2138 19.5793C32.2138 19.7517 32.3206 19.916 32.3781 20.0885C32.452 20.0721 32.5178 20.0638 32.5917 20.0474C32.5178 16.6471 32.452 13.2468 32.3863 9.85477Z" fill="#F9F0E0"/>
<path d="M51.5945 51.9809C50.9783 52.8351 50.2471 53.4182 49.4338 53.911C47.1581 55.2991 44.7591 55.5455 42.2533 54.6667C40.528 54.0589 39.0656 53.0076 37.6608 51.8659C36.7652 51.135 35.804 50.5436 34.5799 50.6504C34.3498 50.6668 34.1116 50.7325 33.8405 50.8968C34.1527 51.1021 34.4566 51.3156 34.7853 51.5045C36.8145 52.6708 38.6056 54.141 40.2487 55.7919C40.5691 56.1122 40.602 56.3422 40.3144 56.6871C39.5668 57.5824 39.4353 57.5988 38.6631 56.7282C37.1103 54.9705 35.4425 53.3361 33.5201 51.9809C32.3781 51.176 31.9837 51.176 30.8171 51.9563C28.7139 53.369 26.89 55.0691 25.3783 57.0978C25.0169 57.5824 24.8443 57.5741 24.4007 57.1388C23.6366 56.3832 23.6366 56.3175 24.4007 55.5455C26.0931 53.8207 27.9827 52.3669 30.0777 51.1678C30.2338 51.0775 30.3817 50.9789 30.661 50.8064C29.9052 50.5436 29.2233 50.4943 28.6646 50.79C27.6048 51.3567 26.545 51.9563 25.6166 52.7037C23.8009 54.1574 21.8703 55.2826 19.4877 55.3566C16.8916 55.4469 14.698 54.486 12.8988 52.6215C12.8248 52.5476 12.7919 52.4409 12.6934 52.2684C12.9398 52.3341 13.1041 52.3505 13.2438 52.4162C15.9303 53.6482 18.5511 53.3854 21.1308 52.0713C22.889 51.176 24.68 50.3629 26.6271 49.9276C28.221 49.5744 29.8066 49.558 31.3676 50.0672C31.9262 50.2479 32.4192 50.2479 32.986 50.059C35.0235 49.3855 37.0692 49.4841 39.0656 50.1986C40.4952 50.7079 41.9 51.3156 43.2803 51.9645C45.9832 53.254 48.6615 53.4347 51.3645 51.9809C51.3891 51.9645 51.4302 51.9809 51.5945 51.9809Z" fill="#F9F0E0"/>
<path d="M54.6426 34.4209C54.2811 36.6549 53.9771 38.7246 53.6074 40.7944C53.2952 42.5438 52.3833 44.0058 51.2495 45.3445C51.1345 45.4842 51.0113 45.6238 50.9373 45.8373C51.0359 45.788 51.1592 45.7634 51.2331 45.6813C52.8105 43.9893 54.8398 42.9545 56.828 41.8703C58.7258 40.8355 60.4593 39.6117 61.6095 37.7144C61.6423 37.6569 61.7081 37.6241 61.7574 37.5748C61.8066 37.5912 61.8477 37.6159 61.897 37.6323C61.7656 38.0758 61.6834 38.544 61.4862 38.9628C60.0321 42.1331 57.9124 44.6957 54.6426 46.1248C53.8785 46.4615 53.0652 46.6915 52.26 46.8968C51.0852 47.1843 49.8939 47.4061 48.7109 47.6525C48.5877 47.6771 48.4644 47.6935 48.2344 47.7264C48.6452 47.1186 49.0313 46.6094 49.3517 46.0591C50.3129 44.4 50.8387 42.5767 51.3399 40.7451C51.915 38.6343 52.9009 36.737 54.1743 34.9712C54.2811 34.8151 54.4208 34.6755 54.6426 34.4209Z" fill="#F9F0E0"/>
<path d="M9.62879 34.9795C10.0478 35.5955 10.4914 36.2033 10.894 36.8275C12.0031 38.5523 12.6439 40.466 13.2026 42.4207C13.7284 44.2605 14.4596 45.9935 15.6919 47.4801C15.7659 47.5622 15.8152 47.6608 15.8727 47.7593C15.8891 47.784 15.8727 47.825 15.8727 47.9072C14.4514 47.6443 13.0136 47.439 11.6088 47.1187C6.83546 46.0427 3.95998 42.9135 2.30863 38.4619C2.25934 38.3223 2.25934 38.1662 2.21826 37.887C2.39079 38.0266 2.45652 38.0595 2.48938 38.117C3.64779 40.1456 5.52096 41.3366 7.52558 42.3714C9.24265 43.2585 10.9433 44.1783 12.3646 45.5253C12.455 45.6157 12.5618 45.6978 12.6686 45.7717C12.8247 45.8703 12.9808 45.9606 13.219 45.9853C13.0136 45.7553 12.8 45.5253 12.5946 45.2953C11.313 43.8416 10.6147 42.125 10.3107 40.236C10.0314 38.5194 9.7931 36.7946 9.5302 35.0698C9.56306 35.037 9.59593 35.0041 9.62879 34.9795Z" fill="#F9F0E0"/>
<path d="M9.77682 42.4041C9.06206 41.9113 8.42946 41.476 7.79685 41.0407C6.10442 39.858 4.42843 38.6588 3.01534 37.1394C1.40507 35.4146 0.410972 33.3859 0.0494829 31.0698C-0.0573207 30.3552 0.0330515 29.5996 0.106992 28.844C0.254874 29.1889 0.410972 29.5421 0.558854 29.8871C1.2654 31.4804 2.40738 32.7535 3.574 34.0101C4.76527 35.2996 5.85795 36.6548 6.69595 38.1989C6.80276 38.3878 6.95885 38.5438 7.14781 38.7738C7.16424 38.6424 7.18889 38.5849 7.17246 38.5438C6.07978 36.3345 6.11264 34.0183 6.53164 31.6694C6.74525 30.4291 6.96707 29.1972 7.20532 27.8584C7.65718 28.9508 7.90365 30.0103 8.01867 31.0944C8.24871 33.312 8.38838 35.546 8.70057 37.7554C8.88953 39.0859 9.32496 40.3836 9.66181 41.6977C9.69467 41.8209 9.75218 41.9441 9.78504 42.0673C9.79326 42.133 9.77682 42.207 9.77682 42.4041Z" fill="#F9F0E0"/>
<path d="M40.1582 49.5334C40.4786 49.4184 40.799 49.2788 41.1277 49.1885C42.968 48.6792 44.266 47.4226 45.5395 46.0921C46.8458 44.7287 48.2013 43.4063 49.5405 42.0758C49.6802 41.9361 49.8527 41.8294 50.1074 41.7637C49.7787 42.5357 49.4994 43.3324 49.1215 44.088C48.6039 45.1311 48.0781 46.1742 47.4373 47.1434C46.8375 48.0468 45.9256 48.6053 44.8822 48.9421C44.685 49.0078 44.4879 49.1063 44.2989 49.1802C44.3153 49.2295 44.3318 49.2788 44.34 49.3281C44.874 49.2213 45.3998 49.0899 45.942 49.0242C47.6755 48.8106 49.4173 48.6053 51.1508 48.4246C53.2293 48.2111 55.1518 47.6362 56.7292 46.1578C56.7703 46.1906 56.8113 46.2235 56.8524 46.2481C56.6717 46.5602 56.532 46.897 56.3102 47.1762C53.6648 50.5026 50.3045 52.022 46.0488 51.1186C44.0771 50.6997 42.13 50.1412 40.1664 49.6484C40.1664 49.6238 40.1582 49.5827 40.1582 49.5334Z" fill="#F9F0E0"/>
<path d="M24.0227 49.8617C23.6366 49.9603 23.2505 50.0589 22.8725 50.1492C20.9747 50.6009 19.0933 51.1676 17.1709 51.488C14.2543 51.9643 11.6335 51.1348 9.43993 49.1554C8.72517 48.5148 8.15007 47.7263 7.52568 46.9953C7.41066 46.8639 7.35315 46.6914 7.36137 46.4532C7.60784 46.6504 7.85431 46.8557 8.10899 47.0446C9.63711 48.2027 11.4363 48.5969 13.2849 48.7447C15.5113 48.9172 17.746 49.0158 19.9231 49.5743C19.9724 49.5907 20.0299 49.5661 20.1203 49.4675C19.9313 49.3936 19.7506 49.295 19.5616 49.2375C17.8528 48.7612 16.6944 47.6195 15.8974 46.1001C15.2238 44.8188 14.6569 43.48 14.0407 42.1741C14.0325 42.1495 14.0571 42.1084 14.0982 41.9277C14.698 42.4452 15.2813 42.8805 15.7989 43.3897C17.0558 44.6299 18.2882 45.8865 19.5041 47.1596C20.6297 48.3423 22.0592 48.9911 23.5462 49.5578C23.7105 49.6236 23.8748 49.681 24.0392 49.7468C24.0227 49.7796 24.0227 49.8207 24.0227 49.8617Z" fill="#F9F0E0"/>
<path d="M56.9922 27.4151C57.2798 29.567 57.6084 31.7106 57.8302 33.8625C57.9699 35.2177 57.633 36.5236 57.1155 37.772C57.0497 37.9363 56.9922 38.1088 57.0415 38.3387C57.4852 37.6488 57.8877 36.9178 58.3807 36.269C59.3173 35.0452 60.2703 33.8379 61.2808 32.6798C62.3078 31.5053 63.1786 30.2569 63.7373 28.7949C63.7537 28.7538 63.803 28.721 63.9673 28.6881C63.9673 29.2713 64.0002 29.8544 63.9591 30.4294C63.7866 32.7291 62.7185 34.6345 61.3219 36.4004C59.7527 38.3716 57.6413 39.6693 55.6449 41.1148C55.2587 41.3941 54.8726 41.6733 54.4289 41.9936C54.4289 41.8376 54.4125 41.7801 54.4289 41.7308C55.5216 38.9794 55.5463 36.0636 55.8256 33.189C55.9981 31.456 56.3514 29.7477 56.6307 28.0229C56.6718 27.8011 56.795 27.5876 56.8772 27.374C56.9183 27.3904 56.9594 27.4069 56.9922 27.4151Z" fill="#F9F0E0"/>
<path d="M7.3942 19.5222C7.36134 20.2121 7.35312 20.8117 7.30383 21.403C7.06557 24.2366 6.35081 26.9634 5.57032 29.682C5.1924 30.9961 5.01166 32.3349 5.16776 33.7065C5.17597 33.7886 5.15954 33.879 5.0363 34.0104C4.83091 33.7147 4.63374 33.419 4.42835 33.1316C3.55749 31.9489 2.6209 30.8072 1.8322 29.5752C0.63271 27.7026 0.106908 25.5918 0.0165359 23.3906C-0.0409738 21.8876 -0.114915 20.3764 0.378025 18.9144C0.44375 18.7091 0.509475 18.512 0.640926 18.3066C0.599848 20.6638 1.61037 22.7007 2.41551 24.8198C2.97417 26.3064 3.29458 27.8833 3.7218 29.4192C3.79574 29.6984 3.85325 29.9859 4.00935 30.2569C3.99292 29.9038 3.9847 29.5424 3.96005 29.1892C3.80396 26.8649 4.63374 24.8198 5.70177 22.8239C6.26044 21.7891 6.78624 20.7049 7.3942 19.5222Z" fill="#F9F0E0"/>
<path d="M63.4661 17.7563C63.5894 18.167 63.7865 18.5777 63.8276 18.9965C64.0741 21.8219 64.263 24.6719 63.0882 27.3494C62.5049 28.6636 61.6505 29.8545 60.87 31.07C60.2949 31.9735 59.6458 32.8277 58.89 33.6736C58.8818 33.5258 58.8489 33.378 58.8654 33.2301C59.0872 31.5628 58.7668 29.9612 58.2738 28.3925C57.4605 25.7889 56.8689 23.1525 56.6143 20.4339C56.5814 20.13 56.6143 19.8179 56.7375 19.4729C56.8443 19.6947 56.9347 19.9164 57.0497 20.13C57.7809 21.5098 58.5039 22.8896 59.2433 24.2612C60.0977 25.8464 60.3113 27.5301 60.1141 29.2878C60.0977 29.4192 60.0977 29.5424 60.1634 29.7066C60.2209 29.567 60.3031 29.4356 60.3195 29.296C60.6071 27.0209 61.404 24.9019 62.2749 22.7993C62.9075 21.2716 63.2854 19.6865 63.2854 18.0274C63.2854 17.9453 63.31 17.8631 63.3265 17.781C63.3675 17.7728 63.4168 17.7646 63.4661 17.7563Z" fill="#F9F0E0"/>
<path d="M60.1223 8.55713C60.2783 8.77889 60.4427 8.98422 60.5823 9.21419C62.8581 12.8773 63.0552 16.7129 61.5764 20.7127C61.2642 21.5423 61.0506 22.4129 60.8041 23.2671C60.6973 23.6202 60.6152 23.9734 60.4673 24.3348C59.769 21.7148 57.9862 19.7436 56.6059 17.5342C55.7022 16.0887 55.045 14.5364 54.6835 12.8691C54.6588 12.7623 54.6506 12.6555 54.626 12.4831C54.741 12.5488 54.8149 12.5652 54.856 12.6063C55.924 13.7397 56.9674 14.8978 58.0519 16.0148C59.1364 17.1236 59.8676 18.3966 60.114 19.9407C60.1387 20.0803 60.1962 20.22 60.3112 20.3596C60.3112 20.0885 60.3441 19.8093 60.303 19.5465C60.0154 17.37 60.2537 15.2017 60.418 13.0334C60.533 11.5385 60.5084 10.0684 59.9826 8.63926C60.0401 8.61462 60.0812 8.58998 60.1223 8.55713Z" fill="#F9F0E0"/>
<path d="M3.59866 24.6554C3.28647 23.719 2.98249 22.8649 2.7278 22.0025C2.29237 20.4912 1.74192 18.9882 1.49545 17.4359C1.02716 14.4545 1.84873 11.7277 3.49186 9.22265C3.54115 9.14873 3.60688 9.07481 3.6726 9.0091C3.68903 8.99268 3.73833 9.00089 3.82048 8.99268C3.7219 9.34585 3.62331 9.67438 3.54115 10.0111C3.22074 11.317 3.27004 12.6311 3.459 13.9453C3.76297 16.0479 3.89443 18.1587 3.6726 20.2859C3.64796 20.5159 3.6726 20.7458 3.6726 21.1401C3.90264 20.327 4.04231 19.6535 4.27235 19.0211C4.78172 17.6494 5.71009 16.5571 6.69597 15.5058C7.41894 14.7337 8.12549 13.9453 8.84025 13.165C8.89776 13.0993 8.9717 13.0582 9.16066 13.05C9.07851 13.4525 9.021 13.8631 8.91419 14.2656C8.43769 16.13 7.50932 17.7809 6.4495 19.3578C5.38146 20.943 4.3545 22.5281 3.77941 24.3597C3.75476 24.4418 3.68903 24.5075 3.59866 24.6554Z" fill="#F9F0E0"/>
<path d="M51.8162 6.26585C52.6049 7.04611 53.3114 7.85922 54.1412 8.5245C55.4803 9.58401 56.8688 10.5778 57.945 11.9741C57.7643 11.1856 57.5753 10.3971 57.3946 9.60864C57.1974 8.75447 57.0002 7.9085 56.8113 7.05432C56.532 5.82233 56.0719 4.68069 55.1435 3.76081C55.1764 3.71974 55.2174 3.67046 55.2503 3.62939C55.5379 3.76081 55.8501 3.85115 56.1047 4.03184C58.2901 5.55951 59.3581 7.71138 59.4321 10.3396C59.4732 11.6045 59.3581 12.8693 59.3253 14.1341C59.3088 14.7255 59.3253 15.3169 59.3253 16.0396C58.9309 15.5304 58.6434 15.0622 58.2655 14.6926C57.1646 13.6414 56.0554 12.6065 54.9052 11.6045C53.4264 10.3232 52.383 8.78732 51.9394 6.87363C51.8737 6.6683 51.849 6.46297 51.8162 6.26585Z" fill="#F9F0E0"/>
<path d="M11.8553 7.08725C11.8471 7.65396 11.5431 8.44243 11.1323 9.19805C10.3929 10.5697 9.34133 11.6785 8.19936 12.738C7.04095 13.8057 5.99756 14.9884 4.90488 16.1218C4.83093 16.1957 4.77343 16.2779 4.65019 16.3354C4.69948 13.9042 4.14082 11.5142 4.59268 9.09949C4.99525 6.93119 6.19473 5.34604 8.05147 4.21261C8.18292 4.13047 8.34724 4.09762 8.57728 4.12226C8.34724 4.43436 8.10898 4.73825 7.89538 5.06678C7.22169 6.10166 6.95058 7.27615 6.70411 8.46707C6.40834 9.87975 6.12079 11.2924 5.8086 12.8201C6.21938 12.2452 6.51515 11.6785 6.95058 11.2596C7.82144 10.43 8.76624 9.67442 9.68639 8.89416C10.4422 8.25353 11.2145 7.61289 11.8553 7.08725Z" fill="#F9F0E0"/>
<path d="M48.8586 0.467285C52.2435 0.63155 56.3267 5.39524 56.2363 9.04192C52.9993 6.83256 51.3151 3.34192 48.8586 0.467285Z" fill="#F9F0E0"/>
<path d="M14.7882 0.713867C14.5992 0.984905 14.5089 1.11632 14.4185 1.24773C13.4819 2.56185 12.5371 3.86776 11.6252 5.19009C10.5325 6.77525 9.1769 8.09758 7.68165 9.32136C7.4434 8.5411 8.2321 5.83072 9.2837 4.3934C10.6311 2.53721 12.4385 1.37914 14.7882 0.713867Z" fill="#F9F0E0"/>
</g>
<defs>
<clipPath id="clip0_942_600">
<rect width="64" height="57" fill="white" transform="translate(0 0.5)"/>
</clipPath>
</defs>
</svg>
