<svg width="301" height="126" viewBox="0 0 301 126" fill="none" xmlns="http://www.w3.org/2000/svg">
<g filter="url(#filter0_d_603_749)">
<rect x="36.0188" y="55.4658" width="235.847" height="54.5274" rx="20" transform="rotate(2.80781 36.0188 55.4658)" fill="#597F8E"/>
<rect x="36.4937" y="55.9897" width="234.847" height="53.5274" rx="19.5" transform="rotate(2.80781 36.4937 55.9897)" stroke="black"/>
</g>
<path d="M82.3082 69.4252C91.8626 69.7737 97.7872 73.9088 97.4893 79.9815C97.1856 86.1741 91.9812 89.403 82.992 88.9622L81.2741 88.8779L80.9312 95.8695C80.6353 101.902 80.8511 104.035 81.155 104.371L81.153 104.411C80.3356 103.93 79.3086 103.639 78.0701 103.579C76.2723 103.49 74.331 103.876 72.3264 104.739L72.3283 104.699C73.1325 103.817 73.8207 102.85 74.393 101.796C74.9653 100.743 75.3402 97.9982 75.5557 93.6035L76.5256 73.8272C70.5007 73.3715 66.7377 75.7901 66.5771 79.0662C66.485 80.9439 67.8605 82.2929 69.4625 82.2914C70.2635 82.2906 70.9604 81.9644 71.2635 81.4987C71.3031 83.1426 71.5517 86.2385 72.63 87.9333C71.301 87.2674 70.4103 87.464 69.4514 87.417C64.3775 87.1682 60.8626 83.7118 61.0938 78.9975C61.4074 72.6052 68.1973 68.8933 78.8304 69.2947L82.3082 69.4252ZM84.0125 84.4868C87.8878 84.6768 91.8317 83.4686 91.9963 80.1126C92.1746 76.477 87.6401 74.2121 83.0057 73.9848L82.0069 73.9359L81.4955 84.3633L84.0125 84.4868ZM105.285 96.7436C105.205 98.3816 105.474 99.436 105.778 99.7713L105.776 99.8113C105.264 99.626 104.269 99.4971 102.791 99.4246C101.313 99.3521 100.15 99.3752 99.3434 99.4958L99.3454 99.4558C99.6807 99.1519 100.011 98.1269 100.092 96.4888L100.797 82.1061C100.877 80.4681 100.649 79.4156 100.345 79.0803L100.347 79.0404C101.138 79.2394 102.293 79.3761 103.771 79.4486C105.249 79.5211 106.252 79.4902 106.779 79.3559L106.777 79.3958C106.442 79.6997 106.071 80.7228 105.991 82.3609L105.285 96.7436ZM109.459 89.8197C109.783 83.2276 114.008 79.5502 120.88 79.8872C127.751 80.2242 131.556 84.2955 131.233 90.8876C130.916 97.3598 126.772 101.001 119.901 100.664C113.029 100.327 109.144 96.252 109.459 89.8197ZM114.655 90.0345C114.453 94.1495 116.473 96.251 120.108 96.4293C123.664 96.6037 125.839 94.708 126.041 90.5929C126.247 86.398 124.268 84.2985 120.712 84.1241C117.076 83.9458 114.859 85.8795 114.655 90.0345ZM139.888 98.5208C139.81 100.119 140.077 101.213 140.381 101.549L140.379 101.588C139.867 101.403 138.872 101.274 137.394 101.202C135.916 101.129 134.753 101.152 133.946 101.273L133.948 101.233C134.284 100.929 134.616 99.8641 134.695 98.266L135.547 80.8869C136.3 81.044 136.66 81.0616 137.219 81.0891C137.778 81.1165 138.3 81.102 138.863 81.0495L149.014 92.921L149.427 84.4912C149.507 82.8531 149.279 81.8007 148.975 81.4654L148.977 81.4254C149.768 81.6244 150.923 81.7612 152.401 81.8337C153.879 81.9062 154.882 81.8752 155.409 81.7409L155.407 81.7809C155.072 82.0848 154.701 83.1079 154.621 84.7459L153.768 102.125C153.255 101.98 152.696 101.952 152.136 101.925C151.577 101.897 151.137 101.876 150.452 101.962L140.302 90.0909L139.888 98.5208ZM165.045 82.5739C165.884 82.6151 175.267 83.1954 175.812 82.7015L175.852 82.7035C175.662 83.2949 175.536 84.2498 175.475 85.4883C175.422 86.567 175.481 87.8114 175.694 89.1835L175.654 89.1816C175.383 88.1671 173.79 87.1679 172.152 87.0875L164.444 86.6694L164.248 90.6646L170.36 90.9644C171.998 91.0447 173.053 90.7761 173.348 90.4702L173.388 90.4721C173.243 90.9856 173.122 91.8207 173.065 92.9793C173.006 94.1778 173.045 95.0208 173.141 95.5061L173.101 95.5041C172.837 95.1708 171.812 94.8402 170.174 94.7598L164.062 94.46L163.873 98.2954L171.826 98.6454C172.665 98.6865 173.508 98.6478 174.355 98.5291C175.199 98.4504 175.908 97.8845 176.4 96.8273L176.44 96.8293C176.09 98.2538 175.904 99.6063 175.843 100.845C175.782 102.083 175.821 102.926 175.961 103.334L175.921 103.332C175.617 102.996 174.579 102.945 172.941 102.865L160.715 102.265C159.636 102.213 158.674 102.245 157.867 102.366L157.869 102.326C158.204 102.022 158.535 100.997 158.615 99.3591L159.32 84.9764C159.401 83.3384 159.172 82.2859 158.868 81.9506L158.87 81.9107C160.211 82.3368 163.487 82.4975 165.045 82.5739ZM186.504 83.6264C187.343 83.6675 196.725 84.2478 197.27 83.7539L197.31 83.7559C197.121 84.3473 196.994 85.3023 196.933 86.5408C196.88 87.6195 196.94 88.8639 197.153 90.236L197.113 90.234C196.842 89.2195 195.249 88.2203 193.611 88.1399L185.902 87.7218L185.706 91.717L191.819 92.0168C193.457 92.0972 194.511 91.8285 194.807 91.5226L194.847 91.5245C194.701 92.038 194.58 92.8731 194.524 94.0317C194.465 95.2303 194.503 96.0732 194.6 96.5585L194.56 96.5565C194.296 96.2232 193.271 95.8926 191.633 95.8123L185.52 95.5125L185.332 99.3479L193.284 99.6978C194.123 99.739 194.966 99.7002 195.813 99.5816C196.658 99.5029 197.367 98.9369 197.859 97.8797L197.899 97.8817C197.549 99.3062 197.362 100.659 197.302 101.897C197.241 103.136 197.28 103.979 197.42 104.386L197.38 104.384C197.076 104.049 196.037 103.998 194.399 103.917L182.174 103.318C181.095 103.265 180.132 103.298 179.325 103.418L179.327 103.379C179.663 103.075 179.993 102.05 180.074 100.412L180.779 86.0288C180.859 84.3908 180.631 83.3383 180.327 83.003L180.329 82.9631C181.669 83.3893 184.945 83.5499 186.504 83.6264ZM200.786 104.431C201.121 104.127 201.452 103.102 201.532 101.464L202.238 87.0813C202.318 85.4432 202.089 84.3908 201.785 84.0555L201.787 84.0155C202.419 84.2067 204.932 84.41 207.489 84.5354L213.641 84.8372C219.195 85.1095 221.659 87.1127 221.46 91.1878C221.307 94.304 219.685 96.347 216.453 96.9094L221.542 104.207C221.84 104.663 222.26 105.084 222.718 105.547L222.676 105.585C222.006 105.352 220.572 105.201 218.335 105.091C216.856 105.019 215.892 105.092 215.522 105.274L215.484 105.232C215.753 104.644 215.391 103.866 214.719 102.872L210.901 97.4381L206.945 97.2441L206.726 101.719C206.646 103.357 206.914 104.411 207.218 104.746L207.216 104.786C206.705 104.601 205.71 104.472 204.232 104.4C202.753 104.327 201.591 104.35 200.784 104.471L200.786 104.431ZM213.699 93.4504C215.138 93.5209 216.17 92.8907 216.244 91.3725C216.319 89.8544 215.395 89.0882 213.757 89.0079L207.367 88.6544L207.147 93.129L213.699 93.4504ZM235.056 85.487C239.81 85.7201 242.37 87.4076 243.655 87.3504L243.693 87.3924C242.551 88.6179 241.07 91.0683 240.546 92.7646L240.506 92.7627C240.131 91.4227 239.043 89.9276 234.808 89.7199C232.451 89.6043 231.311 89.9889 231.264 90.9478C231.23 91.627 231.732 92.012 233.185 92.6039L237.819 94.4731C241.707 96.0255 243.147 97.698 243.02 100.295C242.828 104.21 239.271 106.519 233.757 106.248C227.525 105.943 225.005 102.615 223.458 102.299L223.46 102.259C224.233 102.017 226.6 100.291 227.2 98.678L227.24 98.68C227.615 100.02 230.169 101.827 234.284 102.029C236.722 102.149 237.87 101.604 237.923 100.525C237.966 99.6465 237.278 98.972 235.823 98.4201L231.457 96.8043C227.523 95.3698 225.927 93.6095 226.06 90.8928C226.242 87.1773 229.542 85.2166 235.056 85.487Z" fill="white"/>
<g filter="url(#filter1_d_603_749)">
<rect x="0.499878" y="3" width="295" height="54" rx="20" fill="#8D314D"/>
<rect x="0.999878" y="3.5" width="294" height="53" rx="19.5" stroke="black"/>
</g>
<path d="M56.0394 14.04C65.5994 13.92 71.7194 17.76 71.7194 23.84C71.7194 30.04 66.6794 33.52 57.6794 33.52H55.9594V40.52C55.9594 46.56 56.2794 48.68 56.5994 49V49.04C55.7594 48.6 54.7194 48.36 53.4794 48.36C51.6794 48.36 49.7594 48.84 47.7994 49.8V49.76C48.5594 48.84 49.1994 47.84 49.7194 46.76C50.2394 45.68 50.4794 42.92 50.4794 38.52V18.72C44.4394 18.56 40.7994 21.16 40.7994 24.44C40.7994 26.32 42.2394 27.6 43.8394 27.52C44.6394 27.48 45.3194 27.12 45.5994 26.64C45.7194 28.28 46.1194 31.36 47.2794 33C45.9194 32.4 45.0394 32.64 44.0794 32.64C38.9994 32.64 35.3194 29.36 35.3194 24.64C35.3194 18.24 41.9194 14.2 52.5594 14.08L56.0394 14.04ZM58.4794 29C62.3594 29 66.2394 27.6 66.2394 24.24C66.2394 20.6 61.5994 18.56 56.9594 18.56H55.9594V29H58.4794ZM90.2228 40.2C90.8628 41.76 91.6228 42.88 91.9428 43.2V43.24C91.1428 43.08 89.9828 43 88.4228 43C86.7828 43 85.7028 43.08 85.1828 43.24V43.2C85.5028 42.88 85.3028 41.76 84.7028 40.2L84.3028 39.16H76.3828L75.9828 40.2C75.3828 41.76 75.1828 42.88 75.5028 43.2V43.24C74.9828 43.08 73.9028 43 72.2628 43C70.7028 43 69.5428 43.08 68.7428 43.24V43.2C69.0628 42.88 69.8228 41.76 70.4628 40.2L77.6628 23H83.0228L90.2228 40.2ZM82.7828 35.04L80.3428 28.56L77.9028 35.04H82.7828ZM94.1366 43.2C94.4566 42.88 94.7366 41.84 94.7366 40.2V25.8C94.7366 24.16 94.4566 23.12 94.1366 22.8V22.76C94.7766 22.92 97.2966 23 99.8566 23H106.017C111.577 23 114.137 24.88 114.137 28.96C114.137 32.08 112.617 34.2 109.417 34.92L114.857 41.96C115.177 42.4 115.617 42.8 116.097 43.24L116.057 43.28C115.377 43.08 113.937 43 111.697 43C110.217 43 109.257 43.12 108.897 43.32L108.857 43.28C109.097 42.68 108.697 41.92 107.977 40.96L103.897 35.72H99.9366V40.2C99.9366 41.84 100.257 42.88 100.577 43.2V43.24C100.057 43.08 99.0566 43 97.5766 43C96.0966 43 94.9366 43.08 94.1366 43.24V43.2ZM106.497 31.6C107.937 31.6 108.937 30.92 108.937 29.4C108.937 27.88 107.977 27.16 106.337 27.16L99.9366 27.12V31.6H106.497ZM138.895 40.2C139.535 41.76 140.295 42.88 140.615 43.2V43.24C139.815 43.08 138.655 43 137.095 43C135.455 43 134.375 43.08 133.855 43.24V43.2C134.175 42.88 133.975 41.76 133.375 40.2L132.975 39.16H125.055L124.655 40.2C124.055 41.76 123.855 42.88 124.175 43.2V43.24C123.655 43.08 122.575 43 120.935 43C119.375 43 118.215 43.08 117.415 43.24V43.2C117.735 42.88 118.495 41.76 119.135 40.2L126.335 23H131.695L138.895 40.2ZM131.455 35.04L129.015 28.56L126.575 35.04H131.455ZM157.939 42.96C157.259 42.96 156.539 43.04 155.659 43.2C155.619 42.56 155.379 41.56 154.899 40.2L151.219 29.56L148.779 40.2C148.459 41.68 148.379 42.88 148.699 43.2V43.24C148.179 43.08 147.139 43 145.579 43C144.139 43 143.019 43.08 142.219 43.24V43.2C142.539 42.88 143.179 41.64 143.539 40.2L148.099 23H153.539L157.939 35.16L162.339 23H167.779L172.339 40.2C172.699 41.64 173.339 42.88 173.659 43.2V43.24C172.859 43.08 171.739 43 170.299 43C168.739 43 167.699 43.08 167.179 43.24V43.2C167.499 42.88 167.419 41.68 167.099 40.2L164.659 29.56L160.979 40.2C160.499 41.56 160.259 42.56 160.219 43.2C159.339 43.04 158.619 42.96 157.939 42.96ZM175.055 33.08C175.055 26.48 179.095 22.6 185.975 22.6C192.855 22.6 196.855 26.48 196.855 33.08C196.855 39.56 192.895 43.4 186.015 43.4C179.135 43.4 175.055 39.52 175.055 33.08ZM180.255 33.04C180.255 37.16 182.375 39.16 186.015 39.16C189.575 39.16 191.655 37.16 191.655 33.04C191.655 28.84 189.575 26.84 186.015 26.84C182.375 26.84 180.255 28.88 180.255 33.04ZM210.314 43.4C204.234 43.4 202.674 40.12 201.314 39.08C200.954 38.8 200.354 38.6 200.074 38.76L200.034 38.72C200.394 38.04 200.554 37.44 200.554 35.36L200.474 25.8C200.474 24.16 200.194 23.12 199.874 22.8V22.76C200.674 22.92 201.834 23 203.314 23C204.794 23 205.794 22.92 206.314 22.76V22.8C205.994 23.12 205.674 24.16 205.674 25.8V34C205.674 36.8 207.474 39.16 210.314 39.16C213.154 39.16 214.954 36.8 214.954 34V25.8C214.954 24.16 214.634 23.12 214.314 22.8V22.76C214.834 22.92 215.834 23 217.314 23C218.794 23 219.954 22.92 220.754 22.76V22.8C220.434 23.12 220.154 24.16 220.154 25.8L220.074 35.36C220.074 37.44 220.234 38.04 220.594 38.72L220.554 38.76C220.274 38.6 219.674 38.8 219.314 39.08C217.954 40.12 216.394 43.4 210.314 43.4ZM230.366 40.28C230.366 41.88 230.686 42.96 231.006 43.28V43.32C230.486 43.16 229.486 43.08 228.006 43.08C226.526 43.08 225.366 43.16 224.566 43.32V43.28C224.886 42.96 225.166 41.88 225.166 40.28V22.88C225.926 23 226.286 23 226.846 23C227.406 23 227.926 22.96 228.486 22.88L239.206 34.24V25.8C239.206 24.16 238.926 23.12 238.606 22.8V22.76C239.406 22.92 240.566 23 242.046 23C243.526 23 244.526 22.92 245.046 22.76V22.8C244.726 23.12 244.406 24.16 244.406 25.8V43.2C243.886 43.08 243.326 43.08 242.766 43.08C242.206 43.08 241.766 43.08 241.086 43.2L230.366 31.84V40.28ZM260.592 40.2C260.592 41.84 260.912 42.88 261.232 43.2V43.24C260.712 43.08 259.712 43 258.232 43C256.752 43 255.592 43.08 254.792 43.24V43.2C255.112 42.88 255.392 41.84 255.392 40.2V27.2L250.752 27.24C249.112 27.24 248.072 27.4 247.752 28.4H247.712C247.872 27.56 247.952 26.48 247.952 25.24C247.952 24 247.872 23.16 247.712 22.72H247.752C247.912 22.88 248.272 22.96 248.792 23C251.832 23.08 254.952 23.12 257.992 23.12C260.752 23.12 263.552 23.08 266.312 23C266.992 23 267.912 23.04 268.232 22.72H268.272C268.112 23.16 268.032 24 268.032 25.24C268.032 26.48 268.112 27.56 268.272 28.4H268.232C267.912 27.4 266.872 27.24 265.232 27.24L260.592 27.2V40.2Z" fill="white"/>
<defs>
<filter id="filter0_d_603_749" x="34.303" y="56.4209" width="241.325" height="69.105" filterUnits="userSpaceOnUse" color-interpolation-filters="sRGB">
<feFlood flood-opacity="0" result="BackgroundImageFix"/>
<feColorMatrix in="SourceAlpha" type="matrix" values="0 0 0 0 0 0 0 0 0 0 0 0 0 0 0 0 0 0 127 0" result="hardAlpha"/>
<feOffset dx="5" dy="5"/>
<feComposite in2="hardAlpha" operator="out"/>
<feColorMatrix type="matrix" values="0 0 0 0 0 0 0 0 0 0 0 0 0 0 0 0 0 0 1 0"/>
<feBlend mode="normal" in2="BackgroundImageFix" result="effect1_dropShadow_603_749"/>
<feBlend mode="normal" in="SourceGraphic" in2="effect1_dropShadow_603_749" result="shape"/>
</filter>
<filter id="filter1_d_603_749" x="0.499878" y="3" width="300" height="59" filterUnits="userSpaceOnUse" color-interpolation-filters="sRGB">
<feFlood flood-opacity="0" result="BackgroundImageFix"/>
<feColorMatrix in="SourceAlpha" type="matrix" values="0 0 0 0 0 0 0 0 0 0 0 0 0 0 0 0 0 0 127 0" result="hardAlpha"/>
<feOffset dx="5" dy="5"/>
<feComposite in2="hardAlpha" operator="out"/>
<feColorMatrix type="matrix" values="0 0 0 0 0 0 0 0 0 0 0 0 0 0 0 0 0 0 1 0"/>
<feBlend mode="normal" in2="BackgroundImageFix" result="effect1_dropShadow_603_749"/>
<feBlend mode="normal" in="SourceGraphic" in2="effect1_dropShadow_603_749" result="shape"/>
</filter>
</defs>
</svg>
