<svg width="364" height="34" viewBox="0 0 364 34" fill="none" xmlns="http://www.w3.org/2000/svg">
<g filter="url(#filter0_d_995_2059)">
<path d="M4.65376 21V3.54545H8.34411V10.7472H15.8356V3.54545H19.5174V21H15.8356V13.7898H8.34411V21H4.65376ZM24.7333 25.9091C24.2731 25.9091 23.8413 25.8722 23.4379 25.7983C23.0401 25.7301 22.7106 25.642 22.4492 25.5341L23.2674 22.8239C23.6935 22.9545 24.0771 23.0256 24.418 23.0369C24.7646 23.0483 25.0629 22.9688 25.3129 22.7983C25.5685 22.6278 25.7759 22.3381 25.935 21.929L26.1481 21.375L21.4521 7.90909H25.2702L27.9805 17.5227H28.1168L30.8526 7.90909H34.6964L29.6083 22.4148C29.364 23.1193 29.0316 23.733 28.6112 24.2557C28.1964 24.7841 27.6708 25.1903 27.0344 25.4744C26.3981 25.7642 25.631 25.9091 24.7333 25.9091ZM36.6225 21V3.54545H40.2532V10.108H40.364C40.5231 9.75568 40.7532 9.39773 41.0543 9.03409C41.3612 8.66477 41.7589 8.35795 42.2475 8.11364C42.7418 7.86364 43.3555 7.73864 44.0884 7.73864C45.043 7.73864 45.9237 7.98864 46.7305 8.48864C47.5373 8.98295 48.1822 9.73011 48.6651 10.7301C49.1481 11.7244 49.3896 12.9716 49.3896 14.4716C49.3896 15.9318 49.1538 17.1648 48.6822 18.1705C48.2163 19.1705 47.5799 19.929 46.7731 20.446C45.9719 20.9574 45.0742 21.2131 44.0799 21.2131C43.3754 21.2131 42.7759 21.0966 42.2816 20.8636C41.793 20.6307 41.3924 20.3381 41.0799 19.9858C40.7674 19.6278 40.5288 19.267 40.364 18.9034H40.2021V21H36.6225ZM40.1765 14.4545C40.1765 15.233 40.2844 15.9119 40.5004 16.4915C40.7163 17.071 41.0288 17.5227 41.4379 17.8466C41.8469 18.1648 42.3441 18.3239 42.9293 18.3239C43.5202 18.3239 44.0202 18.1619 44.4293 17.8381C44.8384 17.5085 45.1481 17.054 45.3583 16.4744C45.5742 15.8892 45.6822 15.2159 45.6822 14.4545C45.6822 13.6989 45.5771 13.0341 45.3668 12.4602C45.1566 11.8864 44.8469 11.4375 44.4379 11.1136C44.0288 10.7898 43.5259 10.6278 42.9293 10.6278C42.3384 10.6278 41.8384 10.7841 41.4293 11.0966C41.0259 11.4091 40.7163 11.8523 40.5004 12.4261C40.2844 13 40.1765 13.6761 40.1765 14.4545ZM51.8121 21V7.90909H55.332V10.1932H55.4684C55.707 9.38068 56.1076 8.76705 56.6701 8.35227C57.2326 7.93182 57.8803 7.72159 58.6133 7.72159C58.7951 7.72159 58.9911 7.73295 59.2013 7.75568C59.4116 7.77841 59.5962 7.80966 59.7553 7.84943V11.071C59.5849 11.0199 59.3491 10.9744 59.0479 10.9347C58.7468 10.8949 58.4712 10.875 58.2212 10.875C57.6871 10.875 57.2099 10.9915 56.7894 11.2244C56.3746 11.4517 56.0451 11.7699 55.8008 12.179C55.5621 12.5881 55.4428 13.0597 55.4428 13.5938V21H51.8121ZM61.6325 21V7.90909H65.2631V21H61.6325ZM63.4563 6.22159C62.9165 6.22159 62.4535 6.04261 62.0671 5.68466C61.6864 5.32102 61.4961 4.88636 61.4961 4.38068C61.4961 3.88068 61.6864 3.4517 62.0671 3.09375C62.4535 2.73011 62.9165 2.54829 63.4563 2.54829C63.9961 2.54829 64.4563 2.73011 64.837 3.09375C65.2234 3.4517 65.4165 3.88068 65.4165 4.38068C65.4165 4.88636 65.2234 5.32102 64.837 5.68466C64.4563 6.04261 63.9961 6.22159 63.4563 6.22159ZM72.9954 21.2131C72.0011 21.2131 71.1005 20.9574 70.2937 20.446C69.4925 19.929 68.8562 19.1705 68.3846 18.1705C67.9187 17.1648 67.6857 15.9318 67.6857 14.4716C67.6857 12.9716 67.9272 11.7244 68.4102 10.7301C68.8931 9.73011 69.5352 8.98295 70.3363 8.48864C71.1431 7.98864 72.0266 7.73864 72.9869 7.73864C73.7198 7.73864 74.3306 7.86364 74.8192 8.11364C75.3136 8.35795 75.7113 8.66477 76.0124 9.03409C76.3192 9.39773 76.5522 9.75568 76.7113 10.108H76.8221V3.54545H80.4442V21H76.8647V18.9034H76.7113C76.5408 19.267 76.2994 19.6278 75.9869 19.9858C75.68 20.3381 75.2795 20.6307 74.7852 20.8636C74.2965 21.0966 73.6999 21.2131 72.9954 21.2131ZM74.146 18.3239C74.7312 18.3239 75.2255 18.1648 75.6289 17.8466C76.038 17.5227 76.3505 17.071 76.5664 16.4915C76.788 15.9119 76.8988 15.233 76.8988 14.4545C76.8988 13.6761 76.7908 13 76.5749 12.4261C76.359 11.8523 76.0465 11.4091 75.6374 11.0966C75.2283 10.7841 74.7312 10.6278 74.146 10.6278C73.5494 10.6278 73.0465 10.7898 72.6374 11.1136C72.2283 11.4375 71.9187 11.8864 71.7085 12.4602C71.4982 13.0341 71.3931 13.6989 71.3931 14.4545C71.3931 15.2159 71.4982 15.8892 71.7085 16.4744C71.9244 17.054 72.234 17.5085 72.6374 17.8381C73.0465 18.1619 73.5494 18.3239 74.146 18.3239ZM87.3754 18.6136L87.2816 19.5511C87.2077 20.3011 87.0657 21.0483 86.8555 21.7926C86.6509 22.5426 86.435 23.2216 86.2077 23.8295C85.9862 24.4375 85.8072 24.9148 85.6708 25.2614H83.3185C83.4038 24.9261 83.5202 24.4574 83.668 23.8551C83.8157 23.2585 83.9549 22.5881 84.0856 21.8438C84.2163 21.0994 84.2987 20.3409 84.3327 19.5682L84.3754 18.6136H87.3754ZM101.711 3.30682C102.608 3.30682 103.472 3.45739 104.301 3.75852C105.137 4.05966 105.881 4.53977 106.534 5.19886C107.194 5.85795 107.713 6.73295 108.094 7.82386C108.48 8.90909 108.676 10.2415 108.682 11.821C108.682 13.304 108.515 14.6278 108.179 15.7926C107.85 16.9517 107.375 17.9375 106.756 18.75C106.137 19.5625 105.39 20.1818 104.515 20.608C103.64 21.0284 102.662 21.2386 101.583 21.2386C100.418 21.2386 99.3896 21.0142 98.4975 20.5653C97.6055 20.1108 96.8867 19.4943 96.3413 18.7159C95.8015 17.9318 95.4748 17.0511 95.3612 16.0739H99.0004C99.1424 16.7102 99.4407 17.2045 99.8952 17.5568C100.35 17.9034 100.912 18.0767 101.583 18.0767C102.719 18.0767 103.583 17.5824 104.174 16.5938C104.765 15.5994 105.063 14.2386 105.069 12.5114H104.949C104.688 13.0227 104.336 13.4631 103.892 13.8324C103.449 14.196 102.941 14.4773 102.367 14.6761C101.799 14.875 101.194 14.9744 100.551 14.9744C99.5231 14.9744 98.6055 14.733 97.7987 14.25C96.9918 13.767 96.3555 13.1023 95.8896 12.2557C95.4237 11.4091 95.1907 10.4432 95.1907 9.35795C95.185 8.1875 95.4549 7.14489 96.0004 6.23011C96.5458 5.31534 97.3072 4.59943 98.2844 4.08239C99.2674 3.55966 100.409 3.30114 101.711 3.30682ZM101.736 6.20454C101.162 6.20454 100.651 6.34091 100.202 6.61364C99.7589 6.88636 99.4066 7.25284 99.1452 7.71307C98.8896 8.17329 98.7646 8.6875 98.7702 9.25568C98.7702 9.82955 98.8952 10.3466 99.1452 10.8068C99.4009 11.2614 99.7475 11.625 100.185 11.8977C100.628 12.1648 101.134 12.2983 101.702 12.2983C102.128 12.2983 102.523 12.2187 102.887 12.0597C103.25 11.9006 103.566 11.6818 103.833 11.4034C104.105 11.1193 104.319 10.7926 104.472 10.4233C104.625 10.054 104.702 9.66193 104.702 9.24716C104.696 8.69602 104.566 8.19034 104.31 7.73011C104.054 7.26989 103.702 6.90057 103.253 6.62216C102.804 6.34375 102.299 6.20454 101.736 6.20454ZM119.429 10.8324V13.7131H111.469V10.8324H119.429ZM130.083 3.54545V21H126.392V7.04829H126.29L122.293 9.55398V6.28125L126.614 3.54545H130.083ZM141.075 21.3835C139.609 21.3778 138.348 21.017 137.291 20.3011C136.24 19.5852 135.43 18.5483 134.862 17.1903C134.299 15.8324 134.021 14.1989 134.027 12.2898C134.027 10.3864 134.308 8.7642 134.87 7.42329C135.439 6.08239 136.248 5.0625 137.299 4.36364C138.356 3.65909 139.615 3.30682 141.075 3.30682C142.535 3.30682 143.791 3.65909 144.842 4.36364C145.899 5.06818 146.711 6.09091 147.279 7.43182C147.848 8.76705 148.129 10.3864 148.123 12.2898C148.123 14.2045 147.839 15.8409 147.271 17.1989C146.708 18.5568 145.902 19.5937 144.85 20.3097C143.799 21.0256 142.541 21.3835 141.075 21.3835ZM141.075 18.3239C142.075 18.3239 142.873 17.821 143.47 16.8153C144.066 15.8097 144.362 14.3011 144.356 12.2898C144.356 10.9659 144.22 9.86364 143.947 8.98295C143.68 8.10227 143.299 7.44034 142.805 6.99716C142.316 6.55398 141.74 6.33239 141.075 6.33239C140.081 6.33239 139.285 6.82955 138.689 7.82386C138.092 8.81818 137.791 10.3068 137.785 12.2898C137.785 13.6307 137.919 14.75 138.186 15.6477C138.458 16.5398 138.842 17.2102 139.336 17.6591C139.831 18.1023 140.41 18.3239 141.075 18.3239ZM155.067 3.54545V5.49716H149.63V3.54545H155.067ZM150.84 1.46591H153.422V9.46875C153.422 9.79261 153.488 10.0057 153.618 10.108C153.749 10.2102 153.928 10.2614 154.155 10.2614C154.275 10.2614 154.391 10.2528 154.505 10.2358C154.618 10.2131 154.701 10.1989 154.752 10.1932L155.161 12.1449C155.013 12.1903 154.831 12.2358 154.615 12.2812C154.405 12.321 154.138 12.3466 153.814 12.358C152.934 12.3807 152.218 12.196 151.667 11.804C151.115 11.4062 150.84 10.7557 150.84 9.85227V1.46591ZM159.318 7.34659V12.2727H156.735V0.647727H159.241V5.08807H159.352C159.545 4.60511 159.849 4.21023 160.264 3.90341C160.684 3.59659 161.247 3.44318 161.951 3.44318C162.86 3.44318 163.591 3.73295 164.142 4.3125C164.699 4.89205 164.977 5.71023 164.977 6.76704V12.2727H162.395V7.21875C162.395 6.69602 162.264 6.29545 162.002 6.01704C161.747 5.73295 161.389 5.59091 160.929 5.59091C160.468 5.59091 160.085 5.74148 159.778 6.04261C159.471 6.34375 159.318 6.77841 159.318 7.34659ZM187.534 3.54545V21H184.347L176.753 10.0142H176.625V21H172.935V3.54545H176.174L183.708 14.5227H183.861V3.54545H187.534ZM196.43 21.2557C195.106 21.2557 193.961 20.9744 192.995 20.4119C192.035 19.8437 191.294 19.054 190.771 18.0426C190.248 17.0256 189.987 15.8466 189.987 14.5057C189.987 13.1534 190.248 11.9716 190.771 10.9602C191.294 9.94318 192.035 9.15341 192.995 8.59091C193.961 8.02273 195.106 7.73864 196.43 7.73864C197.754 7.73864 198.896 8.02273 199.856 8.59091C200.822 9.15341 201.566 9.94318 202.089 10.9602C202.612 11.9716 202.873 13.1534 202.873 14.5057C202.873 15.8466 202.612 17.0256 202.089 18.0426C201.566 19.054 200.822 19.8437 199.856 20.4119C198.896 20.9744 197.754 21.2557 196.43 21.2557ZM196.447 18.4432C197.049 18.4432 197.552 18.2727 197.956 17.9318C198.359 17.5852 198.663 17.1136 198.868 16.517C199.078 15.9205 199.183 15.2415 199.183 14.4801C199.183 13.7188 199.078 13.0398 198.868 12.4432C198.663 11.8466 198.359 11.375 197.956 11.0284C197.552 10.6818 197.049 10.5085 196.447 10.5085C195.839 10.5085 195.328 10.6818 194.913 11.0284C194.504 11.375 194.194 11.8466 193.984 12.4432C193.779 13.0398 193.677 13.7188 193.677 14.4801C193.677 15.2415 193.779 15.9205 193.984 16.517C194.194 17.1136 194.504 17.5852 194.913 17.9318C195.328 18.2727 195.839 18.4432 196.447 18.4432ZM217.017 7.90909L212.44 21H208.349L203.772 7.90909H207.608L210.326 17.2756H210.463L213.173 7.90909H217.017ZM224.419 21.2557C223.072 21.2557 221.913 20.983 220.941 20.4375C219.975 19.8864 219.231 19.108 218.708 18.1023C218.186 17.0909 217.924 15.8949 217.924 14.5142C217.924 13.1676 218.186 11.9858 218.708 10.9688C219.231 9.9517 219.967 9.15909 220.916 8.59091C221.87 8.02273 222.99 7.73864 224.274 7.73864C225.137 7.73864 225.941 7.87784 226.686 8.15625C227.436 8.42898 228.089 8.84091 228.646 9.39205C229.208 9.94318 229.646 10.6364 229.958 11.4716C230.271 12.3011 230.427 13.2727 230.427 14.3864V15.3835H219.373V13.1335H227.01C227.01 12.6108 226.896 12.1477 226.669 11.7443C226.441 11.3409 226.126 11.0256 225.723 10.7983C225.325 10.5653 224.862 10.4489 224.333 10.4489C223.782 10.4489 223.294 10.5767 222.868 10.8324C222.447 11.0824 222.118 11.4205 221.879 11.8466C221.64 12.267 221.518 12.7358 221.512 13.2528V15.392C221.512 16.0398 221.632 16.5994 221.87 17.071C222.115 17.5426 222.458 17.9062 222.902 18.1619C223.345 18.4176 223.87 18.5455 224.478 18.5455C224.882 18.5455 225.251 18.4886 225.586 18.375C225.922 18.2614 226.208 18.0909 226.447 17.8636C226.686 17.6364 226.868 17.358 226.993 17.0284L230.35 17.25C230.18 18.0568 229.831 18.7614 229.302 19.3636C228.779 19.9602 228.103 20.4261 227.274 20.7614C226.45 21.0909 225.498 21.2557 224.419 21.2557ZM232.797 21V7.90909H236.257V10.2188H236.41C236.683 9.4517 237.137 8.84659 237.774 8.40341C238.41 7.96023 239.172 7.73864 240.058 7.73864C240.956 7.73864 241.72 7.96307 242.35 8.41193C242.981 8.85511 243.402 9.45739 243.612 10.2188H243.748C244.015 9.46875 244.498 8.86932 245.197 8.42045C245.902 7.96591 246.734 7.73864 247.694 7.73864C248.916 7.73864 249.907 8.12784 250.669 8.90625C251.436 9.67898 251.819 10.7756 251.819 12.196V21H248.197V12.9119C248.197 12.1847 248.004 11.6392 247.618 11.2756C247.231 10.9119 246.748 10.7301 246.169 10.7301C245.51 10.7301 244.995 10.9403 244.626 11.3608C244.257 11.7756 244.072 12.3239 244.072 13.0057V21H240.552V12.8352C240.552 12.1932 240.368 11.6818 239.998 11.3011C239.635 10.9205 239.154 10.7301 238.558 10.7301C238.154 10.7301 237.791 10.8324 237.467 11.0369C237.149 11.2358 236.896 11.517 236.708 11.8807C236.521 12.2386 236.427 12.6591 236.427 13.142V21H232.797ZM254.755 21V3.54545H258.386V10.108H258.497C258.656 9.75568 258.886 9.39773 259.187 9.03409C259.494 8.66477 259.892 8.35795 260.38 8.11364C260.875 7.86364 261.488 7.73864 262.221 7.73864C263.176 7.73864 264.056 7.98864 264.863 8.48864C265.67 8.98295 266.315 9.73011 266.798 10.7301C267.281 11.7244 267.522 12.9716 267.522 14.4716C267.522 15.9318 267.287 17.1648 266.815 18.1705C266.349 19.1705 265.713 19.929 264.906 20.446C264.105 20.9574 263.207 21.2131 262.213 21.2131C261.508 21.2131 260.909 21.0966 260.414 20.8636C259.926 20.6307 259.525 20.3381 259.213 19.9858C258.9 19.6278 258.662 19.267 258.497 18.9034H258.335V21H254.755ZM258.309 14.4545C258.309 15.233 258.417 15.9119 258.633 16.4915C258.849 17.071 259.162 17.5227 259.571 17.8466C259.98 18.1648 260.477 18.3239 261.062 18.3239C261.653 18.3239 262.153 18.1619 262.562 17.8381C262.971 17.5085 263.281 17.054 263.491 16.4744C263.707 15.8892 263.815 15.2159 263.815 14.4545C263.815 13.6989 263.71 13.0341 263.5 12.4602C263.289 11.8864 262.98 11.4375 262.571 11.1136C262.162 10.7898 261.659 10.6278 261.062 10.6278C260.471 10.6278 259.971 10.7841 259.562 11.0966C259.159 11.4091 258.849 11.8523 258.633 12.4261C258.417 13 258.309 13.6761 258.309 14.4545ZM275.911 21.2557C274.564 21.2557 273.405 20.983 272.434 20.4375C271.468 19.8864 270.723 19.108 270.201 18.1023C269.678 17.0909 269.417 15.8949 269.417 14.5142C269.417 13.1676 269.678 11.9858 270.201 10.9688C270.723 9.9517 271.459 9.15909 272.408 8.59091C273.363 8.02273 274.482 7.73864 275.766 7.73864C276.63 7.73864 277.434 7.87784 278.178 8.15625C278.928 8.42898 279.581 8.84091 280.138 9.39205C280.701 9.94318 281.138 10.6364 281.451 11.4716C281.763 12.3011 281.919 13.2727 281.919 14.3864V15.3835H270.865V13.1335H278.502C278.502 12.6108 278.388 12.1477 278.161 11.7443C277.934 11.3409 277.618 11.0256 277.215 10.7983C276.817 10.5653 276.354 10.4489 275.826 10.4489C275.275 10.4489 274.786 10.5767 274.36 10.8324C273.939 11.0824 273.61 11.4205 273.371 11.8466C273.132 12.267 273.01 12.7358 273.005 13.2528V15.392C273.005 16.0398 273.124 16.5994 273.363 17.071C273.607 17.5426 273.951 17.9062 274.394 18.1619C274.837 18.4176 275.363 18.5455 275.971 18.5455C276.374 18.5455 276.743 18.4886 277.078 18.375C277.414 18.2614 277.701 18.0909 277.939 17.8636C278.178 17.6364 278.36 17.358 278.485 17.0284L281.843 17.25C281.672 18.0568 281.323 18.7614 280.794 19.3636C280.272 19.9602 279.596 20.4261 278.766 20.7614C277.942 21.0909 276.99 21.2557 275.911 21.2557ZM284.289 21V7.90909H287.809V10.1932H287.945C288.184 9.38068 288.584 8.76705 289.147 8.35227C289.709 7.93182 290.357 7.72159 291.09 7.72159C291.272 7.72159 291.468 7.73295 291.678 7.75568C291.888 7.77841 292.073 7.80966 292.232 7.84943V11.071C292.061 11.0199 291.826 10.9744 291.525 10.9347C291.223 10.8949 290.948 10.875 290.698 10.875C290.164 10.875 289.686 10.9915 289.266 11.2244C288.851 11.4517 288.522 11.7699 288.277 12.179C288.039 12.5881 287.919 13.0597 287.919 13.5938V21H284.289ZM299.63 21V18.3409L305.843 12.5881C306.371 12.0767 306.814 11.6165 307.172 11.2074C307.536 10.7983 307.811 10.3977 307.999 10.0057C308.186 9.60795 308.28 9.17898 308.28 8.71875C308.28 8.20739 308.164 7.76705 307.931 7.39773C307.698 7.02273 307.38 6.7358 306.976 6.53693C306.573 6.33239 306.115 6.23011 305.604 6.23011C305.07 6.23011 304.604 6.33807 304.206 6.55398C303.809 6.76989 303.502 7.07955 303.286 7.48295C303.07 7.88636 302.962 8.36648 302.962 8.92329H299.459C299.459 7.78125 299.718 6.78977 300.235 5.94886C300.752 5.10795 301.476 4.45739 302.408 3.99716C303.34 3.53693 304.414 3.30682 305.63 3.30682C306.88 3.30682 307.968 3.52841 308.894 3.97159C309.826 4.40909 310.55 5.01705 311.067 5.79545C311.584 6.57386 311.843 7.46591 311.843 8.47159C311.843 9.13068 311.712 9.78125 311.451 10.4233C311.195 11.0653 310.738 11.7784 310.078 12.5625C309.419 13.3409 308.49 14.2756 307.292 15.3665L304.743 17.8636V17.983H312.073V21H299.63ZM321.591 21.3835C320.125 21.3778 318.863 21.017 317.806 20.3011C316.755 19.5852 315.946 18.5483 315.377 17.1903C314.815 15.8324 314.537 14.1989 314.542 12.2898C314.542 10.3864 314.824 8.7642 315.386 7.42329C315.954 6.08239 316.764 5.0625 317.815 4.36364C318.872 3.65909 320.13 3.30682 321.591 3.30682C323.051 3.30682 324.306 3.65909 325.358 4.36364C326.414 5.06818 327.227 6.09091 327.795 7.43182C328.363 8.76705 328.645 10.3864 328.639 12.2898C328.639 14.2045 328.355 15.8409 327.787 17.1989C327.224 18.5568 326.417 19.5937 325.366 20.3097C324.315 21.0256 323.056 21.3835 321.591 21.3835ZM321.591 18.3239C322.591 18.3239 323.389 17.821 323.985 16.8153C324.582 15.8097 324.877 14.3011 324.872 12.2898C324.872 10.9659 324.735 9.86364 324.463 8.98295C324.196 8.10227 323.815 7.44034 323.321 6.99716C322.832 6.55398 322.255 6.33239 321.591 6.33239C320.596 6.33239 319.801 6.82955 319.204 7.82386C318.608 8.81818 318.306 10.3068 318.301 12.2898C318.301 13.6307 318.434 14.75 318.701 15.6477C318.974 16.5398 319.358 17.2102 319.852 17.6591C320.346 18.1023 320.926 18.3239 321.591 18.3239ZM331.27 21V18.3409L337.483 12.5881C338.012 12.0767 338.455 11.6165 338.813 11.2074C339.176 10.7983 339.452 10.3977 339.64 10.0057C339.827 9.60795 339.921 9.17898 339.921 8.71875C339.921 8.20739 339.804 7.76705 339.571 7.39773C339.338 7.02273 339.02 6.7358 338.617 6.53693C338.213 6.33239 337.756 6.23011 337.245 6.23011C336.711 6.23011 336.245 6.33807 335.847 6.55398C335.449 6.76989 335.142 7.07955 334.926 7.48295C334.711 7.88636 334.603 8.36648 334.603 8.92329H331.1C331.1 7.78125 331.358 6.78977 331.875 5.94886C332.392 5.10795 333.117 4.45739 334.049 3.99716C334.98 3.53693 336.054 3.30682 337.27 3.30682C338.52 3.30682 339.608 3.52841 340.534 3.97159C341.466 4.40909 342.191 5.01705 342.708 5.79545C343.225 6.57386 343.483 7.46591 343.483 8.47159C343.483 9.13068 343.353 9.78125 343.091 10.4233C342.836 11.0653 342.378 11.7784 341.719 12.5625C341.06 13.3409 340.131 14.2756 338.932 15.3665L336.384 17.8636V17.983H343.713V21H331.27ZM345.748 17.9318V15.0256L353.035 3.54545H355.541V7.56818H354.058L349.464 14.8381V14.9744H359.819V17.9318H345.748ZM354.126 21V17.0455L354.194 15.7585V3.54545H357.654V21H354.126Z" fill="white"/>
</g>
<defs>
<filter id="filter0_d_995_2059" x="0.654297" y="0.647461" width="363.164" height="33.2617" filterUnits="userSpaceOnUse" color-interpolation-filters="sRGB">
<feFlood flood-opacity="0" result="BackgroundImageFix"/>
<feColorMatrix in="SourceAlpha" type="matrix" values="0 0 0 0 0 0 0 0 0 0 0 0 0 0 0 0 0 0 127 0" result="hardAlpha"/>
<feOffset dy="4"/>
<feGaussianBlur stdDeviation="2"/>
<feComposite in2="hardAlpha" operator="out"/>
<feColorMatrix type="matrix" values="0 0 0 0 0 0 0 0 0 0 0 0 0 0 0 0 0 0 0.25 0"/>
<feBlend mode="normal" in2="BackgroundImageFix" result="effect1_dropShadow_995_2059"/>
<feBlend mode="normal" in="SourceGraphic" in2="effect1_dropShadow_995_2059" result="shape"/>
</filter>
</defs>
</svg>
