<svg width="624" height="44" viewBox="0 0 624 44" fill="none" xmlns="http://www.w3.org/2000/svg">
<g filter="url(#filter0_d_951_596)">
<path d="M4.35 35V33.35H5.35C6.55 33.35 7.28333 33.1667 7.55 32.8C7.85 32.4 8 31.7 8 30.7V6.5C8 5.66666 7.91667 5.05 7.75 4.65C7.61667 4.25 7.28333 3.98333 6.75 3.85C6.25 3.71667 5.43333 3.65 4.3 3.65V2H15.85L24.65 24.5H24.75L33.35 2H44.4V3.65C43.3333 3.65 42.5333 3.71667 42 3.85C41.5 3.98333 41.1667 4.25 41 4.65C40.8667 5.05 40.8 5.66666 40.8 6.5V30.55C40.8 31.3167 40.8667 31.9167 41 32.35C41.1667 32.75 41.5 33.0167 42 33.15C42.5333 33.2833 43.3333 33.35 44.4 33.35V35H29.9V33.35C30.9667 33.35 31.7333 33.2833 32.2 33.15C32.6667 32.9833 32.9667 32.7 33.1 32.3C33.2333 31.9 33.3 31.3167 33.3 30.55V7.4H33.2L23.1 34.3H20.55L10.2 7.7H10.15V30.7C10.15 31.8 10.3 32.5167 10.6 32.85C10.9 33.1833 11.65 33.35 12.85 33.35H14.35V35H4.35ZM58.4586 35.55C54.2586 35.55 51.1419 34.55 49.1086 32.55C47.0753 30.55 46.0586 27.4667 46.0586 23.3C46.0586 19.1 47.0919 15.9833 49.1586 13.95C51.2253 11.9167 54.3586 10.9 58.5586 10.9C62.7253 10.9 65.8086 11.9 67.8086 13.9C69.8419 15.9 70.8586 19 70.8586 23.2C70.8586 27.4 69.8419 30.5167 67.8086 32.55C65.8086 34.55 62.6919 35.55 58.4586 35.55ZM58.5086 33.8C60.2753 33.8 61.5419 32.9333 62.3086 31.2C63.0753 29.4667 63.4253 26.8 63.3586 23.2C63.3253 19.5667 62.9253 16.9167 62.1586 15.25C61.4253 13.55 60.1753 12.7 58.4086 12.7C56.6419 12.7 55.3753 13.6 54.6086 15.4C53.8753 17.2 53.5086 19.85 53.5086 23.35C53.5086 26.9833 53.8919 29.6333 54.6586 31.3C55.4253 32.9667 56.7086 33.8 58.5086 33.8ZM83.9289 35.55C80.9289 35.55 78.5789 34.5167 76.8789 32.45C75.2122 30.3833 74.3789 27.5 74.3789 23.8C74.3789 20.9333 74.8622 18.55 75.8289 16.65C76.7956 14.75 78.1789 13.3333 79.9789 12.4C81.7789 11.4333 83.9456 10.95 86.4789 10.95C87.4122 10.95 88.2122 11.0167 88.8789 11.15C89.5456 11.25 90.1622 11.4 90.7289 11.6C91.2956 11.8 91.8622 12 92.4289 12.2V15.55C92.0289 15.15 91.5622 14.7333 91.0289 14.3C90.5289 13.8667 89.9456 13.5 89.2789 13.2C88.6122 12.9 87.8789 12.75 87.0789 12.75C85.2456 12.75 83.8956 13.5667 83.0289 15.2C82.1622 16.8 81.7289 19.2 81.7289 22.4C81.7289 25.8667 82.1789 28.45 83.0789 30.15C83.9789 31.85 85.2456 32.7 86.8789 32.7C87.6456 32.7 88.3122 32.5333 88.8789 32.2C89.4456 31.8333 89.9622 31.4 90.4289 30.9C90.9289 30.3667 91.4289 29.8833 91.9289 29.45L92.1789 31.95C91.4122 32.7167 90.5789 33.3667 89.6789 33.9C88.8122 34.4333 87.8956 34.8333 86.9289 35.1C85.9956 35.4 84.9956 35.55 83.9289 35.55ZM91.5289 35L90.9789 31.3V5.25C90.9789 4.51666 90.8622 4.03333 90.6289 3.8C90.4289 3.53333 90.0789 3.4 89.5789 3.4H87.8789V1.75L95.8789 0.499997H97.9789V30.85C97.9789 31.95 98.1289 32.65 98.4289 32.95C98.7289 33.2167 99.2622 33.35 100.029 33.35H101.179V35H91.5289ZM90.5789 12.35V11.6H92.3289V12.35H90.5789ZM114.732 35.55C111.065 35.55 108.265 34.5333 106.332 32.5C104.432 30.4333 103.482 27.3667 103.482 23.3C103.482 20.5333 103.915 18.2333 104.782 16.4C105.682 14.5667 106.965 13.2 108.632 12.3C110.332 11.4 112.415 10.95 114.882 10.95C116.815 10.95 118.482 11.2333 119.882 11.8C121.282 12.3333 122.415 13.1333 123.282 14.2C124.182 15.2333 124.832 16.4833 125.232 17.95C125.665 19.4167 125.882 21.1 125.882 23V23.45H107.732V21.65H118.432C118.432 19.6167 118.332 17.95 118.132 16.65C117.965 15.35 117.615 14.3833 117.082 13.75C116.582 13.0833 115.832 12.75 114.832 12.75C113.998 12.75 113.282 13.0167 112.682 13.55C112.115 14.0833 111.682 15.0167 111.382 16.35C111.082 17.6833 110.932 19.5333 110.932 21.9C110.932 23.7333 111.032 25.3167 111.232 26.65C111.432 27.95 111.748 29.0333 112.182 29.9C112.648 30.7667 113.265 31.4167 114.032 31.85C114.832 32.25 115.798 32.45 116.932 32.45C118.098 32.45 119.098 32.2667 119.932 31.9C120.798 31.5 121.532 30.95 122.132 30.25C122.765 29.55 123.282 28.7333 123.682 27.8L125.382 28.7C124.948 29.7333 124.348 30.7833 123.582 31.85C122.815 32.9167 121.732 33.8 120.332 34.5C118.965 35.2 117.098 35.55 114.732 35.55ZM128.808 35V33.35C129.742 33.35 130.442 33.2833 130.908 33.15C131.375 33.0167 131.675 32.7833 131.808 32.45C131.942 32.0833 132.008 31.55 132.008 30.85V5.35C132.008 4.58333 131.908 4.06666 131.708 3.8C131.542 3.53333 131.158 3.4 130.558 3.4H128.908V1.75L136.958 0.499997H139.108V30.85C139.108 31.55 139.175 32.0833 139.308 32.45C139.442 32.7833 139.708 33.0167 140.108 33.15C140.542 33.2833 141.175 33.35 142.008 33.35V35H128.808ZM173.37 35.6C168.503 35.6 164.97 34.6667 162.77 32.8C160.603 30.9 159.52 27.9 159.52 23.8V6.5C159.52 5.66666 159.453 5.05 159.32 4.65C159.186 4.25 158.87 3.98333 158.37 3.85C157.87 3.71667 157.053 3.65 155.92 3.65V2H170.77V3.65C169.67 3.65 168.853 3.71667 168.32 3.85C167.82 3.95 167.486 4.21667 167.32 4.65C167.186 5.05 167.12 5.66666 167.12 6.5V24.05C167.12 26.1167 167.32 27.85 167.72 29.25C168.153 30.65 168.836 31.7 169.77 32.4C170.736 33.1 171.97 33.45 173.47 33.45C175.003 33.45 176.236 33.1167 177.17 32.45C178.136 31.75 178.836 30.7 179.27 29.3C179.703 27.9 179.92 26.15 179.92 24.05V6.5C179.92 5.66666 179.836 5.05 179.67 4.65C179.536 4.21667 179.203 3.95 178.67 3.85C178.17 3.71667 177.37 3.65 176.27 3.65V2H191.02V3.65C189.886 3.65 189.07 3.71667 188.57 3.85C188.07 3.98333 187.753 4.25 187.62 4.65C187.486 5.05 187.42 5.66666 187.42 6.5V23.8C187.42 27.8667 186.303 30.85 184.07 32.75C181.87 34.65 178.303 35.6 173.37 35.6ZM206.723 35V33.35C207.49 33.35 208.057 33.3 208.423 33.2C208.79 33.1 209.023 32.8833 209.123 32.55C209.257 32.2167 209.323 31.7333 209.323 31.1V19.1C209.323 17.8667 209.173 16.8833 208.873 16.15C208.607 15.3833 208.19 14.8333 207.623 14.5C207.09 14.1667 206.44 14 205.673 14C204.673 14 203.807 14.25 203.073 14.75C202.34 15.25 201.523 15.9333 200.623 16.8L200.473 15.1C201.14 14.4 201.89 13.7333 202.723 13.1C203.557 12.4667 204.49 11.95 205.523 11.55C206.59 11.15 207.807 10.95 209.173 10.95C211.373 10.95 213.123 11.5833 214.423 12.85C215.723 14.0833 216.373 16.0667 216.373 18.8V30.85C216.373 31.55 216.44 32.0833 216.573 32.45C216.74 32.7833 217.04 33.0167 217.473 33.15C217.907 33.2833 218.573 33.35 219.473 33.35V35H206.723ZM190.773 35V33.35C191.74 33.35 192.44 33.3 192.873 33.2C193.34 33.0667 193.64 32.8167 193.773 32.45C193.907 32.0833 193.973 31.55 193.973 30.85V16.05C193.973 15.3167 193.873 14.8167 193.673 14.55C193.507 14.2833 193.123 14.15 192.523 14.15H190.873V12.5L198.723 11.25H200.873V14.55H201.073V30.95C201.073 31.65 201.14 32.1833 201.273 32.55C201.44 32.8833 201.707 33.1 202.073 33.2C202.473 33.3 203.057 33.35 203.823 33.35V35H190.773ZM221.876 35V33.35C222.842 33.35 223.542 33.2833 223.976 33.15C224.442 33.0167 224.742 32.7833 224.876 32.45C225.009 32.0833 225.076 31.55 225.076 30.85V16.05C225.076 15.2833 224.976 14.7833 224.776 14.55C224.609 14.2833 224.242 14.15 223.676 14.15H222.026V12.5L229.976 11.25H232.176V30.85C232.176 31.55 232.242 32.0833 232.376 32.45C232.509 32.7833 232.776 33.0167 233.176 33.15C233.609 33.2833 234.242 33.35 235.076 33.35V35H221.876ZM228.426 8.45C227.326 8.45 226.359 8.06667 225.526 7.3C224.726 6.53333 224.326 5.6 224.326 4.5C224.326 3.36666 224.726 2.41666 225.526 1.65C226.359 0.883331 227.326 0.499997 228.426 0.499997C229.192 0.499997 229.876 0.683331 230.476 1.05C231.109 1.41666 231.609 1.9 231.976 2.5C232.342 3.1 232.526 3.76667 232.526 4.5C232.526 5.6 232.109 6.53333 231.276 7.3C230.476 8.06667 229.526 8.45 228.426 8.45ZM246.45 35.6C245.083 35.6 243.9 35.3667 242.9 34.9C241.9 34.4 241.133 33.6167 240.6 32.55C240.1 31.45 239.85 30.0167 239.85 28.25V13.3H236.85V11.65C238.183 11.3833 239.416 10.8333 240.55 10C241.683 9.13333 242.65 8.06667 243.45 6.8C244.283 5.5 244.9 4.11666 245.3 2.65H246.95V11.5H251.85V13.3H246.95V27.95C246.95 29.4833 247.15 30.65 247.55 31.45C247.983 32.2167 248.733 32.6 249.8 32.6C250.4 32.6 250.95 32.4833 251.45 32.25C251.983 31.9833 252.35 31.7833 252.55 31.65L253.4 33.05C252.966 33.35 252.45 33.7 251.85 34.1C251.25 34.5 250.516 34.85 249.65 35.15C248.783 35.45 247.716 35.6 246.45 35.6ZM266.294 35.55C262.627 35.55 259.827 34.5333 257.894 32.5C255.994 30.4333 255.044 27.3667 255.044 23.3C255.044 20.5333 255.477 18.2333 256.344 16.4C257.244 14.5667 258.527 13.2 260.194 12.3C261.894 11.4 263.977 10.95 266.444 10.95C268.377 10.95 270.044 11.2333 271.444 11.8C272.844 12.3333 273.977 13.1333 274.844 14.2C275.744 15.2333 276.394 16.4833 276.794 17.95C277.227 19.4167 277.444 21.1 277.444 23V23.45H259.294V21.65H269.994C269.994 19.6167 269.894 17.95 269.694 16.65C269.527 15.35 269.177 14.3833 268.644 13.75C268.144 13.0833 267.394 12.75 266.394 12.75C265.561 12.75 264.844 13.0167 264.244 13.55C263.677 14.0833 263.244 15.0167 262.944 16.35C262.644 17.6833 262.494 19.5333 262.494 21.9C262.494 23.7333 262.594 25.3167 262.794 26.65C262.994 27.95 263.311 29.0333 263.744 29.9C264.211 30.7667 264.827 31.4167 265.594 31.85C266.394 32.25 267.361 32.45 268.494 32.45C269.661 32.45 270.661 32.2667 271.494 31.9C272.361 31.5 273.094 30.95 273.694 30.25C274.327 29.55 274.844 28.7333 275.244 27.8L276.944 28.7C276.511 29.7333 275.911 30.7833 275.144 31.85C274.377 32.9167 273.294 33.8 271.894 34.5C270.527 35.2 268.661 35.55 266.294 35.55ZM290.521 35.55C287.521 35.55 285.171 34.5167 283.471 32.45C281.804 30.3833 280.971 27.5 280.971 23.8C280.971 20.9333 281.454 18.55 282.421 16.65C283.387 14.75 284.771 13.3333 286.571 12.4C288.371 11.4333 290.537 10.95 293.071 10.95C294.004 10.95 294.804 11.0167 295.471 11.15C296.137 11.25 296.754 11.4 297.321 11.6C297.887 11.8 298.454 12 299.021 12.2V15.55C298.621 15.15 298.154 14.7333 297.621 14.3C297.121 13.8667 296.537 13.5 295.871 13.2C295.204 12.9 294.471 12.75 293.671 12.75C291.837 12.75 290.487 13.5667 289.621 15.2C288.754 16.8 288.321 19.2 288.321 22.4C288.321 25.8667 288.771 28.45 289.671 30.15C290.571 31.85 291.837 32.7 293.471 32.7C294.237 32.7 294.904 32.5333 295.471 32.2C296.037 31.8333 296.554 31.4 297.021 30.9C297.521 30.3667 298.021 29.8833 298.521 29.45L298.771 31.95C298.004 32.7167 297.171 33.3667 296.271 33.9C295.404 34.4333 294.487 34.8333 293.521 35.1C292.587 35.4 291.587 35.55 290.521 35.55ZM298.121 35L297.571 31.3V5.25C297.571 4.51666 297.454 4.03333 297.221 3.8C297.021 3.53333 296.671 3.4 296.171 3.4H294.471V1.75L302.471 0.499997H304.571V30.85C304.571 31.95 304.721 32.65 305.021 32.95C305.321 33.2167 305.854 33.35 306.621 33.35H307.771V35H298.121ZM297.171 12.35V11.6H298.921V12.35H297.171ZM345.196 35.35L327.396 8.15H327.296V30.75C327.296 31.6833 327.462 32.35 327.796 32.75C328.162 33.15 328.829 33.35 329.796 33.35H331.496V35H321.496V33.35H322.796C324.362 33.35 325.146 32.4833 325.146 30.75V6.5C325.146 5.66666 325.062 5.05 324.896 4.65C324.762 4.25 324.429 3.98333 323.896 3.85C323.396 3.71667 322.579 3.65 321.446 3.65V2H332.396L347.896 25.95H348.046V6.05C348.046 4.45 347.196 3.65 345.496 3.65H343.746V2H353.646V3.65H352.496C350.962 3.65 350.196 4.45 350.196 6.05V35.35H345.196ZM375.645 35.55C374.578 35.55 373.695 35.4 372.995 35.1C372.295 34.8 371.778 34.3833 371.445 33.85C371.112 33.3167 370.945 32.7167 370.945 32.05V17.25C370.945 15.85 370.678 14.8 370.145 14.1C369.612 13.3667 368.628 13 367.195 13C366.695 13 366.212 13.05 365.745 13.15C365.312 13.25 364.962 13.4 364.695 13.6C364.428 13.8 364.295 14.0333 364.295 14.3C364.295 14.6 364.395 14.8667 364.595 15.1C364.828 15.3333 365.045 15.6 365.245 15.9C365.445 16.1667 365.545 16.5833 365.545 17.15C365.545 17.9833 365.245 18.7167 364.645 19.35C364.045 19.9833 363.195 20.3 362.095 20.3C360.995 20.3 360.145 19.9833 359.545 19.35C358.945 18.7167 358.645 18 358.645 17.2C358.645 16.2333 359.012 15.2833 359.745 14.35C360.512 13.3833 361.712 12.5833 363.345 11.95C364.978 11.3167 367.112 11 369.745 11C372.612 11 374.695 11.6333 375.995 12.9C377.328 14.1667 377.995 16.2 377.995 19V30C377.995 31.2333 378.112 32.05 378.345 32.45C378.578 32.8167 378.928 33 379.395 33C379.795 33 380.112 32.95 380.345 32.85C380.612 32.7167 380.862 32.6 381.095 32.5L381.645 33.95C380.812 34.4833 379.912 34.8833 378.945 35.15C377.978 35.4167 376.878 35.55 375.645 35.55ZM364.045 35.55C361.845 35.55 360.145 35.1 358.945 34.2C357.745 33.3 357.145 31.9833 357.145 30.25C357.145 28.5833 357.812 27.1167 359.145 25.85C360.478 24.5833 362.345 23.5167 364.745 22.65C367.145 21.75 369.945 21.0833 373.145 20.65V22.55C370.012 23.15 367.728 23.9667 366.295 25C364.895 26.0333 364.195 27.4 364.195 29.1C364.195 30.3333 364.462 31.2167 364.995 31.75C365.528 32.2833 366.328 32.55 367.395 32.55C368.128 32.55 368.812 32.3833 369.445 32.05C370.112 31.6833 370.712 31.2833 371.245 30.85C371.778 30.3833 372.212 29.9833 372.545 29.65L373.095 31.3C372.462 31.9333 371.728 32.5833 370.895 33.25C370.062 33.9167 369.095 34.4667 367.995 34.9C366.895 35.3333 365.578 35.55 364.045 35.55ZM391.762 35.6C390.395 35.6 389.212 35.3667 388.212 34.9C387.212 34.4 386.445 33.6167 385.912 32.55C385.412 31.45 385.162 30.0167 385.162 28.25V13.3H382.162V11.65C383.495 11.3833 384.729 10.8333 385.862 10C386.995 9.13333 387.962 8.06667 388.762 6.8C389.595 5.5 390.212 4.11666 390.612 2.65H392.262V11.5H397.162V13.3H392.262V27.95C392.262 29.4833 392.462 30.65 392.862 31.45C393.295 32.2167 394.045 32.6 395.112 32.6C395.712 32.6 396.262 32.4833 396.762 32.25C397.295 31.9833 397.662 31.7833 397.862 31.65L398.712 33.05C398.279 33.35 397.762 33.7 397.162 34.1C396.562 34.5 395.829 34.85 394.962 35.15C394.095 35.45 393.029 35.6 391.762 35.6ZM399.757 35V33.35C400.723 33.35 401.423 33.2833 401.857 33.15C402.323 33.0167 402.623 32.7833 402.757 32.45C402.89 32.0833 402.957 31.55 402.957 30.85V16.05C402.957 15.2833 402.857 14.7833 402.657 14.55C402.49 14.2833 402.123 14.15 401.557 14.15H399.907V12.5L407.857 11.25H410.057V30.85C410.057 31.55 410.123 32.0833 410.257 32.45C410.39 32.7833 410.657 33.0167 411.057 33.15C411.49 33.2833 412.123 33.35 412.957 33.35V35H399.757ZM406.307 8.45C405.207 8.45 404.24 8.06667 403.407 7.3C402.607 6.53333 402.207 5.6 402.207 4.5C402.207 3.36666 402.607 2.41666 403.407 1.65C404.24 0.883331 405.207 0.499997 406.307 0.499997C407.073 0.499997 407.757 0.683331 408.357 1.05C408.99 1.41666 409.49 1.9 409.857 2.5C410.223 3.1 410.407 3.76667 410.407 4.5C410.407 5.6 409.99 6.53333 409.157 7.3C408.357 8.06667 407.407 8.45 406.307 8.45ZM428.38 35.55C424.18 35.55 421.064 34.55 419.03 32.55C416.997 30.55 415.98 27.4667 415.98 23.3C415.98 19.1 417.014 15.9833 419.08 13.95C421.147 11.9167 424.28 10.9 428.48 10.9C432.647 10.9 435.73 11.9 437.73 13.9C439.764 15.9 440.78 19 440.78 23.2C440.78 27.4 439.764 30.5167 437.73 32.55C435.73 34.55 432.614 35.55 428.38 35.55ZM428.43 33.8C430.197 33.8 431.464 32.9333 432.23 31.2C432.997 29.4667 433.347 26.8 433.28 23.2C433.247 19.5667 432.847 16.9167 432.08 15.25C431.347 13.55 430.097 12.7 428.33 12.7C426.564 12.7 425.297 13.6 424.53 15.4C423.797 17.2 423.43 19.85 423.43 23.35C423.43 26.9833 423.814 29.6333 424.58 31.3C425.347 32.9667 426.63 33.8 428.43 33.8ZM459.751 35V33.35C460.517 33.35 461.084 33.3 461.451 33.2C461.817 33.1 462.051 32.8833 462.151 32.55C462.284 32.2167 462.351 31.7333 462.351 31.1V19.1C462.351 17.8667 462.201 16.8833 461.901 16.15C461.634 15.3833 461.217 14.8333 460.651 14.5C460.117 14.1667 459.467 14 458.701 14C457.701 14 456.834 14.25 456.101 14.75C455.367 15.25 454.551 15.9333 453.651 16.8L453.501 15.1C454.167 14.4 454.917 13.7333 455.751 13.1C456.584 12.4667 457.517 11.95 458.551 11.55C459.617 11.15 460.834 10.95 462.201 10.95C464.401 10.95 466.151 11.5833 467.451 12.85C468.751 14.0833 469.401 16.0667 469.401 18.8V30.85C469.401 31.55 469.467 32.0833 469.601 32.45C469.767 32.7833 470.067 33.0167 470.501 33.15C470.934 33.2833 471.601 33.35 472.501 33.35V35H459.751ZM443.801 35V33.35C444.767 33.35 445.467 33.3 445.901 33.2C446.367 33.0667 446.667 32.8167 446.801 32.45C446.934 32.0833 447.001 31.55 447.001 30.85V16.05C447.001 15.3167 446.901 14.8167 446.701 14.55C446.534 14.2833 446.151 14.15 445.551 14.15H443.901V12.5L451.751 11.25H453.901V14.55H454.101V30.95C454.101 31.65 454.167 32.1833 454.301 32.55C454.467 32.8833 454.734 33.1 455.101 33.2C455.501 33.3 456.084 33.35 456.851 33.35V35H443.801ZM483.977 35.6C482.743 35.6 481.76 35.4833 481.027 35.25C480.293 35.05 479.677 34.85 479.177 34.65C478.677 34.45 478.177 34.35 477.677 34.35C477.31 34.35 477.027 34.4167 476.827 34.55C476.627 34.6833 476.46 34.85 476.327 35.05H475.127L474.677 26.9H476.277C476.677 29.0333 477.543 30.7167 478.877 31.95C480.21 33.1833 481.81 33.8 483.677 33.8C484.877 33.8 485.91 33.5167 486.777 32.95C487.677 32.35 488.127 31.4167 488.127 30.15C488.127 29.4833 487.993 28.95 487.727 28.55C487.46 28.1167 487.027 27.7333 486.427 27.4C485.827 27.0333 485.043 26.6667 484.077 26.3L481.377 25.55C479.043 24.7167 477.377 23.75 476.377 22.65C475.377 21.55 474.877 20.1667 474.877 18.5C474.877 16.1667 475.677 14.3333 477.277 13C478.91 11.6333 481.11 10.95 483.877 10.95C484.977 10.95 485.843 11.0333 486.477 11.2C487.143 11.3667 487.693 11.5333 488.127 11.7C488.593 11.8667 489.027 11.95 489.427 11.95C489.827 11.95 490.093 11.85 490.227 11.65C490.36 11.45 490.46 11.25 490.527 11.05H491.777L492.127 18.35H490.677C490.343 17.1833 489.877 16.1833 489.277 15.35C488.677 14.4833 487.96 13.8333 487.127 13.4C486.327 12.9333 485.393 12.7 484.327 12.7C483.093 12.7 482.11 12.9833 481.377 13.55C480.643 14.1167 480.277 14.85 480.277 15.75C480.277 16.4167 480.477 16.9833 480.877 17.45C481.31 17.8833 481.827 18.25 482.427 18.55C483.06 18.8167 483.677 19.0667 484.277 19.3L486.577 20C488.177 20.5 489.477 21.1 490.477 21.8C491.51 22.4667 492.277 23.2667 492.777 24.2C493.277 25.1 493.527 26.1833 493.527 27.45C493.527 29.0167 493.143 30.4167 492.377 31.65C491.643 32.8833 490.56 33.85 489.127 34.55C487.727 35.25 486.01 35.6 483.977 35.6ZM508.274 35V34.5C508.274 33.0667 508.507 31.75 508.974 30.55C509.44 29.3167 510.074 28.1833 510.874 27.15C511.674 26.1167 512.557 25.15 513.524 24.25C514.524 23.3167 515.54 22.4167 516.574 21.55C517.807 20.5167 518.957 19.45 520.024 18.35C521.124 17.25 522.007 16.0167 522.674 14.65C523.374 13.25 523.724 11.6 523.724 9.7C523.724 7.7 523.307 6.11667 522.474 4.95C521.674 3.75 520.557 3.15 519.124 3.15C518.29 3.15 517.607 3.33333 517.074 3.7C516.54 4.06667 516.274 4.56667 516.274 5.2C516.274 5.5 516.34 5.78333 516.474 6.05C516.607 6.31666 516.74 6.61666 516.874 6.95C517.007 7.25 517.074 7.68333 517.074 8.25C517.074 9.25 516.757 10.1167 516.124 10.85C515.49 11.55 514.59 11.9 513.424 11.9C512.324 11.9 511.424 11.55 510.724 10.85C510.057 10.15 509.724 9.18333 509.724 7.95C509.724 6.35 510.224 5.06666 511.224 4.1C512.257 3.13333 513.59 2.45 515.224 2.05C516.857 1.61666 518.557 1.4 520.324 1.4C522.524 1.4 524.457 1.71666 526.124 2.35C527.79 2.95 529.09 3.9 530.024 5.2C530.99 6.5 531.474 8.18333 531.474 10.25C531.474 11.95 531.107 13.4167 530.374 14.65C529.674 15.8833 528.607 17.05 527.174 18.15C525.74 19.2167 523.94 20.3833 521.774 21.65C520.14 22.6167 518.64 23.55 517.274 24.45C515.907 25.35 514.79 26.2333 513.924 27.1C513.057 27.9333 512.507 28.7667 512.274 29.6H526.324C527.224 29.6 527.94 29.5 528.474 29.3C529.007 29.0667 529.424 28.7167 529.724 28.25C530.024 27.75 530.274 27.1167 530.474 26.35H532.124L530.624 35H508.274ZM549.538 35.55C547.405 35.55 545.538 35.1167 543.938 34.25C542.372 33.3833 541.088 32.1833 540.088 30.65C539.088 29.0833 538.338 27.2667 537.838 25.2C537.338 23.1333 537.088 20.9 537.088 18.5C537.088 16.1 537.338 13.8667 537.838 11.8C538.338 9.73333 539.088 7.93333 540.088 6.4C541.088 4.83333 542.372 3.61667 543.938 2.75C545.538 1.88333 547.405 1.45 549.538 1.45C551.705 1.45 553.572 1.88333 555.138 2.75C556.705 3.61667 557.988 4.83333 558.988 6.4C560.022 7.93333 560.772 9.73333 561.238 11.8C561.738 13.8667 561.988 16.1 561.988 18.5C561.988 20.9 561.738 23.1333 561.238 25.2C560.772 27.2667 560.022 29.0833 558.988 30.65C557.988 32.1833 556.705 33.3833 555.138 34.25C553.572 35.1167 551.705 35.55 549.538 35.55ZM549.538 33.8C550.438 33.8 551.188 33.55 551.788 33.05C552.422 32.55 552.922 31.7167 553.288 30.55C553.688 29.3833 553.972 27.8167 554.138 25.85C554.305 23.8833 554.388 21.45 554.388 18.55C554.388 14.75 554.238 11.7333 553.938 9.5C553.638 7.26667 553.122 5.66667 552.388 4.7C551.688 3.7 550.738 3.2 549.538 3.2C548.338 3.2 547.388 3.7 546.688 4.7C545.988 5.66667 545.488 7.26667 545.188 9.5C544.888 11.7333 544.738 14.75 544.738 18.55C544.738 21.45 544.822 23.8833 544.988 25.85C545.155 27.8167 545.422 29.3833 545.788 30.55C546.155 31.7167 546.638 32.55 547.238 33.05C547.872 33.55 548.638 33.8 549.538 33.8ZM566.428 35V34.5C566.428 33.0667 566.661 31.75 567.128 30.55C567.595 29.3167 568.228 28.1833 569.028 27.15C569.828 26.1167 570.711 25.15 571.678 24.25C572.678 23.3167 573.695 22.4167 574.728 21.55C575.961 20.5167 577.111 19.45 578.178 18.35C579.278 17.25 580.161 16.0167 580.828 14.65C581.528 13.25 581.878 11.6 581.878 9.7C581.878 7.7 581.461 6.11667 580.628 4.95C579.828 3.75 578.711 3.15 577.278 3.15C576.445 3.15 575.761 3.33333 575.228 3.7C574.695 4.06667 574.428 4.56667 574.428 5.2C574.428 5.5 574.495 5.78333 574.628 6.05C574.761 6.31666 574.895 6.61666 575.028 6.95C575.161 7.25 575.228 7.68333 575.228 8.25C575.228 9.25 574.911 10.1167 574.278 10.85C573.645 11.55 572.745 11.9 571.578 11.9C570.478 11.9 569.578 11.55 568.878 10.85C568.211 10.15 567.878 9.18333 567.878 7.95C567.878 6.35 568.378 5.06666 569.378 4.1C570.411 3.13333 571.745 2.45 573.378 2.05C575.011 1.61666 576.711 1.4 578.478 1.4C580.678 1.4 582.611 1.71666 584.278 2.35C585.945 2.95 587.245 3.9 588.178 5.2C589.145 6.5 589.628 8.18333 589.628 10.25C589.628 11.95 589.261 13.4167 588.528 14.65C587.828 15.8833 586.761 17.05 585.328 18.15C583.895 19.2167 582.095 20.3833 579.928 21.65C578.295 22.6167 576.795 23.55 575.428 24.45C574.061 25.35 572.945 26.2333 572.078 27.1C571.211 27.9333 570.661 28.7667 570.428 29.6H584.478C585.378 29.6 586.095 29.5 586.628 29.3C587.161 29.0667 587.578 28.7167 587.878 28.25C588.178 27.75 588.428 27.1167 588.628 26.35H590.278L588.778 35H566.428ZM603.793 35V33.25H606.343C606.709 33.25 606.993 33.1333 607.193 32.9C607.426 32.6667 607.543 32.2167 607.543 31.55V26.4H594.243V23.1C595.909 20.4667 597.643 17.8667 599.443 15.3C601.243 12.7333 602.993 10.2833 604.693 7.95C606.393 5.61667 607.943 3.5 609.343 1.6H614.443V21.9H619.293V26.4H614.443V31.55C614.443 32.2167 614.543 32.6667 614.743 32.9C614.943 33.1333 615.259 33.25 615.693 33.25H618.143V35H603.793ZM597.743 21.9H607.543V7.7H607.393C606.259 9.3 605.093 10.95 603.893 12.65C602.726 14.3167 601.593 15.95 600.493 17.55C599.426 19.1167 598.509 20.5667 597.743 21.9Z" fill="black"/>
</g>
<defs>
<filter id="filter0_d_951_596" x="0.300781" y="0.5" width="622.992" height="43.0996" filterUnits="userSpaceOnUse" color-interpolation-filters="sRGB">
<feFlood flood-opacity="0" result="BackgroundImageFix"/>
<feColorMatrix in="SourceAlpha" type="matrix" values="0 0 0 0 0 0 0 0 0 0 0 0 0 0 0 0 0 0 127 0" result="hardAlpha"/>
<feOffset dy="4"/>
<feGaussianBlur stdDeviation="2"/>
<feComposite in2="hardAlpha" operator="out"/>
<feColorMatrix type="matrix" values="0 0 0 0 0 0 0 0 0 0 0 0 0 0 0 0 0 0 0.25 0"/>
<feBlend mode="normal" in2="BackgroundImageFix" result="effect1_dropShadow_951_596"/>
<feBlend mode="normal" in="SourceGraphic" in2="effect1_dropShadow_951_596" result="shape"/>
</filter>
</defs>
</svg>
