<svg width="638" height="194" viewBox="0 0 638 194" fill="none" xmlns="http://www.w3.org/2000/svg">
<rect y="122" width="638" height="30" fill="#EB917D" fill-opacity="0.7"/>
<g filter="url(#filter0_d_1124_715)">
<path d="M35.6 145.8C30.8 145.8 26.25 144.95 21.95 143.25C19.55 142.45 17.85 142.05 16.85 142.05C15.25 142.05 13.9 142.75 12.8 144.15H9.2L7.85 119.7H12.65C13.85 126.1 16.4 131.15 20.3 134.85C24.3 138.55 29.1 140.4 34.7 140.4C38.6 140.4 41.8 139.5 44.3 137.7C46.9 135.8 48.2 133.05 48.2 129.45C48.2 126.65 47.3 124.45 45.5 122.85C43.7 121.25 40.5 119.6 35.9 117.9L27.95 115.65C20.95 113.25 15.95 110.4 12.95 107.1C9.95 103.7 8.45 99.5 8.45 94.5C8.45 87.5 10.85 82 15.65 78C20.55 73.9 27.15 71.85 35.45 71.85C39.05 71.85 41.9 72.15 44 72.75C46.1 73.35 47.3 73.7 47.6 73.8C49.5 74.5 51 74.85 52.1 74.85C53.2 74.85 53.95 74.65 54.35 74.25C54.75 73.75 55.1 73.05 55.4 72.15H59.15L60.2 94.05H55.7C54.3 88.75 51.95 84.6 48.65 81.6C45.35 78.6 41.4 77.1 36.8 77.1C33.2 77.1 30.25 77.95 27.95 79.65C25.75 81.35 24.65 83.55 24.65 86.25C24.65 88.95 25.7 91.1 27.8 92.7C30 94.2 32.95 95.6 36.65 96.9L43.55 99C50.85 101.4 56.15 104.35 59.45 107.85C62.75 111.25 64.4 115.75 64.4 121.35C64.4 128.65 61.85 134.55 56.75 139.05C51.65 143.55 44.6 145.8 35.6 145.8ZM148.89 133.2C148.89 135 149.09 136.3 149.49 137.1C149.89 137.9 150.69 138.45 151.89 138.75C153.09 138.95 155.09 139.05 157.89 139.05V144H128.19V134.4H127.74C120.44 142 112.19 145.8 102.99 145.8C96.0898 145.8 90.7898 143.9 87.0898 140.1C83.3898 136.2 81.5398 130.35 81.5398 122.55V86.85C81.5398 84.55 81.2398 83.05 80.6398 82.35C80.1398 81.55 78.9898 81.15 77.1898 81.15H72.2398V76.2L96.0898 72.75H102.84V120.75C102.84 126.25 103.79 130.25 105.69 132.75C107.59 135.25 110.34 136.5 113.94 136.5C116.24 136.5 118.44 135.9 120.54 134.7C122.64 133.4 124.99 131.5 127.59 129V86.85C127.59 84.55 127.29 83.05 126.69 82.35C126.19 81.55 125.04 81.15 123.24 81.15H118.29V76.2L142.14 72.75H148.89V133.2ZM211.988 72C216.188 72 219.438 73.2 221.738 75.6C224.138 78 225.338 81.15 225.338 85.05C225.338 88.35 224.438 91.1 222.638 93.3C220.838 95.5 218.138 96.6 214.538 96.6C211.538 96.6 209.138 95.8 207.338 94.2C205.538 92.6 204.638 90.4 204.638 87.6C204.638 85.6 205.038 84.1 205.838 83.1C206.738 82 207.188 81.3 207.188 81C207.188 80.7 207.038 80.45 206.738 80.25C206.438 79.95 206.038 79.8 205.538 79.8C203.838 79.8 202.038 81.05 200.138 83.55C198.338 85.95 196.788 89 195.488 92.7C194.188 96.4 193.538 99.95 193.538 103.35H193.388V131.55C193.388 133.75 193.638 135.35 194.138 136.35C194.738 137.35 195.788 138.05 197.288 138.45C198.888 138.85 201.438 139.05 204.938 139.05V144H162.488V139.05C165.388 139.05 167.488 138.85 168.788 138.45C170.088 138.05 170.938 137.35 171.338 136.35C171.838 135.35 172.088 133.75 172.088 131.55V87.15C172.088 84.85 171.788 83.35 171.188 82.65C170.688 81.85 169.538 81.45 167.738 81.45H162.788V76.5L186.338 72.75H192.788V86.55H193.238C197.838 76.85 204.088 72 211.988 72ZM305.904 140.85C300.904 144.05 294.904 145.65 287.904 145.65C284.104 145.65 281.054 145 278.754 143.7C276.454 142.4 274.954 140.6 274.254 138.3C268.054 143.2 261.004 145.65 253.104 145.65C246.504 145.65 241.404 144.3 237.804 141.6C234.204 138.9 232.404 134.95 232.404 129.75C232.404 123.05 236.054 117.35 243.354 112.65C250.654 107.95 260.804 104.4 273.804 102V90.75C273.704 86.35 272.854 83.15 271.254 81.15C269.654 79.05 266.754 78 262.554 78C260.154 78 258.104 78.4 256.404 79.2C254.704 79.9 253.854 80.8 253.854 81.9C253.854 82.7 254.354 83.7 255.354 84.9C256.154 85.9 256.704 86.75 257.004 87.45C257.404 88.15 257.604 89.15 257.604 90.45C257.604 93.05 256.654 95.3 254.754 97.2C252.854 99 250.354 99.9 247.254 99.9C244.054 99.9 241.504 99 239.604 97.2C237.804 95.3 236.904 93.1 236.904 90.6C236.904 87.5 238.054 84.55 240.354 81.75C242.754 78.95 246.454 76.65 251.454 74.85C256.454 72.95 262.704 72 270.204 72C278.804 72 285.054 73.95 288.954 77.85C292.954 81.65 294.954 87.7 294.954 96V129C294.954 132.6 295.254 135 295.854 136.2C296.554 137.4 297.654 138 299.154 138C300.454 138 301.554 137.8 302.454 137.4C303.454 136.9 304.054 136.6 304.254 136.5L305.904 140.85ZM253.554 126.3C253.554 129.9 254.304 132.55 255.804 134.25C257.404 135.85 259.854 136.65 263.154 136.65C266.354 136.65 269.904 135.2 273.804 132.3V108.15C266.804 110.05 261.654 112.45 258.354 115.35C255.154 118.25 253.554 121.9 253.554 126.3ZM361.005 71.85C370.105 71.85 377.155 74.85 382.155 80.85C387.255 86.75 389.805 95.45 389.805 106.95C389.805 119.65 386.605 129.3 380.205 135.9C373.805 142.5 364.855 145.8 353.355 145.8C348.955 145.8 345.005 145.25 341.505 144.15C338.005 143.15 334.255 141.6 330.255 139.5L326.055 144H318.705V55.2C318.705 52.7 318.405 51.1 317.805 50.4C317.205 49.6 315.805 49.2 313.605 49.2H309.405V44.1L333.405 40.5H340.005V79.35H340.155C346.055 74.35 353.005 71.85 361.005 71.85ZM352.005 140.4C357.405 140.4 361.305 138.05 363.705 133.35C366.205 128.55 367.455 120.7 367.455 109.8C367.455 90.1 362.355 80.25 352.155 80.25C349.955 80.25 347.905 80.85 346.005 82.05C344.105 83.25 342.105 84.9 340.005 87V134.7C343.805 138.5 347.805 140.4 352.005 140.4ZM472.749 140.85C467.749 144.05 461.749 145.65 454.749 145.65C450.949 145.65 447.899 145 445.599 143.7C443.299 142.4 441.799 140.6 441.099 138.3C434.899 143.2 427.849 145.65 419.949 145.65C413.349 145.65 408.249 144.3 404.649 141.6C401.049 138.9 399.249 134.95 399.249 129.75C399.249 123.05 402.899 117.35 410.199 112.65C417.499 107.95 427.649 104.4 440.649 102V90.75C440.549 86.35 439.699 83.15 438.099 81.15C436.499 79.05 433.599 78 429.399 78C426.999 78 424.949 78.4 423.249 79.2C421.549 79.9 420.699 80.8 420.699 81.9C420.699 82.7 421.199 83.7 422.199 84.9C422.999 85.9 423.549 86.75 423.849 87.45C424.249 88.15 424.449 89.15 424.449 90.45C424.449 93.05 423.499 95.3 421.599 97.2C419.699 99 417.199 99.9 414.099 99.9C410.899 99.9 408.349 99 406.449 97.2C404.649 95.3 403.749 93.1 403.749 90.6C403.749 87.5 404.899 84.55 407.199 81.75C409.599 78.95 413.299 76.65 418.299 74.85C423.299 72.95 429.549 72 437.049 72C445.649 72 451.899 73.95 455.799 77.85C459.799 81.65 461.799 87.7 461.799 96V129C461.799 132.6 462.099 135 462.699 136.2C463.399 137.4 464.499 138 465.999 138C467.299 138 468.399 137.8 469.299 137.4C470.299 136.9 470.899 136.6 471.099 136.5L472.749 140.85ZM420.399 126.3C420.399 129.9 421.149 132.55 422.649 134.25C424.249 135.85 426.699 136.65 429.999 136.65C433.199 136.65 436.749 135.2 440.649 132.3V108.15C433.649 110.05 428.499 112.45 425.199 115.35C421.999 118.25 420.399 121.9 420.399 126.3ZM548.851 73.5V78.45C546.251 78.45 544.251 78.95 542.851 79.95C541.551 80.95 540.201 83.2 538.801 86.7L516.151 142.2C514.751 145.6 513.751 148.15 513.151 149.85C510.651 156.05 508.501 160.8 506.701 164.1C505.001 167.5 502.801 170.25 500.101 172.35C497.401 174.55 494.001 175.65 489.901 175.65C485.801 175.65 482.251 174.35 479.251 171.75C476.351 169.15 474.901 166 474.901 162.3C474.901 159.5 475.801 157.1 477.601 155.1C479.501 153.1 481.901 152.1 484.801 152.1C487.601 152.1 489.801 152.95 491.401 154.65C493.101 156.35 493.951 158.5 493.951 161.1C493.951 162.8 493.501 164.2 492.601 165.3C491.801 166.4 491.401 167.2 491.401 167.7C491.401 168.4 491.651 168.95 492.151 169.35C492.651 169.75 493.301 169.95 494.101 169.95C497.701 169.95 501.301 165.15 504.901 155.55L508.051 147.15L482.251 84.6C481.451 82.6 480.701 81.2 480.001 80.4C479.401 79.6 478.501 79.1 477.301 78.9C476.201 78.6 474.401 78.45 471.901 78.45V73.5H511.801V78.45H507.151C505.151 78.45 504.151 79.35 504.151 81.15C504.151 81.45 504.351 82.3 504.751 83.7L518.251 120H518.551L532.651 82.95C532.851 82.15 532.951 81.55 532.951 81.15C532.951 79.35 531.951 78.45 529.951 78.45H525.001V73.5H548.851ZM629.048 140.85C624.048 144.05 618.048 145.65 611.048 145.65C607.248 145.65 604.198 145 601.898 143.7C599.598 142.4 598.098 140.6 597.398 138.3C591.198 143.2 584.148 145.65 576.248 145.65C569.648 145.65 564.548 144.3 560.948 141.6C557.348 138.9 555.548 134.95 555.548 129.75C555.548 123.05 559.198 117.35 566.498 112.65C573.798 107.95 583.948 104.4 596.948 102V90.75C596.848 86.35 595.998 83.15 594.398 81.15C592.798 79.05 589.898 78 585.698 78C583.298 78 581.248 78.4 579.548 79.2C577.848 79.9 576.998 80.8 576.998 81.9C576.998 82.7 577.498 83.7 578.498 84.9C579.298 85.9 579.848 86.75 580.148 87.45C580.548 88.15 580.748 89.15 580.748 90.45C580.748 93.05 579.798 95.3 577.898 97.2C575.998 99 573.498 99.9 570.398 99.9C567.198 99.9 564.648 99 562.748 97.2C560.948 95.3 560.048 93.1 560.048 90.6C560.048 87.5 561.198 84.55 563.498 81.75C565.898 78.95 569.598 76.65 574.598 74.85C579.598 72.95 585.848 72 593.348 72C601.948 72 608.198 73.95 612.098 77.85C616.098 81.65 618.098 87.7 618.098 96V129C618.098 132.6 618.398 135 618.998 136.2C619.698 137.4 620.798 138 622.298 138C623.598 138 624.698 137.8 625.598 137.4C626.598 136.9 627.198 136.6 627.398 136.5L629.048 140.85ZM576.698 126.3C576.698 129.9 577.448 132.55 578.948 134.25C580.548 135.85 582.998 136.65 586.298 136.65C589.498 136.65 593.048 135.2 596.948 132.3V108.15C589.948 110.05 584.798 112.45 581.498 115.35C578.298 118.25 576.698 121.9 576.698 126.3Z" fill="white"/>
</g>
<defs>
<filter id="filter0_d_1124_715" x="3.84961" y="40.5" width="629.199" height="143.15" filterUnits="userSpaceOnUse" color-interpolation-filters="sRGB">
<feFlood flood-opacity="0" result="BackgroundImageFix"/>
<feColorMatrix in="SourceAlpha" type="matrix" values="0 0 0 0 0 0 0 0 0 0 0 0 0 0 0 0 0 0 127 0" result="hardAlpha"/>
<feOffset dy="4"/>
<feGaussianBlur stdDeviation="2"/>
<feComposite in2="hardAlpha" operator="out"/>
<feColorMatrix type="matrix" values="0 0 0 0 0 0 0 0 0 0 0 0 0 0 0 0 0 0 0.25 0"/>
<feBlend mode="normal" in2="BackgroundImageFix" result="effect1_dropShadow_1124_715"/>
<feBlend mode="normal" in="SourceGraphic" in2="effect1_dropShadow_1124_715" result="shape"/>
</filter>
</defs>
</svg>
