<svg width="594" height="295" viewBox="0 0 594 295" fill="none" xmlns="http://www.w3.org/2000/svg">
<g filter="url(#filter0_d_966_1999)">
<path d="M7.96733 12L8.53409 8.59943C8.70313 7.65483 9.05611 6.70028 9.59304 5.73579C10.13 4.76136 10.7663 3.85653 11.5021 3.02131C12.2379 2.17614 12.9837 1.48011 13.7393 0.933239L16.5433 2.63352C15.8572 3.50852 15.2756 4.42329 14.7983 5.37784C14.321 6.32244 13.983 7.39133 13.7841 8.58452L13.2173 12H7.96733ZM15.4545 12L16.0213 8.59943C16.1903 7.65483 16.5433 6.70028 17.0803 5.73579C17.6172 4.76136 18.2536 3.85653 18.9893 3.02131C19.7251 2.17614 20.4709 1.48011 21.2266 0.933239L24.0305 2.63352C23.3445 3.50852 22.7628 4.42329 22.2855 5.37784C21.8082 6.32244 21.4702 7.39133 21.2713 8.58452L20.7045 12H15.4545ZM34.1502 33H22.6957L27.7667 2.45454H38.8782C41.9805 2.45454 44.5657 3.08594 46.6339 4.34872C48.712 5.60156 50.1786 7.40128 51.0337 9.74787C51.8988 12.0845 52.0629 14.8686 51.5259 18.1001C51.0089 21.2223 49.9698 23.897 48.4087 26.1243C46.8576 28.3516 44.869 30.0568 42.4428 31.2401C40.0167 32.4134 37.2525 33 34.1502 33ZM31.1076 26.706H34.6126C36.3228 26.706 37.8342 26.3977 39.1467 25.7812C40.4691 25.1548 41.5629 24.1555 42.4279 22.7834C43.293 21.4013 43.9094 19.5866 44.2773 17.3395C44.6353 15.1918 44.6204 13.4964 44.2326 12.2536C43.8548 11.0007 43.119 10.1058 42.0252 9.56889C40.9414 9.02202 39.5245 8.74858 37.7745 8.74858H34.1055L31.1076 26.706ZM53.3754 33L57.1935 10.0909H64.4869L60.6687 33H53.3754ZM61.3548 7.40625C60.3207 7.40625 59.4805 7.06321 58.8342 6.37713C58.1879 5.69105 57.9343 4.87074 58.0735 3.91619C58.2127 2.9517 58.6999 2.13139 59.5352 1.45525C60.3704 0.779119 61.3001 0.441051 62.3242 0.441051C63.3583 0.441051 64.1886 0.779119 64.815 1.45525C65.4513 2.13139 65.6999 2.9517 65.5607 3.91619C65.4414 4.87074 64.9641 5.69105 64.1289 6.37713C63.3036 7.06321 62.3789 7.40625 61.3548 7.40625ZM87.9068 17.0859L81.3294 17.2649C81.3393 16.7777 81.2299 16.3501 81.0012 15.9822C80.7725 15.6044 80.4494 15.3111 80.0318 15.1023C79.6142 14.8935 79.117 14.7891 78.5403 14.7891C77.6056 14.7891 76.7654 14.9979 76.0197 15.4155C75.2839 15.8331 74.8713 16.375 74.7818 17.0412C74.7122 17.3991 74.8116 17.7124 75.0801 17.9808C75.3485 18.2393 75.9451 18.468 76.8699 18.6669L81.1653 19.5021C83.3727 19.9396 84.9735 20.7003 85.9679 21.7841C86.9721 22.858 87.3301 24.2798 87.0417 26.0497C86.7832 27.5611 86.117 28.8686 85.0431 29.9723C83.9792 31.076 82.622 31.9311 80.9714 32.5376C79.3308 33.1342 77.5162 33.4325 75.5275 33.4325C72.1667 33.4325 69.6312 32.7564 67.921 31.4041C66.2207 30.0419 65.4252 28.2372 65.5346 25.9901L72.6341 25.8111C72.6639 26.6562 72.9473 27.2926 73.4842 27.7202C74.0311 28.1378 74.7718 28.3565 75.7065 28.3764C76.7306 28.3963 77.6156 28.1825 78.3613 27.7351C79.1071 27.2876 79.5247 26.7358 79.6142 26.0795C79.6738 25.652 79.5297 25.3189 79.1816 25.0803C78.8436 24.8416 78.2122 24.6278 77.2875 24.4389L73.4096 23.6783C71.1824 23.2507 69.5716 22.4453 68.5772 21.2621C67.5929 20.0689 67.2548 18.5476 67.563 16.6982C67.8216 15.2266 68.4281 13.9787 69.3826 12.9545C70.3471 11.9205 71.6049 11.1349 73.1561 10.598C74.7172 10.0611 76.497 9.79261 78.4956 9.79261C81.6973 9.79261 84.1135 10.4439 85.7441 11.7464C87.3848 13.0391 88.1056 14.8189 87.9068 17.0859ZM89.4691 33L93.2873 10.0909H100.372L99.6708 14.267H99.9094C100.576 12.7557 101.446 11.6321 102.52 10.8963C103.593 10.1506 104.757 9.7777 106.01 9.7777C106.348 9.7777 106.686 9.80256 107.024 9.85227C107.372 9.89204 107.7 9.9517 108.008 10.0312L106.934 16.3849C106.596 16.2557 106.154 16.1612 105.607 16.1016C105.06 16.032 104.563 15.9972 104.115 15.9972C103.25 15.9972 102.445 16.1911 101.699 16.5788C100.963 16.9567 100.337 17.4886 99.82 18.1747C99.3129 18.8509 98.9798 19.6463 98.8207 20.5611L96.7624 33H89.4691ZM123.568 23.1115L125.746 10.0909H133.024L129.206 33H122.256L122.956 28.7344H122.718C122.012 30.1364 120.973 31.25 119.601 32.0753C118.229 32.8906 116.682 33.2983 114.962 33.2983C113.401 33.2983 112.089 32.9403 111.025 32.2244C109.961 31.5085 109.205 30.5092 108.758 29.2266C108.32 27.9339 108.241 26.4226 108.519 24.6925L110.965 10.0909H118.258L116.066 23.2607C115.877 24.5036 116.041 25.483 116.558 26.1989C117.085 26.9148 117.91 27.2727 119.034 27.2727C119.76 27.2727 120.441 27.1136 121.077 26.7955C121.714 26.4673 122.251 25.995 122.688 25.3786C123.135 24.7521 123.429 23.9964 123.568 23.1115ZM132.461 41.5909L137.741 10.0909H144.96L144.318 14.0135H144.542C144.94 13.3175 145.467 12.6463 146.123 12C146.789 11.3537 147.589 10.8267 148.524 10.419C149.459 10.0014 150.528 9.79261 151.731 9.79261C153.322 9.79261 154.739 10.2102 155.982 11.0455C157.224 11.8807 158.129 13.1683 158.696 14.9084C159.263 16.6484 159.322 18.8658 158.875 21.5604C158.447 24.1555 157.672 26.3281 156.548 28.0781C155.435 29.8281 154.112 31.1406 152.581 32.0156C151.05 32.8906 149.444 33.3281 147.763 33.3281C146.61 33.3281 145.636 33.1392 144.84 32.7614C144.055 32.3835 143.433 31.8864 142.976 31.2699C142.518 30.6534 142.2 29.9922 142.021 29.2862H141.812L139.784 41.5909H132.461ZM142.976 21.5455C142.777 22.7784 142.767 23.8523 142.946 24.767C143.125 25.6818 143.488 26.3928 144.035 26.8999C144.592 27.397 145.313 27.6456 146.197 27.6456C147.092 27.6456 147.888 27.397 148.584 26.8999C149.29 26.3928 149.881 25.6818 150.359 24.767C150.836 23.8523 151.184 22.7784 151.403 21.5455C151.592 20.3125 151.597 19.2436 151.418 18.3388C151.249 17.4339 150.896 16.733 150.359 16.2358C149.822 15.7386 149.101 15.4901 148.196 15.4901C147.311 15.4901 146.506 15.7337 145.78 16.2209C145.064 16.7081 144.467 17.4041 143.99 18.3089C143.513 19.2138 143.175 20.2926 142.976 21.5455ZM177.545 10.0909L176.635 15.4602H162.182L163.092 10.0909H177.545ZM167.015 4.60227H174.308L170.788 25.7962C170.719 26.2436 170.729 26.6065 170.818 26.8849C170.917 27.1534 171.096 27.3473 171.355 27.4666C171.623 27.576 171.952 27.6307 172.339 27.6307C172.608 27.6307 172.906 27.6009 173.234 27.5412C173.562 27.4815 173.811 27.4368 173.98 27.407L174.219 32.6719C173.831 32.7812 173.309 32.9055 172.653 33.0447C172.006 33.1939 171.251 33.2884 170.385 33.3281C168.635 33.3977 167.189 33.1939 166.045 32.7166C164.912 32.2294 164.111 31.4737 163.644 30.4496C163.187 29.4254 163.097 28.1428 163.376 26.6016L167.015 4.60227ZM177.448 33L181.266 10.0909H188.559L184.741 33H177.448ZM185.427 7.40625C184.393 7.40625 183.553 7.06321 182.906 6.37713C182.26 5.69105 182.007 4.87074 182.146 3.91619C182.285 2.9517 182.772 2.13139 183.607 1.45525C184.443 0.779119 185.372 0.441051 186.396 0.441051C187.431 0.441051 188.261 0.779119 188.887 1.45525C189.524 2.13139 189.772 2.9517 189.633 3.91619C189.514 4.87074 189.036 5.69105 188.201 6.37713C187.376 7.06321 186.451 7.40625 185.427 7.40625ZM215.424 10.0909L203.746 33H195.394L191.367 10.0909H198.779L200.39 25.8707H200.629L207.475 10.0909H215.424ZM224.314 33.4325C221.917 33.4325 219.929 32.9602 218.348 32.0156C216.777 31.0611 215.673 29.7038 215.037 27.9439C214.4 26.174 214.286 24.071 214.694 21.6349C215.091 19.2685 215.902 17.2003 217.125 15.4304C218.358 13.6506 219.909 12.2685 221.778 11.2841C223.647 10.2898 225.73 9.79261 228.027 9.79261C229.658 9.79261 231.105 10.0462 232.368 10.5533C233.63 11.0604 234.674 11.8161 235.5 12.8203C236.325 13.8146 236.887 15.0376 237.185 16.4893C237.483 17.9411 237.473 19.6065 237.155 21.4858L236.872 23.3054H216.975L217.647 19.0696H230.772C230.891 18.294 230.826 17.603 230.578 16.9964C230.329 16.3899 229.926 15.9176 229.37 15.5795C228.823 15.2315 228.152 15.0575 227.356 15.0575C226.551 15.0575 225.795 15.2464 225.089 15.6243C224.393 15.9922 223.801 16.4893 223.314 17.1158C222.827 17.7422 222.509 18.4482 222.36 19.2337L221.569 23.5739C221.41 24.5384 221.455 25.3636 221.703 26.0497C221.952 26.7358 222.38 27.2628 222.986 27.6307C223.593 27.9886 224.373 28.1676 225.328 28.1676C225.964 28.1676 226.561 28.0831 227.118 27.9141C227.674 27.7351 228.172 27.4716 228.609 27.1236C229.056 26.7656 229.419 26.3331 229.698 25.826L236.35 26.0199C235.813 27.5213 234.983 28.8288 233.859 29.9425C232.735 31.0462 231.363 31.9062 229.743 32.5227C228.132 33.1293 226.322 33.4325 224.314 33.4325ZM260.448 2.45454L255.377 33H247.994L253.066 2.45454H260.448ZM269.528 19.9347L267.35 33H260.057L263.875 10.0909H270.81L270.124 14.2969H270.378C271.094 12.8949 272.133 11.7962 273.495 11.0007C274.857 10.1953 276.388 9.79261 278.089 9.79261C279.69 9.79261 281.027 10.1506 282.101 10.8665C283.175 11.5824 283.935 12.5866 284.383 13.8793C284.83 15.1619 284.905 16.6683 284.607 18.3984L282.161 33H274.867L277.06 19.8303C277.278 18.5675 277.124 17.5781 276.597 16.8622C276.08 16.1364 275.235 15.7734 274.062 15.7734C273.296 15.7734 272.595 15.9425 271.959 16.2805C271.332 16.6087 270.805 17.081 270.378 17.6974C269.96 18.3139 269.677 19.0597 269.528 19.9347ZM296.147 19.9347L293.969 33H286.676L290.494 10.0909H297.43L296.743 14.2969H296.997C297.713 12.8949 298.752 11.7962 300.114 11.0007C301.476 10.1953 303.008 9.79261 304.708 9.79261C306.309 9.79261 307.646 10.1506 308.72 10.8665C309.794 11.5824 310.555 12.5866 311.002 13.8793C311.449 15.1619 311.524 16.6683 311.226 18.3984L308.78 33H301.486L303.679 19.8303C303.898 18.5675 303.743 17.5781 303.216 16.8622C302.699 16.1364 301.854 15.7734 300.681 15.7734C299.915 15.7734 299.214 15.9425 298.578 16.2805C297.952 16.6087 297.425 17.081 296.997 17.6974C296.579 18.3139 296.296 19.0597 296.147 19.9347ZM323.929 33.4325C321.513 33.4325 319.52 32.9354 317.949 31.9411C316.387 30.9467 315.289 29.5597 314.652 27.7798C314.016 26 313.892 23.9318 314.279 21.5753C314.667 19.2287 315.468 17.1705 316.681 15.4006C317.894 13.6307 319.445 12.2536 321.334 11.2692C323.223 10.2848 325.366 9.79261 327.762 9.79261C330.169 9.79261 332.152 10.2898 333.713 11.2841C335.284 12.2784 336.388 13.6655 337.025 15.4453C337.671 17.2251 337.8 19.2983 337.412 21.6648C337.025 24.0114 336.219 26.0696 334.996 27.8395C333.773 29.5994 332.222 30.9716 330.343 31.956C328.463 32.9403 326.326 33.4325 323.929 33.4325ZM324.75 27.929C325.645 27.929 326.445 27.6605 327.151 27.1236C327.867 26.5866 328.468 25.8359 328.956 24.8714C329.443 23.907 329.791 22.7884 330 21.5156C330.208 20.2628 330.228 19.1641 330.059 18.2195C329.9 17.2649 329.562 16.5241 329.045 15.9972C328.528 15.4602 327.827 15.1918 326.942 15.1918C326.047 15.1918 325.242 15.4652 324.526 16.0121C323.81 16.549 323.208 17.2997 322.721 18.2642C322.244 19.2187 321.901 20.3374 321.692 21.62C321.483 22.8729 321.458 23.9716 321.618 24.9162C321.777 25.8608 322.12 26.6016 322.647 27.1385C323.174 27.6655 323.875 27.929 324.75 27.929ZM364.557 10.0909L352.879 33H344.527L340.5 10.0909H347.912L349.523 25.8707H349.762L356.608 10.0909H364.557ZM369.319 33.3878C367.867 33.3878 366.614 33.1442 365.56 32.657C364.516 32.1598 363.751 31.4091 363.263 30.4048C362.786 29.4006 362.672 28.1477 362.92 26.6463C363.139 25.3736 363.542 24.3047 364.128 23.4396C364.725 22.5646 365.456 21.8537 366.321 21.3068C367.196 20.7599 368.17 20.3423 369.244 20.054C370.318 19.7656 371.442 19.5717 372.615 19.4723C373.927 19.353 374.991 19.2237 375.807 19.0845C376.632 18.9453 377.248 18.7514 377.656 18.5028C378.064 18.2443 378.312 17.8864 378.402 17.429V17.3544C378.521 16.5888 378.357 15.9972 377.91 15.5795C377.462 15.1619 376.791 14.9531 375.896 14.9531C374.942 14.9531 374.126 15.1619 373.45 15.5795C372.774 15.9972 372.302 16.5739 372.033 17.3097L365.351 17.071C365.769 15.679 366.485 14.4361 367.499 13.3423C368.513 12.2386 369.801 11.3736 371.362 10.7472C372.933 10.1108 374.748 9.79261 376.806 9.79261C378.258 9.79261 379.57 9.96662 380.743 10.3146C381.917 10.6527 382.906 11.1499 383.711 11.8061C384.527 12.4524 385.108 13.2479 385.457 14.1925C385.805 15.1371 385.879 16.2159 385.68 17.429L383.07 33H376.209L376.746 29.8082H376.567C376.03 30.5838 375.399 31.2401 374.673 31.777C373.957 32.3139 373.152 32.7166 372.257 32.9851C371.362 33.2536 370.383 33.3878 369.319 33.3878ZM372.391 28.6151C373.157 28.6151 373.883 28.456 374.569 28.1378C375.255 27.8196 375.831 27.3821 376.299 26.8253C376.776 26.2585 377.079 25.6023 377.209 24.8565L377.552 22.679C377.343 22.7884 377.079 22.8878 376.761 22.9773C376.443 23.0668 376.105 23.1513 375.747 23.2308C375.389 23.3004 375.021 23.37 374.643 23.4396C374.275 23.4993 373.922 23.554 373.584 23.6037C372.868 23.7131 372.247 23.8821 371.72 24.1108C371.193 24.3395 370.77 24.6378 370.452 25.0057C370.144 25.3636 369.955 25.7912 369.885 26.2884C369.766 27.0341 369.94 27.6108 370.407 28.0185C370.875 28.4162 371.536 28.6151 372.391 28.6151ZM404.279 10.0909L403.369 15.4602H388.917L389.827 10.0909H404.279ZM393.749 4.60227H401.042L397.523 25.7962C397.453 26.2436 397.463 26.6065 397.552 26.8849C397.652 27.1534 397.831 27.3473 398.089 27.4666C398.358 27.576 398.686 27.6307 399.074 27.6307C399.342 27.6307 399.64 27.6009 399.969 27.5412C400.297 27.4815 400.545 27.4368 400.714 27.407L400.953 32.6719C400.565 32.7812 400.043 32.9055 399.387 33.0447C398.741 33.1939 397.985 33.2884 397.12 33.3281C395.37 33.3977 393.923 33.1939 392.78 32.7166C391.646 32.2294 390.846 31.4737 390.378 30.4496C389.921 29.4254 389.831 28.1428 390.11 26.6016L393.749 4.60227ZM404.182 33L408 10.0909H415.294L411.475 33H404.182ZM412.161 7.40625C411.127 7.40625 410.287 7.06321 409.641 6.37713C408.994 5.69105 408.741 4.87074 408.88 3.91619C409.019 2.9517 409.507 2.13139 410.342 1.45525C411.177 0.779119 412.107 0.441051 413.131 0.441051C414.165 0.441051 414.995 0.779119 415.622 1.45525C416.258 2.13139 416.507 2.9517 416.367 3.91619C416.248 4.87074 415.771 5.69105 414.936 6.37713C414.11 7.06321 413.186 7.40625 412.161 7.40625ZM426.797 33.4325C424.38 33.4325 422.387 32.9354 420.816 31.9411C419.255 30.9467 418.156 29.5597 417.52 27.7798C416.883 26 416.759 23.9318 417.147 21.5753C417.534 19.2287 418.335 17.1705 419.548 15.4006C420.761 13.6307 422.312 12.2536 424.201 11.2692C426.091 10.2848 428.233 9.79261 430.63 9.79261C433.036 9.79261 435.02 10.2898 436.581 11.2841C438.152 12.2784 439.255 13.6655 439.892 15.4453C440.538 17.2251 440.667 19.2983 440.279 21.6648C439.892 24.0114 439.086 26.0696 437.863 27.8395C436.64 29.5994 435.089 30.9716 433.21 31.956C431.331 32.9403 429.193 33.4325 426.797 33.4325ZM427.617 27.929C428.512 27.929 429.312 27.6605 430.018 27.1236C430.734 26.5866 431.336 25.8359 431.823 24.8714C432.31 23.907 432.658 22.7884 432.867 21.5156C433.076 20.2628 433.096 19.1641 432.926 18.2195C432.767 17.2649 432.429 16.5241 431.912 15.9972C431.395 15.4602 430.694 15.1918 429.809 15.1918C428.914 15.1918 428.109 15.4652 427.393 16.0121C426.677 16.549 426.076 17.2997 425.588 18.2642C425.111 19.2187 424.768 20.3374 424.559 21.62C424.35 22.8729 424.326 23.9716 424.485 24.9162C424.644 25.8608 424.987 26.6016 425.514 27.1385C426.041 27.6655 426.742 27.929 427.617 27.929ZM451.637 19.9347L449.46 33H442.166L445.984 10.0909H452.92L452.234 14.2969H452.487C453.203 12.8949 454.242 11.7962 455.604 11.0007C456.967 10.1953 458.498 9.79261 460.198 9.79261C461.799 9.79261 463.136 10.1506 464.21 10.8665C465.284 11.5824 466.045 12.5866 466.492 13.8793C466.94 15.1619 467.014 16.6683 466.716 18.3984L464.27 33H456.977L459.169 19.8303C459.388 18.5675 459.234 17.5781 458.707 16.8622C458.19 16.1364 457.344 15.7734 456.171 15.7734C455.406 15.7734 454.705 15.9425 454.068 16.2805C453.442 16.6087 452.915 17.081 452.487 17.6974C452.07 18.3139 451.786 19.0597 451.637 19.9347ZM476.899 28.8239L476.466 30.4794C476.128 31.8516 475.666 33.1889 475.079 34.4915C474.503 35.804 473.931 36.9822 473.364 38.0263C472.797 39.0703 472.345 39.8807 472.007 40.4574H467.413C467.642 39.9205 467.98 39.125 468.427 38.071C468.885 37.017 469.342 35.8288 469.8 34.5064C470.257 33.1839 470.605 31.8466 470.844 30.4943L471.172 28.8239H476.899ZM35.3359 74.5213H27.968C28.0078 73.7457 27.9332 73.0547 27.7443 72.4482C27.5554 71.8317 27.2571 71.3047 26.8494 70.8672C26.4418 70.4197 25.9347 70.0817 25.3281 69.853C24.7216 69.6243 24.0156 69.5099 23.2102 69.5099C21.669 69.5099 20.272 69.8928 19.0192 70.6584C17.7663 71.424 16.7173 72.5277 15.8722 73.9695C15.027 75.4112 14.4354 77.1413 14.0973 79.1598C13.7891 81.1087 13.794 82.7344 14.1122 84.0369C14.4403 85.3395 15.0469 86.3189 15.9318 86.9751C16.8168 87.6214 17.9403 87.9446 19.3026 87.9446C20.1875 87.9446 21.0078 87.8402 21.7635 87.6314C22.5291 87.4126 23.2202 87.0994 23.8366 86.6918C24.4531 86.2841 24.9851 85.7919 25.4325 85.2152C25.8899 84.6286 26.2429 83.9773 26.4915 83.2614H33.919C33.5511 84.6037 32.9446 85.9411 32.0994 87.2734C31.2642 88.5959 30.2102 89.794 28.9375 90.8679C27.6648 91.9418 26.1882 92.8018 24.5078 93.4482C22.8274 94.0945 20.9581 94.4176 18.8999 94.4176C16.0859 94.4176 13.6598 93.7862 11.6214 92.5234C9.59304 91.2607 8.12642 89.4311 7.22159 87.0348C6.3267 84.6286 6.15767 81.7152 6.71449 78.2947C7.26136 74.9837 8.3402 72.1946 9.95099 69.9276C11.5717 67.6605 13.5405 65.9453 15.8572 64.782C18.1839 63.6186 20.6648 63.0369 23.2997 63.0369C25.2088 63.0369 26.924 63.2955 28.4453 63.8125C29.9766 64.3196 31.2741 65.0653 32.3381 66.0497C33.402 67.0241 34.1925 68.2223 34.7095 69.6442C35.2365 71.0661 35.4453 72.6918 35.3359 74.5213ZM47.0328 94.4325C44.6167 94.4325 42.623 93.9354 41.052 92.9411C39.4909 91.9467 38.3922 90.5597 37.7559 88.7798C37.1195 87 36.9952 84.9318 37.383 82.5753C37.7708 80.2287 38.5712 78.1705 39.7843 76.4006C40.9973 74.6307 42.5485 73.2536 44.4377 72.2692C46.3269 71.2848 48.4696 70.7926 50.8659 70.7926C53.2722 70.7926 55.2559 71.2898 56.8169 72.2841C58.388 73.2784 59.4917 74.6655 60.128 76.4453C60.7743 78.2251 60.9036 80.2983 60.5158 82.6648C60.128 85.0114 59.3226 87.0696 58.0996 88.8395C56.8766 90.5994 55.3255 91.9716 53.4462 92.956C51.5669 93.9403 49.4292 94.4325 47.0328 94.4325ZM47.8532 88.929C48.748 88.929 49.5485 88.6605 50.2544 88.1236C50.9703 87.5866 51.5719 86.8359 52.0591 85.8714C52.5463 84.907 52.8944 83.7884 53.1032 82.5156C53.312 81.2628 53.3319 80.1641 53.1628 79.2195C53.0037 78.2649 52.6657 77.5241 52.1486 76.9972C51.6316 76.4602 50.9306 76.1918 50.0456 76.1918C49.1507 76.1918 48.3453 76.4652 47.6294 77.0121C46.9135 77.549 46.312 78.2997 45.8248 79.2642C45.3475 80.2187 45.0044 81.3374 44.7956 82.62C44.5868 83.8729 44.562 84.9716 44.7211 85.9162C44.8801 86.8608 45.2232 87.6016 45.7502 88.1385C46.2772 88.6655 46.9782 88.929 47.8532 88.929ZM71.8734 80.9347L69.6958 94H62.4025L66.2207 71.0909H73.1561L72.47 75.2969H72.7235C73.4395 73.8949 74.4785 72.7962 75.8407 72.0007C77.2029 71.1953 78.7342 70.7926 80.4345 70.7926C82.0353 70.7926 83.3727 71.1506 84.4466 71.8665C85.5204 72.5824 86.2811 73.5866 86.7285 74.8793C87.176 76.1619 87.2505 77.6683 86.9522 79.3984L84.5062 94H77.2129L79.4054 80.8303C79.6241 79.5675 79.47 78.5781 78.943 77.8622C78.426 77.1364 77.5808 76.7734 76.4075 76.7734C75.6419 76.7734 74.9409 76.9425 74.3045 77.2805C73.6781 77.6087 73.1511 78.081 72.7235 78.6974C72.3059 79.3139 72.0226 80.0597 71.8734 80.9347ZM111.573 78.0859L104.995 78.2649C105.005 77.7777 104.896 77.3501 104.667 76.9822C104.439 76.6044 104.115 76.3111 103.698 76.1023C103.28 75.8935 102.783 75.7891 102.206 75.7891C101.272 75.7891 100.431 75.9979 99.6857 76.4155C98.9499 76.8331 98.5373 77.375 98.4478 78.0412C98.3782 78.3991 98.4776 78.7124 98.7461 78.9808C99.0146 79.2393 99.6112 79.468 100.536 79.6669L104.831 80.5021C107.039 80.9396 108.64 81.7003 109.634 82.7841C110.638 83.858 110.996 85.2798 110.708 87.0497C110.449 88.5611 109.783 89.8686 108.709 90.9723C107.645 92.076 106.288 92.9311 104.637 93.5376C102.997 94.1342 101.182 94.4325 99.1935 94.4325C95.8327 94.4325 93.2972 93.7564 91.587 92.4041C89.8867 91.0419 89.0913 89.2372 89.2006 86.9901L96.3001 86.8111C96.3299 87.6562 96.6133 88.2926 97.1502 88.7202C97.6971 89.1378 98.4379 89.3565 99.3725 89.3764C100.397 89.3963 101.282 89.1825 102.027 88.7351C102.773 88.2876 103.191 87.7358 103.28 87.0795C103.34 86.652 103.196 86.3189 102.848 86.0803C102.51 85.8416 101.878 85.6278 100.953 85.4389L97.0756 84.6783C94.8484 84.2507 93.2376 83.4453 92.2433 82.2621C91.2589 81.0689 90.9208 79.5476 91.229 77.6982C91.4876 76.2266 92.0941 74.9787 93.0487 73.9545C94.0131 72.9205 95.271 72.1349 96.8221 71.598C98.3832 71.0611 100.163 70.7926 102.162 70.7926C105.363 70.7926 107.779 71.4439 109.41 72.7464C111.051 74.0391 111.772 75.8189 111.573 78.0859ZM129.884 71.0909L128.975 76.4602H114.522L115.432 71.0909H129.884ZM119.355 65.6023H126.648L123.128 86.7962C123.058 87.2436 123.068 87.6065 123.158 87.8849C123.257 88.1534 123.436 88.3473 123.695 88.4666C123.963 88.576 124.291 88.6307 124.679 88.6307C124.948 88.6307 125.246 88.6009 125.574 88.5412C125.902 88.4815 126.151 88.4368 126.32 88.407L126.558 93.6719C126.171 93.7812 125.649 93.9055 124.992 94.0447C124.346 94.1939 123.59 94.2884 122.725 94.3281C120.975 94.3977 119.529 94.1939 118.385 93.7166C117.252 93.2294 116.451 92.4737 115.984 91.4496C115.526 90.4254 115.437 89.1428 115.715 87.6016L119.355 65.6023ZM129.787 94L133.606 71.0909H140.69L139.989 75.267H140.228C140.894 73.7557 141.764 72.6321 142.838 71.8963C143.912 71.1506 145.075 70.7777 146.328 70.7777C146.666 70.7777 147.004 70.8026 147.342 70.8523C147.69 70.892 148.018 70.9517 148.327 71.0312L147.253 77.3849C146.915 77.2557 146.472 77.1612 145.925 77.1016C145.378 77.032 144.881 76.9972 144.434 76.9972C143.569 76.9972 142.763 77.1911 142.018 77.5788C141.282 77.9567 140.655 78.4886 140.138 79.1747C139.631 79.8509 139.298 80.6463 139.139 81.5611L137.081 94H129.787ZM163.886 84.1115L166.064 71.0909H173.342L169.524 94H162.574L163.275 89.7344H163.036C162.33 91.1364 161.291 92.25 159.919 93.0753C158.547 93.8906 157.001 94.2983 155.281 94.2983C153.719 94.2983 152.407 93.9403 151.343 93.2244C150.279 92.5085 149.523 91.5092 149.076 90.2266C148.638 88.9339 148.559 87.4226 148.837 85.6925L151.283 71.0909H158.577L156.384 84.2607C156.195 85.5036 156.359 86.483 156.876 87.1989C157.403 87.9148 158.229 88.2727 159.352 88.2727C160.078 88.2727 160.759 88.1136 161.396 87.7955C162.032 87.4673 162.569 86.995 163.006 86.3786C163.454 85.7521 163.747 84.9964 163.886 84.1115ZM184.801 94.4325C182.384 94.4325 180.391 93.9354 178.82 92.9411C177.259 91.9467 176.165 90.5646 175.539 88.7947C174.912 87.0149 174.798 84.9567 175.195 82.62C175.573 80.2734 176.374 78.2152 177.597 76.4453C178.82 74.6655 180.381 73.2784 182.28 72.2841C184.179 71.2898 186.327 70.7926 188.723 70.7926C190.841 70.7926 192.621 71.1754 194.063 71.9411C195.514 72.7067 196.563 73.7905 197.21 75.1925C197.866 76.5845 198.06 78.2202 197.791 80.0994H190.975C191.035 78.9361 190.796 78.0213 190.259 77.3551C189.722 76.679 188.942 76.3409 187.918 76.3409C187.053 76.3409 186.257 76.5795 185.531 77.0568C184.816 77.5241 184.204 78.2202 183.697 79.1449C183.2 80.0597 182.842 81.1932 182.623 82.5455C182.404 83.8977 182.389 85.0412 182.578 85.9759C182.777 86.9006 183.15 87.6016 183.697 88.0788C184.254 88.5462 184.96 88.7798 185.815 88.7798C186.491 88.7798 187.117 88.6357 187.694 88.3473C188.271 88.0589 188.773 87.6364 189.2 87.0795C189.628 86.5128 189.961 85.8267 190.2 85.0213H197.001C196.613 86.9205 195.862 88.576 194.749 89.9879C193.645 91.3899 192.248 92.4837 190.558 93.2692C188.867 94.0447 186.948 94.4325 184.801 94.4325ZM215.976 71.0909L215.066 76.4602H200.614L201.524 71.0909H215.976ZM205.446 65.6023H212.74L209.22 86.7962C209.15 87.2436 209.16 87.6065 209.25 87.8849C209.349 88.1534 209.528 88.3473 209.787 88.4666C210.055 88.576 210.383 88.6307 210.771 88.6307C211.039 88.6307 211.338 88.6009 211.666 88.5412C211.994 88.4815 212.243 88.4368 212.412 88.407L212.65 93.6719C212.262 93.7812 211.74 93.9055 211.084 94.0447C210.438 94.1939 209.682 94.2884 208.817 94.3281C207.067 94.3977 205.62 94.1939 204.477 93.7166C203.343 93.2294 202.543 92.4737 202.076 91.4496C201.618 90.4254 201.529 89.1428 201.807 87.6016L205.446 65.6023ZM215.879 94L219.697 71.0909H226.991L223.173 94H215.879ZM223.859 68.4062C222.825 68.4062 221.984 68.0632 221.338 67.3771C220.692 66.6911 220.438 65.8707 220.577 64.9162C220.717 63.9517 221.204 63.1314 222.039 62.4553C222.874 61.7791 223.804 61.4411 224.828 61.4411C225.862 61.4411 226.692 61.7791 227.319 62.4553C227.955 63.1314 228.204 63.9517 228.065 64.9162C227.945 65.8707 227.468 66.6911 226.633 67.3771C225.808 68.0632 224.883 68.4062 223.859 68.4062ZM253.856 71.0909L242.178 94H233.825L229.798 71.0909H237.211L238.822 86.8707H239.061L245.906 71.0909H253.856ZM262.745 94.4325C260.349 94.4325 258.36 93.9602 256.779 93.0156C255.208 92.0611 254.105 90.7038 253.468 88.9439C252.832 87.174 252.718 85.071 253.125 82.6349C253.523 80.2685 254.333 78.2003 255.556 76.4304C256.789 74.6506 258.34 73.2685 260.21 72.2841C262.079 71.2898 264.162 70.7926 266.459 70.7926C268.09 70.7926 269.536 71.0462 270.799 71.5533C272.062 72.0604 273.106 72.8161 273.931 73.8203C274.757 74.8146 275.318 76.0376 275.617 77.4893C275.915 78.9411 275.905 80.6065 275.587 82.4858L275.303 84.3054H255.407L256.078 80.0696H269.203C269.323 79.294 269.258 78.603 269.009 77.9964C268.761 77.3899 268.358 76.9176 267.801 76.5795C267.254 76.2315 266.583 76.0575 265.788 76.0575C264.982 76.0575 264.227 76.2464 263.521 76.6243C262.825 76.9922 262.233 77.4893 261.746 78.1158C261.259 78.7422 260.941 79.4482 260.791 80.2337L260.001 84.5739C259.842 85.5384 259.887 86.3636 260.135 87.0497C260.384 87.7358 260.811 88.2628 261.418 88.6307C262.024 88.9886 262.805 89.1676 263.759 89.1676C264.396 89.1676 264.992 89.0831 265.549 88.9141C266.106 88.7351 266.603 88.4716 267.041 88.1236C267.488 87.7656 267.851 87.3331 268.129 86.826L274.781 87.0199C274.244 88.5213 273.414 89.8288 272.291 90.9425C271.167 92.0462 269.795 92.9062 268.174 93.5227C266.563 94.1293 264.754 94.4325 262.745 94.4325ZM317.359 74.5213H309.991C310.031 73.7457 309.957 73.0547 309.768 72.4482C309.579 71.8317 309.281 71.3047 308.873 70.8672C308.465 70.4197 307.958 70.0817 307.352 69.853C306.745 69.6243 306.039 69.5099 305.234 69.5099C303.692 69.5099 302.295 69.8928 301.043 70.6584C299.79 71.424 298.741 72.5277 297.896 73.9695C297.05 75.4112 296.459 77.1413 296.121 79.1598C295.813 81.1087 295.817 82.7344 296.136 84.0369C296.464 85.3395 297.07 86.3189 297.955 86.9751C298.84 87.6214 299.964 87.9446 301.326 87.9446C302.211 87.9446 303.031 87.8402 303.787 87.6314C304.553 87.4126 305.244 87.0994 305.86 86.6918C306.477 86.2841 307.009 85.7919 307.456 85.2152C307.913 84.6286 308.266 83.9773 308.515 83.2614H315.942C315.575 84.6037 314.968 85.9411 314.123 87.2734C313.288 88.5959 312.234 89.794 310.961 90.8679C309.688 91.9418 308.212 92.8018 306.531 93.4482C304.851 94.0945 302.982 94.4176 300.923 94.4176C298.109 94.4176 295.683 93.7862 293.645 92.5234C291.616 91.2607 290.15 89.4311 289.245 87.0348C288.35 84.6286 288.181 81.7152 288.738 78.2947C289.285 74.9837 290.364 72.1946 291.974 69.9276C293.595 67.6605 295.564 65.9453 297.881 64.782C300.207 63.6186 302.688 63.0369 305.323 63.0369C307.232 63.0369 308.947 63.2955 310.469 63.8125C312 64.3196 313.298 65.0653 314.362 66.0497C315.425 67.0241 316.216 68.2223 316.733 69.6442C317.26 71.0661 317.469 72.6918 317.359 74.5213ZM329.056 94.4325C326.64 94.4325 324.646 93.9354 323.075 92.9411C321.514 91.9467 320.416 90.5597 319.779 88.7798C319.143 87 319.019 84.9318 319.406 82.5753C319.794 80.2287 320.595 78.1705 321.808 76.4006C323.021 74.6307 324.572 73.2536 326.461 72.2692C328.35 71.2848 330.493 70.7926 332.889 70.7926C335.296 70.7926 337.279 71.2898 338.84 72.2841C340.411 73.2784 341.515 74.6655 342.151 76.4453C342.798 78.2251 342.927 80.2983 342.539 82.6648C342.151 85.0114 341.346 87.0696 340.123 88.8395C338.9 90.5994 337.349 91.9716 335.47 92.956C333.59 93.9403 331.453 94.4325 329.056 94.4325ZM329.877 88.929C330.771 88.929 331.572 88.6605 332.278 88.1236C332.994 87.5866 333.595 86.8359 334.083 85.8714C334.57 84.907 334.918 83.7884 335.127 82.5156C335.335 81.2628 335.355 80.1641 335.186 79.2195C335.027 78.2649 334.689 77.5241 334.172 76.9972C333.655 76.4602 332.954 76.1918 332.069 76.1918C331.174 76.1918 330.369 76.4652 329.653 77.0121C328.937 77.549 328.335 78.2997 327.848 79.2642C327.371 80.2187 327.028 81.3374 326.819 82.62C326.61 83.8729 326.585 84.9716 326.744 85.9162C326.904 86.8608 327.247 87.6016 327.774 88.1385C328.301 88.6655 329.002 88.929 329.877 88.929ZM356.746 63.4545L351.675 94H344.381L349.452 63.4545H356.746ZM368.681 63.4545L363.61 94H356.317L361.388 63.4545H368.681ZM374.651 94.3878C373.199 94.3878 371.946 94.1442 370.892 93.657C369.848 93.1598 369.083 92.4091 368.595 91.4048C368.118 90.4006 368.004 89.1477 368.252 87.6463C368.471 86.3736 368.874 85.3047 369.46 84.4396C370.057 83.5646 370.788 82.8537 371.653 82.3068C372.528 81.7599 373.502 81.3423 374.576 81.054C375.65 80.7656 376.774 80.5717 377.947 80.4723C379.259 80.353 380.323 80.2237 381.139 80.0845C381.964 79.9453 382.58 79.7514 382.988 79.5028C383.396 79.2443 383.644 78.8864 383.734 78.429V78.3544C383.853 77.5888 383.689 76.9972 383.242 76.5795C382.794 76.1619 382.123 75.9531 381.228 75.9531C380.274 75.9531 379.458 76.1619 378.782 76.5795C378.106 76.9972 377.634 77.5739 377.365 78.3097L370.683 78.071C371.101 76.679 371.817 75.4361 372.831 74.3423C373.845 73.2386 375.133 72.3736 376.694 71.7472C378.265 71.1108 380.08 70.7926 382.138 70.7926C383.59 70.7926 384.902 70.9666 386.075 71.3146C387.249 71.6527 388.238 72.1499 389.044 72.8061C389.859 73.4524 390.441 74.2479 390.789 75.1925C391.137 76.1371 391.211 77.2159 391.012 78.429L388.402 94H381.541L382.078 90.8082H381.899C381.362 91.5838 380.731 92.2401 380.005 92.777C379.289 93.3139 378.484 93.7166 377.589 93.9851C376.694 94.2536 375.715 94.3878 374.651 94.3878ZM377.723 89.6151C378.489 89.6151 379.215 89.456 379.901 89.1378C380.587 88.8196 381.164 88.3821 381.631 87.8253C382.108 87.2585 382.411 86.6023 382.541 85.8565L382.884 83.679C382.675 83.7884 382.411 83.8878 382.093 83.9773C381.775 84.0668 381.437 84.1513 381.079 84.2308C380.721 84.3004 380.353 84.37 379.975 84.4396C379.607 84.4993 379.254 84.554 378.916 84.6037C378.2 84.7131 377.579 84.8821 377.052 85.1108C376.525 85.3395 376.102 85.6378 375.784 86.0057C375.476 86.3636 375.287 86.7912 375.218 87.2884C375.098 88.0341 375.272 88.6108 375.74 89.0185C376.207 89.4162 376.868 89.6151 377.723 89.6151ZM392.862 94L397.933 63.4545H405.226L403.332 75.0135H403.481C403.879 74.3175 404.406 73.6463 405.062 73C405.728 72.3537 406.529 71.8267 407.463 71.419C408.398 71.0014 409.467 70.7926 410.67 70.7926C412.261 70.7926 413.678 71.2102 414.921 72.0455C416.164 72.8807 417.068 74.1683 417.635 75.9084C418.202 77.6484 418.262 79.8658 417.814 82.5604C417.387 85.1555 416.616 87.3281 415.502 89.0781C414.389 90.8281 413.061 92.1406 411.52 93.0156C409.989 93.8906 408.378 94.3281 406.688 94.3281C405.534 94.3281 404.565 94.1392 403.779 93.7614C403.004 93.3835 402.382 92.8864 401.915 92.2699C401.458 91.6534 401.139 90.9922 400.96 90.2862H400.677L400.08 94H392.862ZM401.915 82.5455C401.716 83.7784 401.706 84.8523 401.885 85.767C402.074 86.6818 402.437 87.3928 402.974 87.8999C403.521 88.397 404.242 88.6456 405.137 88.6456C406.031 88.6456 406.832 88.397 407.538 87.8999C408.244 87.3928 408.835 86.6818 409.313 85.767C409.79 84.8523 410.128 83.7784 410.327 82.5455C410.526 81.3125 410.536 80.2436 410.357 79.3388C410.188 78.4339 409.835 77.733 409.298 77.2358C408.761 76.7386 408.04 76.4901 407.135 76.4901C406.24 76.4901 405.435 76.7337 404.719 77.2209C404.013 77.7081 403.416 78.4041 402.929 79.3089C402.452 80.2138 402.114 81.2926 401.915 82.5455ZM430.406 94.4325C427.99 94.4325 425.996 93.9354 424.425 92.9411C422.864 91.9467 421.765 90.5597 421.129 88.7798C420.493 87 420.368 84.9318 420.756 82.5753C421.144 80.2287 421.944 78.1705 423.157 76.4006C424.37 74.6307 425.922 73.2536 427.811 72.2692C429.7 71.2848 431.843 70.7926 434.239 70.7926C436.645 70.7926 438.629 71.2898 440.19 72.2841C441.761 73.2784 442.865 74.6655 443.501 76.4453C444.147 78.2251 444.277 80.2983 443.889 82.6648C443.501 85.0114 442.696 87.0696 441.473 88.8395C440.25 90.5994 438.699 91.9716 436.819 92.956C434.94 93.9403 432.802 94.4325 430.406 94.4325ZM431.226 88.929C432.121 88.929 432.922 88.6605 433.627 88.1236C434.343 87.5866 434.945 86.8359 435.432 85.8714C435.919 84.907 436.267 83.7884 436.476 82.5156C436.685 81.2628 436.705 80.1641 436.536 79.2195C436.377 78.2649 436.039 77.5241 435.522 76.9972C435.005 76.4602 434.304 76.1918 433.419 76.1918C432.524 76.1918 431.718 76.4652 431.002 77.0121C430.287 77.549 429.685 78.2997 429.198 79.2642C428.721 80.2187 428.377 81.3374 428.169 82.62C427.96 83.8729 427.935 84.9716 428.094 85.9162C428.253 86.8608 428.596 87.6016 429.123 88.1385C429.65 88.6655 430.351 88.929 431.226 88.929ZM445.731 94L449.549 71.0909H456.634L455.933 75.267H456.171C456.837 73.7557 457.707 72.6321 458.781 71.8963C459.855 71.1506 461.018 70.7777 462.271 70.7777C462.609 70.7777 462.947 70.8026 463.286 70.8523C463.634 70.892 463.962 70.9517 464.27 71.0312L463.196 77.3849C462.858 77.2557 462.415 77.1612 461.869 77.1016C461.322 77.032 460.825 76.9972 460.377 76.9972C459.512 76.9972 458.707 77.1911 457.961 77.5788C457.225 77.9567 456.599 78.4886 456.082 79.1747C455.575 79.8509 455.241 80.6463 455.082 81.5611L453.024 94H445.731ZM468.946 94.3878C467.494 94.3878 466.241 94.1442 465.187 93.657C464.143 93.1598 463.377 92.4091 462.89 91.4048C462.413 90.4006 462.299 89.1477 462.547 87.6463C462.766 86.3736 463.169 85.3047 463.755 84.4396C464.352 83.5646 465.083 82.8537 465.948 82.3068C466.823 81.7599 467.797 81.3423 468.871 81.054C469.945 80.7656 471.069 80.5717 472.242 80.4723C473.554 80.353 474.618 80.2237 475.434 80.0845C476.259 79.9453 476.875 79.7514 477.283 79.5028C477.691 79.2443 477.939 78.8864 478.029 78.429V78.3544C478.148 77.5888 477.984 76.9972 477.537 76.5795C477.089 76.1619 476.418 75.9531 475.523 75.9531C474.569 75.9531 473.753 76.1619 473.077 76.5795C472.401 76.9972 471.929 77.5739 471.66 78.3097L464.978 78.071C465.396 76.679 466.112 75.4361 467.126 74.3423C468.14 73.2386 469.428 72.3736 470.989 71.7472C472.56 71.1108 474.375 70.7926 476.433 70.7926C477.885 70.7926 479.197 70.9666 480.37 71.3146C481.544 71.6527 482.533 72.1499 483.338 72.8061C484.154 73.4524 484.735 74.2479 485.083 75.1925C485.431 76.1371 485.506 77.2159 485.307 78.429L482.697 94H475.836L476.373 90.8082H476.194C475.657 91.5838 475.026 92.2401 474.3 92.777C473.584 93.3139 472.779 93.7166 471.884 93.9851C470.989 94.2536 470.01 94.3878 468.946 94.3878ZM472.018 89.6151C472.784 89.6151 473.51 89.456 474.196 89.1378C474.882 88.8196 475.458 88.3821 475.926 87.8253C476.403 87.2585 476.706 86.6023 476.836 85.8565L477.179 83.679C476.97 83.7884 476.706 83.8878 476.388 83.9773C476.07 84.0668 475.732 84.1513 475.374 84.2308C475.016 84.3004 474.648 84.37 474.27 84.4396C473.902 84.4993 473.549 84.554 473.211 84.6037C472.495 84.7131 471.874 84.8821 471.347 85.1108C470.82 85.3395 470.397 85.6378 470.079 86.0057C469.771 86.3636 469.582 86.7912 469.512 87.2884C469.393 88.0341 469.567 88.6108 470.034 89.0185C470.502 89.4162 471.163 89.6151 472.018 89.6151ZM503.906 71.0909L502.996 76.4602H488.544L489.453 71.0909H503.906ZM493.376 65.6023H500.669L497.15 86.7962C497.08 87.2436 497.09 87.6065 497.179 87.8849C497.279 88.1534 497.458 88.3473 497.716 88.4666C497.985 88.576 498.313 88.6307 498.701 88.6307C498.969 88.6307 499.267 88.6009 499.596 88.5412C499.924 88.4815 500.172 88.4368 500.341 88.407L500.58 93.6719C500.192 93.7812 499.67 93.9055 499.014 94.0447C498.368 94.1939 497.612 94.2884 496.747 94.3281C494.997 94.3977 493.55 94.1939 492.407 93.7166C491.273 93.2294 490.473 92.4737 490.005 91.4496C489.548 90.4254 489.458 89.1428 489.737 87.6016L493.376 65.6023ZM503.809 94L507.627 71.0909H514.92L511.102 94H503.809ZM511.788 68.4062C510.754 68.4062 509.914 68.0632 509.268 67.3771C508.621 66.6911 508.368 65.8707 508.507 64.9162C508.646 63.9517 509.134 63.1314 509.969 62.4553C510.804 61.7791 511.734 61.4411 512.758 61.4411C513.792 61.4411 514.622 61.7791 515.249 62.4553C515.885 63.1314 516.134 63.9517 515.994 64.9162C515.875 65.8707 515.398 66.6911 514.562 67.3771C513.737 68.0632 512.813 68.4062 511.788 68.4062ZM526.423 94.4325C524.007 94.4325 522.014 93.9354 520.443 92.9411C518.882 91.9467 517.783 90.5597 517.146 88.7798C516.51 87 516.386 84.9318 516.774 82.5753C517.161 80.2287 517.962 78.1705 519.175 76.4006C520.388 74.6307 521.939 73.2536 523.828 72.2692C525.718 71.2848 527.86 70.7926 530.257 70.7926C532.663 70.7926 534.646 71.2898 536.208 72.2841C537.779 73.2784 538.882 74.6655 539.519 76.4453C540.165 78.2251 540.294 80.2983 539.906 82.6648C539.519 85.0114 538.713 87.0696 537.49 88.8395C536.267 90.5994 534.716 91.9716 532.837 92.956C530.958 93.9403 528.82 94.4325 526.423 94.4325ZM527.244 88.929C528.139 88.929 528.939 88.6605 529.645 88.1236C530.361 87.5866 530.963 86.8359 531.45 85.8714C531.937 84.907 532.285 83.7884 532.494 82.5156C532.703 81.2628 532.722 80.1641 532.553 79.2195C532.394 78.2649 532.056 77.5241 531.539 76.9972C531.022 76.4602 530.321 76.1918 529.436 76.1918C528.541 76.1918 527.736 76.4652 527.02 77.0121C526.304 77.549 525.703 78.2997 525.215 79.2642C524.738 80.2187 524.395 81.3374 524.186 82.62C523.977 83.8729 523.953 84.9716 524.112 85.9162C524.271 86.8608 524.614 87.6016 525.141 88.1385C525.668 88.6655 526.369 88.929 527.244 88.929ZM551.264 80.9347L549.086 94H541.793L545.611 71.0909H552.547L551.861 75.2969H552.114C552.83 73.8949 553.869 72.7962 555.231 72.0007C556.594 71.1953 558.125 70.7926 559.825 70.7926C561.426 70.7926 562.763 71.1506 563.837 71.8665C564.911 72.5824 565.672 73.5866 566.119 74.8793C566.567 76.1619 566.641 77.6683 566.343 79.3984L563.897 94H556.604L558.796 80.8303C559.015 79.5675 558.861 78.5781 558.334 77.8622C557.817 77.1364 556.971 76.7734 555.798 76.7734C555.032 76.7734 554.331 76.9425 553.695 77.2805C553.069 77.6087 552.542 78.081 552.114 78.6974C551.697 79.3139 551.413 80.0597 551.264 80.9347ZM572.693 94.4325C571.609 94.4325 570.724 94.0547 570.038 93.299C569.352 92.5433 569.054 91.6286 569.143 90.5547C569.243 89.5007 569.71 88.6009 570.545 87.8551C571.38 87.1094 572.335 86.7365 573.409 86.7365C574.433 86.7365 575.293 87.1094 575.989 87.8551C576.695 88.6009 576.998 89.5007 576.899 90.5547C576.839 91.2706 576.596 91.9219 576.168 92.5085C575.75 93.0952 575.233 93.5625 574.617 93.9105C574 94.2585 573.359 94.4325 572.693 94.4325ZM575.303 78.7124C574.219 78.7124 573.334 78.3395 572.648 77.5938C571.962 76.8381 571.664 75.9183 571.753 74.8345C571.853 73.7805 572.32 72.8807 573.155 72.1349C573.99 71.3892 574.945 71.0163 576.019 71.0163C577.053 71.0163 577.918 71.3942 578.614 72.1499C579.31 72.8956 579.608 73.7905 579.509 74.8345C579.449 75.5604 579.211 76.2166 578.793 76.8033C578.375 77.3899 577.853 77.8572 577.227 78.2053C576.61 78.5433 575.969 78.7124 575.303 78.7124ZM4.4027 155L9.47372 124.455H30.772L29.7578 130.45H15.8423L14.8281 136.714H27.6548L26.6406 142.725H13.8139L12.7997 149.004H26.7152L25.701 155H4.4027ZM30.3693 155L34.1875 132.091H41.1229L40.4368 136.297H40.6903C41.3864 134.905 42.3707 133.806 43.6435 133.001C44.9162 132.195 46.3381 131.793 47.9091 131.793C49.4901 131.793 50.7777 132.2 51.772 133.016C52.7763 133.831 53.3182 134.925 53.3977 136.297H53.6364C54.2926 134.935 55.3068 133.846 56.679 133.031C58.0611 132.205 59.6023 131.793 61.3026 131.793C63.4503 131.793 65.0859 132.489 66.2095 133.881C67.343 135.263 67.706 137.162 67.2983 139.578L64.733 155H57.4545L59.7812 141.249C59.9403 140.105 59.7713 139.235 59.2741 138.638C58.7869 138.032 58.076 137.729 57.1413 137.729C56.1371 137.729 55.2969 138.052 54.6207 138.698C53.9545 139.344 53.5419 140.219 53.3828 141.323L51.071 155H44.0462L46.3878 141.174C46.5369 140.11 46.3729 139.27 45.8956 138.653C45.4283 138.037 44.7173 137.729 43.7628 137.729C43.1364 137.729 42.5547 137.883 42.0178 138.191C41.4808 138.489 41.0284 138.917 40.6605 139.474C40.3026 140.031 40.0689 140.687 39.9595 141.442L37.6626 155H30.3693ZM69.2074 155L74.2784 124.455H81.5717L79.6776 136.013H79.8267C80.2244 135.317 80.7514 134.646 81.4077 134C82.0739 133.354 82.8743 132.827 83.8089 132.419C84.7436 132.001 85.8125 131.793 87.0156 131.793C88.6065 131.793 90.0234 132.21 91.2663 133.045C92.5092 133.881 93.4141 135.168 93.9808 136.908C94.5476 138.648 94.6072 140.866 94.1598 143.56C93.7322 146.156 92.9616 148.328 91.848 150.078C90.7344 151.828 89.407 153.141 87.8658 154.016C86.3345 154.891 84.7237 155.328 83.0334 155.328C81.88 155.328 80.9105 155.139 80.125 154.761C79.3494 154.384 78.728 153.886 78.2607 153.27C77.8033 152.653 77.4851 151.992 77.3061 151.286H77.0227L76.4261 155H69.2074ZM78.2607 143.545C78.0618 144.778 78.0518 145.852 78.2308 146.767C78.4197 147.682 78.7827 148.393 79.3196 148.9C79.8665 149.397 80.5874 149.646 81.4822 149.646C82.3771 149.646 83.1776 149.397 83.8835 148.9C84.5895 148.393 85.1811 147.682 85.6584 146.767C86.1357 145.852 86.4737 144.778 86.6726 143.545C86.8714 142.312 86.8814 141.244 86.7024 140.339C86.5334 139.434 86.1804 138.733 85.6435 138.236C85.1065 137.739 84.3857 137.49 83.4808 137.49C82.5859 137.49 81.7805 137.734 81.0646 138.221C80.3587 138.708 79.7621 139.404 79.2749 140.309C78.7976 141.214 78.4595 142.293 78.2607 143.545ZM96.0726 155L99.8908 132.091H106.975L106.274 136.267H106.513C107.179 134.756 108.049 133.632 109.123 132.896C110.197 132.151 111.36 131.778 112.613 131.778C112.951 131.778 113.289 131.803 113.627 131.852C113.975 131.892 114.303 131.952 114.612 132.031L113.538 138.385C113.2 138.256 112.757 138.161 112.21 138.102C111.664 138.032 111.166 137.997 110.719 137.997C109.854 137.997 109.048 138.191 108.303 138.579C107.567 138.957 106.941 139.489 106.423 140.175C105.916 140.851 105.583 141.646 105.424 142.561L103.366 155H96.0726ZM119.287 155.388C117.836 155.388 116.583 155.144 115.529 154.657C114.485 154.16 113.719 153.409 113.232 152.405C112.755 151.401 112.64 150.148 112.889 148.646C113.108 147.374 113.51 146.305 114.097 145.44C114.694 144.565 115.425 143.854 116.29 143.307C117.165 142.76 118.139 142.342 119.213 142.054C120.287 141.766 121.41 141.572 122.584 141.472C123.896 141.353 124.96 141.224 125.775 141.085C126.601 140.945 127.217 140.751 127.625 140.503C128.032 140.244 128.281 139.886 128.371 139.429V139.354C128.49 138.589 128.326 137.997 127.878 137.58C127.431 137.162 126.76 136.953 125.865 136.953C124.91 136.953 124.095 137.162 123.419 137.58C122.743 137.997 122.27 138.574 122.002 139.31L115.32 139.071C115.738 137.679 116.454 136.436 117.468 135.342C118.482 134.239 119.77 133.374 121.331 132.747C122.902 132.111 124.716 131.793 126.775 131.793C128.226 131.793 129.539 131.967 130.712 132.315C131.885 132.653 132.875 133.15 133.68 133.806C134.496 134.452 135.077 135.248 135.425 136.192C135.773 137.137 135.848 138.216 135.649 139.429L133.039 155H126.178L126.715 151.808H126.536C125.999 152.584 125.368 153.24 124.642 153.777C123.926 154.314 123.121 154.717 122.226 154.985C121.331 155.254 120.351 155.388 119.287 155.388ZM122.36 150.615C123.126 150.615 123.851 150.456 124.537 150.138C125.224 149.82 125.8 149.382 126.268 148.825C126.745 148.259 127.048 147.602 127.177 146.857L127.52 144.679C127.312 144.788 127.048 144.888 126.73 144.977C126.412 145.067 126.074 145.151 125.716 145.231C125.358 145.3 124.99 145.37 124.612 145.44C124.244 145.499 123.891 145.554 123.553 145.604C122.837 145.713 122.216 145.882 121.689 146.111C121.162 146.339 120.739 146.638 120.421 147.006C120.113 147.364 119.924 147.791 119.854 148.288C119.735 149.034 119.909 149.611 120.376 150.018C120.844 150.416 121.505 150.615 122.36 150.615ZM148.133 155.433C145.716 155.433 143.723 154.935 142.152 153.941C140.591 152.947 139.497 151.565 138.871 149.795C138.244 148.015 138.13 145.957 138.528 143.62C138.905 141.273 139.706 139.215 140.929 137.445C142.152 135.665 143.713 134.278 145.612 133.284C147.511 132.29 149.659 131.793 152.055 131.793C154.173 131.793 155.953 132.175 157.395 132.941C158.846 133.707 159.895 134.79 160.542 136.192C161.198 137.585 161.392 139.22 161.123 141.099H154.307C154.367 139.936 154.128 139.021 153.591 138.355C153.055 137.679 152.274 137.341 151.25 137.341C150.385 137.341 149.589 137.58 148.863 138.057C148.148 138.524 147.536 139.22 147.029 140.145C146.532 141.06 146.174 142.193 145.955 143.545C145.736 144.898 145.721 146.041 145.91 146.976C146.109 147.901 146.482 148.602 147.029 149.079C147.586 149.546 148.292 149.78 149.147 149.78C149.823 149.78 150.449 149.636 151.026 149.347C151.603 149.059 152.105 148.636 152.532 148.08C152.96 147.513 153.293 146.827 153.532 146.021H160.333C159.945 147.92 159.194 149.576 158.081 150.988C156.977 152.39 155.58 153.484 153.89 154.269C152.199 155.045 150.28 155.433 148.133 155.433ZM162.559 155L166.377 132.091H173.67L169.852 155H162.559ZM170.538 129.406C169.504 129.406 168.664 129.063 168.018 128.377C167.371 127.691 167.118 126.871 167.257 125.916C167.396 124.952 167.884 124.131 168.719 123.455C169.554 122.779 170.484 122.441 171.508 122.441C172.542 122.441 173.372 122.779 173.999 123.455C174.635 124.131 174.884 124.952 174.744 125.916C174.625 126.871 174.148 127.691 173.312 128.377C172.487 129.063 171.563 129.406 170.538 129.406ZM184.01 141.935L181.833 155H174.539L178.357 132.091H185.293L184.607 136.297H184.86C185.576 134.895 186.615 133.796 187.977 133.001C189.34 132.195 190.871 131.793 192.571 131.793C194.172 131.793 195.509 132.151 196.583 132.866C197.657 133.582 198.418 134.587 198.865 135.879C199.313 137.162 199.387 138.668 199.089 140.398L196.643 155H189.35L191.542 141.83C191.761 140.567 191.607 139.578 191.08 138.862C190.563 138.136 189.718 137.773 188.544 137.773C187.779 137.773 187.078 137.942 186.441 138.281C185.815 138.609 185.288 139.081 184.86 139.697C184.443 140.314 184.159 141.06 184.01 141.935ZM210.361 164.068C208.173 164.068 206.354 163.765 204.902 163.158C203.45 162.552 202.366 161.722 201.651 160.668C200.935 159.614 200.592 158.42 200.621 157.088L207.602 156.7C207.661 157.178 207.835 157.59 208.124 157.938C208.412 158.286 208.825 158.55 209.362 158.729C209.898 158.918 210.565 159.012 211.36 159.012C212.583 159.012 213.647 158.714 214.552 158.117C215.457 157.521 216.013 156.491 216.222 155.03L216.893 151.003H216.64C216.242 151.709 215.705 152.34 215.029 152.897C214.353 153.454 213.553 153.891 212.628 154.21C211.703 154.528 210.679 154.687 209.555 154.687C207.875 154.687 206.408 154.299 205.156 153.523C203.903 152.738 202.998 151.525 202.441 149.884C201.884 148.234 201.82 146.111 202.247 143.516C202.695 140.841 203.49 138.638 204.634 136.908C205.777 135.168 207.109 133.881 208.631 133.045C210.162 132.21 211.728 131.793 213.329 131.793C214.532 131.793 215.526 132.001 216.312 132.419C217.097 132.827 217.714 133.354 218.161 134C218.609 134.646 218.927 135.317 219.116 136.013H219.325L219.966 132.091H227.229L223.411 155.089C223.103 157.038 222.352 158.679 221.159 160.011C219.966 161.344 218.44 162.353 216.58 163.039C214.721 163.725 212.648 164.068 210.361 164.068ZM212.926 149.377C213.811 149.377 214.612 149.143 215.327 148.676C216.043 148.209 216.645 147.538 217.132 146.663C217.619 145.788 217.962 144.739 218.161 143.516C218.36 142.273 218.36 141.204 218.161 140.309C217.972 139.404 217.604 138.708 217.058 138.221C216.511 137.734 215.79 137.49 214.895 137.49C213.99 137.49 213.185 137.739 212.479 138.236C211.783 138.733 211.196 139.434 210.719 140.339C210.251 141.234 209.923 142.293 209.734 143.516C209.536 144.739 209.521 145.788 209.69 146.663C209.869 147.538 210.227 148.209 210.763 148.676C211.31 149.143 212.031 149.377 212.926 149.377ZM237.084 155L242.155 124.455H263.454L262.439 130.45H248.524L247.51 136.714H260.336L259.322 142.725H246.496L245.481 149.004H259.397L258.383 155H237.084ZM263.051 155L266.869 132.091H273.805L273.118 136.297H273.372C274.068 134.905 275.052 133.806 276.325 133.001C277.598 132.195 279.02 131.793 280.591 131.793C282.172 131.793 283.459 132.2 284.454 133.016C285.458 133.831 286 134.925 286.079 136.297H286.318C286.974 134.935 287.988 133.846 289.361 133.031C290.743 132.205 292.284 131.793 293.984 131.793C296.132 131.793 297.768 132.489 298.891 133.881C300.025 135.263 300.388 137.162 299.98 139.578L297.415 155H290.136L292.463 141.249C292.622 140.105 292.453 139.235 291.956 138.638C291.469 138.032 290.758 137.729 289.823 137.729C288.819 137.729 287.979 138.052 287.302 138.698C286.636 139.344 286.224 140.219 286.064 141.323L283.753 155H276.728L279.069 141.174C279.219 140.11 279.055 139.27 278.577 138.653C278.11 138.037 277.399 137.729 276.444 137.729C275.818 137.729 275.236 137.883 274.699 138.191C274.162 138.489 273.71 138.917 273.342 139.474C272.984 140.031 272.751 140.687 272.641 141.442L270.344 155H263.051ZM312.538 155.433C310.142 155.433 308.153 154.96 306.572 154.016C305.001 153.061 303.898 151.704 303.261 149.944C302.625 148.174 302.51 146.071 302.918 143.635C303.316 141.268 304.126 139.2 305.349 137.43C306.582 135.651 308.133 134.268 310.003 133.284C311.872 132.29 313.955 131.793 316.252 131.793C317.883 131.793 319.329 132.046 320.592 132.553C321.855 133.06 322.899 133.816 323.724 134.82C324.55 135.815 325.111 137.038 325.41 138.489C325.708 139.941 325.698 141.607 325.38 143.486L325.096 145.305H305.2L305.871 141.07H318.996C319.116 140.294 319.051 139.603 318.802 138.996C318.554 138.39 318.151 137.918 317.594 137.58C317.047 137.232 316.376 137.058 315.581 137.058C314.775 137.058 314.02 137.246 313.314 137.624C312.618 137.992 312.026 138.489 311.539 139.116C311.052 139.742 310.733 140.448 310.584 141.234L309.794 145.574C309.635 146.538 309.68 147.364 309.928 148.05C310.177 148.736 310.604 149.263 311.211 149.631C311.817 149.989 312.598 150.168 313.552 150.168C314.189 150.168 314.785 150.083 315.342 149.914C315.899 149.735 316.396 149.472 316.834 149.124C317.281 148.766 317.644 148.333 317.922 147.826L324.574 148.02C324.037 149.521 323.207 150.829 322.084 151.942C320.96 153.046 319.588 153.906 317.967 154.523C316.356 155.129 314.547 155.433 312.538 155.433ZM327.196 155L331.014 132.091H338.098L337.397 136.267H337.636C338.302 134.756 339.172 133.632 340.246 132.896C341.32 132.151 342.483 131.778 343.736 131.778C344.074 131.778 344.412 131.803 344.75 131.852C345.098 131.892 345.426 131.952 345.735 132.031L344.661 138.385C344.323 138.256 343.88 138.161 343.333 138.102C342.787 138.032 342.289 137.997 341.842 137.997C340.977 137.997 340.172 138.191 339.426 138.579C338.69 138.957 338.064 139.489 337.547 140.175C337.039 140.851 336.706 141.646 336.547 142.561L334.489 155H327.196ZM352.931 164.068C350.744 164.068 348.924 163.765 347.472 163.158C346.021 162.552 344.937 161.722 344.221 160.668C343.505 159.614 343.162 158.42 343.192 157.088L350.172 156.7C350.232 157.178 350.406 157.59 350.694 157.938C350.982 158.286 351.395 158.55 351.932 158.729C352.469 158.918 353.135 159.012 353.93 159.012C355.153 159.012 356.217 158.714 357.122 158.117C358.027 157.521 358.584 156.491 358.793 155.03L359.464 151.003H359.21C358.813 151.709 358.276 152.34 357.599 152.897C356.923 153.454 356.123 153.891 355.198 154.21C354.273 154.528 353.249 154.687 352.126 154.687C350.445 154.687 348.979 154.299 347.726 153.523C346.473 152.738 345.568 151.525 345.011 149.884C344.455 148.234 344.39 146.111 344.817 143.516C345.265 140.841 346.06 138.638 347.204 136.908C348.347 135.168 349.68 133.881 351.201 133.045C352.732 132.21 354.298 131.793 355.899 131.793C357.102 131.793 358.097 132.001 358.882 132.419C359.668 132.827 360.284 133.354 360.732 134C361.179 134.646 361.497 135.317 361.686 136.013H361.895L362.536 132.091H369.8L365.982 155.089C365.673 157.038 364.923 158.679 363.729 160.011C362.536 161.344 361.01 162.353 359.151 163.039C357.291 163.725 355.218 164.068 352.931 164.068ZM355.496 149.377C356.381 149.377 357.182 149.143 357.898 148.676C358.614 148.209 359.215 147.538 359.702 146.663C360.19 145.788 360.533 144.739 360.732 143.516C360.93 142.273 360.93 141.204 360.732 140.309C360.543 139.404 360.175 138.708 359.628 138.221C359.081 137.734 358.36 137.49 357.465 137.49C356.56 137.49 355.755 137.739 355.049 138.236C354.353 138.733 353.766 139.434 353.289 140.339C352.822 141.234 352.494 142.293 352.305 143.516C352.106 144.739 352.091 145.788 352.26 146.663C352.439 147.538 352.797 148.209 353.334 148.676C353.881 149.143 354.602 149.377 355.496 149.377ZM370.631 155L374.449 132.091H381.743L377.925 155H370.631ZM378.611 129.406C377.577 129.406 376.736 129.063 376.09 128.377C375.444 127.691 375.19 126.871 375.329 125.916C375.469 124.952 375.956 124.131 376.791 123.455C377.626 122.779 378.556 122.441 379.58 122.441C380.614 122.441 381.444 122.779 382.071 123.455C382.707 124.131 382.956 124.952 382.817 125.916C382.697 126.871 382.22 127.691 381.385 128.377C380.559 129.063 379.635 129.406 378.611 129.406ZM392.082 141.935L389.905 155H382.612L386.43 132.091H393.365L392.679 136.297H392.933C393.648 134.895 394.688 133.796 396.05 133.001C397.412 132.195 398.943 131.793 400.643 131.793C402.244 131.793 403.582 132.151 404.656 132.866C405.729 133.582 406.49 134.587 406.938 135.879C407.385 137.162 407.46 138.668 407.161 140.398L404.715 155H397.422L399.614 141.83C399.833 140.567 399.679 139.578 399.152 138.862C398.635 138.136 397.79 137.773 396.616 137.773C395.851 137.773 395.15 137.942 394.513 138.281C393.887 138.609 393.36 139.081 392.933 139.697C392.515 140.314 392.232 141.06 392.082 141.935ZM418.433 164.068C416.246 164.068 414.426 163.765 412.974 163.158C411.523 162.552 410.439 161.722 409.723 160.668C409.007 159.614 408.664 158.42 408.694 157.088L415.674 156.7C415.733 157.178 415.907 157.59 416.196 157.938C416.484 158.286 416.897 158.55 417.434 158.729C417.971 158.918 418.637 159.012 419.432 159.012C420.655 159.012 421.719 158.714 422.624 158.117C423.529 157.521 424.086 156.491 424.295 155.03L424.966 151.003H424.712C424.314 151.709 423.778 152.34 423.101 152.897C422.425 153.454 421.625 153.891 420.7 154.21C419.775 154.528 418.751 154.687 417.628 154.687C415.947 154.687 414.481 154.299 413.228 153.523C411.975 152.738 411.07 151.525 410.513 149.884C409.956 148.234 409.892 146.111 410.319 143.516C410.767 140.841 411.562 138.638 412.706 136.908C413.849 135.168 415.182 133.881 416.703 133.045C418.234 132.21 419.8 131.793 421.401 131.793C422.604 131.793 423.599 132.001 424.384 132.419C425.17 132.827 425.786 133.354 426.233 134C426.681 134.646 426.999 135.317 427.188 136.013H427.397L428.038 132.091H435.302L431.483 155.089C431.175 157.038 430.425 158.679 429.231 160.011C428.038 161.344 426.512 162.353 424.653 163.039C422.793 163.725 420.72 164.068 418.433 164.068ZM420.998 149.377C421.883 149.377 422.684 149.143 423.4 148.676C424.116 148.209 424.717 147.538 425.204 146.663C425.692 145.788 426.035 144.739 426.233 143.516C426.432 142.273 426.432 141.204 426.233 140.309C426.045 139.404 425.677 138.708 425.13 138.221C424.583 137.734 423.862 137.49 422.967 137.49C422.062 137.49 421.257 137.739 420.551 138.236C419.855 138.733 419.268 139.434 418.791 140.339C418.324 141.234 417.996 142.293 417.807 143.516C417.608 144.739 417.593 145.788 417.762 146.663C417.941 147.538 418.299 148.209 418.836 148.676C419.383 149.143 420.104 149.377 420.998 149.377ZM7.46023 191.45L8.47443 185.455H34.2919L33.2777 191.45H24.0156L19.9588 216H12.6804L16.7372 191.45H7.46023ZM40.1534 216.433C37.7571 216.433 35.7685 215.96 34.1875 215.016C32.6165 214.061 31.5128 212.704 30.8764 210.944C30.2401 209.174 30.1257 207.071 30.5334 204.635C30.9311 202.268 31.7415 200.2 32.9645 198.43C34.1974 196.651 35.7486 195.268 37.6179 194.284C39.4872 193.29 41.5703 192.793 43.8672 192.793C45.4979 192.793 46.9446 193.046 48.2074 193.553C49.4702 194.06 50.5142 194.816 51.3395 195.82C52.1648 196.815 52.7266 198.038 53.0249 199.489C53.3232 200.941 53.3132 202.607 52.995 204.486L52.7116 206.305H32.8153L33.4865 202.07H46.6115C46.7308 201.294 46.6662 200.603 46.4176 199.996C46.169 199.39 45.7663 198.918 45.2095 198.58C44.6626 198.232 43.9915 198.058 43.196 198.058C42.3906 198.058 41.6349 198.246 40.929 198.624C40.233 198.992 39.6413 199.489 39.1541 200.116C38.6669 200.742 38.3487 201.448 38.1996 202.234L37.4091 206.574C37.25 207.538 37.2947 208.364 37.5433 209.05C37.7919 209.736 38.2195 210.263 38.826 210.631C39.4325 210.989 40.2131 211.168 41.1676 211.168C41.804 211.168 42.4006 211.083 42.9574 210.914C43.5142 210.735 44.0114 210.472 44.4489 210.124C44.8963 209.766 45.2592 209.333 45.5376 208.826L52.1896 209.02C51.6527 210.521 50.8224 211.829 49.6989 212.942C48.5753 214.046 47.2031 214.906 45.5824 215.523C43.9716 216.129 42.1619 216.433 40.1534 216.433ZM65.4451 216.433C63.0289 216.433 61.0353 215.935 59.4643 214.941C57.9032 213.947 56.8095 212.565 56.1831 210.795C55.5566 209.015 55.4423 206.957 55.84 204.62C56.2179 202.273 57.0183 200.215 58.2413 198.445C59.4643 196.665 61.0254 195.278 62.9245 194.284C64.8237 193.29 66.9714 192.793 69.3677 192.793C71.4856 192.793 73.2654 193.175 74.7072 193.941C76.1589 194.707 77.2079 195.79 77.8542 197.192C78.5105 198.585 78.7044 200.22 78.4359 202.099H71.6199C71.6795 200.936 71.4409 200.021 70.9039 199.355C70.367 198.679 69.5865 198.341 68.5623 198.341C67.6973 198.341 66.9018 198.58 66.176 199.057C65.4601 199.524 64.8485 200.22 64.3414 201.145C63.8443 202.06 63.4863 203.193 63.2676 204.545C63.0488 205.898 63.0339 207.041 63.2228 207.976C63.4217 208.901 63.7946 209.602 64.3414 210.079C64.8983 210.546 65.6042 210.78 66.4593 210.78C67.1355 210.78 67.7619 210.636 68.3386 210.347C68.9153 210.059 69.4174 209.636 69.845 209.08C70.2725 208.513 70.6056 207.827 70.8443 207.021H77.6454C77.2576 208.92 76.5069 210.576 75.3933 211.988C74.2896 213.39 72.8926 214.484 71.2022 215.269C69.5119 216.045 67.5929 216.433 65.4451 216.433ZM89.3871 202.935L87.2095 216H79.9162L84.9872 185.455H92.0419L90.103 197.297H90.3565C91.0923 195.885 92.1165 194.781 93.429 193.986C94.7415 193.19 96.2628 192.793 97.9929 192.793C99.5838 192.793 100.916 193.151 101.99 193.866C103.064 194.572 103.825 195.572 104.272 196.864C104.719 198.157 104.799 199.668 104.511 201.398L102.065 216H94.7713L96.9787 202.83C97.1776 201.558 97.0135 200.563 96.4865 199.847C95.9595 199.131 95.1143 198.773 93.951 198.773C93.1854 198.773 92.4794 198.942 91.8331 199.281C91.1967 199.609 90.6648 200.081 90.2372 200.697C89.8097 201.314 89.5263 202.06 89.3871 202.935ZM116.088 202.935L113.911 216H106.617L110.436 193.091H117.371L116.685 197.297H116.938C117.654 195.895 118.693 194.796 120.056 194.001C121.418 193.195 122.949 192.793 124.649 192.793C126.25 192.793 127.588 193.151 128.661 193.866C129.735 194.582 130.496 195.587 130.943 196.879C131.391 198.162 131.465 199.668 131.167 201.398L128.721 216H121.428L123.62 202.83C123.839 201.567 123.685 200.578 123.158 199.862C122.641 199.136 121.796 198.773 120.622 198.773C119.857 198.773 119.156 198.942 118.519 199.281C117.893 199.609 117.366 200.081 116.938 200.697C116.521 201.314 116.237 202.06 116.088 202.935ZM143.871 216.433C141.455 216.433 139.461 215.935 137.89 214.941C136.329 213.947 135.23 212.56 134.594 210.78C133.957 209 133.833 206.932 134.221 204.575C134.609 202.229 135.409 200.17 136.622 198.401C137.835 196.631 139.386 195.254 141.276 194.269C143.165 193.285 145.308 192.793 147.704 192.793C150.11 192.793 152.094 193.29 153.655 194.284C155.226 195.278 156.33 196.665 156.966 198.445C157.612 200.225 157.741 202.298 157.354 204.665C156.966 207.011 156.161 209.07 154.938 210.839C153.714 212.599 152.163 213.972 150.284 214.956C148.405 215.94 146.267 216.433 143.871 216.433ZM144.691 210.929C145.586 210.929 146.386 210.661 147.092 210.124C147.808 209.587 148.41 208.836 148.897 207.871C149.384 206.907 149.732 205.788 149.941 204.516C150.15 203.263 150.17 202.164 150.001 201.219C149.842 200.265 149.504 199.524 148.987 198.997C148.469 198.46 147.768 198.192 146.884 198.192C145.989 198.192 145.183 198.465 144.467 199.012C143.751 199.549 143.15 200.3 142.663 201.264C142.185 202.219 141.842 203.337 141.634 204.62C141.425 205.873 141.4 206.972 141.559 207.916C141.718 208.861 142.061 209.602 142.588 210.138C143.115 210.665 143.816 210.929 144.691 210.929ZM171.56 185.455L166.489 216H159.196L164.267 185.455H171.56ZM181.81 216.433C179.394 216.433 177.4 215.935 175.829 214.941C174.268 213.947 173.17 212.56 172.533 210.78C171.897 209 171.773 206.932 172.16 204.575C172.548 202.229 173.349 200.17 174.562 198.401C175.775 196.631 177.326 195.254 179.215 194.269C181.104 193.285 183.247 192.793 185.643 192.793C188.05 192.793 190.033 193.29 191.594 194.284C193.165 195.278 194.269 196.665 194.905 198.445C195.552 200.225 195.681 202.298 195.293 204.665C194.905 207.011 194.1 209.07 192.877 210.839C191.654 212.599 190.103 213.972 188.224 214.956C186.344 215.94 184.206 216.433 181.81 216.433ZM182.631 210.929C183.525 210.929 184.326 210.661 185.032 210.124C185.748 209.587 186.349 208.836 186.836 207.871C187.324 206.907 187.672 205.788 187.881 204.516C188.089 203.263 188.109 202.164 187.94 201.219C187.781 200.265 187.443 199.524 186.926 198.997C186.409 198.46 185.708 198.192 184.823 198.192C183.928 198.192 183.123 198.465 182.407 199.012C181.691 199.549 181.089 200.3 180.602 201.264C180.125 202.219 179.782 203.337 179.573 204.62C179.364 205.873 179.339 206.972 179.498 207.916C179.657 208.861 180.001 209.602 180.528 210.138C181.055 210.665 181.756 210.929 182.631 210.929ZM206.382 225.068C204.195 225.068 202.375 224.765 200.923 224.158C199.472 223.552 198.388 222.722 197.672 221.668C196.956 220.614 196.613 219.42 196.643 218.088L203.623 217.7C203.683 218.178 203.857 218.59 204.145 218.938C204.433 219.286 204.846 219.55 205.383 219.729C205.92 219.918 206.586 220.012 207.382 220.012C208.605 220.012 209.669 219.714 210.573 219.117C211.478 218.521 212.035 217.491 212.244 216.03L212.915 212.003H212.661C212.264 212.709 211.727 213.34 211.051 213.897C210.374 214.454 209.574 214.891 208.649 215.21C207.725 215.528 206.7 215.687 205.577 215.687C203.896 215.687 202.43 215.299 201.177 214.523C199.924 213.738 199.019 212.525 198.463 210.884C197.906 209.234 197.841 207.111 198.269 204.516C198.716 201.841 199.512 199.638 200.655 197.908C201.798 196.168 203.131 194.881 204.652 194.045C206.183 193.21 207.749 192.793 209.35 192.793C210.553 192.793 211.548 193.001 212.333 193.419C213.119 193.827 213.735 194.354 214.183 195C214.63 195.646 214.948 196.317 215.137 197.013H215.346L215.987 193.091H223.251L219.433 216.089C219.124 218.038 218.374 219.679 217.181 221.011C215.987 222.344 214.461 223.353 212.602 224.039C210.742 224.725 208.669 225.068 206.382 225.068ZM208.948 210.377C209.833 210.377 210.633 210.143 211.349 209.676C212.065 209.209 212.666 208.538 213.154 207.663C213.641 206.788 213.984 205.739 214.183 204.516C214.382 203.273 214.382 202.204 214.183 201.309C213.994 200.404 213.626 199.708 213.079 199.221C212.532 198.734 211.811 198.49 210.916 198.49C210.012 198.49 209.206 198.739 208.5 199.236C207.804 199.733 207.218 200.434 206.74 201.339C206.273 202.234 205.945 203.293 205.756 204.516C205.557 205.739 205.542 206.788 205.711 207.663C205.89 208.538 206.248 209.209 206.785 209.676C207.332 210.143 208.053 210.377 208.948 210.377ZM224.082 216L227.901 193.091H235.194L231.376 216H224.082ZM232.062 190.406C231.028 190.406 230.188 190.063 229.541 189.377C228.895 188.691 228.641 187.871 228.781 186.916C228.92 185.952 229.407 185.131 230.242 184.455C231.077 183.779 232.007 183.441 233.031 183.441C234.065 183.441 234.896 183.779 235.522 184.455C236.158 185.131 236.407 185.952 236.268 186.916C236.148 187.871 235.671 188.691 234.836 189.377C234.011 190.063 233.086 190.406 232.062 190.406ZM246.667 216.433C244.271 216.433 242.282 215.96 240.701 215.016C239.13 214.061 238.026 212.704 237.39 210.944C236.754 209.174 236.639 207.071 237.047 204.635C237.445 202.268 238.255 200.2 239.478 198.43C240.711 196.651 242.262 195.268 244.132 194.284C246.001 193.29 248.084 192.793 250.381 192.793C252.012 192.793 253.458 193.046 254.721 193.553C255.984 194.06 257.028 194.816 257.853 195.82C258.678 196.815 259.24 198.038 259.539 199.489C259.837 200.941 259.827 202.607 259.509 204.486L259.225 206.305H239.329L240 202.07H253.125C253.244 201.294 253.18 200.603 252.931 199.996C252.683 199.39 252.28 198.918 251.723 198.58C251.176 198.232 250.505 198.058 249.71 198.058C248.904 198.058 248.149 198.246 247.443 198.624C246.747 198.992 246.155 199.489 245.668 200.116C245.181 200.742 244.862 201.448 244.713 202.234L243.923 206.574C243.764 207.538 243.808 208.364 244.057 209.05C244.306 209.736 244.733 210.263 245.34 210.631C245.946 210.989 246.727 211.168 247.681 211.168C248.318 211.168 248.914 211.083 249.471 210.914C250.028 210.735 250.525 210.472 250.963 210.124C251.41 209.766 251.773 209.333 252.051 208.826L258.703 209.02C258.166 210.521 257.336 211.829 256.213 212.942C255.089 214.046 253.717 214.906 252.096 215.523C250.485 216.129 248.676 216.433 246.667 216.433ZM283.92 200.086L277.343 200.265C277.353 199.778 277.244 199.35 277.015 198.982C276.786 198.604 276.463 198.311 276.045 198.102C275.628 197.893 275.131 197.789 274.554 197.789C273.619 197.789 272.779 197.998 272.033 198.415C271.298 198.833 270.885 199.375 270.795 200.041C270.726 200.399 270.825 200.712 271.094 200.981C271.362 201.239 271.959 201.468 272.884 201.667L277.179 202.502C279.386 202.94 280.987 203.7 281.982 204.784C282.986 205.858 283.344 207.28 283.055 209.05C282.797 210.561 282.131 211.869 281.057 212.972C279.993 214.076 278.636 214.931 276.985 215.538C275.344 216.134 273.53 216.433 271.541 216.433C268.18 216.433 265.645 215.756 263.935 214.404C262.234 213.042 261.439 211.237 261.548 208.99L268.648 208.811C268.678 209.656 268.961 210.293 269.498 210.72C270.045 211.138 270.786 211.357 271.72 211.376C272.744 211.396 273.629 211.183 274.375 210.735C275.121 210.288 275.538 209.736 275.628 209.08C275.688 208.652 275.543 208.319 275.195 208.08C274.857 207.842 274.226 207.628 273.301 207.439L269.423 206.678C267.196 206.251 265.585 205.445 264.591 204.262C263.607 203.069 263.268 201.548 263.577 199.698C263.835 198.227 264.442 196.979 265.396 195.955C266.361 194.92 267.619 194.135 269.17 193.598C270.731 193.061 272.511 192.793 274.509 192.793C277.711 192.793 280.127 193.444 281.758 194.746C283.398 196.039 284.119 197.819 283.92 200.086ZM311.375 193.091L310.465 198.46H295.729L296.639 193.091H311.375ZM295.863 216L299.89 191.928C300.179 190.158 300.751 188.691 301.606 187.528C302.461 186.354 303.53 185.479 304.812 184.903C306.095 184.316 307.507 184.023 309.048 184.023C310.072 184.023 311.022 184.102 311.897 184.261C312.772 184.411 313.408 184.545 313.806 184.664L311.792 190.004C311.524 189.914 311.206 189.839 310.838 189.78C310.48 189.72 310.127 189.69 309.779 189.69C308.934 189.69 308.322 189.879 307.944 190.257C307.567 190.635 307.318 191.152 307.199 191.808L303.157 216H295.863ZM321.017 216.433C318.601 216.433 316.607 215.935 315.036 214.941C313.475 213.947 312.377 212.56 311.74 210.78C311.104 209 310.98 206.932 311.367 204.575C311.755 202.229 312.556 200.17 313.769 198.401C314.982 196.631 316.533 195.254 318.422 194.269C320.311 193.285 322.454 192.793 324.85 192.793C327.257 192.793 329.24 193.29 330.801 194.284C332.372 195.278 333.476 196.665 334.112 198.445C334.759 200.225 334.888 202.298 334.5 204.665C334.112 207.011 333.307 209.07 332.084 210.839C330.861 212.599 329.31 213.972 327.431 214.956C325.551 215.94 323.414 216.433 321.017 216.433ZM321.838 210.929C322.732 210.929 323.533 210.661 324.239 210.124C324.955 209.587 325.556 208.836 326.044 207.871C326.531 206.907 326.879 205.788 327.088 204.516C327.296 203.263 327.316 202.164 327.147 201.219C326.988 200.265 326.65 199.524 326.133 198.997C325.616 198.46 324.915 198.192 324.03 198.192C323.135 198.192 322.33 198.465 321.614 199.012C320.898 199.549 320.296 200.3 319.809 201.264C319.332 202.219 318.989 203.337 318.78 204.62C318.571 205.873 318.546 206.972 318.705 207.916C318.865 208.861 319.208 209.602 319.735 210.138C320.262 210.665 320.963 210.929 321.838 210.929ZM336.342 216L340.16 193.091H347.245L346.544 197.267H346.782C347.449 195.756 348.319 194.632 349.393 193.896C350.466 193.151 351.63 192.778 352.883 192.778C353.221 192.778 353.559 192.803 353.897 192.852C354.245 192.892 354.573 192.952 354.881 193.031L353.807 199.385C353.469 199.256 353.027 199.161 352.48 199.102C351.933 199.032 351.436 198.997 350.988 198.997C350.123 198.997 349.318 199.191 348.572 199.579C347.836 199.957 347.21 200.489 346.693 201.175C346.186 201.851 345.853 202.646 345.694 203.561L343.635 216H336.342ZM363.043 216L368.114 185.455H380.732C383.019 185.455 384.923 185.897 386.445 186.782C387.966 187.667 389.045 188.905 389.681 190.496C390.317 192.087 390.462 193.931 390.114 196.029C389.776 198.147 389.015 199.991 387.832 201.562C386.658 203.134 385.147 204.352 383.298 205.217C381.448 206.082 379.345 206.514 376.989 206.514H369.218L370.188 200.697H376.601C377.724 200.697 378.694 200.504 379.509 200.116C380.335 199.728 380.996 199.186 381.493 198.49C381.99 197.794 382.318 196.974 382.477 196.029C382.626 195.085 382.567 194.269 382.298 193.583C382.03 192.887 381.548 192.35 380.852 191.972C380.165 191.594 379.271 191.406 378.167 191.406H374.528L370.426 216H363.043ZM390.401 216L394.219 193.091H401.303L400.602 197.267H400.841C401.507 195.756 402.377 194.632 403.451 193.896C404.525 193.151 405.688 192.778 406.941 192.778C407.279 192.778 407.617 192.803 407.955 192.852C408.303 192.892 408.632 192.952 408.94 193.031L407.866 199.385C407.528 199.256 407.085 199.161 406.539 199.102C405.992 199.032 405.494 198.997 405.047 198.997C404.182 198.997 403.377 199.191 402.631 199.579C401.895 199.957 401.269 200.489 400.752 201.175C400.244 201.851 399.911 202.646 399.752 203.561L397.694 216H390.401ZM417.538 216.433C415.142 216.433 413.153 215.96 411.572 215.016C410.001 214.061 408.898 212.704 408.261 210.944C407.625 209.174 407.51 207.071 407.918 204.635C408.316 202.268 409.126 200.2 410.349 198.43C411.582 196.651 413.133 195.268 415.003 194.284C416.872 193.29 418.955 192.793 421.252 192.793C422.883 192.793 424.329 193.046 425.592 193.553C426.855 194.06 427.899 194.816 428.724 195.82C429.55 196.815 430.111 198.038 430.41 199.489C430.708 200.941 430.698 202.607 430.38 204.486L430.096 206.305H410.2L410.871 202.07H423.996C424.116 201.294 424.051 200.603 423.802 199.996C423.554 199.39 423.151 198.918 422.594 198.58C422.047 198.232 421.376 198.058 420.581 198.058C419.775 198.058 419.02 198.246 418.314 198.624C417.618 198.992 417.026 199.489 416.539 200.116C416.052 200.742 415.733 201.448 415.584 202.234L414.794 206.574C414.635 207.538 414.68 208.364 414.928 209.05C415.177 209.736 415.604 210.263 416.211 210.631C416.817 210.989 417.598 211.168 418.552 211.168C419.189 211.168 419.785 211.083 420.342 210.914C420.899 210.735 421.396 210.472 421.834 210.124C422.281 209.766 422.644 209.333 422.922 208.826L429.574 209.02C429.037 210.521 428.207 211.829 427.084 212.942C425.96 214.046 424.588 214.906 422.967 215.523C421.356 216.129 419.547 216.433 417.538 216.433ZM454.792 200.086L448.214 200.265C448.224 199.778 448.115 199.35 447.886 198.982C447.657 198.604 447.334 198.311 446.917 198.102C446.499 197.893 446.002 197.789 445.425 197.789C444.49 197.789 443.65 197.998 442.904 198.415C442.169 198.833 441.756 199.375 441.667 200.041C441.597 200.399 441.696 200.712 441.965 200.981C442.233 201.239 442.83 201.468 443.755 201.667L448.05 202.502C450.257 202.94 451.858 203.7 452.853 204.784C453.857 205.858 454.215 207.28 453.926 209.05C453.668 210.561 453.002 211.869 451.928 212.972C450.864 214.076 449.507 214.931 447.856 215.538C446.216 216.134 444.401 216.433 442.412 216.433C439.051 216.433 436.516 215.756 434.806 214.404C433.105 213.042 432.31 211.237 432.419 208.99L439.519 208.811C439.549 209.656 439.832 210.293 440.369 210.72C440.916 211.138 441.657 211.357 442.591 211.376C443.615 211.396 444.5 211.183 445.246 210.735C445.992 210.288 446.409 209.736 446.499 209.08C446.559 208.652 446.414 208.319 446.066 208.08C445.728 207.842 445.097 207.628 444.172 207.439L440.294 206.678C438.067 206.251 436.456 205.445 435.462 204.262C434.478 203.069 434.14 201.548 434.448 199.698C434.706 198.227 435.313 196.979 436.267 195.955C437.232 194.92 438.49 194.135 440.041 193.598C441.602 193.061 443.382 192.793 445.38 192.793C448.582 192.793 450.998 193.444 452.629 194.746C454.27 196.039 454.99 197.819 454.792 200.086ZM467.003 216.433C464.607 216.433 462.618 215.96 461.037 215.016C459.466 214.061 458.362 212.704 457.726 210.944C457.09 209.174 456.975 207.071 457.383 204.635C457.781 202.268 458.591 200.2 459.814 198.43C461.047 196.651 462.598 195.268 464.468 194.284C466.337 193.29 468.42 192.793 470.717 192.793C472.347 192.793 473.794 193.046 475.057 193.553C476.32 194.06 477.364 194.816 478.189 195.82C479.014 196.815 479.576 198.038 479.874 199.489C480.173 200.941 480.163 202.607 479.845 204.486L479.561 206.305H459.665L460.336 202.07H473.461C473.58 201.294 473.516 200.603 473.267 199.996C473.019 199.39 472.616 198.918 472.059 198.58C471.512 198.232 470.841 198.058 470.046 198.058C469.24 198.058 468.485 198.246 467.779 198.624C467.083 198.992 466.491 199.489 466.004 200.116C465.517 200.742 465.198 201.448 465.049 202.234L464.259 206.574C464.1 207.538 464.144 208.364 464.393 209.05C464.642 209.736 465.069 210.263 465.676 210.631C466.282 210.989 467.063 211.168 468.017 211.168C468.654 211.168 469.25 211.083 469.807 210.914C470.364 210.735 470.861 210.472 471.298 210.124C471.746 209.766 472.109 209.333 472.387 208.826L479.039 209.02C478.502 210.521 477.672 211.829 476.548 212.942C475.425 214.046 474.053 214.906 472.432 215.523C470.821 216.129 469.012 216.433 467.003 216.433ZM481.661 216L485.479 193.091H492.563L491.862 197.267H492.101C492.767 195.756 493.637 194.632 494.711 193.896C495.785 193.151 496.948 192.778 498.201 192.778C498.539 192.778 498.877 192.803 499.215 192.852C499.563 192.892 499.891 192.952 500.2 193.031L499.126 199.385C498.788 199.256 498.345 199.161 497.798 199.102C497.251 199.032 496.754 198.997 496.307 198.997C495.442 198.997 494.636 199.191 493.891 199.579C493.155 199.957 492.528 200.489 492.011 201.175C491.504 201.851 491.171 202.646 491.012 203.561L488.954 216H481.661ZM526.077 193.091L514.398 216H506.046L502.019 193.091H509.432L511.043 208.871H511.281L518.127 193.091H526.077ZM525.055 216L528.873 193.091H536.167L532.348 216H525.055ZM533.034 190.406C532 190.406 531.16 190.063 530.514 189.377C529.868 188.691 529.614 187.871 529.753 186.916C529.892 185.952 530.38 185.131 531.215 184.455C532.05 183.779 532.98 183.441 534.004 183.441C535.038 183.441 535.868 183.779 536.495 184.455C537.131 185.131 537.38 185.952 537.24 186.916C537.121 187.871 536.644 188.691 535.809 189.377C534.983 190.063 534.059 190.406 533.034 190.406ZM546.506 202.935L544.329 216H537.035L540.854 193.091H547.789L547.103 197.297H547.356C548.072 195.895 549.111 194.796 550.474 194.001C551.836 193.195 553.367 192.793 555.067 192.793C556.668 192.793 558.006 193.151 559.079 193.866C560.153 194.582 560.914 195.587 561.361 196.879C561.809 198.162 561.883 199.668 561.585 201.398L559.139 216H551.846L554.038 202.83C554.257 201.567 554.103 200.578 553.576 199.862C553.059 199.136 552.214 198.773 551.04 198.773C550.275 198.773 549.574 198.942 548.937 199.281C548.311 199.609 547.784 200.081 547.356 200.697C546.939 201.314 546.655 202.06 546.506 202.935ZM572.857 225.068C570.669 225.068 568.85 224.765 567.398 224.158C565.946 223.552 564.863 222.722 564.147 221.668C563.431 220.614 563.088 219.42 563.118 218.088L570.098 217.7C570.157 218.178 570.331 218.59 570.62 218.938C570.908 219.286 571.321 219.55 571.858 219.729C572.395 219.918 573.061 220.012 573.856 220.012C575.079 220.012 576.143 219.714 577.048 219.117C577.953 218.521 578.51 217.491 578.718 216.03L579.39 212.003H579.136C578.738 212.709 578.201 213.34 577.525 213.897C576.849 214.454 576.049 214.891 575.124 215.21C574.199 215.528 573.175 215.687 572.051 215.687C570.371 215.687 568.904 215.299 567.652 214.523C566.399 213.738 565.494 212.525 564.937 210.884C564.38 209.234 564.316 207.111 564.743 204.516C565.191 201.841 565.986 199.638 567.13 197.908C568.273 196.168 569.605 194.881 571.127 194.045C572.658 193.21 574.224 192.793 575.825 192.793C577.028 192.793 578.022 193.001 578.808 193.419C579.593 193.827 580.21 194.354 580.657 195C581.105 195.646 581.423 196.317 581.612 197.013H581.821L582.462 193.091H589.725L585.907 216.089C585.599 218.038 584.848 219.679 583.655 221.011C582.462 222.344 580.936 223.353 579.076 224.039C577.217 224.725 575.144 225.068 572.857 225.068ZM575.422 210.377C576.307 210.377 577.108 210.143 577.824 209.676C578.539 209.209 579.141 208.538 579.628 207.663C580.115 206.788 580.458 205.739 580.657 204.516C580.856 203.273 580.856 202.204 580.657 201.309C580.468 200.404 580.1 199.708 579.554 199.221C579.007 198.734 578.286 198.49 577.391 198.49C576.486 198.49 575.681 198.739 574.975 199.236C574.279 199.733 573.692 200.434 573.215 201.339C572.748 202.234 572.419 203.293 572.23 204.516C572.032 205.739 572.017 206.788 572.186 207.663C572.365 208.538 572.723 209.209 573.26 209.676C573.806 210.143 574.527 210.377 575.422 210.377ZM21.152 254.091L20.2422 259.46H5.78977L6.69957 254.091H21.152ZM10.6222 248.602H17.9155L14.3956 269.796C14.326 270.244 14.3359 270.607 14.4254 270.885C14.5249 271.153 14.7038 271.347 14.9624 271.467C15.2308 271.576 15.5589 271.631 15.9467 271.631C16.2152 271.631 16.5135 271.601 16.8416 271.541C17.1697 271.482 17.4183 271.437 17.5874 271.407L17.826 276.672C17.4382 276.781 16.9162 276.906 16.2599 277.045C15.6136 277.194 14.858 277.288 13.9929 277.328C12.2429 277.398 10.7962 277.194 9.6527 276.717C8.51918 276.229 7.71875 275.474 7.25142 274.45C6.79403 273.425 6.70455 272.143 6.98295 270.602L10.6222 248.602ZM31.0629 263.935L28.8853 277H21.592L26.663 246.455H33.7177L31.7788 258.297H32.0323C32.7681 256.885 33.7923 255.781 35.1048 254.986C36.4173 254.19 37.9386 253.793 39.6687 253.793C41.2596 253.793 42.592 254.151 43.6658 254.866C44.7397 255.572 45.5004 256.572 45.9478 257.864C46.3952 259.157 46.4748 260.668 46.1864 262.398L43.7404 277H36.4471L38.6545 263.83C38.8533 262.558 38.6893 261.563 38.1623 260.847C37.6353 260.131 36.7901 259.773 35.6268 259.773C34.8612 259.773 34.1552 259.942 33.5089 260.281C32.8725 260.609 32.3406 261.081 31.913 261.697C31.4854 262.314 31.2021 263.06 31.0629 263.935ZM58.8976 277.433C56.5012 277.433 54.5126 276.96 52.9316 276.016C51.3606 275.061 50.2569 273.704 49.6206 271.944C48.9842 270.174 48.8699 268.071 49.2775 265.635C49.6752 263.268 50.4856 261.2 51.7086 259.43C52.9416 257.651 54.4927 256.268 56.362 255.284C58.2314 254.29 60.3145 253.793 62.6113 253.793C64.242 253.793 65.6887 254.046 66.9515 254.553C68.2143 255.06 69.2583 255.816 70.0836 256.82C70.9089 257.815 71.4707 259.038 71.769 260.489C72.0673 261.941 72.0574 263.607 71.7392 265.486L71.4558 267.305H51.5595L52.2306 263.07H65.3556C65.475 262.294 65.4103 261.603 65.1618 260.996C64.9132 260.39 64.5105 259.918 63.9537 259.58C63.4068 259.232 62.7356 259.058 61.9402 259.058C61.1348 259.058 60.3791 259.246 59.6731 259.624C58.9771 259.992 58.3855 260.489 57.8983 261.116C57.411 261.742 57.0929 262.448 56.9437 263.234L56.1532 267.574C55.9941 268.538 56.0389 269.364 56.2875 270.05C56.536 270.736 56.9636 271.263 57.5701 271.631C58.1767 271.989 58.9572 272.168 59.9118 272.168C60.5481 272.168 61.1447 272.083 61.7015 271.914C62.2583 271.735 62.7555 271.472 63.193 271.124C63.6404 270.766 64.0034 270.333 64.2818 269.826L70.9338 270.02C70.3968 271.521 69.5666 272.829 68.443 273.942C67.3194 275.046 65.9473 275.906 64.3265 276.523C62.7157 277.129 60.9061 277.433 58.8976 277.433ZM82.5785 277L87.6495 246.455H95.0323L93.0039 258.714H105.04L107.069 246.455H114.436L109.365 277H101.998L104.026 264.725H91.9897L89.9613 277H82.5785ZM124.646 277.433C122.249 277.433 120.261 276.96 118.68 276.016C117.109 275.061 116.005 273.704 115.369 271.944C114.732 270.174 114.618 268.071 115.026 265.635C115.423 263.268 116.234 261.2 117.457 259.43C118.69 257.651 120.241 256.268 122.11 255.284C123.979 254.29 126.062 253.793 128.359 253.793C129.99 253.793 131.437 254.046 132.7 254.553C133.962 255.06 135.006 255.816 135.832 256.82C136.657 257.815 137.219 259.038 137.517 260.489C137.815 261.941 137.805 263.607 137.487 265.486L137.204 267.305H117.308L117.979 263.07H131.104C131.223 262.294 131.158 261.603 130.91 260.996C130.661 260.39 130.259 259.918 129.702 259.58C129.155 259.232 128.484 259.058 127.688 259.058C126.883 259.058 126.127 259.246 125.421 259.624C124.725 259.992 124.134 260.489 123.646 261.116C123.159 261.742 122.841 262.448 122.692 263.234L121.901 267.574C121.742 268.538 121.787 269.364 122.036 270.05C122.284 270.736 122.712 271.263 123.318 271.631C123.925 271.989 124.705 272.168 125.66 272.168C126.296 272.168 126.893 272.083 127.45 271.914C128.006 271.735 128.504 271.472 128.941 271.124C129.388 270.766 129.751 270.333 130.03 269.826L136.682 270.02C136.145 271.521 135.315 272.829 134.191 273.942C133.067 275.046 131.695 275.906 130.075 276.523C128.464 277.129 126.654 277.433 124.646 277.433ZM139.303 277L143.121 254.091H150.206L149.505 258.267H149.743C150.41 256.756 151.28 255.632 152.354 254.896C153.427 254.151 154.591 253.778 155.844 253.778C156.182 253.778 156.52 253.803 156.858 253.852C157.206 253.892 157.534 253.952 157.842 254.031L156.768 260.385C156.43 260.256 155.988 260.161 155.441 260.102C154.894 260.032 154.397 259.997 153.949 259.997C153.084 259.997 152.279 260.191 151.533 260.579C150.797 260.957 150.171 261.489 149.654 262.175C149.147 262.851 148.814 263.646 148.655 264.561L146.596 277H139.303ZM156.981 277L160.799 254.091H168.092L164.274 277H156.981ZM164.96 251.406C163.926 251.406 163.086 251.063 162.44 250.377C161.793 249.691 161.54 248.871 161.679 247.916C161.818 246.952 162.305 246.131 163.141 245.455C163.976 244.779 164.906 244.441 165.93 244.441C166.964 244.441 167.794 244.779 168.42 245.455C169.057 246.131 169.305 246.952 169.166 247.916C169.047 248.871 168.57 249.691 167.734 250.377C166.909 251.063 165.984 251.406 164.96 251.406ZM185.666 254.091L184.756 259.46H170.303L171.213 254.091H185.666ZM175.136 248.602H182.429L178.909 269.796C178.84 270.244 178.85 270.607 178.939 270.885C179.039 271.153 179.218 271.347 179.476 271.467C179.744 271.576 180.073 271.631 180.46 271.631C180.729 271.631 181.027 271.601 181.355 271.541C181.683 271.482 181.932 271.437 182.101 271.407L182.34 276.672C181.952 276.781 181.43 276.906 180.774 277.045C180.127 277.194 179.372 277.288 178.507 277.328C176.757 277.398 175.31 277.194 174.166 276.717C173.033 276.229 172.232 275.474 171.765 274.45C171.308 273.425 171.218 272.143 171.497 270.602L175.136 248.602ZM191.967 277.388C190.515 277.388 189.263 277.144 188.209 276.657C187.165 276.16 186.399 275.409 185.912 274.405C185.434 273.401 185.32 272.148 185.569 270.646C185.787 269.374 186.19 268.305 186.777 267.44C187.373 266.565 188.104 265.854 188.969 265.307C189.844 264.76 190.819 264.342 191.893 264.054C192.966 263.766 194.09 263.572 195.263 263.472C196.576 263.353 197.64 263.224 198.455 263.085C199.28 262.945 199.897 262.751 200.305 262.503C200.712 262.244 200.961 261.886 201.05 261.429V261.354C201.17 260.589 201.006 259.997 200.558 259.58C200.111 259.162 199.439 258.953 198.545 258.953C197.59 258.953 196.775 259.162 196.099 259.58C195.422 259.997 194.95 260.574 194.682 261.31L188 261.071C188.417 259.679 189.133 258.436 190.148 257.342C191.162 256.239 192.449 255.374 194.01 254.747C195.581 254.111 197.396 253.793 199.454 253.793C200.906 253.793 202.219 253.967 203.392 254.315C204.565 254.653 205.555 255.15 206.36 255.806C207.175 256.452 207.757 257.248 208.105 258.192C208.453 259.137 208.528 260.216 208.329 261.429L205.719 277H198.858L199.395 273.808H199.216C198.679 274.584 198.047 275.24 197.322 275.777C196.606 276.314 195.8 276.717 194.905 276.985C194.01 277.254 193.031 277.388 191.967 277.388ZM195.04 272.615C195.805 272.615 196.531 272.456 197.217 272.138C197.903 271.82 198.48 271.382 198.947 270.825C199.425 270.259 199.728 269.602 199.857 268.857L200.2 266.679C199.991 266.788 199.728 266.888 199.41 266.977C199.091 267.067 198.753 267.151 198.395 267.231C198.037 267.3 197.67 267.37 197.292 267.44C196.924 267.499 196.571 267.554 196.233 267.604C195.517 267.713 194.895 267.882 194.368 268.111C193.841 268.339 193.419 268.638 193.101 269.006C192.792 269.364 192.604 269.791 192.534 270.288C192.415 271.034 192.589 271.611 193.056 272.018C193.523 272.416 194.184 272.615 195.04 272.615ZM219.425 286.068C217.238 286.068 215.418 285.765 213.966 285.158C212.515 284.552 211.431 283.722 210.715 282.668C209.999 281.614 209.656 280.42 209.686 279.088L216.666 278.7C216.726 279.178 216.9 279.59 217.188 279.938C217.476 280.286 217.889 280.55 218.426 280.729C218.963 280.918 219.629 281.012 220.425 281.012C221.648 281.012 222.711 280.714 223.616 280.117C224.521 279.521 225.078 278.491 225.287 277.03L225.958 273.003H225.704C225.307 273.709 224.77 274.34 224.094 274.897C223.417 275.454 222.617 275.891 221.692 276.21C220.768 276.528 219.743 276.687 218.62 276.687C216.939 276.687 215.473 276.299 214.22 275.523C212.967 274.738 212.062 273.525 211.506 271.884C210.949 270.234 210.884 268.111 211.312 265.516C211.759 262.841 212.555 260.638 213.698 258.908C214.841 257.168 216.174 255.881 217.695 255.045C219.226 254.21 220.792 253.793 222.393 253.793C223.596 253.793 224.591 254.001 225.376 254.419C226.162 254.827 226.778 255.354 227.226 256C227.673 256.646 227.991 257.317 228.18 258.013H228.389L229.03 254.091H236.294L232.476 277.089C232.167 279.038 231.417 280.679 230.224 282.011C229.03 283.344 227.504 284.353 225.645 285.039C223.785 285.725 221.712 286.068 219.425 286.068ZM221.991 271.377C222.876 271.377 223.676 271.143 224.392 270.676C225.108 270.209 225.709 269.538 226.197 268.663C226.684 267.788 227.027 266.739 227.226 265.516C227.425 264.273 227.425 263.204 227.226 262.309C227.037 261.404 226.669 260.708 226.122 260.221C225.575 259.734 224.854 259.49 223.959 259.49C223.055 259.49 222.249 259.739 221.543 260.236C220.847 260.733 220.26 261.434 219.783 262.339C219.316 263.234 218.988 264.293 218.799 265.516C218.6 266.739 218.585 267.788 218.754 268.663C218.933 269.538 219.291 270.209 219.828 270.676C220.375 271.143 221.096 271.377 221.991 271.377ZM247.775 277.433C245.378 277.433 243.39 276.96 241.809 276.016C240.238 275.061 239.134 273.704 238.498 271.944C237.861 270.174 237.747 268.071 238.154 265.635C238.552 263.268 239.363 261.2 240.586 259.43C241.819 257.651 243.37 256.268 245.239 255.284C247.108 254.29 249.191 253.793 251.488 253.793C253.119 253.793 254.566 254.046 255.828 254.553C257.091 255.06 258.135 255.816 258.961 256.82C259.786 257.815 260.348 259.038 260.646 260.489C260.944 261.941 260.934 263.607 260.616 265.486L260.333 267.305H240.436L241.108 263.07H254.233C254.352 262.294 254.287 261.603 254.039 260.996C253.79 260.39 253.387 259.918 252.831 259.58C252.284 259.232 251.613 259.058 250.817 259.058C250.012 259.058 249.256 259.246 248.55 259.624C247.854 259.992 247.262 260.489 246.775 261.116C246.288 261.742 245.97 262.448 245.821 263.234L245.03 267.574C244.871 268.538 244.916 269.364 245.164 270.05C245.413 270.736 245.841 271.263 246.447 271.631C247.054 271.989 247.834 272.168 248.789 272.168C249.425 272.168 250.022 272.083 250.578 271.914C251.135 271.735 251.632 271.472 252.07 271.124C252.517 270.766 252.88 270.333 253.159 269.826L259.811 270.02C259.274 271.521 258.444 272.829 257.32 273.942C256.196 275.046 254.824 275.906 253.203 276.523C251.593 277.129 249.783 277.433 247.775 277.433ZM273.573 246.455L273.007 249.855C272.857 250.8 272.514 251.754 271.977 252.719C271.441 253.673 270.804 254.568 270.068 255.403C269.343 256.239 268.602 256.945 267.846 257.521L264.982 255.821C265.559 255.065 266.106 254.215 266.623 253.271C267.15 252.316 267.523 251.183 267.742 249.87L268.323 246.455H273.573ZM281.016 246.455L280.449 249.855C280.3 250.8 279.957 251.754 279.42 252.719C278.883 253.673 278.247 254.568 277.511 255.403C276.785 256.239 276.049 256.945 275.303 257.521L272.44 255.821C273.017 255.065 273.563 254.215 274.08 253.271C274.597 252.316 274.965 251.183 275.184 249.87L275.766 246.455H281.016Z" fill="white"/>
</g>
<defs>
<filter id="filter0_d_966_1999" x="0.402344" y="0.441406" width="593.322" height="293.627" filterUnits="userSpaceOnUse" color-interpolation-filters="sRGB">
<feFlood flood-opacity="0" result="BackgroundImageFix"/>
<feColorMatrix in="SourceAlpha" type="matrix" values="0 0 0 0 0 0 0 0 0 0 0 0 0 0 0 0 0 0 127 0" result="hardAlpha"/>
<feOffset dy="4"/>
<feGaussianBlur stdDeviation="2"/>
<feComposite in2="hardAlpha" operator="out"/>
<feColorMatrix type="matrix" values="0 0 0 0 0 0 0 0 0 0 0 0 0 0 0 0 0 0 0.25 0"/>
<feBlend mode="normal" in2="BackgroundImageFix" result="effect1_dropShadow_966_1999"/>
<feBlend mode="normal" in="SourceGraphic" in2="effect1_dropShadow_966_1999" result="shape"/>
</filter>
</defs>
</svg>
