<svg width="116" height="777" viewBox="0 0 116 777" fill="none" xmlns="http://www.w3.org/2000/svg">
<path d="M91.1 736.604C95.2 734.344 99.2 732.084 103.3 729.974C106.6 728.317 109.9 727.262 113.3 725.906C113.6 723.495 114.1 721.084 114.1 718.674C114.1 547.055 114.1 375.286 114.1 203.668C114.1 139.631 114.2 75.7447 114.3 11.708C114.6 14.5708 115.2 17.5843 115.2 20.4471C115.2 253.842 115.2 487.087 115.3 720.482C115.3 725.605 115.3 730.125 110.6 730.125C109.4 730.125 108.1 731.481 107 732.686C101.3 739.015 94.8 740.069 87.5 739.165C88.9 738.111 90 737.357 91.1 736.604Z" fill="#403149"/>
<path d="M114.3 11.7083C114.2 75.7451 114.1 139.631 114.1 203.668C114.1 375.286 114.1 547.055 114.1 718.674C114.1 721.085 113.6 723.495 113.3 725.906C113.2 722.29 113 718.825 112.9 715.208C112.9 674.074 112.9 632.789 113 591.655C113 563.027 113 534.399 113 505.921C113 487.84 113 469.759 113 451.678C112.4 446.857 111.3 442.035 111.4 437.214C111.6 429.228 113.1 421.242 113.1 413.256C113.2 362.78 113.1 312.304 113 261.979C113.1 240.734 113.1 219.489 113.2 198.093C113.2 142.494 113.2 86.895 113.2 31.296C113.2 27.8305 113.1 24.365 113 20.7488C113 15.7766 113.1 10.8043 113.1 5.83203C113.4 7.64013 113.9 9.74956 114.3 11.7083Z" fill="#999B8D"/>
<path d="M0.199982 505.771C0.0999817 500.798 0 495.675 0 490.703C0 338.974 0 187.395 0 35.6655C0 34.1588 0.0999817 32.652 0.199982 31.1453C2.39998 33.8574 4.39999 37.1723 6.89999 39.131C13.2 44.1033 20 47.7195 26 53.2945C30.9 57.8147 34.8 64.595 39.3 70.0193C44.1 75.745 45.5 75.5943 48.8 68.0606C51.4 62.1843 54.5 57.664 59.3 56.308C63 55.2533 64.7 51.637 65.7 46.2128C66.3 42.8979 68.1 38.679 70.1 37.323C77.7 32.3507 81.6 22.7075 85.1 12.311C87.1 6.43464 94.2 2.36644 96.8 7.33871C101.1 15.3245 107.3 16.5298 112.8 20.4474C112.9 23.9129 113 27.3784 113 30.9946C113 86.5936 113 142.193 113 197.791C113 219.037 112.9 240.282 112.8 261.678C110.8 259.417 108.6 257.609 106.9 255.048C102.4 248.117 97.6 244.049 90.9 248.117C90.1 248.569 88.7 246.761 87.6 245.857C82.9 242.09 78.4 236.214 73.5 235.159C64.3 233.501 54.8 233.652 45.6 235.008C38.8 236.063 32 239.528 25.4 242.994C17.4 247.213 9.69999 252.637 0.899994 258.061C0.899994 323.756 0.899994 391.408 0.899994 459.061C0.899994 474.581 0.899994 490.251 0.899994 505.771C0.799994 505.771 0.499982 505.771 0.199982 505.771Z" fill="#53405F"/>
<path d="M112.9 20.4471C107.4 16.5295 101.2 15.4748 96.8998 7.33842C94.1998 2.36615 87.0998 6.28368 85.1998 12.3107C81.7998 22.7072 77.8998 32.3504 70.1998 37.3227C68.1998 38.6787 66.3998 42.7469 65.7998 46.2125C64.7998 51.7874 63.1998 55.253 59.3998 56.3077C54.6998 57.6638 51.5998 62.184 48.8998 68.0603C45.5998 75.594 44.0998 75.7447 39.3998 70.0191C34.8998 64.5948 30.8998 57.8144 26.0998 53.2942C20.0998 47.7192 13.2998 44.103 6.99982 39.1307C4.49982 37.172 2.4998 33.8571 0.299805 31.145C0.299805 27.9808 0.299805 24.8167 0.299805 20.8991C7.6998 25.7207 14.7998 29.9396 21.5998 34.9119C23.8998 36.5693 25.2998 40.4868 27.4998 42.747C29.0998 44.5551 31.3998 46.8152 32.9998 46.3632C40.8998 44.103 48.8998 41.5416 56.5998 37.9254C59.6998 36.4186 62.2998 32.3504 65.0998 29.3369C65.7998 28.5835 66.0998 27.0768 66.7998 26.6248C73.8998 21.2005 78.7998 12.3107 84.2998 4.17424C87.5998 -0.64735 95.1998 -0.0446697 100.8 0.106005C104.9 0.25668 109 3.57153 113.1 5.5303C113 10.6532 112.9 15.6255 112.9 20.4471Z" fill="#F6EDDB"/>
<path d="M50.0999 725.756C53.2999 728.769 56.2998 732.687 59.6998 734.645C66.4998 738.262 72.6999 737.056 76.7999 726.208C77.3999 724.55 80.2998 723.646 81.8998 724.249C90.0998 727.112 97.4999 724.249 104.8 718.373C107.1 716.414 110.1 716.414 112.8 715.51C112.9 719.126 113.1 722.591 113.2 726.208C109.9 727.564 106.5 728.769 103.2 730.276C99.0998 732.235 94.9998 734.645 90.9998 736.906C80.7998 733.591 71.0998 737.96 61.1998 740.974C58.5998 741.727 55.6998 740.22 52.8998 739.768C50.2998 740.371 47.2999 739.919 45.0999 741.727C35.8999 748.959 26.9998 756.945 17.9998 764.479C13.0998 768.547 8.09985 772.163 3.09985 776.081C2.19985 776.232 1.19985 776.232 0.0998535 776.382C0.0998535 772.013 0.0998535 767.794 0.0998535 763.575C0.699854 762.52 1.29985 761.616 1.99985 760.561C3.69985 756.945 5.49983 753.329 7.19983 749.713C9.09983 745.645 10.7998 744.138 13.3998 748.96C14.2998 750.617 16.6998 751.973 17.9998 751.37C21.3998 749.562 24.5998 747.001 27.7998 744.289C31.3998 741.275 34.6998 737.81 38.2998 734.796C41.8998 731.783 45.4998 728.92 49.1998 725.906C49.4998 725.756 49.7999 725.756 50.0999 725.756Z" fill="#F6EDDB"/>
<path d="M3.19995 775.628C8.19995 771.711 13.2 768.095 18.1 764.027C27.2 756.493 36.1 748.507 45.2 741.275C47.4 739.467 50.3999 739.919 52.9999 739.316C50.2999 741.727 47.7 744.288 45 746.699C34.9 755.438 24.8 763.876 14.7 772.615C11.1 775.93 7.49995 778.793 3.19995 775.628Z" fill="#403149"/>
<path d="M0.199951 505.771C0.499951 505.771 0.799976 505.771 1.09998 505.771C1.09998 508.332 1.09998 510.743 1.09998 513.304C1.79998 516.77 2.49995 520.235 3.19995 523.701C0.899951 525.66 -0.400024 576.738 2.09998 599.792C2.79998 594.819 3.49998 589.998 4.09998 585.025C4.59998 584.724 5.09995 584.573 5.69995 584.272C5.89995 593.764 9.89996 597.833 14.8 600.093C15.9 600.545 17.2 599.791 18.4 599.641C17.7 597.983 17.2 596.175 16.3 594.819C15.4 593.312 13.7 592.71 13.1 591.052C11.9 588.039 11.1 584.573 10.2 581.258C9.49995 578.546 8.79996 575.684 8.39996 572.821C8.29996 571.917 8.99997 570.259 9.49997 569.958C9.99997 569.657 11.5 570.711 11.5 571.163C11.3 577.642 16.6 578.998 17.2 582.765C18.8 593.764 27.3 591.806 30.1 600.093C30.3 600.696 32.4 599.641 33.6 599.49C35.7 599.34 37.9 599.189 40 599.641C42.1 600.093 44 601.901 46.1 602.052C52.8 602.353 59.4 602.202 66.1 602.202C67.4 602.202 68.7999 602.052 69.9999 601.449C77.0999 597.983 83.0999 588.642 91.4999 591.354C91.7999 591.504 92.1 591.052 92.4 590.751C99.4 583.519 106.4 582.916 113.1 591.655C113.1 632.789 113.1 674.074 113 715.208C110.3 716.112 107.3 716.263 105 718.071C97.7999 723.947 90.4 726.81 82.1 723.947C80.5 723.345 77.5999 724.249 76.9999 725.906C72.8999 736.755 66.7 737.96 59.9 734.344C56.4 732.536 53.5 728.468 50.3 725.454C54.2 721.687 53.7 718.071 50.1 714.756C49.1 713.852 48 712.948 47.2 711.743C46 709.935 43.8 706.62 44.1 705.866C45 703.305 46.8 701.045 48.6 699.689C51.2 697.881 54 696.977 55.9 702.25C56.5 703.757 58 704.51 58.6 704.962C59.4 701.648 59.6 698.634 60.7 697.278C61.7 696.073 63.7 696.977 65.3 696.826C64.8 699.99 64.2999 703.305 63.4999 708.579C66.7999 706.318 70.5 705.565 72.3 702.25C74.9 697.429 71.3999 693.21 68.9999 691.552C64.8999 688.69 63.2 684.019 61.6 678.444C61.2 676.786 58.7 674.677 58.2 675.129C55.1 677.992 52.3 681.457 49.9 684.32C50.8 686.128 52 688.388 53.1 690.498C51.2 691.251 49.2 692.758 47.3 692.456C43.2 692.004 39.3 691.703 36.3 697.127C31.7 705.414 27.3 714.154 19.6 716.564C19.5 716.564 19.5 717.468 19.4 717.92C29.7 728.016 32.8 714.606 37.1 702.702C37.7 713.25 40.3 717.619 45.8 719.277C48.3 720.03 50.1 720.783 49.2 725.454C45.6 728.317 41.9 731.18 38.3 734.344C34.8 737.357 31.4 740.823 27.8 743.837C24.6 746.549 21.4 749.11 18 750.918C16.8 751.521 14.3 750.165 13.4 748.507C10.8 743.686 9.09995 745.193 7.19995 749.261C5.49995 752.877 3.69997 756.493 1.99997 760.109C1.69997 757.247 1.09998 754.233 1.09998 751.37C0.999976 735.097 0.999976 718.824 1.09998 702.552C1.09998 700.141 1.59995 697.579 1.69995 695.169C1.79995 692.155 1.89998 688.991 1.59998 685.977C0.999976 679.348 0.0999694 673.471 3.99997 667.294C6.19997 663.828 6.39997 656.747 6.49997 651.172C6.49997 649.062 3.69996 646.953 1.79996 644.09C1.79996 640.624 1.79996 635.501 1.79996 628.269C4.69996 635.351 6.79995 640.474 9.19995 646.501C9.89995 643.186 10.1 640.624 10.9 638.515C14 630.529 13.8 627.968 9.09998 621.79C6.79998 623.297 4.69998 624.653 2.59998 626.009C2.39998 625.406 2.29998 624.804 2.09998 624.351C3.39998 622.694 4.59995 620.886 6.69995 618.023C3.69995 617.571 1.99996 617.27 0.299957 617.119C0.199957 580.053 0.199951 542.987 0.199951 505.771ZM38.1 620.133C35.5 624.804 35.3 629.474 38.5 633.693C43.1 639.72 48 645.446 52.3 651.925C58.8 661.568 64.7999 671.965 71.2 681.608C72.6 683.717 74.9 684.169 76.8 685.375C77.2 684.32 77.7 683.265 78.1 682.06C65 661.568 51.7 641.076 38.1 620.133ZM84.6 661.116C86.7 658.555 88.3 656.897 89.8 654.938C91.3 652.98 93.3 651.021 93.8 648.61C94.3 645.898 94 640.775 92.9 639.72C91.3 638.214 88.5 639.268 86.2 639.268C86.2 639.871 86.2 640.624 86.1 641.227C87.3 643.035 88.6 644.693 90.7 647.857C86.3999 648.61 83.0999 649.213 78.9999 649.966C81.4999 654.637 83.3 658.404 84.6 661.116Z" fill="#53405F"/>
<path d="M112.859 262.071C112.959 312.358 113.059 362.645 112.959 412.782C112.959 420.738 111.459 428.694 111.259 436.65C111.159 441.454 112.259 446.257 112.859 451.061C108.76 447.008 104.762 442.955 100.763 438.902C100.863 437.701 100.863 436.8 101.063 436.35C102.562 433.047 102.562 429.745 100.063 428.544C97.9641 427.643 95.3651 428.544 93.0659 428.694C93.4658 431.546 93.5657 434.548 94.3654 437.1C95.3651 440.253 96.8646 443.105 97.6643 444.906C94.6654 448.659 92.3662 451.361 90.067 454.213C86.4684 453.162 82.9697 452.262 79.0711 451.211C81.6702 441.304 83.8694 448.659 86.1685 449.259C87.3681 445.807 88.6676 443.705 85.6687 439.802C83.4695 436.95 82.6698 430.946 82.2699 425.992C81.4702 416.835 78.8712 411.732 71.9738 409.18C73.2733 412.482 74.7727 414.884 75.2725 417.736C75.8723 420.888 75.4725 424.491 75.4725 427.944C75.4725 428.394 75.6724 428.994 75.9723 429.145C78.5713 431.847 77.3717 434.699 76.0722 437.401C74.1729 438.151 72.3736 438.902 69.8745 439.953C71.3739 443.105 72.1737 444.906 72.9734 446.557C72.4736 446.557 72.0737 446.708 71.5739 446.708C71.4739 448.359 71.174 451.361 71.3739 451.511C76.2721 453.763 79.6709 463.67 86.0685 458.266C86.7683 459.317 87.368 460.218 88.0678 461.268C86.3684 463.82 84.6691 466.522 81.9701 470.425C84.869 471.176 86.1685 471.326 87.2681 471.926C88.3677 472.527 89.3673 473.728 90.3669 474.778C89.3673 476.279 88.4676 478.681 87.368 478.831C84.4691 479.282 80.8705 481.533 79.6709 474.328C79.471 473.277 78.2714 472.677 77.4717 471.776C75.3725 469.675 72.9734 467.873 71.1741 465.321C68.1752 461.118 61.9775 457.065 58.4787 458.416C61.8775 462.319 64.8763 465.922 66.8756 468.324C65.676 471.776 64.0767 474.328 64.2766 476.43C64.7764 480.783 67.1755 480.783 69.7746 479.882C71.6739 479.282 73.7731 479.732 75.7723 479.732C75.8723 480.633 75.8723 481.383 75.9723 482.284C73.1733 483.335 70.4743 484.686 67.6754 485.286C55.4799 487.838 43.5843 483.034 31.9885 478.981C24.8912 476.43 18.1936 468.474 12.1958 461.418C8.19732 456.615 5.09848 456.165 1 458.266C1 390.866 1 323.466 1 258.018C9.69678 252.614 17.4939 247.21 25.4909 243.007C32.0885 239.554 38.786 236.102 45.6835 235.051C54.8801 233.7 64.3765 233.55 73.5731 235.201C78.4713 236.102 82.9697 242.106 87.668 245.859C88.7676 246.759 90.167 248.561 90.9667 248.11C97.5643 244.057 102.462 248.11 106.961 255.016C108.66 258.018 110.859 259.819 112.859 262.071ZM102.063 398.972C99.2636 401.224 97.0644 402.425 95.3651 404.526C94.5654 405.427 93.8657 408.279 94.1656 409.63C94.9653 412.932 103.662 416.235 106.161 414.884C104.862 409.63 103.462 404.376 102.063 398.972Z" fill="#705D72"/>
<path d="M1 458.256C5.10366 456.107 8.20642 456.568 12.21 461.479C18.2154 468.694 24.9214 476.829 32.0277 479.438C43.6381 483.582 55.5487 488.494 67.7596 485.885C70.5621 485.271 73.2645 483.889 76.067 482.815C75.967 481.894 75.9669 481.127 75.8669 480.206C73.8651 480.206 71.7632 479.745 69.8615 480.359C67.2592 481.28 64.857 481.28 64.3566 476.829C64.1564 474.68 65.7578 472.07 66.9589 468.54C64.857 466.084 61.8544 462.554 58.5514 458.409C62.1546 457.182 68.2601 461.326 71.2628 465.47C73.1645 468.08 75.4665 469.922 77.5684 472.07C78.3691 472.838 79.5702 473.605 79.7704 474.68C80.8714 482.048 84.5746 479.745 87.4772 479.285C88.5782 479.131 89.479 476.522 90.4799 475.14C89.479 474.219 88.4781 472.838 87.3771 472.224C86.1761 471.61 84.8749 471.456 82.0724 470.689C84.6747 466.698 86.3762 463.935 88.1778 461.326C88.378 464.089 88.5782 466.852 88.7784 470.229C97.9866 461.172 97.9866 459.944 90.1796 453.651C92.4817 450.735 94.7838 447.818 97.7865 444.135C96.9857 442.293 95.4844 439.53 94.4835 436.153C93.6827 433.544 93.5827 430.474 93.1823 427.557C95.5845 427.404 98.0867 426.483 100.189 427.404C102.791 428.632 102.791 432.162 101.189 435.385C100.889 435.999 100.989 436.767 100.889 437.995C104.893 442.139 108.896 446.284 113 450.428C113 468.847 113 487.266 113 505.686C111.298 508.141 109.497 510.444 107.895 512.9C104.793 517.812 101.79 522.416 96.7856 523.337C91.3807 524.412 85.3754 525.333 81.0715 529.631C76.2672 534.696 71.563 534.389 66.5586 534.696C62.4549 535.003 58.2511 535.77 54.1474 535.924C47.8418 536.077 41.1358 536.998 38.5335 524.719C38.3333 523.798 37.0322 523.337 35.731 522.263C35.9312 525.64 36.0313 527.942 36.2314 530.245C35.9312 530.859 35.731 531.319 35.4307 531.933C30.3262 524.565 22.1188 529.477 16.2136 518.579C19.9169 518.272 22.1189 518.119 24.4209 517.965C24.6211 517.198 24.8213 516.277 25.0215 515.509C21.9187 513.36 18.916 510.751 15.613 509.216C15.0125 508.909 13.7113 512.746 12.7104 514.588C9.00713 514.128 5.00355 513.667 1.10006 513.207C1.10006 510.597 1.10006 508.141 1.10006 505.532C0.999976 489.876 1 474.066 1 458.256ZM63.0554 528.863C63.1555 527.175 63.1555 525.486 63.2556 523.798C61.2538 523.798 59.3521 523.644 57.3503 523.951C57.1501 523.951 57.05 526.407 56.9499 527.635C58.9517 528.096 60.9535 528.556 63.0554 528.863ZM93.6828 512.439C93.7828 513.36 93.983 514.281 94.0831 515.356C97.6864 517.965 99.9884 513.974 102.591 511.518C102.491 510.904 102.29 510.29 102.19 509.676C99.2878 510.444 96.4853 511.365 93.6828 512.439Z" fill="#69566D"/>
<path d="M1.10005 513.304C5.00005 513.756 9.00002 514.208 12.7 514.66C13.7 512.852 15.1 509.085 15.6 509.386C18.8 510.893 21.9 513.304 25 515.564C24.8 516.317 24.6 517.221 24.4 517.975C22.1 518.126 19.9 518.276 16.2 518.578C22.1 529.276 30.3 524.454 35.4 531.686C35.7 531.084 35.9 530.632 36.2 530.029C36.1 527.769 35.9 525.509 35.7 522.194C37 523.249 38.3 523.701 38.5 524.605C41.2 536.659 47.8 535.755 54.1 535.604C58.2 535.453 62.4 534.7 66.5 534.398C71.5 534.097 76.2 534.398 81 529.426C85.2 525.057 91.3 524.153 96.7 523.248C101.7 522.344 104.6 517.824 107.8 513.003C109.4 510.441 111.2 508.181 112.9 505.921C112.9 534.549 112.9 563.177 112.9 591.655C106.2 582.916 99.2 583.669 92.2 590.751C91.9 591.052 91.6001 591.353 91.3001 591.353C82.9001 588.641 76.9001 597.983 69.8001 601.449C68.6001 602.051 67.2 602.202 65.9 602.202C59.2 602.202 52.6 602.503 45.9 602.051C43.9 601.901 41.9 600.093 39.8 599.641C37.7 599.189 35.5 599.49 33.4 599.49C32.2 599.49 30.1 600.545 29.9 600.093C27.1 591.805 18.6 593.915 17 582.765C16.4 578.998 11.2 577.642 11.3 571.163C11.3 570.711 9.80003 569.656 9.30003 569.958C8.70003 570.259 8.10002 571.916 8.20002 572.82C8.60002 575.683 9.30004 578.546 10 581.258C10.9 584.573 11.6 588.039 12.9 591.052C13.6 592.71 15.2 593.312 16.1 594.819C17 596.175 17.5 597.983 18.2 599.641C17 599.791 15.7 600.545 14.6 600.093C9.70004 597.832 5.70004 593.764 5.50004 584.272C5.00004 584.573 4.50003 584.724 3.90003 585.025C3.20003 589.997 2.50003 594.819 1.90003 599.791C-0.599967 576.587 0.700039 525.659 3.00004 523.701C2.50004 520.084 1.80005 516.77 1.10005 513.304Z" fill="#5B4864"/>
<path d="M112.8 260.996C108.9 260.544 104.9 260.092 101.2 259.64C100.2 261.448 98.8 265.215 98.3 264.914C95.1 263.407 92 260.996 88.9 258.736C89.1 257.983 89.3 257.079 89.5 256.325C91.8 256.175 94 256.024 97.7 255.723C91.8 245.025 83.6 249.846 78.5 242.614C78.2 243.217 78 243.669 77.7 244.271C77.8 246.532 78 248.792 78.2 252.106C76.9 251.052 75.6 250.6 75.4 249.696C72.7 237.642 66.1 238.546 59.8 238.696C55.7 238.847 51.5 239.6 47.4 239.902C42.4 240.203 37.7 239.902 32.9 244.874C28.7 249.244 22.6 250.148 17.2 251.052C12.2 251.956 9.29996 256.476 6.09997 261.298C4.49997 263.859 2.69999 266.119 0.999992 268.379C0.999992 239.751 0.999992 211.123 0.999992 182.645C7.69999 191.385 14.7 190.631 21.7 183.549C22 183.248 22.3 182.947 22.6 182.947C31 185.659 37 176.317 44.1 172.852C45.3 172.249 46.7 172.098 48 172.098C54.7 172.098 61.3 171.797 68 172.249C70 172.4 72 174.208 74.1 174.66C76.2 175.112 78.4 174.81 80.5 174.81C81.7 174.81 83.8 173.756 84 174.208C86.8 182.495 95.3 180.385 96.9 191.535C97.5 195.302 102.7 196.658 102.6 203.137C102.6 203.589 104.1 204.644 104.6 204.343C105.2 204.041 105.8 202.384 105.7 201.48C105.3 198.617 104.6 195.754 103.9 193.042C103 189.727 102.3 186.262 101 183.248C100.3 181.591 98.7 180.988 97.8 179.481C96.9 178.125 96.4 176.317 95.7 174.66C96.9 174.509 98.2 173.756 99.3 174.208C104.2 176.468 108.2 180.536 108.4 190.029C108.9 189.727 109.4 189.577 110 189.275C110.7 184.303 111.4 179.481 112 174.509C114.5 197.713 113.2 248.641 110.9 250.6C111.4 254.216 112.1 257.531 112.8 260.996Z" fill="#5B4864"/>
<path d="M50.0998 725.755C49.7998 725.755 49.3998 725.755 49.0998 725.755C50.0998 721.084 48.1998 720.331 45.6998 719.578C40.0998 717.92 37.4998 713.551 36.9998 703.003C32.6998 714.907 29.5998 728.317 19.2998 718.221C19.2998 717.769 19.2998 716.865 19.4998 716.865C27.1998 714.605 31.5998 705.715 36.1998 697.428C39.1998 692.155 42.9998 692.305 47.1998 692.757C49.0998 692.908 51.0998 691.401 52.9998 690.799C51.7998 688.538 50.6998 686.278 49.7998 684.621C52.1998 681.909 54.9998 678.293 58.0998 675.43C58.6998 674.978 61.0998 677.087 61.4998 678.745C63.0998 684.47 64.6998 689.141 68.8998 691.853C71.2998 693.511 74.7998 697.73 72.1998 702.551C70.3998 705.866 66.6998 706.619 63.3998 708.88C64.1998 703.455 64.6998 700.291 65.1998 697.127C63.5998 697.127 61.5998 696.374 60.5998 697.579C59.4998 698.935 59.2998 701.949 58.4998 705.263C57.8998 704.661 56.3998 704.058 55.7998 702.551C53.8998 697.278 51.0998 698.182 48.4998 699.99C46.6998 701.195 44.8998 703.606 43.9998 706.167C43.6998 707.071 45.8998 710.236 47.0998 712.044C47.8998 713.249 48.9998 714.153 49.9998 715.057C53.4998 718.372 54.0998 721.988 50.0998 725.755Z" fill="#E2CEB9"/>
<path d="M38.0999 620.132C51.6999 641.227 64.9999 661.568 78.1999 682.06C77.7999 683.114 77.2999 684.169 76.8999 685.374C74.9999 684.169 72.6999 683.566 71.2999 681.608C64.8999 671.964 58.7999 661.568 52.3999 651.925C48.0999 645.446 43.1999 639.871 38.5999 633.693C35.2999 629.323 35.4999 624.803 38.0999 620.132Z" fill="#E2CEB9"/>
<path d="M84.6 661.116C83.2 658.404 81.4 654.637 79 649.816C83.2 649.062 86.4 648.459 90.7 647.706C88.5 644.693 87.3 642.884 86.1 641.076C86.1 640.474 86.1 639.72 86.2 639.118C88.5 639.118 91.2 637.912 92.9 639.57C94.1 640.624 94.3 645.747 93.8 648.459C93.3 651.021 91.3 652.829 89.8 654.788C88.3 656.897 86.7 658.555 84.6 661.116Z" fill="#E3D0BB"/>
<path d="M90.1 454.541C97.9 460.719 97.9 461.774 88.7 470.814C88.5 467.499 88.3 464.787 88.1 462.075C87.4 461.02 86.8 460.116 86.1 459.061C83.7 458.459 80.6 459.061 78.9 456.952C73 450.021 73.1 449.268 76.1 437.967C77.4 435.104 78.6 432.392 76 429.68C75.8 429.379 75.6 428.776 75.5 428.474C75.4 425.009 75.8 421.393 75.3 418.229C74.8 415.366 73.3 412.804 72 409.64C78.9 412.202 81.5 417.325 82.3 426.516C82.7 431.337 83.5 437.515 85.7 440.378C88.7 444.145 87.4 446.254 86.2 449.87C83.9 449.268 81.7 441.885 79.1 451.829C83 452.582 86.5 453.486 90.1 454.541Z" fill="#6F5D71"/>
<path d="M76.0999 437.967C73.0999 449.418 72.9999 450.171 78.8999 456.952C80.5999 458.911 83.5999 458.308 86.0999 459.061C79.6999 464.335 76.2999 454.39 71.3999 452.281C71.1999 452.13 71.4999 449.117 71.5999 447.459C72.0999 447.459 72.4999 447.309 72.9999 447.309C72.1999 445.501 71.3999 443.843 69.8999 440.679C72.3999 439.474 74.1999 438.72 76.0999 437.967Z" fill="#6A566F"/>
<path d="M63.1 528.371C61.1 528.07 59 527.618 57 527.317C57.1 525.961 57.2 523.701 57.4 523.701C59.3 523.399 61.3 523.55 63.3 523.55C63.2 525.057 63.1 526.714 63.1 528.371Z" fill="#F4E6C9"/>
<path d="M102.2 399.093C103.6 404.517 104.9 409.791 106.3 415.064C103.7 416.571 95.0999 413.105 94.2999 409.791C93.9999 408.435 94.6999 405.572 95.4999 404.668C97.2999 402.709 99.4999 401.353 102.2 399.093Z" fill="#69556D"/>
<path d="M93 512.572C96.4607 511.444 99.9213 510.128 103.506 509C103.629 509.752 103.876 510.504 104 511.256C100.787 514.264 98.0674 519.153 93.4944 515.956C93.2472 514.828 93.1236 513.7 93 512.572Z" fill="#5B4864"/>
<path d="M111.773 24.0136C112.373 22.9589 112.973 22.0548 113.673 21.0001C113.773 54.9019 113.873 88.8038 113.873 122.555C113.873 137.321 113.773 152.087 113.673 167.004C111.973 166.703 110.173 166.552 107.273 166.1C109.373 163.237 110.573 161.58 111.873 159.772C111.673 159.169 111.573 158.566 111.373 158.114C109.273 159.47 107.173 160.826 104.873 162.333C100.173 156.155 99.9734 153.594 103.073 145.608C103.873 143.649 104.073 141.088 104.773 137.622C107.273 143.649 109.373 148.772 112.173 155.854C112.173 148.622 112.173 143.499 112.173 140.033C110.173 137.321 107.373 135.061 107.473 132.951C107.573 127.377 107.773 120.445 109.973 116.829C113.773 110.652 112.873 104.775 112.373 98.1456C112.073 95.1321 112.173 92.1186 112.273 88.9544C112.373 86.5436 112.873 83.9821 112.873 81.5713C112.973 65.2985 112.973 49.0257 112.873 32.7528C112.673 29.7393 112.073 26.8764 111.773 24.0136Z" fill="#E1CDB9"/>
<path d="M76.4694 568.681C75.3101 567.31 74.0423 566.379 72.5557 565.888C71.9495 565.505 71.0146 565.508 69.8607 565.897L37.8255 575.566L37.8329 577.986C37.8493 583.266 39.56 585.13 43.08 585.119C46.655 585.108 48.4089 583.123 48.2921 580.923C48.2337 579.823 47.7358 578.89 47.0746 578.507C49.3291 578.335 53.5624 577.772 55.8124 576.17C54.9932 578.043 55.3269 579.252 55.331 580.572C55.3526 587.557 50.8583 592.63 43.1033 592.654C35.5133 592.678 31.4286 587.905 31.3924 576.191L31.3849 573.771C31.3795 572.011 30.935 570.582 28.9518 569.543L29.0066 569.488C31.2082 569.976 35.7686 568.477 37.8018 567.921L63.9058 561.075L37.9264 554.83C35.8349 554.342 34.2395 554.237 31.605 556.005L31.4562 543.465C33.33 544.669 35.7495 544.497 37.8927 543.94L63.2281 537.537L32.6232 529.546C31.8526 529.329 28.2207 528.735 27.6724 529.287L27.6174 529.287C28.2188 528.13 28.5444 526.699 28.5391 524.994C28.5315 522.519 27.8633 519.881 26.535 517.19L26.59 517.19C29.5692 520.151 31.4977 521.3 35.5716 522.552L71.1901 533.332C72.126 533.604 72.8961 533.657 73.4456 533.49C74.4898 533.212 75.0941 532.99 75.3137 532.88L75.3687 532.879C74.7673 534.036 74.4417 535.467 74.447 537.172C74.4555 539.922 75.124 542.67 76.4523 545.361L76.3973 545.361C75.2386 544.155 73.9157 543.224 72.4837 542.568C71.8228 542.295 70.9428 542.298 69.7887 542.577L44.1797 549.421L71.2618 556.542C72.2527 556.814 73.0229 556.867 73.5173 556.7C74.5618 556.532 75.1661 556.31 75.3855 556.089L75.4405 556.089C74.839 557.246 74.514 558.842 74.5203 560.877C74.5279 563.352 75.1961 565.99 76.5244 568.681L76.4694 568.681ZM40.5755 486.57C40.5719 485.415 40.6969 472.489 39.9797 471.776L39.9796 471.721C40.8052 471.939 42.1256 472.045 43.8306 472.04C45.3156 472.035 47.02 471.865 48.8888 471.474L48.889 471.529C47.5154 471.973 46.2574 474.232 46.2643 476.487L46.2421 487.102L51.7421 487.085L51.7161 478.67C51.7091 476.415 51.2647 474.987 50.8235 474.603L50.8234 474.548C51.5389 474.711 52.6942 474.817 54.2892 474.812C55.9392 474.807 57.0938 474.694 57.7533 474.527L57.7535 474.582C57.3147 474.968 56.9341 476.399 56.9411 478.654L56.9671 487.069L62.2471 487.053L62.1582 476.108C62.1547 474.953 62.0411 473.798 61.8175 472.644C61.649 471.49 60.8211 470.557 59.3342 469.957L59.334 469.902C61.3152 470.281 63.1857 470.44 64.8907 470.434C66.5957 470.429 67.7504 470.316 68.2997 470.094L68.2998 470.149C67.8612 470.59 67.8656 472.02 67.8726 474.275L67.9246 491.105C67.9292 492.59 68.0433 493.91 68.2667 495.009L68.2117 495.009C67.7703 494.571 66.3391 494.19 64.0841 494.197L44.2842 494.258C42.0292 494.265 40.6004 494.655 40.1618 495.096L40.1068 495.096C40.596 493.225 40.5821 488.715 40.5755 486.57ZM61.5513 422.094C61.5477 420.939 61.4342 419.784 61.1556 418.63C60.877 417.476 60.1041 416.543 58.7273 415.942L58.7271 415.887C60.7083 416.266 62.5788 416.425 64.2838 416.42C65.9888 416.415 67.3084 416.301 68.1328 416.078L68.1329 416.133C67.6943 416.575 67.6987 418.005 67.7057 420.26L67.7568 436.814C67.7614 438.299 67.8755 439.619 68.0989 440.718L68.0439 440.719C67.6025 440.28 66.1714 439.899 63.9164 439.906L44.1165 439.968C41.8615 439.974 40.4327 440.364 39.994 440.805L39.939 440.805C40.1556 439.705 40.2607 438.109 40.2544 436.074C40.2481 434.039 40.1339 432.665 39.9117 431.95L39.9667 431.95C40.408 432.389 41.8394 432.825 44.0944 432.818L61.6393 432.763L61.5513 422.094ZM58.692 368.94C56.1089 369.553 52.8147 371.434 51.7179 372.482L51.6628 372.427C51.8266 372.042 51.7142 371.272 51.4922 370.613C50.8817 368.854 49.6697 368.198 48.4047 368.202C46.2047 368.209 45.3308 370.192 45.3402 373.217C45.3568 378.607 48.1708 381.513 53.8908 381.495C59.7208 381.477 62.2963 378.389 62.2764 371.954C62.2682 369.314 61.8207 366.896 60.8251 365.084C60.4379 364.37 59.6661 363.767 58.8954 363.55L58.8952 363.495C61.2583 362.882 63.7827 361.06 65.5381 359.569L65.5933 359.624C65.2139 361.44 68.0844 364.841 68.108 372.486C68.1398 382.771 63.0429 388.617 53.9679 388.645C44.8929 388.673 39.5408 383.135 39.5102 373.235C39.4864 365.535 42.6626 361.07 48.7126 361.051C52.2326 361.04 54.2172 362.519 57.3666 367.184C57.5876 367.514 58.2517 368.832 58.6919 368.885L58.692 368.94ZM53.7943 332.474C44.7194 332.502 39.3672 326.964 39.338 317.504C39.3087 308.044 44.6267 302.528 53.7017 302.5C62.6116 302.472 67.9084 307.901 67.9377 317.361C67.9669 326.821 62.6493 332.447 53.7943 332.474ZM53.7172 325.325C59.3822 325.307 62.1232 322.384 62.1077 317.379C62.0926 312.484 59.3338 309.632 53.6688 309.65C47.8938 309.668 45.1527 312.536 45.1678 317.431C45.1833 322.436 47.9972 325.342 53.7172 325.325ZM67.1373 254.142C67.1402 255.077 67.2533 256.067 67.477 257.276C66.5972 257.334 65.2232 257.668 63.3552 258.334L48.741 263.439L63.3813 266.749C65.4176 267.182 67.0679 267.287 67.5066 266.846L67.5616 266.846C67.3438 267.561 67.2382 268.992 67.2448 271.137C67.2509 273.117 67.3657 274.656 67.5891 275.756L67.5341 275.756C67.0927 275.317 65.385 274.443 63.4035 273.954L39.7343 267.757L39.7111 260.277L56.4124 254.175L39.6737 248.177L39.6506 240.697L63.2811 234.354C65.2596 233.853 66.9619 232.967 67.4005 232.526L67.4555 232.526C67.2389 233.627 67.1337 235.167 67.1398 237.147C67.1464 239.292 67.2608 240.722 67.483 241.436L67.428 241.436C66.9867 240.997 65.337 241.113 63.3034 241.559L48.6838 244.959L63.3294 249.974C65.2014 250.628 66.5775 250.954 67.4576 251.006C67.2414 252.217 67.1344 253.207 67.1373 254.142ZM39.6785 196.317C39.6749 195.162 39.8 182.237 39.0828 181.524L39.0826 181.469C39.9083 181.686 41.2286 181.792 42.9336 181.787C44.4186 181.782 46.1231 181.612 47.9919 181.221L47.992 181.276C46.6184 181.721 45.3604 183.98 45.3673 186.235L45.3452 196.85L50.8451 196.833L50.8191 188.418C50.8122 186.163 50.3677 184.734 49.9265 184.35L49.9264 184.295C50.6419 184.458 51.7972 184.565 53.3922 184.56C55.0422 184.555 56.1969 184.441 56.8563 184.274L56.8565 184.329C56.4177 184.715 56.0371 186.147 56.0441 188.402L56.0701 196.817L61.3501 196.8L61.2613 185.855C61.2577 184.7 61.1441 183.546 60.9205 182.391C60.752 181.237 59.9241 180.305 58.4372 179.704L58.4371 179.649C60.4182 180.028 62.2887 180.187 63.9937 180.182C65.6987 180.177 66.8534 180.063 67.4027 179.841L67.4029 179.896C66.9642 180.338 66.9686 181.768 66.9756 184.023L67.0276 200.853C67.0322 202.338 67.1463 203.657 67.3697 204.757L67.3147 204.757C66.8733 204.318 65.4422 203.938 63.1872 203.945L43.3873 204.006C41.1323 204.013 39.7035 204.402 39.2648 204.844L39.2098 204.844C39.699 202.972 39.6851 198.462 39.6785 196.317Z" fill="#FFECD3"/>
</svg>
