<svg width="509" height="83" viewBox="0 0 509 83" fill="none" xmlns="http://www.w3.org/2000/svg">
<g filter="url(#filter0_d_1016_1411)">
<rect width="503.003" height="78.9552" rx="10" transform="matrix(1 0 -0.0245106 0.9997 5.93506 0)" fill="#8D314D"/>
</g>
<rect x="-0.487745" y="-0.49985" width="487.679" height="68.4261" rx="10.5" transform="matrix(1 0 -0.0245106 0.9997 14.4223 5.43198)" fill="#8D314D" stroke="#F9F0E0"/>
<path d="M60.166 52.8773C58.174 52.8773 56.326 52.5533 54.622 51.9053C52.942 51.2573 51.478 50.3453 50.23 49.1693C49.006 47.9933 48.046 46.6133 47.35 45.0293C46.678 43.4453 46.342 41.7173 46.342 39.8453C46.342 37.9733 46.678 36.2453 47.35 34.6613C48.046 33.0773 49.018 31.6973 50.266 30.5213C51.514 29.3453 52.978 28.4333 54.658 27.7853C56.338 27.1373 58.162 26.8133 60.13 26.8133C62.122 26.8133 63.946 27.1373 65.602 27.7853C67.282 28.4333 68.734 29.3453 69.958 30.5213C71.206 31.6973 72.178 33.0773 72.874 34.6613C73.57 36.2213 73.918 37.9493 73.918 39.8453C73.918 41.7173 73.57 43.4573 72.874 45.0653C72.178 46.6493 71.206 48.0293 69.958 49.2053C68.734 50.3573 67.282 51.2573 65.602 51.9053C63.946 52.5533 62.134 52.8773 60.166 52.8773ZM60.13 47.9093C61.258 47.9093 62.29 47.7173 63.226 47.3333C64.186 46.9493 65.026 46.3973 65.746 45.6773C66.466 44.9573 67.018 44.1053 67.402 43.1213C67.81 42.1373 68.014 41.0453 68.014 39.8453C68.014 38.6453 67.81 37.5533 67.402 36.5693C67.018 35.5853 66.466 34.7333 65.746 34.0133C65.05 33.2933 64.222 32.7413 63.262 32.3573C62.302 31.9733 61.258 31.7813 60.13 31.7813C59.002 31.7813 57.958 31.9733 56.998 32.3573C56.062 32.7413 55.234 33.2933 54.514 34.0133C53.794 34.7333 53.23 35.5853 52.822 36.5693C52.438 37.5533 52.246 38.6453 52.246 39.8453C52.246 41.0213 52.438 42.1133 52.822 43.1213C53.23 44.1053 53.782 44.9573 54.478 45.6773C55.198 46.3973 56.038 46.9493 56.998 47.3333C57.958 47.7173 59.002 47.9093 60.13 47.9093ZM86.077 52.7333C84.469 52.7333 83.029 52.4213 81.757 51.7973C80.509 51.1733 79.537 50.2253 78.841 48.9533C78.145 47.6573 77.797 46.0133 77.797 44.0213V33.0773H83.413V43.1933C83.413 44.8013 83.749 45.9893 84.421 46.7573C85.117 47.5013 86.089 47.8733 87.337 47.8733C88.201 47.8733 88.969 47.6933 89.641 47.3333C90.313 46.9493 90.841 46.3733 91.225 45.6053C91.609 44.8133 91.801 43.8293 91.801 42.6533V33.0773H97.417V52.4453H92.089V47.1173L93.061 48.6653C92.413 50.0093 91.453 51.0293 90.181 51.7253C88.933 52.3973 87.565 52.7333 86.077 52.7333ZM102.62 52.4453V33.0773H107.984V38.5493L107.228 36.9653C107.804 35.5973 108.728 34.5653 110 33.8693C111.272 33.1493 112.82 32.7893 114.644 32.7893V37.9733C114.404 37.9493 114.188 37.9373 113.996 37.9373C113.804 37.9133 113.6 37.9013 113.384 37.9013C111.848 37.9013 110.6 38.3453 109.64 39.2333C108.704 40.0973 108.236 41.4533 108.236 43.3013V52.4453H102.62ZM125.403 52.4453L136.635 27.2453H142.395L153.663 52.4453H147.543L138.327 30.1973H140.631L131.379 52.4453H125.403ZM131.019 47.0453L132.567 42.6173H145.527L147.111 47.0453H131.019ZM165.066 52.7333C162.978 52.7333 161.118 52.3133 159.486 51.4733C157.854 50.6093 156.57 49.4213 155.634 47.9093C154.722 46.3973 154.266 44.6813 154.266 42.7613C154.266 40.8173 154.722 39.1013 155.634 37.6133C156.57 36.1013 157.854 34.9253 159.486 34.0853C161.118 33.2213 162.978 32.7893 165.066 32.7893C167.106 32.7893 168.882 33.2213 170.394 34.0853C171.906 34.9253 173.022 36.1373 173.742 37.7213L169.386 40.0613C168.882 39.1493 168.246 38.4773 167.478 38.0453C166.734 37.6133 165.918 37.3973 165.03 37.3973C164.07 37.3973 163.206 37.6133 162.438 38.0453C161.67 38.4773 161.058 39.0893 160.602 39.8813C160.17 40.6733 159.954 41.6333 159.954 42.7613C159.954 43.8893 160.17 44.8493 160.602 45.6413C161.058 46.4333 161.67 47.0453 162.438 47.4773C163.206 47.9093 164.07 48.1253 165.03 48.1253C165.918 48.1253 166.734 47.9213 167.478 47.5133C168.246 47.0813 168.882 46.3973 169.386 45.4613L173.742 47.8373C173.022 49.3973 171.906 50.6093 170.394 51.4733C168.882 52.3133 167.106 52.7333 165.066 52.7333ZM186.089 52.7333C184.001 52.7333 182.141 52.3133 180.509 51.4733C178.877 50.6093 177.593 49.4213 176.657 47.9093C175.745 46.3973 175.289 44.6813 175.289 42.7613C175.289 40.8173 175.745 39.1013 176.657 37.6133C177.593 36.1013 178.877 34.9253 180.509 34.0853C182.141 33.2213 184.001 32.7893 186.089 32.7893C188.129 32.7893 189.905 33.2213 191.417 34.0853C192.929 34.9253 194.045 36.1373 194.765 37.7213L190.409 40.0613C189.905 39.1493 189.269 38.4773 188.501 38.0453C187.757 37.6133 186.941 37.3973 186.053 37.3973C185.093 37.3973 184.229 37.6133 183.461 38.0453C182.693 38.4773 182.081 39.0893 181.625 39.8813C181.193 40.6733 180.977 41.6333 180.977 42.7613C180.977 43.8893 181.193 44.8493 181.625 45.6413C182.081 46.4333 182.693 47.0453 183.461 47.4773C184.229 47.9093 185.093 48.1253 186.053 48.1253C186.941 48.1253 187.757 47.9213 188.501 47.5133C189.269 47.0813 189.905 46.3973 190.409 45.4613L194.765 47.8373C194.045 49.3973 192.929 50.6093 191.417 51.4733C189.905 52.3133 188.129 52.7333 186.089 52.7333ZM206.969 52.7333C204.905 52.7333 203.069 52.3013 201.461 51.4373C199.877 50.5733 198.617 49.3973 197.681 47.9093C196.769 46.3973 196.313 44.6813 196.313 42.7613C196.313 40.8173 196.769 39.1013 197.681 37.6133C198.617 36.1013 199.877 34.9253 201.461 34.0853C203.069 33.2213 204.905 32.7893 206.969 32.7893C209.009 32.7893 210.833 33.2213 212.441 34.0853C214.049 34.9253 215.309 36.0893 216.221 37.5773C217.133 39.0653 217.589 40.7933 217.589 42.7613C217.589 44.6813 217.133 46.3973 216.221 47.9093C215.309 49.3973 214.049 50.5733 212.441 51.4373C210.833 52.3013 209.009 52.7333 206.969 52.7333ZM206.969 48.1253C207.905 48.1253 208.745 47.9093 209.489 47.4773C210.233 47.0453 210.821 46.4333 211.253 45.6413C211.685 44.8253 211.901 43.8653 211.901 42.7613C211.901 41.6333 211.685 40.6733 211.253 39.8813C210.821 39.0893 210.233 38.4773 209.489 38.0453C208.745 37.6133 207.905 37.3973 206.969 37.3973C206.033 37.3973 205.193 37.6133 204.449 38.0453C203.705 38.4773 203.105 39.0893 202.649 39.8813C202.217 40.6733 202.001 41.6333 202.001 42.7613C202.001 43.8653 202.217 44.8253 202.649 45.6413C203.105 46.4333 203.705 47.0453 204.449 47.4773C205.193 47.9093 206.033 48.1253 206.969 48.1253ZM246.146 32.7893C247.682 32.7893 249.038 33.1013 250.214 33.7253C251.414 34.3253 252.35 35.2613 253.022 36.5333C253.718 37.7813 254.066 39.3893 254.066 41.3573V52.4453H248.45V42.2213C248.45 40.6613 248.126 39.5093 247.478 38.7653C246.83 38.0213 245.918 37.6493 244.742 37.6493C243.926 37.6493 243.194 37.8413 242.546 38.2253C241.898 38.5853 241.394 39.1373 241.034 39.8813C240.674 40.6253 240.494 41.5733 240.494 42.7253V52.4453H234.878V42.2213C234.878 40.6613 234.554 39.5093 233.906 38.7653C233.282 38.0213 232.382 37.6493 231.206 37.6493C230.39 37.6493 229.658 37.8413 229.01 38.2253C228.362 38.5853 227.858 39.1373 227.498 39.8813C227.138 40.6253 226.958 41.5733 226.958 42.7253V52.4453H221.342V33.0773H226.706V38.3693L225.698 36.8213C226.37 35.5013 227.318 34.5053 228.542 33.8333C229.79 33.1373 231.206 32.7893 232.79 32.7893C234.566 32.7893 236.114 33.2453 237.434 34.1573C238.778 35.0453 239.666 36.4133 240.098 38.2613L238.118 37.7213C238.766 36.2093 239.798 35.0093 241.214 34.1213C242.654 33.2333 244.298 32.7893 246.146 32.7893ZM270.548 52.7333C268.916 52.7333 267.488 52.3733 266.264 51.6533C265.04 50.9333 264.08 49.8413 263.384 48.3773C262.712 46.8893 262.376 45.0173 262.376 42.7613C262.376 40.4813 262.7 38.6093 263.348 37.1453C263.996 35.6813 264.932 34.5893 266.156 33.8693C267.38 33.1493 268.844 32.7893 270.548 32.7893C272.372 32.7893 274.004 33.2093 275.444 34.0493C276.908 34.8653 278.06 36.0173 278.9 37.5053C279.764 38.9933 280.196 40.7453 280.196 42.7613C280.196 44.8013 279.764 46.5653 278.9 48.0533C278.06 49.5413 276.908 50.6933 275.444 51.5093C274.004 52.3253 272.372 52.7333 270.548 52.7333ZM259.1 59.4293V33.0773H264.464V37.0373L264.356 42.7973L264.716 48.5213V59.4293H259.1ZM269.576 48.1253C270.512 48.1253 271.34 47.9093 272.06 47.4773C272.804 47.0453 273.392 46.4333 273.824 45.6413C274.28 44.8253 274.508 43.8653 274.508 42.7613C274.508 41.6333 274.28 40.6733 273.824 39.8813C273.392 39.0893 272.804 38.4773 272.06 38.0453C271.34 37.6133 270.512 37.3973 269.576 37.3973C268.64 37.3973 267.8 37.6133 267.056 38.0453C266.312 38.4773 265.724 39.0893 265.292 39.8813C264.86 40.6733 264.644 41.6333 264.644 42.7613C264.644 43.8653 264.86 44.8253 265.292 45.6413C265.724 46.4333 266.312 47.0453 267.056 47.4773C267.8 47.9093 268.64 48.1253 269.576 48.1253ZM283.956 52.4453V25.7333H289.572V52.4453H283.956ZM294.784 52.4453V33.0773H300.4V52.4453H294.784ZM297.592 30.3773C296.56 30.3773 295.72 30.0773 295.072 29.4773C294.424 28.8773 294.1 28.1333 294.1 27.2453C294.1 26.3573 294.424 25.6133 295.072 25.0133C295.72 24.4133 296.56 24.1133 297.592 24.1133C298.624 24.1133 299.464 24.4013 300.112 24.9773C300.76 25.5293 301.084 26.2493 301.084 27.1373C301.084 28.0733 300.76 28.8533 300.112 29.4773C299.488 30.0773 298.648 30.3773 297.592 30.3773ZM312.128 52.7333C310.472 52.7333 308.876 52.5413 307.34 52.1573C305.828 51.7493 304.628 51.2453 303.74 50.6453L305.612 46.6133C306.5 47.1653 307.544 47.6213 308.744 47.9813C309.968 48.3173 311.168 48.4853 312.344 48.4853C313.64 48.4853 314.552 48.3293 315.08 48.0173C315.632 47.7053 315.908 47.2733 315.908 46.7213C315.908 46.2653 315.692 45.9293 315.26 45.7133C314.852 45.4733 314.3 45.2933 313.604 45.1733C312.908 45.0533 312.14 44.9333 311.3 44.8133C310.484 44.6933 309.656 44.5373 308.816 44.3453C307.976 44.1293 307.208 43.8173 306.512 43.4093C305.816 43.0013 305.252 42.4493 304.82 41.7533C304.412 41.0573 304.208 40.1573 304.208 39.0533C304.208 37.8293 304.556 36.7493 305.252 35.8133C305.972 34.8773 307.004 34.1453 308.348 33.6173C309.692 33.0653 311.3 32.7893 313.172 32.7893C314.492 32.7893 315.836 32.9333 317.204 33.2213C318.572 33.5093 319.712 33.9293 320.624 34.4813L318.752 38.4773C317.816 37.9253 316.868 37.5533 315.908 37.3613C314.972 37.1453 314.06 37.0373 313.172 37.0373C311.924 37.0373 311.012 37.2053 310.436 37.5413C309.86 37.8773 309.572 38.3093 309.572 38.8373C309.572 39.3173 309.776 39.6773 310.184 39.9173C310.616 40.1573 311.18 40.3493 311.876 40.4933C312.572 40.6373 313.328 40.7693 314.144 40.8893C314.984 40.9853 315.824 41.1413 316.664 41.3573C317.504 41.5733 318.26 41.8853 318.932 42.2933C319.628 42.6773 320.192 43.2173 320.624 43.9133C321.056 44.5853 321.272 45.4733 321.272 46.5773C321.272 47.7773 320.912 48.8453 320.192 49.7813C319.472 50.6933 318.428 51.4133 317.06 51.9413C315.716 52.4693 314.072 52.7333 312.128 52.7333ZM336.509 32.7893C338.045 32.7893 339.413 33.1013 340.613 33.7253C341.837 34.3253 342.797 35.2613 343.493 36.5333C344.189 37.7813 344.537 39.3893 344.537 41.3573V52.4453H338.921V42.2213C338.921 40.6613 338.573 39.5093 337.877 38.7653C337.205 38.0213 336.245 37.6493 334.997 37.6493C334.109 37.6493 333.305 37.8413 332.585 38.2253C331.889 38.5853 331.337 39.1493 330.929 39.9173C330.545 40.6853 330.353 41.6693 330.353 42.8693V52.4453H324.737V25.7333H330.353V38.4413L329.093 36.8213C329.789 35.5253 330.785 34.5293 332.081 33.8333C333.377 33.1373 334.853 32.7893 336.509 32.7893ZM374.432 32.7893C375.968 32.7893 377.324 33.1013 378.5 33.7253C379.7 34.3253 380.636 35.2613 381.308 36.5333C382.004 37.7813 382.352 39.3893 382.352 41.3573V52.4453H376.736V42.2213C376.736 40.6613 376.412 39.5093 375.764 38.7653C375.116 38.0213 374.204 37.6493 373.028 37.6493C372.212 37.6493 371.48 37.8413 370.832 38.2253C370.184 38.5853 369.68 39.1373 369.32 39.8813C368.96 40.6253 368.78 41.5733 368.78 42.7253V52.4453H363.164V42.2213C363.164 40.6613 362.84 39.5093 362.192 38.7653C361.568 38.0213 360.668 37.6493 359.492 37.6493C358.676 37.6493 357.944 37.8413 357.296 38.2253C356.648 38.5853 356.144 39.1373 355.784 39.8813C355.424 40.6253 355.244 41.5733 355.244 42.7253V52.4453H349.628V33.0773H354.992V38.3693L353.984 36.8213C354.656 35.5013 355.604 34.5053 356.828 33.8333C358.076 33.1373 359.492 32.7893 361.076 32.7893C362.852 32.7893 364.4 33.2453 365.72 34.1573C367.064 35.0453 367.952 36.4133 368.384 38.2613L366.404 37.7213C367.052 36.2093 368.084 35.0093 369.5 34.1213C370.94 33.2333 372.584 32.7893 374.432 32.7893ZM397.138 52.7333C394.93 52.7333 392.986 52.3013 391.306 51.4373C389.65 50.5733 388.366 49.3973 387.454 47.9093C386.542 46.3973 386.086 44.6813 386.086 42.7613C386.086 40.8173 386.53 39.1013 387.418 37.6133C388.33 36.1013 389.566 34.9253 391.126 34.0853C392.686 33.2213 394.45 32.7893 396.418 32.7893C398.314 32.7893 400.018 33.1973 401.53 34.0133C403.066 34.8053 404.278 35.9573 405.166 37.4693C406.054 38.9573 406.498 40.7453 406.498 42.8333C406.498 43.0493 406.486 43.3013 406.462 43.5893C406.438 43.8533 406.414 44.1053 406.39 44.3453H390.658V41.0693H403.438L401.278 42.0413C401.278 41.0333 401.074 40.1573 400.666 39.4133C400.258 38.6693 399.694 38.0933 398.974 37.6853C398.254 37.2533 397.414 37.0373 396.454 37.0373C395.494 37.0373 394.642 37.2533 393.898 37.6853C393.178 38.0933 392.614 38.6813 392.206 39.4493C391.798 40.1933 391.594 41.0813 391.594 42.1133V42.9773C391.594 44.0333 391.822 44.9693 392.278 45.7853C392.758 46.5773 393.418 47.1893 394.258 47.6213C395.122 48.0293 396.13 48.2333 397.282 48.2333C398.314 48.2333 399.214 48.0773 399.982 47.7653C400.774 47.4533 401.494 46.9853 402.142 46.3613L405.13 49.6013C404.242 50.6093 403.126 51.3893 401.782 51.9413C400.438 52.4693 398.89 52.7333 397.138 52.7333ZM422.009 32.7893C423.545 32.7893 424.913 33.1013 426.113 33.7253C427.337 34.3253 428.297 35.2613 428.993 36.5333C429.689 37.7813 430.037 39.3893 430.037 41.3573V52.4453H424.421V42.2213C424.421 40.6613 424.073 39.5093 423.377 38.7653C422.705 38.0213 421.745 37.6493 420.497 37.6493C419.609 37.6493 418.805 37.8413 418.085 38.2253C417.389 38.5853 416.837 39.1493 416.429 39.9173C416.045 40.6853 415.853 41.6693 415.853 42.8693V52.4453H410.237V33.0773H415.601V38.4413L414.593 36.8213C415.289 35.5253 416.285 34.5293 417.581 33.8333C418.877 33.1373 420.353 32.7893 422.009 32.7893ZM443.048 52.7333C440.768 52.7333 438.992 52.1573 437.72 51.0053C436.448 49.8293 435.812 48.0893 435.812 45.7853V28.7933H441.428V45.7133C441.428 46.5293 441.644 47.1653 442.076 47.6213C442.508 48.0533 443.096 48.2693 443.84 48.2693C444.728 48.2693 445.484 48.0293 446.108 47.5493L447.62 51.5093C447.044 51.9173 446.348 52.2293 445.532 52.4453C444.74 52.6373 443.912 52.7333 443.048 52.7333ZM432.824 37.8293V33.5093H446.252V37.8293H432.824ZM457.288 52.7333C455.632 52.7333 454.036 52.5413 452.5 52.1573C450.988 51.7493 449.788 51.2453 448.9 50.6453L450.772 46.6133C451.66 47.1653 452.704 47.6213 453.904 47.9813C455.128 48.3173 456.328 48.4853 457.504 48.4853C458.8 48.4853 459.712 48.3293 460.24 48.0173C460.792 47.7053 461.068 47.2733 461.068 46.7213C461.068 46.2653 460.852 45.9293 460.42 45.7133C460.012 45.4733 459.46 45.2933 458.764 45.1733C458.068 45.0533 457.3 44.9333 456.46 44.8133C455.644 44.6933 454.816 44.5373 453.976 44.3453C453.136 44.1293 452.368 43.8173 451.672 43.4093C450.976 43.0013 450.412 42.4493 449.98 41.7533C449.572 41.0573 449.368 40.1573 449.368 39.0533C449.368 37.8293 449.716 36.7493 450.412 35.8133C451.132 34.8773 452.164 34.1453 453.508 33.6173C454.852 33.0653 456.46 32.7893 458.332 32.7893C459.652 32.7893 460.996 32.9333 462.364 33.2213C463.732 33.5093 464.872 33.9293 465.784 34.4813L463.912 38.4773C462.976 37.9253 462.028 37.5533 461.068 37.3613C460.132 37.1453 459.22 37.0373 458.332 37.0373C457.084 37.0373 456.172 37.2053 455.596 37.5413C455.02 37.8773 454.732 38.3093 454.732 38.8373C454.732 39.3173 454.936 39.6773 455.344 39.9173C455.776 40.1573 456.34 40.3493 457.036 40.4933C457.732 40.6373 458.488 40.7693 459.304 40.8893C460.144 40.9853 460.984 41.1413 461.824 41.3573C462.664 41.5733 463.42 41.8853 464.092 42.2933C464.788 42.6773 465.352 43.2173 465.784 43.9133C466.216 44.5853 466.432 45.4733 466.432 46.5773C466.432 47.7773 466.072 48.8453 465.352 49.7813C464.632 50.6933 463.588 51.4133 462.22 51.9413C460.876 52.4693 459.232 52.7333 457.288 52.7333Z" fill="#F9F0E0"/>
<defs>
<filter id="filter0_d_1016_1411" x="0.241699" y="0" width="508.454" height="82.9316" filterUnits="userSpaceOnUse" color-interpolation-filters="sRGB">
<feFlood flood-opacity="0" result="BackgroundImageFix"/>
<feColorMatrix in="SourceAlpha" type="matrix" values="0 0 0 0 0 0 0 0 0 0 0 0 0 0 0 0 0 0 127 0" result="hardAlpha"/>
<feOffset dx="-4" dy="4"/>
<feComposite in2="hardAlpha" operator="out"/>
<feColorMatrix type="matrix" values="0 0 0 0 0 0 0 0 0 0 0 0 0 0 0 0 0 0 1 0"/>
<feBlend mode="normal" in2="BackgroundImageFix" result="effect1_dropShadow_1016_1411"/>
<feBlend mode="normal" in="SourceGraphic" in2="effect1_dropShadow_1016_1411" result="shape"/>
</filter>
</defs>
</svg>
