<svg width="729" height="646" viewBox="0 0 729 646" fill="none" xmlns="http://www.w3.org/2000/svg">
<g filter="url(#filter0_d_1016_1222)">
<g clip-path="url(#clip0_1016_1222)">
<g filter="url(#filter1_dd_1016_1222)">
<path d="M360.732 500.458C345.029 498.217 328.967 496.156 312.905 493.557C305.547 492.392 304.56 490.241 305.637 483.07C307.432 470.702 302.676 464.16 290.921 460.216C282.397 457.348 274.052 453.315 266.066 449.103C261.131 446.503 257.631 446.055 253.952 450.716C251.171 454.211 248.03 457.617 244.441 460.037C242.467 461.381 238.249 461.74 236.455 460.575C211.42 443.725 190.692 422.484 174.092 397.299C171.58 393.445 171.759 389.771 175.707 386.544C178.399 384.393 180.912 381.973 183.334 379.553C188.539 374.355 188.449 371.128 185.398 364.317C180.822 354.01 176.694 343.434 172.926 332.769C171.221 327.929 169.067 325.061 163.504 325.42C159.466 325.688 155.339 324.792 151.301 325.061C145.558 325.509 143.404 322.641 142.597 317.443C138.649 290.734 138.918 264.026 143.853 237.407C144.661 233.016 147.173 231.134 151.48 231.223C155.339 231.313 159.197 231.313 163.055 231.582C169.337 232.03 172.836 228.893 175.079 223.336C179.745 211.506 184.77 199.765 189.346 187.934C190.064 186.142 189.526 183.094 188.359 181.481C185.309 177.448 181.54 173.953 178.31 170.099C175.438 166.783 175.169 163.377 177.681 159.523C193.653 135.234 214.381 115.786 238.339 99.5636C241.749 97.2334 244.8 97.5918 247.581 100.549C250.184 103.328 252.696 106.375 255.298 109.154C258.977 113.097 262.925 114.262 268.309 111.573C279.256 106.286 290.383 101.446 301.599 96.7852C305.817 95.0823 307.791 92.5728 307.521 88.1812C307.432 86.5679 307.521 84.9547 307.521 83.3414C307.521 68.4636 307.521 68.5532 321.878 66.0437C350.861 60.8454 379.665 61.3832 408.558 66.7607C415.018 67.9259 418.608 70.4354 417.621 77.4261C417.351 79.2186 417.71 81.1008 417.621 82.8933C417.351 93.9172 418.249 94.6342 428.747 98.4881C438.618 102.163 448.219 106.554 457.73 111.036C462.037 113.097 465.357 113.366 468.408 109.333C469.305 108.257 470.382 107.361 471.459 106.375C482.227 95.9786 483.573 95.7097 495.417 104.672C515.786 120.088 533.911 137.654 548.268 158.896C551.498 163.556 550.87 166.603 546.832 170.368C533.552 182.646 533.911 182.557 541.808 198.689C545.845 207.024 549.076 215.897 552.127 224.681C553.652 228.983 555.895 230.954 560.561 230.775C564.779 230.596 569.086 231.313 573.393 231.044C578.687 230.775 581.109 233.016 582.096 238.124C587.032 264.743 587.839 291.362 582.994 318.07C582.096 323.179 579.315 325.509 574.11 324.882C554.011 322.731 553.742 328.288 550.242 342.09C547.999 350.783 543.602 359.029 539.744 367.275C537.68 371.756 537.77 375.251 541.538 378.657C545.038 381.794 548.089 385.289 551.588 388.426C554.46 390.936 554.549 393.535 552.575 396.403C535.796 421.408 515.427 442.918 490.482 460.126C486.175 463.084 482.855 462.457 479.265 458.692C466.972 445.607 467.062 445.966 450.911 453.942C443.463 457.617 435.656 460.485 427.76 463.084C422.107 464.966 419.864 467.834 420.043 474.108C420.402 494.005 421.21 492.571 403.533 495.08C389.714 497.5 375.537 498.755 360.732 500.458ZM325.916 440.498C320.801 440.409 315.687 439.961 310.662 440.498C298.818 441.753 289.755 439.961 284.281 427.144C279.615 416.389 268.937 410.295 259.785 403.125C230.353 379.822 211.51 349.529 204.062 312.872C195.269 269.314 203.075 228.445 228.559 191.698C252.427 157.103 285.627 135.683 326.185 125.824C340.991 122.239 341.709 122.866 344.042 107.72C345.926 95.3512 346.823 83.0725 358.399 75.0062C359.386 74.2892 359.924 71.8694 359.475 70.7042C359.027 69.7184 356.873 68.8221 355.527 68.9117C343.772 70.0769 332.108 71.5109 320.443 72.8552C316.046 73.393 314.072 76.0818 313.982 80.2942C313.892 84.9547 314.52 89.7048 313.623 94.2757C313.174 96.8748 310.931 100.281 308.598 101.356C294.6 107.72 280.333 113.545 266.245 119.64C261.938 121.522 258.529 120.984 255.388 117.489C252.517 114.352 249.197 111.573 246.415 108.347C243.723 105.21 241.3 105.12 238.07 107.451C217.253 122.239 198.948 139.716 184.591 160.867C183.514 162.391 183.783 165.976 184.95 167.5C187.911 171.533 191.679 175.118 195.269 178.613C198.499 181.84 198.678 184.797 196.525 188.92C191.32 199.227 184.591 209.355 182.347 220.379C178.579 238.841 173.195 239.2 158.12 237.407C153.095 236.78 150.403 238.752 149.416 244.219C145.648 265.371 145.379 286.612 147.891 307.853C149.147 318.339 149.686 318.698 160.453 318.877C163.325 318.877 166.196 319.235 168.978 318.966C173.644 318.518 176.335 320.669 177.323 325.061C180.643 339.849 185.937 353.741 193.833 366.737C196.615 371.397 196.076 376.147 192.038 380.091C189.167 382.959 186.026 385.558 182.976 388.157C179.745 390.846 179.386 393.983 181.809 397.209C196.615 418.002 213.843 436.465 234.75 451.343C239.057 454.39 242.377 454.032 245.697 449.819C247.94 446.951 251.081 444.89 253.504 442.112C256.913 438.079 260.054 438.527 264.63 440.857C275.488 446.234 286.524 451.343 297.831 455.556C308.419 459.499 313.623 466.4 312.367 477.783C311.47 486.118 312.187 487.373 320.532 488.538C331.569 490.061 342.696 491.047 353.822 492.212C357.95 492.66 360.193 490.958 360.193 486.297C360.014 473.122 360.014 459.947 360.193 446.683C360.283 441.753 357.77 440.319 353.374 440.319C344.131 440.588 335.069 440.498 325.916 440.498ZM401.2 440.498C391.868 440.498 382.536 440.588 373.114 440.498C368.987 440.498 366.654 441.932 366.743 446.503C366.833 459.947 366.833 473.301 366.743 486.745C366.743 490.778 368.628 492.302 372.307 492.033C379.844 491.585 387.381 491.316 394.739 490.42C413.672 488 413.942 487.821 413.762 469.089C413.672 463.263 415.826 461.023 420.851 459.051C432.875 454.211 444.719 448.923 456.294 443.187C466.344 438.168 468.857 438.168 476.753 446.683C478.099 448.206 479.624 449.64 480.881 451.164C483.662 454.57 486.534 455.107 490.302 452.419C511.479 437.541 529.066 419.168 543.871 398.016C546.025 394.879 546.025 392.101 543.064 389.322C539.385 385.827 535.975 382.063 532.296 378.567C529.514 375.879 529.694 373.19 531.13 369.784C537.231 354.996 543.154 340.208 548.807 325.24C550.332 321.297 552.037 318.966 556.523 319.146C560.741 319.325 565.048 318.877 569.355 319.146C574.649 319.415 576.802 317.443 577.61 311.976C581.02 289.659 580.122 267.432 577.072 245.205C576.264 239.648 573.303 236.959 567.56 237.407C564.15 237.676 560.651 237.228 557.241 237.676C551.05 238.393 548.448 235.077 546.922 229.789C543.064 216.077 538.398 202.722 529.873 190.981C526.553 186.411 526.912 181.75 530.771 177.627C533.822 174.401 537.052 171.354 540.372 168.306C543.243 165.617 543.512 162.749 541.179 159.702C538.488 156.117 535.796 152.622 532.924 149.126C520.541 133.98 506.364 120.715 490.392 109.333C485.816 106.106 481.957 106.106 477.919 110.05C474.869 113.007 471.459 115.696 468.588 118.743C465.985 121.611 463.652 121.163 460.422 119.819C446.514 113.724 432.516 107.809 418.518 101.983C413.852 100.101 411.07 97.2333 411.07 92.0351C411.07 88.0019 410.801 83.8792 410.981 79.846C411.16 75.6336 409.365 73.3034 405.238 72.8552C395.726 71.6901 386.305 70.4354 376.793 69.6287C373.653 69.3598 370.422 70.3457 367.192 70.7939C368.897 73.8411 370.422 76.978 372.396 79.7564C374.909 83.1622 379.395 85.8509 380.203 89.4359C382.177 98.04 382.805 107.003 383.344 115.875C383.613 120.894 385.497 123.494 390.253 124.121C412.057 126.81 431.619 135.593 450.282 146.617C467.6 156.834 482.585 169.83 494.609 186.052C514.709 213.209 524.041 244.129 525.566 277.56C527.72 327.302 507.531 367.275 470.562 399.54C457.64 410.832 443.373 420.871 435.746 437.182C434.849 438.975 431.08 440.319 428.657 440.409C419.505 440.767 410.352 440.498 401.2 440.498ZM402.456 390.308C403.533 392.28 403.892 393.356 404.52 393.983C414.121 403.573 425.786 409.578 439.156 411.639C441.668 411.998 444.899 410.832 447.052 409.309C454.59 403.842 462.037 398.195 469.126 392.19C493.712 371.308 509.146 344.779 515.517 313.41C524.579 269.045 516.862 227.907 489.315 191.25C465.357 159.433 433.772 139.626 394.829 131.47C384.959 129.409 384.061 130.215 384.42 140.074C385.766 176.552 387.112 213.029 388.548 249.596C388.548 250.313 388.997 251.03 389.445 252.375C403.533 242.337 417.8 234.091 435.477 234.988C432.785 245.026 430.362 253.988 427.581 264.474C436.554 259.993 443.373 256.049 450.641 253.271C458.089 250.493 465.985 248.879 473.702 246.818C474.061 247.445 474.42 248.073 474.779 248.7C473.971 250.403 473.343 252.285 472.356 253.898C462.576 269.045 459.166 285.447 461.14 303.282C462.127 312.155 462.755 321.028 462.845 329.99C462.934 339.401 461.499 348.543 456.564 356.878C448.219 371.039 434.849 378.298 420.223 383.945C414.57 386.185 408.827 388.068 402.456 390.308ZM337.043 252.644C337.402 243.502 337.671 235.884 338.03 228.355C339.286 198.331 340.632 168.396 341.709 138.371C342.068 129.767 341.439 129.498 333.184 131.201C312.815 135.234 293.882 142.494 276.564 154.056C243.454 176.104 220.034 205.949 211.6 244.846C198.14 307.136 215.907 359.836 266.335 400.346C284.191 414.597 287.512 415.045 307.701 404.738C313.803 401.601 319.725 397.658 323.763 390.756C314.879 387.44 306.804 384.751 298.997 381.435C277.013 372.025 263.105 356.609 262.925 331.514C262.836 323.986 263.284 316.457 264.182 309.018C266.694 289.48 264.271 271.017 253.683 253.988C252.696 252.375 252.158 250.493 251.081 247.804C268.219 248.969 282.397 255.422 295.856 263.936C296.395 263.488 297.023 263.04 297.561 262.503C295.228 253.63 292.985 244.757 290.562 235.525C292.088 235.256 293.434 234.808 294.69 234.898C310.213 235.794 323.404 242.695 337.043 252.644ZM404.879 319.863C404.789 318.787 404.789 316.367 404.61 313.947C402.187 282.22 385.407 257.304 366.474 233.374C364.052 230.327 361.988 230.954 359.565 233.822C345.836 250.493 333.812 268.239 326.724 288.852C318.827 311.617 318.827 334.113 329.864 356.161C337.402 371.128 348.438 383.138 360.373 394.431C361.449 395.417 365.039 395.238 366.385 394.162C370.333 391.025 373.832 387.351 377.242 383.586C393.393 365.93 404.969 346.123 404.879 319.863ZM334.082 377.313C333.902 376.596 333.992 376.058 333.723 375.61C332.197 373.011 330.492 370.411 328.967 367.812C318.379 350.515 313.174 332.052 315.238 311.528C316.943 294.857 322.596 279.531 330.492 265.012C333.184 260.172 332.825 256.766 327.531 254.078C321.34 250.941 315.507 247.266 309.316 244.309C306.804 243.143 303.753 243.054 299.984 242.247C300.612 245.205 300.792 246.818 301.24 248.252C304.74 259.635 304.919 270.927 302.048 282.489C299.715 291.541 297.651 300.683 295.946 309.825C290.024 342.896 305.547 363.869 334.082 377.313ZM424.261 242.516C414.031 243.86 406.045 249.417 397.79 254.526C393.663 257.125 393.214 259.993 395.367 264.205C398.688 270.658 402.008 277.201 404.52 284.102C413.403 308.48 414.121 332.948 403.264 357.057C400.033 364.138 395.816 370.68 392.047 377.402C405.597 371.308 416.992 362.973 424.44 350.246C432.965 335.637 431.888 319.952 428.657 304.089C424.62 284.461 418.787 264.922 424.979 244.667C425.068 244.309 424.799 243.86 424.261 242.516ZM322.776 382.421C322.955 381.883 323.134 381.435 323.314 380.898C321.878 379.822 320.443 378.747 319.007 377.761C296.126 361.449 284.371 340.028 289.127 311.348C290.921 300.504 293.613 289.928 295.498 279.083C295.946 276.753 295.587 273.347 294.062 271.824C285.986 263.937 275.936 259.455 263.643 256.229C264.81 259.993 265.438 262.413 266.335 264.833C270.911 277.022 273.065 289.48 271.45 302.475C270.642 308.928 269.924 315.381 269.476 321.835C268.309 340.208 271.45 357.057 288.588 367.454C297.023 372.562 306.265 376.416 315.328 380.539C317.571 381.704 320.263 381.883 322.776 382.421ZM462.037 256.408C450.372 259.276 440.233 264.026 431.798 271.734C430.273 273.078 430.003 276.663 430.362 278.994C431.439 285.805 432.875 292.527 434.58 299.249C442.476 330.349 436.374 356.699 408.917 375.968C406.584 377.581 404.61 379.643 402.546 381.525C416.454 378.836 429.106 374.176 440.143 366.02C454.59 355.354 457.371 339.939 456.564 323.179C455.935 309.466 454.679 295.664 455.397 281.951C455.756 273.795 459.435 265.729 462.037 256.408ZM383.523 399.271C389.714 404.111 395.098 408.861 401.021 412.894C409.007 418.271 409.186 418.003 405.507 427.144C403.443 432.253 404.341 433.777 409.724 434.135C412.775 434.314 415.826 434.225 418.877 434.494C428.478 435.211 433.054 432.343 436.823 423.47C438.259 420.153 437.9 418.092 433.952 417.285C420.402 414.597 409.007 408.144 399.495 398.016C394.38 392.37 391.33 392.728 383.523 399.271ZM342.875 399.54C335.786 393.356 332.018 392.997 327.262 397.747C317.302 407.785 305.547 414.417 291.729 417.554C290.562 417.823 289.575 418.54 287.96 419.257C288.768 421.498 289.216 423.649 290.293 425.441C294.869 433.06 311.918 437.72 319.725 433.508C320.712 432.97 321.609 430.819 321.43 429.564C321.16 427.682 320.263 425.71 319.186 424.007C316.674 420.064 317.571 417.823 321.519 415.224C328.698 410.564 335.338 405.096 342.875 399.54ZM359.924 416.658C359.924 415.045 359.745 412.356 360.014 409.757C360.462 405.903 358.847 403.035 355.348 402.408C352.566 401.96 348.887 402.408 346.734 403.931C340.542 408.413 335.069 413.88 328.967 418.54C325.826 420.96 325.647 423.201 327.352 426.338C330.941 432.88 336.594 434.494 343.683 434.404C359.744 434.135 360.642 433.418 359.924 416.658ZM366.743 418.361C366.833 422.215 366.474 426.069 367.013 429.833C367.192 431.357 369.076 433.777 370.243 433.866C377.511 434.225 385.048 434.942 391.958 433.418C395.009 432.701 397.162 427.144 399.226 423.47C399.764 422.484 398.867 419.885 397.79 418.988C391.778 413.611 385.677 408.323 379.216 403.483C377.332 402.049 373.653 401.153 371.768 402.049C369.525 403.035 367.73 406.172 367.013 408.681C366.115 411.729 366.743 415.134 366.743 418.361ZM362.347 105.031C372.935 105.031 374.371 104.224 374.281 98.2192C374.191 91.7662 367.641 81.28 363.513 81.0112C359.027 80.7423 352.835 91.0492 352.476 98.3088C352.117 106.554 357.681 104.851 362.347 105.031ZM377.511 122.239C376.973 122.239 376.345 122.239 375.806 122.239C375.806 128.064 375.717 133.89 375.806 139.805C376.434 170.457 377.152 201.109 377.96 231.761C378.05 234.36 379.126 237.049 379.754 239.648C380.562 239.469 381.37 239.29 382.177 239.2C380.562 200.213 379.037 161.226 377.511 122.239ZM348.977 118.206C347.451 158.627 345.836 198.958 344.311 239.379C349.336 234.45 352.835 137.296 348.977 118.206ZM359.655 114.8C359.027 114.8 358.399 114.8 357.77 114.8C356.873 151.546 355.976 188.293 355.079 225.039C356.155 225.218 357.232 225.308 358.309 225.487C358.847 223.067 359.834 220.647 359.834 218.228C360.014 186.411 360.014 154.594 360.014 122.777C360.014 120.177 359.834 117.489 359.655 114.8ZM368.718 114.083C368.269 113.993 367.82 113.904 367.372 113.814C367.192 114.531 366.833 115.338 366.833 116.055C366.743 150.74 366.743 185.425 366.833 220.199C366.833 222.081 368 223.874 368.628 225.756C369.435 225.577 370.153 225.487 370.961 225.308C370.153 188.203 369.435 151.098 368.718 114.083Z" fill="white"/>
</g>
</g>
<g clip-path="url(#clip1_1016_1222)">
<g filter="url(#filter2_dd_1016_1222)">
<path d="M360.732 500.458C345.029 498.217 328.967 496.156 312.905 493.557C305.547 492.392 304.56 490.241 305.637 483.07C307.432 470.702 302.676 464.16 290.921 460.216C282.397 457.348 274.052 453.315 266.066 449.103C261.131 446.503 257.631 446.055 253.952 450.716C251.171 454.211 248.03 457.617 244.441 460.037C242.467 461.381 238.249 461.74 236.455 460.575C211.42 443.725 190.692 422.484 174.092 397.299C171.58 393.445 171.759 389.771 175.707 386.544C178.399 384.393 180.912 381.973 183.334 379.553C188.539 374.355 188.449 371.128 185.398 364.317C180.822 354.01 176.694 343.434 172.926 332.769C171.221 327.929 169.067 325.061 163.504 325.42C159.466 325.688 155.339 324.792 151.301 325.061C145.558 325.509 143.404 322.641 142.597 317.443C138.649 290.734 138.918 264.026 143.853 237.407C144.661 233.016 147.173 231.134 151.48 231.223C155.339 231.313 159.197 231.313 163.055 231.582C169.337 232.03 172.836 228.893 175.079 223.336C179.745 211.506 184.77 199.765 189.346 187.934C190.064 186.142 189.526 183.094 188.359 181.481C185.309 177.448 181.54 173.953 178.31 170.099C175.438 166.783 175.169 163.377 177.681 159.523C193.653 135.234 214.381 115.786 238.339 99.5636C241.749 97.2334 244.8 97.5918 247.581 100.549C250.184 103.328 252.696 106.375 255.298 109.154C258.977 113.097 262.925 114.262 268.309 111.573C279.256 106.286 290.383 101.446 301.599 96.7852C305.817 95.0823 307.791 92.5728 307.521 88.1812C307.432 86.5679 307.521 84.9547 307.521 83.3414C307.521 68.4636 307.521 68.5532 321.878 66.0437C350.861 60.8454 379.665 61.3832 408.558 66.7607C415.018 67.9259 418.608 70.4354 417.621 77.4261C417.351 79.2186 417.71 81.1008 417.621 82.8933C417.351 93.9172 418.249 94.6342 428.747 98.4881C438.618 102.163 448.219 106.554 457.73 111.036C462.037 113.097 465.357 113.366 468.408 109.333C469.305 108.257 470.382 107.361 471.459 106.375C482.227 95.9786 483.573 95.7097 495.417 104.672C515.786 120.088 533.911 137.654 548.268 158.896C551.498 163.556 550.87 166.603 546.832 170.368C533.552 182.646 533.911 182.557 541.808 198.689C545.845 207.024 549.076 215.897 552.127 224.681C553.652 228.983 555.895 230.954 560.561 230.775C564.779 230.596 569.086 231.313 573.393 231.044C578.687 230.775 581.109 233.016 582.096 238.124C587.032 264.743 587.839 291.362 582.994 318.07C582.096 323.179 579.315 325.509 574.11 324.882C554.011 322.731 553.742 328.288 550.242 342.09C547.999 350.783 543.602 359.029 539.744 367.275C537.68 371.756 537.77 375.251 541.538 378.657C545.038 381.794 548.089 385.289 551.588 388.426C554.46 390.936 554.549 393.535 552.575 396.403C535.796 421.408 515.427 442.918 490.482 460.126C486.175 463.084 482.855 462.457 479.265 458.692C466.972 445.607 467.062 445.966 450.911 453.942C443.463 457.617 435.656 460.485 427.76 463.084C422.107 464.966 419.864 467.834 420.043 474.108C420.402 494.005 421.21 492.571 403.533 495.08C389.714 497.5 375.537 498.755 360.732 500.458ZM325.916 440.498C320.801 440.409 315.687 439.961 310.662 440.498C298.818 441.753 289.755 439.961 284.281 427.144C279.615 416.389 268.937 410.295 259.785 403.125C230.353 379.822 211.51 349.529 204.062 312.872C195.269 269.314 203.075 228.445 228.559 191.698C252.427 157.103 285.627 135.683 326.185 125.824C340.991 122.239 341.709 122.866 344.042 107.72C345.926 95.3512 346.823 83.0725 358.399 75.0062C359.386 74.2892 359.924 71.8694 359.475 70.7042C359.027 69.7184 356.873 68.8221 355.527 68.9117C343.772 70.0769 332.108 71.5109 320.443 72.8552C316.046 73.393 314.072 76.0818 313.982 80.2942C313.892 84.9547 314.52 89.7048 313.623 94.2757C313.174 96.8748 310.931 100.281 308.598 101.356C294.6 107.72 280.333 113.545 266.245 119.64C261.938 121.522 258.529 120.984 255.388 117.489C252.517 114.352 249.197 111.573 246.415 108.347C243.723 105.21 241.3 105.12 238.07 107.451C217.253 122.239 198.948 139.716 184.591 160.867C183.514 162.391 183.783 165.976 184.95 167.5C187.911 171.533 191.679 175.118 195.269 178.613C198.499 181.84 198.678 184.797 196.525 188.92C191.32 199.227 184.591 209.355 182.347 220.379C178.579 238.841 173.195 239.2 158.12 237.407C153.095 236.78 150.403 238.752 149.416 244.219C145.648 265.371 145.379 286.612 147.891 307.853C149.147 318.339 149.686 318.698 160.453 318.877C163.325 318.877 166.196 319.235 168.978 318.966C173.644 318.518 176.335 320.669 177.323 325.061C180.643 339.849 185.937 353.741 193.833 366.737C196.615 371.397 196.076 376.147 192.038 380.091C189.167 382.959 186.026 385.558 182.976 388.157C179.745 390.846 179.386 393.983 181.809 397.209C196.615 418.002 213.843 436.465 234.75 451.343C239.057 454.39 242.377 454.032 245.697 449.819C247.94 446.951 251.081 444.89 253.504 442.112C256.913 438.079 260.054 438.527 264.63 440.857C275.488 446.234 286.524 451.343 297.831 455.556C308.419 459.499 313.623 466.4 312.367 477.783C311.47 486.118 312.187 487.373 320.532 488.538C331.569 490.061 342.696 491.047 353.822 492.212C357.95 492.66 360.193 490.958 360.193 486.297C360.014 473.122 360.014 459.947 360.193 446.683C360.283 441.753 357.77 440.319 353.374 440.319C344.131 440.588 335.069 440.498 325.916 440.498ZM401.2 440.498C391.868 440.498 382.536 440.588 373.114 440.498C368.987 440.498 366.654 441.932 366.743 446.503C366.833 459.947 366.833 473.301 366.743 486.745C366.743 490.778 368.628 492.302 372.307 492.033C379.844 491.585 387.381 491.316 394.739 490.42C413.672 488 413.942 487.821 413.762 469.089C413.672 463.263 415.826 461.023 420.851 459.051C432.875 454.211 444.719 448.923 456.294 443.187C466.344 438.168 468.857 438.168 476.753 446.683C478.099 448.206 479.624 449.64 480.881 451.164C483.662 454.57 486.534 455.107 490.302 452.419C511.479 437.541 529.066 419.168 543.871 398.016C546.025 394.879 546.025 392.101 543.064 389.322C539.385 385.827 535.975 382.063 532.296 378.567C529.514 375.879 529.694 373.19 531.13 369.784C537.231 354.996 543.154 340.208 548.807 325.24C550.332 321.297 552.037 318.966 556.523 319.146C560.741 319.325 565.048 318.877 569.355 319.146C574.649 319.415 576.802 317.443 577.61 311.976C581.02 289.659 580.122 267.432 577.072 245.205C576.264 239.648 573.303 236.959 567.56 237.407C564.15 237.676 560.651 237.228 557.241 237.676C551.05 238.393 548.448 235.077 546.922 229.789C543.064 216.077 538.398 202.722 529.873 190.981C526.553 186.411 526.912 181.75 530.771 177.627C533.822 174.401 537.052 171.354 540.372 168.306C543.243 165.617 543.512 162.749 541.179 159.702C538.488 156.117 535.796 152.622 532.924 149.126C520.541 133.98 506.364 120.715 490.392 109.333C485.816 106.106 481.957 106.106 477.919 110.05C474.869 113.007 471.459 115.696 468.588 118.743C465.985 121.611 463.652 121.163 460.422 119.819C446.514 113.724 432.516 107.809 418.518 101.983C413.852 100.101 411.07 97.2333 411.07 92.0351C411.07 88.0019 410.801 83.8792 410.981 79.846C411.16 75.6336 409.365 73.3034 405.238 72.8552C395.726 71.6901 386.305 70.4354 376.793 69.6287C373.653 69.3598 370.422 70.3457 367.192 70.7939C368.897 73.8411 370.422 76.978 372.396 79.7564C374.909 83.1622 379.395 85.8509 380.203 89.4359C382.177 98.04 382.805 107.003 383.344 115.875C383.613 120.894 385.497 123.494 390.253 124.121C412.057 126.81 431.619 135.593 450.282 146.617C467.6 156.834 482.585 169.83 494.609 186.052C514.709 213.209 524.041 244.129 525.566 277.56C527.72 327.302 507.531 367.275 470.562 399.54C457.64 410.832 443.373 420.871 435.746 437.182C434.849 438.975 431.08 440.319 428.657 440.409C419.505 440.767 410.352 440.498 401.2 440.498ZM402.456 390.308C403.533 392.28 403.892 393.356 404.52 393.983C414.121 403.573 425.786 409.578 439.156 411.639C441.668 411.998 444.899 410.832 447.052 409.309C454.59 403.842 462.037 398.195 469.126 392.19C493.712 371.308 509.146 344.779 515.517 313.41C524.579 269.045 516.862 227.907 489.315 191.25C465.357 159.433 433.772 139.626 394.829 131.47C384.959 129.409 384.061 130.215 384.42 140.074C385.766 176.552 387.112 213.029 388.548 249.596C388.548 250.313 388.997 251.03 389.445 252.375C403.533 242.337 417.8 234.091 435.477 234.988C432.785 245.026 430.362 253.988 427.581 264.474C436.554 259.993 443.373 256.049 450.641 253.271C458.089 250.493 465.985 248.879 473.702 246.818C474.061 247.445 474.42 248.073 474.779 248.7C473.971 250.403 473.343 252.285 472.356 253.898C462.576 269.045 459.166 285.447 461.14 303.282C462.127 312.155 462.755 321.028 462.845 329.99C462.934 339.401 461.499 348.543 456.564 356.878C448.219 371.039 434.849 378.298 420.223 383.945C414.57 386.185 408.827 388.068 402.456 390.308ZM337.043 252.644C337.402 243.502 337.671 235.884 338.03 228.355C339.286 198.331 340.632 168.396 341.709 138.371C342.068 129.767 341.439 129.498 333.184 131.201C312.815 135.234 293.882 142.494 276.564 154.056C243.454 176.104 220.034 205.949 211.6 244.846C198.14 307.136 215.907 359.836 266.335 400.346C284.191 414.597 287.512 415.045 307.701 404.738C313.803 401.601 319.725 397.658 323.763 390.756C314.879 387.44 306.804 384.751 298.997 381.435C277.013 372.025 263.105 356.609 262.925 331.514C262.836 323.986 263.284 316.457 264.182 309.018C266.694 289.48 264.271 271.017 253.683 253.988C252.696 252.375 252.158 250.493 251.081 247.804C268.219 248.969 282.397 255.422 295.856 263.936C296.395 263.488 297.023 263.04 297.561 262.503C295.228 253.63 292.985 244.757 290.562 235.525C292.088 235.256 293.434 234.808 294.69 234.898C310.213 235.794 323.404 242.695 337.043 252.644ZM404.879 319.863C404.789 318.787 404.789 316.367 404.61 313.947C402.187 282.22 385.407 257.304 366.474 233.374C364.052 230.327 361.988 230.954 359.565 233.822C345.836 250.493 333.812 268.239 326.724 288.852C318.827 311.617 318.827 334.113 329.864 356.161C337.402 371.128 348.438 383.138 360.373 394.431C361.449 395.417 365.039 395.238 366.385 394.162C370.333 391.025 373.832 387.351 377.242 383.586C393.393 365.93 404.969 346.123 404.879 319.863ZM334.082 377.313C333.902 376.596 333.992 376.058 333.723 375.61C332.197 373.011 330.492 370.411 328.967 367.812C318.379 350.515 313.174 332.052 315.238 311.528C316.943 294.857 322.596 279.531 330.492 265.012C333.184 260.172 332.825 256.766 327.531 254.078C321.34 250.941 315.507 247.266 309.316 244.309C306.804 243.143 303.753 243.054 299.984 242.247C300.612 245.205 300.792 246.818 301.24 248.252C304.74 259.635 304.919 270.927 302.048 282.489C299.715 291.541 297.651 300.683 295.946 309.825C290.024 342.896 305.547 363.869 334.082 377.313ZM424.261 242.516C414.031 243.86 406.045 249.417 397.79 254.526C393.663 257.125 393.214 259.993 395.367 264.205C398.688 270.658 402.008 277.201 404.52 284.102C413.403 308.48 414.121 332.948 403.264 357.057C400.033 364.138 395.816 370.68 392.047 377.402C405.597 371.308 416.992 362.973 424.44 350.246C432.965 335.637 431.888 319.952 428.657 304.089C424.62 284.461 418.787 264.922 424.979 244.667C425.068 244.309 424.799 243.86 424.261 242.516ZM322.776 382.421C322.955 381.883 323.134 381.435 323.314 380.898C321.878 379.822 320.443 378.747 319.007 377.761C296.126 361.449 284.371 340.028 289.127 311.348C290.921 300.504 293.613 289.928 295.498 279.083C295.946 276.753 295.587 273.347 294.062 271.824C285.986 263.937 275.936 259.455 263.643 256.229C264.81 259.993 265.438 262.413 266.335 264.833C270.911 277.022 273.065 289.48 271.45 302.475C270.642 308.928 269.924 315.381 269.476 321.835C268.309 340.208 271.45 357.057 288.588 367.454C297.023 372.562 306.265 376.416 315.328 380.539C317.571 381.704 320.263 381.883 322.776 382.421ZM462.037 256.408C450.372 259.276 440.233 264.026 431.798 271.734C430.273 273.078 430.003 276.663 430.362 278.994C431.439 285.805 432.875 292.527 434.58 299.249C442.476 330.349 436.374 356.699 408.917 375.968C406.584 377.581 404.61 379.643 402.546 381.525C416.454 378.836 429.106 374.176 440.143 366.02C454.59 355.354 457.371 339.939 456.564 323.179C455.935 309.466 454.679 295.664 455.397 281.951C455.756 273.795 459.435 265.729 462.037 256.408ZM383.523 399.271C389.714 404.111 395.098 408.861 401.021 412.894C409.007 418.271 409.186 418.003 405.507 427.144C403.443 432.253 404.341 433.777 409.724 434.135C412.775 434.314 415.826 434.225 418.877 434.494C428.478 435.211 433.054 432.343 436.823 423.47C438.259 420.153 437.9 418.092 433.952 417.285C420.402 414.597 409.007 408.144 399.495 398.016C394.38 392.37 391.33 392.728 383.523 399.271ZM342.875 399.54C335.786 393.356 332.018 392.997 327.262 397.747C317.302 407.785 305.547 414.417 291.729 417.554C290.562 417.823 289.575 418.54 287.96 419.257C288.768 421.498 289.216 423.649 290.293 425.441C294.869 433.06 311.918 437.72 319.725 433.508C320.712 432.97 321.609 430.819 321.43 429.564C321.16 427.682 320.263 425.71 319.186 424.007C316.674 420.064 317.571 417.823 321.519 415.224C328.698 410.564 335.338 405.096 342.875 399.54ZM359.924 416.658C359.924 415.045 359.745 412.356 360.014 409.757C360.462 405.903 358.847 403.035 355.348 402.408C352.566 401.96 348.887 402.408 346.734 403.931C340.542 408.413 335.069 413.88 328.967 418.54C325.826 420.96 325.647 423.201 327.352 426.338C330.941 432.88 336.594 434.494 343.683 434.404C359.744 434.135 360.642 433.418 359.924 416.658ZM366.743 418.361C366.833 422.215 366.474 426.069 367.013 429.833C367.192 431.357 369.076 433.777 370.243 433.866C377.511 434.225 385.048 434.942 391.958 433.418C395.009 432.701 397.162 427.144 399.226 423.47C399.764 422.484 398.867 419.885 397.79 418.988C391.778 413.611 385.677 408.323 379.216 403.483C377.332 402.049 373.653 401.153 371.768 402.049C369.525 403.035 367.73 406.172 367.013 408.681C366.115 411.729 366.743 415.134 366.743 418.361ZM362.347 105.031C372.935 105.031 374.371 104.224 374.281 98.2192C374.191 91.7662 367.641 81.28 363.513 81.0112C359.027 80.7423 352.835 91.0492 352.476 98.3088C352.117 106.554 357.681 104.851 362.347 105.031ZM377.511 122.239C376.973 122.239 376.345 122.239 375.806 122.239C375.806 128.064 375.717 133.89 375.806 139.805C376.434 170.457 377.152 201.109 377.96 231.761C378.05 234.36 379.126 237.049 379.754 239.648C380.562 239.469 381.37 239.29 382.177 239.2C380.562 200.213 379.037 161.226 377.511 122.239ZM348.977 118.206C347.451 158.627 345.836 198.958 344.311 239.379C349.336 234.45 352.835 137.296 348.977 118.206ZM359.655 114.8C359.027 114.8 358.399 114.8 357.77 114.8C356.873 151.546 355.976 188.293 355.079 225.039C356.155 225.218 357.232 225.308 358.309 225.487C358.847 223.067 359.834 220.647 359.834 218.228C360.014 186.411 360.014 154.594 360.014 122.777C360.014 120.177 359.834 117.489 359.655 114.8ZM368.718 114.083C368.269 113.993 367.82 113.904 367.372 113.814C367.192 114.531 366.833 115.338 366.833 116.055C366.743 150.74 366.743 185.425 366.833 220.199C366.833 222.081 368 223.874 368.628 225.756C369.435 225.577 370.153 225.487 370.961 225.308C370.153 188.203 369.435 151.098 368.718 114.083Z" fill="white"/>
</g>
</g>
<g filter="url(#filter3_ddddd_1016_1222)">
<mask id="path-3-outside-1_1016_1222" maskUnits="userSpaceOnUse" x="121" y="256" width="490" height="52" fill="black">
<rect fill="white" x="121" y="256" width="490" height="52"/>
<path d="M123.395 305V259.5H133.925V305H123.395ZM154.148 305V268.08H139.588V259.5H179.238V268.08H164.678V305H154.148ZM199.536 305.78C195.896 305.78 192.408 305.303 189.071 304.35C185.735 303.353 183.048 302.075 181.011 300.515L184.586 292.585C186.536 293.972 188.833 295.12 191.476 296.03C194.163 296.897 196.871 297.33 199.601 297.33C201.681 297.33 203.35 297.135 204.606 296.745C205.906 296.312 206.86 295.727 207.466 294.99C208.073 294.253 208.376 293.408 208.376 292.455C208.376 291.242 207.9 290.288 206.946 289.595C205.993 288.858 204.736 288.273 203.176 287.84C201.616 287.363 199.883 286.93 197.976 286.54C196.113 286.107 194.228 285.587 192.321 284.98C190.458 284.373 188.746 283.593 187.186 282.64C185.626 281.687 184.348 280.43 183.351 278.87C182.398 277.31 181.921 275.317 181.921 272.89C181.921 270.29 182.615 267.928 184.001 265.805C185.431 263.638 187.555 261.927 190.371 260.67C193.231 259.37 196.806 258.72 201.096 258.72C203.956 258.72 206.773 259.067 209.546 259.76C212.32 260.41 214.768 261.407 216.891 262.75L213.641 270.745C211.518 269.532 209.395 268.643 207.271 268.08C205.148 267.473 203.068 267.17 201.031 267.17C198.995 267.17 197.326 267.408 196.026 267.885C194.726 268.362 193.795 268.99 193.231 269.77C192.668 270.507 192.386 271.373 192.386 272.37C192.386 273.54 192.863 274.493 193.816 275.23C194.77 275.923 196.026 276.487 197.586 276.92C199.146 277.353 200.858 277.787 202.721 278.22C204.628 278.653 206.513 279.152 208.376 279.715C210.283 280.278 212.016 281.037 213.576 281.99C215.136 282.943 216.393 284.2 217.346 285.76C218.343 287.32 218.841 289.292 218.841 291.675C218.841 294.232 218.126 296.572 216.696 298.695C215.266 300.818 213.121 302.53 210.261 303.83C207.445 305.13 203.87 305.78 199.536 305.78ZM244.445 305V259.5H253.155L272.525 291.61H267.91L286.955 259.5H295.6L295.73 305H285.85L285.785 274.645H287.605L272.395 300.19H267.65L252.115 274.645H254.325V305H244.445ZM326.74 305.78C320.283 305.78 315.235 303.982 311.595 300.385C307.955 296.788 306.135 291.653 306.135 284.98V259.5H316.665V284.59C316.665 288.923 317.553 292.043 319.33 293.95C321.107 295.857 323.598 296.81 326.805 296.81C330.012 296.81 332.503 295.857 334.28 293.95C336.057 292.043 336.945 288.923 336.945 284.59V259.5H347.345V284.98C347.345 291.653 345.525 296.788 341.885 300.385C338.245 303.982 333.197 305.78 326.74 305.78ZM357.75 305V259.5H366.46L393.305 292.26H389.08V259.5H399.48V305H390.835L363.925 272.24H368.15V305H357.75ZM450.429 305.78C446.919 305.78 443.647 305.217 440.614 304.09C437.624 302.92 435.024 301.273 432.814 299.15C430.604 297.027 428.87 294.535 427.614 291.675C426.4 288.815 425.794 285.673 425.794 282.25C425.794 278.827 426.4 275.685 427.614 272.825C428.87 269.965 430.604 267.473 432.814 265.35C435.067 263.227 437.689 261.602 440.679 260.475C443.669 259.305 446.94 258.72 450.494 258.72C454.437 258.72 457.99 259.413 461.154 260.8C464.36 262.143 467.047 264.137 469.214 266.78L462.454 273.02C460.894 271.243 459.16 269.922 457.254 269.055C455.347 268.145 453.267 267.69 451.014 267.69C448.89 267.69 446.94 268.037 445.164 268.73C443.387 269.423 441.849 270.42 440.549 271.72C439.249 273.02 438.23 274.558 437.494 276.335C436.8 278.112 436.454 280.083 436.454 282.25C436.454 284.417 436.8 286.388 437.494 288.165C438.23 289.942 439.249 291.48 440.549 292.78C441.849 294.08 443.387 295.077 445.164 295.77C446.94 296.463 448.89 296.81 451.014 296.81C453.267 296.81 455.347 296.377 457.254 295.51C459.16 294.6 460.894 293.235 462.454 291.415L469.214 297.655C467.047 300.298 464.36 302.313 461.154 303.7C457.99 305.087 454.415 305.78 450.429 305.78ZM476.325 305V259.5H486.855V296.42H509.67V305H476.325ZM535.26 305.78C528.804 305.78 523.755 303.982 520.115 300.385C516.475 296.788 514.655 291.653 514.655 284.98V259.5H525.185V284.59C525.185 288.923 526.074 292.043 527.85 293.95C529.627 295.857 532.119 296.81 535.325 296.81C538.532 296.81 541.024 295.857 542.8 293.95C544.577 292.043 545.465 288.923 545.465 284.59V259.5H555.865V284.98C555.865 291.653 554.045 296.788 550.405 300.385C546.765 303.982 541.717 305.78 535.26 305.78ZM566.271 305V259.5H588.501C594.221 259.5 598.511 260.583 601.371 262.75C604.274 264.917 605.726 267.777 605.726 271.33C605.726 273.713 605.141 275.793 603.971 277.57C602.801 279.303 601.198 280.647 599.161 281.6C597.124 282.553 594.784 283.03 592.141 283.03L593.376 280.365C596.236 280.365 598.771 280.842 600.981 281.795C603.191 282.705 604.903 284.07 606.116 285.89C607.373 287.71 608.001 289.942 608.001 292.585C608.001 296.485 606.463 299.54 603.386 301.75C600.309 303.917 595.781 305 589.801 305H566.271ZM576.736 297.07H589.021C591.751 297.07 593.809 296.637 595.196 295.77C596.626 294.86 597.341 293.43 597.341 291.48C597.341 289.573 596.626 288.165 595.196 287.255C593.809 286.302 591.751 285.825 589.021 285.825H575.956V278.155H587.201C589.758 278.155 591.708 277.722 593.051 276.855C594.438 275.945 595.131 274.58 595.131 272.76C595.131 270.983 594.438 269.662 593.051 268.795C591.708 267.885 589.758 267.43 587.201 267.43H576.736V297.07Z"/>
</mask>
<path d="M123.395 305V259.5H133.925V305H123.395ZM154.148 305V268.08H139.588V259.5H179.238V268.08H164.678V305H154.148ZM199.536 305.78C195.896 305.78 192.408 305.303 189.071 304.35C185.735 303.353 183.048 302.075 181.011 300.515L184.586 292.585C186.536 293.972 188.833 295.12 191.476 296.03C194.163 296.897 196.871 297.33 199.601 297.33C201.681 297.33 203.35 297.135 204.606 296.745C205.906 296.312 206.86 295.727 207.466 294.99C208.073 294.253 208.376 293.408 208.376 292.455C208.376 291.242 207.9 290.288 206.946 289.595C205.993 288.858 204.736 288.273 203.176 287.84C201.616 287.363 199.883 286.93 197.976 286.54C196.113 286.107 194.228 285.587 192.321 284.98C190.458 284.373 188.746 283.593 187.186 282.64C185.626 281.687 184.348 280.43 183.351 278.87C182.398 277.31 181.921 275.317 181.921 272.89C181.921 270.29 182.615 267.928 184.001 265.805C185.431 263.638 187.555 261.927 190.371 260.67C193.231 259.37 196.806 258.72 201.096 258.72C203.956 258.72 206.773 259.067 209.546 259.76C212.32 260.41 214.768 261.407 216.891 262.75L213.641 270.745C211.518 269.532 209.395 268.643 207.271 268.08C205.148 267.473 203.068 267.17 201.031 267.17C198.995 267.17 197.326 267.408 196.026 267.885C194.726 268.362 193.795 268.99 193.231 269.77C192.668 270.507 192.386 271.373 192.386 272.37C192.386 273.54 192.863 274.493 193.816 275.23C194.77 275.923 196.026 276.487 197.586 276.92C199.146 277.353 200.858 277.787 202.721 278.22C204.628 278.653 206.513 279.152 208.376 279.715C210.283 280.278 212.016 281.037 213.576 281.99C215.136 282.943 216.393 284.2 217.346 285.76C218.343 287.32 218.841 289.292 218.841 291.675C218.841 294.232 218.126 296.572 216.696 298.695C215.266 300.818 213.121 302.53 210.261 303.83C207.445 305.13 203.87 305.78 199.536 305.78ZM244.445 305V259.5H253.155L272.525 291.61H267.91L286.955 259.5H295.6L295.73 305H285.85L285.785 274.645H287.605L272.395 300.19H267.65L252.115 274.645H254.325V305H244.445ZM326.74 305.78C320.283 305.78 315.235 303.982 311.595 300.385C307.955 296.788 306.135 291.653 306.135 284.98V259.5H316.665V284.59C316.665 288.923 317.553 292.043 319.33 293.95C321.107 295.857 323.598 296.81 326.805 296.81C330.012 296.81 332.503 295.857 334.28 293.95C336.057 292.043 336.945 288.923 336.945 284.59V259.5H347.345V284.98C347.345 291.653 345.525 296.788 341.885 300.385C338.245 303.982 333.197 305.78 326.74 305.78ZM357.75 305V259.5H366.46L393.305 292.26H389.08V259.5H399.48V305H390.835L363.925 272.24H368.15V305H357.75ZM450.429 305.78C446.919 305.78 443.647 305.217 440.614 304.09C437.624 302.92 435.024 301.273 432.814 299.15C430.604 297.027 428.87 294.535 427.614 291.675C426.4 288.815 425.794 285.673 425.794 282.25C425.794 278.827 426.4 275.685 427.614 272.825C428.87 269.965 430.604 267.473 432.814 265.35C435.067 263.227 437.689 261.602 440.679 260.475C443.669 259.305 446.94 258.72 450.494 258.72C454.437 258.72 457.99 259.413 461.154 260.8C464.36 262.143 467.047 264.137 469.214 266.78L462.454 273.02C460.894 271.243 459.16 269.922 457.254 269.055C455.347 268.145 453.267 267.69 451.014 267.69C448.89 267.69 446.94 268.037 445.164 268.73C443.387 269.423 441.849 270.42 440.549 271.72C439.249 273.02 438.23 274.558 437.494 276.335C436.8 278.112 436.454 280.083 436.454 282.25C436.454 284.417 436.8 286.388 437.494 288.165C438.23 289.942 439.249 291.48 440.549 292.78C441.849 294.08 443.387 295.077 445.164 295.77C446.94 296.463 448.89 296.81 451.014 296.81C453.267 296.81 455.347 296.377 457.254 295.51C459.16 294.6 460.894 293.235 462.454 291.415L469.214 297.655C467.047 300.298 464.36 302.313 461.154 303.7C457.99 305.087 454.415 305.78 450.429 305.78ZM476.325 305V259.5H486.855V296.42H509.67V305H476.325ZM535.26 305.78C528.804 305.78 523.755 303.982 520.115 300.385C516.475 296.788 514.655 291.653 514.655 284.98V259.5H525.185V284.59C525.185 288.923 526.074 292.043 527.85 293.95C529.627 295.857 532.119 296.81 535.325 296.81C538.532 296.81 541.024 295.857 542.8 293.95C544.577 292.043 545.465 288.923 545.465 284.59V259.5H555.865V284.98C555.865 291.653 554.045 296.788 550.405 300.385C546.765 303.982 541.717 305.78 535.26 305.78ZM566.271 305V259.5H588.501C594.221 259.5 598.511 260.583 601.371 262.75C604.274 264.917 605.726 267.777 605.726 271.33C605.726 273.713 605.141 275.793 603.971 277.57C602.801 279.303 601.198 280.647 599.161 281.6C597.124 282.553 594.784 283.03 592.141 283.03L593.376 280.365C596.236 280.365 598.771 280.842 600.981 281.795C603.191 282.705 604.903 284.07 606.116 285.89C607.373 287.71 608.001 289.942 608.001 292.585C608.001 296.485 606.463 299.54 603.386 301.75C600.309 303.917 595.781 305 589.801 305H566.271ZM576.736 297.07H589.021C591.751 297.07 593.809 296.637 595.196 295.77C596.626 294.86 597.341 293.43 597.341 291.48C597.341 289.573 596.626 288.165 595.196 287.255C593.809 286.302 591.751 285.825 589.021 285.825H575.956V278.155H587.201C589.758 278.155 591.708 277.722 593.051 276.855C594.438 275.945 595.131 274.58 595.131 272.76C595.131 270.983 594.438 269.662 593.051 268.795C591.708 267.885 589.758 267.43 587.201 267.43H576.736V297.07Z" fill="white"/>
<path d="M123.395 305H121.395V307H123.395V305ZM123.395 259.5V257.5H121.395V259.5H123.395ZM133.925 259.5H135.925V257.5H133.925V259.5ZM133.925 305V307H135.925V305H133.925ZM125.395 305V259.5H121.395V305H125.395ZM123.395 261.5H133.925V257.5H123.395V261.5ZM131.925 259.5V305H135.925V259.5H131.925ZM133.925 303H123.395V307H133.925V303ZM154.148 305H152.148V307H154.148V305ZM154.148 268.08H156.148V266.08H154.148V268.08ZM139.588 268.08H137.588V270.08H139.588V268.08ZM139.588 259.5V257.5H137.588V259.5H139.588ZM179.238 259.5H181.238V257.5H179.238V259.5ZM179.238 268.08V270.08H181.238V268.08H179.238ZM164.678 268.08V266.08H162.678V268.08H164.678ZM164.678 305V307H166.678V305H164.678ZM156.148 305V268.08H152.148V305H156.148ZM154.148 266.08H139.588V270.08H154.148V266.08ZM141.588 268.08V259.5H137.588V268.08H141.588ZM139.588 261.5H179.238V257.5H139.588V261.5ZM177.238 259.5V268.08H181.238V259.5H177.238ZM179.238 266.08H164.678V270.08H179.238V266.08ZM162.678 268.08V305H166.678V268.08H162.678ZM164.678 303H154.148V307H164.678V303ZM189.071 304.35L188.499 306.266L188.51 306.27L188.522 306.273L189.071 304.35ZM181.011 300.515L179.188 299.693L178.536 301.139L179.795 302.103L181.011 300.515ZM184.586 292.585L185.745 290.955L183.763 289.545L182.763 291.763L184.586 292.585ZM191.476 296.03L190.825 297.921L190.844 297.927L190.862 297.933L191.476 296.03ZM204.606 296.745L205.199 298.655L205.219 298.649L205.239 298.642L204.606 296.745ZM207.466 294.99L205.923 293.719L207.466 294.99ZM206.946 289.595L205.724 291.178L205.747 291.195L205.77 291.212L206.946 289.595ZM203.176 287.84L202.592 289.753L202.616 289.76L202.641 289.767L203.176 287.84ZM197.976 286.54L197.523 288.488L197.549 288.494L197.576 288.499L197.976 286.54ZM192.321 284.98L191.702 286.882L191.715 286.886L192.321 284.98ZM187.186 282.64L186.144 284.347L187.186 282.64ZM183.351 278.87L181.645 279.913L181.655 279.93L181.666 279.947L183.351 278.87ZM184.001 265.805L182.332 264.703L182.327 264.711L184.001 265.805ZM190.371 260.67L191.186 262.497L191.199 262.491L190.371 260.67ZM209.546 259.76L209.061 261.7L209.076 261.704L209.09 261.707L209.546 259.76ZM216.891 262.75L218.744 263.503L219.374 261.954L217.961 261.06L216.891 262.75ZM213.641 270.745L212.649 272.481L214.634 273.615L215.494 271.498L213.641 270.745ZM207.271 268.08L206.722 270.003L206.74 270.008L206.759 270.013L207.271 268.08ZM196.026 267.885L195.338 266.007V266.007L196.026 267.885ZM193.231 269.77L194.82 270.985L194.837 270.963L194.853 270.941L193.231 269.77ZM193.816 275.23L192.594 276.813L192.617 276.83L192.64 276.847L193.816 275.23ZM197.586 276.92L197.051 278.847L197.586 276.92ZM202.721 278.22L202.268 280.168L202.278 280.17L202.721 278.22ZM208.376 279.715L207.798 281.629L207.81 281.633L208.376 279.715ZM213.576 281.99L214.619 280.283L213.576 281.99ZM217.346 285.76L215.64 286.803L215.65 286.82L215.661 286.837L217.346 285.76ZM216.696 298.695L218.355 299.812L216.696 298.695ZM210.261 303.83L209.434 302.009L209.423 302.014L210.261 303.83ZM199.536 303.78C196.073 303.78 192.77 303.327 189.621 302.427L188.522 306.273C192.046 307.28 195.72 307.78 199.536 307.78V303.78ZM189.644 302.434C186.462 301.483 184.016 300.297 182.228 298.927L179.795 302.103C182.08 303.853 185.007 305.223 188.499 306.266L189.644 302.434ZM182.835 301.337L186.41 293.407L182.763 291.763L179.188 299.693L182.835 301.337ZM183.427 294.215C185.557 295.729 188.031 296.959 190.825 297.921L192.127 294.139C189.635 293.281 187.516 292.214 185.745 290.955L183.427 294.215ZM190.862 297.933C193.741 298.862 196.656 299.33 199.601 299.33V295.33C197.087 295.33 194.586 294.931 192.09 294.127L190.862 297.933ZM199.601 299.33C201.78 299.33 203.673 299.129 205.199 298.655L204.014 294.835C203.027 295.141 201.583 295.33 199.601 295.33V299.33ZM205.239 298.642C206.748 298.139 208.082 297.388 209.01 296.261L205.923 293.719C205.637 294.065 205.065 294.484 203.974 294.848L205.239 298.642ZM209.01 296.261C209.911 295.167 210.376 293.873 210.376 292.455H206.376C206.376 292.944 206.235 293.34 205.923 293.719L209.01 296.261ZM210.376 292.455C210.376 290.624 209.611 289.06 208.123 287.978L205.77 291.212C206.188 291.517 206.376 291.859 206.376 292.455H210.376ZM208.169 288.012C206.954 287.073 205.44 286.393 203.712 285.913L202.641 289.767C204.033 290.154 205.032 290.643 205.724 291.178L208.169 288.012ZM203.761 285.927C202.13 285.429 200.334 284.981 198.377 284.581L197.576 288.499C199.432 288.879 201.103 289.298 202.592 289.753L203.761 285.927ZM198.429 284.592C196.62 284.171 194.786 283.665 192.928 283.074L191.715 286.886C193.67 287.508 195.606 288.042 197.523 288.488L198.429 284.592ZM192.941 283.078C191.215 282.516 189.647 281.8 188.229 280.933L186.144 284.347C187.846 285.387 189.701 286.23 191.702 286.882L192.941 283.078ZM188.229 280.933C186.932 280.141 185.872 279.101 185.037 277.793L181.666 279.947C182.824 281.759 184.321 283.233 186.144 284.347L188.229 280.933ZM185.058 277.827C184.35 276.668 183.921 275.066 183.921 272.89H179.921C179.921 275.567 180.447 277.952 181.645 279.913L185.058 277.827ZM183.921 272.89C183.921 270.668 184.507 268.688 185.676 266.899L182.327 264.711C180.722 267.169 179.921 269.912 179.921 272.89H183.921ZM185.671 266.907C186.854 265.114 188.651 263.627 191.186 262.496L189.557 258.844C186.458 260.226 184.009 262.163 182.332 264.703L185.671 266.907ZM191.199 262.491C193.722 261.344 196.994 260.72 201.096 260.72V256.72C196.619 256.72 192.74 257.396 189.544 258.849L191.199 262.491ZM201.096 260.72C203.793 260.72 206.447 261.047 209.061 261.7L210.031 257.82C207.099 257.087 204.12 256.72 201.096 256.72V260.72ZM209.09 261.707C211.675 262.313 213.911 263.231 215.822 264.44L217.961 261.06C215.625 259.582 212.965 258.507 210.003 257.813L209.09 261.707ZM215.039 261.997L211.789 269.992L215.494 271.498L218.744 263.503L215.039 261.997ZM214.634 269.009C212.377 267.719 210.093 266.759 207.784 266.147L206.759 270.013C208.697 270.527 210.66 271.345 212.649 272.481L214.634 269.009ZM207.821 266.157C205.534 265.504 203.269 265.17 201.031 265.17V269.17C202.867 269.17 204.762 269.443 206.722 270.003L207.821 266.157ZM201.031 265.17C198.86 265.17 196.936 265.421 195.338 266.007L196.715 269.763C197.717 269.395 199.129 269.17 201.031 269.17V265.17ZM195.338 266.007C193.82 266.564 192.489 267.383 191.61 268.599L194.853 270.941C195.101 270.597 195.632 270.16 196.715 269.763L195.338 266.007ZM191.643 268.555C190.792 269.667 190.386 270.969 190.386 272.37H194.386C194.386 271.778 194.544 271.346 194.82 270.985L191.643 268.555ZM190.386 272.37C190.386 274.181 191.167 275.71 192.594 276.813L195.039 273.647C194.559 273.276 194.386 272.899 194.386 272.37H190.386ZM192.64 276.847C193.844 277.723 195.341 278.372 197.051 278.847L198.122 274.993C196.712 274.601 195.695 274.123 194.993 273.613L192.64 276.847ZM197.051 278.847C198.643 279.289 200.382 279.729 202.268 280.168L203.174 276.272C201.334 275.844 199.65 275.418 198.122 274.993L197.051 278.847ZM202.278 280.17C204.139 280.593 205.979 281.08 207.798 281.629L208.955 277.801C207.047 277.224 205.117 276.713 203.165 276.27L202.278 280.17ZM207.81 281.633C209.564 282.151 211.135 282.842 212.534 283.697L214.619 280.283C212.898 279.232 211.003 278.405 208.943 277.797L207.81 281.633ZM212.534 283.697C213.823 284.484 214.852 285.514 215.64 286.803L219.053 284.717C217.934 282.886 216.45 281.402 214.619 280.283L212.534 283.697ZM215.661 286.837C216.401 287.995 216.841 289.565 216.841 291.675H220.841C220.841 289.018 220.285 286.645 219.032 284.683L215.661 286.837ZM216.841 291.675C216.841 293.833 216.245 295.784 215.038 297.578L218.355 299.812C220.007 297.359 220.841 294.63 220.841 291.675H216.841ZM215.038 297.578C213.857 299.331 212.033 300.828 209.434 302.009L211.089 305.651C214.209 304.232 216.676 302.305 218.355 299.812L215.038 297.578ZM209.423 302.014C206.952 303.155 203.688 303.78 199.536 303.78V307.78C204.052 307.78 207.937 307.105 211.1 305.646L209.423 302.014ZM244.445 305H242.445V307H244.445V305ZM244.445 259.5V257.5H242.445V259.5H244.445ZM253.155 259.5L254.867 258.467L254.284 257.5H253.155V259.5ZM272.525 291.61V293.61H276.067L274.237 290.577L272.525 291.61ZM267.91 291.61L266.19 290.59L264.398 293.61H267.91V291.61ZM286.955 259.5V257.5H285.816L285.235 258.48L286.955 259.5ZM295.6 259.5L297.6 259.494L297.594 257.5H295.6V259.5ZM295.73 305V307H297.736L297.73 304.994L295.73 305ZM285.85 305L283.85 305.004L283.854 307H285.85V305ZM285.785 274.645V272.645H283.781L283.785 274.649L285.785 274.645ZM287.605 274.645L289.323 275.668L291.123 272.645H287.605V274.645ZM272.395 300.19V302.19H273.532L274.113 301.213L272.395 300.19ZM267.65 300.19L265.941 301.229L266.525 302.19H267.65V300.19ZM252.115 274.645V272.645H248.558L250.406 275.684L252.115 274.645ZM254.325 274.645H256.325V272.645H254.325V274.645ZM254.325 305V307H256.325V305H254.325ZM246.445 305V259.5H242.445V305H246.445ZM244.445 261.5H253.155V257.5H244.445V261.5ZM251.442 260.533L270.812 292.643L274.237 290.577L254.867 258.467L251.442 260.533ZM272.525 289.61H267.91V293.61H272.525V289.61ZM269.63 292.63L288.675 260.52L285.235 258.48L266.19 290.59L269.63 292.63ZM286.955 261.5H295.6V257.5H286.955V261.5ZM293.6 259.506L293.73 305.006L297.73 304.994L297.6 259.494L293.6 259.506ZM295.73 303H285.85V307H295.73V303ZM287.85 304.996L287.785 274.641L283.785 274.649L283.85 305.004L287.85 304.996ZM285.785 276.645H287.605V272.645H285.785V276.645ZM285.886 273.622L270.676 299.167L274.113 301.213L289.323 275.668L285.886 273.622ZM272.395 298.19H267.65V302.19H272.395V298.19ZM269.359 299.151L253.824 273.606L250.406 275.684L265.941 301.229L269.359 299.151ZM252.115 276.645H254.325V272.645H252.115V276.645ZM252.325 274.645V305H256.325V274.645H252.325ZM254.325 303H244.445V307H254.325V303ZM311.595 300.385L313.001 298.962L311.595 300.385ZM306.135 259.5V257.5H304.135V259.5H306.135ZM316.665 259.5H318.665V257.5H316.665V259.5ZM319.33 293.95L317.867 295.313L319.33 293.95ZM334.28 293.95L335.743 295.313V295.313L334.28 293.95ZM336.945 259.5V257.5H334.945V259.5H336.945ZM347.345 259.5H349.345V257.5H347.345V259.5ZM341.885 300.385L343.291 301.808L341.885 300.385ZM326.74 303.78C320.665 303.78 316.175 302.098 313.001 298.962L310.189 301.808C314.295 305.865 319.902 307.78 326.74 307.78V303.78ZM313.001 298.962C309.847 295.846 308.135 291.288 308.135 284.98H304.135C304.135 292.018 306.063 297.731 310.189 301.808L313.001 298.962ZM308.135 284.98V259.5H304.135V284.98H308.135ZM306.135 261.5H316.665V257.5H306.135V261.5ZM314.665 259.5V284.59H318.665V259.5H314.665ZM314.665 284.59C314.665 289.115 315.578 292.857 317.867 295.313L320.793 292.587C319.528 291.229 318.665 288.731 318.665 284.59H314.665ZM317.867 295.313C320.106 297.717 323.181 298.81 326.805 298.81V294.81C324.016 294.81 322.107 293.997 320.793 292.587L317.867 295.313ZM326.805 298.81C330.429 298.81 333.504 297.717 335.743 295.313L332.817 292.587C331.503 293.997 329.594 294.81 326.805 294.81V298.81ZM335.743 295.313C338.032 292.857 338.945 289.115 338.945 284.59H334.945C334.945 288.731 334.081 291.229 332.817 292.587L335.743 295.313ZM338.945 284.59V259.5H334.945V284.59H338.945ZM336.945 261.5H347.345V257.5H336.945V261.5ZM345.345 259.5V284.98H349.345V259.5H345.345ZM345.345 284.98C345.345 291.288 343.633 295.846 340.479 298.962L343.291 301.808C347.417 297.731 349.345 292.018 349.345 284.98H345.345ZM340.479 298.962C337.305 302.098 332.815 303.78 326.74 303.78V307.78C333.578 307.78 339.185 305.865 343.291 301.808L340.479 298.962ZM357.75 305H355.75V307H357.75V305ZM357.75 259.5V257.5H355.75V259.5H357.75ZM366.46 259.5L368.007 258.232L367.407 257.5H366.46V259.5ZM393.305 292.26V294.26H397.53L394.852 290.992L393.305 292.26ZM389.08 292.26H387.08V294.26H389.08V292.26ZM389.08 259.5V257.5H387.08V259.5H389.08ZM399.48 259.5H401.48V257.5H399.48V259.5ZM399.48 305V307H401.48V305H399.48ZM390.835 305L389.29 306.269L389.89 307H390.835V305ZM363.925 272.24V270.24H359.694L362.38 273.509L363.925 272.24ZM368.15 272.24H370.15V270.24H368.15V272.24ZM368.15 305V307H370.15V305H368.15ZM359.75 305V259.5H355.75V305H359.75ZM357.75 261.5H366.46V257.5H357.75V261.5ZM364.914 260.768L391.759 293.528L394.852 290.992L368.007 258.232L364.914 260.768ZM393.305 290.26H389.08V294.26H393.305V290.26ZM391.08 292.26V259.5H387.08V292.26H391.08ZM389.08 261.5H399.48V257.5H389.08V261.5ZM397.48 259.5V305H401.48V259.5H397.48ZM399.48 303H390.835V307H399.48V303ZM392.381 303.731L365.471 270.971L362.38 273.509L389.29 306.269L392.381 303.731ZM363.925 274.24H368.15V270.24H363.925V274.24ZM366.15 272.24V305H370.15V272.24H366.15ZM368.15 303H357.75V307H368.15V303ZM440.614 304.09L439.885 305.952L439.901 305.959L439.917 305.965L440.614 304.09ZM432.814 299.15L431.428 300.592L432.814 299.15ZM427.614 291.675L425.773 292.456L425.778 292.468L425.783 292.48L427.614 291.675ZM427.614 272.825L425.783 272.02L425.778 272.032L425.773 272.044L427.614 272.825ZM432.814 265.35L431.442 263.894L431.435 263.901L431.428 263.908L432.814 265.35ZM440.679 260.475L441.384 262.347L441.396 262.342L441.408 262.337L440.679 260.475ZM461.154 260.8L460.351 262.632L460.366 262.638L460.381 262.645L461.154 260.8ZM469.214 266.78L470.57 268.25L471.956 266.971L470.761 265.512L469.214 266.78ZM462.454 273.02L460.951 274.34L462.304 275.88L463.81 274.49L462.454 273.02ZM457.254 269.055L456.392 270.86L456.409 270.868L456.426 270.876L457.254 269.055ZM440.549 271.72L441.963 273.134V273.134L440.549 271.72ZM437.494 276.335L435.646 275.569L435.638 275.588L435.631 275.608L437.494 276.335ZM437.494 288.165L435.631 288.892L435.638 288.912L435.646 288.931L437.494 288.165ZM440.549 292.78L439.135 294.194L440.549 292.78ZM457.254 295.51L458.081 297.331L458.098 297.323L458.115 297.315L457.254 295.51ZM462.454 291.415L463.81 289.945L462.286 288.538L460.935 290.113L462.454 291.415ZM469.214 297.655L470.761 298.923L471.956 297.464L470.57 296.185L469.214 297.655ZM461.154 303.7L460.36 301.864L460.351 301.868L461.154 303.7ZM450.429 303.78C447.136 303.78 444.102 303.252 441.31 302.215L439.917 305.965C443.192 307.181 446.701 307.78 450.429 307.78V303.78ZM441.343 302.228C438.585 301.149 436.211 299.641 434.199 297.708L431.428 300.592C433.836 302.906 436.662 304.691 439.885 305.952L441.343 302.228ZM434.199 297.708C432.182 295.769 430.598 293.496 429.445 290.87L425.783 292.48C427.143 295.574 429.026 298.284 431.428 300.592L434.199 297.708ZM429.455 290.894C428.357 288.305 427.794 285.432 427.794 282.25H423.794C423.794 285.914 424.444 289.325 425.773 292.456L429.455 290.894ZM427.794 282.25C427.794 279.068 428.357 276.195 429.455 273.606L425.773 272.044C424.444 275.175 423.794 278.586 423.794 282.25H427.794ZM429.445 273.63C430.598 271.004 432.182 268.731 434.199 266.792L431.428 263.908C429.026 266.216 427.143 268.926 425.783 272.02L429.445 273.63ZM434.185 266.806C436.24 264.869 438.633 263.383 441.384 262.347L439.974 258.603C436.744 259.82 433.894 261.584 431.442 263.894L434.185 266.806ZM441.408 262.337C444.142 261.268 447.163 260.72 450.494 260.72V256.72C446.718 256.72 443.196 257.342 439.95 258.613L441.408 262.337ZM450.494 260.72C454.2 260.72 457.474 261.371 460.351 262.632L461.957 258.968C458.507 257.456 454.674 256.72 450.494 256.72V260.72ZM460.381 262.645C463.292 263.864 465.711 265.662 467.667 268.048L470.761 265.512C468.383 262.612 465.429 260.423 461.927 258.955L460.381 262.645ZM467.857 265.31L461.097 271.55L463.81 274.49L470.57 268.25L467.857 265.31ZM463.957 271.7C462.234 269.738 460.277 268.232 458.081 267.234L456.426 270.876C458.043 271.611 459.554 272.748 460.951 274.34L463.957 271.7ZM458.115 267.25C455.922 266.203 453.545 265.69 451.014 265.69V269.69C452.989 269.69 454.772 270.087 456.392 270.86L458.115 267.25ZM451.014 265.69C448.67 265.69 446.47 266.073 444.437 266.867L445.891 270.593C447.411 270 449.111 269.69 451.014 269.69V265.69ZM444.437 266.867C442.412 267.657 440.637 268.803 439.135 270.306L441.963 273.134C443.06 272.037 444.362 271.19 445.891 270.593L444.437 266.867ZM439.135 270.306C437.641 271.8 436.479 273.561 435.646 275.569L439.341 277.101C439.982 275.555 440.857 274.24 441.963 273.134L439.135 270.306ZM435.631 275.608C434.835 277.646 434.454 279.868 434.454 282.25H438.454C438.454 280.299 438.766 278.578 439.357 277.062L435.631 275.608ZM434.454 282.25C434.454 284.632 434.835 286.854 435.631 288.892L439.357 287.438C438.766 285.922 438.454 284.201 438.454 282.25H434.454ZM435.646 288.931C436.479 290.939 437.641 292.7 439.135 294.194L441.963 291.366C440.857 290.26 439.982 288.945 439.341 287.399L435.646 288.931ZM439.135 294.194C440.637 295.697 442.412 296.843 444.437 297.633L445.891 293.907C444.362 293.31 443.06 292.463 441.963 291.366L439.135 294.194ZM444.437 297.633C446.47 298.427 448.67 298.81 451.014 298.81V294.81C449.111 294.81 447.411 294.5 445.891 293.907L444.437 297.633ZM451.014 298.81C453.531 298.81 455.896 298.324 458.081 297.331L456.426 293.689C454.799 294.429 453.004 294.81 451.014 294.81V298.81ZM458.115 297.315C460.305 296.27 462.255 294.72 463.972 292.717L460.935 290.113C459.532 291.75 458.016 292.93 456.392 293.705L458.115 297.315ZM461.097 292.885L467.857 299.125L470.57 296.185L463.81 289.945L461.097 292.885ZM467.667 296.387C465.707 298.778 463.281 300.601 460.36 301.864L461.948 305.536C465.44 304.025 468.387 301.818 470.761 298.923L467.667 296.387ZM460.351 301.868C457.477 303.128 454.181 303.78 450.429 303.78V307.78C454.65 307.78 458.504 307.045 461.957 305.532L460.351 301.868ZM476.325 305H474.325V307H476.325V305ZM476.325 259.5V257.5H474.325V259.5H476.325ZM486.855 259.5H488.855V257.5H486.855V259.5ZM486.855 296.42H484.855V298.42H486.855V296.42ZM509.67 296.42H511.67V294.42H509.67V296.42ZM509.67 305V307H511.67V305H509.67ZM478.325 305V259.5H474.325V305H478.325ZM476.325 261.5H486.855V257.5H476.325V261.5ZM484.855 259.5V296.42H488.855V259.5H484.855ZM486.855 298.42H509.67V294.42H486.855V298.42ZM507.67 296.42V305H511.67V296.42H507.67ZM509.67 303H476.325V307H509.67V303ZM520.115 300.385L521.521 298.962L520.115 300.385ZM514.655 259.5V257.5H512.655V259.5H514.655ZM525.185 259.5H527.185V257.5H525.185V259.5ZM527.85 293.95L526.387 295.313L527.85 293.95ZM542.8 293.95L544.264 295.313V295.313L542.8 293.95ZM545.465 259.5V257.5H543.465V259.5H545.465ZM555.865 259.5H557.865V257.5H555.865V259.5ZM550.405 300.385L551.811 301.808L550.405 300.385ZM535.26 303.78C529.185 303.78 524.695 302.098 521.521 298.962L518.71 301.808C522.816 305.865 528.422 307.78 535.26 307.78V303.78ZM521.521 298.962C518.367 295.846 516.655 291.288 516.655 284.98H512.655C512.655 292.018 514.584 297.731 518.71 301.808L521.521 298.962ZM516.655 284.98V259.5H512.655V284.98H516.655ZM514.655 261.5H525.185V257.5H514.655V261.5ZM523.185 259.5V284.59H527.185V259.5H523.185ZM523.185 284.59C523.185 289.115 524.099 292.857 526.387 295.313L529.314 292.587C528.049 291.229 527.185 288.731 527.185 284.59H523.185ZM526.387 295.313C528.627 297.717 531.701 298.81 535.325 298.81V294.81C532.536 294.81 530.628 293.997 529.314 292.587L526.387 295.313ZM535.325 298.81C538.95 298.81 542.024 297.717 544.264 295.313L541.337 292.587C540.023 293.997 538.114 294.81 535.325 294.81V298.81ZM544.264 295.313C546.552 292.857 547.465 289.115 547.465 284.59H543.465C543.465 288.731 542.602 291.229 541.337 292.587L544.264 295.313ZM547.465 284.59V259.5H543.465V284.59H547.465ZM545.465 261.5H555.865V257.5H545.465V261.5ZM553.865 259.5V284.98H557.865V259.5H553.865ZM553.865 284.98C553.865 291.288 552.154 295.846 549 298.962L551.811 301.808C555.937 297.731 557.865 292.018 557.865 284.98H553.865ZM549 298.962C545.826 302.098 541.336 303.78 535.26 303.78V307.78C542.099 307.78 547.705 305.865 551.811 301.808L549 298.962ZM566.271 305H564.271V307H566.271V305ZM566.271 259.5V257.5H564.271V259.5H566.271ZM601.371 262.75L600.163 264.344L600.169 264.349L600.175 264.353L601.371 262.75ZM603.971 277.57L605.629 278.689L605.635 278.679L605.641 278.67L603.971 277.57ZM599.161 281.6L600.009 283.411L599.161 281.6ZM592.141 283.03L590.326 282.189L589.01 285.03H592.141V283.03ZM593.376 280.365V278.365H592.098L591.561 279.524L593.376 280.365ZM600.981 281.795L600.189 283.631L600.204 283.638L600.219 283.644L600.981 281.795ZM606.116 285.89L604.452 286.999L604.461 287.013L604.47 287.026L606.116 285.89ZM603.386 301.75L604.538 303.385L604.545 303.38L604.553 303.374L603.386 301.75ZM576.736 297.07H574.736V299.07H576.736V297.07ZM595.196 295.77L596.256 297.466L596.263 297.462L596.27 297.457L595.196 295.77ZM595.196 287.255L594.063 288.903L594.092 288.923L594.122 288.942L595.196 287.255ZM575.956 285.825H573.956V287.825H575.956V285.825ZM575.956 278.155V276.155H573.956V278.155H575.956ZM593.051 276.855L594.135 278.536L594.142 278.531L594.148 278.527L593.051 276.855ZM593.051 268.795L591.929 270.451L591.96 270.471L591.991 270.491L593.051 268.795ZM576.736 267.43V265.43H574.736V267.43H576.736ZM568.271 305V259.5H564.271V305H568.271ZM566.271 261.5H588.501V257.5H566.271V261.5ZM588.501 261.5C594.025 261.5 597.803 262.556 600.163 264.344L602.579 261.156C599.219 258.61 594.416 257.5 588.501 257.5V261.5ZM600.175 264.353C602.584 266.151 603.726 268.422 603.726 271.33H607.726C607.726 267.131 605.965 263.683 602.567 261.147L600.175 264.353ZM603.726 271.33C603.726 273.371 603.23 275.058 602.301 276.47L605.641 278.67C607.052 276.528 607.726 274.056 607.726 271.33H603.726ZM602.313 276.451C601.361 277.862 600.048 278.977 598.313 279.789L600.009 283.411C602.348 282.317 604.241 280.745 605.629 278.689L602.313 276.451ZM598.313 279.789C596.584 280.598 594.542 281.03 592.141 281.03V285.03C595.026 285.03 597.664 284.509 600.009 283.411L598.313 279.789ZM593.956 283.871L595.191 281.206L591.561 279.524L590.326 282.189L593.956 283.871ZM593.376 282.365C596.014 282.365 598.271 282.804 600.189 283.631L601.773 279.959C599.271 278.879 596.458 278.365 593.376 278.365V282.365ZM600.219 283.644C602.097 284.418 603.48 285.541 604.452 286.999L607.78 284.781C606.326 282.599 604.285 280.992 601.742 279.946L600.219 283.644ZM604.47 287.026C605.454 288.451 606.001 290.267 606.001 292.585H610.001C610.001 289.617 609.291 286.969 607.762 284.754L604.47 287.026ZM606.001 292.585C606.001 295.864 604.755 298.304 602.219 300.126L604.553 303.374C608.171 300.776 610.001 297.106 610.001 292.585H606.001ZM602.234 300.115C599.641 301.941 595.593 303 589.801 303V307C595.969 307 600.978 305.892 604.538 303.385L602.234 300.115ZM589.801 303H566.271V307H589.801V303ZM576.736 299.07H589.021V295.07H576.736V299.07ZM589.021 299.07C591.902 299.07 594.404 298.624 596.256 297.466L594.136 294.074C593.215 294.65 591.6 295.07 589.021 295.07V299.07ZM596.27 297.457C598.372 296.12 599.341 293.993 599.341 291.48H595.341C595.341 292.867 594.88 293.6 594.122 294.083L596.27 297.457ZM599.341 291.48C599.341 288.991 598.357 286.896 596.27 285.568L594.122 288.942C594.895 289.434 595.341 290.156 595.341 291.48H599.341ZM596.329 285.607C594.46 284.322 591.926 283.825 589.021 283.825V287.825C591.576 287.825 593.159 288.281 594.063 288.903L596.329 285.607ZM589.021 283.825H575.956V287.825H589.021V283.825ZM577.956 285.825V278.155H573.956V285.825H577.956ZM575.956 280.155H587.201V276.155H575.956V280.155ZM587.201 280.155C589.932 280.155 592.329 279.701 594.135 278.536L591.967 275.174C591.087 275.742 589.583 276.155 587.201 276.155V280.155ZM594.148 278.527C596.16 277.207 597.131 275.176 597.131 272.76H593.131C593.131 273.984 592.715 274.683 591.954 275.183L594.148 278.527ZM597.131 272.76C597.131 270.365 596.141 268.367 594.111 267.099L591.991 270.491C592.735 270.956 593.131 271.601 593.131 272.76H597.131ZM594.173 267.139C592.358 265.91 589.945 265.43 587.201 265.43V269.43C589.57 269.43 591.057 269.86 591.929 270.451L594.173 267.139ZM587.201 265.43H576.736V269.43H587.201V265.43ZM574.736 267.43V297.07H578.736V267.43H574.736Z" fill="#8D314D" mask="url(#path-3-outside-1_1016_1222)"/>
</g>
<g filter="url(#filter4_d_1016_1222)">
<path d="M578.507 573.772C571.778 583.093 563.792 589.456 554.908 594.834C530.053 609.981 503.852 612.669 476.484 603.08C457.64 596.447 441.668 584.975 426.325 572.517C416.544 564.541 406.045 558.088 392.676 559.253C390.163 559.432 387.561 560.149 384.6 561.941C388.01 564.182 391.33 566.512 394.919 568.574C417.082 581.301 436.644 597.344 454.59 615.358C458.089 618.854 458.448 621.363 455.307 625.127C447.142 634.897 445.706 635.076 437.272 625.575C420.313 606.396 402.097 588.56 381.1 573.772C368.628 564.989 364.321 564.989 351.579 573.503C328.608 588.919 308.688 607.471 292.178 629.609C288.229 634.897 286.345 634.807 281.5 630.057C273.155 621.811 273.155 621.094 281.5 612.669C299.984 593.848 320.622 577.984 343.503 564.899C345.208 563.913 346.823 562.838 349.874 560.956C341.619 558.088 334.171 557.55 328.07 560.776C316.494 566.961 304.919 573.503 294.78 581.659C274.949 597.523 253.863 609.801 227.841 610.608C199.486 611.594 175.528 601.108 155.877 580.763C155.069 579.956 154.711 578.791 153.634 576.909C156.326 577.626 158.12 577.805 159.646 578.522C188.988 591.966 217.612 589.098 245.787 574.758C264.989 564.989 284.55 556.116 305.817 551.366C323.224 547.512 340.542 547.333 357.591 552.889C363.693 554.861 369.077 554.861 375.268 552.8C397.521 545.45 419.864 546.526 441.668 554.323C457.282 559.88 472.625 566.512 487.7 573.593C517.221 587.664 546.474 589.636 575.995 573.772C576.264 573.593 576.713 573.772 578.507 573.772Z" fill="white"/>
<path d="M611.797 382.153C607.849 406.531 604.529 429.117 600.491 451.703C597.082 470.793 587.121 486.746 574.739 501.355C573.482 502.879 572.137 504.402 571.329 506.733C572.406 506.195 573.752 505.926 574.559 505.03C591.787 486.567 613.951 475.274 635.666 463.444C656.393 452.151 675.327 438.797 687.889 418.093C688.248 417.466 688.966 417.107 689.504 416.569C690.042 416.749 690.491 417.018 691.029 417.197C689.594 422.037 688.696 427.145 686.543 431.716C670.661 466.312 647.51 494.275 611.797 509.869C603.452 513.544 594.569 516.054 585.776 518.294C572.944 521.431 559.933 523.851 547.012 526.54C545.666 526.809 544.32 526.988 541.808 527.346C546.294 520.714 550.512 515.157 554.011 509.152C564.509 491.048 570.252 471.151 575.726 451.165C582.007 428.131 592.775 407.428 606.683 388.158C607.849 386.455 609.375 384.932 611.797 382.153Z" fill="white"/>
<path d="M120.164 388.247C124.741 394.969 129.586 401.601 133.983 408.413C146.096 427.234 153.095 448.117 159.197 469.448C164.94 489.524 172.926 508.435 186.385 524.657C187.193 525.553 187.731 526.629 188.36 527.704C188.539 527.973 188.36 528.421 188.36 529.317C172.836 526.449 157.133 524.209 141.789 520.713C89.656 508.972 58.2504 474.825 40.2146 426.248C39.6762 424.725 39.6762 423.022 39.2275 419.974C41.1119 421.498 41.8297 421.857 42.1886 422.484C54.8406 444.621 75.2992 457.617 97.1934 468.91C115.947 478.589 134.521 488.628 150.045 503.326C151.032 504.312 152.198 505.208 153.365 506.015C155.07 507.09 156.774 508.076 159.377 508.345C157.133 505.836 154.8 503.326 152.557 500.817C138.559 484.953 130.932 466.221 127.612 445.607C124.561 426.876 121.959 408.054 119.088 389.233C119.447 388.874 119.805 388.516 120.164 388.247Z" fill="white"/>
<path d="M121.779 469.269C113.973 463.891 107.064 459.141 100.154 454.391C81.6699 441.485 63.3648 428.4 47.9312 411.819C30.344 392.998 19.4867 370.86 15.5385 345.586C14.372 337.789 15.3591 329.543 16.1666 321.298C17.7818 325.062 19.4867 328.916 21.1018 332.68C28.8186 350.067 41.2912 363.959 54.0329 377.672C67.0438 391.743 78.9779 406.531 88.1304 423.381C89.2969 425.442 91.0018 427.145 93.0656 429.655C93.2451 428.221 93.5143 427.593 93.3348 427.145C81.4007 403.036 81.7596 377.762 86.3358 352.129C88.6688 338.595 91.0915 325.151 93.6937 310.542C98.6289 322.463 101.321 334.024 102.577 345.855C105.089 370.054 106.615 394.432 110.025 418.541C112.088 433.06 116.844 447.221 120.523 461.561C120.882 462.906 121.51 464.25 121.869 465.594C121.959 466.311 121.779 467.118 121.779 469.269Z" fill="white"/>
<path d="M453.603 547.063C457.102 545.808 460.602 544.285 464.191 543.299C484.29 537.742 498.468 524.029 512.376 509.51C526.643 494.632 541.449 480.202 556.075 465.683C557.6 464.159 559.484 462.994 562.266 462.277C558.677 470.702 555.626 479.396 551.498 487.641C545.845 499.024 540.103 510.406 533.104 520.982C526.553 530.841 516.593 536.935 505.198 540.61C503.044 541.327 500.89 542.402 498.827 543.209C499.006 543.747 499.186 544.285 499.275 544.822C505.108 543.657 510.851 542.223 516.773 541.506C535.706 539.176 554.729 536.935 573.662 534.963C596.364 532.633 617.361 526.359 634.589 510.227C635.037 510.585 635.486 510.944 635.935 511.213C633.961 514.619 632.435 518.293 630.013 521.34C601.119 557.639 564.42 574.219 517.939 564.361C496.404 559.79 475.138 553.695 453.692 548.318C453.692 548.049 453.603 547.601 453.603 547.063Z" fill="white"/>
<path d="M277.372 550.648C273.155 551.724 268.937 552.799 264.81 553.785C244.082 558.715 223.534 564.899 202.537 568.394C170.682 573.592 142.058 564.54 118.1 542.941C110.294 535.95 104.013 527.346 97.1932 519.369C95.937 517.935 95.3088 516.053 95.3986 513.454C98.0905 515.605 100.782 517.846 103.564 519.907C120.254 532.544 139.905 536.846 160.094 538.459C184.411 540.341 208.818 541.417 232.596 547.511C233.135 547.691 233.763 547.422 234.75 546.346C232.686 545.54 230.712 544.464 228.648 543.837C209.984 538.639 197.332 526.181 188.628 509.6C181.271 495.618 175.079 481.01 168.349 466.759C168.26 466.49 168.529 466.042 168.978 464.07C175.528 469.717 181.899 474.467 187.552 480.024C201.28 493.557 214.74 507.27 228.02 521.162C240.313 534.068 255.926 541.148 272.168 547.332C273.962 548.049 275.757 548.677 277.551 549.394C277.372 549.752 277.372 550.2 277.372 550.648Z" fill="white"/>
<path d="M637.46 305.702C640.601 329.184 644.19 352.576 646.612 376.058C648.138 390.846 644.459 405.097 638.806 418.72C638.088 420.512 637.46 422.394 637.998 424.904C642.844 417.375 647.241 409.399 652.624 402.318C662.854 388.964 673.262 375.789 684.299 363.152C695.516 350.335 705.027 336.712 711.129 320.759C711.308 320.311 711.846 319.952 713.641 319.594C713.641 325.957 714 332.321 713.551 338.595C711.667 363.69 700.002 384.483 684.748 403.752C667.609 425.262 644.549 439.423 622.744 455.197C618.527 458.244 614.309 461.292 609.464 464.787C609.464 463.084 609.285 462.457 609.464 461.919C621.398 431.895 621.667 400.078 624.718 368.709C626.603 349.798 630.461 331.156 633.512 312.334C633.96 309.914 635.306 307.584 636.204 305.254C636.652 305.433 637.101 305.612 637.46 305.702Z" fill="white"/>
<path d="M95.7576 219.572C95.3986 227.101 95.3089 233.643 94.7705 240.096C92.1683 271.017 84.3618 300.773 75.8374 330.439C71.7098 344.779 69.7357 359.388 71.4406 374.355C71.5303 375.251 71.3509 376.237 70.0049 377.671C67.7617 374.445 65.6081 371.218 63.3649 368.081C53.8534 355.175 43.6242 342.717 35.0101 329.274C21.9094 308.839 16.1667 285.805 15.1796 261.786C14.5515 245.384 13.7439 228.893 19.1278 212.94C19.8456 210.699 20.5635 208.548 21.9991 206.308C21.5505 232.03 32.5873 254.257 41.3809 277.381C47.4826 293.603 50.9821 310.811 55.6481 327.571C56.4556 330.618 57.0837 333.755 58.7886 336.713C58.6092 332.859 58.5194 328.915 58.2502 325.061C56.5454 299.697 65.6081 277.381 77.2731 255.602C83.3748 244.309 89.1175 232.478 95.7576 219.572Z" fill="white"/>
<path d="M708.168 200.303C709.513 204.784 711.667 209.265 712.116 213.836C714.808 244.667 716.871 275.767 704.04 304.985C697.669 319.325 688.337 332.321 679.813 345.585C673.532 355.444 666.443 364.765 658.188 373.997C658.098 372.383 657.739 370.77 657.918 369.157C660.341 350.963 656.842 333.486 651.458 316.368C642.575 287.956 636.114 259.187 633.332 229.521C632.973 226.204 633.332 222.799 634.678 219.034C635.845 221.454 636.832 223.874 638.088 226.204C646.074 241.262 653.97 256.319 662.046 271.286C671.378 288.584 673.711 306.957 671.558 326.137C671.378 327.571 671.378 328.915 672.096 330.708C672.724 329.184 673.621 327.75 673.801 326.226C676.941 301.4 685.645 278.277 695.157 255.333C702.066 238.662 706.193 221.365 706.193 203.26C706.193 202.364 706.463 201.468 706.642 200.572C707.091 200.482 707.629 200.392 708.168 200.303Z" fill="white"/>
<path d="M671.647 99.9224C673.352 102.342 675.146 104.583 676.672 107.092C701.527 147.065 703.681 188.92 687.529 232.568C684.119 241.62 681.786 251.12 679.094 260.441C677.928 264.295 677.031 268.149 675.415 272.093C667.788 243.502 648.317 221.992 633.242 197.883C623.372 182.109 616.193 165.17 612.245 146.976C611.976 145.811 611.886 144.645 611.617 142.763C612.873 143.48 613.681 143.66 614.13 144.108C625.795 156.476 637.19 169.113 649.035 181.302C660.879 193.402 668.865 207.294 671.557 224.143C671.826 225.667 672.454 227.19 673.711 228.714C673.711 225.756 674.07 222.709 673.621 219.841C670.48 196.09 673.083 172.429 674.877 148.768C676.133 132.456 675.864 116.413 670.121 100.819C670.749 100.55 671.198 100.281 671.647 99.9224Z" fill="white"/>
<path d="M54.3021 275.588C50.8924 265.371 47.5723 256.05 44.7907 246.639C40.035 230.148 34.0231 213.746 31.3311 196.807C26.2165 164.273 35.1896 134.518 53.1356 107.182C53.674 106.375 54.3919 105.569 55.1097 104.852C55.2892 104.672 55.8275 104.762 56.7249 104.672C55.6481 108.526 54.5713 112.111 53.674 115.786C50.1745 130.036 50.7129 144.376 52.7767 158.716C56.0967 181.661 57.5324 204.694 55.1097 227.907C54.8405 230.417 55.1097 232.926 55.1097 237.228C57.6222 228.355 59.1476 221.006 61.66 214.105C67.2233 199.137 77.3629 187.217 88.1305 175.745C96.0268 167.321 103.744 158.716 111.55 150.202C112.178 149.485 112.986 149.037 115.05 148.947C114.152 153.339 113.524 157.82 112.358 162.212C107.153 182.557 97.0138 200.572 85.4386 217.78C73.7736 235.077 62.5573 252.375 56.2762 272.361C56.007 273.258 55.2892 273.975 54.3021 275.588Z" fill="white"/>
<path d="M580.93 74.9172C589.544 83.4316 597.261 92.3045 606.323 99.5642C620.949 111.126 636.114 121.971 647.869 137.207C645.894 128.603 643.831 119.999 641.857 111.395C639.703 102.074 637.55 92.8423 635.486 83.5212C632.435 70.0774 627.41 57.6195 617.271 47.5815C617.629 47.1333 618.078 46.5956 618.437 46.1475C621.578 47.5815 624.987 48.5673 627.769 50.5391C651.637 67.2094 663.302 90.6912 664.11 119.371C664.558 133.174 663.302 146.976 662.943 160.778C662.764 167.231 662.943 173.684 662.943 181.571C658.636 176.015 655.496 170.906 651.368 166.873C639.344 155.401 627.231 144.108 614.668 133.174C598.517 119.192 587.121 102.432 582.276 81.5495C581.558 79.3088 581.289 77.0682 580.93 74.9172Z" fill="white"/>
<path d="M144.481 83.8796C144.391 90.0637 141.071 98.6678 136.585 106.913C128.509 121.881 117.024 133.98 104.551 145.542C91.8991 157.193 80.5033 170.099 68.5692 182.467C67.7616 183.274 67.1335 184.17 65.7875 184.798C66.3259 158.269 60.2242 132.188 65.1594 105.838C69.5562 82.1767 82.6569 64.879 102.936 52.5107C104.372 51.6145 106.166 51.256 108.679 51.5248C106.166 54.9306 103.564 58.2467 101.231 61.8317C93.8732 73.1245 90.9121 85.941 88.2201 98.9366C84.9898 114.352 81.8493 129.768 78.4395 146.438C82.926 140.164 86.1563 133.98 90.9121 129.409C100.423 120.357 110.742 112.112 120.792 103.597C129.047 96.6064 137.482 89.6156 144.481 83.8796Z" fill="white"/>
<path d="M548.627 11.6416C585.596 13.4341 630.192 65.4168 629.205 105.21C593.851 81.1012 575.456 43.0105 548.627 11.6416Z" fill="white"/>
<path d="M176.515 14.3306C174.451 17.2882 173.464 18.7222 172.477 20.1562C162.248 34.4963 151.929 48.7467 141.968 63.1764C130.034 80.4741 115.229 94.9038 98.8979 108.258C96.2957 99.7435 104.91 70.1672 116.395 54.4827C131.111 34.2274 150.852 21.5902 176.515 14.3306Z" fill="white"/>
</g>
</g>
<defs>
<filter id="filter0_d_1016_1222" x="10.7271" y="11.6416" width="707.405" height="629.957" filterUnits="userSpaceOnUse" color-interpolation-filters="sRGB">
<feFlood flood-opacity="0" result="BackgroundImageFix"/>
<feColorMatrix in="SourceAlpha" type="matrix" values="0 0 0 0 0 0 0 0 0 0 0 0 0 0 0 0 0 0 127 0" result="hardAlpha"/>
<feOffset dy="4"/>
<feGaussianBlur stdDeviation="2"/>
<feComposite in2="hardAlpha" operator="out"/>
<feColorMatrix type="matrix" values="0 0 0 0 0 0 0 0 0 0 0 0 0 0 0 0 0 0 0.25 0"/>
<feBlend mode="normal" in2="BackgroundImageFix" result="effect1_dropShadow_1016_1222"/>
<feBlend mode="normal" in="SourceGraphic" in2="effect1_dropShadow_1016_1222" result="shape"/>
</filter>
<filter id="filter1_dd_1016_1222" x="135.869" y="62.4224" width="454.372" height="446.036" filterUnits="userSpaceOnUse" color-interpolation-filters="sRGB">
<feFlood flood-opacity="0" result="BackgroundImageFix"/>
<feColorMatrix in="SourceAlpha" type="matrix" values="0 0 0 0 0 0 0 0 0 0 0 0 0 0 0 0 0 0 127 0" result="hardAlpha"/>
<feOffset dy="4"/>
<feGaussianBlur stdDeviation="2"/>
<feComposite in2="hardAlpha" operator="out"/>
<feColorMatrix type="matrix" values="0 0 0 0 0 0 0 0 0 0 0 0 0 0 0 0 0 0 0.25 0"/>
<feBlend mode="normal" in2="BackgroundImageFix" result="effect1_dropShadow_1016_1222"/>
<feColorMatrix in="SourceAlpha" type="matrix" values="0 0 0 0 0 0 0 0 0 0 0 0 0 0 0 0 0 0 127 0" result="hardAlpha"/>
<feOffset dy="4"/>
<feGaussianBlur stdDeviation="2"/>
<feComposite in2="hardAlpha" operator="out"/>
<feColorMatrix type="matrix" values="0 0 0 0 0 0 0 0 0 0 0 0 0 0 0 0 0 0 0.25 0"/>
<feBlend mode="normal" in2="effect1_dropShadow_1016_1222" result="effect2_dropShadow_1016_1222"/>
<feBlend mode="normal" in="SourceGraphic" in2="effect2_dropShadow_1016_1222" result="shape"/>
</filter>
<filter id="filter2_dd_1016_1222" x="135.869" y="62.4224" width="454.372" height="446.036" filterUnits="userSpaceOnUse" color-interpolation-filters="sRGB">
<feFlood flood-opacity="0" result="BackgroundImageFix"/>
<feColorMatrix in="SourceAlpha" type="matrix" values="0 0 0 0 0 0 0 0 0 0 0 0 0 0 0 0 0 0 127 0" result="hardAlpha"/>
<feOffset dy="4"/>
<feGaussianBlur stdDeviation="2"/>
<feComposite in2="hardAlpha" operator="out"/>
<feColorMatrix type="matrix" values="0 0 0 0 0 0 0 0 0 0 0 0 0 0 0 0 0 0 0.25 0"/>
<feBlend mode="normal" in2="BackgroundImageFix" result="effect1_dropShadow_1016_1222"/>
<feColorMatrix in="SourceAlpha" type="matrix" values="0 0 0 0 0 0 0 0 0 0 0 0 0 0 0 0 0 0 127 0" result="hardAlpha"/>
<feOffset dy="4"/>
<feGaussianBlur stdDeviation="2"/>
<feComposite in2="hardAlpha" operator="out"/>
<feColorMatrix type="matrix" values="0 0 0 0 0 0 0 0 0 0 0 0 0 0 0 0 0 0 0.25 0"/>
<feBlend mode="normal" in2="effect1_dropShadow_1016_1222" result="effect2_dropShadow_1016_1222"/>
<feBlend mode="normal" in="SourceGraphic" in2="effect2_dropShadow_1016_1222" result="shape"/>
</filter>
<filter id="filter3_ddddd_1016_1222" x="117.395" y="258.72" width="496.606" height="55.0596" filterUnits="userSpaceOnUse" color-interpolation-filters="sRGB">
<feFlood flood-opacity="0" result="BackgroundImageFix"/>
<feColorMatrix in="SourceAlpha" type="matrix" values="0 0 0 0 0 0 0 0 0 0 0 0 0 0 0 0 0 0 127 0" result="hardAlpha"/>
<feOffset dy="4"/>
<feGaussianBlur stdDeviation="2"/>
<feComposite in2="hardAlpha" operator="out"/>
<feColorMatrix type="matrix" values="0 0 0 0 0 0 0 0 0 0 0 0 0 0 0 0 0 0 0.25 0"/>
<feBlend mode="normal" in2="BackgroundImageFix" result="effect1_dropShadow_1016_1222"/>
<feColorMatrix in="SourceAlpha" type="matrix" values="0 0 0 0 0 0 0 0 0 0 0 0 0 0 0 0 0 0 127 0" result="hardAlpha"/>
<feOffset dx="6" dy="6"/>
<feComposite in2="hardAlpha" operator="out"/>
<feColorMatrix type="matrix" values="0 0 0 0 0.964706 0 0 0 0 0.607843 0 0 0 0 0.501961 0 0 0 0.25 0"/>
<feBlend mode="normal" in2="effect1_dropShadow_1016_1222" result="effect2_dropShadow_1016_1222"/>
<feColorMatrix in="SourceAlpha" type="matrix" values="0 0 0 0 0 0 0 0 0 0 0 0 0 0 0 0 0 0 127 0" result="hardAlpha"/>
<feOffset dx="3" dy="3"/>
<feComposite in2="hardAlpha" operator="out"/>
<feColorMatrix type="matrix" values="0 0 0 0 0.866667 0 0 0 0 0.439216 0 0 0 0 0.309804 0 0 0 1 0"/>
<feBlend mode="normal" in2="effect2_dropShadow_1016_1222" result="effect3_dropShadow_1016_1222"/>
<feColorMatrix in="SourceAlpha" type="matrix" values="0 0 0 0 0 0 0 0 0 0 0 0 0 0 0 0 0 0 127 0" result="hardAlpha"/>
<feOffset dx="-6" dy="6"/>
<feComposite in2="hardAlpha" operator="out"/>
<feColorMatrix type="matrix" values="0 0 0 0 0.494118 0 0 0 0 0.372549 0 0 0 0 0.572549 0 0 0 0.25 0"/>
<feBlend mode="normal" in2="effect3_dropShadow_1016_1222" result="effect4_dropShadow_1016_1222"/>
<feColorMatrix in="SourceAlpha" type="matrix" values="0 0 0 0 0 0 0 0 0 0 0 0 0 0 0 0 0 0 127 0" result="hardAlpha"/>
<feOffset dx="-3" dy="3"/>
<feComposite in2="hardAlpha" operator="out"/>
<feColorMatrix type="matrix" values="0 0 0 0 0.32549 0 0 0 0 0.25098 0 0 0 0 0.372549 0 0 0 1 0"/>
<feBlend mode="normal" in2="effect4_dropShadow_1016_1222" result="effect5_dropShadow_1016_1222"/>
<feBlend mode="normal" in="SourceGraphic" in2="effect5_dropShadow_1016_1222" result="shape"/>
</filter>
<filter id="filter4_d_1016_1222" x="10.7271" y="11.6416" width="707.405" height="629.957" filterUnits="userSpaceOnUse" color-interpolation-filters="sRGB">
<feFlood flood-opacity="0" result="BackgroundImageFix"/>
<feColorMatrix in="SourceAlpha" type="matrix" values="0 0 0 0 0 0 0 0 0 0 0 0 0 0 0 0 0 0 127 0" result="hardAlpha"/>
<feOffset dy="4"/>
<feGaussianBlur stdDeviation="2"/>
<feComposite in2="hardAlpha" operator="out"/>
<feColorMatrix type="matrix" values="0 0 0 0 0 0 0 0 0 0 0 0 0 0 0 0 0 0 0.25 0"/>
<feBlend mode="normal" in2="BackgroundImageFix" result="effect1_dropShadow_1016_1222"/>
<feBlend mode="normal" in="SourceGraphic" in2="effect1_dropShadow_1016_1222" result="shape"/>
</filter>
<clipPath id="clip0_1016_1222">
<rect width="446" height="179" fill="white" transform="translate(140 321)"/>
</clipPath>
<clipPath id="clip1_1016_1222">
<rect width="446" height="188" fill="white" transform="translate(140 62)"/>
</clipPath>
</defs>
</svg>
