<svg width="699" height="622" viewBox="0 0 699 622" fill="none" xmlns="http://www.w3.org/2000/svg">
<g filter="url(#filter0_d_1016_1243)">
<path d="M563.507 561.772C556.778 571.093 548.792 577.456 539.908 582.834C515.053 597.981 488.852 600.669 461.484 591.08C442.64 584.447 426.668 572.975 411.325 560.517C401.544 552.541 391.045 546.088 377.676 547.253C375.163 547.432 372.561 548.149 369.6 549.941C373.01 552.182 376.33 554.512 379.919 556.574C402.082 569.301 421.644 585.344 439.59 603.358C443.089 606.854 443.448 609.363 440.307 613.127C432.142 622.897 430.706 623.076 422.272 613.575C405.313 594.396 387.097 576.56 366.1 561.772C353.628 552.989 349.321 552.989 336.579 561.503C313.608 576.919 293.688 595.471 277.178 617.609C273.229 622.897 271.345 622.807 266.5 618.057C258.155 609.811 258.155 609.094 266.5 600.669C284.984 581.848 305.622 565.984 328.503 552.899C330.208 551.913 331.823 550.838 334.874 548.956C326.619 546.088 319.171 545.55 313.07 548.776C301.494 554.961 289.919 561.503 279.78 569.659C259.949 585.523 238.863 597.801 212.841 598.608C184.486 599.594 160.528 589.108 140.877 568.763C140.069 567.956 139.711 566.791 138.634 564.909C141.326 565.626 143.12 565.805 144.646 566.522C173.988 579.966 202.612 577.098 230.787 562.758C249.989 552.989 269.55 544.116 290.817 539.366C308.224 535.512 325.542 535.333 342.591 540.889C348.693 542.861 354.077 542.861 360.268 540.8C382.521 533.45 404.864 534.526 426.668 542.323C442.282 547.88 457.625 554.512 472.7 561.593C502.221 575.664 531.474 577.636 560.995 561.772C561.264 561.593 561.713 561.772 563.507 561.772Z" fill="white"/>
<path d="M596.797 370.153C592.849 394.531 589.529 417.117 585.491 439.703C582.082 458.793 572.121 474.746 559.739 489.355C558.482 490.879 557.137 492.402 556.329 494.733C557.406 494.195 558.752 493.926 559.559 493.03C576.787 474.567 598.951 463.274 620.666 451.444C641.393 440.151 660.327 426.797 672.889 406.093C673.248 405.466 673.966 405.107 674.504 404.569C675.042 404.749 675.491 405.018 676.029 405.197C674.594 410.037 673.696 415.145 671.543 419.716C655.661 454.312 632.51 482.275 596.797 497.869C588.452 501.544 579.569 504.054 570.776 506.294C557.944 509.431 544.933 511.851 532.012 514.54C530.666 514.809 529.32 514.988 526.808 515.346C531.294 508.714 535.512 503.157 539.011 497.152C549.509 479.048 555.252 459.151 560.726 439.165C567.007 416.131 577.775 395.428 591.683 376.158C592.849 374.455 594.375 372.932 596.797 370.153Z" fill="white"/>
<path d="M105.164 376.247C109.741 382.969 114.586 389.601 118.983 396.413C131.096 415.234 138.095 436.117 144.197 457.448C149.94 477.524 157.926 496.435 171.385 512.657C172.193 513.553 172.731 514.629 173.36 515.704C173.539 515.973 173.36 516.421 173.36 517.317C157.836 514.449 142.133 512.209 126.789 508.713C74.656 496.972 43.2504 462.825 25.2146 414.248C24.6762 412.725 24.6762 411.022 24.2275 407.974C26.1119 409.498 26.8297 409.857 27.1886 410.484C39.8406 432.621 60.2992 445.617 82.1934 456.91C100.947 466.589 119.521 476.628 135.045 491.326C136.032 492.312 137.198 493.208 138.365 494.015C140.07 495.09 141.774 496.076 144.377 496.345C142.133 493.836 139.8 491.326 137.557 488.817C123.559 472.953 115.932 454.221 112.612 433.607C109.561 414.876 106.959 396.054 104.088 377.233C104.447 376.874 104.805 376.516 105.164 376.247Z" fill="white"/>
<path d="M106.779 457.269C98.9728 451.891 92.0636 447.141 85.1543 442.391C66.6699 429.485 48.3648 416.4 32.9312 399.819C15.344 380.998 4.48667 358.86 0.538531 333.586C-0.627964 325.789 0.35907 317.543 1.16664 309.298C2.78179 313.062 4.48667 316.916 6.10182 320.68C13.8186 338.067 26.2912 351.959 39.0329 365.672C52.0438 379.743 63.9779 394.531 73.1304 411.381C74.2969 413.442 76.0018 415.145 78.0656 417.655C78.2451 416.221 78.5143 415.593 78.3348 415.145C66.4007 391.036 66.7596 365.762 71.3358 340.129C73.6688 326.595 76.0915 313.151 78.6937 298.542C83.6289 310.463 86.3208 322.024 87.577 333.855C90.0895 358.054 91.6149 382.432 95.0247 406.541C97.0885 421.06 101.844 435.221 105.523 449.561C105.882 450.906 106.51 452.25 106.869 453.594C106.959 454.311 106.779 455.118 106.779 457.269Z" fill="white"/>
<path d="M438.603 535.063C442.102 533.808 445.602 532.285 449.191 531.299C469.29 525.742 483.468 512.029 497.376 497.51C511.643 482.632 526.449 468.202 541.075 453.683C542.6 452.159 544.484 450.994 547.266 450.277C543.677 458.702 540.626 467.396 536.498 475.641C530.845 487.024 525.103 498.406 518.104 508.982C511.553 518.841 501.593 524.935 490.198 528.61C488.044 529.327 485.89 530.402 483.827 531.209C484.006 531.747 484.186 532.285 484.275 532.822C490.108 531.657 495.851 530.223 501.773 529.506C520.706 527.176 539.729 524.935 558.662 522.963C581.364 520.633 602.361 514.359 619.589 498.227C620.037 498.585 620.486 498.944 620.935 499.213C618.961 502.619 617.435 506.293 615.013 509.34C586.119 545.639 549.42 562.219 502.939 552.361C481.404 547.79 460.138 541.695 438.692 536.318C438.692 536.049 438.603 535.601 438.603 535.063Z" fill="white"/>
<path d="M262.372 538.648C258.155 539.724 253.937 540.799 249.81 541.785C229.082 546.715 208.534 552.899 187.537 556.394C155.682 561.592 127.058 552.54 103.1 530.941C95.2938 523.95 89.0127 515.346 82.1932 507.369C80.937 505.935 80.3088 504.053 80.3986 501.454C83.0905 503.605 85.7824 505.846 88.564 507.907C105.254 520.544 124.905 524.846 145.094 526.459C169.411 528.341 193.818 529.417 217.596 535.511C218.135 535.691 218.763 535.422 219.75 534.346C217.686 533.54 215.712 532.464 213.648 531.837C194.984 526.639 182.332 514.181 173.628 497.6C166.271 483.618 160.079 469.01 153.349 454.759C153.26 454.49 153.529 454.042 153.978 452.07C160.528 457.717 166.899 462.467 172.552 468.024C186.28 481.557 199.74 495.27 213.02 509.162C225.313 522.068 240.926 529.148 257.168 535.332C258.962 536.049 260.757 536.677 262.551 537.394C262.372 537.752 262.372 538.2 262.372 538.648Z" fill="white"/>
<path d="M622.46 293.702C625.601 317.184 629.19 340.576 631.612 364.058C633.138 378.846 629.459 393.097 623.806 406.72C623.088 408.512 622.46 410.394 622.998 412.904C627.844 405.375 632.241 397.399 637.624 390.318C647.854 376.964 658.262 363.789 669.299 351.152C680.516 338.335 690.027 324.712 696.129 308.759C696.308 308.311 696.846 307.952 698.641 307.594C698.641 313.957 699 320.321 698.551 326.595C696.667 351.69 685.002 372.483 669.748 391.752C652.609 413.262 629.549 427.423 607.744 443.197C603.527 446.244 599.309 449.292 594.464 452.787C594.464 451.084 594.285 450.457 594.464 449.919C606.398 419.895 606.667 388.078 609.718 356.709C611.603 337.798 615.461 319.156 618.512 300.334C618.96 297.914 620.306 295.584 621.204 293.254C621.652 293.433 622.101 293.612 622.46 293.702Z" fill="white"/>
<path d="M80.7576 207.572C80.3986 215.101 80.3089 221.643 79.7705 228.096C77.1683 259.017 69.3618 288.773 60.8374 318.439C56.7098 332.779 54.7357 347.388 56.4406 362.355C56.5303 363.251 56.3509 364.237 55.0049 365.671C52.7617 362.445 50.6081 359.218 48.3649 356.081C38.8534 343.175 28.6242 330.717 20.0101 317.274C6.90941 296.839 1.16667 273.805 0.179634 249.786C-0.448479 233.384 -1.25606 216.893 4.12777 200.94C4.84561 198.699 5.56346 196.548 6.99914 194.308C6.55049 220.03 17.5873 242.257 26.3809 265.381C32.4826 281.603 35.9821 298.811 40.6481 315.571C41.4556 318.618 42.0837 321.755 43.7886 324.713C43.6092 320.859 43.5194 316.915 43.2502 313.061C41.5454 287.697 50.6081 265.381 62.2731 243.602C68.3748 232.309 74.1175 220.478 80.7576 207.572Z" fill="white"/>
<path d="M693.168 188.303C694.513 192.784 696.667 197.265 697.116 201.836C699.808 232.667 701.871 263.767 689.04 292.985C682.669 307.325 673.337 320.321 664.813 333.585C658.532 343.444 651.443 352.765 643.188 361.997C643.098 360.383 642.739 358.77 642.918 357.157C645.341 338.963 641.842 321.486 636.458 304.368C627.575 275.956 621.114 247.187 618.332 217.521C617.973 214.204 618.332 210.799 619.678 207.034C620.845 209.454 621.832 211.874 623.088 214.204C631.074 229.262 638.97 244.319 647.046 259.286C656.378 276.584 658.711 294.957 656.558 314.137C656.378 315.571 656.378 316.915 657.096 318.708C657.724 317.184 658.621 315.75 658.801 314.226C661.941 289.4 670.645 266.277 680.157 243.333C687.066 226.662 691.193 209.365 691.193 191.26C691.193 190.364 691.463 189.468 691.642 188.572C692.091 188.482 692.629 188.392 693.168 188.303Z" fill="white"/>
<path d="M656.647 87.9224C658.352 90.3422 660.146 92.5829 661.672 95.0924C686.527 135.065 688.681 176.92 672.529 220.568C669.119 229.62 666.786 239.12 664.094 248.441C662.928 252.295 662.031 256.149 660.415 260.093C652.788 231.502 633.317 209.992 618.242 185.883C608.372 170.109 601.193 153.17 597.245 134.976C596.976 133.811 596.886 132.645 596.617 130.763C597.873 131.48 598.681 131.66 599.13 132.108C610.795 144.476 622.19 157.113 634.035 169.302C645.879 181.402 653.865 195.294 656.557 212.143C656.826 213.667 657.454 215.19 658.711 216.714C658.711 213.756 659.07 210.709 658.621 207.841C655.48 184.09 658.083 160.429 659.877 136.768C661.133 120.456 660.864 104.413 655.121 88.8186C655.749 88.5497 656.198 88.2809 656.647 87.9224Z" fill="white"/>
<path d="M39.3021 263.588C35.8924 253.371 32.5723 244.05 29.7907 234.639C25.035 218.148 19.0231 201.746 16.3311 184.807C11.2165 152.273 20.1896 122.518 38.1356 95.1819C38.674 94.3753 39.3919 93.5686 40.1097 92.8516C40.2892 92.6724 40.8275 92.762 41.7249 92.6724C40.6481 96.5263 39.5713 100.111 38.674 103.786C35.1745 118.036 35.7129 132.376 37.7767 146.716C41.0967 169.661 42.5324 192.694 40.1097 215.907C39.8405 218.417 40.1097 220.926 40.1097 225.228C42.6222 216.355 44.1476 209.006 46.66 202.105C52.2233 187.137 62.3629 175.217 73.1305 163.745C81.0268 155.321 88.7436 146.716 96.5501 138.202C97.1783 137.485 97.9858 137.037 100.05 136.947C99.1523 141.339 98.5242 145.82 97.3577 150.212C92.1534 170.557 82.0138 188.572 70.4386 205.78C58.7736 223.077 47.5573 240.375 41.2762 260.361C41.007 261.258 40.2892 261.975 39.3021 263.588Z" fill="white"/>
<path d="M565.93 62.9172C574.544 71.4316 582.261 80.3045 591.323 87.5642C605.949 99.1259 621.114 109.971 632.869 125.207C630.894 116.603 628.831 107.999 626.857 99.3947C624.703 90.0737 622.55 80.8423 620.486 71.5212C617.435 58.0774 612.41 45.6195 602.271 35.5815C602.629 35.1333 603.078 34.5956 603.437 34.1475C606.578 35.5815 609.987 36.5673 612.769 38.5391C636.637 55.2094 648.302 78.6912 649.11 107.371C649.558 121.174 648.302 134.976 647.943 148.778C647.764 155.231 647.943 161.684 647.943 169.571C643.636 164.015 640.496 158.906 636.368 154.873C624.344 143.401 612.231 132.108 599.668 121.174C583.517 107.192 572.121 90.4322 567.276 69.5495C566.558 67.3088 566.289 65.0682 565.93 62.9172Z" fill="white"/>
<path d="M129.481 71.8796C129.391 78.0637 126.071 86.6678 121.585 94.9133C113.509 109.881 102.024 121.98 89.5511 133.542C76.8991 145.193 65.5033 158.099 53.5692 170.467C52.7616 171.274 52.1335 172.17 50.7875 172.798C51.3259 146.269 45.2242 120.188 50.1594 93.8378C54.5562 70.1767 67.6569 52.879 87.9359 40.5107C89.3716 39.6145 91.1662 39.256 93.6787 39.5248C91.1662 42.9306 88.564 46.2467 86.231 49.8317C78.8732 61.1245 75.9121 73.941 73.2201 86.9366C69.9898 102.352 66.8493 117.768 63.4395 134.438C67.926 128.164 71.1563 121.98 75.9121 117.409C85.4235 108.357 95.7425 100.112 105.792 91.5972C114.047 84.6064 122.482 77.6156 129.481 71.8796Z" fill="white"/>
<path d="M533.627 -0.358398C570.596 1.43411 615.192 53.4168 614.205 93.2105C578.851 69.1012 560.456 31.0105 533.627 -0.358398Z" fill="white"/>
<path d="M161.515 2.33057C159.451 5.2882 158.464 6.72221 157.477 8.15622C147.248 22.4963 136.929 36.7467 126.968 51.1764C115.034 68.4741 100.229 82.9038 83.8979 96.2579C81.2957 87.7435 89.9098 58.1672 101.395 42.4827C116.111 22.2274 135.852 9.59022 161.515 2.33057Z" fill="white"/>
</g>
<defs>
<filter id="filter0_d_1016_1243" x="-4.27295" y="-0.358398" width="707.405" height="629.957" filterUnits="userSpaceOnUse" color-interpolation-filters="sRGB">
<feFlood flood-opacity="0" result="BackgroundImageFix"/>
<feColorMatrix in="SourceAlpha" type="matrix" values="0 0 0 0 0 0 0 0 0 0 0 0 0 0 0 0 0 0 127 0" result="hardAlpha"/>
<feOffset dy="4"/>
<feGaussianBlur stdDeviation="2"/>
<feComposite in2="hardAlpha" operator="out"/>
<feColorMatrix type="matrix" values="0 0 0 0 0 0 0 0 0 0 0 0 0 0 0 0 0 0 0.25 0"/>
<feBlend mode="normal" in2="BackgroundImageFix" result="effect1_dropShadow_1016_1243"/>
<feBlend mode="normal" in="SourceGraphic" in2="effect1_dropShadow_1016_1243" result="shape"/>
</filter>
</defs>
</svg>
