<svg width="446" height="36" viewBox="0 0 446 36" fill="none" xmlns="http://www.w3.org/2000/svg">
<g clip-path="url(#clip0_1278_716)">
<g filter="url(#filter0_dd_1278_716)">
<path d="M220.732 215.458C205.029 213.217 188.967 211.156 172.905 208.557C165.547 207.392 164.56 205.241 165.637 198.07C167.432 185.702 162.676 179.16 150.921 175.216C142.397 172.348 134.052 168.315 126.066 164.103C121.131 161.503 117.631 161.055 113.952 165.716C111.171 169.211 108.03 172.617 104.441 175.037C102.467 176.381 98.2495 176.74 96.4549 175.575C71.4201 158.725 50.6924 137.484 34.0922 112.299C31.5798 108.445 31.7593 104.771 35.7074 101.544C38.3993 99.393 40.9118 96.9731 43.3345 94.5532C48.5388 89.3549 48.4491 86.1284 45.3983 79.3169C40.822 69.01 36.6944 58.4342 32.9257 47.7688C31.2209 42.929 29.0673 40.061 23.5041 40.4195C19.4662 40.6884 15.3386 39.7921 11.3007 40.061C5.55796 40.5091 3.40443 37.6411 2.59686 32.4428C-1.35128 5.73448 -1.08208 -20.9739 3.85309 -47.5926C4.66067 -51.9842 7.17312 -53.8664 11.4802 -53.7767C15.3386 -53.6871 19.197 -53.6871 23.0554 -53.4182C29.3365 -52.9701 32.836 -56.107 35.0793 -61.6638C39.7453 -73.4943 44.7702 -85.2353 49.3464 -97.0658C50.0643 -98.8583 49.5259 -101.906 48.3594 -103.519C45.3085 -107.552 41.5399 -111.047 38.3096 -114.901C35.4382 -118.217 35.169 -121.623 37.6815 -125.477C53.6535 -149.765 74.3812 -169.214 98.3392 -185.436C101.749 -187.767 104.8 -187.408 107.581 -184.451C110.184 -181.672 112.696 -178.625 115.298 -175.846C118.977 -171.903 122.925 -170.738 128.309 -173.427C139.256 -178.714 150.383 -183.554 161.599 -188.215C165.817 -189.918 167.791 -192.427 167.521 -196.819C167.432 -198.432 167.521 -200.045 167.521 -201.659C167.521 -216.536 167.521 -216.447 181.878 -218.956C210.861 -224.155 239.665 -223.617 268.558 -218.239C275.018 -217.074 278.608 -214.565 277.621 -207.574C277.351 -205.781 277.71 -203.899 277.621 -202.107C277.351 -191.083 278.249 -190.366 288.747 -186.512C298.618 -182.837 308.219 -178.446 317.73 -173.964C322.037 -171.903 325.357 -171.634 328.408 -175.667C329.305 -176.743 330.382 -177.639 331.459 -178.625C342.227 -189.021 343.573 -189.29 355.417 -180.328C375.786 -164.912 393.911 -147.346 408.268 -126.104C411.498 -121.444 410.87 -118.397 406.832 -114.632C393.552 -102.354 393.911 -102.443 401.808 -86.3108C405.845 -77.9756 409.076 -69.1027 412.127 -60.3194C413.652 -56.0174 415.895 -54.0456 420.561 -54.2249C424.779 -54.4041 429.086 -53.6871 433.393 -53.956C438.687 -54.2249 441.109 -51.9842 442.097 -46.8756C447.032 -20.2569 447.839 6.36186 442.994 33.0702C442.097 38.1789 439.315 40.5091 434.11 39.8817C414.011 37.7307 413.742 43.2875 410.242 57.0898C407.999 65.7835 403.602 74.029 399.744 82.2746C397.68 86.7558 397.77 90.2512 401.538 93.6569C405.038 96.7938 408.089 100.289 411.588 103.426C414.46 105.936 414.549 108.535 412.575 111.403C395.796 136.408 375.427 157.918 350.482 175.126C346.175 178.084 342.855 177.457 339.265 173.692C326.972 160.607 327.062 160.966 310.911 168.942C303.463 172.617 295.656 175.485 287.76 178.084C282.107 179.966 279.864 182.834 280.043 189.108C280.402 209.005 281.21 207.571 263.533 210.08C249.714 212.5 235.537 213.755 220.732 215.458ZM185.916 155.498C180.801 155.409 175.687 154.961 170.662 155.498C158.818 156.753 149.755 154.961 144.281 142.144C139.615 131.389 128.937 125.295 119.785 118.125C90.3532 94.8221 71.5098 64.5287 64.0622 27.872C55.2686 -15.686 63.0752 -56.5551 88.5586 -93.3015C112.427 -127.897 145.627 -149.317 186.185 -159.176C200.991 -162.761 201.709 -162.134 204.042 -177.28C205.926 -189.649 206.823 -201.927 218.399 -209.994C219.386 -210.711 219.924 -213.131 219.475 -214.296C219.027 -215.282 216.873 -216.178 215.527 -216.088C203.772 -214.923 192.108 -213.489 180.443 -212.145C176.046 -211.607 174.072 -208.918 173.982 -204.706C173.892 -200.045 174.52 -195.295 173.623 -190.724C173.174 -188.125 170.931 -184.719 168.598 -183.644C154.6 -177.28 140.333 -171.455 126.245 -165.36C121.938 -163.478 118.529 -164.016 115.388 -167.511C112.517 -170.648 109.197 -173.427 106.415 -176.653C103.723 -179.79 101.3 -179.88 98.07 -177.549C77.2526 -162.761 58.9476 -145.284 44.5907 -124.133C43.5139 -122.609 43.7831 -119.024 44.9496 -117.5C47.9107 -113.467 51.6794 -109.882 55.2686 -106.387C58.4989 -103.16 58.6784 -100.203 56.5249 -96.0799C51.3205 -85.773 44.5907 -75.6453 42.3474 -64.6214C38.5788 -46.1586 33.1949 -45.8001 18.1202 -47.5926C13.0953 -48.22 10.4034 -46.2482 9.41638 -40.7811C5.6477 -19.6295 5.37851 1.6117 7.89096 22.8529C9.14719 33.3391 9.68557 33.6976 20.4532 33.8769C23.3246 33.8769 26.196 34.2353 28.9776 33.9665C33.6436 33.5183 36.3355 35.6693 37.3225 40.061C40.6426 54.8492 45.9367 68.7411 53.8329 81.7368C56.6146 86.3973 56.0762 91.1475 52.0383 95.091C49.167 97.959 46.0264 100.558 42.9756 103.157C39.7453 105.846 39.3863 108.983 41.8091 112.209C56.6146 133.002 73.8428 151.465 94.75 166.343C99.0571 169.39 102.377 169.032 105.697 164.819C107.94 161.951 111.081 159.89 113.504 157.112C116.913 153.079 120.054 153.527 124.63 155.857C135.488 161.234 146.524 166.343 157.831 170.556C168.419 174.499 173.623 181.4 172.367 192.783C171.47 201.118 172.187 202.373 180.532 203.538C191.569 205.061 202.696 206.047 213.822 207.212C217.95 207.66 220.193 205.958 220.193 201.297C220.014 188.122 220.014 174.947 220.193 161.683C220.283 156.753 217.77 155.319 213.374 155.319C204.131 155.588 195.069 155.498 185.916 155.498ZM261.2 155.498C251.868 155.498 242.536 155.588 233.114 155.498C228.987 155.498 226.654 156.932 226.743 161.503C226.833 174.947 226.833 188.301 226.743 201.745C226.743 205.778 228.628 207.302 232.307 207.033C239.844 206.585 247.381 206.316 254.739 205.42C273.672 203 273.942 202.821 273.762 184.089C273.672 178.263 275.826 176.023 280.851 174.051C292.875 169.211 304.719 163.923 316.294 158.187C326.344 153.168 328.857 153.168 336.753 161.683C338.099 163.206 339.624 164.64 340.881 166.164C343.662 169.57 346.534 170.107 350.302 167.419C371.479 152.541 389.066 134.168 403.871 113.016C406.025 109.879 406.025 107.101 403.064 104.322C399.385 100.827 395.975 97.0627 392.296 93.5673C389.514 90.8786 389.694 88.1898 391.13 84.7841C397.231 69.9959 403.154 55.2077 408.807 40.2402C410.332 36.2967 412.037 33.9665 416.523 34.1457C420.741 34.325 425.048 33.8769 429.355 34.1457C434.649 34.4146 436.802 32.4429 437.61 26.9757C441.02 4.65899 440.122 -17.5681 437.072 -39.7952C436.264 -45.3519 433.303 -48.0407 427.56 -47.5926C424.15 -47.3237 420.651 -47.7719 417.241 -47.3237C411.05 -46.6067 408.448 -49.9228 406.922 -55.2107C403.064 -68.9234 398.398 -82.2776 389.873 -94.0185C386.553 -98.5894 386.912 -103.25 390.771 -107.373C393.822 -110.599 397.052 -113.646 400.372 -116.694C403.243 -119.383 403.512 -122.251 401.179 -125.298C398.488 -128.883 395.796 -132.378 392.924 -135.874C380.541 -151.02 366.364 -164.285 350.392 -175.667C345.816 -178.894 341.957 -178.894 337.919 -174.95C334.869 -171.993 331.459 -169.304 328.588 -166.257C325.985 -163.389 323.652 -163.837 320.422 -165.181C306.514 -171.276 292.516 -177.191 278.518 -183.017C273.852 -184.899 271.07 -187.767 271.07 -192.965C271.07 -196.998 270.801 -201.121 270.981 -205.154C271.16 -209.366 269.365 -211.697 265.238 -212.145C255.726 -213.31 246.305 -214.565 236.793 -215.371C233.653 -215.64 230.422 -214.654 227.192 -214.206C228.897 -211.159 230.422 -208.022 232.396 -205.244C234.909 -201.838 239.395 -199.149 240.203 -195.564C242.177 -186.96 242.805 -177.997 243.344 -169.125C243.613 -164.106 245.497 -161.506 250.253 -160.879C272.057 -158.19 291.619 -149.407 310.282 -138.383C327.6 -128.166 342.585 -115.17 354.609 -98.9479C374.709 -71.7914 384.041 -40.8707 385.566 -7.44044C387.72 42.3016 367.531 82.2746 330.562 114.54C317.64 125.832 303.373 135.871 295.746 152.182C294.849 153.975 291.08 155.319 288.657 155.409C279.505 155.767 270.352 155.498 261.2 155.498ZM262.456 105.308C263.533 107.28 263.892 108.356 264.52 108.983C274.121 118.573 285.786 124.578 299.156 126.639C301.668 126.998 304.899 125.832 307.052 124.309C314.59 118.842 322.037 113.195 329.126 107.19C353.712 86.3077 369.146 59.7786 375.517 28.4097C384.579 -15.9549 376.862 -57.0929 349.315 -93.7496C325.357 -125.567 293.772 -145.374 254.829 -153.53C244.959 -155.591 244.061 -154.785 244.42 -144.926C245.766 -108.448 247.112 -71.9707 248.548 -35.4035C248.548 -34.6865 248.997 -33.9695 249.445 -32.6251C263.533 -42.6632 277.8 -50.9087 295.477 -50.0125C292.785 -39.9744 290.362 -31.0119 287.581 -20.5257C296.554 -25.007 303.373 -28.9505 310.641 -31.7289C318.089 -34.5073 325.985 -36.1205 333.702 -38.1819C334.061 -37.5545 334.42 -36.9272 334.779 -36.2998C333.971 -34.5969 333.343 -32.7148 332.356 -31.1015C322.576 -15.9548 319.166 0.446589 321.14 18.282C322.127 27.1549 322.755 36.0278 322.845 44.9904C322.934 54.401 321.499 63.5428 316.564 71.878C308.219 86.0388 294.849 93.2985 280.223 98.9449C274.57 101.185 268.827 103.068 262.456 105.308ZM197.043 -32.3563C197.402 -41.4981 197.671 -49.1162 198.03 -56.6448C199.286 -86.6693 200.632 -116.604 201.709 -146.629C202.068 -155.233 201.439 -155.502 193.184 -153.799C172.815 -149.766 153.882 -142.506 136.564 -130.944C103.454 -108.896 80.0342 -79.0511 71.5996 -40.1537C58.14 22.1359 75.9066 74.8356 126.335 115.346C144.191 129.597 147.512 130.045 167.701 119.738C173.803 116.601 179.725 112.658 183.763 105.756C174.879 102.44 166.804 99.7515 158.997 96.4354C137.013 87.0247 123.105 71.6091 122.925 46.514C122.836 38.9855 123.284 31.457 124.182 24.0181C126.694 4.47975 124.271 -13.9831 113.683 -31.0119C112.696 -32.6252 112.158 -34.5073 111.081 -37.196C128.219 -36.0309 142.397 -29.5779 155.856 -21.0635C156.395 -21.5116 157.023 -21.9597 157.561 -22.4975C155.228 -31.3704 152.985 -40.2433 150.562 -49.4747C152.088 -49.7436 153.434 -50.1917 154.69 -50.1021C170.213 -49.2058 183.404 -42.3047 197.043 -32.3563ZM264.879 34.8627C264.789 33.7872 264.789 31.3674 264.61 28.9475C262.187 -2.7799 245.407 -27.6958 226.474 -51.6257C224.052 -54.673 221.988 -54.0456 219.565 -51.1776C205.836 -34.5073 193.812 -16.7614 186.724 3.85239C178.827 26.6172 178.827 49.1132 189.864 71.161C197.402 86.1284 208.438 98.1382 220.373 109.431C221.449 110.417 225.039 110.238 226.385 109.162C230.333 106.025 233.832 102.351 237.242 98.5863C253.393 80.9301 264.969 61.123 264.879 34.8627ZM194.082 92.3126C193.902 91.5956 193.992 91.0578 193.723 90.6097C192.197 88.0106 190.492 85.4114 188.967 82.8123C178.379 65.5146 173.174 47.0518 175.238 26.5276C176.943 9.85726 182.596 -5.46868 190.492 -19.988C193.184 -24.8278 192.825 -28.2335 187.531 -30.9223C181.34 -34.0592 175.507 -37.7338 169.316 -40.6914C166.804 -41.8566 163.753 -41.9462 159.984 -42.7528C160.612 -39.7952 160.792 -38.1819 161.24 -36.7479C164.74 -25.3655 164.919 -14.0727 162.048 -2.51104C159.715 6.54112 157.651 15.6829 155.946 24.8247C150.024 57.8964 165.547 78.8688 194.082 92.3126ZM284.261 -42.4839C274.031 -41.1396 266.045 -35.5828 257.79 -30.4742C253.663 -27.875 253.214 -25.007 255.367 -20.7946C258.688 -14.3416 262.008 -7.79895 264.52 -0.897799C273.403 23.4803 274.121 47.948 263.264 72.0573C260.033 79.1377 255.816 85.6803 252.047 92.4022C265.597 86.3077 276.993 77.9725 284.44 65.2457C292.965 50.6368 291.888 34.9524 288.657 19.0887C284.62 -0.539268 278.787 -20.0776 284.979 -40.3329C285.068 -40.6914 284.799 -41.1396 284.261 -42.4839ZM182.776 97.4212C182.955 96.8835 183.134 96.4353 183.314 95.8976C181.878 94.8221 180.443 93.7466 179.007 92.7607C156.126 76.4489 144.371 55.0284 149.127 26.3483C150.921 15.5036 153.613 4.92787 155.498 -5.9168C155.946 -8.24706 155.587 -11.6528 154.062 -13.1764C145.986 -21.0635 135.936 -25.5448 123.643 -28.7713C124.81 -25.007 125.438 -22.5871 126.335 -20.1673C130.911 -7.9782 133.065 4.47971 131.45 17.4754C130.642 23.9284 129.924 30.3815 129.476 36.8345C128.309 55.2077 131.45 72.0572 148.588 82.4538C157.023 87.5624 166.265 91.4163 175.328 95.5391C177.571 96.7042 180.263 96.8835 182.776 97.4212ZM322.037 -28.592C310.372 -25.724 300.233 -20.9739 291.798 -13.2661C290.273 -11.9217 290.003 -8.33666 290.362 -6.0064C291.439 0.805126 292.875 7.52699 294.58 14.2489C302.476 45.3489 296.374 71.6987 268.917 90.9682C266.584 92.5814 264.61 94.6428 262.546 96.525C276.454 93.8362 289.106 89.1757 300.143 81.0198C314.59 70.3544 317.371 54.9388 316.564 38.1789C315.935 24.4662 314.679 10.6639 315.397 -3.04878C315.756 -11.2047 319.435 -19.271 322.037 -28.592ZM243.523 114.271C249.714 119.111 255.098 123.861 261.021 127.894C269.007 133.271 269.186 133.003 265.507 142.144C263.443 147.253 264.341 148.777 269.724 149.135C272.775 149.314 275.826 149.225 278.877 149.494C288.478 150.211 293.054 147.343 296.823 138.47C298.259 135.153 297.9 133.092 293.952 132.286C280.402 129.597 269.007 123.144 259.495 113.016C254.38 107.37 251.33 107.728 243.523 114.271ZM202.875 114.54C195.786 108.356 192.018 107.997 187.262 112.747C177.302 122.785 165.547 129.417 151.729 132.554C150.562 132.823 149.575 133.54 147.96 134.257C148.768 136.498 149.216 138.649 150.293 140.441C154.869 148.06 171.918 152.72 179.725 148.508C180.712 147.97 181.609 145.819 181.43 144.564C181.16 142.682 180.263 140.71 179.186 139.007C176.674 135.064 177.571 132.823 181.519 130.224C188.698 125.564 195.338 120.096 202.875 114.54ZM219.924 131.658C219.924 130.045 219.744 127.356 220.014 124.757C220.462 120.903 218.847 118.035 215.348 117.408C212.566 116.96 208.887 117.408 206.734 118.931C200.542 123.413 195.069 128.88 188.967 133.54C185.826 135.96 185.647 138.201 187.352 141.338C190.941 147.88 196.594 149.494 203.683 149.404C219.744 149.135 220.642 148.418 219.924 131.658ZM226.743 133.361C226.833 137.215 226.474 141.069 227.013 144.833C227.192 146.357 229.076 148.777 230.243 148.866C237.511 149.225 245.048 149.942 251.958 148.418C255.009 147.701 257.162 142.144 259.226 138.47C259.764 137.484 258.867 134.885 257.79 133.988C251.778 128.611 245.677 123.323 239.216 118.483C237.332 117.049 233.653 116.153 231.768 117.049C229.525 118.035 227.73 121.172 227.013 123.681C226.115 126.729 226.743 130.135 226.743 133.361ZM222.347 -179.969C232.935 -179.969 234.371 -180.776 234.281 -186.781C234.191 -193.234 227.641 -203.72 223.513 -203.989C219.027 -204.258 212.835 -193.951 212.476 -186.691C212.117 -178.446 217.681 -180.149 222.347 -179.969ZM237.511 -162.761C236.973 -162.761 236.345 -162.761 235.806 -162.761C235.806 -156.936 235.717 -151.11 235.806 -145.195C236.434 -114.543 237.152 -83.8908 237.96 -53.239C238.05 -50.6398 239.126 -47.9511 239.754 -45.352C240.562 -45.5312 241.37 -45.7105 242.177 -45.8001C240.562 -84.7871 239.037 -123.774 237.511 -162.761ZM208.977 -166.794C207.451 -126.373 205.836 -86.0419 204.311 -45.6208C209.336 -50.5502 212.835 -147.704 208.977 -166.794ZM219.655 -170.2C219.027 -170.2 218.399 -170.2 217.77 -170.2C216.873 -133.454 215.976 -96.7073 215.079 -59.9609C216.155 -59.7816 217.232 -59.692 218.309 -59.5128C218.847 -61.9326 219.834 -64.3525 219.834 -66.7724C220.014 -98.5894 220.014 -130.406 220.014 -162.223C220.014 -164.823 219.834 -167.511 219.655 -170.2ZM228.718 -170.917C228.269 -171.007 227.82 -171.096 227.372 -171.186C227.192 -170.469 226.833 -169.662 226.833 -168.945C226.743 -134.26 226.743 -99.5753 226.833 -64.8007C226.833 -62.9185 228 -61.126 228.628 -59.2439C229.435 -59.4231 230.153 -59.5128 230.961 -59.692C230.153 -96.7969 229.435 -133.902 228.718 -170.917Z" fill="white"/>
</g>
</g>
<defs>
<filter id="filter0_dd_1278_716" x="-4.13086" y="-222.578" width="454.372" height="446.036" filterUnits="userSpaceOnUse" color-interpolation-filters="sRGB">
<feFlood flood-opacity="0" result="BackgroundImageFix"/>
<feColorMatrix in="SourceAlpha" type="matrix" values="0 0 0 0 0 0 0 0 0 0 0 0 0 0 0 0 0 0 127 0" result="hardAlpha"/>
<feOffset dy="4"/>
<feGaussianBlur stdDeviation="2"/>
<feComposite in2="hardAlpha" operator="out"/>
<feColorMatrix type="matrix" values="0 0 0 0 0 0 0 0 0 0 0 0 0 0 0 0 0 0 0.25 0"/>
<feBlend mode="normal" in2="BackgroundImageFix" result="effect1_dropShadow_1278_716"/>
<feColorMatrix in="SourceAlpha" type="matrix" values="0 0 0 0 0 0 0 0 0 0 0 0 0 0 0 0 0 0 127 0" result="hardAlpha"/>
<feOffset dy="4"/>
<feGaussianBlur stdDeviation="2"/>
<feComposite in2="hardAlpha" operator="out"/>
<feColorMatrix type="matrix" values="0 0 0 0 0 0 0 0 0 0 0 0 0 0 0 0 0 0 0.25 0"/>
<feBlend mode="normal" in2="effect1_dropShadow_1278_716" result="effect2_dropShadow_1278_716"/>
<feBlend mode="normal" in="SourceGraphic" in2="effect2_dropShadow_1278_716" result="shape"/>
</filter>
<clipPath id="clip0_1278_716">
<rect width="446" height="36" fill="white"/>
</clipPath>
</defs>
</svg>
