<svg width="446" height="35" viewBox="0 0 446 35" fill="none" xmlns="http://www.w3.org/2000/svg">
<g clip-path="url(#clip0_1278_714)">
<g filter="url(#filter0_dd_1278_714)">
<path d="M220.732 250.458C205.029 248.217 188.967 246.156 172.905 243.557C165.547 242.392 164.56 240.241 165.637 233.07C167.432 220.702 162.676 214.16 150.921 210.216C142.397 207.348 134.052 203.315 126.066 199.103C121.131 196.503 117.631 196.055 113.952 200.716C111.171 204.211 108.03 207.617 104.441 210.037C102.467 211.381 98.2495 211.74 96.4549 210.575C71.4201 193.725 50.6924 172.484 34.0922 147.299C31.5798 143.445 31.7593 139.771 35.7074 136.544C38.3993 134.393 40.9118 131.973 43.3345 129.553C48.5388 124.355 48.4491 121.128 45.3983 114.317C40.822 104.01 36.6944 93.4342 32.9257 82.7688C31.2209 77.929 29.0673 75.061 23.5041 75.4195C19.4662 75.6884 15.3386 74.7921 11.3007 75.061C5.55796 75.5091 3.40443 72.6411 2.59686 67.4428C-1.35128 40.7345 -1.08208 14.0261 3.85309 -12.5926C4.66067 -16.9842 7.17312 -18.8664 11.4802 -18.7767C15.3386 -18.6871 19.197 -18.6871 23.0554 -18.4182C29.3365 -17.9701 32.836 -21.107 35.0793 -26.6638C39.7453 -38.4943 44.7702 -50.2353 49.3464 -62.0658C50.0643 -63.8583 49.5259 -66.9056 48.3594 -68.5188C45.3085 -72.5519 41.5399 -76.0474 38.3096 -79.9012C35.4382 -83.2174 35.169 -86.6231 37.6815 -90.477C53.6535 -114.765 74.3812 -134.214 98.3392 -150.436C101.749 -152.767 104.8 -152.408 107.581 -149.451C110.184 -146.672 112.696 -143.625 115.298 -140.846C118.977 -136.903 122.925 -135.738 128.309 -138.427C139.256 -143.714 150.383 -148.554 161.599 -153.215C165.817 -154.918 167.791 -157.427 167.521 -161.819C167.432 -163.432 167.521 -165.045 167.521 -166.659C167.521 -181.536 167.521 -181.447 181.878 -183.956C210.861 -189.155 239.665 -188.617 268.558 -183.239C275.018 -182.074 278.608 -179.565 277.621 -172.574C277.351 -170.781 277.71 -168.899 277.621 -167.107C277.351 -156.083 278.249 -155.366 288.747 -151.512C298.618 -147.837 308.219 -143.446 317.73 -138.964C322.037 -136.903 325.357 -136.634 328.408 -140.667C329.305 -141.743 330.382 -142.639 331.459 -143.625C342.227 -154.021 343.573 -154.29 355.417 -145.328C375.786 -129.912 393.911 -112.346 408.268 -91.1044C411.498 -86.4439 410.87 -83.3966 406.832 -79.6324C393.552 -67.3537 393.911 -67.4433 401.808 -51.3108C405.845 -42.9756 409.076 -34.1027 412.127 -25.3194C413.652 -21.0174 415.895 -19.0456 420.561 -19.2249C424.779 -19.4041 429.086 -18.6871 433.393 -18.956C438.687 -19.2249 441.109 -16.9842 442.097 -11.8756C447.032 14.7431 447.839 41.3619 442.994 68.0702C442.097 73.1789 439.315 75.5091 434.11 74.8817C414.011 72.7307 413.742 78.2875 410.242 92.0898C407.999 100.783 403.602 109.029 399.744 117.275C397.68 121.756 397.77 125.251 401.538 128.657C405.038 131.794 408.089 135.289 411.588 138.426C414.46 140.936 414.549 143.535 412.575 146.403C395.796 171.408 375.427 192.918 350.482 210.126C346.175 213.084 342.855 212.457 339.265 208.692C326.972 195.607 327.062 195.966 310.911 203.942C303.463 207.617 295.656 210.485 287.76 213.084C282.107 214.966 279.864 217.834 280.043 224.108C280.402 244.005 281.21 242.571 263.533 245.08C249.714 247.5 235.537 248.755 220.732 250.458ZM185.916 190.498C180.801 190.409 175.687 189.961 170.662 190.498C158.818 191.753 149.755 189.961 144.281 177.144C139.615 166.389 128.937 160.295 119.785 153.125C90.3532 129.822 71.5098 99.5287 64.0622 62.872C55.2686 19.314 63.0752 -21.5551 88.5586 -58.3015C112.427 -92.8969 145.627 -114.317 186.185 -124.176C200.991 -127.761 201.709 -127.134 204.042 -142.28C205.926 -154.649 206.823 -166.927 218.399 -174.994C219.386 -175.711 219.924 -178.131 219.475 -179.296C219.027 -180.282 216.873 -181.178 215.527 -181.088C203.772 -179.923 192.108 -178.489 180.443 -177.145C176.046 -176.607 174.072 -173.918 173.982 -169.706C173.892 -165.045 174.52 -160.295 173.623 -155.724C173.174 -153.125 170.931 -149.719 168.598 -148.644C154.6 -142.28 140.333 -136.455 126.245 -130.36C121.938 -128.478 118.529 -129.016 115.388 -132.511C112.517 -135.648 109.197 -138.427 106.415 -141.653C103.723 -144.79 101.3 -144.88 98.07 -142.549C77.2526 -127.761 58.9476 -110.284 44.5907 -89.1326C43.5139 -87.609 43.7831 -84.024 44.9496 -82.5004C47.9107 -78.4672 51.6794 -74.8822 55.2686 -71.3868C58.4989 -68.1603 58.6784 -65.2027 56.5249 -61.0799C51.3205 -50.773 44.5907 -40.6453 42.3474 -29.6214C38.5788 -11.1586 33.1949 -10.8001 18.1202 -12.5926C13.0953 -13.22 10.4034 -11.2482 9.41638 -5.78106C5.6477 15.3705 5.37851 36.6117 7.89096 57.8529C9.14719 68.3391 9.68557 68.6976 20.4532 68.8769C23.3246 68.8769 26.196 69.2353 28.9776 68.9665C33.6436 68.5183 36.3355 70.6693 37.3225 75.061C40.6426 89.8492 45.9367 103.741 53.8329 116.737C56.6146 121.397 56.0762 126.147 52.0383 130.091C49.167 132.959 46.0264 135.558 42.9756 138.157C39.7453 140.846 39.3863 143.983 41.8091 147.209C56.6146 168.002 73.8428 186.465 94.75 201.343C99.0571 204.39 102.377 204.032 105.697 199.819C107.94 196.951 111.081 194.89 113.504 192.112C116.913 188.079 120.054 188.527 124.63 190.857C135.488 196.234 146.524 201.343 157.831 205.556C168.419 209.499 173.623 216.4 172.367 227.783C171.47 236.118 172.187 237.373 180.532 238.538C191.569 240.061 202.696 241.047 213.822 242.212C217.95 242.66 220.193 240.958 220.193 236.297C220.014 223.122 220.014 209.947 220.193 196.683C220.283 191.753 217.77 190.319 213.374 190.319C204.131 190.588 195.069 190.498 185.916 190.498ZM261.2 190.498C251.868 190.498 242.536 190.588 233.114 190.498C228.987 190.498 226.654 191.932 226.743 196.503C226.833 209.947 226.833 223.301 226.743 236.745C226.743 240.778 228.628 242.302 232.307 242.033C239.844 241.585 247.381 241.316 254.739 240.42C273.672 238 273.942 237.821 273.762 219.089C273.672 213.263 275.826 211.023 280.851 209.051C292.875 204.211 304.719 198.923 316.294 193.187C326.344 188.168 328.857 188.168 336.753 196.683C338.099 198.206 339.624 199.64 340.881 201.164C343.662 204.57 346.534 205.107 350.302 202.419C371.479 187.541 389.066 169.168 403.871 148.016C406.025 144.879 406.025 142.101 403.064 139.322C399.385 135.827 395.975 132.063 392.296 128.567C389.514 125.879 389.694 123.19 391.13 119.784C397.231 104.996 403.154 90.2077 408.807 75.2402C410.332 71.2967 412.037 68.9665 416.523 69.1457C420.741 69.325 425.048 68.8769 429.355 69.1457C434.649 69.4146 436.802 67.4429 437.61 61.9757C441.02 39.659 440.122 17.4319 437.072 -4.79517C436.264 -10.3519 433.303 -13.0407 427.56 -12.5926C424.15 -12.3237 420.651 -12.7719 417.241 -12.3237C411.05 -11.6067 408.448 -14.9228 406.922 -20.2107C403.064 -33.9234 398.398 -47.2776 389.873 -59.0185C386.553 -63.5894 386.912 -68.2499 390.771 -72.3727C393.822 -75.5992 397.052 -78.6465 400.372 -81.6938C403.243 -84.3825 403.512 -87.2505 401.179 -90.2978C398.488 -93.8828 395.796 -97.3782 392.924 -100.874C380.541 -116.02 366.364 -129.285 350.392 -140.667C345.816 -143.894 341.957 -143.894 337.919 -139.95C334.869 -136.993 331.459 -134.304 328.588 -131.257C325.985 -128.389 323.652 -128.837 320.422 -130.181C306.514 -136.276 292.516 -142.191 278.518 -148.017C273.852 -149.899 271.07 -152.767 271.07 -157.965C271.07 -161.998 270.801 -166.121 270.981 -170.154C271.16 -174.366 269.365 -176.697 265.238 -177.145C255.726 -178.31 246.305 -179.565 236.793 -180.371C233.653 -180.64 230.422 -179.654 227.192 -179.206C228.897 -176.159 230.422 -173.022 232.396 -170.244C234.909 -166.838 239.395 -164.149 240.203 -160.564C242.177 -151.96 242.805 -142.997 243.344 -134.125C243.613 -129.106 245.497 -126.506 250.253 -125.879C272.057 -123.19 291.619 -114.407 310.282 -103.383C327.6 -93.1658 342.585 -80.1701 354.609 -63.9479C374.709 -36.7914 384.041 -5.8707 385.566 27.5596C387.72 77.3016 367.531 117.275 330.562 149.54C317.64 160.832 303.373 170.871 295.746 187.182C294.849 188.975 291.08 190.319 288.657 190.409C279.505 190.767 270.352 190.498 261.2 190.498ZM262.456 140.308C263.533 142.28 263.892 143.356 264.52 143.983C274.121 153.573 285.786 159.578 299.156 161.639C301.668 161.998 304.899 160.832 307.052 159.309C314.59 153.842 322.037 148.195 329.126 142.19C353.712 121.308 369.146 94.7786 375.517 63.4097C384.579 19.0451 376.862 -22.0929 349.315 -58.7496C325.357 -90.5667 293.772 -110.374 254.829 -118.53C244.959 -120.591 244.061 -119.785 244.42 -109.926C245.766 -73.4482 247.112 -36.9707 248.548 -0.403535C248.548 0.313468 248.997 1.03048 249.445 2.37486C263.533 -7.66318 277.8 -15.9087 295.477 -15.0125C292.785 -4.97445 290.362 3.98811 287.581 14.4743C296.554 9.99301 303.373 6.0495 310.641 3.27111C318.089 0.492724 325.985 -1.12054 333.702 -3.18193C334.061 -2.55455 334.42 -1.92717 334.779 -1.29979C333.971 0.403093 333.343 2.28524 332.356 3.8985C322.576 19.0452 319.166 35.4466 321.14 53.282C322.127 62.1549 322.755 71.0278 322.845 79.9904C322.934 89.401 321.499 98.5428 316.564 106.878C308.219 121.039 294.849 128.298 280.223 133.945C274.57 136.185 268.827 138.068 262.456 140.308ZM197.043 2.64372C197.402 -6.49806 197.671 -14.1162 198.03 -21.6448C199.286 -51.6693 200.632 -81.6041 201.709 -111.629C202.068 -120.233 201.439 -120.502 193.184 -118.799C172.815 -114.766 153.882 -107.506 136.564 -95.9442C103.454 -73.8963 80.0342 -44.0511 71.5996 -5.1537C58.14 57.1359 75.9066 109.836 126.335 150.346C144.191 164.597 147.512 165.045 167.701 154.738C173.803 151.601 179.725 147.658 183.763 140.756C174.879 137.44 166.804 134.751 158.997 131.435C137.013 122.025 123.105 106.609 122.925 81.514C122.836 73.9855 123.284 66.457 124.182 59.0181C126.694 39.4798 124.271 21.0169 113.683 3.9881C112.696 2.37485 112.158 0.492718 111.081 -2.19604C128.219 -1.03091 142.397 5.42209 155.856 13.9365C156.395 13.4884 157.023 13.0403 157.561 12.5025C155.228 3.6296 152.985 -5.24332 150.562 -14.4747C152.088 -14.7436 153.434 -15.1917 154.69 -15.1021C170.213 -14.2058 183.404 -7.30469 197.043 2.64372ZM264.879 69.8627C264.789 68.7872 264.789 66.3674 264.61 63.9475C262.187 32.2201 245.407 7.30424 226.474 -16.6257C224.052 -19.673 221.988 -19.0456 219.565 -16.1776C205.836 0.492713 193.812 18.2386 186.724 38.8524C178.827 61.6172 178.827 84.1132 189.864 106.161C197.402 121.128 208.438 133.138 220.373 144.431C221.449 145.417 225.039 145.238 226.385 144.162C230.333 141.025 233.832 137.351 237.242 133.586C253.393 115.93 264.969 96.123 264.879 69.8627ZM194.082 127.313C193.902 126.596 193.992 126.058 193.723 125.61C192.197 123.011 190.492 120.411 188.967 117.812C178.379 100.515 173.174 82.0518 175.238 61.5276C176.943 44.8573 182.596 29.5313 190.492 15.012C193.184 10.1722 192.825 6.76647 187.531 4.07771C181.34 0.940818 175.507 -2.73379 169.316 -5.69143C166.804 -6.85656 163.753 -6.9462 159.984 -7.75283C160.612 -4.79519 160.792 -3.18192 161.24 -1.74792C164.74 9.6345 164.919 20.9273 162.048 32.489C159.715 41.5411 157.651 50.6829 155.946 59.8247C150.024 92.8964 165.547 113.869 194.082 127.313ZM284.261 -7.48393C274.031 -6.13955 266.045 -0.582813 257.79 4.52583C253.663 7.12497 253.214 9.99302 255.367 14.2054C258.688 20.6584 262.008 27.201 264.52 34.1022C273.403 58.4803 274.121 82.948 263.264 107.057C260.033 114.138 255.816 120.68 252.047 127.402C265.597 121.308 276.993 112.973 284.44 100.246C292.965 85.6368 291.888 69.9524 288.657 54.0887C284.62 34.4607 278.787 14.9224 284.979 -5.33293C285.068 -5.69143 284.799 -6.13955 284.261 -7.48393ZM182.776 132.421C182.955 131.883 183.134 131.435 183.314 130.898C181.878 129.822 180.443 128.747 179.007 127.761C156.126 111.449 144.371 90.0284 149.127 61.3483C150.921 50.5036 153.613 39.9279 155.498 29.0832C155.946 26.7529 155.587 23.3472 154.062 21.8236C145.986 13.9365 135.936 9.45525 123.643 6.22874C124.81 9.993 125.438 12.4129 126.335 14.8327C130.911 27.0218 133.065 39.4797 131.45 52.4754C130.642 58.9284 129.924 65.3815 129.476 71.8345C128.309 90.2077 131.45 107.057 148.588 117.454C157.023 122.562 166.265 126.416 175.328 130.539C177.571 131.704 180.263 131.883 182.776 132.421ZM322.037 6.408C310.372 9.27601 300.233 14.0261 291.798 21.7339C290.273 23.0783 290.003 26.6633 290.362 28.9936C291.439 35.8051 292.875 42.527 294.58 49.2489C302.476 80.3489 296.374 106.699 268.917 125.968C266.584 127.581 264.61 129.643 262.546 131.525C276.454 128.836 289.106 124.176 300.143 116.02C314.59 105.354 317.371 89.9388 316.564 73.1789C315.935 59.4662 314.679 45.6639 315.397 31.9512C315.756 23.7953 319.435 15.729 322.037 6.408ZM243.523 149.271C249.714 154.111 255.098 158.861 261.021 162.894C269.007 168.271 269.186 168.003 265.507 177.144C263.443 182.253 264.341 183.777 269.724 184.135C272.775 184.314 275.826 184.225 278.877 184.494C288.478 185.211 293.054 182.343 296.823 173.47C298.259 170.153 297.9 168.092 293.952 167.286C280.402 164.597 269.007 158.144 259.495 148.016C254.38 142.37 251.33 142.728 243.523 149.271ZM202.875 149.54C195.786 143.356 192.018 142.997 187.262 147.747C177.302 157.785 165.547 164.417 151.729 167.554C150.562 167.823 149.575 168.54 147.96 169.257C148.768 171.498 149.216 173.649 150.293 175.441C154.869 183.06 171.918 187.72 179.725 183.508C180.712 182.97 181.609 180.819 181.43 179.564C181.16 177.682 180.263 175.71 179.186 174.007C176.674 170.064 177.571 167.823 181.519 165.224C188.698 160.564 195.338 155.096 202.875 149.54ZM219.924 166.658C219.924 165.045 219.744 162.356 220.014 159.757C220.462 155.903 218.847 153.035 215.348 152.408C212.566 151.96 208.887 152.408 206.734 153.931C200.542 158.413 195.069 163.88 188.967 168.54C185.826 170.96 185.647 173.201 187.352 176.338C190.941 182.88 196.594 184.494 203.683 184.404C219.744 184.135 220.642 183.418 219.924 166.658ZM226.743 168.361C226.833 172.215 226.474 176.069 227.013 179.833C227.192 181.357 229.076 183.777 230.243 183.866C237.511 184.225 245.048 184.942 251.958 183.418C255.009 182.701 257.162 177.144 259.226 173.47C259.764 172.484 258.867 169.885 257.79 168.988C251.778 163.611 245.677 158.323 239.216 153.483C237.332 152.049 233.653 151.153 231.768 152.049C229.525 153.035 227.73 156.172 227.013 158.681C226.115 161.729 226.743 165.135 226.743 168.361ZM222.347 -144.969C232.935 -144.969 234.371 -145.776 234.281 -151.781C234.191 -158.234 227.641 -168.72 223.513 -168.989C219.027 -169.258 212.835 -158.951 212.476 -151.691C212.117 -143.446 217.681 -145.149 222.347 -144.969ZM237.511 -127.761C236.973 -127.761 236.345 -127.761 235.806 -127.761C235.806 -121.936 235.717 -116.11 235.806 -110.195C236.434 -79.5427 237.152 -48.8908 237.96 -18.239C238.05 -15.6398 239.126 -12.9511 239.754 -10.352C240.562 -10.5312 241.37 -10.7105 242.177 -10.8001C240.562 -49.7871 239.037 -88.7742 237.511 -127.761ZM208.977 -131.794C207.451 -91.3733 205.836 -51.0419 204.311 -10.6208C209.336 -15.5502 212.835 -112.704 208.977 -131.794ZM219.655 -135.2C219.027 -135.2 218.399 -135.2 217.77 -135.2C216.873 -98.4537 215.976 -61.7073 215.079 -24.9609C216.155 -24.7816 217.232 -24.692 218.309 -24.5128C218.847 -26.9326 219.834 -29.3525 219.834 -31.7724C220.014 -63.5894 220.014 -95.4064 220.014 -127.223C220.014 -129.823 219.834 -132.511 219.655 -135.2ZM228.718 -135.917C228.269 -136.007 227.82 -136.096 227.372 -136.186C227.192 -135.469 226.833 -134.662 226.833 -133.945C226.743 -99.2603 226.743 -64.5753 226.833 -29.8007C226.833 -27.9185 228 -26.126 228.628 -24.2439C229.435 -24.4231 230.153 -24.5128 230.961 -24.692C230.153 -61.7969 229.435 -98.9018 228.718 -135.917Z" fill="white"/>
</g>
</g>
<defs>
<filter id="filter0_dd_1278_714" x="-4.13086" y="-187.578" width="454.372" height="446.036" filterUnits="userSpaceOnUse" color-interpolation-filters="sRGB">
<feFlood flood-opacity="0" result="BackgroundImageFix"/>
<feColorMatrix in="SourceAlpha" type="matrix" values="0 0 0 0 0 0 0 0 0 0 0 0 0 0 0 0 0 0 127 0" result="hardAlpha"/>
<feOffset dy="4"/>
<feGaussianBlur stdDeviation="2"/>
<feComposite in2="hardAlpha" operator="out"/>
<feColorMatrix type="matrix" values="0 0 0 0 0 0 0 0 0 0 0 0 0 0 0 0 0 0 0.25 0"/>
<feBlend mode="normal" in2="BackgroundImageFix" result="effect1_dropShadow_1278_714"/>
<feColorMatrix in="SourceAlpha" type="matrix" values="0 0 0 0 0 0 0 0 0 0 0 0 0 0 0 0 0 0 127 0" result="hardAlpha"/>
<feOffset dy="4"/>
<feGaussianBlur stdDeviation="2"/>
<feComposite in2="hardAlpha" operator="out"/>
<feColorMatrix type="matrix" values="0 0 0 0 0 0 0 0 0 0 0 0 0 0 0 0 0 0 0.25 0"/>
<feBlend mode="normal" in2="effect1_dropShadow_1278_714" result="effect2_dropShadow_1278_714"/>
<feBlend mode="normal" in="SourceGraphic" in2="effect2_dropShadow_1278_714" result="shape"/>
</filter>
<clipPath id="clip0_1278_714">
<rect width="446" height="35" fill="white"/>
</clipPath>
</defs>
</svg>
