<svg width="446" height="179" viewBox="0 0 446 179" fill="none" xmlns="http://www.w3.org/2000/svg">
<g clip-path="url(#clip0_1016_1247)">
<g filter="url(#filter0_dd_1016_1247)">
<path d="M220.732 179.458C205.029 177.217 188.967 175.156 172.905 172.557C165.547 171.392 164.56 169.241 165.637 162.07C167.432 149.702 162.676 143.16 150.921 139.216C142.397 136.348 134.052 132.315 126.066 128.103C121.131 125.503 117.631 125.055 113.952 129.716C111.171 133.211 108.03 136.617 104.441 139.037C102.467 140.381 98.2495 140.74 96.4549 139.575C71.4201 122.725 50.6924 101.484 34.0922 76.2991C31.5798 72.4452 31.7593 68.7705 35.7074 65.544C38.3993 63.393 40.9118 60.9731 43.3345 58.5532C48.5388 53.3549 48.4491 50.1284 45.3983 43.3169C40.822 33.01 36.6944 22.4342 32.9257 11.7688C31.2209 6.92902 29.0673 4.061 23.5041 4.41953C19.4662 4.68839 15.3386 3.79211 11.3007 4.06097C5.55796 4.50912 3.40443 1.64111 2.59686 -3.55717C-1.35128 -30.2655 -1.08208 -56.9739 3.85309 -83.5926C4.66067 -87.9842 7.17312 -89.8664 11.4802 -89.7767C15.3386 -89.6871 19.197 -89.6871 23.0554 -89.4182C29.3365 -88.9701 32.836 -92.107 35.0793 -97.6638C39.7453 -109.494 44.7702 -121.235 49.3464 -133.066C50.0643 -134.858 49.5259 -137.906 48.3594 -139.519C45.3085 -143.552 41.5399 -147.047 38.3096 -150.901C35.4382 -154.217 35.169 -157.623 37.6815 -161.477C53.6535 -185.766 74.3812 -205.214 98.3392 -221.436C101.749 -223.767 104.8 -223.408 107.581 -220.451C110.184 -217.672 112.696 -214.625 115.298 -211.846C118.977 -207.903 122.925 -206.738 128.309 -209.427C139.256 -214.714 150.383 -219.554 161.599 -224.215C165.817 -225.918 167.791 -228.427 167.521 -232.819C167.432 -234.432 167.521 -236.045 167.521 -237.659C167.521 -252.536 167.521 -252.447 181.878 -254.956C210.861 -260.155 239.665 -259.617 268.558 -254.239C275.018 -253.074 278.608 -250.565 277.621 -243.574C277.351 -241.781 277.71 -239.899 277.621 -238.107C277.351 -227.083 278.249 -226.366 288.747 -222.512C298.618 -218.837 308.219 -214.446 317.73 -209.964C322.037 -207.903 325.357 -207.634 328.408 -211.667C329.305 -212.743 330.382 -213.639 331.459 -214.625C342.227 -225.021 343.573 -225.29 355.417 -216.328C375.786 -200.912 393.911 -183.346 408.268 -162.104C411.498 -157.444 410.87 -154.397 406.832 -150.632C393.552 -138.354 393.911 -138.443 401.808 -122.311C405.845 -113.976 409.076 -105.103 412.127 -96.3194C413.652 -92.0174 415.895 -90.0456 420.561 -90.2249C424.779 -90.4041 429.086 -89.6871 433.393 -89.956C438.687 -90.2249 441.109 -87.9842 442.096 -82.8756C447.032 -56.2569 447.839 -29.6381 442.994 -2.92978C442.096 2.17886 439.315 4.50909 434.11 3.88171C414.011 1.73071 413.742 7.28751 410.242 21.0898C407.999 29.7835 403.602 38.029 399.744 46.2746C397.68 50.7558 397.77 54.2512 401.538 57.657C405.038 60.7938 408.089 64.2892 411.588 67.4261C414.46 69.9356 414.549 72.5348 412.575 75.4028C395.796 100.408 375.427 121.918 350.482 139.126C346.175 142.084 342.855 141.457 339.265 137.692C326.972 124.607 327.062 124.966 310.911 132.942C303.463 136.617 295.656 139.485 287.76 142.084C282.107 143.966 279.864 146.834 280.043 153.108C280.402 173.005 281.21 171.571 263.533 174.08C249.714 176.5 235.537 177.755 220.732 179.458ZM185.916 119.498C180.801 119.409 175.687 118.961 170.662 119.498C158.818 120.753 149.755 118.961 144.281 106.144C139.615 95.3893 128.937 89.2947 119.785 82.1247C90.3532 58.8221 71.5098 28.5287 64.0622 -8.12804C55.2686 -51.686 63.0752 -92.5551 88.5586 -129.302C112.427 -163.897 145.627 -185.317 186.185 -195.176C200.991 -198.761 201.709 -198.134 204.042 -213.28C205.926 -225.649 206.823 -237.927 218.399 -245.994C219.386 -246.711 219.924 -249.131 219.475 -250.296C219.027 -251.282 216.873 -252.178 215.527 -252.088C203.772 -250.923 192.108 -249.489 180.443 -248.145C176.046 -247.607 174.072 -244.918 173.982 -240.706C173.892 -236.045 174.52 -231.295 173.623 -226.724C173.174 -224.125 170.931 -220.719 168.598 -219.644C154.6 -213.28 140.333 -207.455 126.245 -201.36C121.938 -199.478 118.529 -200.016 115.388 -203.511C112.517 -206.648 109.197 -209.427 106.415 -212.653C103.723 -215.79 101.3 -215.88 98.07 -213.549C77.2526 -198.761 58.9476 -181.284 44.5907 -160.133C43.5139 -158.609 43.7831 -155.024 44.9496 -153.5C47.9107 -149.467 51.6794 -145.882 55.2686 -142.387C58.4989 -139.16 58.6784 -136.203 56.5249 -132.08C51.3205 -121.773 44.5907 -111.645 42.3474 -100.621C38.5788 -82.1586 33.1949 -81.8001 18.1202 -83.5926C13.0953 -84.22 10.4034 -82.2482 9.41638 -76.7811C5.6477 -55.6295 5.37851 -34.3883 7.89096 -13.1471C9.14719 -2.66092 9.68557 -2.30237 20.4532 -2.12314C23.3246 -2.12314 26.196 -1.76465 28.9776 -2.03354C33.6436 -2.48166 36.3355 -0.330658 37.3225 4.06097C40.6426 18.8492 45.9367 32.7411 53.8329 45.7368C56.6146 50.3973 56.0762 55.1475 52.0383 59.091C49.167 61.959 46.0264 64.5581 42.9756 67.1573C39.7453 69.846 39.3863 72.9829 41.8091 76.2094C56.6146 97.0025 73.8428 115.465 94.75 130.343C99.0571 133.39 102.377 133.032 105.697 128.819C107.94 125.951 111.081 123.89 113.504 121.112C116.913 117.079 120.054 117.527 124.63 119.857C135.488 125.234 146.524 130.343 157.831 134.556C168.419 138.499 173.623 145.4 172.367 156.783C171.47 165.118 172.187 166.373 180.532 167.538C191.569 169.061 202.696 170.047 213.822 171.212C217.95 171.66 220.193 169.958 220.193 165.297C220.014 152.122 220.014 138.947 220.193 125.683C220.283 120.753 217.77 119.319 213.374 119.319C204.131 119.588 195.069 119.498 185.916 119.498ZM261.2 119.498C251.868 119.498 242.536 119.588 233.114 119.498C228.987 119.498 226.654 120.932 226.743 125.503C226.833 138.947 226.833 152.301 226.743 165.745C226.743 169.778 228.628 171.302 232.307 171.033C239.844 170.585 247.381 170.316 254.739 169.42C273.672 167 273.942 166.821 273.762 148.089C273.672 142.263 275.826 140.023 280.851 138.051C292.875 133.211 304.719 127.923 316.294 122.187C326.344 117.168 328.857 117.168 336.753 125.683C338.099 127.206 339.624 128.64 340.881 130.164C343.662 133.57 346.534 134.107 350.302 131.419C371.479 116.541 389.066 98.1676 403.871 77.0161C406.025 73.8792 406.025 71.1008 403.064 68.3224C399.385 64.827 395.975 61.0627 392.296 57.5673C389.514 54.8786 389.694 52.1898 391.13 48.7841C397.231 33.9959 403.154 19.2077 408.807 4.24023C410.332 0.296722 412.037 -2.03351 416.523 -1.85428C420.741 -1.67502 425.048 -2.12314 429.355 -1.85428C434.649 -1.58539 436.802 -3.55714 437.61 -9.02429C441.02 -31.341 440.122 -53.5681 437.072 -75.7952C436.264 -81.3519 433.303 -84.0407 427.56 -83.5926C424.15 -83.3237 420.651 -83.7719 417.241 -83.3237C411.05 -82.6067 408.448 -85.9229 406.922 -91.2107C403.064 -104.923 398.398 -118.278 389.873 -130.019C386.553 -134.589 386.912 -139.25 390.771 -143.373C393.822 -146.599 397.052 -149.646 400.372 -152.694C403.243 -155.383 403.512 -158.251 401.179 -161.298C398.488 -164.883 395.796 -168.378 392.924 -171.874C380.541 -187.02 366.364 -200.285 350.392 -211.667C345.816 -214.894 341.957 -214.894 337.919 -210.95C334.869 -207.993 331.459 -205.304 328.588 -202.257C325.985 -199.389 323.652 -199.837 320.422 -201.181C306.514 -207.276 292.516 -213.191 278.518 -219.017C273.852 -220.899 271.07 -223.767 271.07 -228.965C271.07 -232.998 270.801 -237.121 270.981 -241.154C271.16 -245.366 269.365 -247.697 265.238 -248.145C255.726 -249.31 246.305 -250.565 236.793 -251.371C233.653 -251.64 230.422 -250.654 227.192 -250.206C228.897 -247.159 230.422 -244.022 232.396 -241.244C234.909 -237.838 239.395 -235.149 240.203 -231.564C242.177 -222.96 242.805 -213.997 243.344 -205.125C243.613 -200.106 245.497 -197.506 250.253 -196.879C272.057 -194.19 291.619 -185.407 310.282 -174.383C327.6 -164.166 342.585 -151.17 354.609 -134.948C374.709 -107.791 384.041 -76.8707 385.566 -43.4404C387.72 6.30164 367.531 46.2746 330.562 78.5397C317.64 89.8325 303.373 99.8705 295.746 116.182C294.849 117.975 291.08 119.319 288.657 119.409C279.505 119.767 270.352 119.498 261.2 119.498ZM262.456 69.3082C263.533 71.28 263.892 72.3555 264.52 72.9829C274.121 82.5728 285.786 88.5777 299.156 90.6391C301.668 90.9976 304.899 89.8325 307.052 88.3088C314.59 82.8417 322.037 77.1953 329.126 71.1904C353.712 50.3077 369.146 23.7786 375.517 -7.59032C384.579 -51.9549 376.862 -93.0929 349.315 -129.75C325.357 -161.567 293.772 -181.374 254.829 -189.53C244.959 -191.591 244.061 -190.785 244.42 -180.926C245.766 -144.448 247.112 -107.971 248.548 -71.4035C248.548 -70.6865 248.997 -69.9695 249.445 -68.6251C263.533 -78.6632 277.8 -86.9087 295.477 -86.0125C292.785 -75.9744 290.362 -67.0119 287.581 -56.5257C296.554 -61.007 303.373 -64.9505 310.641 -67.7289C318.089 -70.5073 325.985 -72.1205 333.702 -74.1819C334.061 -73.5546 334.42 -72.9272 334.779 -72.2998C333.971 -70.5969 333.343 -68.7148 332.356 -67.1015C322.576 -51.9548 319.166 -35.5534 321.14 -17.718C322.127 -8.84505 322.755 0.027832 322.845 8.99039C322.934 18.401 321.499 27.5428 316.564 35.878C308.219 50.0388 294.849 57.2985 280.223 62.9449C274.57 65.1855 268.827 67.0676 262.456 69.3082ZM197.043 -68.3563C197.402 -77.4981 197.671 -85.1162 198.03 -92.6448C199.286 -122.669 200.632 -152.604 201.709 -182.629C202.068 -191.233 201.439 -191.502 193.184 -189.799C172.815 -185.766 153.882 -178.506 136.564 -166.944C103.454 -144.896 80.0342 -115.051 71.5996 -76.1537C58.14 -13.8641 75.9066 38.8356 126.335 79.3463C144.191 93.5967 147.512 94.0449 167.701 83.7379C173.803 80.6011 179.725 76.6575 183.763 69.7564C174.879 66.4402 166.804 63.7515 158.997 60.4354C137.013 51.0247 123.105 35.6091 122.925 10.514C122.836 2.9855 123.284 -4.54301 124.182 -11.9819C126.694 -31.5202 124.271 -49.9831 113.683 -67.0119C112.696 -68.6252 112.158 -70.5073 111.081 -73.196C128.219 -72.0309 142.397 -65.5779 155.856 -57.0635C156.395 -57.5116 157.023 -57.9597 157.561 -58.4975C155.228 -67.3704 152.985 -76.2433 150.562 -85.4747C152.088 -85.7436 153.434 -86.1917 154.69 -86.1021C170.213 -85.2058 183.404 -78.3047 197.043 -68.3563ZM264.879 -1.13727C264.789 -2.21277 264.789 -4.63264 264.61 -7.05252C262.187 -38.7799 245.407 -63.6958 226.474 -87.6257C224.052 -90.673 221.988 -90.0456 219.565 -87.1776C205.836 -70.5073 193.812 -52.7614 186.724 -32.1476C178.827 -9.38277 178.827 13.1132 189.864 35.161C197.402 50.1284 208.438 62.1382 220.373 73.431C221.449 74.4169 225.039 74.2377 226.385 73.1622C230.333 70.0253 233.832 66.3506 237.242 62.5863C253.393 44.9301 264.969 25.123 264.879 -1.13727ZM194.082 56.3126C193.902 55.5956 193.992 55.0578 193.723 54.6097C192.197 52.0106 190.492 49.4114 188.967 46.8123C178.379 29.5146 173.174 11.0518 175.238 -9.47243C176.943 -26.1427 182.596 -41.4687 190.492 -55.988C193.184 -60.8278 192.825 -64.2335 187.531 -66.9223C181.34 -70.0592 175.507 -73.7338 169.316 -76.6914C166.804 -77.8566 163.753 -77.9462 159.984 -78.7528C160.612 -75.7952 160.792 -74.1819 161.24 -72.7479C164.74 -61.3655 164.919 -50.0727 162.048 -38.511C159.715 -29.4589 157.651 -20.3171 155.946 -11.1753C150.024 21.8964 165.547 42.8687 194.082 56.3126ZM284.261 -78.4839C274.031 -77.1396 266.045 -71.5828 257.79 -66.4742C253.663 -63.875 253.214 -61.007 255.367 -56.7946C258.688 -50.3416 262.008 -43.799 264.52 -36.8978C273.403 -12.5197 274.121 11.948 263.264 36.0573C260.033 43.1377 255.816 49.6803 252.047 56.4022C265.597 50.3077 276.992 41.9725 284.44 29.2458C292.965 14.6368 291.888 -1.04764 288.657 -16.9113C284.62 -36.5393 278.787 -56.0776 284.979 -76.3329C285.068 -76.6914 284.799 -77.1396 284.261 -78.4839ZM182.776 61.4212C182.955 60.8835 183.134 60.4353 183.314 59.8976C181.878 58.8221 180.443 57.7466 179.007 56.7607C156.126 40.4489 144.371 19.0284 149.127 -9.65169C150.921 -20.4964 153.613 -31.0721 155.498 -41.9168C155.946 -44.2471 155.587 -47.6528 154.062 -49.1764C145.986 -57.0635 135.936 -61.5448 123.643 -64.7713C124.81 -61.007 125.438 -58.5871 126.335 -56.1673C130.911 -43.9782 133.065 -31.5203 131.45 -18.5246C130.642 -12.0716 129.924 -5.61853 129.476 0.834503C128.309 19.2077 131.45 36.0572 148.588 46.4538C157.023 51.5624 166.265 55.4164 175.328 59.5391C177.571 60.7042 180.263 60.8835 182.776 61.4212ZM322.037 -64.592C310.372 -61.724 300.233 -56.9739 291.798 -49.2661C290.273 -47.9217 290.003 -44.3367 290.362 -42.0064C291.439 -35.1949 292.875 -28.473 294.58 -21.7511C302.476 9.34891 296.374 35.6987 268.917 54.9682C266.584 56.5814 264.61 58.6428 262.546 60.525C276.454 57.8362 289.106 53.1757 300.143 45.0198C314.59 34.3544 317.371 18.9388 316.564 2.17886C315.935 -11.5338 314.679 -25.3361 315.397 -39.0488C315.756 -47.2047 319.435 -55.271 322.037 -64.592ZM243.523 78.2708C249.714 83.1105 255.098 87.8607 261.021 91.8938C269.007 97.2714 269.186 97.0025 265.507 106.144C263.443 111.253 264.341 112.777 269.724 113.135C272.775 113.314 275.826 113.225 278.877 113.494C288.478 114.211 293.054 111.343 296.823 102.47C298.259 99.1535 297.9 97.0921 293.952 96.2855C280.402 93.5967 269.007 87.1437 259.495 77.0161C254.38 71.3697 251.33 71.7281 243.523 78.2708ZM202.875 78.5397C195.786 72.3555 192.018 71.997 187.262 76.7472C177.302 86.7852 165.547 93.4175 151.729 96.5544C150.562 96.8232 149.575 97.5403 147.96 98.2573C148.768 100.498 149.216 102.649 150.293 104.441C154.869 112.06 171.918 116.72 179.725 112.508C180.712 111.97 181.609 109.819 181.43 108.564C181.16 106.682 180.263 104.71 179.186 103.007C176.674 99.0639 177.571 96.8233 181.519 94.2241C188.698 89.5636 195.338 84.0965 202.875 78.5397ZM219.924 95.6581C219.924 94.0449 219.745 91.3561 220.014 88.757C220.462 84.903 218.847 82.035 215.348 81.4077C212.566 80.9595 208.887 81.4077 206.734 82.9313C200.542 87.4126 195.069 92.8797 188.967 97.5402C185.826 99.9601 185.647 102.201 187.352 105.338C190.941 111.88 196.594 113.494 203.683 113.404C219.744 113.135 220.642 112.418 219.924 95.6581ZM226.743 97.361C226.833 101.215 226.474 105.069 227.013 108.833C227.192 110.357 229.076 112.777 230.243 112.866C237.511 113.225 245.048 113.942 251.958 112.418C255.009 111.701 257.162 106.144 259.226 102.47C259.764 101.484 258.867 98.8846 257.79 97.9883C251.778 92.6108 245.677 87.3229 239.216 82.4832C237.332 81.0492 233.653 80.1529 231.768 81.0492C229.525 82.0351 227.73 85.1719 227.013 87.6814C226.115 90.7287 226.743 94.1345 226.743 97.361ZM222.347 -215.969C232.935 -215.969 234.371 -216.776 234.281 -222.781C234.191 -229.234 227.641 -239.72 223.513 -239.989C219.027 -240.258 212.835 -229.951 212.476 -222.691C212.117 -214.446 217.681 -216.149 222.347 -215.969ZM237.511 -198.761C236.973 -198.761 236.345 -198.761 235.806 -198.761C235.806 -192.936 235.717 -187.11 235.806 -181.195C236.434 -150.543 237.152 -119.891 237.96 -89.239C238.05 -86.6398 239.126 -83.9511 239.754 -81.352C240.562 -81.5312 241.37 -81.7104 242.177 -81.8001C240.562 -120.787 239.037 -159.774 237.511 -198.761ZM208.977 -202.794C207.451 -162.373 205.836 -122.042 204.311 -81.6208C209.336 -86.5502 212.835 -183.704 208.977 -202.794ZM219.655 -206.2C219.027 -206.2 218.399 -206.2 217.77 -206.2C216.873 -169.454 215.976 -132.707 215.079 -95.9609C216.155 -95.7816 217.232 -95.692 218.309 -95.5128C218.847 -97.9326 219.834 -100.353 219.834 -102.772C220.014 -134.589 220.014 -166.406 220.014 -198.223C220.014 -200.823 219.834 -203.511 219.655 -206.2ZM228.718 -206.917C228.269 -207.007 227.82 -207.096 227.372 -207.186C227.192 -206.469 226.833 -205.662 226.833 -204.945C226.743 -170.26 226.743 -135.575 226.833 -100.801C226.833 -98.9185 228 -97.126 228.628 -95.2439C229.435 -95.4231 230.153 -95.5128 230.961 -95.692C230.153 -132.797 229.435 -169.902 228.718 -206.917Z" fill="white"/>
</g>
</g>
<defs>
<filter id="filter0_dd_1016_1247" x="-4.13086" y="-258.578" width="454.372" height="446.036" filterUnits="userSpaceOnUse" color-interpolation-filters="sRGB">
<feFlood flood-opacity="0" result="BackgroundImageFix"/>
<feColorMatrix in="SourceAlpha" type="matrix" values="0 0 0 0 0 0 0 0 0 0 0 0 0 0 0 0 0 0 127 0" result="hardAlpha"/>
<feOffset dy="4"/>
<feGaussianBlur stdDeviation="2"/>
<feComposite in2="hardAlpha" operator="out"/>
<feColorMatrix type="matrix" values="0 0 0 0 0 0 0 0 0 0 0 0 0 0 0 0 0 0 0.25 0"/>
<feBlend mode="normal" in2="BackgroundImageFix" result="effect1_dropShadow_1016_1247"/>
<feColorMatrix in="SourceAlpha" type="matrix" values="0 0 0 0 0 0 0 0 0 0 0 0 0 0 0 0 0 0 127 0" result="hardAlpha"/>
<feOffset dy="4"/>
<feGaussianBlur stdDeviation="2"/>
<feComposite in2="hardAlpha" operator="out"/>
<feColorMatrix type="matrix" values="0 0 0 0 0 0 0 0 0 0 0 0 0 0 0 0 0 0 0.25 0"/>
<feBlend mode="normal" in2="effect1_dropShadow_1016_1247" result="effect2_dropShadow_1016_1247"/>
<feBlend mode="normal" in="SourceGraphic" in2="effect2_dropShadow_1016_1247" result="shape"/>
</filter>
<clipPath id="clip0_1016_1247">
<rect width="446" height="179" fill="white"/>
</clipPath>
</defs>
</svg>
