<svg width="699" height="622" viewBox="0 0 699 622" fill="none" xmlns="http://www.w3.org/2000/svg">
<g clip-path="url(#clip0_1280_718)">
<g filter="url(#filter0_dd_1280_718)">
<path d="M345.732 488.458C330.029 486.217 313.967 484.156 297.905 481.557C290.547 480.392 289.56 478.241 290.637 471.07C292.432 458.702 287.676 452.16 275.921 448.216C267.397 445.348 259.052 441.315 251.066 437.103C246.131 434.503 242.631 434.055 238.952 438.716C236.171 442.211 233.03 445.617 229.441 448.037C227.467 449.381 223.249 449.74 221.455 448.575C196.42 431.725 175.692 410.484 159.092 385.299C156.58 381.445 156.759 377.771 160.707 374.544C163.399 372.393 165.912 369.973 168.334 367.553C173.539 362.355 173.449 359.128 170.398 352.317C165.822 342.01 161.694 331.434 157.926 320.769C156.221 315.929 154.067 313.061 148.504 313.42C144.466 313.688 140.339 312.792 136.301 313.061C130.558 313.509 128.404 310.641 127.597 305.443C123.649 278.734 123.918 252.026 128.853 225.407C129.661 221.016 132.173 219.134 136.48 219.223C140.339 219.313 144.197 219.313 148.055 219.582C154.337 220.03 157.836 216.893 160.079 211.336C164.745 199.506 169.77 187.765 174.346 175.934C175.064 174.142 174.526 171.094 173.359 169.481C170.309 165.448 166.54 161.953 163.31 158.099C160.438 154.783 160.169 151.377 162.681 147.523C178.653 123.234 199.381 103.786 223.339 87.5636C226.749 85.2334 229.8 85.5918 232.581 88.5495C235.184 91.3279 237.696 94.3751 240.298 97.1535C243.977 101.097 247.925 102.262 253.309 99.5734C264.256 94.2855 275.383 89.4457 286.599 84.7852C290.817 83.0823 292.791 80.5728 292.521 76.1812C292.432 74.5679 292.521 72.9547 292.521 71.3414C292.521 56.4636 292.521 56.5532 306.878 54.0437C335.861 48.8454 364.665 49.3832 393.558 54.7607C400.018 55.9259 403.608 58.4354 402.621 65.4261C402.351 67.2186 402.71 69.1008 402.621 70.8933C402.351 81.9172 403.249 82.6342 413.747 86.4881C423.618 90.1627 433.219 94.5544 442.73 99.0357C447.037 101.097 450.357 101.366 453.408 97.3328C454.305 96.2573 455.382 95.361 456.459 94.3751C467.227 83.9786 468.573 83.7097 480.417 92.6722C500.786 108.088 518.911 125.654 533.268 146.896C536.498 151.556 535.87 154.603 531.832 158.368C518.552 170.646 518.911 170.557 526.808 186.689C530.845 195.024 534.076 203.897 537.127 212.681C538.652 216.983 540.895 218.954 545.561 218.775C549.779 218.596 554.086 219.313 558.393 219.044C563.687 218.775 566.109 221.016 567.096 226.124C572.032 252.743 572.839 279.362 567.994 306.07C567.096 311.179 564.315 313.509 559.11 312.882C539.011 310.731 538.742 316.288 535.242 330.09C532.999 338.783 528.602 347.029 524.744 355.275C522.68 359.756 522.77 363.251 526.538 366.657C530.038 369.794 533.089 373.289 536.588 376.426C539.46 378.936 539.549 381.535 537.575 384.403C520.796 409.408 500.427 430.918 475.482 448.126C471.175 451.084 467.855 450.457 464.265 446.692C451.972 433.607 452.062 433.966 435.911 441.942C428.463 445.617 420.656 448.485 412.76 451.084C407.107 452.966 404.864 455.834 405.043 462.108C405.402 482.005 406.21 480.571 388.533 483.08C374.714 485.5 360.537 486.755 345.732 488.458ZM310.916 428.498C305.801 428.409 300.687 427.961 295.662 428.498C283.818 429.753 274.755 427.961 269.281 415.144C264.615 404.389 253.937 398.295 244.785 391.125C215.353 367.822 196.51 337.529 189.062 300.872C180.269 257.314 188.075 216.445 213.559 179.698C237.427 145.103 270.627 123.683 311.185 113.824C325.991 110.239 326.709 110.866 329.042 95.7195C330.926 83.3512 331.823 71.0725 343.399 63.0062C344.386 62.2892 344.924 59.8694 344.475 58.7042C344.027 57.7184 341.873 56.8221 340.527 56.9117C328.772 58.0769 317.108 59.5109 305.443 60.8552C301.046 61.393 299.072 64.0818 298.982 68.2942C298.892 72.9547 299.52 77.7048 298.623 82.2757C298.174 84.8748 295.931 88.2806 293.598 89.3561C279.6 95.7195 265.333 101.545 251.245 107.64C246.938 109.522 243.529 108.984 240.388 105.489C237.517 102.352 234.197 99.5734 231.415 96.3469C228.723 93.21 226.3 93.1204 223.07 95.4506C202.253 110.239 183.948 127.716 169.591 148.867C168.514 150.391 168.783 153.976 169.95 155.5C172.911 159.533 176.679 163.118 180.269 166.613C183.499 169.84 183.678 172.797 181.525 176.92C176.32 187.227 169.591 197.355 167.347 208.379C163.579 226.841 158.195 227.2 143.12 225.407C138.095 224.78 135.403 226.752 134.416 232.219C130.648 253.371 130.379 274.612 132.891 295.853C134.147 306.339 134.686 306.698 145.453 306.877C148.325 306.877 151.196 307.235 153.978 306.966C158.644 306.518 161.335 308.669 162.323 313.061C165.643 327.849 170.937 341.741 178.833 354.737C181.615 359.397 181.076 364.147 177.038 368.091C174.167 370.959 171.026 373.558 167.976 376.157C164.745 378.846 164.386 381.983 166.809 385.209C181.615 406.002 198.843 424.465 219.75 439.343C224.057 442.39 227.377 442.032 230.697 437.819C232.94 434.951 236.081 432.89 238.504 430.112C241.913 426.079 245.054 426.527 249.63 428.857C260.488 434.234 271.524 439.343 282.831 443.556C293.419 447.499 298.623 454.4 297.367 465.783C296.47 474.118 297.187 475.373 305.532 476.538C316.569 478.061 327.696 479.047 338.822 480.212C342.95 480.66 345.193 478.958 345.193 474.297C345.014 461.122 345.014 447.947 345.193 434.683C345.283 429.753 342.77 428.319 338.374 428.319C329.131 428.588 320.069 428.498 310.916 428.498ZM386.2 428.498C376.868 428.498 367.536 428.588 358.114 428.498C353.987 428.498 351.654 429.932 351.743 434.503C351.833 447.947 351.833 461.301 351.743 474.745C351.743 478.778 353.628 480.302 357.307 480.033C364.844 479.585 372.381 479.316 379.739 478.42C398.672 476 398.942 475.821 398.762 457.089C398.672 451.263 400.826 449.023 405.851 447.051C417.875 442.211 429.719 436.923 441.294 431.187C451.344 426.168 453.857 426.168 461.753 434.683C463.099 436.206 464.624 437.64 465.881 439.164C468.662 442.57 471.534 443.107 475.302 440.419C496.479 425.541 514.066 407.168 528.871 386.016C531.025 382.879 531.025 380.101 528.064 377.322C524.385 373.827 520.975 370.063 517.296 366.567C514.514 363.879 514.694 361.19 516.13 357.784C522.231 342.996 528.154 328.208 533.807 313.24C535.332 309.297 537.037 306.966 541.523 307.146C545.741 307.325 550.048 306.877 554.355 307.146C559.649 307.415 561.802 305.443 562.61 299.976C566.02 277.659 565.122 255.432 562.072 233.205C561.264 227.648 558.303 224.959 552.56 225.407C549.15 225.676 545.651 225.228 542.241 225.676C536.05 226.393 533.448 223.077 531.922 217.789C528.064 204.077 523.398 190.722 514.873 178.981C511.553 174.411 511.912 169.75 515.771 165.627C518.822 162.401 522.052 159.354 525.372 156.306C528.243 153.617 528.512 150.749 526.179 147.702C523.488 144.117 520.796 140.622 517.924 137.126C505.541 121.98 491.364 108.715 475.392 97.3328C470.816 94.1063 466.957 94.1063 462.919 98.0498C459.869 101.007 456.459 103.696 453.588 106.743C450.985 109.611 448.652 109.163 445.422 107.819C431.514 101.724 417.516 95.8091 403.518 89.9835C398.852 88.1014 396.07 85.2333 396.07 80.0351C396.07 76.0019 395.801 71.8792 395.981 67.846C396.16 63.6336 394.365 61.3034 390.238 60.8552C380.726 59.6901 371.305 58.4354 361.793 57.6287C358.653 57.3598 355.422 58.3457 352.192 58.7939C353.897 61.8411 355.422 64.978 357.396 67.7564C359.909 71.1622 364.395 73.8509 365.203 77.4359C367.177 86.04 367.805 95.0025 368.344 103.875C368.613 108.894 370.497 111.494 375.253 112.121C397.057 114.81 416.619 123.593 435.282 134.617C452.6 144.834 467.585 157.83 479.609 174.052C499.709 201.209 509.041 232.129 510.566 265.56C512.72 315.302 492.531 355.275 455.562 387.54C442.64 398.832 428.373 408.871 420.746 425.182C419.849 426.975 416.08 428.319 413.657 428.409C404.505 428.767 395.352 428.498 386.2 428.498ZM387.456 378.308C388.533 380.28 388.892 381.356 389.52 381.983C399.121 391.573 410.786 397.578 424.156 399.639C426.668 399.998 429.899 398.832 432.052 397.309C439.59 391.842 447.037 386.195 454.126 380.19C478.712 359.308 494.146 332.779 500.517 301.41C509.579 257.045 501.862 215.907 474.315 179.25C450.357 147.433 418.772 127.626 379.829 119.47C369.959 117.409 369.061 118.215 369.42 128.074C370.766 164.552 372.112 201.029 373.548 237.596C373.548 238.313 373.997 239.03 374.445 240.375C388.533 230.337 402.8 222.091 420.477 222.988C417.785 233.026 415.362 241.988 412.581 252.474C421.554 247.993 428.373 244.049 435.641 241.271C443.089 238.493 450.985 236.879 458.702 234.818C459.061 235.445 459.42 236.073 459.779 236.7C458.971 238.403 458.343 240.285 457.356 241.898C447.576 257.045 444.166 273.447 446.14 291.282C447.127 300.155 447.755 309.028 447.845 317.99C447.934 327.401 446.499 336.543 441.564 344.878C433.219 359.039 419.849 366.298 405.223 371.945C399.57 374.185 393.827 376.068 387.456 378.308ZM322.043 240.644C322.402 231.502 322.671 223.884 323.03 216.355C324.286 186.331 325.632 156.396 326.709 126.371C327.068 117.767 326.439 117.498 318.184 119.201C297.815 123.234 278.882 130.494 261.564 142.056C228.454 164.104 205.034 193.949 196.6 232.846C183.14 295.136 200.907 347.836 251.335 388.346C269.191 402.597 272.512 403.045 292.701 392.738C298.803 389.601 304.725 385.658 308.763 378.756C299.879 375.44 291.804 372.751 283.997 369.435C262.013 360.025 248.105 344.609 247.925 319.514C247.836 311.986 248.284 304.457 249.182 297.018C251.694 277.48 249.271 259.017 238.683 241.988C237.696 240.375 237.158 238.493 236.081 235.804C253.219 236.969 267.397 243.422 280.856 251.936C281.395 251.488 282.023 251.04 282.561 250.503C280.228 241.63 277.985 232.757 275.562 223.525C277.088 223.256 278.434 222.808 279.69 222.898C295.213 223.794 308.404 230.695 322.043 240.644ZM389.879 307.863C389.789 306.787 389.789 304.367 389.61 301.947C387.187 270.22 370.407 245.304 351.474 221.374C349.052 218.327 346.988 218.954 344.565 221.822C330.836 238.493 318.812 256.239 311.724 276.852C303.827 299.617 303.827 322.113 314.864 344.161C322.402 359.128 333.438 371.138 345.373 382.431C346.449 383.417 350.039 383.238 351.385 382.162C355.333 379.025 358.832 375.351 362.242 371.586C378.393 353.93 389.969 334.123 389.879 307.863ZM319.082 365.313C318.902 364.596 318.992 364.058 318.723 363.61C317.197 361.011 315.492 358.411 313.967 355.812C303.379 338.515 298.174 320.052 300.238 299.528C301.943 282.857 307.596 267.531 315.492 253.012C318.184 248.172 317.825 244.766 312.531 242.078C306.34 238.941 300.507 235.266 294.316 232.309C291.804 231.143 288.753 231.054 284.984 230.247C285.612 233.205 285.792 234.818 286.24 236.252C289.74 247.635 289.919 258.927 287.048 270.489C284.715 279.541 282.651 288.683 280.946 297.825C275.024 330.896 290.547 351.869 319.082 365.313ZM409.261 230.516C399.031 231.86 391.045 237.417 382.79 242.526C378.663 245.125 378.214 247.993 380.367 252.205C383.688 258.658 387.008 265.201 389.52 272.102C398.403 296.48 399.121 320.948 388.264 345.057C385.033 352.138 380.816 358.68 377.047 365.402C390.597 359.308 401.992 350.973 409.44 338.246C417.965 323.637 416.888 307.952 413.657 292.089C409.62 272.461 403.787 252.922 409.979 232.667C410.068 232.309 409.799 231.86 409.261 230.516ZM307.776 370.421C307.955 369.883 308.134 369.435 308.314 368.898C306.878 367.822 305.443 366.747 304.007 365.761C281.126 349.449 269.371 328.028 274.127 299.348C275.921 288.504 278.613 277.928 280.498 267.083C280.946 264.753 280.587 261.347 279.062 259.824C270.986 251.937 260.936 247.455 248.643 244.229C249.81 247.993 250.438 250.413 251.335 252.833C255.911 265.022 258.065 277.48 256.45 290.475C255.642 296.928 254.924 303.381 254.476 309.835C253.309 328.208 256.45 345.057 273.588 355.454C282.023 360.562 291.265 364.416 300.328 368.539C302.571 369.704 305.263 369.883 307.776 370.421ZM447.037 244.408C435.372 247.276 425.233 252.026 416.798 259.734C415.273 261.078 415.003 264.663 415.362 266.994C416.439 273.805 417.875 280.527 419.58 287.249C427.476 318.349 421.374 344.699 393.917 363.968C391.584 365.581 389.61 367.643 387.546 369.525C401.454 366.836 414.106 362.176 425.143 354.02C439.59 343.354 442.371 327.939 441.564 311.179C440.935 297.466 439.679 283.664 440.397 269.951C440.756 261.795 444.435 253.729 447.037 244.408ZM368.523 387.271C374.714 392.111 380.098 396.861 386.021 400.894C394.007 406.271 394.186 406.003 390.507 415.144C388.443 420.253 389.341 421.777 394.724 422.135C397.775 422.314 400.826 422.225 403.877 422.494C413.478 423.211 418.054 420.343 421.823 411.47C423.259 408.153 422.9 406.092 418.952 405.285C405.402 402.597 394.007 396.144 384.495 386.016C379.38 380.37 376.33 380.728 368.523 387.271ZM327.875 387.54C320.786 381.356 317.018 380.997 312.262 385.747C302.302 395.785 290.547 402.417 276.729 405.554C275.562 405.823 274.575 406.54 272.96 407.257C273.768 409.498 274.216 411.649 275.293 413.441C279.869 421.06 296.918 425.72 304.725 421.508C305.712 420.97 306.609 418.819 306.43 417.564C306.16 415.682 305.263 413.71 304.186 412.007C301.674 408.064 302.571 405.823 306.519 403.224C313.698 398.564 320.338 393.096 327.875 387.54ZM344.924 404.658C344.924 403.045 344.745 400.356 345.014 397.757C345.462 393.903 343.847 391.035 340.348 390.408C337.566 389.96 333.887 390.408 331.734 391.931C325.542 396.413 320.069 401.88 313.967 406.54C310.826 408.96 310.647 411.201 312.352 414.338C315.941 420.88 321.594 422.494 328.683 422.404C344.744 422.135 345.642 421.418 344.924 404.658ZM351.743 406.361C351.833 410.215 351.474 414.069 352.013 417.833C352.192 419.357 354.076 421.777 355.243 421.866C362.511 422.225 370.048 422.942 376.958 421.418C380.009 420.701 382.162 415.144 384.226 411.47C384.764 410.484 383.867 407.885 382.79 406.988C376.778 401.611 370.677 396.323 364.216 391.483C362.332 390.049 358.653 389.153 356.768 390.049C354.525 391.035 352.73 394.172 352.013 396.681C351.115 399.729 351.743 403.134 351.743 406.361ZM347.347 93.0307C357.935 93.0307 359.371 92.2241 359.281 86.2192C359.191 79.7662 352.641 69.28 348.513 69.0112C344.027 68.7423 337.835 79.0492 337.476 86.3088C337.117 94.5544 342.681 92.8515 347.347 93.0307ZM362.511 110.239C361.973 110.239 361.345 110.239 360.806 110.239C360.806 116.064 360.717 121.89 360.806 127.805C361.434 158.457 362.152 189.109 362.96 219.761C363.05 222.36 364.126 225.049 364.754 227.648C365.562 227.469 366.37 227.29 367.177 227.2C365.562 188.213 364.037 149.226 362.511 110.239ZM333.977 106.206C332.451 146.627 330.836 186.958 329.311 227.379C334.336 222.45 337.835 125.296 333.977 106.206ZM344.655 102.8C344.027 102.8 343.399 102.8 342.77 102.8C341.873 139.546 340.976 176.293 340.079 213.039C341.155 213.218 342.232 213.308 343.309 213.487C343.847 211.067 344.834 208.647 344.834 206.228C345.014 174.411 345.014 142.594 345.014 110.777C345.014 108.177 344.834 105.489 344.655 102.8ZM353.718 102.083C353.269 101.993 352.82 101.904 352.372 101.814C352.192 102.531 351.833 103.338 351.833 104.055C351.743 138.74 351.743 173.425 351.833 208.199C351.833 210.081 353 211.874 353.628 213.756C354.435 213.577 355.153 213.487 355.961 213.308C355.153 176.203 354.435 139.098 353.718 102.083Z" fill="white"/>
</g>
</g>
<g clip-path="url(#clip1_1280_718)">
<g filter="url(#filter1_dd_1280_718)">
<path d="M345.732 488.458C330.029 486.217 313.967 484.156 297.905 481.557C290.547 480.392 289.56 478.241 290.637 471.07C292.432 458.702 287.676 452.16 275.921 448.216C267.397 445.348 259.052 441.315 251.066 437.103C246.131 434.503 242.631 434.055 238.952 438.716C236.171 442.211 233.03 445.617 229.441 448.037C227.467 449.381 223.249 449.74 221.455 448.575C196.42 431.725 175.692 410.484 159.092 385.299C156.58 381.445 156.759 377.771 160.707 374.544C163.399 372.393 165.912 369.973 168.334 367.553C173.539 362.355 173.449 359.128 170.398 352.317C165.822 342.01 161.694 331.434 157.926 320.769C156.221 315.929 154.067 313.061 148.504 313.42C144.466 313.688 140.339 312.792 136.301 313.061C130.558 313.509 128.404 310.641 127.597 305.443C123.649 278.734 123.918 252.026 128.853 225.407C129.661 221.016 132.173 219.134 136.48 219.223C140.339 219.313 144.197 219.313 148.055 219.582C154.337 220.03 157.836 216.893 160.079 211.336C164.745 199.506 169.77 187.765 174.346 175.934C175.064 174.142 174.526 171.094 173.359 169.481C170.309 165.448 166.54 161.953 163.31 158.099C160.438 154.783 160.169 151.377 162.681 147.523C178.653 123.234 199.381 103.786 223.339 87.5636C226.749 85.2334 229.8 85.5918 232.581 88.5495C235.184 91.3279 237.696 94.3751 240.298 97.1535C243.977 101.097 247.925 102.262 253.309 99.5734C264.256 94.2855 275.383 89.4457 286.599 84.7852C290.817 83.0823 292.791 80.5728 292.521 76.1812C292.432 74.5679 292.521 72.9547 292.521 71.3414C292.521 56.4636 292.521 56.5532 306.878 54.0437C335.861 48.8454 364.665 49.3832 393.558 54.7607C400.018 55.9259 403.608 58.4354 402.621 65.4261C402.351 67.2186 402.71 69.1008 402.621 70.8933C402.351 81.9172 403.249 82.6342 413.747 86.4881C423.618 90.1627 433.219 94.5544 442.73 99.0357C447.037 101.097 450.357 101.366 453.408 97.3328C454.305 96.2573 455.382 95.361 456.459 94.3751C467.227 83.9786 468.573 83.7097 480.417 92.6722C500.786 108.088 518.911 125.654 533.268 146.896C536.498 151.556 535.87 154.603 531.832 158.368C518.552 170.646 518.911 170.557 526.808 186.689C530.845 195.024 534.076 203.897 537.127 212.681C538.652 216.983 540.895 218.954 545.561 218.775C549.779 218.596 554.086 219.313 558.393 219.044C563.687 218.775 566.109 221.016 567.096 226.124C572.032 252.743 572.839 279.362 567.994 306.07C567.096 311.179 564.315 313.509 559.11 312.882C539.011 310.731 538.742 316.288 535.242 330.09C532.999 338.783 528.602 347.029 524.744 355.275C522.68 359.756 522.77 363.251 526.538 366.657C530.038 369.794 533.089 373.289 536.588 376.426C539.46 378.936 539.549 381.535 537.575 384.403C520.796 409.408 500.427 430.918 475.482 448.126C471.175 451.084 467.855 450.457 464.265 446.692C451.972 433.607 452.062 433.966 435.911 441.942C428.463 445.617 420.656 448.485 412.76 451.084C407.107 452.966 404.864 455.834 405.043 462.108C405.402 482.005 406.21 480.571 388.533 483.08C374.714 485.5 360.537 486.755 345.732 488.458ZM310.916 428.498C305.801 428.409 300.687 427.961 295.662 428.498C283.818 429.753 274.755 427.961 269.281 415.144C264.615 404.389 253.937 398.295 244.785 391.125C215.353 367.822 196.51 337.529 189.062 300.872C180.269 257.314 188.075 216.445 213.559 179.698C237.427 145.103 270.627 123.683 311.185 113.824C325.991 110.239 326.709 110.866 329.042 95.7195C330.926 83.3512 331.823 71.0725 343.399 63.0062C344.386 62.2892 344.924 59.8694 344.475 58.7042C344.027 57.7184 341.873 56.8221 340.527 56.9117C328.772 58.0769 317.108 59.5109 305.443 60.8552C301.046 61.393 299.072 64.0818 298.982 68.2942C298.892 72.9547 299.52 77.7048 298.623 82.2757C298.174 84.8748 295.931 88.2806 293.598 89.3561C279.6 95.7195 265.333 101.545 251.245 107.64C246.938 109.522 243.529 108.984 240.388 105.489C237.517 102.352 234.197 99.5734 231.415 96.3469C228.723 93.21 226.3 93.1204 223.07 95.4506C202.253 110.239 183.948 127.716 169.591 148.867C168.514 150.391 168.783 153.976 169.95 155.5C172.911 159.533 176.679 163.118 180.269 166.613C183.499 169.84 183.678 172.797 181.525 176.92C176.32 187.227 169.591 197.355 167.347 208.379C163.579 226.841 158.195 227.2 143.12 225.407C138.095 224.78 135.403 226.752 134.416 232.219C130.648 253.371 130.379 274.612 132.891 295.853C134.147 306.339 134.686 306.698 145.453 306.877C148.325 306.877 151.196 307.235 153.978 306.966C158.644 306.518 161.335 308.669 162.323 313.061C165.643 327.849 170.937 341.741 178.833 354.737C181.615 359.397 181.076 364.147 177.038 368.091C174.167 370.959 171.026 373.558 167.976 376.157C164.745 378.846 164.386 381.983 166.809 385.209C181.615 406.002 198.843 424.465 219.75 439.343C224.057 442.39 227.377 442.032 230.697 437.819C232.94 434.951 236.081 432.89 238.504 430.112C241.913 426.079 245.054 426.527 249.63 428.857C260.488 434.234 271.524 439.343 282.831 443.556C293.419 447.499 298.623 454.4 297.367 465.783C296.47 474.118 297.187 475.373 305.532 476.538C316.569 478.061 327.696 479.047 338.822 480.212C342.95 480.66 345.193 478.958 345.193 474.297C345.014 461.122 345.014 447.947 345.193 434.683C345.283 429.753 342.77 428.319 338.374 428.319C329.131 428.588 320.069 428.498 310.916 428.498ZM386.2 428.498C376.868 428.498 367.536 428.588 358.114 428.498C353.987 428.498 351.654 429.932 351.743 434.503C351.833 447.947 351.833 461.301 351.743 474.745C351.743 478.778 353.628 480.302 357.307 480.033C364.844 479.585 372.381 479.316 379.739 478.42C398.672 476 398.942 475.821 398.762 457.089C398.672 451.263 400.826 449.023 405.851 447.051C417.875 442.211 429.719 436.923 441.294 431.187C451.344 426.168 453.857 426.168 461.753 434.683C463.099 436.206 464.624 437.64 465.881 439.164C468.662 442.57 471.534 443.107 475.302 440.419C496.479 425.541 514.066 407.168 528.871 386.016C531.025 382.879 531.025 380.101 528.064 377.322C524.385 373.827 520.975 370.063 517.296 366.567C514.514 363.879 514.694 361.19 516.13 357.784C522.231 342.996 528.154 328.208 533.807 313.24C535.332 309.297 537.037 306.966 541.523 307.146C545.741 307.325 550.048 306.877 554.355 307.146C559.649 307.415 561.802 305.443 562.61 299.976C566.02 277.659 565.122 255.432 562.072 233.205C561.264 227.648 558.303 224.959 552.56 225.407C549.15 225.676 545.651 225.228 542.241 225.676C536.05 226.393 533.448 223.077 531.922 217.789C528.064 204.077 523.398 190.722 514.873 178.981C511.553 174.411 511.912 169.75 515.771 165.627C518.822 162.401 522.052 159.354 525.372 156.306C528.243 153.617 528.512 150.749 526.179 147.702C523.488 144.117 520.796 140.622 517.924 137.126C505.541 121.98 491.364 108.715 475.392 97.3328C470.816 94.1063 466.957 94.1063 462.919 98.0498C459.869 101.007 456.459 103.696 453.588 106.743C450.985 109.611 448.652 109.163 445.422 107.819C431.514 101.724 417.516 95.8091 403.518 89.9835C398.852 88.1014 396.07 85.2333 396.07 80.0351C396.07 76.0019 395.801 71.8792 395.981 67.846C396.16 63.6336 394.365 61.3034 390.238 60.8552C380.726 59.6901 371.305 58.4354 361.793 57.6287C358.653 57.3598 355.422 58.3457 352.192 58.7939C353.897 61.8411 355.422 64.978 357.396 67.7564C359.909 71.1622 364.395 73.8509 365.203 77.4359C367.177 86.04 367.805 95.0025 368.344 103.875C368.613 108.894 370.497 111.494 375.253 112.121C397.057 114.81 416.619 123.593 435.282 134.617C452.6 144.834 467.585 157.83 479.609 174.052C499.709 201.209 509.041 232.129 510.566 265.56C512.72 315.302 492.531 355.275 455.562 387.54C442.64 398.832 428.373 408.871 420.746 425.182C419.849 426.975 416.08 428.319 413.657 428.409C404.505 428.767 395.352 428.498 386.2 428.498ZM387.456 378.308C388.533 380.28 388.892 381.356 389.52 381.983C399.121 391.573 410.786 397.578 424.156 399.639C426.668 399.998 429.899 398.832 432.052 397.309C439.59 391.842 447.037 386.195 454.126 380.19C478.712 359.308 494.146 332.779 500.517 301.41C509.579 257.045 501.862 215.907 474.315 179.25C450.357 147.433 418.772 127.626 379.829 119.47C369.959 117.409 369.061 118.215 369.42 128.074C370.766 164.552 372.112 201.029 373.548 237.596C373.548 238.313 373.997 239.03 374.445 240.375C388.533 230.337 402.8 222.091 420.477 222.988C417.785 233.026 415.362 241.988 412.581 252.474C421.554 247.993 428.373 244.049 435.641 241.271C443.089 238.493 450.985 236.879 458.702 234.818C459.061 235.445 459.42 236.073 459.779 236.7C458.971 238.403 458.343 240.285 457.356 241.898C447.576 257.045 444.166 273.447 446.14 291.282C447.127 300.155 447.755 309.028 447.845 317.99C447.934 327.401 446.499 336.543 441.564 344.878C433.219 359.039 419.849 366.298 405.223 371.945C399.57 374.185 393.827 376.068 387.456 378.308ZM322.043 240.644C322.402 231.502 322.671 223.884 323.03 216.355C324.286 186.331 325.632 156.396 326.709 126.371C327.068 117.767 326.439 117.498 318.184 119.201C297.815 123.234 278.882 130.494 261.564 142.056C228.454 164.104 205.034 193.949 196.6 232.846C183.14 295.136 200.907 347.836 251.335 388.346C269.191 402.597 272.512 403.045 292.701 392.738C298.803 389.601 304.725 385.658 308.763 378.756C299.879 375.44 291.804 372.751 283.997 369.435C262.013 360.025 248.105 344.609 247.925 319.514C247.836 311.986 248.284 304.457 249.182 297.018C251.694 277.48 249.271 259.017 238.683 241.988C237.696 240.375 237.158 238.493 236.081 235.804C253.219 236.969 267.397 243.422 280.856 251.936C281.395 251.488 282.023 251.04 282.561 250.503C280.228 241.63 277.985 232.757 275.562 223.525C277.088 223.256 278.434 222.808 279.69 222.898C295.213 223.794 308.404 230.695 322.043 240.644ZM389.879 307.863C389.789 306.787 389.789 304.367 389.61 301.947C387.187 270.22 370.407 245.304 351.474 221.374C349.052 218.327 346.988 218.954 344.565 221.822C330.836 238.493 318.812 256.239 311.724 276.852C303.827 299.617 303.827 322.113 314.864 344.161C322.402 359.128 333.438 371.138 345.373 382.431C346.449 383.417 350.039 383.238 351.385 382.162C355.333 379.025 358.832 375.351 362.242 371.586C378.393 353.93 389.969 334.123 389.879 307.863ZM319.082 365.313C318.902 364.596 318.992 364.058 318.723 363.61C317.197 361.011 315.492 358.411 313.967 355.812C303.379 338.515 298.174 320.052 300.238 299.528C301.943 282.857 307.596 267.531 315.492 253.012C318.184 248.172 317.825 244.766 312.531 242.078C306.34 238.941 300.507 235.266 294.316 232.309C291.804 231.143 288.753 231.054 284.984 230.247C285.612 233.205 285.792 234.818 286.24 236.252C289.74 247.635 289.919 258.927 287.048 270.489C284.715 279.541 282.651 288.683 280.946 297.825C275.024 330.896 290.547 351.869 319.082 365.313ZM409.261 230.516C399.031 231.86 391.045 237.417 382.79 242.526C378.663 245.125 378.214 247.993 380.367 252.205C383.688 258.658 387.008 265.201 389.52 272.102C398.403 296.48 399.121 320.948 388.264 345.057C385.033 352.138 380.816 358.68 377.047 365.402C390.597 359.308 401.992 350.973 409.44 338.246C417.965 323.637 416.888 307.952 413.657 292.089C409.62 272.461 403.787 252.922 409.979 232.667C410.068 232.309 409.799 231.86 409.261 230.516ZM307.776 370.421C307.955 369.883 308.134 369.435 308.314 368.898C306.878 367.822 305.443 366.747 304.007 365.761C281.126 349.449 269.371 328.028 274.127 299.348C275.921 288.504 278.613 277.928 280.498 267.083C280.946 264.753 280.587 261.347 279.062 259.824C270.986 251.937 260.936 247.455 248.643 244.229C249.81 247.993 250.438 250.413 251.335 252.833C255.911 265.022 258.065 277.48 256.45 290.475C255.642 296.928 254.924 303.381 254.476 309.835C253.309 328.208 256.45 345.057 273.588 355.454C282.023 360.562 291.265 364.416 300.328 368.539C302.571 369.704 305.263 369.883 307.776 370.421ZM447.037 244.408C435.372 247.276 425.233 252.026 416.798 259.734C415.273 261.078 415.003 264.663 415.362 266.994C416.439 273.805 417.875 280.527 419.58 287.249C427.476 318.349 421.374 344.699 393.917 363.968C391.584 365.581 389.61 367.643 387.546 369.525C401.454 366.836 414.106 362.176 425.143 354.02C439.59 343.354 442.371 327.939 441.564 311.179C440.935 297.466 439.679 283.664 440.397 269.951C440.756 261.795 444.435 253.729 447.037 244.408ZM368.523 387.271C374.714 392.111 380.098 396.861 386.021 400.894C394.007 406.271 394.186 406.003 390.507 415.144C388.443 420.253 389.341 421.777 394.724 422.135C397.775 422.314 400.826 422.225 403.877 422.494C413.478 423.211 418.054 420.343 421.823 411.47C423.259 408.153 422.9 406.092 418.952 405.285C405.402 402.597 394.007 396.144 384.495 386.016C379.38 380.37 376.33 380.728 368.523 387.271ZM327.875 387.54C320.786 381.356 317.018 380.997 312.262 385.747C302.302 395.785 290.547 402.417 276.729 405.554C275.562 405.823 274.575 406.54 272.96 407.257C273.768 409.498 274.216 411.649 275.293 413.441C279.869 421.06 296.918 425.72 304.725 421.508C305.712 420.97 306.609 418.819 306.43 417.564C306.16 415.682 305.263 413.71 304.186 412.007C301.674 408.064 302.571 405.823 306.519 403.224C313.698 398.564 320.338 393.096 327.875 387.54ZM344.924 404.658C344.924 403.045 344.745 400.356 345.014 397.757C345.462 393.903 343.847 391.035 340.348 390.408C337.566 389.96 333.887 390.408 331.734 391.931C325.542 396.413 320.069 401.88 313.967 406.54C310.826 408.96 310.647 411.201 312.352 414.338C315.941 420.88 321.594 422.494 328.683 422.404C344.744 422.135 345.642 421.418 344.924 404.658ZM351.743 406.361C351.833 410.215 351.474 414.069 352.013 417.833C352.192 419.357 354.076 421.777 355.243 421.866C362.511 422.225 370.048 422.942 376.958 421.418C380.009 420.701 382.162 415.144 384.226 411.47C384.764 410.484 383.867 407.885 382.79 406.988C376.778 401.611 370.677 396.323 364.216 391.483C362.332 390.049 358.653 389.153 356.768 390.049C354.525 391.035 352.73 394.172 352.013 396.681C351.115 399.729 351.743 403.134 351.743 406.361ZM347.347 93.0307C357.935 93.0307 359.371 92.2241 359.281 86.2192C359.191 79.7662 352.641 69.28 348.513 69.0112C344.027 68.7423 337.835 79.0492 337.476 86.3088C337.117 94.5544 342.681 92.8515 347.347 93.0307ZM362.511 110.239C361.973 110.239 361.345 110.239 360.806 110.239C360.806 116.064 360.717 121.89 360.806 127.805C361.434 158.457 362.152 189.109 362.96 219.761C363.05 222.36 364.126 225.049 364.754 227.648C365.562 227.469 366.37 227.29 367.177 227.2C365.562 188.213 364.037 149.226 362.511 110.239ZM333.977 106.206C332.451 146.627 330.836 186.958 329.311 227.379C334.336 222.45 337.835 125.296 333.977 106.206ZM344.655 102.8C344.027 102.8 343.399 102.8 342.77 102.8C341.873 139.546 340.976 176.293 340.079 213.039C341.155 213.218 342.232 213.308 343.309 213.487C343.847 211.067 344.834 208.647 344.834 206.228C345.014 174.411 345.014 142.594 345.014 110.777C345.014 108.177 344.834 105.489 344.655 102.8ZM353.718 102.083C353.269 101.993 352.82 101.904 352.372 101.814C352.192 102.531 351.833 103.338 351.833 104.055C351.743 138.74 351.743 173.425 351.833 208.199C351.833 210.081 353 211.874 353.628 213.756C354.435 213.577 355.153 213.487 355.961 213.308C355.153 176.203 354.435 139.098 353.718 102.083Z" fill="white"/>
</g>
</g>
<g filter="url(#filter2_d_1280_718)">
<path d="M563.507 561.772C556.778 571.093 548.792 577.456 539.908 582.834C515.053 597.981 488.852 600.669 461.484 591.08C442.64 584.447 426.668 572.975 411.325 560.517C401.544 552.541 391.045 546.088 377.676 547.253C375.163 547.432 372.561 548.149 369.6 549.941C373.01 552.182 376.33 554.512 379.919 556.574C402.082 569.301 421.644 585.344 439.59 603.358C443.089 606.854 443.448 609.363 440.307 613.127C432.142 622.897 430.706 623.076 422.272 613.575C405.313 594.396 387.097 576.56 366.1 561.772C353.628 552.989 349.321 552.989 336.579 561.503C313.608 576.919 293.688 595.471 277.178 617.609C273.229 622.897 271.345 622.807 266.5 618.057C258.155 609.811 258.155 609.094 266.5 600.669C284.984 581.848 305.622 565.984 328.503 552.899C330.208 551.913 331.823 550.838 334.874 548.956C326.619 546.088 319.171 545.55 313.07 548.776C301.494 554.961 289.919 561.503 279.78 569.659C259.949 585.523 238.863 597.801 212.841 598.608C184.486 599.594 160.528 589.108 140.877 568.763C140.069 567.956 139.711 566.791 138.634 564.909C141.326 565.626 143.12 565.805 144.646 566.522C173.988 579.966 202.612 577.098 230.787 562.758C249.989 552.989 269.55 544.116 290.817 539.366C308.224 535.512 325.542 535.333 342.591 540.889C348.693 542.861 354.077 542.861 360.268 540.8C382.521 533.45 404.864 534.526 426.668 542.323C442.282 547.88 457.625 554.512 472.7 561.593C502.221 575.664 531.474 577.636 560.995 561.772C561.264 561.593 561.713 561.772 563.507 561.772Z" fill="white"/>
<path d="M596.797 370.153C592.849 394.531 589.529 417.117 585.491 439.703C582.082 458.793 572.121 474.746 559.739 489.355C558.482 490.879 557.137 492.402 556.329 494.733C557.406 494.195 558.752 493.926 559.559 493.03C576.787 474.567 598.951 463.274 620.666 451.444C641.393 440.151 660.327 426.797 672.889 406.093C673.248 405.466 673.966 405.107 674.504 404.569C675.042 404.749 675.491 405.018 676.029 405.197C674.594 410.037 673.696 415.145 671.543 419.716C655.661 454.312 632.51 482.275 596.797 497.869C588.452 501.544 579.569 504.054 570.776 506.294C557.944 509.431 544.933 511.851 532.012 514.54C530.666 514.809 529.32 514.988 526.808 515.346C531.294 508.714 535.512 503.157 539.011 497.152C549.509 479.048 555.252 459.151 560.726 439.165C567.007 416.131 577.775 395.428 591.683 376.158C592.849 374.455 594.375 372.932 596.797 370.153Z" fill="white"/>
<path d="M105.164 376.247C109.741 382.969 114.586 389.601 118.983 396.413C131.096 415.234 138.095 436.117 144.197 457.448C149.94 477.524 157.926 496.435 171.385 512.657C172.193 513.553 172.731 514.629 173.36 515.704C173.539 515.973 173.36 516.421 173.36 517.317C157.836 514.449 142.133 512.209 126.789 508.713C74.656 496.972 43.2504 462.825 25.2146 414.248C24.6762 412.725 24.6762 411.022 24.2275 407.974C26.1119 409.498 26.8297 409.857 27.1886 410.484C39.8406 432.621 60.2992 445.617 82.1934 456.91C100.947 466.589 119.521 476.628 135.045 491.326C136.032 492.312 137.198 493.208 138.365 494.015C140.07 495.09 141.774 496.076 144.377 496.345C142.133 493.836 139.8 491.326 137.557 488.817C123.559 472.953 115.932 454.221 112.612 433.607C109.561 414.876 106.959 396.054 104.088 377.233C104.447 376.874 104.805 376.516 105.164 376.247Z" fill="white"/>
<path d="M106.779 457.269C98.9728 451.891 92.0636 447.141 85.1543 442.391C66.6699 429.485 48.3648 416.4 32.9312 399.819C15.344 380.998 4.48667 358.86 0.538531 333.586C-0.627964 325.789 0.35907 317.543 1.16664 309.298C2.78179 313.062 4.48667 316.916 6.10182 320.68C13.8186 338.067 26.2912 351.959 39.0329 365.672C52.0438 379.743 63.9779 394.531 73.1304 411.381C74.2969 413.442 76.0018 415.145 78.0656 417.655C78.2451 416.221 78.5143 415.593 78.3348 415.145C66.4007 391.036 66.7596 365.762 71.3358 340.129C73.6688 326.595 76.0915 313.151 78.6937 298.542C83.6289 310.463 86.3208 322.024 87.577 333.855C90.0895 358.054 91.6149 382.432 95.0247 406.541C97.0885 421.06 101.844 435.221 105.523 449.561C105.882 450.906 106.51 452.25 106.869 453.594C106.959 454.311 106.779 455.118 106.779 457.269Z" fill="white"/>
<path d="M438.603 535.063C442.102 533.808 445.602 532.285 449.191 531.299C469.29 525.742 483.468 512.029 497.376 497.51C511.643 482.632 526.449 468.202 541.075 453.683C542.6 452.159 544.484 450.994 547.266 450.277C543.677 458.702 540.626 467.396 536.498 475.641C530.845 487.024 525.103 498.406 518.104 508.982C511.553 518.841 501.593 524.935 490.198 528.61C488.044 529.327 485.89 530.402 483.827 531.209C484.006 531.747 484.186 532.285 484.275 532.822C490.108 531.657 495.851 530.223 501.773 529.506C520.706 527.176 539.729 524.935 558.662 522.963C581.364 520.633 602.361 514.359 619.589 498.227C620.037 498.585 620.486 498.944 620.935 499.213C618.961 502.619 617.435 506.293 615.013 509.34C586.119 545.639 549.42 562.219 502.939 552.361C481.404 547.79 460.138 541.695 438.692 536.318C438.692 536.049 438.603 535.601 438.603 535.063Z" fill="white"/>
<path d="M262.372 538.648C258.155 539.724 253.937 540.799 249.81 541.785C229.082 546.715 208.534 552.899 187.537 556.394C155.682 561.592 127.058 552.54 103.1 530.941C95.2938 523.95 89.0127 515.346 82.1932 507.369C80.937 505.935 80.3088 504.053 80.3986 501.454C83.0905 503.605 85.7824 505.846 88.564 507.907C105.254 520.544 124.905 524.846 145.094 526.459C169.411 528.341 193.818 529.417 217.596 535.511C218.135 535.691 218.763 535.422 219.75 534.346C217.686 533.54 215.712 532.464 213.648 531.837C194.984 526.639 182.332 514.181 173.628 497.6C166.271 483.618 160.079 469.01 153.349 454.759C153.26 454.49 153.529 454.042 153.978 452.07C160.528 457.717 166.899 462.467 172.552 468.024C186.28 481.557 199.74 495.27 213.02 509.162C225.313 522.068 240.926 529.148 257.168 535.332C258.962 536.049 260.757 536.677 262.551 537.394C262.372 537.752 262.372 538.2 262.372 538.648Z" fill="white"/>
<path d="M622.46 293.702C625.601 317.184 629.19 340.576 631.612 364.058C633.138 378.846 629.459 393.097 623.806 406.72C623.088 408.512 622.46 410.394 622.998 412.904C627.844 405.375 632.241 397.399 637.624 390.318C647.854 376.964 658.262 363.789 669.299 351.152C680.516 338.335 690.027 324.712 696.129 308.759C696.308 308.311 696.846 307.952 698.641 307.594C698.641 313.957 699 320.321 698.551 326.595C696.667 351.69 685.002 372.483 669.748 391.752C652.609 413.262 629.549 427.423 607.744 443.197C603.527 446.244 599.309 449.292 594.464 452.787C594.464 451.084 594.285 450.457 594.464 449.919C606.398 419.895 606.667 388.078 609.718 356.709C611.603 337.798 615.461 319.156 618.512 300.334C618.96 297.914 620.306 295.584 621.204 293.254C621.652 293.433 622.101 293.612 622.46 293.702Z" fill="white"/>
<path d="M80.7576 207.572C80.3986 215.101 80.3089 221.643 79.7705 228.096C77.1683 259.017 69.3618 288.773 60.8374 318.439C56.7098 332.779 54.7357 347.388 56.4406 362.355C56.5303 363.251 56.3509 364.237 55.0049 365.671C52.7617 362.445 50.6081 359.218 48.3649 356.081C38.8534 343.175 28.6242 330.717 20.0101 317.274C6.90941 296.839 1.16667 273.805 0.179634 249.786C-0.448479 233.384 -1.25606 216.893 4.12777 200.94C4.84561 198.699 5.56346 196.548 6.99914 194.308C6.55049 220.03 17.5873 242.257 26.3809 265.381C32.4826 281.603 35.9821 298.811 40.6481 315.571C41.4556 318.618 42.0837 321.755 43.7886 324.713C43.6092 320.859 43.5194 316.915 43.2502 313.061C41.5454 287.697 50.6081 265.381 62.2731 243.602C68.3748 232.309 74.1175 220.478 80.7576 207.572Z" fill="white"/>
<path d="M693.168 188.303C694.513 192.784 696.667 197.265 697.116 201.836C699.808 232.667 701.871 263.767 689.04 292.985C682.669 307.325 673.337 320.321 664.813 333.585C658.532 343.444 651.443 352.765 643.188 361.997C643.098 360.383 642.739 358.77 642.918 357.157C645.341 338.963 641.842 321.486 636.458 304.368C627.575 275.956 621.114 247.187 618.332 217.521C617.973 214.204 618.332 210.799 619.678 207.034C620.845 209.454 621.832 211.874 623.088 214.204C631.074 229.262 638.97 244.319 647.046 259.286C656.378 276.584 658.711 294.957 656.558 314.137C656.378 315.571 656.378 316.915 657.096 318.708C657.724 317.184 658.621 315.75 658.801 314.226C661.941 289.4 670.645 266.277 680.157 243.333C687.066 226.662 691.193 209.365 691.193 191.26C691.193 190.364 691.463 189.468 691.642 188.572C692.091 188.482 692.629 188.392 693.168 188.303Z" fill="white"/>
<path d="M656.647 87.9224C658.352 90.3422 660.146 92.5829 661.672 95.0924C686.527 135.065 688.681 176.92 672.529 220.568C669.119 229.62 666.786 239.12 664.094 248.441C662.928 252.295 662.031 256.149 660.415 260.093C652.788 231.502 633.317 209.992 618.242 185.883C608.372 170.109 601.193 153.17 597.245 134.976C596.976 133.811 596.886 132.645 596.617 130.763C597.873 131.48 598.681 131.66 599.13 132.108C610.795 144.476 622.19 157.113 634.035 169.302C645.879 181.402 653.865 195.294 656.557 212.143C656.826 213.667 657.454 215.19 658.711 216.714C658.711 213.756 659.07 210.709 658.621 207.841C655.48 184.09 658.083 160.429 659.877 136.768C661.133 120.456 660.864 104.413 655.121 88.8186C655.749 88.5497 656.198 88.2809 656.647 87.9224Z" fill="white"/>
<path d="M39.3021 263.588C35.8924 253.371 32.5723 244.05 29.7907 234.639C25.035 218.148 19.0231 201.746 16.3311 184.807C11.2165 152.273 20.1896 122.518 38.1356 95.1819C38.674 94.3753 39.3919 93.5686 40.1097 92.8516C40.2892 92.6724 40.8275 92.762 41.7249 92.6724C40.6481 96.5263 39.5713 100.111 38.674 103.786C35.1745 118.036 35.7129 132.376 37.7767 146.716C41.0967 169.661 42.5324 192.694 40.1097 215.907C39.8405 218.417 40.1097 220.926 40.1097 225.228C42.6222 216.355 44.1476 209.006 46.66 202.105C52.2233 187.137 62.3629 175.217 73.1305 163.745C81.0268 155.321 88.7436 146.716 96.5501 138.202C97.1783 137.485 97.9858 137.037 100.05 136.947C99.1523 141.339 98.5242 145.82 97.3577 150.212C92.1534 170.557 82.0138 188.572 70.4386 205.78C58.7736 223.077 47.5573 240.375 41.2762 260.361C41.007 261.258 40.2892 261.975 39.3021 263.588Z" fill="white"/>
<path d="M565.93 62.9172C574.544 71.4316 582.261 80.3045 591.323 87.5642C605.949 99.1259 621.114 109.971 632.869 125.207C630.894 116.603 628.831 107.999 626.857 99.3947C624.703 90.0737 622.55 80.8423 620.486 71.5212C617.435 58.0774 612.41 45.6195 602.271 35.5815C602.629 35.1333 603.078 34.5956 603.437 34.1475C606.578 35.5815 609.987 36.5673 612.769 38.5391C636.637 55.2094 648.302 78.6912 649.11 107.371C649.558 121.174 648.302 134.976 647.943 148.778C647.764 155.231 647.943 161.684 647.943 169.571C643.636 164.015 640.496 158.906 636.368 154.873C624.344 143.401 612.231 132.108 599.668 121.174C583.517 107.192 572.121 90.4322 567.276 69.5495C566.558 67.3088 566.289 65.0682 565.93 62.9172Z" fill="white"/>
<path d="M129.481 71.8796C129.391 78.0637 126.071 86.6678 121.585 94.9133C113.509 109.881 102.024 121.98 89.5511 133.542C76.8991 145.193 65.5033 158.099 53.5692 170.467C52.7616 171.274 52.1335 172.17 50.7875 172.798C51.3259 146.269 45.2242 120.188 50.1594 93.8378C54.5562 70.1767 67.6569 52.879 87.9359 40.5107C89.3716 39.6145 91.1662 39.256 93.6787 39.5248C91.1662 42.9306 88.564 46.2467 86.231 49.8317C78.8732 61.1245 75.9121 73.941 73.2201 86.9366C69.9898 102.352 66.8493 117.768 63.4395 134.438C67.926 128.164 71.1563 121.98 75.9121 117.409C85.4235 108.357 95.7425 100.112 105.792 91.5972C114.047 84.6064 122.482 77.6156 129.481 71.8796Z" fill="white"/>
<path d="M533.627 -0.358398C570.596 1.43411 615.192 53.4168 614.205 93.2105C578.851 69.1012 560.456 31.0105 533.627 -0.358398Z" fill="white"/>
<path d="M161.515 2.33057C159.451 5.2882 158.464 6.72221 157.477 8.15622C147.248 22.4963 136.929 36.7467 126.968 51.1764C115.034 68.4741 100.229 82.9038 83.8979 96.2579C81.2957 87.7435 89.9098 58.1672 101.395 42.4827C116.111 22.2274 135.852 9.59022 161.515 2.33057Z" fill="white"/>
</g>
<defs>
<filter id="filter0_dd_1280_718" x="120.869" y="50.4224" width="454.372" height="446.036" filterUnits="userSpaceOnUse" color-interpolation-filters="sRGB">
<feFlood flood-opacity="0" result="BackgroundImageFix"/>
<feColorMatrix in="SourceAlpha" type="matrix" values="0 0 0 0 0 0 0 0 0 0 0 0 0 0 0 0 0 0 127 0" result="hardAlpha"/>
<feOffset dy="4"/>
<feGaussianBlur stdDeviation="2"/>
<feComposite in2="hardAlpha" operator="out"/>
<feColorMatrix type="matrix" values="0 0 0 0 0 0 0 0 0 0 0 0 0 0 0 0 0 0 0.25 0"/>
<feBlend mode="normal" in2="BackgroundImageFix" result="effect1_dropShadow_1280_718"/>
<feColorMatrix in="SourceAlpha" type="matrix" values="0 0 0 0 0 0 0 0 0 0 0 0 0 0 0 0 0 0 127 0" result="hardAlpha"/>
<feOffset dy="4"/>
<feGaussianBlur stdDeviation="2"/>
<feComposite in2="hardAlpha" operator="out"/>
<feColorMatrix type="matrix" values="0 0 0 0 0 0 0 0 0 0 0 0 0 0 0 0 0 0 0.25 0"/>
<feBlend mode="normal" in2="effect1_dropShadow_1280_718" result="effect2_dropShadow_1280_718"/>
<feBlend mode="normal" in="SourceGraphic" in2="effect2_dropShadow_1280_718" result="shape"/>
</filter>
<filter id="filter1_dd_1280_718" x="120.869" y="50.4224" width="454.372" height="446.036" filterUnits="userSpaceOnUse" color-interpolation-filters="sRGB">
<feFlood flood-opacity="0" result="BackgroundImageFix"/>
<feColorMatrix in="SourceAlpha" type="matrix" values="0 0 0 0 0 0 0 0 0 0 0 0 0 0 0 0 0 0 127 0" result="hardAlpha"/>
<feOffset dy="4"/>
<feGaussianBlur stdDeviation="2"/>
<feComposite in2="hardAlpha" operator="out"/>
<feColorMatrix type="matrix" values="0 0 0 0 0 0 0 0 0 0 0 0 0 0 0 0 0 0 0.25 0"/>
<feBlend mode="normal" in2="BackgroundImageFix" result="effect1_dropShadow_1280_718"/>
<feColorMatrix in="SourceAlpha" type="matrix" values="0 0 0 0 0 0 0 0 0 0 0 0 0 0 0 0 0 0 127 0" result="hardAlpha"/>
<feOffset dy="4"/>
<feGaussianBlur stdDeviation="2"/>
<feComposite in2="hardAlpha" operator="out"/>
<feColorMatrix type="matrix" values="0 0 0 0 0 0 0 0 0 0 0 0 0 0 0 0 0 0 0.25 0"/>
<feBlend mode="normal" in2="effect1_dropShadow_1280_718" result="effect2_dropShadow_1280_718"/>
<feBlend mode="normal" in="SourceGraphic" in2="effect2_dropShadow_1280_718" result="shape"/>
</filter>
<filter id="filter2_d_1280_718" x="-4.27295" y="-0.358398" width="707.405" height="629.957" filterUnits="userSpaceOnUse" color-interpolation-filters="sRGB">
<feFlood flood-opacity="0" result="BackgroundImageFix"/>
<feColorMatrix in="SourceAlpha" type="matrix" values="0 0 0 0 0 0 0 0 0 0 0 0 0 0 0 0 0 0 127 0" result="hardAlpha"/>
<feOffset dy="4"/>
<feGaussianBlur stdDeviation="2"/>
<feComposite in2="hardAlpha" operator="out"/>
<feColorMatrix type="matrix" values="0 0 0 0 0 0 0 0 0 0 0 0 0 0 0 0 0 0 0.25 0"/>
<feBlend mode="normal" in2="BackgroundImageFix" result="effect1_dropShadow_1280_718"/>
<feBlend mode="normal" in="SourceGraphic" in2="effect1_dropShadow_1280_718" result="shape"/>
</filter>
<clipPath id="clip0_1280_718">
<rect width="446" height="179" fill="white" transform="translate(125 309)"/>
</clipPath>
<clipPath id="clip1_1280_718">
<rect width="446" height="188" fill="white" transform="translate(125 50)"/>
</clipPath>
</defs>
</svg>
