<svg width="446" height="188" viewBox="0 0 446 188" fill="none" xmlns="http://www.w3.org/2000/svg">
<g clip-path="url(#clip0_1016_1246)">
<g filter="url(#filter0_dd_1016_1246)">
<path d="M220.732 438.458C205.029 436.217 188.967 434.156 172.905 431.557C165.547 430.392 164.56 428.241 165.637 421.07C167.432 408.702 162.676 402.16 150.921 398.216C142.397 395.348 134.052 391.315 126.066 387.103C121.131 384.503 117.631 384.055 113.952 388.716C111.171 392.211 108.03 395.617 104.441 398.037C102.467 399.381 98.2495 399.74 96.4549 398.575C71.4201 381.725 50.6924 360.484 34.0922 335.299C31.5798 331.445 31.7593 327.771 35.7074 324.544C38.3993 322.393 40.9118 319.973 43.3345 317.553C48.5388 312.355 48.4491 309.128 45.3983 302.317C40.822 292.01 36.6944 281.434 32.9257 270.769C31.2209 265.929 29.0673 263.061 23.5041 263.42C19.4662 263.688 15.3386 262.792 11.3007 263.061C5.55796 263.509 3.40443 260.641 2.59686 255.443C-1.35128 228.734 -1.08208 202.026 3.85309 175.407C4.66067 171.016 7.17312 169.134 11.4802 169.223C15.3386 169.313 19.197 169.313 23.0554 169.582C29.3365 170.03 32.836 166.893 35.0793 161.336C39.7453 149.506 44.7702 137.765 49.3464 125.934C50.0643 124.142 49.5259 121.094 48.3594 119.481C45.3085 115.448 41.5399 111.953 38.3096 108.099C35.4382 104.783 35.169 101.377 37.6815 97.523C53.6535 73.2345 74.3812 53.7858 98.3392 37.5636C101.749 35.2334 104.8 35.5918 107.581 38.5495C110.184 41.3279 112.696 44.3751 115.298 47.1535C118.977 51.097 122.925 52.2622 128.309 49.5734C139.256 44.2855 150.383 39.4457 161.599 34.7852C165.817 33.0823 167.791 30.5728 167.521 26.1812C167.432 24.5679 167.521 22.9547 167.521 21.3414C167.521 6.46361 167.521 6.55322 181.878 4.04371C210.861 -1.15456 239.665 -0.616792 268.558 4.76073C275.018 5.92586 278.608 8.43536 277.621 15.4261C277.351 17.2186 277.71 19.1008 277.621 20.8933C277.351 31.9172 278.249 32.6342 288.747 36.4881C298.618 40.1627 308.219 44.5544 317.73 49.0357C322.037 51.097 325.357 51.3659 328.408 47.3328C329.305 46.2573 330.382 45.361 331.459 44.3751C342.227 33.9786 343.573 33.7097 355.417 42.6722C375.786 58.0878 393.911 75.6544 408.268 96.8956C411.498 101.556 410.87 104.603 406.832 108.368C393.552 120.646 393.911 120.557 401.808 136.689C405.845 145.024 409.076 153.897 412.127 162.681C413.652 166.983 415.895 168.954 420.561 168.775C424.779 168.596 429.086 169.313 433.393 169.044C438.687 168.775 441.109 171.016 442.096 176.124C447.032 202.743 447.839 229.362 442.994 256.07C442.096 261.179 439.315 263.509 434.11 262.882C414.011 260.731 413.742 266.288 410.242 280.09C407.999 288.783 403.602 297.029 399.744 305.275C397.68 309.756 397.77 313.251 401.538 316.657C405.038 319.794 408.089 323.289 411.588 326.426C414.46 328.936 414.549 331.535 412.575 334.403C395.796 359.408 375.427 380.918 350.482 398.126C346.175 401.084 342.855 400.457 339.265 396.692C326.972 383.607 327.062 383.966 310.911 391.942C303.463 395.617 295.656 398.485 287.76 401.084C282.107 402.966 279.864 405.834 280.043 412.108C280.402 432.005 281.21 430.571 263.533 433.08C249.714 435.5 235.537 436.755 220.732 438.458ZM185.916 378.498C180.801 378.409 175.687 377.961 170.662 378.498C158.818 379.753 149.755 377.961 144.281 365.144C139.615 354.389 128.937 348.295 119.785 341.125C90.3532 317.822 71.5098 287.529 64.0622 250.872C55.2686 207.314 63.0752 166.445 88.5586 129.698C112.427 95.1031 145.627 73.6826 186.185 63.8238C200.991 60.2388 201.709 60.8662 204.042 45.7195C205.926 33.3512 206.823 21.0725 218.399 13.0062C219.386 12.2892 219.924 9.86937 219.475 8.70424C219.027 7.71836 216.873 6.82211 215.527 6.91173C203.772 8.07686 192.108 9.51086 180.443 10.8552C176.046 11.393 174.072 14.0818 173.982 18.2942C173.892 22.9547 174.52 27.7048 173.623 32.2757C173.174 34.8748 170.931 38.2806 168.598 39.3561C154.6 45.7195 140.333 51.5452 126.245 57.6397C121.938 59.5218 118.529 58.9841 115.388 55.4887C112.517 52.3518 109.197 49.5734 106.415 46.3469C103.723 43.21 101.3 43.1204 98.07 45.4506C77.2526 60.2388 58.9476 77.7158 44.5907 98.8674C43.5139 100.391 43.7831 103.976 44.9496 105.5C47.9107 109.533 51.6794 113.118 55.2686 116.613C58.4989 119.84 58.6784 122.797 56.5249 126.92C51.3205 137.227 44.5907 147.355 42.3474 158.379C38.5788 176.841 33.1949 177.2 18.1202 175.407C13.0953 174.78 10.4034 176.752 9.41638 182.219C5.6477 203.371 5.37851 224.612 7.89096 245.853C9.14719 256.339 9.68557 256.698 20.4532 256.877C23.3246 256.877 26.196 257.235 28.9776 256.966C33.6436 256.518 36.3355 258.669 37.3225 263.061C40.6426 277.849 45.9367 291.741 53.8329 304.737C56.6146 309.397 56.0762 314.147 52.0383 318.091C49.167 320.959 46.0264 323.558 42.9756 326.157C39.7453 328.846 39.3863 331.983 41.8091 335.209C56.6146 356.002 73.8428 374.465 94.75 389.343C99.0571 392.39 102.377 392.032 105.697 387.819C107.94 384.951 111.081 382.89 113.504 380.112C116.913 376.079 120.054 376.527 124.63 378.857C135.488 384.234 146.524 389.343 157.831 393.556C168.419 397.499 173.623 404.4 172.367 415.783C171.47 424.118 172.187 425.373 180.532 426.538C191.569 428.061 202.696 429.047 213.822 430.212C217.95 430.66 220.193 428.958 220.193 424.297C220.014 411.122 220.014 397.947 220.193 384.683C220.283 379.753 217.77 378.319 213.374 378.319C204.131 378.588 195.069 378.498 185.916 378.498ZM261.2 378.498C251.868 378.498 242.536 378.588 233.114 378.498C228.987 378.498 226.654 379.932 226.743 384.503C226.833 397.947 226.833 411.301 226.743 424.745C226.743 428.778 228.628 430.302 232.307 430.033C239.844 429.585 247.381 429.316 254.739 428.42C273.672 426 273.942 425.821 273.762 407.089C273.672 401.263 275.826 399.023 280.851 397.051C292.875 392.211 304.719 386.923 316.294 381.187C326.344 376.168 328.857 376.168 336.753 384.683C338.099 386.206 339.624 387.64 340.881 389.164C343.662 392.57 346.534 393.107 350.302 390.419C371.479 375.541 389.066 357.168 403.871 336.016C406.025 332.879 406.025 330.101 403.064 327.322C399.385 323.827 395.975 320.063 392.296 316.567C389.514 313.879 389.694 311.19 391.13 307.784C397.231 292.996 403.154 278.208 408.807 263.24C410.332 259.297 412.037 256.966 416.523 257.146C420.741 257.325 425.048 256.877 429.355 257.146C434.649 257.415 436.802 255.443 437.61 249.976C441.02 227.659 440.122 205.432 437.072 183.205C436.264 177.648 433.303 174.959 427.56 175.407C424.15 175.676 420.651 175.228 417.241 175.676C411.05 176.393 408.448 173.077 406.922 167.789C403.064 154.077 398.398 140.722 389.873 128.981C386.553 124.411 386.912 119.75 390.771 115.627C393.822 112.401 397.052 109.354 400.372 106.306C403.243 103.617 403.512 100.749 401.179 97.7022C398.488 94.1172 395.796 90.6218 392.924 87.1264C380.541 71.9797 366.364 58.7152 350.392 47.3328C345.816 44.1063 341.957 44.1063 337.919 48.0498C334.869 51.0074 331.459 53.6962 328.588 56.7434C325.985 59.6115 323.652 59.1633 320.422 57.8189C306.514 51.7244 292.516 45.8091 278.518 39.9835C273.852 38.1014 271.07 35.2333 271.07 30.0351C271.07 26.0019 270.801 21.8792 270.981 17.846C271.16 13.6336 269.365 11.3034 265.238 10.8552C255.726 9.69011 246.305 8.43535 236.793 7.62872C233.653 7.35985 230.422 8.34574 227.192 8.79387C228.897 11.8411 230.422 14.978 232.396 17.7564C234.909 21.1622 239.395 23.8509 240.203 27.4359C242.177 36.04 242.805 45.0025 243.344 53.8754C243.613 58.8944 245.497 61.4936 250.253 62.121C272.057 64.8097 291.619 73.593 310.282 84.6169C327.6 94.8342 342.585 107.83 354.609 124.052C374.709 151.209 384.041 182.129 385.566 215.56C387.72 265.302 367.531 305.275 330.562 337.54C317.64 348.832 303.373 358.871 295.746 375.182C294.849 376.975 291.08 378.319 288.657 378.409C279.505 378.767 270.352 378.498 261.2 378.498ZM262.456 328.308C263.533 330.28 263.892 331.356 264.52 331.983C274.121 341.573 285.786 347.578 299.156 349.639C301.668 349.998 304.899 348.832 307.052 347.309C314.59 341.842 322.037 336.195 329.126 330.19C353.712 309.308 369.146 282.779 375.517 251.41C384.579 207.045 376.862 165.907 349.315 129.25C325.357 97.4333 293.772 77.6261 254.829 69.4702C244.959 67.4088 244.061 68.2155 244.42 78.0743C245.766 114.552 247.112 151.029 248.548 187.596C248.548 188.313 248.997 189.03 249.445 190.375C263.533 180.337 277.8 172.091 295.477 172.988C292.785 183.026 290.362 191.988 287.581 202.474C296.554 197.993 303.373 194.049 310.641 191.271C318.089 188.493 325.985 186.879 333.702 184.818C334.061 185.445 334.42 186.073 334.779 186.7C333.971 188.403 333.343 190.285 332.356 191.898C322.576 207.045 319.166 223.447 321.14 241.282C322.127 250.155 322.755 259.028 322.845 267.99C322.934 277.401 321.499 286.543 316.564 294.878C308.219 309.039 294.849 316.298 280.223 321.945C274.57 324.185 268.827 326.068 262.456 328.308ZM197.043 190.644C197.402 181.502 197.671 173.884 198.03 166.355C199.286 136.331 200.632 106.396 201.709 76.3714C202.068 67.7673 201.439 67.4985 193.184 69.2014C172.815 73.2345 153.882 80.4941 136.564 92.0558C103.454 114.104 80.0342 143.949 71.5996 182.846C58.14 245.136 75.9066 297.836 126.335 338.346C144.191 352.597 147.512 353.045 167.701 342.738C173.803 339.601 179.725 335.658 183.763 328.756C174.879 325.44 166.804 322.751 158.997 319.435C137.013 310.025 123.105 294.609 122.925 269.514C122.836 261.986 123.284 254.457 124.182 247.018C126.694 227.48 124.271 209.017 113.683 191.988C112.696 190.375 112.158 188.493 111.081 185.804C128.219 186.969 142.397 193.422 155.856 201.936C156.395 201.488 157.023 201.04 157.561 200.503C155.228 191.63 152.985 182.757 150.562 173.525C152.088 173.256 153.434 172.808 154.69 172.898C170.213 173.794 183.404 180.695 197.043 190.644ZM264.879 257.863C264.789 256.787 264.789 254.367 264.61 251.947C262.187 220.22 245.407 195.304 226.474 171.374C224.052 168.327 221.988 168.954 219.565 171.822C205.836 188.493 193.812 206.239 186.724 226.852C178.827 249.617 178.827 272.113 189.864 294.161C197.402 309.128 208.438 321.138 220.373 332.431C221.449 333.417 225.039 333.238 226.385 332.162C230.333 329.025 233.832 325.351 237.242 321.586C253.393 303.93 264.969 284.123 264.879 257.863ZM194.082 315.313C193.902 314.596 193.992 314.058 193.723 313.61C192.197 311.011 190.492 308.411 188.967 305.812C178.379 288.515 173.174 270.052 175.238 249.528C176.943 232.857 182.596 217.531 190.492 203.012C193.184 198.172 192.825 194.766 187.531 192.078C181.34 188.941 175.507 185.266 169.316 182.309C166.804 181.143 163.753 181.054 159.984 180.247C160.612 183.205 160.792 184.818 161.24 186.252C164.74 197.635 164.919 208.927 162.048 220.489C159.715 229.541 157.651 238.683 155.946 247.825C150.024 280.896 165.547 301.869 194.082 315.313ZM284.261 180.516C274.031 181.86 266.045 187.417 257.79 192.526C253.663 195.125 253.214 197.993 255.367 202.205C258.688 208.658 262.008 215.201 264.52 222.102C273.403 246.48 274.121 270.948 263.264 295.057C260.033 302.138 255.816 308.68 252.047 315.402C265.597 309.308 276.992 300.973 284.44 288.246C292.965 273.637 291.888 257.952 288.657 242.089C284.62 222.461 278.787 202.922 284.979 182.667C285.068 182.309 284.799 181.86 284.261 180.516ZM182.776 320.421C182.955 319.883 183.134 319.435 183.314 318.898C181.878 317.822 180.443 316.747 179.007 315.761C156.126 299.449 144.371 278.028 149.127 249.348C150.921 238.504 153.613 227.928 155.498 217.083C155.946 214.753 155.587 211.347 154.062 209.824C145.986 201.937 135.936 197.455 123.643 194.229C124.81 197.993 125.438 200.413 126.335 202.833C130.911 215.022 133.065 227.48 131.45 240.475C130.642 246.928 129.924 253.381 129.476 259.835C128.309 278.208 131.45 295.057 148.588 305.454C157.023 310.562 166.265 314.416 175.328 318.539C177.571 319.704 180.263 319.883 182.776 320.421ZM322.037 194.408C310.372 197.276 300.233 202.026 291.798 209.734C290.273 211.078 290.003 214.663 290.362 216.994C291.439 223.805 292.875 230.527 294.58 237.249C302.476 268.349 296.374 294.699 268.917 313.968C266.584 315.581 264.61 317.643 262.546 319.525C276.454 316.836 289.106 312.176 300.143 304.02C314.59 293.354 317.371 277.939 316.564 261.179C315.935 247.466 314.679 233.664 315.397 219.951C315.756 211.795 319.435 203.729 322.037 194.408ZM243.523 337.271C249.714 342.111 255.098 346.861 261.021 350.894C269.007 356.271 269.186 356.003 265.507 365.144C263.443 370.253 264.341 371.777 269.724 372.135C272.775 372.314 275.826 372.225 278.877 372.494C288.478 373.211 293.054 370.343 296.823 361.47C298.259 358.153 297.9 356.092 293.952 355.285C280.402 352.597 269.007 346.144 259.495 336.016C254.38 330.37 251.33 330.728 243.523 337.271ZM202.875 337.54C195.786 331.356 192.018 330.997 187.262 335.747C177.302 345.785 165.547 352.417 151.729 355.554C150.562 355.823 149.575 356.54 147.96 357.257C148.768 359.498 149.216 361.649 150.293 363.441C154.869 371.06 171.918 375.72 179.725 371.508C180.712 370.97 181.609 368.819 181.43 367.564C181.16 365.682 180.263 363.71 179.186 362.007C176.674 358.064 177.571 355.823 181.519 353.224C188.698 348.564 195.338 343.096 202.875 337.54ZM219.924 354.658C219.924 353.045 219.745 350.356 220.014 347.757C220.462 343.903 218.847 341.035 215.348 340.408C212.566 339.96 208.887 340.408 206.734 341.931C200.542 346.413 195.069 351.88 188.967 356.54C185.826 358.96 185.647 361.201 187.352 364.338C190.941 370.88 196.594 372.494 203.683 372.404C219.744 372.135 220.642 371.418 219.924 354.658ZM226.743 356.361C226.833 360.215 226.474 364.069 227.013 367.833C227.192 369.357 229.076 371.777 230.243 371.866C237.511 372.225 245.048 372.942 251.958 371.418C255.009 370.701 257.162 365.144 259.226 361.47C259.764 360.484 258.867 357.885 257.79 356.988C251.778 351.611 245.677 346.323 239.216 341.483C237.332 340.049 233.653 339.153 231.768 340.049C229.525 341.035 227.73 344.172 227.013 346.681C226.115 349.729 226.743 353.134 226.743 356.361ZM222.347 43.0307C232.935 43.0307 234.371 42.2241 234.281 36.2192C234.191 29.7662 227.641 19.28 223.513 19.0112C219.027 18.7423 212.835 29.0492 212.476 36.3088C212.117 44.5544 217.681 42.8515 222.347 43.0307ZM237.511 60.2388C236.973 60.2388 236.345 60.2388 235.806 60.2388C235.806 66.0645 235.717 71.8901 235.806 77.8054C236.434 108.457 237.152 139.109 237.96 169.761C238.05 172.36 239.126 175.049 239.754 177.648C240.562 177.469 241.37 177.29 242.177 177.2C240.562 138.213 239.037 99.2258 237.511 60.2388ZM208.977 56.2057C207.451 96.6267 205.836 136.958 204.311 177.379C209.336 172.45 212.835 75.2959 208.977 56.2057ZM219.655 52.7999C219.027 52.7999 218.399 52.7999 217.77 52.7999C216.873 89.5463 215.976 126.293 215.079 163.039C216.155 163.218 217.232 163.308 218.309 163.487C218.847 161.067 219.834 158.647 219.834 156.228C220.014 124.411 220.014 92.5936 220.014 60.7766C220.014 58.1774 219.834 55.4887 219.655 52.7999ZM228.718 52.0829C228.269 51.9933 227.82 51.9037 227.372 51.814C227.192 52.531 226.833 53.3377 226.833 54.0547C226.743 88.7397 226.743 123.425 226.833 158.199C226.833 160.081 228 161.874 228.628 163.756C229.435 163.577 230.153 163.487 230.961 163.308C230.153 126.203 229.435 89.0982 228.718 52.0829Z" fill="white"/>
</g>
</g>
<defs>
<filter id="filter0_dd_1016_1246" x="-4.13086" y="0.422363" width="454.372" height="446.036" filterUnits="userSpaceOnUse" color-interpolation-filters="sRGB">
<feFlood flood-opacity="0" result="BackgroundImageFix"/>
<feColorMatrix in="SourceAlpha" type="matrix" values="0 0 0 0 0 0 0 0 0 0 0 0 0 0 0 0 0 0 127 0" result="hardAlpha"/>
<feOffset dy="4"/>
<feGaussianBlur stdDeviation="2"/>
<feComposite in2="hardAlpha" operator="out"/>
<feColorMatrix type="matrix" values="0 0 0 0 0 0 0 0 0 0 0 0 0 0 0 0 0 0 0.25 0"/>
<feBlend mode="normal" in2="BackgroundImageFix" result="effect1_dropShadow_1016_1246"/>
<feColorMatrix in="SourceAlpha" type="matrix" values="0 0 0 0 0 0 0 0 0 0 0 0 0 0 0 0 0 0 127 0" result="hardAlpha"/>
<feOffset dy="4"/>
<feGaussianBlur stdDeviation="2"/>
<feComposite in2="hardAlpha" operator="out"/>
<feColorMatrix type="matrix" values="0 0 0 0 0 0 0 0 0 0 0 0 0 0 0 0 0 0 0.25 0"/>
<feBlend mode="normal" in2="effect1_dropShadow_1016_1246" result="effect2_dropShadow_1016_1246"/>
<feBlend mode="normal" in="SourceGraphic" in2="effect2_dropShadow_1016_1246" result="shape"/>
</filter>
<clipPath id="clip0_1016_1246">
<rect width="446" height="188" fill="white"/>
</clipPath>
</defs>
</svg>
