<svg width="464" height="71" viewBox="0 0 464 71" fill="none" xmlns="http://www.w3.org/2000/svg">
<g clip-path="url(#clip0_1278_714)">
<g filter="url(#filter0_dd_1278_714)">
<path d="M229.732 250.458C214.029 248.217 197.967 246.156 181.905 243.557C174.547 242.392 173.56 240.241 174.637 233.07C176.432 220.702 171.676 214.16 159.921 210.216C151.397 207.348 143.052 203.315 135.066 199.103C130.131 196.503 126.631 196.055 122.952 200.716C120.171 204.211 117.03 207.617 113.441 210.037C111.467 211.381 107.249 211.74 105.455 210.575C80.4201 193.725 59.6924 172.484 43.0922 147.299C40.5798 143.445 40.7593 139.771 44.7074 136.544C47.3993 134.393 49.9118 131.973 52.3345 129.553C57.5388 124.355 57.4491 121.128 54.3983 114.317C49.822 104.01 45.6944 93.4342 41.9257 82.7688C40.2209 77.929 38.0673 75.061 32.5041 75.4195C28.4662 75.6884 24.3386 74.7921 20.3007 75.061C14.558 75.5091 12.4044 72.6411 11.5969 67.4428C7.64872 40.7345 7.91792 14.0261 12.8531 -12.5926C13.6607 -16.9842 16.1731 -18.8664 20.4802 -18.7767C24.3386 -18.6871 28.197 -18.6871 32.0554 -18.4182C38.3365 -17.9701 41.836 -21.107 44.0793 -26.6638C48.7453 -38.4943 53.7702 -50.2353 58.3464 -62.0658C59.0643 -63.8583 58.5259 -66.9056 57.3594 -68.5188C54.3085 -72.5519 50.5399 -76.0474 47.3096 -79.9012C44.4382 -83.2174 44.169 -86.6231 46.6815 -90.477C62.6535 -114.765 83.3812 -134.214 107.339 -150.436C110.749 -152.767 113.8 -152.408 116.581 -149.451C119.184 -146.672 121.696 -143.625 124.298 -140.846C127.977 -136.903 131.925 -135.738 137.309 -138.427C148.256 -143.714 159.383 -148.554 170.599 -153.215C174.817 -154.918 176.791 -157.427 176.521 -161.819C176.432 -163.432 176.521 -165.045 176.521 -166.659C176.521 -181.536 176.521 -181.447 190.878 -183.956C219.861 -189.155 248.665 -188.617 277.558 -183.239C284.018 -182.074 287.608 -179.565 286.621 -172.574C286.351 -170.781 286.71 -168.899 286.621 -167.107C286.351 -156.083 287.249 -155.366 297.747 -151.512C307.618 -147.837 317.219 -143.446 326.73 -138.964C331.037 -136.903 334.357 -136.634 337.408 -140.667C338.305 -141.743 339.382 -142.639 340.459 -143.625C351.227 -154.021 352.573 -154.29 364.417 -145.328C384.786 -129.912 402.911 -112.346 417.268 -91.1044C420.498 -86.4439 419.87 -83.3966 415.832 -79.6324C402.552 -67.3537 402.911 -67.4433 410.808 -51.3108C414.845 -42.9756 418.076 -34.1027 421.127 -25.3194C422.652 -21.0174 424.895 -19.0456 429.561 -19.2249C433.779 -19.4041 438.086 -18.6871 442.393 -18.956C447.687 -19.2249 450.109 -16.9842 451.097 -11.8756C456.032 14.7431 456.839 41.3619 451.994 68.0702C451.097 73.1789 448.315 75.5091 443.11 74.8817C423.011 72.7307 422.742 78.2875 419.242 92.0898C416.999 100.783 412.602 109.029 408.744 117.275C406.68 121.756 406.77 125.251 410.538 128.657C414.038 131.794 417.089 135.289 420.588 138.426C423.46 140.936 423.549 143.535 421.575 146.403C404.796 171.408 384.427 192.918 359.482 210.126C355.175 213.084 351.855 212.457 348.265 208.692C335.972 195.607 336.062 195.966 319.911 203.942C312.463 207.617 304.656 210.485 296.76 213.084C291.107 214.966 288.864 217.834 289.043 224.108C289.402 244.005 290.21 242.571 272.533 245.08C258.714 247.5 244.537 248.755 229.732 250.458ZM194.916 190.498C189.801 190.409 184.687 189.961 179.662 190.498C167.818 191.753 158.755 189.961 153.281 177.144C148.615 166.389 137.937 160.295 128.785 153.125C99.3532 129.822 80.5098 99.5287 73.0622 62.872C64.2686 19.314 72.0752 -21.5551 97.5586 -58.3015C121.427 -92.8969 154.627 -114.317 195.185 -124.176C209.991 -127.761 210.709 -127.134 213.042 -142.28C214.926 -154.649 215.823 -166.927 227.399 -174.994C228.386 -175.711 228.924 -178.131 228.475 -179.296C228.027 -180.282 225.873 -181.178 224.527 -181.088C212.772 -179.923 201.108 -178.489 189.443 -177.145C185.046 -176.607 183.072 -173.918 182.982 -169.706C182.892 -165.045 183.52 -160.295 182.623 -155.724C182.174 -153.125 179.931 -149.719 177.598 -148.644C163.6 -142.28 149.333 -136.455 135.245 -130.36C130.938 -128.478 127.529 -129.016 124.388 -132.511C121.517 -135.648 118.197 -138.427 115.415 -141.653C112.723 -144.79 110.3 -144.88 107.07 -142.549C86.2526 -127.761 67.9476 -110.284 53.5907 -89.1326C52.5139 -87.609 52.7831 -84.024 53.9496 -82.5004C56.9107 -78.4672 60.6794 -74.8822 64.2686 -71.3868C67.4989 -68.1603 67.6784 -65.2027 65.5249 -61.0799C60.3205 -50.773 53.5907 -40.6453 51.3474 -29.6214C47.5788 -11.1586 42.1949 -10.8001 27.1202 -12.5926C22.0953 -13.22 19.4034 -11.2482 18.4164 -5.78106C14.6477 15.3705 14.3785 36.6117 16.891 57.8529C18.1472 68.3391 18.6856 68.6976 29.4532 68.8769C32.3246 68.8769 35.196 69.2353 37.9776 68.9665C42.6436 68.5183 45.3355 70.6693 46.3225 75.061C49.6426 89.8492 54.9367 103.741 62.8329 116.737C65.6146 121.397 65.0762 126.147 61.0383 130.091C58.167 132.959 55.0264 135.558 51.9756 138.157C48.7453 140.846 48.3863 143.983 50.8091 147.209C65.6146 168.002 82.8428 186.465 103.75 201.343C108.057 204.39 111.377 204.032 114.697 199.819C116.94 196.951 120.081 194.89 122.504 192.112C125.913 188.079 129.054 188.527 133.63 190.857C144.488 196.234 155.524 201.343 166.831 205.556C177.419 209.499 182.623 216.4 181.367 227.783C180.47 236.118 181.187 237.373 189.532 238.538C200.569 240.061 211.696 241.047 222.822 242.212C226.95 242.66 229.193 240.958 229.193 236.297C229.014 223.122 229.014 209.947 229.193 196.683C229.283 191.753 226.77 190.319 222.374 190.319C213.131 190.588 204.069 190.498 194.916 190.498ZM270.2 190.498C260.868 190.498 251.536 190.588 242.114 190.498C237.987 190.498 235.654 191.932 235.743 196.503C235.833 209.947 235.833 223.301 235.743 236.745C235.743 240.778 237.628 242.302 241.307 242.033C248.844 241.585 256.381 241.316 263.739 240.42C282.672 238 282.942 237.821 282.762 219.089C282.672 213.263 284.826 211.023 289.851 209.051C301.875 204.211 313.719 198.923 325.294 193.187C335.344 188.168 337.857 188.168 345.753 196.683C347.099 198.206 348.624 199.64 349.881 201.164C352.662 204.57 355.534 205.107 359.302 202.419C380.479 187.541 398.066 169.168 412.871 148.016C415.025 144.879 415.025 142.101 412.064 139.322C408.385 135.827 404.975 132.063 401.296 128.567C398.514 125.879 398.694 123.19 400.13 119.784C406.231 104.996 412.154 90.2077 417.807 75.2402C419.332 71.2967 421.037 68.9665 425.523 69.1457C429.741 69.325 434.048 68.8769 438.355 69.1457C443.649 69.4146 445.802 67.4429 446.61 61.9757C450.02 39.659 449.122 17.4319 446.072 -4.79517C445.264 -10.3519 442.303 -13.0407 436.56 -12.5926C433.15 -12.3237 429.651 -12.7719 426.241 -12.3237C420.05 -11.6067 417.448 -14.9228 415.922 -20.2107C412.064 -33.9234 407.398 -47.2776 398.873 -59.0185C395.553 -63.5894 395.912 -68.2499 399.771 -72.3727C402.822 -75.5992 406.052 -78.6465 409.372 -81.6938C412.243 -84.3825 412.512 -87.2505 410.179 -90.2978C407.488 -93.8828 404.796 -97.3782 401.924 -100.874C389.541 -116.02 375.364 -129.285 359.392 -140.667C354.816 -143.894 350.957 -143.894 346.919 -139.95C343.869 -136.993 340.459 -134.304 337.588 -131.257C334.985 -128.389 332.652 -128.837 329.422 -130.181C315.514 -136.276 301.516 -142.191 287.518 -148.017C282.852 -149.899 280.07 -152.767 280.07 -157.965C280.07 -161.998 279.801 -166.121 279.981 -170.154C280.16 -174.366 278.365 -176.697 274.238 -177.145C264.726 -178.31 255.305 -179.565 245.793 -180.371C242.653 -180.64 239.422 -179.654 236.192 -179.206C237.897 -176.159 239.422 -173.022 241.396 -170.244C243.909 -166.838 248.395 -164.149 249.203 -160.564C251.177 -151.96 251.805 -142.997 252.344 -134.125C252.613 -129.106 254.497 -126.506 259.253 -125.879C281.057 -123.19 300.619 -114.407 319.282 -103.383C336.6 -93.1658 351.585 -80.1701 363.609 -63.9479C383.709 -36.7914 393.041 -5.8707 394.566 27.5596C396.72 77.3016 376.531 117.275 339.562 149.54C326.64 160.832 312.373 170.871 304.746 187.182C303.849 188.975 300.08 190.319 297.657 190.409C288.505 190.767 279.352 190.498 270.2 190.498ZM271.456 140.308C272.533 142.28 272.892 143.356 273.52 143.983C283.121 153.573 294.786 159.578 308.156 161.639C310.668 161.998 313.899 160.832 316.052 159.309C323.59 153.842 331.037 148.195 338.126 142.19C362.712 121.308 378.146 94.7786 384.517 63.4097C393.579 19.0451 385.862 -22.0929 358.315 -58.7496C334.357 -90.5667 302.772 -110.374 263.829 -118.53C253.959 -120.591 253.061 -119.785 253.42 -109.926C254.766 -73.4482 256.112 -36.9707 257.548 -0.403535C257.548 0.313468 257.997 1.03048 258.445 2.37486C272.533 -7.66318 286.8 -15.9087 304.477 -15.0125C301.785 -4.97445 299.362 3.98811 296.581 14.4743C305.554 9.99301 312.373 6.0495 319.641 3.27111C327.089 0.492724 334.985 -1.12054 342.702 -3.18193C343.061 -2.55455 343.42 -1.92717 343.779 -1.29979C342.971 0.403093 342.343 2.28524 341.356 3.8985C331.576 19.0452 328.166 35.4466 330.14 53.282C331.127 62.1549 331.755 71.0278 331.845 79.9904C331.934 89.401 330.499 98.5428 325.564 106.878C317.219 121.039 303.849 128.298 289.223 133.945C283.57 136.185 277.827 138.068 271.456 140.308ZM206.043 2.64372C206.402 -6.49806 206.671 -14.1162 207.03 -21.6448C208.286 -51.6693 209.632 -81.6041 210.709 -111.629C211.068 -120.233 210.439 -120.502 202.184 -118.799C181.815 -114.766 162.882 -107.506 145.564 -95.9442C112.454 -73.8963 89.0342 -44.0511 80.5996 -5.1537C67.14 57.1359 84.9066 109.836 135.335 150.346C153.191 164.597 156.512 165.045 176.701 154.738C182.803 151.601 188.725 147.658 192.763 140.756C183.879 137.44 175.804 134.751 167.997 131.435C146.013 122.025 132.105 106.609 131.925 81.514C131.836 73.9855 132.284 66.457 133.182 59.0181C135.694 39.4798 133.271 21.0169 122.683 3.9881C121.696 2.37485 121.158 0.492718 120.081 -2.19604C137.219 -1.03091 151.397 5.42209 164.856 13.9365C165.395 13.4884 166.023 13.0403 166.561 12.5025C164.228 3.6296 161.985 -5.24332 159.562 -14.4747C161.088 -14.7436 162.434 -15.1917 163.69 -15.1021C179.213 -14.2058 192.404 -7.30469 206.043 2.64372ZM273.879 69.8627C273.789 68.7872 273.789 66.3674 273.61 63.9475C271.187 32.2201 254.407 7.30424 235.474 -16.6257C233.052 -19.673 230.988 -19.0456 228.565 -16.1776C214.836 0.492713 202.812 18.2386 195.724 38.8524C187.827 61.6172 187.827 84.1132 198.864 106.161C206.402 121.128 217.438 133.138 229.373 144.431C230.449 145.417 234.039 145.238 235.385 144.162C239.333 141.025 242.832 137.351 246.242 133.586C262.393 115.93 273.969 96.123 273.879 69.8627ZM203.082 127.313C202.902 126.596 202.992 126.058 202.723 125.61C201.197 123.011 199.492 120.411 197.967 117.812C187.379 100.515 182.174 82.0518 184.238 61.5276C185.943 44.8573 191.596 29.5313 199.492 15.012C202.184 10.1722 201.825 6.76647 196.531 4.07771C190.34 0.940818 184.507 -2.73379 178.316 -5.69143C175.804 -6.85656 172.753 -6.9462 168.984 -7.75283C169.612 -4.79519 169.792 -3.18192 170.24 -1.74792C173.74 9.6345 173.919 20.9273 171.048 32.489C168.715 41.5411 166.651 50.6829 164.946 59.8247C159.024 92.8964 174.547 113.869 203.082 127.313ZM293.261 -7.48393C283.031 -6.13955 275.045 -0.582813 266.79 4.52583C262.663 7.12497 262.214 9.99302 264.367 14.2054C267.688 20.6584 271.008 27.201 273.52 34.1022C282.403 58.4803 283.121 82.948 272.264 107.057C269.033 114.138 264.816 120.68 261.047 127.402C274.597 121.308 285.993 112.973 293.44 100.246C301.965 85.6368 300.888 69.9524 297.657 54.0887C293.62 34.4607 287.787 14.9224 293.979 -5.33293C294.068 -5.69143 293.799 -6.13955 293.261 -7.48393ZM191.776 132.421C191.955 131.883 192.134 131.435 192.314 130.898C190.878 129.822 189.443 128.747 188.007 127.761C165.126 111.449 153.371 90.0284 158.127 61.3483C159.921 50.5036 162.613 39.9279 164.498 29.0832C164.946 26.7529 164.587 23.3472 163.062 21.8236C154.986 13.9365 144.936 9.45525 132.643 6.22874C133.81 9.993 134.438 12.4129 135.335 14.8327C139.911 27.0218 142.065 39.4797 140.45 52.4754C139.642 58.9284 138.924 65.3815 138.476 71.8345C137.309 90.2077 140.45 107.057 157.588 117.454C166.023 122.562 175.265 126.416 184.328 130.539C186.571 131.704 189.263 131.883 191.776 132.421ZM331.037 6.408C319.372 9.27601 309.233 14.0261 300.798 21.7339C299.273 23.0783 299.003 26.6633 299.362 28.9936C300.439 35.8051 301.875 42.527 303.58 49.2489C311.476 80.3489 305.374 106.699 277.917 125.968C275.584 127.581 273.61 129.643 271.546 131.525C285.454 128.836 298.106 124.176 309.143 116.02C323.59 105.354 326.371 89.9388 325.564 73.1789C324.935 59.4662 323.679 45.6639 324.397 31.9512C324.756 23.7953 328.435 15.729 331.037 6.408ZM252.523 149.271C258.714 154.111 264.098 158.861 270.021 162.894C278.007 168.271 278.186 168.003 274.507 177.144C272.443 182.253 273.341 183.777 278.724 184.135C281.775 184.314 284.826 184.225 287.877 184.494C297.478 185.211 302.054 182.343 305.823 173.47C307.259 170.153 306.9 168.092 302.952 167.286C289.402 164.597 278.007 158.144 268.495 148.016C263.38 142.37 260.33 142.728 252.523 149.271ZM211.875 149.54C204.786 143.356 201.018 142.997 196.262 147.747C186.302 157.785 174.547 164.417 160.729 167.554C159.562 167.823 158.575 168.54 156.96 169.257C157.768 171.498 158.216 173.649 159.293 175.441C163.869 183.06 180.918 187.72 188.725 183.508C189.712 182.97 190.609 180.819 190.43 179.564C190.16 177.682 189.263 175.71 188.186 174.007C185.674 170.064 186.571 167.823 190.519 165.224C197.698 160.564 204.338 155.096 211.875 149.54ZM228.924 166.658C228.924 165.045 228.744 162.356 229.014 159.757C229.462 155.903 227.847 153.035 224.348 152.408C221.566 151.96 217.887 152.408 215.734 153.931C209.542 158.413 204.069 163.88 197.967 168.54C194.826 170.96 194.647 173.201 196.352 176.338C199.941 182.88 205.594 184.494 212.683 184.404C228.744 184.135 229.642 183.418 228.924 166.658ZM235.743 168.361C235.833 172.215 235.474 176.069 236.013 179.833C236.192 181.357 238.076 183.777 239.243 183.866C246.511 184.225 254.048 184.942 260.958 183.418C264.009 182.701 266.162 177.144 268.226 173.47C268.764 172.484 267.867 169.885 266.79 168.988C260.778 163.611 254.677 158.323 248.216 153.483C246.332 152.049 242.653 151.153 240.768 152.049C238.525 153.035 236.73 156.172 236.013 158.681C235.115 161.729 235.743 165.135 235.743 168.361ZM231.347 -144.969C241.935 -144.969 243.371 -145.776 243.281 -151.781C243.191 -158.234 236.641 -168.72 232.513 -168.989C228.027 -169.258 221.835 -158.951 221.476 -151.691C221.117 -143.446 226.681 -145.149 231.347 -144.969ZM246.511 -127.761C245.973 -127.761 245.345 -127.761 244.806 -127.761C244.806 -121.936 244.717 -116.11 244.806 -110.195C245.434 -79.5427 246.152 -48.8908 246.96 -18.239C247.05 -15.6398 248.126 -12.9511 248.754 -10.352C249.562 -10.5312 250.37 -10.7105 251.177 -10.8001C249.562 -49.7871 248.037 -88.7742 246.511 -127.761ZM217.977 -131.794C216.451 -91.3733 214.836 -51.0419 213.311 -10.6208C218.336 -15.5502 221.835 -112.704 217.977 -131.794ZM228.655 -135.2C228.027 -135.2 227.399 -135.2 226.77 -135.2C225.873 -98.4537 224.976 -61.7073 224.079 -24.9609C225.155 -24.7816 226.232 -24.692 227.309 -24.5128C227.847 -26.9326 228.834 -29.3525 228.834 -31.7724C229.014 -63.5894 229.014 -95.4064 229.014 -127.223C229.014 -129.823 228.834 -132.511 228.655 -135.2ZM237.718 -135.917C237.269 -136.007 236.82 -136.096 236.372 -136.186C236.192 -135.469 235.833 -134.662 235.833 -133.945C235.743 -99.2603 235.743 -64.5753 235.833 -29.8007C235.833 -27.9185 237 -26.126 237.628 -24.2439C238.435 -24.4231 239.153 -24.5128 239.961 -24.692C239.153 -61.7969 238.435 -98.9018 237.718 -135.917Z" fill="white"/>
</g>
</g>
<defs>
<filter id="filter0_dd_1278_714" x="4.86914" y="-187.578" width="454.372" height="446.036" filterUnits="userSpaceOnUse" color-interpolation-filters="sRGB">
<feFlood flood-opacity="0" result="BackgroundImageFix"/>
<feColorMatrix in="SourceAlpha" type="matrix" values="0 0 0 0 0 0 0 0 0 0 0 0 0 0 0 0 0 0 127 0" result="hardAlpha"/>
<feOffset dy="4"/>
<feGaussianBlur stdDeviation="2"/>
<feComposite in2="hardAlpha" operator="out"/>
<feColorMatrix type="matrix" values="0 0 0 0 0 0 0 0 0 0 0 0 0 0 0 0 0 0 0.25 0"/>
<feBlend mode="normal" in2="BackgroundImageFix" result="effect1_dropShadow_1278_714"/>
<feColorMatrix in="SourceAlpha" type="matrix" values="0 0 0 0 0 0 0 0 0 0 0 0 0 0 0 0 0 0 127 0" result="hardAlpha"/>
<feOffset dy="4"/>
<feGaussianBlur stdDeviation="2"/>
<feComposite in2="hardAlpha" operator="out"/>
<feColorMatrix type="matrix" values="0 0 0 0 0 0 0 0 0 0 0 0 0 0 0 0 0 0 0.25 0"/>
<feBlend mode="normal" in2="effect1_dropShadow_1278_714" result="effect2_dropShadow_1278_714"/>
<feBlend mode="normal" in="SourceGraphic" in2="effect2_dropShadow_1278_714" result="shape"/>
</filter>
<clipPath id="clip0_1278_714">
<rect width="464" height="71" fill="white"/>
</clipPath>
</defs>
</svg>
