<svg width="699" height="622" viewBox="0 0 699 622" fill="none" xmlns="http://www.w3.org/2000/svg">
<g clip-path="url(#clip0_1016_1222)">
<g filter="url(#filter0_d_1016_1222)">
<g clip-path="url(#clip1_1016_1222)">
<g filter="url(#filter1_dd_1016_1222)">
<path d="M345.732 488.458C330.029 486.217 313.967 484.156 297.905 481.557C290.547 480.392 289.56 478.241 290.637 471.07C292.432 458.702 287.676 452.16 275.921 448.216C267.397 445.348 259.052 441.315 251.066 437.103C246.131 434.503 242.631 434.055 238.952 438.716C236.171 442.211 233.03 445.617 229.441 448.037C227.467 449.381 223.249 449.74 221.455 448.575C196.42 431.725 175.692 410.484 159.092 385.299C156.58 381.445 156.759 377.771 160.707 374.544C163.399 372.393 165.912 369.973 168.334 367.553C173.539 362.355 173.449 359.128 170.398 352.317C165.822 342.01 161.694 331.434 157.926 320.769C156.221 315.929 154.067 313.061 148.504 313.42C144.466 313.688 140.339 312.792 136.301 313.061C130.558 313.509 128.404 310.641 127.597 305.443C123.649 278.734 123.918 252.026 128.853 225.407C129.661 221.016 132.173 219.134 136.48 219.223C140.339 219.313 144.197 219.313 148.055 219.582C154.337 220.03 157.836 216.893 160.079 211.336C164.745 199.506 169.77 187.765 174.346 175.934C175.064 174.142 174.526 171.094 173.359 169.481C170.309 165.448 166.54 161.953 163.31 158.099C160.438 154.783 160.169 151.377 162.681 147.523C178.653 123.234 199.381 103.786 223.339 87.5636C226.749 85.2334 229.8 85.5918 232.581 88.5495C235.184 91.3279 237.696 94.3751 240.298 97.1535C243.977 101.097 247.925 102.262 253.309 99.5734C264.256 94.2855 275.383 89.4457 286.599 84.7852C290.817 83.0823 292.791 80.5728 292.521 76.1812C292.432 74.5679 292.521 72.9547 292.521 71.3414C292.521 56.4636 292.521 56.5532 306.878 54.0437C335.861 48.8454 364.665 49.3832 393.558 54.7607C400.018 55.9259 403.608 58.4354 402.621 65.4261C402.351 67.2186 402.71 69.1008 402.621 70.8933C402.351 81.9172 403.249 82.6342 413.747 86.4881C423.618 90.1627 433.219 94.5544 442.73 99.0357C447.037 101.097 450.357 101.366 453.408 97.3328C454.305 96.2573 455.382 95.361 456.459 94.3751C467.227 83.9786 468.573 83.7097 480.417 92.6722C500.786 108.088 518.911 125.654 533.268 146.896C536.498 151.556 535.87 154.603 531.832 158.368C518.552 170.646 518.911 170.557 526.808 186.689C530.845 195.024 534.076 203.897 537.127 212.681C538.652 216.983 540.895 218.954 545.561 218.775C549.779 218.596 554.086 219.313 558.393 219.044C563.687 218.775 566.109 221.016 567.096 226.124C572.032 252.743 572.839 279.362 567.994 306.07C567.096 311.179 564.315 313.509 559.11 312.882C539.011 310.731 538.742 316.288 535.242 330.09C532.999 338.783 528.602 347.029 524.744 355.275C522.68 359.756 522.77 363.251 526.538 366.657C530.038 369.794 533.089 373.289 536.588 376.426C539.46 378.936 539.549 381.535 537.575 384.403C520.796 409.408 500.427 430.918 475.482 448.126C471.175 451.084 467.855 450.457 464.265 446.692C451.972 433.607 452.062 433.966 435.911 441.942C428.463 445.617 420.656 448.485 412.76 451.084C407.107 452.966 404.864 455.834 405.043 462.108C405.402 482.005 406.21 480.571 388.533 483.08C374.714 485.5 360.537 486.755 345.732 488.458ZM310.916 428.498C305.801 428.409 300.687 427.961 295.662 428.498C283.818 429.753 274.755 427.961 269.281 415.144C264.615 404.389 253.937 398.295 244.785 391.125C215.353 367.822 196.51 337.529 189.062 300.872C180.269 257.314 188.075 216.445 213.559 179.698C237.427 145.103 270.627 123.683 311.185 113.824C325.991 110.239 326.709 110.866 329.042 95.7195C330.926 83.3512 331.823 71.0725 343.399 63.0062C344.386 62.2892 344.924 59.8694 344.475 58.7042C344.027 57.7184 341.873 56.8221 340.527 56.9117C328.772 58.0769 317.108 59.5109 305.443 60.8552C301.046 61.393 299.072 64.0818 298.982 68.2942C298.892 72.9547 299.52 77.7048 298.623 82.2757C298.174 84.8748 295.931 88.2806 293.598 89.3561C279.6 95.7195 265.333 101.545 251.245 107.64C246.938 109.522 243.529 108.984 240.388 105.489C237.517 102.352 234.197 99.5734 231.415 96.3469C228.723 93.21 226.3 93.1204 223.07 95.4506C202.253 110.239 183.948 127.716 169.591 148.867C168.514 150.391 168.783 153.976 169.95 155.5C172.911 159.533 176.679 163.118 180.269 166.613C183.499 169.84 183.678 172.797 181.525 176.92C176.32 187.227 169.591 197.355 167.347 208.379C163.579 226.841 158.195 227.2 143.12 225.407C138.095 224.78 135.403 226.752 134.416 232.219C130.648 253.371 130.379 274.612 132.891 295.853C134.147 306.339 134.686 306.698 145.453 306.877C148.325 306.877 151.196 307.235 153.978 306.966C158.644 306.518 161.335 308.669 162.323 313.061C165.643 327.849 170.937 341.741 178.833 354.737C181.615 359.397 181.076 364.147 177.038 368.091C174.167 370.959 171.026 373.558 167.976 376.157C164.745 378.846 164.386 381.983 166.809 385.209C181.615 406.002 198.843 424.465 219.75 439.343C224.057 442.39 227.377 442.032 230.697 437.819C232.94 434.951 236.081 432.89 238.504 430.112C241.913 426.079 245.054 426.527 249.63 428.857C260.488 434.234 271.524 439.343 282.831 443.556C293.419 447.499 298.623 454.4 297.367 465.783C296.47 474.118 297.187 475.373 305.532 476.538C316.569 478.061 327.696 479.047 338.822 480.212C342.95 480.66 345.193 478.958 345.193 474.297C345.014 461.122 345.014 447.947 345.193 434.683C345.283 429.753 342.77 428.319 338.374 428.319C329.131 428.588 320.069 428.498 310.916 428.498ZM386.2 428.498C376.868 428.498 367.536 428.588 358.114 428.498C353.987 428.498 351.654 429.932 351.743 434.503C351.833 447.947 351.833 461.301 351.743 474.745C351.743 478.778 353.628 480.302 357.307 480.033C364.844 479.585 372.381 479.316 379.739 478.42C398.672 476 398.942 475.821 398.762 457.089C398.672 451.263 400.826 449.023 405.851 447.051C417.875 442.211 429.719 436.923 441.294 431.187C451.344 426.168 453.857 426.168 461.753 434.683C463.099 436.206 464.624 437.64 465.881 439.164C468.662 442.57 471.534 443.107 475.302 440.419C496.479 425.541 514.066 407.168 528.871 386.016C531.025 382.879 531.025 380.101 528.064 377.322C524.385 373.827 520.975 370.063 517.296 366.567C514.514 363.879 514.694 361.19 516.13 357.784C522.231 342.996 528.154 328.208 533.807 313.24C535.332 309.297 537.037 306.966 541.523 307.146C545.741 307.325 550.048 306.877 554.355 307.146C559.649 307.415 561.802 305.443 562.61 299.976C566.02 277.659 565.122 255.432 562.072 233.205C561.264 227.648 558.303 224.959 552.56 225.407C549.15 225.676 545.651 225.228 542.241 225.676C536.05 226.393 533.448 223.077 531.922 217.789C528.064 204.077 523.398 190.722 514.873 178.981C511.553 174.411 511.912 169.75 515.771 165.627C518.822 162.401 522.052 159.354 525.372 156.306C528.243 153.617 528.512 150.749 526.179 147.702C523.488 144.117 520.796 140.622 517.924 137.126C505.541 121.98 491.364 108.715 475.392 97.3328C470.816 94.1063 466.957 94.1063 462.919 98.0498C459.869 101.007 456.459 103.696 453.588 106.743C450.985 109.611 448.652 109.163 445.422 107.819C431.514 101.724 417.516 95.8091 403.518 89.9835C398.852 88.1014 396.07 85.2333 396.07 80.0351C396.07 76.0019 395.801 71.8792 395.981 67.846C396.16 63.6336 394.365 61.3034 390.238 60.8552C380.726 59.6901 371.305 58.4354 361.793 57.6287C358.653 57.3598 355.422 58.3457 352.192 58.7939C353.897 61.8411 355.422 64.978 357.396 67.7564C359.909 71.1622 364.395 73.8509 365.203 77.4359C367.177 86.04 367.805 95.0025 368.344 103.875C368.613 108.894 370.497 111.494 375.253 112.121C397.057 114.81 416.619 123.593 435.282 134.617C452.6 144.834 467.585 157.83 479.609 174.052C499.709 201.209 509.041 232.129 510.566 265.56C512.72 315.302 492.531 355.275 455.562 387.54C442.64 398.832 428.373 408.871 420.746 425.182C419.849 426.975 416.08 428.319 413.657 428.409C404.505 428.767 395.352 428.498 386.2 428.498ZM387.456 378.308C388.533 380.28 388.892 381.356 389.52 381.983C399.121 391.573 410.786 397.578 424.156 399.639C426.668 399.998 429.899 398.832 432.052 397.309C439.59 391.842 447.037 386.195 454.126 380.19C478.712 359.308 494.146 332.779 500.517 301.41C509.579 257.045 501.862 215.907 474.315 179.25C450.357 147.433 418.772 127.626 379.829 119.47C369.959 117.409 369.061 118.215 369.42 128.074C370.766 164.552 372.112 201.029 373.548 237.596C373.548 238.313 373.997 239.03 374.445 240.375C388.533 230.337 402.8 222.091 420.477 222.988C417.785 233.026 415.362 241.988 412.581 252.474C421.554 247.993 428.373 244.049 435.641 241.271C443.089 238.493 450.985 236.879 458.702 234.818C459.061 235.445 459.42 236.073 459.779 236.7C458.971 238.403 458.343 240.285 457.356 241.898C447.576 257.045 444.166 273.447 446.14 291.282C447.127 300.155 447.755 309.028 447.845 317.99C447.934 327.401 446.499 336.543 441.564 344.878C433.219 359.039 419.849 366.298 405.223 371.945C399.57 374.185 393.827 376.068 387.456 378.308ZM322.043 240.644C322.402 231.502 322.671 223.884 323.03 216.355C324.286 186.331 325.632 156.396 326.709 126.371C327.068 117.767 326.439 117.498 318.184 119.201C297.815 123.234 278.882 130.494 261.564 142.056C228.454 164.104 205.034 193.949 196.6 232.846C183.14 295.136 200.907 347.836 251.335 388.346C269.191 402.597 272.512 403.045 292.701 392.738C298.803 389.601 304.725 385.658 308.763 378.756C299.879 375.44 291.804 372.751 283.997 369.435C262.013 360.025 248.105 344.609 247.925 319.514C247.836 311.986 248.284 304.457 249.182 297.018C251.694 277.48 249.271 259.017 238.683 241.988C237.696 240.375 237.158 238.493 236.081 235.804C253.219 236.969 267.397 243.422 280.856 251.936C281.395 251.488 282.023 251.04 282.561 250.503C280.228 241.63 277.985 232.757 275.562 223.525C277.088 223.256 278.434 222.808 279.69 222.898C295.213 223.794 308.404 230.695 322.043 240.644ZM389.879 307.863C389.789 306.787 389.789 304.367 389.61 301.947C387.187 270.22 370.407 245.304 351.474 221.374C349.052 218.327 346.988 218.954 344.565 221.822C330.836 238.493 318.812 256.239 311.724 276.852C303.827 299.617 303.827 322.113 314.864 344.161C322.402 359.128 333.438 371.138 345.373 382.431C346.449 383.417 350.039 383.238 351.385 382.162C355.333 379.025 358.832 375.351 362.242 371.586C378.393 353.93 389.969 334.123 389.879 307.863ZM319.082 365.313C318.902 364.596 318.992 364.058 318.723 363.61C317.197 361.011 315.492 358.411 313.967 355.812C303.379 338.515 298.174 320.052 300.238 299.528C301.943 282.857 307.596 267.531 315.492 253.012C318.184 248.172 317.825 244.766 312.531 242.078C306.34 238.941 300.507 235.266 294.316 232.309C291.804 231.143 288.753 231.054 284.984 230.247C285.612 233.205 285.792 234.818 286.24 236.252C289.74 247.635 289.919 258.927 287.048 270.489C284.715 279.541 282.651 288.683 280.946 297.825C275.024 330.896 290.547 351.869 319.082 365.313ZM409.261 230.516C399.031 231.86 391.045 237.417 382.79 242.526C378.663 245.125 378.214 247.993 380.367 252.205C383.688 258.658 387.008 265.201 389.52 272.102C398.403 296.48 399.121 320.948 388.264 345.057C385.033 352.138 380.816 358.68 377.047 365.402C390.597 359.308 401.992 350.973 409.44 338.246C417.965 323.637 416.888 307.952 413.657 292.089C409.62 272.461 403.787 252.922 409.979 232.667C410.068 232.309 409.799 231.86 409.261 230.516ZM307.776 370.421C307.955 369.883 308.134 369.435 308.314 368.898C306.878 367.822 305.443 366.747 304.007 365.761C281.126 349.449 269.371 328.028 274.127 299.348C275.921 288.504 278.613 277.928 280.498 267.083C280.946 264.753 280.587 261.347 279.062 259.824C270.986 251.937 260.936 247.455 248.643 244.229C249.81 247.993 250.438 250.413 251.335 252.833C255.911 265.022 258.065 277.48 256.45 290.475C255.642 296.928 254.924 303.381 254.476 309.835C253.309 328.208 256.45 345.057 273.588 355.454C282.023 360.562 291.265 364.416 300.328 368.539C302.571 369.704 305.263 369.883 307.776 370.421ZM447.037 244.408C435.372 247.276 425.233 252.026 416.798 259.734C415.273 261.078 415.003 264.663 415.362 266.994C416.439 273.805 417.875 280.527 419.58 287.249C427.476 318.349 421.374 344.699 393.917 363.968C391.584 365.581 389.61 367.643 387.546 369.525C401.454 366.836 414.106 362.176 425.143 354.02C439.59 343.354 442.371 327.939 441.564 311.179C440.935 297.466 439.679 283.664 440.397 269.951C440.756 261.795 444.435 253.729 447.037 244.408ZM368.523 387.271C374.714 392.111 380.098 396.861 386.021 400.894C394.007 406.271 394.186 406.003 390.507 415.144C388.443 420.253 389.341 421.777 394.724 422.135C397.775 422.314 400.826 422.225 403.877 422.494C413.478 423.211 418.054 420.343 421.823 411.47C423.259 408.153 422.9 406.092 418.952 405.285C405.402 402.597 394.007 396.144 384.495 386.016C379.38 380.37 376.33 380.728 368.523 387.271ZM327.875 387.54C320.786 381.356 317.018 380.997 312.262 385.747C302.302 395.785 290.547 402.417 276.729 405.554C275.562 405.823 274.575 406.54 272.96 407.257C273.768 409.498 274.216 411.649 275.293 413.441C279.869 421.06 296.918 425.72 304.725 421.508C305.712 420.97 306.609 418.819 306.43 417.564C306.16 415.682 305.263 413.71 304.186 412.007C301.674 408.064 302.571 405.823 306.519 403.224C313.698 398.564 320.338 393.096 327.875 387.54ZM344.924 404.658C344.924 403.045 344.745 400.356 345.014 397.757C345.462 393.903 343.847 391.035 340.348 390.408C337.566 389.96 333.887 390.408 331.734 391.931C325.542 396.413 320.069 401.88 313.967 406.54C310.826 408.96 310.647 411.201 312.352 414.338C315.941 420.88 321.594 422.494 328.683 422.404C344.744 422.135 345.642 421.418 344.924 404.658ZM351.743 406.361C351.833 410.215 351.474 414.069 352.013 417.833C352.192 419.357 354.076 421.777 355.243 421.866C362.511 422.225 370.048 422.942 376.958 421.418C380.009 420.701 382.162 415.144 384.226 411.47C384.764 410.484 383.867 407.885 382.79 406.988C376.778 401.611 370.677 396.323 364.216 391.483C362.332 390.049 358.653 389.153 356.768 390.049C354.525 391.035 352.73 394.172 352.013 396.681C351.115 399.729 351.743 403.134 351.743 406.361ZM347.347 93.0307C357.935 93.0307 359.371 92.2241 359.281 86.2192C359.191 79.7662 352.641 69.28 348.513 69.0112C344.027 68.7423 337.835 79.0492 337.476 86.3088C337.117 94.5544 342.681 92.8515 347.347 93.0307ZM362.511 110.239C361.973 110.239 361.345 110.239 360.806 110.239C360.806 116.064 360.717 121.89 360.806 127.805C361.434 158.457 362.152 189.109 362.96 219.761C363.05 222.36 364.126 225.049 364.754 227.648C365.562 227.469 366.37 227.29 367.177 227.2C365.562 188.213 364.037 149.226 362.511 110.239ZM333.977 106.206C332.451 146.627 330.836 186.958 329.311 227.379C334.336 222.45 337.835 125.296 333.977 106.206ZM344.655 102.8C344.027 102.8 343.399 102.8 342.77 102.8C341.873 139.546 340.976 176.293 340.079 213.039C341.155 213.218 342.232 213.308 343.309 213.487C343.847 211.067 344.834 208.647 344.834 206.228C345.014 174.411 345.014 142.594 345.014 110.777C345.014 108.177 344.834 105.489 344.655 102.8ZM353.718 102.083C353.269 101.993 352.82 101.904 352.372 101.814C352.192 102.531 351.833 103.338 351.833 104.055C351.743 138.74 351.743 173.425 351.833 208.199C351.833 210.081 353 211.874 353.628 213.756C354.435 213.577 355.153 213.487 355.961 213.308C355.153 176.203 354.435 139.098 353.718 102.083Z" fill="white"/>
</g>
</g>
<g clip-path="url(#clip2_1016_1222)">
<g filter="url(#filter2_dd_1016_1222)">
<path d="M345.732 488.458C330.029 486.217 313.967 484.156 297.905 481.557C290.547 480.392 289.56 478.241 290.637 471.07C292.432 458.702 287.676 452.16 275.921 448.216C267.397 445.348 259.052 441.315 251.066 437.103C246.131 434.503 242.631 434.055 238.952 438.716C236.171 442.211 233.03 445.617 229.441 448.037C227.467 449.381 223.249 449.74 221.455 448.575C196.42 431.725 175.692 410.484 159.092 385.299C156.58 381.445 156.759 377.771 160.707 374.544C163.399 372.393 165.912 369.973 168.334 367.553C173.539 362.355 173.449 359.128 170.398 352.317C165.822 342.01 161.694 331.434 157.926 320.769C156.221 315.929 154.067 313.061 148.504 313.42C144.466 313.688 140.339 312.792 136.301 313.061C130.558 313.509 128.404 310.641 127.597 305.443C123.649 278.734 123.918 252.026 128.853 225.407C129.661 221.016 132.173 219.134 136.48 219.223C140.339 219.313 144.197 219.313 148.055 219.582C154.337 220.03 157.836 216.893 160.079 211.336C164.745 199.506 169.77 187.765 174.346 175.934C175.064 174.142 174.526 171.094 173.359 169.481C170.309 165.448 166.54 161.953 163.31 158.099C160.438 154.783 160.169 151.377 162.681 147.523C178.653 123.234 199.381 103.786 223.339 87.5636C226.749 85.2334 229.8 85.5918 232.581 88.5495C235.184 91.3279 237.696 94.3751 240.298 97.1535C243.977 101.097 247.925 102.262 253.309 99.5734C264.256 94.2855 275.383 89.4457 286.599 84.7852C290.817 83.0823 292.791 80.5728 292.521 76.1812C292.432 74.5679 292.521 72.9547 292.521 71.3414C292.521 56.4636 292.521 56.5532 306.878 54.0437C335.861 48.8454 364.665 49.3832 393.558 54.7607C400.018 55.9259 403.608 58.4354 402.621 65.4261C402.351 67.2186 402.71 69.1008 402.621 70.8933C402.351 81.9172 403.249 82.6342 413.747 86.4881C423.618 90.1627 433.219 94.5544 442.73 99.0357C447.037 101.097 450.357 101.366 453.408 97.3328C454.305 96.2573 455.382 95.361 456.459 94.3751C467.227 83.9786 468.573 83.7097 480.417 92.6722C500.786 108.088 518.911 125.654 533.268 146.896C536.498 151.556 535.87 154.603 531.832 158.368C518.552 170.646 518.911 170.557 526.808 186.689C530.845 195.024 534.076 203.897 537.127 212.681C538.652 216.983 540.895 218.954 545.561 218.775C549.779 218.596 554.086 219.313 558.393 219.044C563.687 218.775 566.109 221.016 567.096 226.124C572.032 252.743 572.839 279.362 567.994 306.07C567.096 311.179 564.315 313.509 559.11 312.882C539.011 310.731 538.742 316.288 535.242 330.09C532.999 338.783 528.602 347.029 524.744 355.275C522.68 359.756 522.77 363.251 526.538 366.657C530.038 369.794 533.089 373.289 536.588 376.426C539.46 378.936 539.549 381.535 537.575 384.403C520.796 409.408 500.427 430.918 475.482 448.126C471.175 451.084 467.855 450.457 464.265 446.692C451.972 433.607 452.062 433.966 435.911 441.942C428.463 445.617 420.656 448.485 412.76 451.084C407.107 452.966 404.864 455.834 405.043 462.108C405.402 482.005 406.21 480.571 388.533 483.08C374.714 485.5 360.537 486.755 345.732 488.458ZM310.916 428.498C305.801 428.409 300.687 427.961 295.662 428.498C283.818 429.753 274.755 427.961 269.281 415.144C264.615 404.389 253.937 398.295 244.785 391.125C215.353 367.822 196.51 337.529 189.062 300.872C180.269 257.314 188.075 216.445 213.559 179.698C237.427 145.103 270.627 123.683 311.185 113.824C325.991 110.239 326.709 110.866 329.042 95.7195C330.926 83.3512 331.823 71.0725 343.399 63.0062C344.386 62.2892 344.924 59.8694 344.475 58.7042C344.027 57.7184 341.873 56.8221 340.527 56.9117C328.772 58.0769 317.108 59.5109 305.443 60.8552C301.046 61.393 299.072 64.0818 298.982 68.2942C298.892 72.9547 299.52 77.7048 298.623 82.2757C298.174 84.8748 295.931 88.2806 293.598 89.3561C279.6 95.7195 265.333 101.545 251.245 107.64C246.938 109.522 243.529 108.984 240.388 105.489C237.517 102.352 234.197 99.5734 231.415 96.3469C228.723 93.21 226.3 93.1204 223.07 95.4506C202.253 110.239 183.948 127.716 169.591 148.867C168.514 150.391 168.783 153.976 169.95 155.5C172.911 159.533 176.679 163.118 180.269 166.613C183.499 169.84 183.678 172.797 181.525 176.92C176.32 187.227 169.591 197.355 167.347 208.379C163.579 226.841 158.195 227.2 143.12 225.407C138.095 224.78 135.403 226.752 134.416 232.219C130.648 253.371 130.379 274.612 132.891 295.853C134.147 306.339 134.686 306.698 145.453 306.877C148.325 306.877 151.196 307.235 153.978 306.966C158.644 306.518 161.335 308.669 162.323 313.061C165.643 327.849 170.937 341.741 178.833 354.737C181.615 359.397 181.076 364.147 177.038 368.091C174.167 370.959 171.026 373.558 167.976 376.157C164.745 378.846 164.386 381.983 166.809 385.209C181.615 406.002 198.843 424.465 219.75 439.343C224.057 442.39 227.377 442.032 230.697 437.819C232.94 434.951 236.081 432.89 238.504 430.112C241.913 426.079 245.054 426.527 249.63 428.857C260.488 434.234 271.524 439.343 282.831 443.556C293.419 447.499 298.623 454.4 297.367 465.783C296.47 474.118 297.187 475.373 305.532 476.538C316.569 478.061 327.696 479.047 338.822 480.212C342.95 480.66 345.193 478.958 345.193 474.297C345.014 461.122 345.014 447.947 345.193 434.683C345.283 429.753 342.77 428.319 338.374 428.319C329.131 428.588 320.069 428.498 310.916 428.498ZM386.2 428.498C376.868 428.498 367.536 428.588 358.114 428.498C353.987 428.498 351.654 429.932 351.743 434.503C351.833 447.947 351.833 461.301 351.743 474.745C351.743 478.778 353.628 480.302 357.307 480.033C364.844 479.585 372.381 479.316 379.739 478.42C398.672 476 398.942 475.821 398.762 457.089C398.672 451.263 400.826 449.023 405.851 447.051C417.875 442.211 429.719 436.923 441.294 431.187C451.344 426.168 453.857 426.168 461.753 434.683C463.099 436.206 464.624 437.64 465.881 439.164C468.662 442.57 471.534 443.107 475.302 440.419C496.479 425.541 514.066 407.168 528.871 386.016C531.025 382.879 531.025 380.101 528.064 377.322C524.385 373.827 520.975 370.063 517.296 366.567C514.514 363.879 514.694 361.19 516.13 357.784C522.231 342.996 528.154 328.208 533.807 313.24C535.332 309.297 537.037 306.966 541.523 307.146C545.741 307.325 550.048 306.877 554.355 307.146C559.649 307.415 561.802 305.443 562.61 299.976C566.02 277.659 565.122 255.432 562.072 233.205C561.264 227.648 558.303 224.959 552.56 225.407C549.15 225.676 545.651 225.228 542.241 225.676C536.05 226.393 533.448 223.077 531.922 217.789C528.064 204.077 523.398 190.722 514.873 178.981C511.553 174.411 511.912 169.75 515.771 165.627C518.822 162.401 522.052 159.354 525.372 156.306C528.243 153.617 528.512 150.749 526.179 147.702C523.488 144.117 520.796 140.622 517.924 137.126C505.541 121.98 491.364 108.715 475.392 97.3328C470.816 94.1063 466.957 94.1063 462.919 98.0498C459.869 101.007 456.459 103.696 453.588 106.743C450.985 109.611 448.652 109.163 445.422 107.819C431.514 101.724 417.516 95.8091 403.518 89.9835C398.852 88.1014 396.07 85.2333 396.07 80.0351C396.07 76.0019 395.801 71.8792 395.981 67.846C396.16 63.6336 394.365 61.3034 390.238 60.8552C380.726 59.6901 371.305 58.4354 361.793 57.6287C358.653 57.3598 355.422 58.3457 352.192 58.7939C353.897 61.8411 355.422 64.978 357.396 67.7564C359.909 71.1622 364.395 73.8509 365.203 77.4359C367.177 86.04 367.805 95.0025 368.344 103.875C368.613 108.894 370.497 111.494 375.253 112.121C397.057 114.81 416.619 123.593 435.282 134.617C452.6 144.834 467.585 157.83 479.609 174.052C499.709 201.209 509.041 232.129 510.566 265.56C512.72 315.302 492.531 355.275 455.562 387.54C442.64 398.832 428.373 408.871 420.746 425.182C419.849 426.975 416.08 428.319 413.657 428.409C404.505 428.767 395.352 428.498 386.2 428.498ZM387.456 378.308C388.533 380.28 388.892 381.356 389.52 381.983C399.121 391.573 410.786 397.578 424.156 399.639C426.668 399.998 429.899 398.832 432.052 397.309C439.59 391.842 447.037 386.195 454.126 380.19C478.712 359.308 494.146 332.779 500.517 301.41C509.579 257.045 501.862 215.907 474.315 179.25C450.357 147.433 418.772 127.626 379.829 119.47C369.959 117.409 369.061 118.215 369.42 128.074C370.766 164.552 372.112 201.029 373.548 237.596C373.548 238.313 373.997 239.03 374.445 240.375C388.533 230.337 402.8 222.091 420.477 222.988C417.785 233.026 415.362 241.988 412.581 252.474C421.554 247.993 428.373 244.049 435.641 241.271C443.089 238.493 450.985 236.879 458.702 234.818C459.061 235.445 459.42 236.073 459.779 236.7C458.971 238.403 458.343 240.285 457.356 241.898C447.576 257.045 444.166 273.447 446.14 291.282C447.127 300.155 447.755 309.028 447.845 317.99C447.934 327.401 446.499 336.543 441.564 344.878C433.219 359.039 419.849 366.298 405.223 371.945C399.57 374.185 393.827 376.068 387.456 378.308ZM322.043 240.644C322.402 231.502 322.671 223.884 323.03 216.355C324.286 186.331 325.632 156.396 326.709 126.371C327.068 117.767 326.439 117.498 318.184 119.201C297.815 123.234 278.882 130.494 261.564 142.056C228.454 164.104 205.034 193.949 196.6 232.846C183.14 295.136 200.907 347.836 251.335 388.346C269.191 402.597 272.512 403.045 292.701 392.738C298.803 389.601 304.725 385.658 308.763 378.756C299.879 375.44 291.804 372.751 283.997 369.435C262.013 360.025 248.105 344.609 247.925 319.514C247.836 311.986 248.284 304.457 249.182 297.018C251.694 277.48 249.271 259.017 238.683 241.988C237.696 240.375 237.158 238.493 236.081 235.804C253.219 236.969 267.397 243.422 280.856 251.936C281.395 251.488 282.023 251.04 282.561 250.503C280.228 241.63 277.985 232.757 275.562 223.525C277.088 223.256 278.434 222.808 279.69 222.898C295.213 223.794 308.404 230.695 322.043 240.644ZM389.879 307.863C389.789 306.787 389.789 304.367 389.61 301.947C387.187 270.22 370.407 245.304 351.474 221.374C349.052 218.327 346.988 218.954 344.565 221.822C330.836 238.493 318.812 256.239 311.724 276.852C303.827 299.617 303.827 322.113 314.864 344.161C322.402 359.128 333.438 371.138 345.373 382.431C346.449 383.417 350.039 383.238 351.385 382.162C355.333 379.025 358.832 375.351 362.242 371.586C378.393 353.93 389.969 334.123 389.879 307.863ZM319.082 365.313C318.902 364.596 318.992 364.058 318.723 363.61C317.197 361.011 315.492 358.411 313.967 355.812C303.379 338.515 298.174 320.052 300.238 299.528C301.943 282.857 307.596 267.531 315.492 253.012C318.184 248.172 317.825 244.766 312.531 242.078C306.34 238.941 300.507 235.266 294.316 232.309C291.804 231.143 288.753 231.054 284.984 230.247C285.612 233.205 285.792 234.818 286.24 236.252C289.74 247.635 289.919 258.927 287.048 270.489C284.715 279.541 282.651 288.683 280.946 297.825C275.024 330.896 290.547 351.869 319.082 365.313ZM409.261 230.516C399.031 231.86 391.045 237.417 382.79 242.526C378.663 245.125 378.214 247.993 380.367 252.205C383.688 258.658 387.008 265.201 389.52 272.102C398.403 296.48 399.121 320.948 388.264 345.057C385.033 352.138 380.816 358.68 377.047 365.402C390.597 359.308 401.992 350.973 409.44 338.246C417.965 323.637 416.888 307.952 413.657 292.089C409.62 272.461 403.787 252.922 409.979 232.667C410.068 232.309 409.799 231.86 409.261 230.516ZM307.776 370.421C307.955 369.883 308.134 369.435 308.314 368.898C306.878 367.822 305.443 366.747 304.007 365.761C281.126 349.449 269.371 328.028 274.127 299.348C275.921 288.504 278.613 277.928 280.498 267.083C280.946 264.753 280.587 261.347 279.062 259.824C270.986 251.937 260.936 247.455 248.643 244.229C249.81 247.993 250.438 250.413 251.335 252.833C255.911 265.022 258.065 277.48 256.45 290.475C255.642 296.928 254.924 303.381 254.476 309.835C253.309 328.208 256.45 345.057 273.588 355.454C282.023 360.562 291.265 364.416 300.328 368.539C302.571 369.704 305.263 369.883 307.776 370.421ZM447.037 244.408C435.372 247.276 425.233 252.026 416.798 259.734C415.273 261.078 415.003 264.663 415.362 266.994C416.439 273.805 417.875 280.527 419.58 287.249C427.476 318.349 421.374 344.699 393.917 363.968C391.584 365.581 389.61 367.643 387.546 369.525C401.454 366.836 414.106 362.176 425.143 354.02C439.59 343.354 442.371 327.939 441.564 311.179C440.935 297.466 439.679 283.664 440.397 269.951C440.756 261.795 444.435 253.729 447.037 244.408ZM368.523 387.271C374.714 392.111 380.098 396.861 386.021 400.894C394.007 406.271 394.186 406.003 390.507 415.144C388.443 420.253 389.341 421.777 394.724 422.135C397.775 422.314 400.826 422.225 403.877 422.494C413.478 423.211 418.054 420.343 421.823 411.47C423.259 408.153 422.9 406.092 418.952 405.285C405.402 402.597 394.007 396.144 384.495 386.016C379.38 380.37 376.33 380.728 368.523 387.271ZM327.875 387.54C320.786 381.356 317.018 380.997 312.262 385.747C302.302 395.785 290.547 402.417 276.729 405.554C275.562 405.823 274.575 406.54 272.96 407.257C273.768 409.498 274.216 411.649 275.293 413.441C279.869 421.06 296.918 425.72 304.725 421.508C305.712 420.97 306.609 418.819 306.43 417.564C306.16 415.682 305.263 413.71 304.186 412.007C301.674 408.064 302.571 405.823 306.519 403.224C313.698 398.564 320.338 393.096 327.875 387.54ZM344.924 404.658C344.924 403.045 344.745 400.356 345.014 397.757C345.462 393.903 343.847 391.035 340.348 390.408C337.566 389.96 333.887 390.408 331.734 391.931C325.542 396.413 320.069 401.88 313.967 406.54C310.826 408.96 310.647 411.201 312.352 414.338C315.941 420.88 321.594 422.494 328.683 422.404C344.744 422.135 345.642 421.418 344.924 404.658ZM351.743 406.361C351.833 410.215 351.474 414.069 352.013 417.833C352.192 419.357 354.076 421.777 355.243 421.866C362.511 422.225 370.048 422.942 376.958 421.418C380.009 420.701 382.162 415.144 384.226 411.47C384.764 410.484 383.867 407.885 382.79 406.988C376.778 401.611 370.677 396.323 364.216 391.483C362.332 390.049 358.653 389.153 356.768 390.049C354.525 391.035 352.73 394.172 352.013 396.681C351.115 399.729 351.743 403.134 351.743 406.361ZM347.347 93.0307C357.935 93.0307 359.371 92.2241 359.281 86.2192C359.191 79.7662 352.641 69.28 348.513 69.0112C344.027 68.7423 337.835 79.0492 337.476 86.3088C337.117 94.5544 342.681 92.8515 347.347 93.0307ZM362.511 110.239C361.973 110.239 361.345 110.239 360.806 110.239C360.806 116.064 360.717 121.89 360.806 127.805C361.434 158.457 362.152 189.109 362.96 219.761C363.05 222.36 364.126 225.049 364.754 227.648C365.562 227.469 366.37 227.29 367.177 227.2C365.562 188.213 364.037 149.226 362.511 110.239ZM333.977 106.206C332.451 146.627 330.836 186.958 329.311 227.379C334.336 222.45 337.835 125.296 333.977 106.206ZM344.655 102.8C344.027 102.8 343.399 102.8 342.77 102.8C341.873 139.546 340.976 176.293 340.079 213.039C341.155 213.218 342.232 213.308 343.309 213.487C343.847 211.067 344.834 208.647 344.834 206.228C345.014 174.411 345.014 142.594 345.014 110.777C345.014 108.177 344.834 105.489 344.655 102.8ZM353.718 102.083C353.269 101.993 352.82 101.904 352.372 101.814C352.192 102.531 351.833 103.338 351.833 104.055C351.743 138.74 351.743 173.425 351.833 208.199C351.833 210.081 353 211.874 353.628 213.756C354.435 213.577 355.153 213.487 355.961 213.308C355.153 176.203 354.435 139.098 353.718 102.083Z" fill="white"/>
</g>
</g>
<g filter="url(#filter3_ddddd_1016_1222)">
<mask id="path-3-outside-1_1016_1222" maskUnits="userSpaceOnUse" x="106" y="244" width="490" height="52" fill="black">
<rect fill="white" x="106" y="244" width="490" height="52"/>
<path d="M108.395 293V247.5H118.925V293H108.395ZM139.148 293V256.08H124.588V247.5H164.238V256.08H149.678V293H139.148ZM184.536 293.78C180.896 293.78 177.408 293.303 174.071 292.35C170.735 291.353 168.048 290.075 166.011 288.515L169.586 280.585C171.536 281.972 173.833 283.12 176.476 284.03C179.163 284.897 181.871 285.33 184.601 285.33C186.681 285.33 188.35 285.135 189.606 284.745C190.906 284.312 191.86 283.727 192.466 282.99C193.073 282.253 193.376 281.408 193.376 280.455C193.376 279.242 192.9 278.288 191.946 277.595C190.993 276.858 189.736 276.273 188.176 275.84C186.616 275.363 184.883 274.93 182.976 274.54C181.113 274.107 179.228 273.587 177.321 272.98C175.458 272.373 173.746 271.593 172.186 270.64C170.626 269.687 169.348 268.43 168.351 266.87C167.398 265.31 166.921 263.317 166.921 260.89C166.921 258.29 167.615 255.928 169.001 253.805C170.431 251.638 172.555 249.927 175.371 248.67C178.231 247.37 181.806 246.72 186.096 246.72C188.956 246.72 191.773 247.067 194.546 247.76C197.32 248.41 199.768 249.407 201.891 250.75L198.641 258.745C196.518 257.532 194.395 256.643 192.271 256.08C190.148 255.473 188.068 255.17 186.031 255.17C183.995 255.17 182.326 255.408 181.026 255.885C179.726 256.362 178.795 256.99 178.231 257.77C177.668 258.507 177.386 259.373 177.386 260.37C177.386 261.54 177.863 262.493 178.816 263.23C179.77 263.923 181.026 264.487 182.586 264.92C184.146 265.353 185.858 265.787 187.721 266.22C189.628 266.653 191.513 267.152 193.376 267.715C195.283 268.278 197.016 269.037 198.576 269.99C200.136 270.943 201.393 272.2 202.346 273.76C203.343 275.32 203.841 277.292 203.841 279.675C203.841 282.232 203.126 284.572 201.696 286.695C200.266 288.818 198.121 290.53 195.261 291.83C192.445 293.13 188.87 293.78 184.536 293.78ZM229.445 293V247.5H238.155L257.525 279.61H252.91L271.955 247.5H280.6L280.73 293H270.85L270.785 262.645H272.605L257.395 288.19H252.65L237.115 262.645H239.325V293H229.445ZM311.74 293.78C305.283 293.78 300.235 291.982 296.595 288.385C292.955 284.788 291.135 279.653 291.135 272.98V247.5H301.665V272.59C301.665 276.923 302.553 280.043 304.33 281.95C306.107 283.857 308.598 284.81 311.805 284.81C315.012 284.81 317.503 283.857 319.28 281.95C321.057 280.043 321.945 276.923 321.945 272.59V247.5H332.345V272.98C332.345 279.653 330.525 284.788 326.885 288.385C323.245 291.982 318.197 293.78 311.74 293.78ZM342.75 293V247.5H351.46L378.305 280.26H374.08V247.5H384.48V293H375.835L348.925 260.24H353.15V293H342.75ZM435.429 293.78C431.919 293.78 428.647 293.217 425.614 292.09C422.624 290.92 420.024 289.273 417.814 287.15C415.604 285.027 413.87 282.535 412.614 279.675C411.4 276.815 410.794 273.673 410.794 270.25C410.794 266.827 411.4 263.685 412.614 260.825C413.87 257.965 415.604 255.473 417.814 253.35C420.067 251.227 422.689 249.602 425.679 248.475C428.669 247.305 431.94 246.72 435.494 246.72C439.437 246.72 442.99 247.413 446.154 248.8C449.36 250.143 452.047 252.137 454.214 254.78L447.454 261.02C445.894 259.243 444.16 257.922 442.254 257.055C440.347 256.145 438.267 255.69 436.014 255.69C433.89 255.69 431.94 256.037 430.164 256.73C428.387 257.423 426.849 258.42 425.549 259.72C424.249 261.02 423.23 262.558 422.494 264.335C421.8 266.112 421.454 268.083 421.454 270.25C421.454 272.417 421.8 274.388 422.494 276.165C423.23 277.942 424.249 279.48 425.549 280.78C426.849 282.08 428.387 283.077 430.164 283.77C431.94 284.463 433.89 284.81 436.014 284.81C438.267 284.81 440.347 284.377 442.254 283.51C444.16 282.6 445.894 281.235 447.454 279.415L454.214 285.655C452.047 288.298 449.36 290.313 446.154 291.7C442.99 293.087 439.415 293.78 435.429 293.78ZM461.325 293V247.5H471.855V284.42H494.67V293H461.325ZM520.26 293.78C513.804 293.78 508.755 291.982 505.115 288.385C501.475 284.788 499.655 279.653 499.655 272.98V247.5H510.185V272.59C510.185 276.923 511.074 280.043 512.85 281.95C514.627 283.857 517.119 284.81 520.325 284.81C523.532 284.81 526.024 283.857 527.8 281.95C529.577 280.043 530.465 276.923 530.465 272.59V247.5H540.865V272.98C540.865 279.653 539.045 284.788 535.405 288.385C531.765 291.982 526.717 293.78 520.26 293.78ZM551.271 293V247.5H573.501C579.221 247.5 583.511 248.583 586.371 250.75C589.274 252.917 590.726 255.777 590.726 259.33C590.726 261.713 590.141 263.793 588.971 265.57C587.801 267.303 586.198 268.647 584.161 269.6C582.124 270.553 579.784 271.03 577.141 271.03L578.376 268.365C581.236 268.365 583.771 268.842 585.981 269.795C588.191 270.705 589.903 272.07 591.116 273.89C592.373 275.71 593.001 277.942 593.001 280.585C593.001 284.485 591.463 287.54 588.386 289.75C585.309 291.917 580.781 293 574.801 293H551.271ZM561.736 285.07H574.021C576.751 285.07 578.809 284.637 580.196 283.77C581.626 282.86 582.341 281.43 582.341 279.48C582.341 277.573 581.626 276.165 580.196 275.255C578.809 274.302 576.751 273.825 574.021 273.825H560.956V266.155H572.201C574.758 266.155 576.708 265.722 578.051 264.855C579.438 263.945 580.131 262.58 580.131 260.76C580.131 258.983 579.438 257.662 578.051 256.795C576.708 255.885 574.758 255.43 572.201 255.43H561.736V285.07Z"/>
</mask>
<path d="M108.395 293V247.5H118.925V293H108.395ZM139.148 293V256.08H124.588V247.5H164.238V256.08H149.678V293H139.148ZM184.536 293.78C180.896 293.78 177.408 293.303 174.071 292.35C170.735 291.353 168.048 290.075 166.011 288.515L169.586 280.585C171.536 281.972 173.833 283.12 176.476 284.03C179.163 284.897 181.871 285.33 184.601 285.33C186.681 285.33 188.35 285.135 189.606 284.745C190.906 284.312 191.86 283.727 192.466 282.99C193.073 282.253 193.376 281.408 193.376 280.455C193.376 279.242 192.9 278.288 191.946 277.595C190.993 276.858 189.736 276.273 188.176 275.84C186.616 275.363 184.883 274.93 182.976 274.54C181.113 274.107 179.228 273.587 177.321 272.98C175.458 272.373 173.746 271.593 172.186 270.64C170.626 269.687 169.348 268.43 168.351 266.87C167.398 265.31 166.921 263.317 166.921 260.89C166.921 258.29 167.615 255.928 169.001 253.805C170.431 251.638 172.555 249.927 175.371 248.67C178.231 247.37 181.806 246.72 186.096 246.72C188.956 246.72 191.773 247.067 194.546 247.76C197.32 248.41 199.768 249.407 201.891 250.75L198.641 258.745C196.518 257.532 194.395 256.643 192.271 256.08C190.148 255.473 188.068 255.17 186.031 255.17C183.995 255.17 182.326 255.408 181.026 255.885C179.726 256.362 178.795 256.99 178.231 257.77C177.668 258.507 177.386 259.373 177.386 260.37C177.386 261.54 177.863 262.493 178.816 263.23C179.77 263.923 181.026 264.487 182.586 264.92C184.146 265.353 185.858 265.787 187.721 266.22C189.628 266.653 191.513 267.152 193.376 267.715C195.283 268.278 197.016 269.037 198.576 269.99C200.136 270.943 201.393 272.2 202.346 273.76C203.343 275.32 203.841 277.292 203.841 279.675C203.841 282.232 203.126 284.572 201.696 286.695C200.266 288.818 198.121 290.53 195.261 291.83C192.445 293.13 188.87 293.78 184.536 293.78ZM229.445 293V247.5H238.155L257.525 279.61H252.91L271.955 247.5H280.6L280.73 293H270.85L270.785 262.645H272.605L257.395 288.19H252.65L237.115 262.645H239.325V293H229.445ZM311.74 293.78C305.283 293.78 300.235 291.982 296.595 288.385C292.955 284.788 291.135 279.653 291.135 272.98V247.5H301.665V272.59C301.665 276.923 302.553 280.043 304.33 281.95C306.107 283.857 308.598 284.81 311.805 284.81C315.012 284.81 317.503 283.857 319.28 281.95C321.057 280.043 321.945 276.923 321.945 272.59V247.5H332.345V272.98C332.345 279.653 330.525 284.788 326.885 288.385C323.245 291.982 318.197 293.78 311.74 293.78ZM342.75 293V247.5H351.46L378.305 280.26H374.08V247.5H384.48V293H375.835L348.925 260.24H353.15V293H342.75ZM435.429 293.78C431.919 293.78 428.647 293.217 425.614 292.09C422.624 290.92 420.024 289.273 417.814 287.15C415.604 285.027 413.87 282.535 412.614 279.675C411.4 276.815 410.794 273.673 410.794 270.25C410.794 266.827 411.4 263.685 412.614 260.825C413.87 257.965 415.604 255.473 417.814 253.35C420.067 251.227 422.689 249.602 425.679 248.475C428.669 247.305 431.94 246.72 435.494 246.72C439.437 246.72 442.99 247.413 446.154 248.8C449.36 250.143 452.047 252.137 454.214 254.78L447.454 261.02C445.894 259.243 444.16 257.922 442.254 257.055C440.347 256.145 438.267 255.69 436.014 255.69C433.89 255.69 431.94 256.037 430.164 256.73C428.387 257.423 426.849 258.42 425.549 259.72C424.249 261.02 423.23 262.558 422.494 264.335C421.8 266.112 421.454 268.083 421.454 270.25C421.454 272.417 421.8 274.388 422.494 276.165C423.23 277.942 424.249 279.48 425.549 280.78C426.849 282.08 428.387 283.077 430.164 283.77C431.94 284.463 433.89 284.81 436.014 284.81C438.267 284.81 440.347 284.377 442.254 283.51C444.16 282.6 445.894 281.235 447.454 279.415L454.214 285.655C452.047 288.298 449.36 290.313 446.154 291.7C442.99 293.087 439.415 293.78 435.429 293.78ZM461.325 293V247.5H471.855V284.42H494.67V293H461.325ZM520.26 293.78C513.804 293.78 508.755 291.982 505.115 288.385C501.475 284.788 499.655 279.653 499.655 272.98V247.5H510.185V272.59C510.185 276.923 511.074 280.043 512.85 281.95C514.627 283.857 517.119 284.81 520.325 284.81C523.532 284.81 526.024 283.857 527.8 281.95C529.577 280.043 530.465 276.923 530.465 272.59V247.5H540.865V272.98C540.865 279.653 539.045 284.788 535.405 288.385C531.765 291.982 526.717 293.78 520.26 293.78ZM551.271 293V247.5H573.501C579.221 247.5 583.511 248.583 586.371 250.75C589.274 252.917 590.726 255.777 590.726 259.33C590.726 261.713 590.141 263.793 588.971 265.57C587.801 267.303 586.198 268.647 584.161 269.6C582.124 270.553 579.784 271.03 577.141 271.03L578.376 268.365C581.236 268.365 583.771 268.842 585.981 269.795C588.191 270.705 589.903 272.07 591.116 273.89C592.373 275.71 593.001 277.942 593.001 280.585C593.001 284.485 591.463 287.54 588.386 289.75C585.309 291.917 580.781 293 574.801 293H551.271ZM561.736 285.07H574.021C576.751 285.07 578.809 284.637 580.196 283.77C581.626 282.86 582.341 281.43 582.341 279.48C582.341 277.573 581.626 276.165 580.196 275.255C578.809 274.302 576.751 273.825 574.021 273.825H560.956V266.155H572.201C574.758 266.155 576.708 265.722 578.051 264.855C579.438 263.945 580.131 262.58 580.131 260.76C580.131 258.983 579.438 257.662 578.051 256.795C576.708 255.885 574.758 255.43 572.201 255.43H561.736V285.07Z" fill="white"/>
<path d="M108.395 293H106.395V295H108.395V293ZM108.395 247.5V245.5H106.395V247.5H108.395ZM118.925 247.5H120.925V245.5H118.925V247.5ZM118.925 293V295H120.925V293H118.925ZM110.395 293V247.5H106.395V293H110.395ZM108.395 249.5H118.925V245.5H108.395V249.5ZM116.925 247.5V293H120.925V247.5H116.925ZM118.925 291H108.395V295H118.925V291ZM139.148 293H137.148V295H139.148V293ZM139.148 256.08H141.148V254.08H139.148V256.08ZM124.588 256.08H122.588V258.08H124.588V256.08ZM124.588 247.5V245.5H122.588V247.5H124.588ZM164.238 247.5H166.238V245.5H164.238V247.5ZM164.238 256.08V258.08H166.238V256.08H164.238ZM149.678 256.08V254.08H147.678V256.08H149.678ZM149.678 293V295H151.678V293H149.678ZM141.148 293V256.08H137.148V293H141.148ZM139.148 254.08H124.588V258.08H139.148V254.08ZM126.588 256.08V247.5H122.588V256.08H126.588ZM124.588 249.5H164.238V245.5H124.588V249.5ZM162.238 247.5V256.08H166.238V247.5H162.238ZM164.238 254.08H149.678V258.08H164.238V254.08ZM147.678 256.08V293H151.678V256.08H147.678ZM149.678 291H139.148V295H149.678V291ZM174.071 292.35L173.499 294.266L173.51 294.27L173.522 294.273L174.071 292.35ZM166.011 288.515L164.188 287.693L163.536 289.139L164.795 290.103L166.011 288.515ZM169.586 280.585L170.745 278.955L168.763 277.545L167.763 279.763L169.586 280.585ZM176.476 284.03L175.825 285.921L175.844 285.927L175.862 285.933L176.476 284.03ZM189.606 284.745L190.199 286.655L190.219 286.649L190.239 286.642L189.606 284.745ZM192.466 282.99L190.923 281.719L192.466 282.99ZM191.946 277.595L190.724 279.178L190.747 279.195L190.77 279.212L191.946 277.595ZM188.176 275.84L187.592 277.753L187.616 277.76L187.641 277.767L188.176 275.84ZM182.976 274.54L182.523 276.488L182.549 276.494L182.576 276.499L182.976 274.54ZM177.321 272.98L176.702 274.882L176.715 274.886L177.321 272.98ZM172.186 270.64L171.144 272.347L172.186 270.64ZM168.351 266.87L166.645 267.913L166.655 267.93L166.666 267.947L168.351 266.87ZM169.001 253.805L167.332 252.703L167.327 252.711L169.001 253.805ZM175.371 248.67L176.186 250.497L176.199 250.491L175.371 248.67ZM194.546 247.76L194.061 249.7L194.076 249.704L194.09 249.707L194.546 247.76ZM201.891 250.75L203.744 251.503L204.374 249.954L202.961 249.06L201.891 250.75ZM198.641 258.745L197.649 260.481L199.634 261.615L200.494 259.498L198.641 258.745ZM192.271 256.08L191.722 258.003L191.74 258.008L191.759 258.013L192.271 256.08ZM181.026 255.885L180.338 254.007V254.007L181.026 255.885ZM178.231 257.77L179.82 258.985L179.837 258.963L179.853 258.941L178.231 257.77ZM178.816 263.23L177.594 264.813L177.617 264.83L177.64 264.847L178.816 263.23ZM182.586 264.92L182.051 266.847L182.586 264.92ZM187.721 266.22L187.268 268.168L187.278 268.17L187.721 266.22ZM193.376 267.715L192.798 269.629L192.81 269.633L193.376 267.715ZM198.576 269.99L199.619 268.283L198.576 269.99ZM202.346 273.76L200.64 274.803L200.65 274.82L200.661 274.837L202.346 273.76ZM201.696 286.695L203.355 287.812L201.696 286.695ZM195.261 291.83L194.434 290.009L194.423 290.014L195.261 291.83ZM184.536 291.78C181.073 291.78 177.77 291.327 174.621 290.427L173.522 294.273C177.046 295.28 180.72 295.78 184.536 295.78V291.78ZM174.644 290.434C171.462 289.483 169.016 288.297 167.228 286.927L164.795 290.103C167.08 291.853 170.007 293.223 173.499 294.266L174.644 290.434ZM167.835 289.337L171.41 281.407L167.763 279.763L164.188 287.693L167.835 289.337ZM168.427 282.215C170.557 283.729 173.031 284.959 175.825 285.921L177.127 282.139C174.635 281.281 172.516 280.214 170.745 278.955L168.427 282.215ZM175.862 285.933C178.741 286.862 181.656 287.33 184.601 287.33V283.33C182.087 283.33 179.586 282.931 177.09 282.127L175.862 285.933ZM184.601 287.33C186.78 287.33 188.673 287.129 190.199 286.655L189.014 282.835C188.027 283.141 186.583 283.33 184.601 283.33V287.33ZM190.239 286.642C191.748 286.139 193.082 285.388 194.01 284.261L190.923 281.719C190.637 282.065 190.065 282.484 188.974 282.848L190.239 286.642ZM194.01 284.261C194.911 283.167 195.376 281.873 195.376 280.455H191.376C191.376 280.944 191.235 281.34 190.923 281.719L194.01 284.261ZM195.376 280.455C195.376 278.624 194.611 277.06 193.123 275.978L190.77 279.212C191.188 279.517 191.376 279.859 191.376 280.455H195.376ZM193.169 276.012C191.954 275.073 190.44 274.393 188.712 273.913L187.641 277.767C189.033 278.154 190.032 278.643 190.724 279.178L193.169 276.012ZM188.761 273.927C187.13 273.429 185.334 272.981 183.377 272.581L182.576 276.499C184.432 276.879 186.103 277.298 187.592 277.753L188.761 273.927ZM183.429 272.592C181.62 272.171 179.786 271.665 177.928 271.074L176.715 274.886C178.67 275.508 180.606 276.042 182.523 276.488L183.429 272.592ZM177.941 271.078C176.215 270.516 174.647 269.8 173.229 268.933L171.144 272.347C172.846 273.387 174.701 274.23 176.702 274.882L177.941 271.078ZM173.229 268.933C171.932 268.141 170.872 267.101 170.037 265.793L166.666 267.947C167.824 269.759 169.321 271.233 171.144 272.347L173.229 268.933ZM170.058 265.827C169.35 264.668 168.921 263.066 168.921 260.89H164.921C164.921 263.567 165.447 265.952 166.645 267.913L170.058 265.827ZM168.921 260.89C168.921 258.668 169.507 256.688 170.676 254.899L167.327 252.711C165.722 255.169 164.921 257.912 164.921 260.89H168.921ZM170.671 254.907C171.854 253.114 173.651 251.627 176.186 250.496L174.557 246.844C171.458 248.226 169.009 250.163 167.332 252.703L170.671 254.907ZM176.199 250.491C178.722 249.344 181.994 248.72 186.096 248.72V244.72C181.619 244.72 177.74 245.396 174.544 246.849L176.199 250.491ZM186.096 248.72C188.793 248.72 191.447 249.047 194.061 249.7L195.031 245.82C192.099 245.087 189.12 244.72 186.096 244.72V248.72ZM194.09 249.707C196.675 250.313 198.911 251.231 200.822 252.44L202.961 249.06C200.625 247.582 197.965 246.507 195.003 245.813L194.09 249.707ZM200.039 249.997L196.789 257.992L200.494 259.498L203.744 251.503L200.039 249.997ZM199.634 257.009C197.377 255.719 195.093 254.759 192.784 254.147L191.759 258.013C193.697 258.527 195.66 259.345 197.649 260.481L199.634 257.009ZM192.821 254.157C190.534 253.504 188.269 253.17 186.031 253.17V257.17C187.867 257.17 189.762 257.443 191.722 258.003L192.821 254.157ZM186.031 253.17C183.86 253.17 181.936 253.421 180.338 254.007L181.715 257.763C182.717 257.395 184.129 257.17 186.031 257.17V253.17ZM180.338 254.007C178.82 254.564 177.489 255.383 176.61 256.599L179.853 258.941C180.101 258.597 180.632 258.16 181.715 257.763L180.338 254.007ZM176.643 256.555C175.792 257.667 175.386 258.969 175.386 260.37H179.386C179.386 259.778 179.544 259.346 179.82 258.985L176.643 256.555ZM175.386 260.37C175.386 262.181 176.167 263.71 177.594 264.813L180.039 261.647C179.559 261.276 179.386 260.899 179.386 260.37H175.386ZM177.64 264.847C178.844 265.723 180.341 266.372 182.051 266.847L183.122 262.993C181.712 262.601 180.695 262.123 179.993 261.613L177.64 264.847ZM182.051 266.847C183.643 267.289 185.382 267.729 187.268 268.168L188.174 264.272C186.334 263.844 184.65 263.418 183.122 262.993L182.051 266.847ZM187.278 268.17C189.139 268.593 190.979 269.08 192.798 269.629L193.955 265.801C192.047 265.224 190.117 264.713 188.165 264.27L187.278 268.17ZM192.81 269.633C194.564 270.151 196.135 270.842 197.534 271.697L199.619 268.283C197.898 267.232 196.003 266.405 193.943 265.797L192.81 269.633ZM197.534 271.697C198.823 272.484 199.852 273.514 200.64 274.803L204.053 272.717C202.934 270.886 201.45 269.402 199.619 268.283L197.534 271.697ZM200.661 274.837C201.401 275.995 201.841 277.565 201.841 279.675H205.841C205.841 277.018 205.285 274.645 204.032 272.683L200.661 274.837ZM201.841 279.675C201.841 281.833 201.245 283.784 200.038 285.578L203.355 287.812C205.007 285.359 205.841 282.63 205.841 279.675H201.841ZM200.038 285.578C198.857 287.331 197.033 288.828 194.434 290.009L196.089 293.651C199.209 292.232 201.676 290.305 203.355 287.812L200.038 285.578ZM194.423 290.014C191.952 291.155 188.688 291.78 184.536 291.78V295.78C189.052 295.78 192.937 295.105 196.1 293.646L194.423 290.014ZM229.445 293H227.445V295H229.445V293ZM229.445 247.5V245.5H227.445V247.5H229.445ZM238.155 247.5L239.867 246.467L239.284 245.5H238.155V247.5ZM257.525 279.61V281.61H261.067L259.237 278.577L257.525 279.61ZM252.91 279.61L251.19 278.59L249.398 281.61H252.91V279.61ZM271.955 247.5V245.5H270.816L270.235 246.48L271.955 247.5ZM280.6 247.5L282.6 247.494L282.594 245.5H280.6V247.5ZM280.73 293V295H282.736L282.73 292.994L280.73 293ZM270.85 293L268.85 293.004L268.854 295H270.85V293ZM270.785 262.645V260.645H268.781L268.785 262.649L270.785 262.645ZM272.605 262.645L274.323 263.668L276.123 260.645H272.605V262.645ZM257.395 288.19V290.19H258.532L259.113 289.213L257.395 288.19ZM252.65 288.19L250.941 289.229L251.525 290.19H252.65V288.19ZM237.115 262.645V260.645H233.558L235.406 263.684L237.115 262.645ZM239.325 262.645H241.325V260.645H239.325V262.645ZM239.325 293V295H241.325V293H239.325ZM231.445 293V247.5H227.445V293H231.445ZM229.445 249.5H238.155V245.5H229.445V249.5ZM236.442 248.533L255.812 280.643L259.237 278.577L239.867 246.467L236.442 248.533ZM257.525 277.61H252.91V281.61H257.525V277.61ZM254.63 280.63L273.675 248.52L270.235 246.48L251.19 278.59L254.63 280.63ZM271.955 249.5H280.6V245.5H271.955V249.5ZM278.6 247.506L278.73 293.006L282.73 292.994L282.6 247.494L278.6 247.506ZM280.73 291H270.85V295H280.73V291ZM272.85 292.996L272.785 262.641L268.785 262.649L268.85 293.004L272.85 292.996ZM270.785 264.645H272.605V260.645H270.785V264.645ZM270.886 261.622L255.676 287.167L259.113 289.213L274.323 263.668L270.886 261.622ZM257.395 286.19H252.65V290.19H257.395V286.19ZM254.359 287.151L238.824 261.606L235.406 263.684L250.941 289.229L254.359 287.151ZM237.115 264.645H239.325V260.645H237.115V264.645ZM237.325 262.645V293H241.325V262.645H237.325ZM239.325 291H229.445V295H239.325V291ZM296.595 288.385L298.001 286.962L296.595 288.385ZM291.135 247.5V245.5H289.135V247.5H291.135ZM301.665 247.5H303.665V245.5H301.665V247.5ZM304.33 281.95L302.867 283.313L304.33 281.95ZM319.28 281.95L320.743 283.313V283.313L319.28 281.95ZM321.945 247.5V245.5H319.945V247.5H321.945ZM332.345 247.5H334.345V245.5H332.345V247.5ZM326.885 288.385L328.291 289.808L326.885 288.385ZM311.74 291.78C305.665 291.78 301.175 290.098 298.001 286.962L295.189 289.808C299.295 293.865 304.902 295.78 311.74 295.78V291.78ZM298.001 286.962C294.847 283.846 293.135 279.288 293.135 272.98H289.135C289.135 280.018 291.063 285.731 295.189 289.808L298.001 286.962ZM293.135 272.98V247.5H289.135V272.98H293.135ZM291.135 249.5H301.665V245.5H291.135V249.5ZM299.665 247.5V272.59H303.665V247.5H299.665ZM299.665 272.59C299.665 277.115 300.578 280.857 302.867 283.313L305.793 280.587C304.528 279.229 303.665 276.731 303.665 272.59H299.665ZM302.867 283.313C305.106 285.717 308.181 286.81 311.805 286.81V282.81C309.016 282.81 307.107 281.997 305.793 280.587L302.867 283.313ZM311.805 286.81C315.429 286.81 318.504 285.717 320.743 283.313L317.817 280.587C316.503 281.997 314.594 282.81 311.805 282.81V286.81ZM320.743 283.313C323.032 280.857 323.945 277.115 323.945 272.59H319.945C319.945 276.731 319.081 279.229 317.817 280.587L320.743 283.313ZM323.945 272.59V247.5H319.945V272.59H323.945ZM321.945 249.5H332.345V245.5H321.945V249.5ZM330.345 247.5V272.98H334.345V247.5H330.345ZM330.345 272.98C330.345 279.288 328.633 283.846 325.479 286.962L328.291 289.808C332.417 285.731 334.345 280.018 334.345 272.98H330.345ZM325.479 286.962C322.305 290.098 317.815 291.78 311.74 291.78V295.78C318.578 295.78 324.185 293.865 328.291 289.808L325.479 286.962ZM342.75 293H340.75V295H342.75V293ZM342.75 247.5V245.5H340.75V247.5H342.75ZM351.46 247.5L353.007 246.232L352.407 245.5H351.46V247.5ZM378.305 280.26V282.26H382.53L379.852 278.992L378.305 280.26ZM374.08 280.26H372.08V282.26H374.08V280.26ZM374.08 247.5V245.5H372.08V247.5H374.08ZM384.48 247.5H386.48V245.5H384.48V247.5ZM384.48 293V295H386.48V293H384.48ZM375.835 293L374.29 294.269L374.89 295H375.835V293ZM348.925 260.24V258.24H344.694L347.38 261.509L348.925 260.24ZM353.15 260.24H355.15V258.24H353.15V260.24ZM353.15 293V295H355.15V293H353.15ZM344.75 293V247.5H340.75V293H344.75ZM342.75 249.5H351.46V245.5H342.75V249.5ZM349.914 248.768L376.759 281.528L379.852 278.992L353.007 246.232L349.914 248.768ZM378.305 278.26H374.08V282.26H378.305V278.26ZM376.08 280.26V247.5H372.08V280.26H376.08ZM374.08 249.5H384.48V245.5H374.08V249.5ZM382.48 247.5V293H386.48V247.5H382.48ZM384.48 291H375.835V295H384.48V291ZM377.381 291.731L350.471 258.971L347.38 261.509L374.29 294.269L377.381 291.731ZM348.925 262.24H353.15V258.24H348.925V262.24ZM351.15 260.24V293H355.15V260.24H351.15ZM353.15 291H342.75V295H353.15V291ZM425.614 292.09L424.885 293.952L424.901 293.959L424.917 293.965L425.614 292.09ZM417.814 287.15L416.428 288.592L417.814 287.15ZM412.614 279.675L410.773 280.456L410.778 280.468L410.783 280.48L412.614 279.675ZM412.614 260.825L410.783 260.02L410.778 260.032L410.773 260.044L412.614 260.825ZM417.814 253.35L416.442 251.894L416.435 251.901L416.428 251.908L417.814 253.35ZM425.679 248.475L426.384 250.347L426.396 250.342L426.408 250.337L425.679 248.475ZM446.154 248.8L445.351 250.632L445.366 250.638L445.381 250.645L446.154 248.8ZM454.214 254.78L455.57 256.25L456.956 254.971L455.761 253.512L454.214 254.78ZM447.454 261.02L445.951 262.34L447.304 263.88L448.81 262.49L447.454 261.02ZM442.254 257.055L441.392 258.86L441.409 258.868L441.426 258.876L442.254 257.055ZM425.549 259.72L426.963 261.134V261.134L425.549 259.72ZM422.494 264.335L420.646 263.569L420.638 263.588L420.631 263.608L422.494 264.335ZM422.494 276.165L420.631 276.892L420.638 276.912L420.646 276.931L422.494 276.165ZM425.549 280.78L424.135 282.194L425.549 280.78ZM442.254 283.51L443.081 285.331L443.098 285.323L443.115 285.315L442.254 283.51ZM447.454 279.415L448.81 277.945L447.286 276.538L445.935 278.113L447.454 279.415ZM454.214 285.655L455.761 286.923L456.956 285.464L455.57 284.185L454.214 285.655ZM446.154 291.7L445.36 289.864L445.351 289.868L446.154 291.7ZM435.429 291.78C432.136 291.78 429.102 291.252 426.31 290.215L424.917 293.965C428.192 295.181 431.701 295.78 435.429 295.78V291.78ZM426.343 290.228C423.585 289.149 421.211 287.641 419.199 285.708L416.428 288.592C418.836 290.906 421.662 292.691 424.885 293.952L426.343 290.228ZM419.199 285.708C417.182 283.769 415.598 281.496 414.445 278.87L410.783 280.48C412.143 283.574 414.026 286.284 416.428 288.592L419.199 285.708ZM414.455 278.894C413.357 276.305 412.794 273.432 412.794 270.25H408.794C408.794 273.914 409.444 277.325 410.773 280.456L414.455 278.894ZM412.794 270.25C412.794 267.068 413.357 264.195 414.455 261.606L410.773 260.044C409.444 263.175 408.794 266.586 408.794 270.25H412.794ZM414.445 261.63C415.598 259.004 417.182 256.731 419.199 254.792L416.428 251.908C414.026 254.216 412.143 256.926 410.783 260.02L414.445 261.63ZM419.185 254.806C421.24 252.869 423.633 251.383 426.384 250.347L424.974 246.603C421.744 247.82 418.894 249.584 416.442 251.894L419.185 254.806ZM426.408 250.337C429.142 249.268 432.163 248.72 435.494 248.72V244.72C431.718 244.72 428.196 245.342 424.95 246.613L426.408 250.337ZM435.494 248.72C439.2 248.72 442.474 249.371 445.351 250.632L446.957 246.968C443.507 245.456 439.674 244.72 435.494 244.72V248.72ZM445.381 250.645C448.292 251.864 450.711 253.662 452.667 256.048L455.761 253.512C453.383 250.612 450.429 248.423 446.927 246.955L445.381 250.645ZM452.857 253.31L446.097 259.55L448.81 262.49L455.57 256.25L452.857 253.31ZM448.957 259.7C447.234 257.738 445.277 256.232 443.081 255.234L441.426 258.876C443.043 259.611 444.554 260.748 445.951 262.34L448.957 259.7ZM443.115 255.25C440.922 254.203 438.545 253.69 436.014 253.69V257.69C437.989 257.69 439.772 258.087 441.392 258.86L443.115 255.25ZM436.014 253.69C433.67 253.69 431.47 254.073 429.437 254.867L430.891 258.593C432.411 258 434.111 257.69 436.014 257.69V253.69ZM429.437 254.867C427.412 255.657 425.637 256.803 424.135 258.306L426.963 261.134C428.06 260.037 429.362 259.19 430.891 258.593L429.437 254.867ZM424.135 258.306C422.641 259.8 421.479 261.561 420.646 263.569L424.341 265.101C424.982 263.555 425.857 262.24 426.963 261.134L424.135 258.306ZM420.631 263.608C419.835 265.646 419.454 267.868 419.454 270.25H423.454C423.454 268.299 423.766 266.578 424.357 265.062L420.631 263.608ZM419.454 270.25C419.454 272.632 419.835 274.854 420.631 276.892L424.357 275.438C423.766 273.922 423.454 272.201 423.454 270.25H419.454ZM420.646 276.931C421.479 278.939 422.641 280.7 424.135 282.194L426.963 279.366C425.857 278.26 424.982 276.945 424.341 275.399L420.646 276.931ZM424.135 282.194C425.637 283.697 427.412 284.843 429.437 285.633L430.891 281.907C429.362 281.31 428.06 280.463 426.963 279.366L424.135 282.194ZM429.437 285.633C431.47 286.427 433.67 286.81 436.014 286.81V282.81C434.111 282.81 432.411 282.5 430.891 281.907L429.437 285.633ZM436.014 286.81C438.531 286.81 440.896 286.324 443.081 285.331L441.426 281.689C439.799 282.429 438.004 282.81 436.014 282.81V286.81ZM443.115 285.315C445.305 284.27 447.255 282.72 448.972 280.717L445.935 278.113C444.532 279.75 443.016 280.93 441.392 281.705L443.115 285.315ZM446.097 280.885L452.857 287.125L455.57 284.185L448.81 277.945L446.097 280.885ZM452.667 284.387C450.707 286.778 448.281 288.601 445.36 289.864L446.948 293.536C450.44 292.025 453.387 289.818 455.761 286.923L452.667 284.387ZM445.351 289.868C442.477 291.128 439.181 291.78 435.429 291.78V295.78C439.65 295.78 443.504 295.045 446.957 293.532L445.351 289.868ZM461.325 293H459.325V295H461.325V293ZM461.325 247.5V245.5H459.325V247.5H461.325ZM471.855 247.5H473.855V245.5H471.855V247.5ZM471.855 284.42H469.855V286.42H471.855V284.42ZM494.67 284.42H496.67V282.42H494.67V284.42ZM494.67 293V295H496.67V293H494.67ZM463.325 293V247.5H459.325V293H463.325ZM461.325 249.5H471.855V245.5H461.325V249.5ZM469.855 247.5V284.42H473.855V247.5H469.855ZM471.855 286.42H494.67V282.42H471.855V286.42ZM492.67 284.42V293H496.67V284.42H492.67ZM494.67 291H461.325V295H494.67V291ZM505.115 288.385L506.521 286.962L505.115 288.385ZM499.655 247.5V245.5H497.655V247.5H499.655ZM510.185 247.5H512.185V245.5H510.185V247.5ZM512.85 281.95L511.387 283.313L512.85 281.95ZM527.8 281.95L529.264 283.313V283.313L527.8 281.95ZM530.465 247.5V245.5H528.465V247.5H530.465ZM540.865 247.5H542.865V245.5H540.865V247.5ZM535.405 288.385L536.811 289.808L535.405 288.385ZM520.26 291.78C514.185 291.78 509.695 290.098 506.521 286.962L503.71 289.808C507.816 293.865 513.422 295.78 520.26 295.78V291.78ZM506.521 286.962C503.367 283.846 501.655 279.288 501.655 272.98H497.655C497.655 280.018 499.584 285.731 503.71 289.808L506.521 286.962ZM501.655 272.98V247.5H497.655V272.98H501.655ZM499.655 249.5H510.185V245.5H499.655V249.5ZM508.185 247.5V272.59H512.185V247.5H508.185ZM508.185 272.59C508.185 277.115 509.099 280.857 511.387 283.313L514.314 280.587C513.049 279.229 512.185 276.731 512.185 272.59H508.185ZM511.387 283.313C513.627 285.717 516.701 286.81 520.325 286.81V282.81C517.536 282.81 515.628 281.997 514.314 280.587L511.387 283.313ZM520.325 286.81C523.95 286.81 527.024 285.717 529.264 283.313L526.337 280.587C525.023 281.997 523.114 282.81 520.325 282.81V286.81ZM529.264 283.313C531.552 280.857 532.465 277.115 532.465 272.59H528.465C528.465 276.731 527.602 279.229 526.337 280.587L529.264 283.313ZM532.465 272.59V247.5H528.465V272.59H532.465ZM530.465 249.5H540.865V245.5H530.465V249.5ZM538.865 247.5V272.98H542.865V247.5H538.865ZM538.865 272.98C538.865 279.288 537.154 283.846 534 286.962L536.811 289.808C540.937 285.731 542.865 280.018 542.865 272.98H538.865ZM534 286.962C530.826 290.098 526.336 291.78 520.26 291.78V295.78C527.099 295.78 532.705 293.865 536.811 289.808L534 286.962ZM551.271 293H549.271V295H551.271V293ZM551.271 247.5V245.5H549.271V247.5H551.271ZM586.371 250.75L585.163 252.344L585.169 252.349L585.175 252.353L586.371 250.75ZM588.971 265.57L590.629 266.689L590.635 266.679L590.641 266.67L588.971 265.57ZM584.161 269.6L585.009 271.411L584.161 269.6ZM577.141 271.03L575.326 270.189L574.01 273.03H577.141V271.03ZM578.376 268.365V266.365H577.098L576.561 267.524L578.376 268.365ZM585.981 269.795L585.189 271.631L585.204 271.638L585.219 271.644L585.981 269.795ZM591.116 273.89L589.452 274.999L589.461 275.013L589.47 275.026L591.116 273.89ZM588.386 289.75L589.538 291.385L589.545 291.38L589.553 291.374L588.386 289.75ZM561.736 285.07H559.736V287.07H561.736V285.07ZM580.196 283.77L581.256 285.466L581.263 285.462L581.27 285.457L580.196 283.77ZM580.196 275.255L579.063 276.903L579.092 276.923L579.122 276.942L580.196 275.255ZM560.956 273.825H558.956V275.825H560.956V273.825ZM560.956 266.155V264.155H558.956V266.155H560.956ZM578.051 264.855L579.135 266.536L579.142 266.531L579.148 266.527L578.051 264.855ZM578.051 256.795L576.929 258.451L576.96 258.471L576.991 258.491L578.051 256.795ZM561.736 255.43V253.43H559.736V255.43H561.736ZM553.271 293V247.5H549.271V293H553.271ZM551.271 249.5H573.501V245.5H551.271V249.5ZM573.501 249.5C579.025 249.5 582.803 250.556 585.163 252.344L587.579 249.156C584.219 246.61 579.416 245.5 573.501 245.5V249.5ZM585.175 252.353C587.584 254.151 588.726 256.422 588.726 259.33H592.726C592.726 255.131 590.965 251.683 587.567 249.147L585.175 252.353ZM588.726 259.33C588.726 261.371 588.23 263.058 587.301 264.47L590.641 266.67C592.052 264.528 592.726 262.056 592.726 259.33H588.726ZM587.313 264.451C586.361 265.862 585.048 266.977 583.313 267.789L585.009 271.411C587.348 270.317 589.241 268.745 590.629 266.689L587.313 264.451ZM583.313 267.789C581.584 268.598 579.542 269.03 577.141 269.03V273.03C580.026 273.03 582.664 272.509 585.009 271.411L583.313 267.789ZM578.956 271.871L580.191 269.206L576.561 267.524L575.326 270.189L578.956 271.871ZM578.376 270.365C581.014 270.365 583.271 270.804 585.189 271.631L586.773 267.959C584.271 266.879 581.458 266.365 578.376 266.365V270.365ZM585.219 271.644C587.097 272.418 588.48 273.541 589.452 274.999L592.78 272.781C591.326 270.599 589.285 268.992 586.742 267.946L585.219 271.644ZM589.47 275.026C590.454 276.451 591.001 278.267 591.001 280.585H595.001C595.001 277.617 594.291 274.969 592.762 272.754L589.47 275.026ZM591.001 280.585C591.001 283.864 589.755 286.304 587.219 288.126L589.553 291.374C593.171 288.776 595.001 285.106 595.001 280.585H591.001ZM587.234 288.115C584.641 289.941 580.593 291 574.801 291V295C580.969 295 585.978 293.892 589.538 291.385L587.234 288.115ZM574.801 291H551.271V295H574.801V291ZM561.736 287.07H574.021V283.07H561.736V287.07ZM574.021 287.07C576.902 287.07 579.404 286.624 581.256 285.466L579.136 282.074C578.215 282.65 576.6 283.07 574.021 283.07V287.07ZM581.27 285.457C583.372 284.12 584.341 281.993 584.341 279.48H580.341C580.341 280.867 579.88 281.6 579.122 282.083L581.27 285.457ZM584.341 279.48C584.341 276.991 583.357 274.896 581.27 273.568L579.122 276.942C579.895 277.434 580.341 278.156 580.341 279.48H584.341ZM581.329 273.607C579.46 272.322 576.926 271.825 574.021 271.825V275.825C576.576 275.825 578.159 276.281 579.063 276.903L581.329 273.607ZM574.021 271.825H560.956V275.825H574.021V271.825ZM562.956 273.825V266.155H558.956V273.825H562.956ZM560.956 268.155H572.201V264.155H560.956V268.155ZM572.201 268.155C574.932 268.155 577.329 267.701 579.135 266.536L576.967 263.174C576.087 263.742 574.583 264.155 572.201 264.155V268.155ZM579.148 266.527C581.16 265.207 582.131 263.176 582.131 260.76H578.131C578.131 261.984 577.715 262.683 576.954 263.183L579.148 266.527ZM582.131 260.76C582.131 258.365 581.141 256.367 579.111 255.099L576.991 258.491C577.735 258.956 578.131 259.601 578.131 260.76H582.131ZM579.173 255.139C577.358 253.91 574.945 253.43 572.201 253.43V257.43C574.57 257.43 576.057 257.86 576.929 258.451L579.173 255.139ZM572.201 253.43H561.736V257.43H572.201V253.43ZM559.736 255.43V285.07H563.736V255.43H559.736Z" fill="#8D314D" mask="url(#path-3-outside-1_1016_1222)"/>
</g>
<g filter="url(#filter4_d_1016_1222)">
<path d="M563.507 561.772C556.778 571.093 548.792 577.456 539.908 582.834C515.053 597.981 488.852 600.669 461.484 591.08C442.64 584.447 426.668 572.975 411.325 560.517C401.544 552.541 391.045 546.088 377.676 547.253C375.163 547.432 372.561 548.149 369.6 549.941C373.01 552.182 376.33 554.512 379.919 556.574C402.082 569.301 421.644 585.344 439.59 603.358C443.089 606.854 443.448 609.363 440.307 613.127C432.142 622.897 430.706 623.076 422.272 613.575C405.313 594.396 387.097 576.56 366.1 561.772C353.628 552.989 349.321 552.989 336.579 561.503C313.608 576.919 293.688 595.471 277.178 617.609C273.229 622.897 271.345 622.807 266.5 618.057C258.155 609.811 258.155 609.094 266.5 600.669C284.984 581.848 305.622 565.984 328.503 552.899C330.208 551.913 331.823 550.838 334.874 548.956C326.619 546.088 319.171 545.55 313.07 548.776C301.494 554.961 289.919 561.503 279.78 569.659C259.949 585.523 238.863 597.801 212.841 598.608C184.486 599.594 160.528 589.108 140.877 568.763C140.069 567.956 139.711 566.791 138.634 564.909C141.326 565.626 143.12 565.805 144.646 566.522C173.988 579.966 202.612 577.098 230.787 562.758C249.989 552.989 269.55 544.116 290.817 539.366C308.224 535.512 325.542 535.333 342.591 540.889C348.693 542.861 354.077 542.861 360.268 540.8C382.521 533.45 404.864 534.526 426.668 542.323C442.282 547.88 457.625 554.512 472.7 561.593C502.221 575.664 531.474 577.636 560.995 561.772C561.264 561.593 561.713 561.772 563.507 561.772Z" fill="white"/>
<path d="M596.797 370.153C592.849 394.531 589.529 417.117 585.491 439.703C582.082 458.793 572.121 474.746 559.739 489.355C558.482 490.879 557.137 492.402 556.329 494.733C557.406 494.195 558.752 493.926 559.559 493.03C576.787 474.567 598.951 463.274 620.666 451.444C641.393 440.151 660.327 426.797 672.889 406.093C673.248 405.466 673.966 405.107 674.504 404.569C675.042 404.749 675.491 405.018 676.029 405.197C674.594 410.037 673.696 415.145 671.543 419.716C655.661 454.312 632.51 482.275 596.797 497.869C588.452 501.544 579.569 504.054 570.776 506.294C557.944 509.431 544.933 511.851 532.012 514.54C530.666 514.809 529.32 514.988 526.808 515.346C531.294 508.714 535.512 503.157 539.011 497.152C549.509 479.048 555.252 459.151 560.726 439.165C567.007 416.131 577.775 395.428 591.683 376.158C592.849 374.455 594.375 372.932 596.797 370.153Z" fill="white"/>
<path d="M105.164 376.247C109.741 382.969 114.586 389.601 118.983 396.413C131.096 415.234 138.095 436.117 144.197 457.448C149.94 477.524 157.926 496.435 171.385 512.657C172.193 513.553 172.731 514.629 173.36 515.704C173.539 515.973 173.36 516.421 173.36 517.317C157.836 514.449 142.133 512.209 126.789 508.713C74.656 496.972 43.2504 462.825 25.2146 414.248C24.6762 412.725 24.6762 411.022 24.2275 407.974C26.1119 409.498 26.8297 409.857 27.1886 410.484C39.8406 432.621 60.2992 445.617 82.1934 456.91C100.947 466.589 119.521 476.628 135.045 491.326C136.032 492.312 137.198 493.208 138.365 494.015C140.07 495.09 141.774 496.076 144.377 496.345C142.133 493.836 139.8 491.326 137.557 488.817C123.559 472.953 115.932 454.221 112.612 433.607C109.561 414.876 106.959 396.054 104.088 377.233C104.447 376.874 104.805 376.516 105.164 376.247Z" fill="white"/>
<path d="M106.779 457.269C98.9728 451.891 92.0636 447.141 85.1543 442.391C66.6699 429.485 48.3648 416.4 32.9312 399.819C15.344 380.998 4.48667 358.86 0.538531 333.586C-0.627964 325.789 0.35907 317.543 1.16664 309.298C2.78179 313.062 4.48667 316.916 6.10182 320.68C13.8186 338.067 26.2912 351.959 39.0329 365.672C52.0438 379.743 63.9779 394.531 73.1304 411.381C74.2969 413.442 76.0018 415.145 78.0656 417.655C78.2451 416.221 78.5143 415.593 78.3348 415.145C66.4007 391.036 66.7596 365.762 71.3358 340.129C73.6688 326.595 76.0915 313.151 78.6937 298.542C83.6289 310.463 86.3208 322.024 87.577 333.855C90.0895 358.054 91.6149 382.432 95.0247 406.541C97.0885 421.06 101.844 435.221 105.523 449.561C105.882 450.906 106.51 452.25 106.869 453.594C106.959 454.311 106.779 455.118 106.779 457.269Z" fill="white"/>
<path d="M438.603 535.063C442.102 533.808 445.602 532.285 449.191 531.299C469.29 525.742 483.468 512.029 497.376 497.51C511.643 482.632 526.449 468.202 541.075 453.683C542.6 452.159 544.484 450.994 547.266 450.277C543.677 458.702 540.626 467.396 536.498 475.641C530.845 487.024 525.103 498.406 518.104 508.982C511.553 518.841 501.593 524.935 490.198 528.61C488.044 529.327 485.89 530.402 483.827 531.209C484.006 531.747 484.186 532.285 484.275 532.822C490.108 531.657 495.851 530.223 501.773 529.506C520.706 527.176 539.729 524.935 558.662 522.963C581.364 520.633 602.361 514.359 619.589 498.227C620.037 498.585 620.486 498.944 620.935 499.213C618.961 502.619 617.435 506.293 615.013 509.34C586.119 545.639 549.42 562.219 502.939 552.361C481.404 547.79 460.138 541.695 438.692 536.318C438.692 536.049 438.603 535.601 438.603 535.063Z" fill="white"/>
<path d="M262.372 538.648C258.155 539.724 253.937 540.799 249.81 541.785C229.082 546.715 208.534 552.899 187.537 556.394C155.682 561.592 127.058 552.54 103.1 530.941C95.2938 523.95 89.0127 515.346 82.1932 507.369C80.937 505.935 80.3088 504.053 80.3986 501.454C83.0905 503.605 85.7824 505.846 88.564 507.907C105.254 520.544 124.905 524.846 145.094 526.459C169.411 528.341 193.818 529.417 217.596 535.511C218.135 535.691 218.763 535.422 219.75 534.346C217.686 533.54 215.712 532.464 213.648 531.837C194.984 526.639 182.332 514.181 173.628 497.6C166.271 483.618 160.079 469.01 153.349 454.759C153.26 454.49 153.529 454.042 153.978 452.07C160.528 457.717 166.899 462.467 172.552 468.024C186.28 481.557 199.74 495.27 213.02 509.162C225.313 522.068 240.926 529.148 257.168 535.332C258.962 536.049 260.757 536.677 262.551 537.394C262.372 537.752 262.372 538.2 262.372 538.648Z" fill="white"/>
<path d="M622.46 293.702C625.601 317.184 629.19 340.576 631.612 364.058C633.138 378.846 629.459 393.097 623.806 406.72C623.088 408.512 622.46 410.394 622.998 412.904C627.844 405.375 632.241 397.399 637.624 390.318C647.854 376.964 658.262 363.789 669.299 351.152C680.516 338.335 690.027 324.712 696.129 308.759C696.308 308.311 696.846 307.952 698.641 307.594C698.641 313.957 699 320.321 698.551 326.595C696.667 351.69 685.002 372.483 669.748 391.752C652.609 413.262 629.549 427.423 607.744 443.197C603.527 446.244 599.309 449.292 594.464 452.787C594.464 451.084 594.285 450.457 594.464 449.919C606.398 419.895 606.667 388.078 609.718 356.709C611.603 337.798 615.461 319.156 618.512 300.334C618.96 297.914 620.306 295.584 621.204 293.254C621.652 293.433 622.101 293.612 622.46 293.702Z" fill="white"/>
<path d="M80.7576 207.572C80.3986 215.101 80.3089 221.643 79.7705 228.096C77.1683 259.017 69.3618 288.773 60.8374 318.439C56.7098 332.779 54.7357 347.388 56.4406 362.355C56.5303 363.251 56.3509 364.237 55.0049 365.671C52.7617 362.445 50.6081 359.218 48.3649 356.081C38.8534 343.175 28.6242 330.717 20.0101 317.274C6.90941 296.839 1.16667 273.805 0.179634 249.786C-0.448479 233.384 -1.25606 216.893 4.12777 200.94C4.84561 198.699 5.56346 196.548 6.99914 194.308C6.55049 220.03 17.5873 242.257 26.3809 265.381C32.4826 281.603 35.9821 298.811 40.6481 315.571C41.4556 318.618 42.0837 321.755 43.7886 324.713C43.6092 320.859 43.5194 316.915 43.2502 313.061C41.5454 287.697 50.6081 265.381 62.2731 243.602C68.3748 232.309 74.1175 220.478 80.7576 207.572Z" fill="white"/>
<path d="M693.168 188.303C694.513 192.784 696.667 197.265 697.116 201.836C699.808 232.667 701.871 263.767 689.04 292.985C682.669 307.325 673.337 320.321 664.813 333.585C658.532 343.444 651.443 352.765 643.188 361.997C643.098 360.383 642.739 358.77 642.918 357.157C645.341 338.963 641.842 321.486 636.458 304.368C627.575 275.956 621.114 247.187 618.332 217.521C617.973 214.204 618.332 210.799 619.678 207.034C620.845 209.454 621.832 211.874 623.088 214.204C631.074 229.262 638.97 244.319 647.046 259.286C656.378 276.584 658.711 294.957 656.558 314.137C656.378 315.571 656.378 316.915 657.096 318.708C657.724 317.184 658.621 315.75 658.801 314.226C661.941 289.4 670.645 266.277 680.157 243.333C687.066 226.662 691.193 209.365 691.193 191.26C691.193 190.364 691.463 189.468 691.642 188.572C692.091 188.482 692.629 188.392 693.168 188.303Z" fill="white"/>
<path d="M656.647 87.9224C658.352 90.3422 660.146 92.5829 661.672 95.0924C686.527 135.065 688.681 176.92 672.529 220.568C669.119 229.62 666.786 239.12 664.094 248.441C662.928 252.295 662.031 256.149 660.415 260.093C652.788 231.502 633.317 209.992 618.242 185.883C608.372 170.109 601.193 153.17 597.245 134.976C596.976 133.811 596.886 132.645 596.617 130.763C597.873 131.48 598.681 131.66 599.13 132.108C610.795 144.476 622.19 157.113 634.035 169.302C645.879 181.402 653.865 195.294 656.557 212.143C656.826 213.667 657.454 215.19 658.711 216.714C658.711 213.756 659.07 210.709 658.621 207.841C655.48 184.09 658.083 160.429 659.877 136.768C661.133 120.456 660.864 104.413 655.121 88.8186C655.749 88.5497 656.198 88.2809 656.647 87.9224Z" fill="white"/>
<path d="M39.3021 263.588C35.8924 253.371 32.5723 244.05 29.7907 234.639C25.035 218.148 19.0231 201.746 16.3311 184.807C11.2165 152.273 20.1896 122.518 38.1356 95.1819C38.674 94.3753 39.3919 93.5686 40.1097 92.8516C40.2892 92.6724 40.8275 92.762 41.7249 92.6724C40.6481 96.5263 39.5713 100.111 38.674 103.786C35.1745 118.036 35.7129 132.376 37.7767 146.716C41.0967 169.661 42.5324 192.694 40.1097 215.907C39.8405 218.417 40.1097 220.926 40.1097 225.228C42.6222 216.355 44.1476 209.006 46.66 202.105C52.2233 187.137 62.3629 175.217 73.1305 163.745C81.0268 155.321 88.7436 146.716 96.5501 138.202C97.1783 137.485 97.9858 137.037 100.05 136.947C99.1523 141.339 98.5242 145.82 97.3577 150.212C92.1534 170.557 82.0138 188.572 70.4386 205.78C58.7736 223.077 47.5573 240.375 41.2762 260.361C41.007 261.258 40.2892 261.975 39.3021 263.588Z" fill="white"/>
<path d="M565.93 62.9172C574.544 71.4316 582.261 80.3045 591.323 87.5642C605.949 99.1259 621.114 109.971 632.869 125.207C630.894 116.603 628.831 107.999 626.857 99.3947C624.703 90.0737 622.55 80.8423 620.486 71.5212C617.435 58.0774 612.41 45.6195 602.271 35.5815C602.629 35.1333 603.078 34.5956 603.437 34.1475C606.578 35.5815 609.987 36.5673 612.769 38.5391C636.637 55.2094 648.302 78.6912 649.11 107.371C649.558 121.174 648.302 134.976 647.943 148.778C647.764 155.231 647.943 161.684 647.943 169.571C643.636 164.015 640.496 158.906 636.368 154.873C624.344 143.401 612.231 132.108 599.668 121.174C583.517 107.192 572.121 90.4322 567.276 69.5495C566.558 67.3088 566.289 65.0682 565.93 62.9172Z" fill="white"/>
<path d="M129.481 71.8796C129.391 78.0637 126.071 86.6678 121.585 94.9133C113.509 109.881 102.024 121.98 89.5511 133.542C76.8991 145.193 65.5033 158.099 53.5692 170.467C52.7616 171.274 52.1335 172.17 50.7875 172.798C51.3259 146.269 45.2242 120.188 50.1594 93.8378C54.5562 70.1767 67.6569 52.879 87.9359 40.5107C89.3716 39.6145 91.1662 39.256 93.6787 39.5248C91.1662 42.9306 88.564 46.2467 86.231 49.8317C78.8732 61.1245 75.9121 73.941 73.2201 86.9366C69.9898 102.352 66.8493 117.768 63.4395 134.438C67.926 128.164 71.1563 121.98 75.9121 117.409C85.4235 108.357 95.7425 100.112 105.792 91.5972C114.047 84.6064 122.482 77.6156 129.481 71.8796Z" fill="white"/>
<path d="M533.627 -0.358398C570.596 1.43411 615.192 53.4168 614.205 93.2105C578.851 69.1012 560.456 31.0105 533.627 -0.358398Z" fill="white"/>
<path d="M161.515 2.33057C159.451 5.2882 158.464 6.72221 157.477 8.15622C147.248 22.4963 136.929 36.7467 126.968 51.1764C115.034 68.4741 100.229 82.9038 83.8979 96.2579C81.2957 87.7435 89.9098 58.1672 101.395 42.4827C116.111 22.2274 135.852 9.59022 161.515 2.33057Z" fill="white"/>
</g>
</g>
</g>
<defs>
<filter id="filter0_d_1016_1222" x="-4.27295" y="-0.358398" width="707.405" height="629.957" filterUnits="userSpaceOnUse" color-interpolation-filters="sRGB">
<feFlood flood-opacity="0" result="BackgroundImageFix"/>
<feColorMatrix in="SourceAlpha" type="matrix" values="0 0 0 0 0 0 0 0 0 0 0 0 0 0 0 0 0 0 127 0" result="hardAlpha"/>
<feOffset dy="4"/>
<feGaussianBlur stdDeviation="2"/>
<feComposite in2="hardAlpha" operator="out"/>
<feColorMatrix type="matrix" values="0 0 0 0 0 0 0 0 0 0 0 0 0 0 0 0 0 0 0.25 0"/>
<feBlend mode="normal" in2="BackgroundImageFix" result="effect1_dropShadow_1016_1222"/>
<feBlend mode="normal" in="SourceGraphic" in2="effect1_dropShadow_1016_1222" result="shape"/>
</filter>
<filter id="filter1_dd_1016_1222" x="120.869" y="50.4224" width="454.372" height="446.036" filterUnits="userSpaceOnUse" color-interpolation-filters="sRGB">
<feFlood flood-opacity="0" result="BackgroundImageFix"/>
<feColorMatrix in="SourceAlpha" type="matrix" values="0 0 0 0 0 0 0 0 0 0 0 0 0 0 0 0 0 0 127 0" result="hardAlpha"/>
<feOffset dy="4"/>
<feGaussianBlur stdDeviation="2"/>
<feComposite in2="hardAlpha" operator="out"/>
<feColorMatrix type="matrix" values="0 0 0 0 0 0 0 0 0 0 0 0 0 0 0 0 0 0 0.25 0"/>
<feBlend mode="normal" in2="BackgroundImageFix" result="effect1_dropShadow_1016_1222"/>
<feColorMatrix in="SourceAlpha" type="matrix" values="0 0 0 0 0 0 0 0 0 0 0 0 0 0 0 0 0 0 127 0" result="hardAlpha"/>
<feOffset dy="4"/>
<feGaussianBlur stdDeviation="2"/>
<feComposite in2="hardAlpha" operator="out"/>
<feColorMatrix type="matrix" values="0 0 0 0 0 0 0 0 0 0 0 0 0 0 0 0 0 0 0.25 0"/>
<feBlend mode="normal" in2="effect1_dropShadow_1016_1222" result="effect2_dropShadow_1016_1222"/>
<feBlend mode="normal" in="SourceGraphic" in2="effect2_dropShadow_1016_1222" result="shape"/>
</filter>
<filter id="filter2_dd_1016_1222" x="120.869" y="50.4224" width="454.372" height="446.036" filterUnits="userSpaceOnUse" color-interpolation-filters="sRGB">
<feFlood flood-opacity="0" result="BackgroundImageFix"/>
<feColorMatrix in="SourceAlpha" type="matrix" values="0 0 0 0 0 0 0 0 0 0 0 0 0 0 0 0 0 0 127 0" result="hardAlpha"/>
<feOffset dy="4"/>
<feGaussianBlur stdDeviation="2"/>
<feComposite in2="hardAlpha" operator="out"/>
<feColorMatrix type="matrix" values="0 0 0 0 0 0 0 0 0 0 0 0 0 0 0 0 0 0 0.25 0"/>
<feBlend mode="normal" in2="BackgroundImageFix" result="effect1_dropShadow_1016_1222"/>
<feColorMatrix in="SourceAlpha" type="matrix" values="0 0 0 0 0 0 0 0 0 0 0 0 0 0 0 0 0 0 127 0" result="hardAlpha"/>
<feOffset dy="4"/>
<feGaussianBlur stdDeviation="2"/>
<feComposite in2="hardAlpha" operator="out"/>
<feColorMatrix type="matrix" values="0 0 0 0 0 0 0 0 0 0 0 0 0 0 0 0 0 0 0.25 0"/>
<feBlend mode="normal" in2="effect1_dropShadow_1016_1222" result="effect2_dropShadow_1016_1222"/>
<feBlend mode="normal" in="SourceGraphic" in2="effect2_dropShadow_1016_1222" result="shape"/>
</filter>
<filter id="filter3_ddddd_1016_1222" x="102.395" y="246.72" width="496.606" height="55.0596" filterUnits="userSpaceOnUse" color-interpolation-filters="sRGB">
<feFlood flood-opacity="0" result="BackgroundImageFix"/>
<feColorMatrix in="SourceAlpha" type="matrix" values="0 0 0 0 0 0 0 0 0 0 0 0 0 0 0 0 0 0 127 0" result="hardAlpha"/>
<feOffset dy="4"/>
<feGaussianBlur stdDeviation="2"/>
<feComposite in2="hardAlpha" operator="out"/>
<feColorMatrix type="matrix" values="0 0 0 0 0 0 0 0 0 0 0 0 0 0 0 0 0 0 0.25 0"/>
<feBlend mode="normal" in2="BackgroundImageFix" result="effect1_dropShadow_1016_1222"/>
<feColorMatrix in="SourceAlpha" type="matrix" values="0 0 0 0 0 0 0 0 0 0 0 0 0 0 0 0 0 0 127 0" result="hardAlpha"/>
<feOffset dx="6" dy="6"/>
<feComposite in2="hardAlpha" operator="out"/>
<feColorMatrix type="matrix" values="0 0 0 0 0.964706 0 0 0 0 0.607843 0 0 0 0 0.501961 0 0 0 0.25 0"/>
<feBlend mode="normal" in2="effect1_dropShadow_1016_1222" result="effect2_dropShadow_1016_1222"/>
<feColorMatrix in="SourceAlpha" type="matrix" values="0 0 0 0 0 0 0 0 0 0 0 0 0 0 0 0 0 0 127 0" result="hardAlpha"/>
<feOffset dx="3" dy="3"/>
<feComposite in2="hardAlpha" operator="out"/>
<feColorMatrix type="matrix" values="0 0 0 0 0.866667 0 0 0 0 0.439216 0 0 0 0 0.309804 0 0 0 1 0"/>
<feBlend mode="normal" in2="effect2_dropShadow_1016_1222" result="effect3_dropShadow_1016_1222"/>
<feColorMatrix in="SourceAlpha" type="matrix" values="0 0 0 0 0 0 0 0 0 0 0 0 0 0 0 0 0 0 127 0" result="hardAlpha"/>
<feOffset dx="-6" dy="6"/>
<feComposite in2="hardAlpha" operator="out"/>
<feColorMatrix type="matrix" values="0 0 0 0 0.494118 0 0 0 0 0.372549 0 0 0 0 0.572549 0 0 0 0.25 0"/>
<feBlend mode="normal" in2="effect3_dropShadow_1016_1222" result="effect4_dropShadow_1016_1222"/>
<feColorMatrix in="SourceAlpha" type="matrix" values="0 0 0 0 0 0 0 0 0 0 0 0 0 0 0 0 0 0 127 0" result="hardAlpha"/>
<feOffset dx="-3" dy="3"/>
<feComposite in2="hardAlpha" operator="out"/>
<feColorMatrix type="matrix" values="0 0 0 0 0.32549 0 0 0 0 0.25098 0 0 0 0 0.372549 0 0 0 1 0"/>
<feBlend mode="normal" in2="effect4_dropShadow_1016_1222" result="effect5_dropShadow_1016_1222"/>
<feBlend mode="normal" in="SourceGraphic" in2="effect5_dropShadow_1016_1222" result="shape"/>
</filter>
<filter id="filter4_d_1016_1222" x="-4.27295" y="-0.358398" width="707.405" height="629.957" filterUnits="userSpaceOnUse" color-interpolation-filters="sRGB">
<feFlood flood-opacity="0" result="BackgroundImageFix"/>
<feColorMatrix in="SourceAlpha" type="matrix" values="0 0 0 0 0 0 0 0 0 0 0 0 0 0 0 0 0 0 127 0" result="hardAlpha"/>
<feOffset dy="4"/>
<feGaussianBlur stdDeviation="2"/>
<feComposite in2="hardAlpha" operator="out"/>
<feColorMatrix type="matrix" values="0 0 0 0 0 0 0 0 0 0 0 0 0 0 0 0 0 0 0.25 0"/>
<feBlend mode="normal" in2="BackgroundImageFix" result="effect1_dropShadow_1016_1222"/>
<feBlend mode="normal" in="SourceGraphic" in2="effect1_dropShadow_1016_1222" result="shape"/>
</filter>
<clipPath id="clip0_1016_1222">
<rect width="699" height="622" fill="white"/>
</clipPath>
<clipPath id="clip1_1016_1222">
<rect width="446" height="179" fill="white" transform="translate(125 309)"/>
</clipPath>
<clipPath id="clip2_1016_1222">
<rect width="446" height="188" fill="white" transform="translate(125 50)"/>
</clipPath>
</defs>
</svg>
