<svg width="377" height="211" viewBox="0 0 377 211" fill="none" xmlns="http://www.w3.org/2000/svg">
<g filter="url(#filter0_d_1287_724)">
<path d="M369.374 111.129L339.96 112.88L362.012 93.5979C362.111 93.5141 362.213 93.4082 362.303 93.3112C363.554 91.9179 363.425 89.7839 362.012 88.5493C360.6 87.3146 358.437 87.4425 357.185 88.8358L337.64 110.591L339.415 81.5737C339.423 81.4458 339.423 81.2959 339.415 81.1681C339.303 79.3073 337.681 77.8919 335.794 78.0065C333.908 78.1167 332.474 79.7174 332.585 81.5781L334.36 110.596L314.814 88.8402C314.73 88.7432 314.622 88.6419 314.524 88.5537C313.112 87.3191 310.949 87.4469 309.697 88.8402C308.446 90.2336 308.575 92.3677 309.988 93.6023L332.04 112.884L302.626 111.134C302.497 111.125 302.345 111.125 302.215 111.134C300.329 111.244 298.894 112.845 299.006 114.705C299.118 116.566 300.74 117.981 302.626 117.867L332.04 116.116L309.988 135.398C309.894 135.482 309.786 135.588 309.697 135.685C308.446 137.078 308.575 139.212 309.988 140.447C311.4 141.682 313.563 141.554 314.814 140.16L334.36 118.405L332.585 147.422C332.581 147.55 332.576 147.7 332.585 147.828C332.697 149.689 334.319 151.104 336.206 150.994C338.092 150.884 339.526 149.283 339.415 147.422L337.64 118.405L357.185 140.16C357.27 140.257 357.377 140.359 357.476 140.447C358.888 141.682 361.051 141.554 362.303 140.16C363.554 138.767 363.425 136.633 362.012 135.398L339.96 116.116L369.374 117.867C369.503 117.876 369.655 117.876 369.785 117.867C371.671 117.757 373.106 116.156 372.994 114.295C372.882 112.434 371.26 111.019 369.374 111.129Z" fill="#7AABBF"/>
</g>
<g filter="url(#filter1_d_1287_724)">
<rect width="326.819" height="78.9415" rx="10" transform="matrix(0.994104 -0.108435 0.0925872 0.995705 4 78.4385)" fill="#8D314D"/>
</g>
<rect x="-0.543345" y="-0.443635" width="317.213" height="68.4144" rx="10.5" transform="matrix(0.994104 -0.108435 0.0925872 0.995705 10.1546 83.2107)" fill="#8D314D" stroke="#F9F0E0"/>
<path d="M60.982 124.966L50.052 100.809L56.0643 100.153L65.6081 121.564L62.602 121.892L67.6236 98.8913L72.9917 98.3053L82.5714 119.712L79.6726 120.029L84.551 97.0434L90.0981 96.4379L84.6375 122.384L78.4105 123.063L69.9508 104.287L71.5971 104.107L67.209 124.286L60.982 124.966ZM105.769 100.304C107.296 100.137 108.69 100.299 109.951 100.789C111.233 101.253 112.288 102.079 113.118 103.268C113.946 104.433 114.466 105.994 114.68 107.95L115.883 118.973L110.3 119.582L109.191 109.419C109.021 107.868 108.55 106.76 107.778 106.096C107.029 105.43 106.034 105.164 104.794 105.299C103.911 105.396 103.132 105.674 102.458 106.134C101.806 106.567 101.318 107.188 100.996 107.996C100.697 108.801 100.613 109.8 100.744 110.993L101.783 120.512L96.1999 121.121L93.3011 94.5672L98.8839 93.9578L100.263 106.591L98.8346 105.117C99.3859 103.753 100.268 102.655 101.481 101.822C102.694 100.99 104.123 100.484 105.769 100.304ZM132.753 117.131L132.343 113.373L131.895 112.589L131.161 105.861C131.031 104.668 130.559 103.778 129.747 103.191C128.958 102.601 127.812 102.388 126.309 102.552C125.283 102.664 124.288 102.942 123.322 103.385C122.378 103.802 121.589 104.323 120.957 104.947L118.528 101.265C119.497 100.411 120.699 99.7004 122.134 99.1333C123.568 98.5663 125.049 98.1994 126.576 98.0327C129.511 97.7123 131.865 98.1555 133.638 99.3622C135.412 100.569 136.459 102.639 136.779 105.574L137.978 116.561L132.753 117.131ZM126.915 118.058C125.412 118.222 124.097 118.112 122.968 117.729C121.837 117.321 120.938 116.707 120.269 115.887C119.6 115.066 119.205 114.108 119.085 113.01C118.96 111.865 119.125 110.833 119.58 109.914C120.059 108.993 120.881 108.227 122.046 107.617C123.208 106.983 124.767 106.559 126.723 106.346L131.841 105.787L132.196 109.044L127.687 109.536C126.375 109.679 125.492 109.993 125.038 110.477C124.607 110.959 124.427 111.522 124.498 112.166C124.576 112.881 124.913 113.424 125.508 113.794C126.125 114.137 126.923 114.255 127.901 114.148C128.831 114.047 129.643 113.741 130.336 113.23C131.026 112.696 131.491 111.982 131.731 111.086L132.872 113.569C132.601 114.854 131.965 115.877 130.961 116.639C129.958 117.4 128.609 117.873 126.915 118.058ZM150.936 115.436C148.669 115.683 146.841 115.304 145.451 114.296C144.059 113.265 143.238 111.605 142.988 109.314L141.144 92.4226L146.727 91.8132L148.563 108.633C148.652 109.444 148.936 110.053 149.415 110.46C149.891 110.842 150.499 110.993 151.238 110.912C152.121 110.816 152.847 110.495 153.415 109.951L155.348 113.723C154.819 114.191 154.161 114.577 153.374 114.88C152.607 115.157 151.794 115.342 150.936 115.436ZM139.155 101.73L138.686 97.435L152.034 95.9778L152.503 100.272L139.155 101.73ZM175.124 112.506L164.194 88.3492L170.206 87.6929L179.75 109.104L176.744 109.432L181.766 86.431L187.134 85.845L196.714 107.252L193.815 107.568L198.693 84.5831L204.24 83.9776L198.78 109.923L192.553 110.603L184.093 91.8263L185.739 91.6466L181.351 111.826L175.124 112.506ZM217.971 108.118C215.777 108.358 213.797 108.139 212.033 107.463C210.293 106.783 208.889 105.754 207.821 104.373C206.75 102.969 206.111 101.313 205.903 99.4043C205.692 97.4718 205.947 95.7177 206.668 94.1422C207.411 92.5401 208.512 91.2369 209.971 90.2326C211.428 89.2044 213.135 88.5835 215.091 88.37C216.976 88.1642 218.714 88.3849 220.306 89.032C221.919 89.6526 223.249 90.6663 224.296 92.073C225.34 93.4559 225.975 95.1851 226.202 97.2608C226.225 97.4755 226.241 97.7273 226.248 98.0162C226.253 98.2813 226.256 98.5344 226.259 98.7756L210.619 100.483L210.264 97.2262L222.968 95.8393L220.927 97.0399C220.817 96.0379 220.519 95.1892 220.033 94.4939C219.547 93.7985 218.924 93.2871 218.164 92.9597C217.401 92.6084 216.543 92.4848 215.588 92.589C214.634 92.6932 213.81 93.0003 213.118 93.5105C212.446 93.9943 211.949 94.64 211.627 95.4477C211.302 96.2316 211.196 97.1365 211.308 98.1624L211.401 99.0213C211.516 100.071 211.844 100.977 212.386 101.738C212.949 102.474 213.672 103.01 214.554 103.349C215.457 103.661 216.481 103.754 217.626 103.629C218.652 103.517 219.53 103.264 220.26 102.871C221.013 102.475 221.678 101.931 222.254 101.241L225.576 104.137C224.803 105.236 223.778 106.132 222.502 106.827C221.223 107.498 219.713 107.928 217.971 108.118ZM241.491 105.261L238.756 80.2097L250.136 78.9674C252.856 78.6705 255.311 78.9336 257.501 79.7568C259.689 80.5561 261.469 81.8224 262.841 83.5557C264.213 85.2891 265.039 87.4321 265.318 89.985C265.594 92.514 265.25 94.7847 264.287 96.7971C263.321 98.7856 261.857 100.418 259.896 101.694C257.933 102.947 255.591 103.722 252.871 104.019L241.491 105.261ZM246.769 99.8683L252.065 99.2901C253.735 99.1078 255.145 98.64 256.294 97.8869C257.464 97.1073 258.319 96.0965 258.86 94.8545C259.424 93.6099 259.62 92.2003 259.448 90.6257C259.274 89.0272 258.778 87.6931 257.961 86.6234C257.166 85.5273 256.114 84.7368 254.805 84.2519C253.518 83.7406 252.04 83.576 250.37 83.7584L245.073 84.3366L246.769 99.8683ZM279.856 101.362C277.804 101.586 275.932 101.356 274.24 100.672C272.572 99.9848 271.192 98.9525 270.1 97.5749C269.029 96.1708 268.389 94.5144 268.181 92.6057C267.97 90.6732 268.237 88.9178 268.982 87.3397C269.749 85.735 270.874 84.4292 272.357 83.4223C273.862 82.3889 275.64 81.7602 277.692 81.5362C279.72 81.3148 281.58 81.5463 283.272 82.2307C284.962 82.8913 286.341 83.9117 287.409 85.2919C288.477 86.6722 289.118 88.3405 289.331 90.2968C289.54 92.2055 289.273 93.9609 288.53 95.5629C287.785 97.1411 286.66 98.4469 285.155 99.4803C283.651 100.514 281.884 101.141 279.856 101.362ZM279.356 96.7816C280.287 96.6801 281.098 96.3742 281.791 95.864C282.484 95.3538 283.002 94.6816 283.345 93.8474C283.686 92.9894 283.797 92.0116 283.677 90.9141C283.555 89.7928 283.236 88.8619 282.72 88.1214C282.205 87.381 281.554 86.8364 280.767 86.4877C279.981 86.139 279.122 86.0154 278.192 86.117C277.262 86.2186 276.45 86.5245 275.757 87.0346C275.064 87.5448 274.534 88.2183 274.167 89.0551C273.824 89.8893 273.713 90.8671 273.835 91.9884C273.955 93.0859 274.274 94.0168 274.792 94.7811C275.331 95.519 275.994 96.0622 276.781 96.4109C277.567 96.7597 278.426 96.8832 279.356 96.7816Z" fill="#F9F0E0"/>
<defs>
<filter id="filter0_d_1287_724" x="295" y="78" width="82" height="81" filterUnits="userSpaceOnUse" color-interpolation-filters="sRGB">
<feFlood flood-opacity="0" result="BackgroundImageFix"/>
<feColorMatrix in="SourceAlpha" type="matrix" values="0 0 0 0 0 0 0 0 0 0 0 0 0 0 0 0 0 0 127 0" result="hardAlpha"/>
<feOffset dy="4"/>
<feGaussianBlur stdDeviation="2"/>
<feComposite in2="hardAlpha" operator="out"/>
<feColorMatrix type="matrix" values="0 0 0 0 0 0 0 0 0 0 0 0 0 0 0 0 0 0 0.25 0"/>
<feBlend mode="normal" in2="BackgroundImageFix" result="effect1_dropShadow_1287_724"/>
<feBlend mode="normal" in="SourceGraphic" in2="effect1_dropShadow_1287_724" result="shape"/>
</filter>
<filter id="filter1_d_1287_724" x="0.882324" y="44.0244" width="334.437" height="115.992" filterUnits="userSpaceOnUse" color-interpolation-filters="sRGB">
<feFlood flood-opacity="0" result="BackgroundImageFix"/>
<feColorMatrix in="SourceAlpha" type="matrix" values="0 0 0 0 0 0 0 0 0 0 0 0 0 0 0 0 0 0 127 0" result="hardAlpha"/>
<feOffset dx="-4" dy="4"/>
<feComposite in2="hardAlpha" operator="out"/>
<feColorMatrix type="matrix" values="0 0 0 0 0 0 0 0 0 0 0 0 0 0 0 0 0 0 1 0"/>
<feBlend mode="normal" in2="BackgroundImageFix" result="effect1_dropShadow_1287_724"/>
<feBlend mode="normal" in="SourceGraphic" in2="effect1_dropShadow_1287_724" result="shape"/>
</filter>
</defs>
</svg>
